<svg width="80" height="80" fill="none" xmlns="http://www.w3.org/2000/svg"><path fill-rule="evenodd" clip-rule="evenodd" d="M9.341 45.378l.257 1.13-5.285 3.625-.265-1.166 1.091-.74-.549-2.413-1.302-.19-.265-1.166 6.318.92zm-1.413.928l-2.178-.33.362 1.592 1.816-1.262zm5.597 9.836l.652.934-3.978 2.861.963 1.381-.879.633-1.615-2.315 4.857-3.494zm7.423 8.473l.912.674-2.872 4 1.346.996-.634.885-2.258-1.671 3.506-4.884zm9.61 5.174l1.092.284-1.476 5.855-1.092-.284 1.476-5.855zm11.67 1.421l1.138-.088 2.738 5.85-1.175.09-.557-1.206-2.433.189-.38 1.279-1.175.091 1.844-6.205zm.691 1.558l-.648 2.137 1.605-.125-.957-2.012zm10.512-4.269l.965-.481 4.03 2.421-1.728-3.57 1.012-.504 2.625 5.424-.972.485-4.017-2.414 1.722 3.559-1.012.504-2.625-5.424zM68.158 57.15l.1 1.108c-.781.073-1.38.377-1.8.916-.352.454-.497.96-.433 1.514a1.98 1.98 0 00.764 1.37 2.1 2.1 0 00.99.457c.349.056.69.013 1.023-.127a2.14 2.14 0 00.86-.676c.203-.262.342-.54.414-.835.073-.295.083-.675.03-1.138l1.109-.108c.065.62.042 1.14-.07 1.556a3.44 3.44 0 01-.634 1.225c-.574.738-1.273 1.159-2.1 1.26-.825.102-1.599-.137-2.318-.713-.467-.374-.797-.812-.992-1.317a3.07 3.07 0 01-.159-1.619 3.404 3.404 0 011.794-2.49 3.36 3.36 0 011.422-.383zm2.277-8.126l.741-3.213 1.082.258-.484 2.098 1.04.247.485-2.098 1.066.254-.485 2.098 1.526.363.484-2.098 1.082.257-.742 3.213-5.795-1.38z" fill="#010D18"/><path fill-rule="evenodd" clip-rule="evenodd" d="M78.868 40.026c-1.775.073-8.232-.005-9.287.008-.844.01-1.047.24-1.072 1.06-.466 14.99-12.817 27.16-27.865 27.488-14.862.325-27.576-10.96-29.025-25.767-.084-.86.028-1.386-.235-2.216-.2-.631-1.28-.644-2.038-.566-1.966.02-6.543.058-8.399 0-.825-.025-.991.282-.938 1.04.197 2.803.46 5.588 1.13 8.33 2.213 9.048 7.034 16.425 14.31 22.163 2.81 2.217 5.93 3.964 9.268 5.367 4.162 1.75 8.455 2.846 12.93 3.026 14.09.566 25.599-4.69 34.262-15.837 5.22-6.716 7.806-14.463 8.089-22.98.03-.906-.244-1.153-1.13-1.116zm.047 2.18c-.565 8.367-3.34 15.898-8.7 22.37-7.887 9.526-18.107 14.217-30.417 14.408-4.199.064-8.273-.728-12.235-1.963-3-.935-5.815-2.372-8.457-4.115-9.948-6.56-15.803-15.754-17.667-27.508-.186-1.168-.196-2.363-.306-3.544-.052-.556.16-.787.728-.784 2.609.014 5.218.03 7.826-.008.786-.012.761.449.805.982.36 4.43 1.486 8.645 3.751 12.49 4.96 8.424 12.235 13.51 21.96 14.802 16.005 2.126 30.604-8.901 33.05-24.864a26.42 26.42 0 00.263-2.593c.031-.6.263-.82.87-.814 2.57.024 5.139.043 7.707-.007.963-.018.864.538.822 1.148z" fill="#010D18"/><path fill-rule="evenodd" clip-rule="evenodd" d="M40.053 69.378c-16.232 0-29.437-13.217-29.437-29.464S23.82 10.45 40.053 10.45 69.49 23.667 69.49 39.914 56.285 69.378 40.053 69.378zm0-58.003c-15.722 0-28.513 12.803-28.513 28.54 0 15.735 12.79 28.538 28.513 28.538 15.722 0 28.512-12.803 28.512-28.539s-12.79-28.54-28.512-28.54z" fill="#010D18"/><path fill-rule="evenodd" clip-rule="evenodd" d="M39.875 12.493c-14.872 0-26.929 12.068-26.929 26.954 0 14.887 12.057 26.955 26.929 26.955 14.873 0 26.93-12.068 26.93-26.955 0-14.887-12.058-26.954-26.93-26.954zm-2.008 33.903c-1.853-.228-3.72-.389-5.547-.75-1.499-.297-2.574.835-3.917.904-.865.044-1.606.217-2.005 1.035-.419.858-.35 1.69.361 2.616.585-1.216 1.463-1.108 2.395-.87 1.827.463 3.514 1.258 5.117 2.223 1.193.719 2.319 1.545 2.98 2.833.732 1.427.464 2.627-.76 3.538-1.675 1.245-5.113 1.551-7.036.628 1.518-.762 1.518-.762 2.086-1.812-2.202.91-4.345 1.447-6.712.82.454-.792 1.392-.823 1.675-1.615-5.282.442-8.436-.884-9.247-3.902 1.825.513 3.645 1.154 5.569-.267-6.004-.22-8.675-3.733-7.683-10.18.874 2.903 2.183 5.09 5.376 5.574-4.745-4.042-5.57-7.793-2.599-11.338 1.095 5.098 1.37 5.709 3.516 7.34-3.686-6.418-2.009-13.988 3.579-16.882-2.068 4.017-3.176 8.014-.956 12.342.303-.508.007-.836-.06-1.186-.857-4.503-.053-8.585 3.015-12.113 1.722-1.98 5.678-3.342 8.204-1.71-5.55 2.653-8.424 8.515-6.36 13.405.232-2.25.172-4.445 2.388-5.823.367 3.275.724 6.348 2.152 9.168 1.484 2.934 3.83 4.878 6.911 6.068-.874.095-1.662.05-2.442-.046zm-5.635 1.24c0 .235-.397.426-.887.426s-.887-.191-.887-.427c0-.235.397-.426.887-.426s.887.19.887.426zm24.625 10.448c-3.712 2.33-7.769 3.251-12.095 1.962-2.108-.629-3.806-1.822-4.608-4.046.625-.198.745.63 1.365.464.02-.277.03-.582.067-.884.124-1.016-.842-2.176-.247-2.9.588-.714 1.916.1 2.998-.329a4.615 4.615 0 00-1.64-2.11c-1.126-.799-.896-1.47.101-1.996 1.018-.538.854-1.006.302-1.35 5.597-3.996 2.716-8.621 1.037-13.117.91-.07 1.35.834 2.285.896-1.425-3.37-3.898-5.645-6.898-7.78 2.326-.518 4.262.03 6.513.64-5.86-6.802-13.027-9.279-21.783-8.345 7.127-5.986 19.422-6.14 27.277 6.067-1.647-5.104-5.298-8.236-10.198-10.16 4.97.222 9.53 1.445 13.177 4.944 3.727 3.574 4.734 8.273 5.102 13.2.653-3.92.316-5.397-2.836-12.515 3.354 2.883 5.764 6.03 7.304 9.853 1.558 3.87 1.617 7.776.134 11.99 1.048-.718 1.237-1.627 2.008-2.417-.504 7.54-2.867 13.856-9.365 17.933z" fill="#010D18"/><path fill-rule="evenodd" clip-rule="evenodd" d="M78.868 39.974c-1.775-.073-8.232.005-9.287-.008-.844-.01-1.047-.24-1.072-1.06-.466-14.99-12.817-27.16-27.865-27.488-14.862-.325-27.576 10.96-29.025 25.767-.084.86.028 1.386-.235 2.216-.2.631-1.28.644-2.038.565-1.966-.019-6.543-.057-8.399 0-.825.026-.991-.282-.938-1.04.197-2.802.46-5.587 1.13-8.329C3.352 21.55 8.173 14.172 15.45 8.434c2.81-2.217 5.93-3.964 9.268-5.368C28.88 1.316 33.173.221 37.648.041c14.09-.566 25.599 4.69 34.262 15.837 5.22 6.716 7.806 14.463 8.089 22.98.03.906-.244 1.153-1.13 1.116zm.047-2.18c-.565-8.367-3.34-15.898-8.7-22.371C62.329 5.898 52.109 1.207 39.799 1.016c-4.199-.064-8.273.728-12.235 1.963-3 .935-5.815 2.372-8.457 4.114C9.159 13.655 3.304 22.848 1.44 34.603c-.186 1.167-.196 2.362-.306 3.543-.052.556.16.787.728.784 2.609-.014 5.218-.03 7.826.008.786.012.761-.449.805-.982.36-4.43 1.487-8.645 3.751-12.49 4.96-8.424 12.235-13.51 21.96-14.802 16.005-2.126 30.604 8.901 33.05 24.864.13.858.217 1.726.263 2.592.031.6.263.821.87.815 2.57-.024 5.139-.043 7.707.007.963.018.864-.538.822-1.148z" fill="#010D18"/><path fill-rule="evenodd" clip-rule="evenodd" d="M52.666 4.518l1.073.428-.264 4.599 2.977-3.516 1.07.428-1.344 6.207-1.067-.426.843-3.923L53.26 11.5l-.977-.39.239-4.164-2.097 3.422-1.08-.43 3.321-5.419zM21.1 7.483l1.017-.548 3.352 3.156-.78-4.542 1.014-.547 3.89 5.017-1.011.546-2.463-3.167.708 4.113-.926.499-3.035-2.858 1.274 3.807-1.024.551L21.1 7.483zm17.913-3.809l.06 3.951.551-.008c.545-.008.938-.077 1.181-.206.244-.128.441-.342.592-.64.151-.297.224-.662.218-1.095-.01-.664-.204-1.178-.58-1.539-.34-.324-.879-.48-1.618-.47l-.404.007zM37.81 2.54l1.41-.021c.91-.014 1.587.09 2.033.308.445.219.815.58 1.11 1.084.293.503.444 1.094.455 1.773a3.59 3.59 0 01-.22 1.334c-.154.406-.37.746-.648 1.017-.278.27-.58.46-.907.568-.327.107-.895.166-1.706.179l-1.432.021-.095-6.263z" fill="#010D18"/></svg>