<svg aria-hidden="true" style="position:absolute;width:0;height:0" xmlns="http://www.w3.org/2000/svg" overflow="hidden"><defs><symbol id="icon-tw" viewBox="0 0 32 32"><path opacity=".3" d="M1.882 0h28.235c1.035 0 1.882.847 1.882 1.882v28.235a1.888 1.888 0 01-1.882 1.882H1.882A1.888 1.888 0 010 30.117V1.882C0 .847.847 0 1.882 0z"/><path opacity=".8" d="M24.094 11.2c-.565.282-1.224.376-1.882.471.753-.376 1.224-1.035 1.412-1.788-.659.376-1.318.659-2.071.753-.659-.659-1.412-1.035-2.353-1.035-1.882 0-3.294 1.412-3.294 3.2 0 .282 0 .471.094.753-2.729-.094-5.082-1.318-6.682-3.294a3.254 3.254 0 00-.471 1.694c0 1.129.565 2.165 1.412 2.729-.471 0-1.035-.188-1.412-.376 0 1.6 1.129 2.824 2.635 3.2-.282.094-.565.094-.847.094s-.376 0-.659-.094c.376 1.224 1.6 2.259 3.012 2.259-1.129.847-2.541 1.318-4.047 1.318-.282 0-.565 0-.847-.094 1.412.941 3.2 1.412 5.082 1.412 6.024 0 9.318-4.988 9.318-9.224v-.376c.659-.376 1.129-.941 1.6-1.6z"/></symbol><symbol id="icon-vk" viewBox="0 0 32 32"><path opacity=".3" d="M1.882 0h28.235c1.035 0 1.882.847 1.882 1.882v28.235a1.888 1.888 0 01-1.882 1.882H1.882A1.888 1.888 0 010 30.117V1.882C0 .847.847 0 1.882 0z"/><path opacity=".8" d="M21.271 17.318c-.282-.282-.188-.471 0-.753 0 0 2.165-2.918 2.353-3.859.094-.376 0-.659-.565-.659h-1.788c-.471 0-.659.282-.847.471 0 0-.847 2.165-2.165 3.482-.376.376-.565.565-.847.565-.094 0-.282-.188-.282-.471v-3.388c0-.376-.188-.659-.471-.659h-2.541c-.282 0-.471.282-.471.376 0 .376.659.471.753 1.694v2.541c0 .565-.094.659-.282.659-.565-.094-1.976-2.165-2.918-4.612-.188-.471-.282-.659-.753-.659H8.565c-.471 0-.565.282-.565.471 0 .471.565 2.729 2.824 5.647 1.412 1.976 3.482 3.106 5.365 3.106 1.129 0 1.318-.282 1.318-.659 0-1.882-.094-2.165.471-2.165.282 0 .753.188 1.788 1.129 1.224 1.224 1.318 1.694 2.071 1.694h1.694c.471 0 .753-.282.659-.753-.565-1.129-2.824-3.106-2.918-3.2z"/></symbol><symbol stroke="#fff" id="icon-clock" viewBox="0 0 32 32"><path d="M16 29.28c7.36 0 13.28-5.92 13.28-13.28S23.36 2.72 16 2.72C8.64 2.72 2.72 8.64 2.72 16S8.64 29.28 16 29.28z"/><path stroke-linejoin="round" stroke-linecap="round" stroke-width="2.4" d="M16 8v8l5.28 2.72"/></symbol><symbol fill="#44D16C" stroke="#fff" id="icon-check" viewBox="0 0 32 32"><path d="M32 16c0 8.837-7.163 16-16 16S0 24.837 0 16 7.163 0 16 0s16 7.163 16 16z"/><path stroke-width="2.4" d="M9.6 16l4.8 4.8 9.6-9.6"/></symbol><symbol id="icon-mail" stroke="#fff" viewBox="0 0 32 32"><path d="M5.28 5.28h21.28c1.44 0 2.72 1.28 2.72 2.72v16c0 1.44-1.28 2.72-2.72 2.72H5.28c-1.44 0-2.72-1.28-2.72-2.72V8c.16-1.44 1.28-2.72 2.72-2.72z"/><path stroke-linejoin="round" stroke-linecap="round" stroke-width="2.4" d="M29.28 8L16 17.28 2.72 8"/></symbol><symbol id="icon-map-pin" stroke="#fff" viewBox="0 0 32 32"><path d="M28 13.28c0 9.28-12 17.28-12 17.28s-12-8-12-17.28c0-3.2 1.28-6.24 3.52-8.48S12.8 1.28 16 1.28s6.24 1.28 8.48 3.52S28 10.08 28 13.28z"/><path fill="#fff" d="M16 17.28c2.24 0 4-1.76 4-4s-1.76-4-4-4-4 1.92-4 4c0 2.24 1.76 4 4 4z"/></symbol><symbol id="icon-phone-call" viewBox="0 0 32 32"><path d="M29.28 22.56v4c0 .32 0 .8-.16 1.12s-.32.64-.64.96c-.32.32-.64.48-.96.64s-.8.16-1.12.16c-4.16-.48-8-1.92-11.52-4.16-3.2-2.08-5.92-4.8-8-8-2.24-3.68-3.68-7.52-4-11.68 0-.32 0-.8.16-1.12 0-.32.16-.64.48-.96s.48-.48.96-.64c.32-.16.64-.16.96-.16h4c.64 0 1.28.16 1.76.64s.8.96.96 1.6c.16 1.28.48 2.56.96 3.68.16.48.16.96.16 1.44-.16.64-.48 1.12-.8 1.44l-1.76 1.76c1.92 3.36 4.64 6.08 8 8l1.76-1.76c.32-.32.8-.64 1.28-.64.48-.16.96 0 1.44.16 1.28.48 2.4.8 3.68.96.64.16 1.28.48 1.6.96s.8.96.8 1.6z"/></symbol><symbol id="icon-play" viewBox="0 0 32 32"><path d="M28.587 15.04c.747.427.747 1.387 0 1.813L3.84 31.253c-.747.427-1.6-.107-1.6-.96V1.706c0-.853.853-1.387 1.6-.96l24.747 14.293z"/></symbol><symbol id="icon-arrow-down" viewBox="0 0 32 32"><path stroke-linecap="round" stroke-width="4" d="M2.667 8L16 21.333 29.333 8"/></symbol><symbol id="icon-arrow-right" viewBox="0 0 32 32"><path stroke-linecap="round" stroke-width="2.857" d="M9.143 2.286L22.857 16 9.143 29.714"/></symbol><symbol id="icon-arrow-left" viewBox="0 0 32 32"><path stroke-linecap="round" stroke-width="2.857" d="M22.857 2.286L9.143 16l13.714 13.714"/></symbol><symbol id="icon-exit" viewBox="0 0 32 32"><path stroke-width="4" d="M3.2 3.2L16 16m0 0L3.2 28.8M16 16L28.8 3.2M16 16l12.8 12.8"/></symbol><symbol id="icon-tg" viewBox="0 0 32 32"><path opacity=".3" d="M1.882 0h28.235c1.035 0 1.882.847 1.882 1.882v28.235a1.888 1.888 0 01-1.882 1.882H1.882A1.888 1.888 0 010 30.117V1.882C0 .847.847 0 1.882 0z"/><path opacity=".8" d="M14.306 18.165l-.282 3.671c.376 0 .565-.188.753-.282l1.788-1.694 3.671 2.729c.659.376 1.129.188 1.318-.659l2.447-11.106c.282-.941-.376-1.318-1.035-1.129L8.848 14.871c-.941.376-.941.941-.188 1.224l3.576 1.129 8.376-5.176c.376-.282.753-.094.471.188l-6.776 5.929z"/></symbol><symbol id="icon-fb" viewBox="0 0 32 32"><path opacity=".3" d="M1.882 0h28.235c1.035 0 1.882.847 1.882 1.882v28.235a1.888 1.888 0 01-1.882 1.882H1.882A1.888 1.888 0 010 30.117V1.882C0 .847.847 0 1.882 0z"/><path opacity=".8" d="M14.494 16.941h-2.07c-.282 0-.471-.094-.471-.376v-2.353c0-.282.094-.471.471-.471h2.07v-.282c0-.753 0-1.506.094-2.259.188-1.694 1.412-3.012 3.2-3.2.753-.094 1.788-.094 2.635-.094.282 0 .282.094.282.282v2.353c0 .282-.094.282-.376.282h-1.6c-.659 0-.847.282-.847.847v1.788h2.353c.282 0 .471.094.471.471v2.353c0 .282-.094.376-.376.376h-2.353v6.4c0 .565-.094.565-.565.565h-2.353c-.376 0-.471-.094-.471-.471v-6.118c-.094.094-.094 0-.094-.094z"/></symbol></defs></svg>