<svg height="512pt" viewBox="-54 0 512 512" width="512pt" xmlns="http://www.w3.org/2000/svg"><path d="M403.336 121.664l-202.914-20L179.09 322.88 200.422 512h202.914zm0 0" fill="#c3dce6"/><path d="M0 121.664V512h200.422V101.664zm0 0" fill="#e1f0f5"/><path d="M403.336 27.668H200.422L179.09 76.121l21.332 45.543h202.914zm0 0" fill="#b05819"/><path d="M0 27.668h200.422v94H0zm0 0" fill="#cc6f2d"/><path d="M80 0h30v74.664H80zm0 0" fill="#d9e7ec"/><path d="M293.336 0h30v74.664h-30zm-76.668 0h-16.246l-10.664 32 10.664 42.664h16.246zm0 0" fill="#c5d3dd"/><path d="M186.668 0h13.754v74.664h-13.754zm0 0" fill="#d9e7ec"/><path d="M61.758 297.668h96v30h-96zm0 57h96v30h-96zm0 57h96v30h-96zm0 0" fill="#aab8c7"/><path d="M243.09 297.668h96v30h-96zm0 57h96v30h-96zm0 57h96v30h-96zm0 0" fill="#8d9ca8"/><path d="M152.363 184.605l-21.215-21.21-21.39 21.39-21.395-21.39-21.215 21.21L88.543 206l-21.395 21.395 21.215 21.21 21.395-21.39 21.39 21.39 21.215-21.21L130.97 206zm0 0" fill="#f04000"/><path d="M285.758 245.547l-35.942-35.942 21.215-21.21 14.727 14.726 32.058-32.062 21.215 21.214zm0 0" fill="#12b0ff"/></svg>