<svg width="22" height="25" viewBox="0 0 22 25" fill="none" xmlns="http://www.w3.org/2000/svg">
<path d="M13 0.800049V7.10005C13 7.657 13.2213 8.19115 13.6151 8.58497C14.0089 8.9788 14.5431 9.20005 15.1 9.20005H21.4V21.1C21.4 21.657 21.1788 22.1911 20.7849 22.585C20.3911 22.9788 19.857 23.2001 19.3 23.2001H12.6402C13.6858 21.9338 14.2993 20.3665 14.3909 18.7269C14.4826 17.0873 14.0477 15.4614 13.1497 14.0865C12.2517 12.7117 10.9377 11.6599 9.3996 11.0848C7.86145 10.5097 6.17974 10.4414 4.60002 10.8898V2.90005C4.60002 2.34309 4.82127 1.80895 5.2151 1.41512C5.60893 1.0213 6.14307 0.800049 6.70002 0.800049H13ZM14.4 1.15005V7.10005C14.4 7.2857 14.4738 7.46375 14.605 7.59502C14.7363 7.7263 14.9144 7.80005 15.1 7.80005H21.05L14.4 1.15005ZM0.400024 18.3001C0.400024 19.9709 1.06377 21.5733 2.24525 22.7548C3.42673 23.9363 5.02916 24.6 6.70002 24.6C8.37089 24.6 9.97332 23.9363 11.1548 22.7548C12.3363 21.5733 13 19.9709 13 18.3001C13 16.6292 12.3363 15.0268 11.1548 13.8453C9.97332 12.6638 8.37089 12 6.70002 12C5.02916 12 3.42673 12.6638 2.24525 13.8453C1.06377 15.0268 0.400024 16.6292 0.400024 18.3001ZM9.50002 14.1C9.68568 14.1 9.86372 14.1738 9.995 14.3051C10.1263 14.4363 10.2 14.6144 10.2 14.8V16.9C10.2 17.0857 10.1263 17.2638 9.995 17.395C9.86372 17.5263 9.68568 17.6 9.50002 17.6H7.40002C7.21437 17.6 7.03632 17.5263 6.90505 17.395C6.77377 17.2638 6.70002 17.0857 6.70002 16.9C6.70002 16.7144 6.77377 16.5364 6.90505 16.4051C7.03632 16.2738 7.21437 16.2001 7.40002 16.2001H8.05522C7.65518 15.9779 7.20656 15.8577 6.74902 15.85C6.3729 15.8434 5.99929 15.9126 5.65051 16.0536C5.30173 16.1946 4.98493 16.4043 4.71902 16.6705C4.58603 16.7927 4.41094 16.8588 4.23034 16.8549C4.04975 16.851 3.87765 16.7775 3.75001 16.6497C3.62238 16.5219 3.54909 16.3497 3.54548 16.1691C3.54186 15.9885 3.6082 15.8135 3.73062 15.6806C4.38432 15.0269 5.23543 14.6072 6.15199 14.4864C7.06855 14.3657 7.99934 14.5507 8.80002 15.0129V14.8C8.80002 14.6144 8.87377 14.4363 9.00505 14.3051C9.13632 14.1738 9.31437 14.1 9.50002 14.1ZM8.27362 21.8449C7.68198 22.0839 7.04363 22.1849 6.40707 22.1403C5.77052 22.0957 5.15252 21.9065 4.60002 21.5872V21.8001C4.60002 21.9857 4.52627 22.1637 4.395 22.295C4.26372 22.4263 4.08568 22.5 3.90002 22.5C3.71437 22.5 3.53633 22.4263 3.40505 22.295C3.27377 22.1637 3.20002 21.9857 3.20002 21.8001V19.7001C3.20002 19.5144 3.27377 19.3363 3.40505 19.2051C3.53633 19.0738 3.71437 19 3.90002 19H6.00002C6.18568 19 6.36372 19.0738 6.495 19.2051C6.62627 19.3363 6.70002 19.5144 6.70002 19.7001C6.70002 19.8857 6.62627 20.0637 6.495 20.195C6.36372 20.3263 6.18568 20.4001 6.00002 20.4001H5.34482C5.74487 20.6222 6.19349 20.7424 6.65102 20.75C7.02715 20.7567 7.40076 20.6875 7.74954 20.5465C8.09832 20.4055 8.41512 20.1958 8.68102 19.9296C8.81402 19.8074 8.98911 19.7413 9.1697 19.7452C9.3503 19.7491 9.5224 19.8226 9.65004 19.9504C9.77767 20.0782 9.85096 20.2504 9.85457 20.431C9.85818 20.6116 9.79185 20.7866 9.66942 20.9195C9.27087 21.318 8.79618 21.6322 8.27362 21.8435V21.8449Z" fill="#D6263B"/>
</svg>
