<svg width="22" height="25" viewBox="0 0 22 25" fill="none" xmlns="http://www.w3.org/2000/svg">
<path d="M13 7.10005V0.800049H6.70005C6.14309 0.800049 5.60895 1.0213 5.21512 1.41512C4.8213 1.80895 4.60005 2.34309 4.60005 2.90005V10.6042C5.60187 10.642 6.57317 10.9592 7.40425 11.5198C8.51584 10.7762 9.86411 10.4721 11.1873 10.6666C12.5105 10.8612 13.7142 11.5405 14.5647 12.5726C15.4152 13.6047 15.8519 14.9161 15.7899 16.2521C15.7279 17.588 15.1717 18.8533 14.2292 19.8022L10.83 23.2001H19.3C19.857 23.2001 20.3911 22.9788 20.785 22.585C21.1788 22.1911 21.4 21.657 21.4 21.1V9.20005H15.1C14.5431 9.20005 14.0089 8.9788 13.6151 8.58497C13.2213 8.19115 13 7.657 13 7.10005ZM14.4 7.10005V1.15005L21.05 7.80005H15.1C14.9144 7.80005 14.7363 7.7263 14.6051 7.59502C14.4738 7.46375 14.4 7.2857 14.4 7.10005ZM7.59185 13.169C7.9624 12.7985 8.40231 12.5046 8.88645 12.304C9.3706 12.1035 9.88951 12.0003 10.4135 12.0003C10.9376 12.0003 11.4565 12.1035 11.9406 12.304C12.4248 12.5046 12.8647 12.7985 13.2352 13.169C13.6058 13.5396 13.8997 13.9795 14.1003 14.4637C14.3008 14.9478 14.404 15.4667 14.404 15.9908C14.404 16.5148 14.3008 17.0337 14.1003 17.5178C13.8997 18.002 13.6058 18.4419 13.2352 18.8125L7.89565 24.1521C7.76438 24.2833 7.58636 24.357 7.40075 24.357C7.21513 24.357 7.03712 24.2833 6.90585 24.1521L1.56625 18.8125C0.817886 18.0641 0.397461 17.0491 0.397461 15.9908C0.397461 15.4667 0.500678 14.9478 0.701219 14.4637C0.901759 13.9795 1.1957 13.5396 1.56625 13.169C1.9368 12.7985 2.37671 12.5046 2.86085 12.304C3.345 12.1035 3.86391 12.0003 4.38795 12.0003C5.44629 12.0003 6.46129 12.4207 7.20965 13.169L7.40145 13.3594L7.59185 13.169ZM13.2352 18.8125L12.741 18.3182L13.2352 18.8125Z" fill="#D6263B"/>
</svg>
