<svg width="23" height="25" viewBox="0 0 23 25" fill="none" xmlns="http://www.w3.org/2000/svg">
<path d="M13 0.333313V7.33331C13 7.95215 13.2459 8.54564 13.6834 8.98323C14.121 9.42081 14.7145 9.66665 15.3334 9.66665H22.3334V21.3333C22.3334 21.9522 22.0875 22.5456 21.6499 22.9832C21.2124 23.4208 20.6189 23.6666 20 23.6666H12.055C13.2625 22.4097 14.0002 20.7751 14.1438 19.038C14.2875 17.3009 13.8283 15.5674 12.8436 14.1291C11.859 12.6909 10.4089 11.6357 8.73749 11.1413C7.06607 10.6468 5.27535 10.7432 3.66669 11.4143V2.66665C3.66669 2.04781 3.91252 1.45432 4.3501 1.01673C4.78769 0.579146 5.38118 0.333313 6.00002 0.333313H13ZM14.75 0.916646V7.33331C14.75 7.48802 14.8115 7.6364 14.9209 7.74579C15.0303 7.85519 15.1786 7.91665 15.3334 7.91665H21.75L14.75 0.916646ZM13 18.4166C13 19.2593 12.834 20.0937 12.5116 20.8722C12.1891 21.6507 11.7165 22.3581 11.1206 22.9539C10.5248 23.5498 9.81741 24.0224 9.03891 24.3449C8.2604 24.6673 7.426 24.8333 6.58335 24.8333C5.74071 24.8333 4.90631 24.6673 4.1278 24.3449C3.3493 24.0224 2.64193 23.5498 2.04608 22.9539C1.45024 22.3581 0.977594 21.6507 0.655127 20.8722C0.332659 20.0937 0.166687 19.2593 0.166687 18.4166C0.166687 16.7148 0.842727 15.0827 2.04609 13.8794C3.24944 12.676 4.88155 12 6.58335 12C8.28516 12 9.91726 12.676 11.1206 13.8794C12.324 15.0827 13 16.7148 13 18.4166ZM10.4964 15.6703C10.4422 15.616 10.3778 15.5729 10.3069 15.5435C10.2361 15.5141 10.1601 15.4989 10.0834 15.4989C10.0066 15.4989 9.93065 15.5141 9.85978 15.5435C9.78891 15.5729 9.72454 15.616 9.67035 15.6703L5.41669 19.9251L3.49635 18.0036C3.38682 17.8941 3.23826 17.8326 3.08335 17.8326C2.92845 17.8326 2.77989 17.8941 2.67035 18.0036C2.56082 18.1132 2.49928 18.2617 2.49928 18.4166C2.49928 18.5716 2.56082 18.7201 2.67035 18.8296L5.00369 21.163C5.05787 21.2173 5.12224 21.2604 5.19311 21.2898C5.26398 21.3192 5.33996 21.3344 5.41669 21.3344C5.49342 21.3344 5.56939 21.3192 5.64026 21.2898C5.71113 21.2604 5.7755 21.2173 5.82969 21.163L10.4964 16.4963C10.5507 16.4421 10.5938 16.3778 10.6232 16.3069C10.6526 16.236 10.6677 16.16 10.6677 16.0833C10.6677 16.0066 10.6526 15.9306 10.6232 15.8597C10.5938 15.7889 10.5507 15.7245 10.4964 15.6703Z" fill="#D6263B"/>
</svg>
