<svg width="20" height="24" viewBox="0 0 20 24" fill="none" xmlns="http://www.w3.org/2000/svg">
<path d="M5.91663 13.4583C5.91663 13.381 5.94735 13.3068 6.00205 13.2521C6.05675 13.1974 6.13094 13.1666 6.20829 13.1666H7.66663V14.9166H5.91663V13.4583ZM5.91663 16.6666H7.66663V18.4166H6.20829C6.13094 18.4166 6.05675 18.3859 6.00205 18.3312C5.94735 18.2765 5.91663 18.2023 5.91663 18.125V16.6666ZM14.0833 18.125V16.6666H9.41663V18.4166H13.7916C13.869 18.4166 13.9432 18.3859 13.9979 18.3312C14.0526 18.2765 14.0833 18.2023 14.0833 18.125ZM9.41663 13.1666V14.9166H14.0833V13.4583C14.0833 13.381 14.0526 13.3068 13.9979 13.2521C13.9432 13.1974 13.869 13.1666 13.7916 13.1666H9.41663ZM9.99996 7.33331V0.333313H2.99996C2.38112 0.333313 1.78763 0.579146 1.35004 1.01673C0.912458 1.45432 0.666626 2.04781 0.666626 2.66665V21.3333C0.666626 21.9522 0.912458 22.5456 1.35004 22.9832C1.78763 23.4208 2.38112 23.6666 2.99996 23.6666H17C17.6188 23.6666 18.2123 23.4208 18.6499 22.9832C19.0875 22.5456 19.3333 21.9522 19.3333 21.3333V9.66665H12.3333C11.7145 9.66665 11.121 9.42081 10.6834 8.98323C10.2458 8.54564 9.99996 7.95215 9.99996 7.33331ZM6.20829 11.4166H13.7916C14.9186 11.4166 15.8333 12.3313 15.8333 13.4583V18.125C15.8333 18.6665 15.6182 19.1858 15.2353 19.5687C14.8524 19.9515 14.3331 20.1666 13.7916 20.1666H6.20829C5.66681 20.1666 5.1475 19.9515 4.76462 19.5687C4.38173 19.1858 4.16663 18.6665 4.16663 18.125V13.4583C4.16663 12.3313 5.08129 11.4166 6.20829 11.4166ZM11.75 7.33331V0.916646L18.75 7.91665H12.3333C12.1786 7.91665 12.0302 7.85519 11.9208 7.74579C11.8114 7.6364 11.75 7.48802 11.75 7.33331Z" fill="#D6263B"/>
</svg>
