<svg width="22" height="26" viewBox="0 0 22 26" fill="none" xmlns="http://www.w3.org/2000/svg">
<path d="M13.1 0.75V6.66389C13.1 7.33608 13.3655 7.98075 13.8381 8.45607C14.3107 8.93138 14.9517 9.19841 15.62 9.19841H21.5V21.871C21.5 22.5432 21.2345 23.1879 20.7619 23.6632C20.2893 24.1385 19.6483 24.4055 18.98 24.4055H10.16V19.4277C10.7915 18.3729 11.0799 17.1461 10.985 15.9185C10.89 14.6909 10.4165 13.5237 9.63035 12.5797C8.84423 11.6358 7.78477 10.9622 6.59976 10.6529C5.41476 10.3436 4.16331 10.414 3.02 10.8543V3.28452C3.02 2.61233 3.2855 1.96766 3.75809 1.49234C4.23068 1.01703 4.87165 0.75 5.54 0.75H13.1ZM7.64 21.49C8.09643 21.2618 8.52023 20.9728 8.9 20.6308V24.4478C8.89993 24.5902 8.86218 24.7301 8.79061 24.853C8.71905 24.9759 8.61625 25.0774 8.49277 25.1472C8.36929 25.2169 8.22959 25.2524 8.08799 25.2499C7.94639 25.2474 7.80801 25.207 7.68704 25.133L5.12 23.5607L2.55296 25.1321C2.43205 25.2061 2.29375 25.2465 2.15222 25.249C2.0107 25.2516 1.87105 25.2162 1.74759 25.1465C1.62414 25.0769 1.52133 24.9755 1.44971 24.8527C1.37808 24.7299 1.34022 24.5902 1.34 24.4478V20.6308C2.37636 21.5652 3.71896 22.0823 5.11076 22.0831H5.11244C5.11496 22.0831 5.11748 22.0831 5.12 22.0831H5.12924C6.00045 22.0829 6.8598 21.8799 7.64 21.49ZM5.12 21.0262C3.8947 21.0262 2.71958 20.5366 1.85317 19.6652C0.986749 18.7938 0.5 17.6119 0.5 16.3796C0.499992 15.6044 0.692779 14.8416 1.0608 14.1606C1.42883 13.4796 1.9604 12.9019 2.6071 12.4803C3.25381 12.0587 3.99511 11.8066 4.76349 11.7467C5.53187 11.6869 6.30292 11.8214 7.00643 12.1379C7.70994 12.4544 8.32354 12.9429 8.79138 13.5588C9.25921 14.1748 9.56641 14.8987 9.68499 15.6646C9.80356 16.4305 9.72976 17.214 9.4703 17.9439C9.21084 18.6738 8.77395 19.3268 8.19944 19.8434C7.35332 20.6065 6.25645 21.0278 5.12 21.0262ZM14.78 0.848846V6.66389C14.78 6.88795 14.8685 7.10284 15.026 7.26128C15.1836 7.41972 15.3972 7.50873 15.62 7.50873H21.4017C21.2838 7.09594 21.0636 6.72005 20.7616 6.41635L15.8661 1.49346C15.5643 1.18948 15.1905 0.967659 14.78 0.848846Z" fill="#D6263B"/>
</svg>
