<svg width="23" height="25" viewBox="0 0 23 25" fill="none" xmlns="http://www.w3.org/2000/svg">
<path d="M13 0.333374V7.33337C13 7.95221 13.2458 8.5457 13.6834 8.98329C14.121 9.42087 14.7145 9.66671 15.3333 9.66671H22.3333V21.3334C22.3333 21.9522 22.0875 22.5457 21.6499 22.9833C21.2123 23.4209 20.6188 23.6667 20 23.6667H12.055C13.2625 22.4097 14.0002 20.7751 14.1438 19.0381C14.2874 17.301 13.8283 15.5674 12.8436 14.1292C11.8589 12.6909 10.4089 11.6358 8.73746 11.1413C7.06604 10.6469 5.27532 10.7433 3.66666 11.4144V2.66671C3.66666 2.04787 3.91249 1.45438 4.35007 1.01679C4.78766 0.579207 5.38115 0.333374 5.99999 0.333374H13Z" fill="#D6263B"/>
<path d="M14.75 0.916748V7.33341C14.75 7.48812 14.8115 7.6365 14.9209 7.74589C15.0303 7.85529 15.1786 7.91675 15.3333 7.91675H21.75L14.75 0.916748Z" fill="#D6263B"/>
<path d="M13 18.4167C13 17.574 12.834 16.7396 12.5116 15.9611C12.1891 15.1826 11.7164 14.4752 11.1206 13.8794C10.5248 13.2836 9.81738 12.8109 9.03888 12.4884C8.26037 12.166 7.42597 12 6.58332 12C5.74067 12 4.90628 12.166 4.12777 12.4884C3.34927 12.8109 2.6419 13.2836 2.04605 13.8794C1.45021 14.4752 0.977564 15.1826 0.655096 15.9611C0.332628 16.7396 0.166656 17.574 0.166656 18.4167C0.166657 20.1185 0.842696 21.7506 2.04605 22.9539C3.24941 24.1573 4.88152 24.8333 6.58332 24.8333C8.28513 24.8333 9.91723 24.1573 11.1206 22.9539C12.324 21.7506 13 20.1185 13 18.4167ZM7.16666 19L7.16782 21.9202C7.16782 22.0749 7.10637 22.2232 6.99697 22.3326C6.88757 22.442 6.7392 22.5035 6.58449 22.5035C6.42978 22.5035 6.28141 22.442 6.17201 22.3326C6.06261 22.2232 6.00116 22.0749 6.00116 21.9202V19H3.07866C2.92395 19 2.77557 18.9385 2.66618 18.8291C2.55678 18.7197 2.49532 18.5714 2.49532 18.4167C2.49532 18.262 2.55678 18.1136 2.66618 18.0042C2.77557 17.8948 2.92395 17.8333 3.07866 17.8333H5.99999V14.9167C5.99999 14.762 6.06145 14.6136 6.17084 14.5042C6.28024 14.3948 6.42861 14.3333 6.58332 14.3333C6.73803 14.3333 6.88641 14.3948 6.9958 14.5042C7.1052 14.6136 7.16666 14.762 7.16666 14.9167V17.8333H10.0798C10.2345 17.8333 10.3829 17.8948 10.4923 18.0042C10.6017 18.1136 10.6632 18.262 10.6632 18.4167C10.6632 18.5714 10.6017 18.7197 10.4923 18.8291C10.3829 18.9385 10.2345 19 10.0798 19H7.16666Z" fill="#D6263B"/>
</svg>
