<svg width="22" height="25" viewBox="0 0 22 25" fill="none" xmlns="http://www.w3.org/2000/svg">
<path d="M8.99998 7.10005V0.800049H2.69998C2.14302 0.800049 1.60888 1.0213 1.21505 1.41512C0.821225 1.80895 0.599976 2.34309 0.599976 2.90005V21.1C0.599976 21.657 0.821225 22.1911 1.21505 22.585C1.60888 22.9788 2.14302 23.2001 2.69998 23.2001H9.35978C8.37236 22.0069 7.76956 20.5426 7.63078 19H6.89998C6.71432 19 6.53628 18.9263 6.405 18.795C6.27372 18.6637 6.19998 18.4857 6.19998 18.3001C6.19998 18.1144 6.27372 17.9363 6.405 17.8051C6.53628 17.6738 6.71432 17.6 6.89998 17.6H7.63078C7.67353 17.1264 7.76023 16.6577 7.88978 16.2001H6.89998C6.71432 16.2001 6.53628 16.1263 6.405 15.995C6.27372 15.8637 6.19998 15.6857 6.19998 15.5C6.19998 15.3144 6.27372 15.1363 6.405 15.0051C6.53628 14.8738 6.71432 14.8 6.89998 14.8H8.43998C8.69618 14.2989 9.00558 13.8299 9.35978 13.4H6.89998C6.71432 13.4 6.53628 13.3263 6.405 13.195C6.27372 13.0637 6.19998 12.8857 6.19998 12.7C6.19998 12.5144 6.27372 12.3363 6.405 12.2051C6.53628 12.0738 6.71432 12 6.89998 12H10.8718C12.1248 11.118 13.6522 10.6 15.3 10.6C16.028 10.6 16.7322 10.7008 17.4 10.8898V9.20005H11.1C10.543 9.20005 10.0089 8.9788 9.61505 8.58497C9.22122 8.19115 8.99998 7.657 8.99998 7.10005ZM3.39998 12.7C3.39998 12.5144 3.47373 12.3363 3.605 12.2051C3.73628 12.0738 3.91432 12 4.09998 12C4.28563 12 4.46367 12.0738 4.59495 12.2051C4.72623 12.3363 4.79998 12.5144 4.79998 12.7C4.79998 12.8857 4.72623 13.0637 4.59495 13.195C4.46367 13.3263 4.28563 13.4 4.09998 13.4C3.91432 13.4 3.73628 13.3263 3.605 13.195C3.47373 13.0637 3.39998 12.8857 3.39998 12.7ZM3.39998 15.5C3.39998 15.3144 3.47373 15.1363 3.605 15.0051C3.73628 14.8738 3.91432 14.8 4.09998 14.8C4.28563 14.8 4.46367 14.8738 4.59495 15.0051C4.72623 15.1363 4.79998 15.3144 4.79998 15.5C4.79998 15.6857 4.72623 15.8637 4.59495 15.995C4.46367 16.1263 4.28563 16.2001 4.09998 16.2001C3.91432 16.2001 3.73628 16.1263 3.605 15.995C3.47373 15.8637 3.39998 15.6857 3.39998 15.5ZM4.09998 17.6C4.28563 17.6 4.46367 17.6738 4.59495 17.8051C4.72623 17.9363 4.79998 18.1144 4.79998 18.3001C4.79998 18.4857 4.72623 18.6637 4.59495 18.795C4.46367 18.9263 4.28563 19 4.09998 19C3.91432 19 3.73628 18.9263 3.605 18.795C3.47373 18.6637 3.39998 18.4857 3.39998 18.3001C3.39998 18.1144 3.47373 17.9363 3.605 17.8051C3.73628 17.6738 3.91432 17.6 4.09998 17.6ZM10.4 7.10005V1.15005L17.05 7.80005H11.1C10.9143 7.80005 10.7363 7.7263 10.605 7.59502C10.4737 7.46375 10.4 7.2857 10.4 7.10005ZM21.6 18.3001C21.6 19.9709 20.9362 21.5733 19.7547 22.7548C18.5733 23.9363 16.9708 24.6 15.3 24.6C13.6291 24.6 12.0267 23.9363 10.8452 22.7548C9.66372 21.5733 8.99998 19.9709 8.99998 18.3001C8.99998 16.6292 9.66372 15.0268 10.8452 13.8453C12.0267 12.6638 13.6291 12 15.3 12C16.9708 12 18.5733 12.6638 19.7547 13.8453C20.9362 15.0268 21.6 16.6292 21.6 18.3001ZM16 14.1C16 13.9144 15.9262 13.7364 15.795 13.6051C15.6637 13.4738 15.4856 13.4 15.3 13.4C15.1143 13.4 14.9363 13.4738 14.805 13.6051C14.6737 13.7364 14.6 13.9144 14.6 14.1V18.3001C14.6 18.4857 14.6737 18.6637 14.805 18.795C14.9363 18.9263 15.1143 19 15.3 19H18.1C18.2856 19 18.4637 18.9263 18.5949 18.795C18.7262 18.6637 18.8 18.4857 18.8 18.3001C18.8 18.1144 18.7262 17.9363 18.5949 17.8051C18.4637 17.6738 18.2856 17.6 18.1 17.6H16V14.1Z" fill="#D6263B"/>
</svg>
