<svg width="22" height="25" viewBox="0 0 22 25" fill="none" xmlns="http://www.w3.org/2000/svg">
<path d="M13 0.800049V7.10005C13 7.657 13.2213 8.19115 13.6151 8.58497C14.0089 8.9788 14.5431 9.20005 15.1 9.20005H21.4V21.1C21.4 21.657 21.1788 22.1911 20.785 22.585C20.3911 22.9788 19.857 23.2 19.3 23.2H12.6402C13.6859 21.9338 14.2993 20.3665 14.3909 18.7269C14.4826 17.0873 14.0477 15.4614 13.1497 14.0865C12.2518 12.7117 10.9378 11.6599 9.39961 11.0848C7.86147 10.5097 6.17975 10.4414 4.60004 10.8898V2.90005C4.60004 2.34309 4.82129 1.80895 5.21511 1.41512C5.60894 1.0213 6.14308 0.800049 6.70004 0.800049H13Z" fill="#D6263B"/>
<path d="M14.4 1.15002V7.10002C14.4 7.28568 14.4738 7.46372 14.605 7.595C14.7363 7.72627 14.9144 7.80002 15.1 7.80002H21.05L14.4 1.15002Z" fill="#D6263B"/>
<path d="M13 18.3C13 19.9709 12.3363 21.5733 11.1548 22.7548C9.97332 23.9363 8.37089 24.6 6.70002 24.6C5.02916 24.6 3.42673 23.9363 2.24525 22.7548C1.06377 21.5733 0.400024 19.9709 0.400024 18.3C0.400024 16.6291 1.06377 15.0267 2.24525 13.8452C3.42673 12.6637 5.02916 12 6.70002 12C8.37089 12 9.97332 12.6637 11.1548 13.8452C12.3363 15.0267 13 16.6291 13 18.3ZM6.70002 14.8C6.51437 14.8 6.33633 14.8737 6.20505 15.005C6.07377 15.1363 6.00002 15.3143 6.00002 15.5V18.3C6.00002 18.4857 6.07377 18.6637 6.20505 18.795C6.33633 18.9263 6.51437 19 6.70002 19C6.88568 19 7.06372 18.9263 7.195 18.795C7.32627 18.6637 7.40002 18.4857 7.40002 18.3V15.5C7.40002 15.3143 7.32627 15.1363 7.195 15.005C7.06372 14.8737 6.88568 14.8 6.70002 14.8ZM6.70002 21.975C6.93209 21.975 7.15465 21.8828 7.31874 21.7187C7.48284 21.5546 7.57503 21.3321 7.57503 21.1C7.57503 20.8679 7.48284 20.6454 7.31874 20.4813C7.15465 20.3172 6.93209 20.225 6.70002 20.225C6.46796 20.225 6.2454 20.3172 6.08131 20.4813C5.91721 20.6454 5.82502 20.8679 5.82502 21.1C5.82502 21.3321 5.91721 21.5546 6.08131 21.7187C6.2454 21.8828 6.46796 21.975 6.70002 21.975Z" fill="#D6263B"/>
</svg>
