<svg width="23" height="24" viewBox="0 0 23 24" fill="none" xmlns="http://www.w3.org/2000/svg">
<path d="M13.2746 0V6.75003C13.2746 7.34677 13.5117 7.91907 13.9336 8.34103C14.3556 8.76299 14.9279 9.00004 15.5246 9.00004H22.2747V21.7501C22.2747 22.3468 22.0376 22.9191 21.6157 23.3411C21.1937 23.7631 20.6214 24.0001 20.0247 24.0001H11.2691C12.8655 22.8804 14.0137 21.2315 14.5101 19.3458C15.0064 17.4601 14.8188 15.4596 13.9805 13.699C13.1422 11.9385 11.7075 10.5318 9.93072 9.72845C8.15397 8.92511 6.15011 8.77705 4.27459 9.31055V2.25001C4.27459 1.65327 4.51164 1.08097 4.9336 0.659013C5.35556 0.237054 5.92786 0 6.5246 0H13.2746ZM14.7746 0.375002V6.75003C14.7746 6.94895 14.8537 7.13971 14.9943 7.28037C15.135 7.42102 15.3257 7.50004 15.5246 7.50004H21.8997L14.7746 0.375002ZM2.87208 12.6631C2.98011 13.048 3.0101 13.4507 2.96029 13.8474C2.91048 14.2441 2.78188 14.6268 2.58204 14.9731C2.3822 15.3194 2.11516 15.6223 1.79661 15.8639C1.47805 16.1055 1.11442 16.281 0.72707 16.3801L0.0340663 16.5571C-0.0159139 17.0641 -0.0108847 17.5751 0.0490664 18.0811L0.574069 18.2056C0.971763 18.2996 1.34605 18.4739 1.67397 18.7178C2.00189 18.9617 2.27653 19.27 2.48103 19.6238C2.68554 19.9776 2.8156 20.3695 2.86324 20.7754C2.91088 21.1812 2.8751 21.5926 2.75808 21.9841L2.56758 22.6171C2.95458 22.9231 3.37308 23.1841 3.82009 23.3941L4.30759 22.8781C4.58824 22.5809 4.92666 22.3443 5.30208 22.1826C5.6775 22.0209 6.08199 21.9377 6.49075 21.9379C6.8995 21.9382 7.30388 22.022 7.67908 22.1842C8.05427 22.3464 8.39237 22.5836 8.67261 22.8811L9.17811 23.4181C9.61611 23.2156 10.0301 22.9651 10.4111 22.6711L10.1771 21.8371C10.0689 21.4521 10.0387 21.0493 10.0884 20.6524C10.1381 20.2555 10.2666 19.8726 10.4665 19.5261C10.6664 19.1796 10.9335 18.8766 11.2522 18.6349C11.5708 18.3932 11.9346 18.2177 12.3221 18.1186L13.0121 17.9431C13.0622 17.4355 13.0572 16.9241 12.9971 16.4176L12.4751 16.2946C12.0773 16.2006 11.7028 16.0262 11.3748 15.7822C11.0467 15.5383 10.772 15.2298 10.5675 14.8758C10.363 14.5218 10.2329 14.1298 10.1854 13.7237C10.1379 13.3177 10.1739 12.9062 10.2911 12.5146L10.4801 11.8816C10.0935 11.5758 9.67331 11.3151 9.22761 11.1046L8.74011 11.6206C8.45956 11.9178 8.12122 12.1546 7.74586 12.3164C7.3705 12.4782 6.96603 12.5616 6.55728 12.5615C6.14852 12.5613 5.74411 12.4777 5.36886 12.3156C4.99361 12.1536 4.65543 11.9165 4.37509 11.6191L3.86959 11.0821C3.43263 11.284 3.01958 11.534 2.63808 11.8276L2.87208 12.6631ZM6.5231 18.7501C6.12527 18.7501 5.74374 18.5921 5.46243 18.3108C5.18113 18.0294 5.02309 17.6479 5.02309 17.2501C5.02309 16.8523 5.18113 16.4707 5.46243 16.1894C5.74374 15.9081 6.12527 15.7501 6.5231 15.7501C6.92093 15.7501 7.30246 15.9081 7.58376 16.1894C7.86507 16.4707 8.02311 16.8523 8.02311 17.2501C8.02311 17.6479 7.86507 18.0294 7.58376 18.3108C7.30246 18.5921 6.92093 18.7501 6.5231 18.7501Z" fill="#D6263B"/>
</svg>
