<svg width="23" height="25" viewBox="0 0 23 25" fill="none" xmlns="http://www.w3.org/2000/svg">
<path d="M13 0.333374V7.33337C13 7.95221 13.2458 8.5457 13.6834 8.98329C14.121 9.42087 14.7145 9.66671 15.3333 9.66671H22.3333V21.3334C22.3333 21.9522 22.0875 22.5457 21.6499 22.9833C21.2123 23.4209 20.6188 23.6667 20 23.6667H12.055C13.2625 22.4097 14.0001 20.7751 14.1438 19.038C14.2874 17.301 13.8282 15.5674 12.8436 14.1292C11.8589 12.6909 10.4088 11.6358 8.73743 11.1413C7.06601 10.6469 5.27528 10.7433 3.66663 11.4144V2.66671C3.66663 2.04787 3.91246 1.45438 4.35004 1.01679C4.78763 0.579207 5.38112 0.333374 5.99996 0.333374H13ZM14.75 0.916707V7.33337C14.75 7.48808 14.8114 7.63646 14.9208 7.74585C15.0302 7.85525 15.1786 7.91671 15.3333 7.91671H21.75L14.75 0.916707ZM6.58329 24.8334C4.88149 24.8334 3.24938 24.1573 2.04602 22.954C0.842666 21.7506 0.166626 20.1185 0.166626 18.4167C0.166626 16.7149 0.842666 15.0828 2.04602 13.8794C3.24938 12.6761 4.88149 12 6.58329 12C8.2851 12 9.9172 12.6761 11.1206 13.8794C12.3239 15.0828 13 16.7149 13 18.4167C13 20.1185 12.3239 21.7506 11.1206 22.954C9.9172 24.1573 8.2851 24.8334 6.58329 24.8334ZM5.24629 15.913C5.35583 15.8035 5.41736 15.6549 5.41736 15.5C5.41736 15.3451 5.35583 15.1966 5.24629 15.087C5.13676 14.9775 4.9882 14.916 4.83329 14.916C4.67839 14.916 4.52983 14.9775 4.42029 15.087L1.50363 18.0037C1.4493 18.0579 1.4062 18.1223 1.37679 18.1931C1.34739 18.264 1.33225 18.34 1.33225 18.4167C1.33225 18.4934 1.34739 18.5694 1.37679 18.6403C1.4062 18.7111 1.4493 18.7755 1.50363 18.8297L4.42029 21.7464C4.52983 21.8559 4.67839 21.9174 4.83329 21.9174C4.9882 21.9174 5.13676 21.8559 5.24629 21.7464C5.35583 21.6368 5.41736 21.4883 5.41736 21.3334C5.41736 21.1785 5.35583 21.0299 5.24629 20.9204L2.74146 18.4167L5.24629 15.913ZM7.92029 15.087C7.86597 15.1412 7.82287 15.2056 7.79346 15.2765C7.76405 15.3473 7.74892 15.4233 7.74892 15.5C7.74892 15.5768 7.76405 15.6527 7.79346 15.7236C7.82287 15.7945 7.86597 15.8589 7.92029 15.913L10.4251 18.4167L7.92029 20.9204C7.81076 21.0299 7.74922 21.1785 7.74922 21.3334C7.74922 21.4883 7.81076 21.6368 7.92029 21.7464C8.02983 21.8559 8.17839 21.9174 8.33329 21.9174C8.4882 21.9174 8.63676 21.8559 8.74629 21.7464L11.663 18.8297C11.7173 18.7755 11.7604 18.7111 11.7898 18.6403C11.8192 18.5694 11.8343 18.4934 11.8343 18.4167C11.8343 18.34 11.8192 18.264 11.7898 18.1931C11.7604 18.1223 11.7173 18.0579 11.663 18.0037L8.74629 15.087C8.69211 15.0327 8.62773 14.9896 8.55686 14.9602C8.486 14.9308 8.41002 14.9157 8.33329 14.9157C8.25656 14.9157 8.18059 14.9308 8.10972 14.9602C8.03885 14.9896 7.97448 15.0327 7.92029 15.087Z" fill="#D6263B"/>
</svg>
