<svg width="21" height="25" viewBox="0 0 21 25" fill="none" xmlns="http://www.w3.org/2000/svg">
<path d="M4.99998 0.800049H12V7.10005C12 7.657 12.2212 8.19115 12.6151 8.58497C13.0089 8.9788 13.543 9.20005 14.1 9.20005H20.4V21.8C20.4 22.1714 20.2525 22.5274 19.9899 22.79C19.7274 23.0525 19.3713 23.2 19 23.2H17.4782C17.3743 22.9034 17.2049 22.634 16.9826 22.4118L12.6076 18.0382C13.2786 16.754 13.5346 15.2931 13.3401 13.8572C13.1457 12.4213 12.5104 11.0811 11.522 10.0216C10.5336 8.96203 9.24071 8.23533 7.82175 7.94174C6.4028 7.64814 4.9277 7.80213 3.59998 8.38245V2.20005C3.59998 1.82875 3.74748 1.47265 4.01003 1.2101C4.27258 0.947548 4.62867 0.800049 4.99998 0.800049Z" fill="#D6263B"/>
<path d="M13.4 0.800049L20.4 7.80005H14.1C13.9144 7.80005 13.7363 7.7263 13.605 7.59502C13.4738 7.46375 13.4 7.2857 13.4 7.10005V0.800049Z" fill="#D6263B"/>
<path d="M12 14.8001C12 16.0937 11.5604 17.2851 10.824 18.2343L15.9914 23.4031C16.0582 23.4676 16.1116 23.5449 16.1483 23.6303C16.185 23.7157 16.2043 23.8075 16.2051 23.9005C16.2059 23.9934 16.1882 24.0856 16.153 24.1716C16.1178 24.2577 16.0658 24.3358 16.0001 24.4015C15.9343 24.4673 15.8562 24.5192 15.7702 24.5544C15.6841 24.5896 15.592 24.6073 15.499 24.6065C15.4061 24.6057 15.3142 24.5864 15.2288 24.5497C15.1434 24.5131 15.0662 24.4597 15.0016 24.3929L9.83419 19.2241C8.8346 20.0001 7.60163 20.4147 6.33623 20.4003C5.07083 20.3859 3.84761 19.9433 2.86595 19.1447C1.88429 18.3461 1.20207 17.2385 0.930481 16.0025C0.658889 14.7665 0.813942 13.475 1.37037 12.3384C1.92679 11.2018 2.85178 10.2872 3.99458 9.74362C5.13737 9.20004 6.43058 9.05956 7.66343 9.34508C8.89629 9.63059 9.99609 10.3253 10.7836 11.3159C11.5711 12.3065 11.9999 13.5346 12 14.8001ZM6.39999 19.0001C7.5139 19.0001 8.58219 18.5576 9.36984 17.7699C10.1575 16.9823 10.6 15.914 10.6 14.8001C10.6 13.6862 10.1575 12.6179 9.36984 11.8302C8.58219 11.0426 7.5139 10.6001 6.39999 10.6001C5.28608 10.6001 4.2178 11.0426 3.43015 11.8302C2.64249 12.6179 2.19999 13.6862 2.19999 14.8001C2.19999 15.914 2.64249 16.9823 3.43015 17.7699C4.2178 18.5576 5.28608 19.0001 6.39999 19.0001Z" fill="#D6263B"/>
</svg>
