<svg width="23" height="25" viewBox="0 0 23 25" fill="none" xmlns="http://www.w3.org/2000/svg">
<path d="M13 0.333374V7.33337C13 7.95221 13.2458 8.5457 13.6834 8.98329C14.121 9.42087 14.7145 9.66671 15.3333 9.66671H22.3333V21.9167C22.3333 22.3808 22.1489 22.826 21.8208 23.1541C21.4926 23.4823 21.0474 23.6667 20.5833 23.6667H14.1667V17.831C14.1665 17.5248 14.106 17.2215 13.9887 16.9386C13.8713 16.6558 13.6994 16.3987 13.4828 16.1823C13.2661 15.9658 13.0089 15.7942 12.7259 15.6771C12.4429 15.5601 12.1396 15.4999 11.8333 15.5H10.6667V14.3334C10.6667 13.7145 10.4208 13.121 9.98324 12.6835C9.54565 12.2459 8.95216 12 8.33332 12H4.83332C4.42366 11.9995 4.02115 12.1074 3.66666 12.3127V2.08337C3.66666 1.61925 3.85103 1.17413 4.17922 0.845937C4.50741 0.517749 4.95253 0.333374 5.41666 0.333374H13Z" fill="#D6263B"/>
<path d="M14.75 0.916748V7.33341C14.75 7.48812 14.8115 7.6365 14.9209 7.74589C15.0303 7.85529 15.1786 7.91675 15.3333 7.91675H21.75L14.75 0.916748Z" fill="#D6263B"/>
<path d="M3.66666 16.6667V14.9167C3.66666 14.4526 3.85103 14.0075 4.17922 13.6793C4.50741 13.3511 4.95253 13.1667 5.41666 13.1667H7.74999C8.21412 13.1667 8.65924 13.3511 8.98743 13.6793C9.31562 14.0075 9.49999 14.4526 9.49999 14.9167V16.6667H11.25C11.7141 16.6667 12.1592 16.8511 12.4874 17.1793C12.8156 17.5075 13 17.9526 13 18.4167V20.1667H9.49999V19.5834C9.49999 19.4287 9.43853 19.2803 9.32914 19.1709C9.21974 19.0615 9.07137 19.0001 8.91666 19.0001C8.76195 19.0001 8.61357 19.0615 8.50418 19.1709C8.39478 19.2803 8.33332 19.4287 8.33332 19.5834V20.1667H4.83332V19.5834C4.83332 19.4287 4.77186 19.2803 4.66247 19.1709C4.55307 19.0615 4.4047 19.0001 4.24999 19.0001C4.09528 19.0001 3.94691 19.0615 3.83751 19.1709C3.72811 19.2803 3.66666 19.4287 3.66666 19.5834V20.1667H0.166656V18.4167C0.166656 17.9526 0.351031 17.5075 0.67922 17.1793C1.00741 16.8511 1.45253 16.6667 1.91666 16.6667H3.66666ZM4.83332 14.9167V16.6667H8.33332V14.9167C8.33332 14.762 8.27186 14.6137 8.16247 14.5043C8.05307 14.3949 7.9047 14.3334 7.74999 14.3334H5.41666C5.26195 14.3334 5.11357 14.3949 5.00418 14.5043C4.89478 14.6137 4.83332 14.762 4.83332 14.9167Z" fill="#D6263B"/>
<path d="M9.49999 21.3334H13V23.0834C13 23.5475 12.8156 23.9926 12.4874 24.3208C12.1592 24.649 11.7141 24.8334 11.25 24.8334H1.91666C1.45253 24.8334 1.00741 24.649 0.67922 24.3208C0.351031 23.9926 0.166656 23.5475 0.166656 23.0834V21.3334H3.66666V21.9167C3.66666 22.0714 3.72811 22.2198 3.83751 22.3292C3.94691 22.4386 4.09528 22.5 4.24999 22.5C4.4047 22.5 4.55307 22.4386 4.66247 22.3292C4.77186 22.2198 4.83332 22.0714 4.83332 21.9167V21.3334H8.33332V21.9167C8.33332 22.0714 8.39478 22.2198 8.50418 22.3292C8.61357 22.4386 8.76195 22.5 8.91666 22.5C9.07137 22.5 9.21974 22.4386 9.32914 22.3292C9.43853 22.2198 9.49999 22.0714 9.49999 21.9167V21.3334Z" fill="#D6263B"/>
</svg>
