<svg width="28" height="34" fill="none" xmlns="http://www.w3.org/2000/svg"><path d="M18.583 18.486c.594-.409 1.746-1.258 1.607-1.384-.14-.127.868.342 1.39.593l1.085-1.701-1.086-.791c.304-.831.868-2.485.695-2.453-.174.031.97-.198 1.563-.317v-1.899l-1.563-.277-.695-2.334 1.085-.83L21.58 5.43l-1.39.514-1.91-1.74.565-1.385-1.78-.95-1.042.95-2.432-.514L13.287 1h-2.302l-.26 1.306-2.258.514-.868-.95-1.78.95.347 1.384-1.954 1.741-1.606-.514-.955 1.661.955.831-.521 2.334-1.563.277v1.9l1.563.316.695 2.294-1.13.95 1.13 1.701 1.432-.593 1.607 1.384h12.764z" fill="#000" stroke="#FBCF0B" stroke-width=".5"/><ellipse rx="7.494" ry="7.078" transform="matrix(-1 0 0 1 12.179 11.407)" fill="red"/><path d="M11.108 8.01c-.029.014-.205.1-.529.028l-.352-.085s-.456.285-.441.598c.014.313.147 1.381-.015 1.794-.162.413-.5.4-.5.4s.044.313 0 .726l-.073.712s.308.384.926.384c1.058-.014 1.249-1.296 1.249-1.296s.03.598-.22.969c-.206.299-.53.455-.53.455s.926.357 1.47.969c.544.612.897 1.396.897 1.396s2.043.299 2.94-.157c.91-.456 1.013-1.082 1.013-1.082s-1.043-.186-2.013-1.638c-.985-1.453-.544-1.852-1.529-2.08-.94-.213-1.543.556-1.572.599.029-.057.47-.87 1.087-.898a4.882 4.882 0 011.147.086l.014-1.282s-1.014-.598-1.837-.64c-.793-.044-1.881.64-1.955.683l.823-.641zm3.396-.74c-.03.013-.618.142-1.162.042-.529-.1-1.631-.712-2.028-.712-.382-.014-1.043.2-1.087.2.014-.015.132-.086.293-.157.221-.1.53-.214.853-.2.353.029.911.27 1.396.484.324.143.617.257.764.257 1.235 0 1.191-.541 1.191-.541l-1.69.085s1.352-.27 1.543-.399c.426-.256.22-.47.22-.47s-.764.57-1.763.342c-1-.228-1.896-1.453-2.22-1.623-.323-.157-.94-.2-.94-.2s.735-.1 1.029.057c.294.157 1.602 1.71 2.616 1.652 1.293-.071 1.705-1.011 1.705-1.011s-2.073.228-3.072-.37c-.985-.584-2.028-1.567-2.895-1.624-.868-.057-1.382.598-1.382.598s.559.043.764.499c.206.455-.088.94.235 1.182.324.242.53-.114 1 .17.47.271.5.87.5.87s-.324-.499-.647-.656c-.265-.128-.588-.07-.823-.185a.319.319 0 01-.132-.1c-.22-.256-.192-.441-.192-.441s-.367.2-.338.541a.68.68 0 00.089.257c.103.142.235.185.235.185s-.426-.043-.441-.456c-.015-.427.426-.684.426-.684s.074-.555-.103-.74c-.176-.185-.764-.314-.764-.314s-.617.428-.588.499c.03.071.044.185-.03.327-.058.143-.97.413-.94.556.015.071.206.2.206.2s.103-.03.176.042c.074.071 0 .17 0 .17s0-.099-.059-.113c-.058-.014-.073-.014-.073.043 0 .057-.176.07-.176.156s.19.257.19.257-.308-.015-.352.07c-.03.072.117.115.117.243 0 .142-.294.171-.235.342.06.17.706.342 1.176.327.441-.014.853-.256.882-.27-.015.028-.206.242-.368.299-.176.057-.984.057-.984.057s1.146.427 1.896 1.524c.75 1.11.705 1.965.705 1.965s.353-.043.368-.484c.014-.442-.074-1.296 0-1.567.073-.27.455-.712.455-.712s-.529-.1-.867-.456c-.338-.356-.47-.897-.47-.897l-.324.1s-.25.114-.323.028c-.073-.085.074-.284.074-.284s-.03.213.044.213c.073.014.646-.156.72-.427.059-.27-.088-.356-.177-.342-.088 0-.161.114-.161.114s-.03-.142.132-.2a.193.193 0 01.176 0c.089.043.147.143.177.314.044.285-.191.385-.191.385s.132.64.544.925c.293.2.573.257.75.356 0 0 .087-.156.308-.313.22-.157.926-.242 1.499-.114.617.142 1.352.456 1.822.484.412.029.706-.342.72-.356zm2.586 7.092s.78.797 1.088 1.481c.308.684.264 1.567.264 1.567l.383 1.04s1.807 1.95 2.145 2.634c.294.612 1.69 2.207 2.72 2.99.866.656 2.998 3.96 3.218 4.188.22.228 1.014.64 1.088 1.011.073.37-.794 1.353-1.073 1.752-.28.385-.662 1.552-1.176 1.866-.514.313-1.293.142-1.381-.072-.074-.213.264-.441.529-.769.25-.327.235-.811.235-.811s-.133-.057-.191-.214c-.06-.157.088-.883.088-.883s-.5.783-.735 1.082c-.22.314-.47 1.111-.808 1.51-.338.399-1.455.285-1.573.057-.118-.228.22-.57.47-.783.265-.214.25-.87.25-.87s-.162-.127-.162-.298c0-.171.162-.256.162-.256s-.117-.157-.117-.257c0-.114.117-.242.117-.242s-.103-.043-.103-.242c0-.185.118-.3.088-.356-.029-.057.015-.256 0-.499-.014-.242-.146-.555-.146-.555s-1.617-1.439-2.97-2.62c-1.352-1.183-4.291-3.248-4.291-3.248s-.088.47-.5.47c-.411-.014-1.455-.983-1.455-.983s-.103.029-.235-.056c-.132-.086-.162-.243-.162-.243l-.264-.057c-.088-.056-.177-.199-.177-.199s-.19 0-.293-.071a.513.513 0 01-.133-.214s-.308-.213-.514-.384c-.206-.171-.662-.428-.662-.428s-4.453-1.495-5.158-1.68c-.706-.185-3.469-.641-3.469-2.535 0-2.023 3.954-1.695 3.954-1.695l3.762.27s-.661-1.21-1.91-2.05c-1.25-.84-1.485-1.182-1.5-1.61 0 0 .177-1.737-.617-2.748-.779-1.012-2.234-1.68-2.234-1.68s-.338-.143-.294-.328c.044-.186.235-.2.265-.314.03-.1-.147-.342-.088-.384.058-.057.161-.057.161-.057s-.073-.143-.03-.2c.045-.057.25-.085.221-.156-.014-.057-.352-.2-.279-.342.074-.143.867-.399.955-.57.089-.17-.014-.27.03-.37.044-.086.852-.74.852-.74s.015-.4.5-.528 2.014.499 2.014.499.602-.442 1.47-.328c.866.128 2.263 1.51 3.585 1.809 1.323.299 2.47.214 2.47.214s.044.299-.103.498c-.147.2-.368.342-.368.342s.147.213.074.427c-.074.2-.265.385-.265.385s.177.128.074.341c-.103.214-.236.94-1.161.983-.28.014-.53-.028-.765-.1-.544-.156-1-.427-1.558-.413-.808.015-1.072.271-1.072.271s.161.228.631.214c.456-.015.809-.242 1.647-.029l.308.086c.72.228 1.382.527 1.382.527s.97 0 1.675.185c.706.185 1.03.37 1.279.384.235.015 1.705-.014 2.058.072.352.085 2.807.697 3.262.669.456-.029 2.014-.185 2.484-.114.485.071 1.03.313 1.161.313.133 0 .206-.014.206.043.015.057-.191.242-.411.228a2.195 2.195 0 01-.338-.043s-.22.029-.324 0c-.103-.028-.25-.1-.25-.1s-.176.114-.294.1a1.262 1.262 0 00-.338.043s.853.057.882.313c.03.256-.367.1-.602.114-.22.014-.765.157-1.044.1-.265-.057-.779-.256-.955-.242-.162.014-2.778.256-3.528.256-.75.014-2.44-.356-2.44-.356s-.631.028-1.16.043c-.53.028-1.28-.072-1.28-.072s.927 2.222 2.014 2.835c.823.455.97.484 1 .47 0 .057-.03.284-.103.47a.789.789 0 01-.162.242zm9.686 16.307c.235-.328.808-1.111.72-1.41-.088-.313-.676-.627-.676-.627s-.191.2-.382.3c-.191.1-.338.1-.338.156 0 .057.014.484.014.484s.162.143.162.328c0 .185-.117.256-.117.256s.117.114.088.285c-.03.171-.133.228-.133.228s.089.128.074.285c-.015.156-.191.228-.191.228l-.617-.029s.058.413-.118.755c-.206.399-.661.74-.588.826.132.142.94.085 1.161-.256.22-.314.706-1.482.94-1.81zm-.147-2.193l-.162-.342s-.22.327-.558.384c-.338.057-.853-.114-.853-.114s.441.826.382 1.012c-.058.199.485.199.485.028 0-.17-.117-.513 0-.541.118-.043.353-.071.485-.2.133-.142.22-.227.22-.227zm-.853-.214c.559-.071.47-.484.47-.484s-2.248-3.034-2.512-3.276c-.265-.242-1.47-1.21-1.47-1.21l-.015.897s-1.323-2.62-1.705-3.219c-.382-.584-1.837-2.236-1.837-2.236l-3.145.555s.47 1.069.602 1.353c.133.285.5.47.867.798.368.328.588.84.588.84s3.542 2.834 4.1 3.29c.56.456 2.94 2.535 2.94 2.535s.559.228 1.117.157zm.324 1.666c0-.07-.044-.128-.118-.128l-.529-.028h-.015c-.073 0-.117.057-.132.114 0 .07.044.128.118.128l.529.028h.015c.073.014.132-.043.132-.114zm-.015.499c0-.071-.044-.128-.117-.128l-.53-.029h-.014c-.074 0-.133.057-.133.114 0 .071.044.128.118.128l.53.029h.014c.073 0 .132-.057.132-.114zm-.044.498c0-.07-.044-.128-.118-.128l-.529-.028h-.014c-.074 0-.133.057-.133.114 0 .07.044.128.118.128l.529.028h.015c.073 0 .132-.057.132-.114zm-.353-20.95c.118-.057-.735-.256-.735-.256s-1.97.285-2.38.242c-.427-.043-3.175-.755-3.543-.755-.367 0-1.558.157-1.998.057-.427-.1-.941-.441-1.529-.541-.573-.1-1.146-.1-1.146-.1V9.89s.529.342 1.293.285a68.94 68.94 0 012.263-.1l-.764.185s1.676.285 2.381.228c.705-.057 2.675-.228 3.101-.228.53 0 1.044.356 1.25.342.205-.014.705-.128.793-.114.088.028.28.071.28 0s-1.22-.143-1.22-.143.631-.313.837-.341c.191-.029.544-.114.544-.114s.47.142.573.085zm-1.47 20.68c.236-.328.809-1.111.72-1.41-.087-.314-.675-.627-.675-.627s-.192.2-.383.3c-.19.099-.338.099-.338.156 0 .057.015.484.015.484s.162.143.162.313c0 .171-.118.257-.118.257s.118.114.088.285c-.029.17-.132.227-.132.227s.088.129.074.285c-.015.157-.192.228-.192.228l-.617-.028s.059.413-.117.755c-.206.398-.662.74-.588.826.132.142.94.085 1.16-.257.221-.313.706-1.481.941-1.794zm-.161-2.208l-.162-.342s-.22.328-.558.385c-.338.057-.5-.029-.5-.029s.088.727.03.926c-.06.2.484.2.484.029s-.117-.513 0-.542c.118-.042.353-.07.485-.199.147-.142.22-.228.22-.228zm-.75-.213c.397-.114.544-.456.544-.456s-3.277-2.777-4.16-3.49c-.881-.712-2.336-1.666-2.336-1.666s-.059.214-.382.242c-.324.029-1.47-.94-1.47-.94s-.323-.042-.397-.128a.618.618 0 01-.103-.242s-.073.029-.19-.028c-.118-.057-.236-.057-.25-.057 0 0 .22.313.425.47.221.17.206.413.206.413s3.69 2.691 4.027 3.005c.338.313 3.248 2.791 3.248 2.791s.441.2.838.085zm.235 1.68c0-.071-.044-.128-.117-.128l-.53-.029h-.014c-.073 0-.132.057-.132.114 0 .072.044.129.117.129l.53.028h.014c.074 0 .132-.057.132-.114zm-.014.484c0-.07-.044-.128-.118-.128l-.529-.028h-.015c-.073 0-.132.057-.132.114 0 .07.044.128.118.128l.529.028h.014c.074 0 .133-.043.133-.114zm-.044.499c0-.071-.045-.128-.118-.128l-.53-.029h-.014c-.073 0-.132.057-.132.114 0 .071.044.128.117.128l.53.029h.014c.074 0 .133-.043.133-.114zm-4.88-12.39l-.353-.827c-.103.47-.852 1.04-.852 1.04l1.205-.214zm-.529-1.553c0-1.439-1.205-2.322-1.205-2.322s-.5.641-1.338.855c-.852.2-2.395.014-2.395.014l.529 1.197 1.234.398-1.087.513-.044 1.182.382.057s.367-.342.69-.256c.324.085.515.37.515.37s2.719-.128 2.719-2.008zm-1.132 5.654c.206-.014.294-.242.147-.613-.103-.256-.646-.669-1-1.025-.131-.142-.249-.256-.278-.37-.133-.37-.647-1.51-.956-1.61-.308-.1-.573.129-.573.129s.059.256.044.47c-.014.213-.103.327-.059.356l.412.256s.22-.057.367.057c.147.1.147.242.147.242s.162-.028.294.1c.133.128.118.242.118.242s.162 0 .28.114l.029.028c.088.1.058.257.058.257l-.382.47c-.015 0 1.147.925 1.352.897zm-1.16-1.382a.197.197 0 00.029-.085.128.128 0 00-.044-.1.142.142 0 00-.192.014l-.323.4c-.015.028-.03.056-.03.085 0 .043.015.071.045.1a.142.142 0 00.19-.015l.324-.399zm-.412-.327a.198.198 0 00.03-.086.128.128 0 00-.045-.1.142.142 0 00-.191.015l-.323.399a.197.197 0 00-.03.085.13.13 0 00.044.1.142.142 0 00.191-.014l.324-.4zm-.397-.285a.197.197 0 00.03-.085.128.128 0 00-.045-.1c-.059-.043-.132-.029-.19.014l-.324.399a.198.198 0 00-.03.085c0 .043.015.072.044.1.06.043.133.028.191-.014l.324-.399zm-.191 2.236c.206-.014.294-.242.147-.612s-1.147-1.026-1.279-1.396c-.03-.071-.073-.185-.117-.3a11.679 11.679 0 00-.588-.284c-.265-.114-.544-.142-.809-.242-.03.128-.059.142-.014.157l.411.256s.22-.057.367.057c.148.1.148.242.148.242s.161-.029.293.1c.133.128.118.242.118.242s.162 0 .28.114c.117.1.073.285.073.285l-.382.47c0 .014 1.16.925 1.352.911zm-.647-2.179c.132.157.456-.27.294-.37-.147-.1-.5-.2-.456-.314.044-.113.147-.313.118-.498a3.56 3.56 0 00-.059-.3l-.382-.07s.147.37 0 .669c-.147.3-.309.384-.309.384s.662.342.794.499zm-.72-3.19l.705-.3-.764-.213-.676-1.524s-4.189-.584-5.952-.527c-1.764.057-1.779 1.41-1.779 1.41 0 1.011 1.5 1.951 3.586 2.507l4.6 1.225s.28-.186.339-.442c.059-.242 0-.513 0-.513s-.603-.213-1.03-.512c-.425-.285-1.484-1.268-2.336-1.524-.867-.257-2.337-.214-2.337-.214s1.705-.27 2.513-.071c.809.2 2.19 1.495 2.425 1.61.294.142.662.355.662.355l.044-1.267zm.206 3.988a.198.198 0 00.03-.086.128.128 0 00-.045-.1c-.059-.042-.132-.028-.191.015l-.323.398c-.015.029-.03.057-.03.086a.13.13 0 00.044.1c.06.042.133.028.191-.015l.324-.398zm-.397-.328a.198.198 0 00.03-.085.128.128 0 00-.045-.1c-.059-.043-.132-.029-.19.014l-.324.399a.194.194 0 00-.03.085c0 .043.015.072.044.1.06.043.133.029.191-.014l.324-.399zm-.397-.3a.198.198 0 00.03-.085.127.127 0 00-.045-.1c-.059-.042-.132-.028-.19.015l-.324.399a.198.198 0 00-.03.085c0 .043.015.071.045.1.058.043.132.028.19-.014l.324-.4zm-2.425-6.024l2.263.257s-.632-1.268-1.293-1.68a34.103 34.103 0 00-.985-.599s-.308.128-.764-.085c-.456-.214-.603-.4-.603-.4s.03-2.42-.323-3.09c-.5-.94-.94-1.21-.94-1.21s-.324.085-.324.427c0 .342.22 1.21.044 1.68-.161.456-.617.912-.617.912s.073.499.588.883c.808.613 1.293.912 1.837 1.424.544.499 1.117 1.482 1.117 1.482zm1.573 6.082c.132.156.455-.27.293-.37-.146-.1-.5-.2-.455-.314.015-.057.059-.142.088-.242-.117-.043-.191-.071-.309-.1-.014.043-.411.47-.411.47s.661.4.794.556zm-1.015-.641l.412-.484-2.616-.698s-4.189-.94-4.145-2.777c0-1.111 1.367-1.481 1.367-1.481s-3.41-.456-3.41 1.467c0 1.666 1.955 1.808 3.675 2.378 1.572.541 4.717 1.595 4.717 1.595zM7.508 3.509l.117-.185s-.72-.541-1.337-.498c-.618.042-.72.299-.618.413.074.085.206-.114.544-.1a.88.88 0 01.53.171c-.03-.014-.295-.114-.471-.086-.191.029-.22.114-.162.143.06.043.118.014.177.057.044.043-.015.128.073.128s.044-.128.397-.128c.353 0 .47.128.47.128s-.411-.085-.5-.057c-.088.043-.19.057-.19.2 0 .142.058.156.088.327.03.171-.015.612-.015.612s.265-.1.235-.327c-.014-.171-.044-.2.044-.3.044-.056.25-.227.412-.355.117-.071.206-.143.206-.143zm.088 4.316s-.191-.2-.544-.456c-.235-.171-.779-.385-1.102-.527-.162-.071-.265-.17-.265-.17s-.176.127-.44.184c-.265.057-.956-.071-.956-.071s1.117.627 1.778 1.424c.676.812.632 2.336.706 2.35.073.014.47-.498.5-.683.058-.3-.015-.969-.045-1.382-.044-.413.368-.67.368-.67zM6.508 4.577c.103-.199-.03-.74-.382-.911-.353-.17-.661-.17-.661-.17s-.735.498-.72.583c.014.085.044.328-.045.399-.088.071-.955.342-.926.456.03.113.206.227.206.227s.147 0 .177.029c.029.043 0 .2 0 .2s-.03-.115-.06-.129c-.029-.014-.25.2-.25.2l.148.299c-.015 0-.25-.086-.25-.029 0 .057.074.128.088.185.015.057.015.2-.044.257-.059.057-.176 0-.206.142-.044.256 1.206.442 1.558.37.338-.07.588-.327.662-.37.058-.043.147-.071.147-.17 0-.1-.133-.13-.103-.243.014-.114.235-.114.235-.114s-.162-.157-.118-.228c.044-.071.162-.071.206-.128.044-.057-.294-.228-.264-.342-.015-.1.514-.313.602-.513z" fill="#897421"/><path d="M27.496 29.257c.088.313-.485 1.097-.72 1.41-.235.327-.72 1.481-.94 1.823-.22.328-1.03.399-1.162.256-.073-.085.383-.427.588-.826.177-.342.118-.755.118-.755l.617.029s.177-.071.191-.228a.477.477 0 00-.073-.285s.103-.057.132-.228c.03-.17-.088-.285-.088-.285s.117-.07.117-.256c0-.185-.161-.328-.161-.328s-.015-.427-.015-.484c0-.057.132-.042.338-.156.206-.114.382-.3.382-.3s.588.314.676.613z" fill="#FCD672"/><path d="M26.453 28.131l.162.342-.22.214c-.133.128-.368.156-.486.2-.117.042 0 .37 0 .54 0 .171-.543.171-.485-.028.06-.2-.382-1.011-.382-1.011s.515.17.853.114c.338-.043.558-.37.558-.37z" fill="#FCD672"/><path d="M26.247 27.76s.088.427-.47.484c-.56.072-1.103-.156-1.103-.156s-2.366-2.08-2.94-2.536c-.558-.455-4.1-3.29-4.1-3.29s-.22-.512-.588-.84c-.367-.327-.75-.512-.867-.797-.132-.285-.603-1.353-.603-1.353l3.146-.556s1.455 1.652 1.837 2.236c.382.584 1.705 3.219 1.705 3.219l.014-.897s1.206.968 1.47 1.21c.25.242 2.499 3.276 2.499 3.276zm-.265 2.038c.074 0 .133.071.118.128 0 .071-.059.114-.133.114h-.014l-.53-.029c-.073 0-.132-.07-.117-.128 0-.071.059-.114.132-.114h.015l.53.029zm-.015.485c.074 0 .132.071.118.128 0 .071-.06.114-.133.114h-.014l-.53-.028c-.073 0-.132-.072-.117-.129 0-.07.059-.114.132-.114h.015l.53.029z" fill="#FCD672"/><path d="M25.924 30.78c.073 0 .132.07.117.128 0 .07-.059.114-.132.114h-.015l-.529-.029c-.073 0-.132-.071-.118-.128 0-.071.06-.114.133-.114h.014l.53.028z" fill="#FBCF0B"/><path d="M24.968 9.717s.838.2.735.257c-.117.057-.602-.1-.602-.1s-.353.085-.544.114c-.191.028-.838.342-.838.342s1.22.085 1.22.142c0 .071-.191.029-.28 0-.088-.028-.587.1-.793.114-.206.014-.72-.342-1.25-.342-.426 0-2.38.171-3.1.228-.706.057-2.381-.228-2.381-.228l.764-.185s-1.5.043-2.264.1c-.764.057-1.293-.285-1.293-.285V8.62s.573 0 1.161.1c.588.099 1.102.44 1.529.54.426.1 1.631-.056 1.998-.056.368 0 3.116.712 3.543.754.426.043 2.395-.242 2.395-.242zm-.029 19.524c.088.314-.485 1.097-.72 1.41-.236.328-.72 1.481-.941 1.809-.22.328-1.029.399-1.161.256-.074-.085.382-.427.588-.826.176-.341.117-.755.117-.755l.618.029s.176-.071.19-.228c.015-.157-.073-.285-.073-.285s.103-.057.132-.228c.03-.17-.088-.284-.088-.284s.118-.072.118-.257-.162-.313-.162-.313-.014-.427-.014-.484c0-.057.132-.043.338-.157.205-.114.382-.3.382-.3s.587.3.676.613z" fill="#FCD672"/><path d="M23.896 28.103l.161.342-.22.214c-.133.128-.368.156-.485.2-.118.042 0 .37 0 .54 0 .171-.544.171-.485-.028.059-.2-.03-.926-.03-.926s.162.085.5.029c.338-.043.559-.37.559-.37z" fill="#FEE461"/><path d="M23.85 27.774s-.146.342-.543.456c-.397.114-.808-.128-.808-.128s-2.91-2.479-3.248-2.792c-.338-.313-4.028-3.005-4.028-3.005s0-.242-.205-.413c-.22-.17-.427-.47-.427-.47.015 0 .133 0 .25.057.118.057.191.029.191.029s.044.156.103.242c.074.085.397.128.397.128s1.146.968 1.47.94c.323-.029.382-.242.382-.242s1.47.968 2.337 1.666c.867.698 4.13 3.532 4.13 3.532zm-.425 1.995c.074 0 .132.07.118.128 0 .071-.059.114-.133.114h-.014l-.53-.029c-.073 0-.132-.07-.117-.128 0-.071.059-.114.132-.114h.015l.53.029zm-.015.485c.074 0 .133.071.118.128 0 .071-.059.114-.132.114h-.015l-.529-.028c-.073 0-.132-.072-.118-.129 0-.07.06-.114.133-.114h.014l.53.029z" fill="#FCD672"/><path d="M23.366 30.766c.074 0 .133.071.118.128 0 .071-.059.114-.132.114h-.015l-.529-.028c-.073 0-.132-.072-.118-.128 0-.072.06-.114.133-.114h.014l.53.028z" fill="#FBCF0B"/><path d="M18.251 17.677l.353.826-1.205.213s.75-.57.852-1.04z" fill="#8D7632"/><path d="M16.87 14.63s1.205.883 1.205 2.322c0 1.88-2.733 2.008-2.733 2.008s-.192-.285-.515-.37c-.323-.086-.69.256-.69.256l-.383-.057.044-1.182 1.088-.513-1.235-.399-.529-1.196s1.543.185 2.396-.014c.852-.214 1.352-.855 1.352-.855zm.205 7.363c.147.37.059.598-.147.612-.206.014-1.367-.897-1.367-.897l.382-.47s.045-.157-.058-.257h.176c.367.342.911.755 1.014 1.012z" fill="#FCD672"/><path d="M10.285 8.648c.074-.043 1.162-.712 1.955-.684.809.043 1.837.64 1.837.64l-.014 1.283s-.5-.114-1.147-.086c-.617.029-1.073.84-1.087.897.029-.042.632-.826 1.572-.598.97.228.544.641 1.514 2.094.97 1.467 2.014 1.638 2.014 1.638s-.103.626-1.014 1.082c-.912.456-2.94.157-2.94.157s-.353-.784-.896-1.396c-.544-.612-1.47-.968-1.47-.968s.338-.157.529-.456c.25-.356.22-.969.22-.969s-.205 1.282-1.249 1.296c-.617.015-.926-.384-.926-.384s.015-.285.074-.712c.044-.427 0-.726 0-.726s.323.014.5-.4c.161-.412.029-1.48.014-1.794-.015-.313.44-.598.44-.598l.354.085c.323.072.5-.014.529-.028l-.809.627zm5.805 12.32h-.176c0-.014-.014-.014-.03-.029a.561.561 0 00-.278-.114s.014-.113-.118-.242c-.132-.128-.294-.1-.294-.1s0-.142-.147-.242-.367-.056-.367-.056-.368-.243-.412-.257c-.044-.028.044-.142.059-.356.015-.213-.044-.47-.044-.47s.264-.228.573-.128c.309.1.809 1.239.955 1.61.03.128.133.256.28.384zm-.278.184a.194.194 0 01-.03.085l-.323.4c-.044.056-.133.056-.191.013a.127.127 0 01-.044-.1c0-.028.014-.056.029-.085l.323-.399c.044-.056.133-.056.191-.014a.16.16 0 01.045.1zm-.412-.326a.198.198 0 01-.03.085l-.323.399c-.044.057-.132.057-.19.014a.127.127 0 01-.045-.1c0-.028.015-.057.03-.085l.323-.399c.044-.057.132-.057.191-.014.03.028.044.057.044.1zm-.396-.3a.194.194 0 01-.03.085l-.323.4c-.044.056-.132.056-.191.013a.128.128 0 01-.044-.1c0-.028.015-.056.03-.085l.323-.399c.044-.056.132-.056.19-.014a.15.15 0 01.045.1zm-.074 1.708c.147.37.058.598-.147.613-.206.014-1.367-.898-1.367-.898l.382-.47s.044-.185-.074-.284c-.117-.1-.279-.114-.279-.114s.015-.114-.117-.242c-.133-.128-.294-.1-.294-.1s0-.143-.147-.242c-.147-.1-.368-.057-.368-.057s-.367-.242-.411-.257c-.044-.014-.015-.042.014-.156.265.1.544.142.809.242.206.085.397.185.588.285.058.114.088.228.117.299.147.356 1.147 1.011 1.294 1.381zm.308-17.147s-.412.925-1.705 1.01c-1.014.058-2.322-1.509-2.616-1.651-.294-.143-1.029-.057-1.029-.057s.603.043.94.2c.324.156 1.22 1.395 2.22 1.623 1 .228 1.764-.342 1.764-.342s.19.214-.22.47c-.221.114-1.559.385-1.559.385l-.279.185c-.485-.2-1.043-.456-1.396-.485a1.745 1.745 0 00-.853.2l-.147-.242s-.029-.584-.5-.87c-.47-.27-.675.072-.999-.17-.323-.242-.044-.712-.235-1.182-.206-.456-.764-.499-.764-.499s.514-.655 1.381-.598c.868.057 1.911 1.04 2.91 1.638 1 .613 3.087.385 3.087.385z" fill="#FCD672"/><path d="M14.71 6.626s.044.54-1.19.54c-.148 0-.427-.113-.765-.255l.264-.186 1.69-.1zm-.28 13.658c.147.1-.162.527-.294.37-.132-.157-.793-.513-.793-.513s.161-.085.308-.384c.147-.3 0-.67 0-.67l.382.072s.03.114.06.299c.028.185-.074.384-.118.498-.045.128.308.228.455.328zm-.294-3.104l-.706.298-.044 1.253s-.367-.213-.661-.356c-.235-.113-1.617-1.41-2.425-1.609-.809-.2-2.514.071-2.514.071s1.485-.042 2.337.214c.868.256 1.911 1.239 2.337 1.524.426.285 1.03.513 1.03.513s.058.27 0 .512c-.06.242-.339.442-.339.442l-4.6-1.225c-2.087-.555-3.586-1.495-3.586-2.507 0 0 .014-1.353 1.778-1.41 1.764-.057 5.952.527 5.952.527l.676 1.524.765.228z" fill="#FCD672"/><path d="M10.226 6.797c.044-.014.69-.214 1.088-.2.396.015 1.499.613 2.028.712.558.1 1.132-.042 1.161-.042-.015.028-.309.384-.75.37-.455-.014-1.19-.342-1.822-.484-.573-.128-1.279-.043-1.5.114-.22.156-.308.313-.308.313-.176-.1-.455-.157-.75-.356-.396-.27-.543-.926-.543-.926s.235-.1.19-.384c-.028-.171-.087-.27-.175-.314l.029-.057c.235.114.558.057.823.186.338.156.647.655.647.655l.147.242c-.133.085-.25.157-.265.17zm3.425 14.583a.198.198 0 01-.029.086l-.323.398c-.044.057-.133.057-.191.015a.127.127 0 01-.045-.1c0-.029.015-.057.03-.085l.323-.4c.044-.056.133-.056.191-.014.03.029.044.057.044.1zm-.396-.329a.197.197 0 01-.03.086l-.323.398c-.044.058-.132.058-.191.015a.128.128 0 01-.044-.1c0-.028.014-.057.029-.085l.323-.4c.044-.056.133-.056.191-.013.03.028.044.07.044.1zm-.398-.284a.196.196 0 01-.029.086l-.323.399c-.044.057-.133.057-.191.014a.127.127 0 01-.044-.1c0-.028.014-.057.029-.085l.323-.4c.044-.056.133-.056.191-.013.03.014.044.057.044.1zm-.19-5.697l-2.264-.257s-.573-.982-1.116-1.48c-.559-.514-1.044-.813-1.838-1.425-.5-.385-.588-.883-.588-.883s.456-.456.618-.912c.161-.455-.044-1.338-.044-1.68 0-.342.323-.427.323-.427s.456.256.94 1.21c.353.67.324 3.09.324 3.09s.132.186.603.4c.455.213.764.085.764.085s.323.185.985.598c.66.413 1.293 1.68 1.293 1.68zm-.383 5.456c.147.1-.161.527-.293.37-.133-.156-.794-.57-.794-.57s.397-.412.411-.47c.118.03.191.072.31.1-.03.086-.06.171-.09.242-.043.129.295.228.457.328zm-.911-.756l-.412.484S7.816 19.2 6.23 18.673c-1.72-.584-3.674-.712-3.674-2.379.014-1.937 3.424-1.48 3.424-1.48s-1.381.37-1.367 1.48c-.044 1.838 4.145 2.778 4.145 2.778l2.616.698z" fill="#FCD672"/><path d="M10.036 7.737s-.383.442-.456.712c-.074.257.015 1.125 0 1.567-.015.441-.368.484-.368.484s.06-.854-.705-1.965A4.303 4.303 0 006.61 7.01s.808 0 .985-.057c.161-.057.352-.285.367-.3l.088-.127c.074.085.324-.029.324-.029l.308-.114s.133.541.47.898c.339.356.883.455.883.455z" fill="#FCD672"/><path d="M8.713 5.671c.103 0 .25.071.177.342-.06.27-.647.427-.72.427-.074-.014-.045-.214-.045-.214s-.161.2-.073.285l-.088.114c-.03.015-.441.257-.882.27-.456.015-1.117-.156-1.176-.327-.059-.17.235-.2.235-.342 0-.142-.147-.17-.117-.242.029-.07.352-.07.352-.07s-.19-.172-.19-.257c0-.086.176-.1.176-.157 0-.057.029-.057.073-.043.059.015.059.114.059.114s.073-.114 0-.17c-.074-.072-.177-.043-.177-.043s-.19-.128-.205-.2c-.03-.128.882-.413.94-.555.06-.143.06-.242.03-.328-.03-.07.588-.498.588-.498s.588.128.764.313c.176.185.103.74.103.74s-.441.257-.426.684c.014.428.44.456.44.456s-.132-.043-.235-.185h.236c.014 0 .073-.114.161-.114zm-1.279-.983c.118.171.162.413.162.413s-.044-.413-.147-.54c-.103-.143-.294-.271-.338-.186-.03.085.191.142.323.313zm-.029.413l-.294-.455-.044.085-.132.114h-.059s-.03.057.103.157c.117.1.426.1.426.1z" fill="#FCD672"/><path d="M8.904 5.544l-.03.057a.193.193 0 00-.176 0c-.162.057-.132.199-.132.199H8.33a.591.591 0 01-.088-.256c-.045-.342.338-.542.338-.542s-.03.186.19.442c.03.043.074.071.133.1zM7.625 3.32l-.118.185-.19.157-.104-.114s-.117-.128-.47-.128v-.114c-.03-.014-.22-.17-.529-.17-.338 0-.47.184-.544.099-.103-.114 0-.37.618-.413.617-.043 1.337.498 1.337.498z" fill="#FCD672"/><path d="M7.596 5.101s-.045-.242-.162-.413c-.118-.17-.353-.228-.309-.313.03-.086.235.042.338.185.088.128.133.541.133.541z" fill="#897421"/><path d="M7.053 7.366c.352.256.543.456.543.456s-.411.256-.382.67c.03.412.103 1.082.044 1.38-.029.186-.426.698-.5.684-.073-.014-.029-1.538-.705-2.35-.661-.797-1.778-1.424-1.778-1.424s.69.128.955.071c.265-.057.441-.185.441-.185s.088.1.265.171c.338.143.881.356 1.117.527z" fill="#FCD672"/><path d="M7.14 4.774c.015.014.03.07-.029.128-.059.07-.147-.015-.147-.015s-.059.015.088.086.25.071.25.071l-.161-.27zm-.029-.143l.294.456s-.309 0-.426-.1c-.132-.1-.103-.157-.103-.157h.059l.132-.113.044-.086z" fill="#897421"/><path d="M7.14 4.774l.177.27s-.103 0-.25-.07c-.147-.072-.088-.086-.088-.086s.088.086.147.014c.044-.057.014-.114.014-.128z" fill="#FBCF0B"/><path d="M7.2 3.55l.102.114a6.632 6.632 0 00-.411.356c-.074.1-.06.128-.045.299.03.214-.235.327-.235.327s.044-.441.015-.612c-.03-.17-.088-.17-.088-.328 0-.156.088-.17.19-.199.09-.043.471.043.471.043zm-.456-.242v.114c-.353 0-.309.114-.397.128-.088 0-.015-.086-.073-.128-.045-.043-.118-.014-.177-.057-.059-.043-.015-.114.162-.143.176-.028.44.072.485.086-.015 0 0 0 0 0zM3.995 5.757l-.147-.299s.22-.213.25-.2c.029.015.058.13.058.13s.03-.158 0-.2c-.029-.043-.176-.029-.176-.029s-.176-.114-.206-.228.838-.384.926-.455c.088-.072.059-.328.044-.4-.014-.085.72-.583.72-.583s.31 0 .662.17c.353.172.47.727.382.912-.103.2-.617.428-.647.527-.014.114.309.27.265.342-.044.057-.162.057-.206.128-.044.071.118.228.118.228s-.22 0-.236.114c-.014.114.103.142.103.242s-.073.128-.147.171c-.058.043-.308.285-.661.37-.338.072-1.602-.1-1.558-.37.03-.157.147-.085.206-.142.059-.057.073-.2.044-.257-.015-.057-.103-.128-.088-.185.044-.071.279 0 .294.014zm1.19-.769h.191s-.044-.413-.147-.54c-.103-.143-.294-.271-.338-.186-.03.057.059.1.162.17l-.162.1-.044.086-.132.114h-.059s-.03.071.103.185c.132.1.426.071.426.071z" fill="#FCD672"/><path d="M5.376 4.988h-.19l-.28-.456.162-.1a.686.686 0 01.147.143c.117.185.161.413.161.413z" fill="#998543"/><path d="M5.377 4.987s-.044-.242-.162-.413c-.044-.057-.103-.1-.147-.142-.103-.072-.19-.114-.161-.171.029-.086.235.042.338.185.088.142.132.541.132.541zm-.457-.312c.015.014.03.071-.029.128-.059.072-.147-.014-.147-.014s-.059.014.088.086c.147.07.25.07.25.07l-.161-.27zm-.014-.142l.28.455s-.295.015-.427-.085-.103-.185-.103-.185h.059l.132-.114.059-.071z" fill="#897421"/><path d="M4.921 4.674l.176.27s-.103 0-.25-.071c-.147-.071-.088-.085-.088-.085s.088.1.147.014c.06-.057.03-.114.015-.128z" fill="#FEE461"/><path d="M8.595 5.884s.103-.057.177 0c.073.057.029.214-.074.27-.103.058-.309.143-.309.143s.368-.213.31-.327c-.06-.1-.104-.086-.104-.086z" fill="#8D7632"/><path d="M15.503 19.188s.602 1.395.705 1.51c.103.113.911.768 1 .882.088.114.367.598.367.598S20.662 24.7 21 24.955c.323.257 3.733 3.162 3.733 3.162s.5.128.646.128c.147 0 .47-.014.47-.014s-2.483-2.62-3.336-3.261c-.837-.641-1.146-.556-1.396-.812-.265-.256-1.382-2.35-2.043-3.219-.661-.869-1.426-2.05-1.426-2.05l-2.145.299zm-.926 2.234s.22.285.353.413c.132.128.191.128.22.242.045.114.06.228.06.228s3.556 2.635 3.718 2.749c.147.114 3.336 2.948 3.557 3.048.22.1.396.17.661.17.264 0 .382-.142.382-.142s-3.91-2.905-4.32-3.46c-.412-.556-2-1.895-2-1.895s-.176.1-.279.071c-.103-.028-.47-.213-.735-.413-.264-.2-.676-.527-.676-.527s-.323-.057-.367-.114a2.002 2.002 0 01-.133-.284l-.44-.086zM13.43 19.77s0 .044-.088.129-.176.157-.176.157-4.116-1.097-4.292-1.14c-.176-.042-3.895-.883-3.91-2.578 0-1.609 2.264-1.623 4.395-1.281l3.336.384.265.613s-4.365-1.04-5.659-.84c-1.308.199-1.322.512-1.322.512l.544-.128s-.647.327-.588.797c.058.47.837.485.837.485l-.661.142s1.22 1.125 3.278 1.51c2.042.399 4.041 1.239 4.041 1.239z" fill="#F6DFA4"/><path d="M5.979 14.815s-1.882-.27-2.91.441c-1.03.713-.294 1.937-.074 2.137.235.2.72.512 1.264.683.544.171 2.102.627 2.513.77.412.142 4.189 1.41 4.189 1.41l.176-.2-5.056-1.638s-2.13-.598-2.395-1.453c-.265-.854.264-1.139.264-1.139l-.529.057c0-.014.603-1.011 2.558-1.068zm5.364 5.355l-.161.17s.455.271.573.357c.117.1.176.228.294.228.117 0 .264-.228.264-.228l-.97-.527zm1.117 1.026c-.102 0-.146-.114-.102-.185a.138.138 0 00-.103.128c0 .085.059.142.147.142a.145.145 0 00.147-.142c-.015.043-.044.057-.088.057zm.412.284c-.102 0-.147-.114-.102-.185a.138.138 0 00.044.27.145.145 0 00.147-.142c-.015.043-.06.057-.089.057zm.398.326c-.104 0-.148-.114-.104-.185a.138.138 0 00.044.27.145.145 0 00.147-.142c-.014.043-.044.057-.088.057zm.279-.013s.926.898 1.175.883c.25-.014.25-.313.25-.313s.118.441-.19.484c-.31.043-1.368-.897-1.368-.897l.133-.157zm.014-1.893s0 .013-.059.07c-.059.057-.176.186-.176.186s.47.27.573.327c.088.057.22.2.265.2a.235.235 0 00.19-.086c.06-.071.104-.17.104-.17l-.897-.528zm1.059 1.068c-.103 0-.147-.114-.103-.186a.138.138 0 00.044.271.145.145 0 00.147-.142c-.015.028-.059.057-.088.057zm.396.268c-.103 0-.147-.114-.103-.185a.137.137 0 00.044.27.145.145 0 00.147-.142c-.014.043-.044.057-.088.057zm.397.329c-.103 0-.147-.114-.103-.185a.138.138 0 00-.103.128c0 .085.059.142.147.142a.145.145 0 00.147-.142c-.015.043-.044.057-.088.057zm.309 0s.926.897 1.176.883c.25-.014.22-.37.22-.37s.147.484-.162.527c-.308.043-1.366-.897-1.366-.897l.132-.143zM7.596 8.12s-.103 0-.162.199c-.058.242.162 1.182.089 1.51-.074.327-.133.527-.324.769-.19.242-.353.427-.353.427s.118.755 1.103 1.253c.279.143 1.176.826 1.616 1.353.441.527.838 1.168.838 1.168l.5.057s-.779-1.396-1.205-1.723c-.441-.313-2.043-1.624-2.043-1.624s.882-.797.808-1.623c-.073-.826-.044-.684-.044-.684L7.596 8.12z" fill="#F6DFA4"/><path d="M10.212 7.963s-.323.128-.426.47c-.103.342.147 1.182.014 1.695-.132.513-.323.555-.323.555l-.22.072s.044.27 0 .683c-.044.413-.074.755-.074.755s1.646-.37 1.69-1.709c.044-1.339-.75-1.495-.69-1.923.058-.427.323-.555.323-.555l-.294-.043zm3.396 6.753s-.588-.855-1.03-1.353c-.44-.485-1.542-.969-1.542-.969l-.427.3s.867.327 1.44.968c.56.64.927 1.381.927 1.381s1.616.27 2.69-.057h.014c-.603.029-2.072-.27-2.072-.27z" fill="#F6DFA4"/><path d="M10.344 8.604s.896-.57 1.734-.64c.838-.072 1.984.64 1.984.64v.47s-.984-.655-1.852-.783c-.867-.128-1.866.313-1.866.313zm4.013.016v.456s.734-.07 1.352.043c.632.114 1.087.313 1.425.3.338-.015 1.705-.143 2-.072.293.057 3.262.755 3.644.726.382-.028 2.073-.313 2.175-.299.103.014.676.242.765.2.088-.043-.53-.228-.794-.257-.28-.028-1.955.257-2.205.228-.25-.028-3.365-.755-3.571-.783-.309-.043-1.91.128-1.999.114-.103-.014-1.176-.499-1.631-.57-.456-.085-1.161-.085-1.161-.085zM4.29 6.782s1.013.627 1.366.997c.353.37.603.584.75 1.026.147.441.22.74.25.997.029.256.102.74.102.74s.133-1.21-.22-2.036c-.353-.827-1.484-1.624-1.484-1.624s-.588-.057-.765-.1zm-.721-.44c0 .029.132.143.338.214.235.071.529.114.617.128.044 0-.53-.214-.514-.3.014-.07.132-.156.161-.255.044-.114-.03-.243-.014-.285.029-.057.308-.37.308-.37s.118-.243-.03-.328c-.146-.1-.367-.143-.367-.157 0-.071.662-.356.662-.356s.103-.043.132-.114c.03-.071.059-.185.059-.185s-.015.029-.015-.043c0-.07.132 0 .132 0s.441-.427.588-.512c.162-.086.309-.186.309-.186s-.118-.07-.25-.085c-.118-.014-.206-.029-.206-.029s-.338.228-.426.3c-.088.07-.294.256-.294.256s.059.256-.015.384c-.058.114-.485.2-.75.357-.264.156-.205.1-.19.199.014.085.19.185.19.185s.133 0 .177.029c.044.042 0 .199 0 .199s-.03-.142-.059-.128c-.029.014-.25.2-.25.2l.148.298s-.22-.085-.25-.028c-.03.057.103.128.103.213 0 .086 0 .214-.074.242-.103.029-.206.029-.22.157zM5.671 3.25c.103.056.162-.229.573-.271.412-.043 1.205.228 1.205.228s-.588-.442-1.22-.385c-.632.057-.646.356-.558.427z" fill="#F6DFA4"/><path d="M7.626 3.322s-.25-.114-.441-.114a.893.893 0 00-.324.057s.368.043.47.1a.724.724 0 01.177.143l.118-.186zm-1.191.156s-.044.072-.132.057c-.088 0 0-.07-.03-.113-.029-.057-.19-.015-.205-.086 0-.071.176-.142.352-.128.133.014.309.085.309.085s-.426-.057-.44 0c-.016.057.058.043.087.072.03.042-.03.057-.03.085.03.043.06.057.09.028z" fill="#F6DFA4"/><path d="M6.552 3.678s-.015-.185.25-.2c.264-.014.588.128.588.128s-.632-.128-.838.072zm.148.07s.088.1.205.085c.118 0 .235-.028.235-.028l-.161.128c0 .014-.22 0-.28-.185z" fill="#FFC844"/><path d="M9.212 10.484S9.08 8.86 8.095 8.006c-.985-.855-1.47-1.011-1.47-1.011h.706s.764.54 1.176 1.068c.808 1.054.72 2.492.72 2.492" fill="#F4DB6C"/><path d="M6.935 6.91s-.559-.043-.823-.17c-.265-.129-.206-.2-.191-.229.014-.028.014-.085.132-.128.118-.057.118-.085.103-.142-.015-.057-.015-.086-.059-.128-.03-.043-.088-.1-.073-.129a.303.303 0 01.19-.057h.148s-.22-.17-.191-.256c.029-.071.161-.1.176-.128.015-.029.03-.071.044-.071.015 0 .074-.029.088.042.015.072.015.114.015.114s.044-.085.015-.185c-.015-.1-.191-.071-.191-.071s-.25-.17-.25-.228c0-.057.176-.157.264-.2.088-.042.588-.284.618-.384.029-.114.029-.27.058-.342.015-.07.515-.441.515-.441l.25.043-.676.47-.015.1s-.015.17-.03.227c-.029.057-.235.256-.367.342-.132.085-.323.17-.309.214.015.042.383.156.397.256.03.1-.25.527-.25.527s.103.157.044.37c-.058.228-.19.2-.161.285.03.085.353.3.529.3zm3.292-3.49c-.735-.398-1.073-.384-1.529-.284-.455.1-1.014.484-1.014.484l.28.057s.485-.399 1.366-.385c.632.015 1.764.712 2.352 1.097-.382-.27-.955-.684-1.455-.969z" fill="#F6DFA4"/><path d="M15.239 5.087s-.588.028-1.25.028c-.647 0-1.514-.256-1.514-.256s.544.456 1.382.456c.823 0 1.382-.228 1.382-.228z" fill="#F4DB6C"/><path d="M14.885 5.315s-.75.499-1.778.314c-1.029-.185-1.955-1.24-1.955-1.24s.955 1.282 1.955 1.44c1.014.17 1.778-.514 1.778-.514zm-6.172-.398c-.03-.085.088-.883.705-1.14.617-.255 1.646.514 1.646.514s-1.014-.513-1.572-.243c-.559.271-.78.87-.78.87z" fill="#F6DFA4"/><path d="M14.797 5.872s-.72.612-1.631.54c-.911-.085-1.94-.954-1.94-.954s.882 1.083 1.925 1.097c1.059 0 1.646-.683 1.646-.683z" fill="#F6DFA4"/><path d="M8.272 3.749c.03.014.309.128.588.014.294-.114.5-.3.5-.3s-.28.4-.544.457c-.265.085-.544-.171-.544-.171z" fill="#F4DB6C"/><path d="M8.742 5.102s.147.256.412.27c.25.015.235-.868 1.043-.868.397 0 .955.683.955.683s-.514-.584-.97-.54c-.455.028-.646.797-.999.81-.382 0-.44-.355-.44-.355zm5.968 1.524s-.206.356-.868.413c-.646.057-1.587-.328-1.587-.328s1 .613 1.72.484c.705-.128.735-.57.735-.57z" fill="#F6DFA4"/><path d="M9.757 5.457s.382.156.514 0c.132-.157.044-.541.353-.413.308.128 1.293 1.495 1.293 1.495s-1.029-1.253-1.249-1.267c-.22-.015-.118.213-.265.37-.147.157-.646-.185-.646-.185z" fill="#F6DFA4"/><path d="M8.625 5.244s-.236.114-.25.313c-.015.2.117.427.117.427s-.073-.313 0-.427a.515.515 0 01.206-.17l-.073-.143z" fill="#897421"/><path d="M11.418 6.697s1.543.798 2.13.784c.589-.015.956-.228.956-.228s-.147.256-.529.356c-.382.085-.911-.128-.911-.128l-1.646-.784zM9.037 5.615c.014.014.103.441.455.47.338.028.588-.071.691.256.103.328-.147.655-.147.655s.206-.612-.073-.683c-.294-.071-.47.043-.662-.029-.205-.1-.264-.669-.264-.669z" fill="#F6DFA4"/><path d="M9.139 6.042s-.147.442.118.613c.264.17.293.014.5.085.205.071.176.655.176.655s-.074-.527-.28-.541c-.205-.014-.455.043-.617-.2-.147-.241.103-.612.103-.612z" fill="#F6DFA4"/><path d="M10.212 6.996s.426.1.735 0c.308-.1.47-.37.47-.37s-.22.413-.53.498c-.308.086-.675-.128-.675-.128z" fill="#F4DB6C"/><path d="M25.439 29.953c-.06-.085 0-.17.088-.185a.164.164 0 00-.162 0 .152.152 0 00-.03.2c.045.056.133.07.206.028a.135.135 0 01-.102-.043zm0 .472c-.06-.085 0-.17.088-.185a.164.164 0 00-.162 0 .152.152 0 00-.03.2c.045.056.133.07.206.028a.136.136 0 01-.102-.043z" fill="#F6DFA4"/><path d="M25.41 30.937c-.06-.085 0-.17.088-.185a.164.164 0 00-.162 0c-.059.043-.074.143-.03.2.045.056.133.07.206.028-.044 0-.088-.014-.103-.043z" fill="#F4DB6C"/><path d="M22.881 29.953c-.058-.085 0-.17.089-.185a.163.163 0 00-.162 0 .152.152 0 00-.03.2c.045.056.133.07.206.028-.044 0-.088-.014-.103-.043zm0 .472c-.058-.085 0-.17.089-.185a.163.163 0 00-.162 0 .152.152 0 00-.03.2c.045.056.133.07.206.028a.136.136 0 01-.103-.043z" fill="#F6DFA4"/><path d="M22.837 30.937c-.058-.085 0-.17.088-.185a.163.163 0 00-.161 0c-.059.043-.074.143-.03.2.044.056.133.07.206.028a.135.135 0 01-.103-.043zm-.015.199s.074.498-.161.811c-.236.314-.618.67-.559.77.059.085.353.113.485.07.132-.028.515-.598.588-1.01.073-.428.044-.613.044-.613l-.397-.029zm2.558.042s.073.498-.162.812c-.235.313-.617.67-.558.769.058.085.352.114.485.071.132-.028.514-.598.588-1.011.073-.427.044-.613.044-.613l-.397-.028z" fill="#F4DB6C"/><path d="M23.234 28.5v1.026s-.235.043-.309-.014c-.059-.072-.073.028-.059-.072.015-.1.015-.47 0-.655a3.51 3.51 0 00-.044-.327l.412.043zm1.808-.114s.235.47.28.598c.058.143.088.214.102.285.015.071-.014.2.044.228a.369.369 0 00.162.057c.044 0 .191-.014.191-.014l-.206-1.026-.573-.128zm-11.92-12.888l.25.57s.764.014 1.338.1c.558.085 1.322.242 1.322.242s-.779-.655-2.91-.912z" fill="#F6DFA4"/><path d="M8.698 6.369s.22.669.47.897c.236.228.868.456.868.456l-.28.327s-.69-.27-.94-.655c-.265-.37-.265-.797-.265-.797l-.279-.072.426-.156zm3.161 4.301s.44-.812.955-.854a6.034 6.034 0 011.25.07v-.54s-1.632-.484-2.205 1.324zm2.498-1.27v.485s.338.228.926.285c.602.057 2.63-.1 2.63-.1l-.764.185s1.676.271 2.264.242c.573-.042 3.027-.227 3.056-.227.045 0 .294 0 .397.014.103.028.809.313.941.313.147 0 .75-.114.75-.114s-.544.043-.78 0c-.22-.057-.72-.327-1.102-.313-.382.014-3.027.185-3.41.071-.367-.114-.896-.156-.896-.156s.235-.129.22-.214c-.014-.086-3.498-.285-4.232-.47z" fill="#FFC844"/><path d="M12.8 10.086s.778.883 1.175 1.623c.397.741 1.514 1.823 1.514 1.823s-.853-.769-1.206-.17c-.352.598.853 1.552 1.823 1.139.97-.413.838-.655.838-.655s-.838-.214-1.543-1.026c-.706-.812-1.191-2.35-1.485-2.492-.294-.171-.544-.328-1.117-.242zm3.468 5.086s.794.17.911 1.623c.103 1.453-1.822 2.165-1.822 2.165s2.851-.143 2.733-2.008c-.102-1.581-1.234-2.322-1.234-2.322l-.588.542zm2.439 3.544l-.647.114s1.264 1.14 2.19 2.222c.94 1.082 1.426 2.008 1.426 2.008s-.559-1.495-1.955-3.162c-.794-.954-1.014-1.182-1.014-1.182zm3.557 4.558v.712s.808.456 1.69 1.353c.882.883 2.234 2.706 2.234 2.706l.059-.27s-1.514-2.393-2.396-3.162a59.788 59.788 0 00-1.587-1.339zm4.189 4.857l-.103.128.19.3.09-.086-.177-.342zm.367.498l-.206.185s.573.256.617.584c.045.328-.308 1.054-.308 1.054s.661-.798.544-1.253c-.103-.456-.647-.57-.647-.57zM7.875 16.853s1.617-.257 2.293-.1c.676.157 2.293 1.453 2.293 1.453l.925.54.015-.54s-1.72-1.581-3.086-1.78c-1.367-.2-2.44.427-2.44.427zm5.879 1.55l-.015.385.397.057.22-.157-.602-.285z" fill="#FFC844"/><path d="M7.964 17.236s1.484.356 2.601.826a44.814 44.814 0 012.484 1.168s-1.881-1.353-2.91-1.68c-1.029-.328-2.175-.314-2.175-.314z" fill="#8D7632"/><path d="M5.98 14.813s-1.426.456-1.368 1.553c.06 1.096 1.632 1.88 2.455 2.179.838.299 2.587.769 2.895.854.309.086 1.396.37 1.396.37l-.117.129-4.292-1.282s-2.69-.456-2.69-2.25c.015-1.21 1.72-1.553 1.72-1.553zm3.218-2.618s.308.47 1.117.356c.882-.128 1.058-1.24 1.058-1.24s-.176.542-.867.713c-.456.114-.662-.071-.662-.071s-.088.07-.323.142c-.235.071-.323.1-.323.1zm3.468 2.89s-.44-.983-.955-1.424c-.514-.442-1.323-.869-1.323-.869s0 .014-.102.028c-.103.015-.236 0-.236 0s1.03.627 1.411 1.012c.368.384.72 1.182.72 1.182l.485.071zM7.551 8.12l.191-.114s.618.441 1 1.31c.367.883.279 2.99.279 2.99s-.235-2.32-.53-2.919c-.396-.769-.94-1.267-.94-1.267zm-.146-.157l.206-.142s-.47-.413-.764-.555c-.294-.143-1-.456-1.03-.47a2.426 2.426 0 01-.16-.114s-.221.185-.618.213c-.118.015.162.029.382.015.147 0 .265-.043.265-.043s.837.413 1.072.598c.25.185.647.498.647.498zM4.744 5.428s.133.086.485.071c.353-.014.618-.142.618-.142l-.133-.114S5.656 5.2 5.7 5.101c.044-.1.823-.655.823-.655s.014.17-.088.242l-.544.37s-.044.057-.03.1c.015.042.25.242.265.27.015.029.044.029-.015.057-.073.029-.176.057-.176.1 0 .043.117.228.117.228s-.25.043-.235.114c.015.07.162.213.133.285-.03.057-.5.37-.5.37s.411-.328.397-.399c-.015-.071-.191-.142-.191-.242s.22-.157.22-.157l-.073-.128c-.015-.043-.574.086-1.059-.228z" fill="#FFC844"/><path d="M6.626 4.39l-.015.242s.162-.057.191-.157c.044-.085.044-.2.044-.2l-.22.115z" fill="#8D7632"/><path d="M5.435 4.461c-.058.114.03.456.03.456s.44-.427.632-.541c.19-.114.397-.214.397-.214s-.03-.1-.06-.156c-.029-.057-.073-.129-.073-.129s-.882.47-.926.584zm-.485-.085l-.058.157.294.456.176-.043s-.088-.313-.176-.399a2.91 2.91 0 00-.235-.17z" fill="#FFC844"/><path d="M6.155 3.036s.309.114.53.114c.22 0 .44.014.44.014s-.294.043-.44.043c-.147 0-.53-.17-.53-.17zm.368.398s.19-.085.455-.057c.265.015.5.129.5.129l-.073.057s-.28-.143-.882-.129zm.205.285s.074-.086.236-.1c.161 0 .323.029.323.029s-.103-.086-.323-.086c-.22 0-.236.157-.236.157z" fill="#8D7632"/><path d="M7.14 5.5s.162.17.397.185c.235.014.485-.071.485-.071s-.103-.2.059-.484c.161-.285.367-.356.367-.356s-.03-.442-.118-.542a8.835 8.835 0 00-.543-.413s.529.114.676.3c.147.185.088.712.088.712s-.265.185-.353.37c-.088.185-.117.484.074.64.19.157.308.129.308.129s-.22.057-.353-.014c-.132-.072-.132-.143-.132-.143s-.22.071-.558-.014c-.338-.057-.397-.3-.397-.3zm1.015-1.823c.014.014.161.185.558.142.397-.043.69-.484 1-.399.308.086.396.2.396.2s-.22-.2-.558-.257c-.338-.057-.588.385-.867.385-.294-.014-.53-.071-.53-.071zm.558 1.24s-.088.313.309.427c.396.114.264-.342.558-.584.294-.242.544-.256.544-.256s-.382-.043-.603.128c-.22.157-.264.527-.44.541-.177.015-.368-.085-.368-.256z" fill="#FFC844"/><path d="M8.948 5.13s.206-.826.676-.983c.47-.157 1.44.157 1.44.157s-.793-.442-1.513-.27c-.72.17-.603 1.096-.603 1.096zm.632.23s.206.17.544.17c.338 0 .162-.313.324-.484.162-.17.72.37.72.37s-.397-.555-.647-.54c-.25.014-.205.427-.397.483-.205.029-.543 0-.543 0z" fill="#FFC844"/><path d="M9.888 5.158s.06-.385.324-.427c.264-.043.602.17.602.17s-.367-.27-.661-.227c-.294.042-.265.484-.265.484zm-.352-.868s.353.086.573.029c.206-.057.514-.1.764-.029.25.072.544.456.544.456s-.382-.384-.588-.399c-.206-.028-.735.029-.735.029s-.352.014-.558-.086z" fill="#8D7632"/><path d="M9.037 5.586s0 .27.338.37c.338.1.397-.043.617.086.235.142.265.299.265.299s-.074-.257-.294-.399c-.22-.142-.397 0-.574-.071-.19-.057-.279-.128-.352-.285zm.088.499s-.074.356.19.398c.28.043.339-.113.589 0 .25.114.117.513.117.513s.059-.384-.147-.456c-.191-.07-.382.129-.602.043-.22-.085-.147-.498-.147-.498zm.896-.457s.177.228.426.17c.25-.056.06-.37.206-.384.147-.014.897.798.897.798s-.764-.713-.853-.67c-.088.029.015.37-.22.413-.25.043-.456-.327-.456-.327zm1.381.998s-.117.2-.543.285c-.427.085-.706 0-.706 0s.456.014.72-.072a4.75 4.75 0 00.53-.213z" fill="#FFC844"/><path d="M10.226 5.899s.133.356.456.342c.323-.015.162-.328.338-.3.176.015.75.599.75.599s-.559-.484-.706-.484c-.147 0-.088.313-.367.299-.28-.015-.47-.456-.47-.456z" fill="#FFC844"/><path d="M9.11 6.854s.073.17.22.2c.264.042.308-.058.426.085.118.142.176.313.176.313s-.117-.299-.294-.313c-.176-.014-.25.057-.367-.014-.118-.057-.162-.271-.162-.271z" fill="#8D7632"/><path d="M10.888 3.95s1.411 1.452 2.543 1.466c1.132.014 1.808-.327 1.808-.327s-.706.498-1.837.427c-1.147-.057-2.514-1.567-2.514-1.567z" fill="#FFC844"/><path d="M12.02 5.359s.69.67 1.572.57c.882-.1 1.514-.741 1.514-.741s-.47.826-1.514.826c-.97 0-1.572-.655-1.572-.655z" fill="#FFC844"/><path d="M10.594 4.562s.132.042.235.128c.117.085 1.131 1.396 1.896 1.538.764.143 1.058.086 1.058.086s-.353.17-1.088-.043c-.735-.214-1.646-1.282-1.646-1.282s-.279-.385-.455-.427z" fill="#FFC844"/><path d="M11.241 5.458s.705 1.069 1.573 1.268c.881.2 1.557 0 1.557 0s-.573.3-1.601.071c-1.03-.227-1.53-1.337-1.53-1.337zm.162 1.21l.955.598c-.015 0-.662-.199-.955-.598zm2.88 12.447l.044.327s.235-.156.5-.057c.25.114.984 1.21.984 1.21s-.558-1.423-.955-1.608c-.382-.2-.573.128-.573.128zm9.465 9.159l.147.342.162-.17-.162-.343-.146.171zm.515.341l-.206.185s.632.385.706.627c.073.242-.338.94-.338.94s.646-.712.514-1.125c-.132-.413-.676-.627-.676-.627z" fill="#FFC844"/><path d="M24.262 31.277l.765-1.139-.089.584-.676.555z" fill="#83332E"/><path d="M7.14 4.461l-.058.171.294.456.176-.043s-.088-.313-.176-.399a8.607 8.607 0 00-.235-.185z" fill="#FFC844"/></svg>