<svg xmlns="http://www.w3.org/2000/svg" viewBox="0 0 535.07 405.91"><defs><style>.cls-1{fill:#fcd672}.cls-2{fill:#da1f26}.cls-3{fill:#060507}.cls-4{fill:#998543}.cls-6{fill:#fbcf0b}.cls-7{fill:#897421}.cls-8{fill:#fee461}.cls-9{fill:#8d7632}.cls-10{fill:#f6dfa4}.cls-11{fill:#ffc844}.cls-12{fill:#f4db6c}</style></defs><g id="Слой_2" data-name="Слой 2"><g id="Слой_1-2" data-name="Слой 1"><path class="cls-1" d="M527 315.7c3.79.27 8.63 4.4 8 9.13-.21 1.54-9.22 67.14-9.56 70.45-.75 7.09-8.11 7.7-12.74 7.16s-79.64-9.7-233.35-9.7S20.73 405.59 17.9 405.89s-7.21-2.38-7.66-5.72c-.54-4-9.72-70.41-10.17-75-.73-5.31 4.49-6 6.89-6.15s148.2-12.42 272.34-14.15c65.63-.91 128.26 2.54 174.05 5.53 41.26 2.75 71.29 5.13 73.65 5.3zm1.47 13.64c0-2.81-1.73-6.07-7.29-7.09-.82-.15-99.4-9.57-134.45-10.43s-104.34-2.75-104.34-2.75S158 313.08 95 318.15c-65.22 5.26-80.2 6-83 6.5s-6.58.13-5.75 6.22l9.09 67c.18 1.31 1.18 3.59 5.83 3.12s69.06-7.14 86.68-8.27c20.3-1.31 92.33-5.23 174-5.23s153 3.49 153 3.49 73.65 5 77.22 5.51 8.19 1.34 8.42-4.6c.22-5.28 8-59.74 8-62.55z"/><path class="cls-2" d="M521.2 322.25c5.56 1 7.29 4.28 7.29 7.09s-7.78 57.27-8 62.55c-.23 5.94-4.85 5.14-8.42 4.6S434.86 391 434.86 391s-71.38-3.49-153-3.49-153.68 3.92-174 5.23c-17.62 1.13-82 7.81-86.68 8.27s-5.65-1.81-5.83-3.12l-9.09-67c-.83-6.09 2.95-5.7 5.75-6.22s17.76-1.24 83-6.5c63-5.07 187.44-9.08 187.44-9.08s69.3 1.91 104.34 2.75 133.59 10.26 134.41 10.41z"/><path class="cls-1" d="M121.83 96.2c0 .1-.11.19-.16.28l-1.23 2.08a1.55 1.55 0 00.15 2L137 113.92l-10.78 40.45s-19.07 3.52-20.32 3.73a1.83 1.83 0 00-1.48 1.36v23.39a1.6 1.6 0 001 1.67l20.84 3.27 11.43 41.91s-14.94 11.8-15.92 12.61a1.82 1.82 0 00-.59 1.92l11.74 20.23a1.59 1.59 0 001.66 1l19.69-7.52 25.57 24.4c.07.71.15 1.32.2 1.78l-1.58 4.54-1.92 5.68-1.73-.58-2.73-2.65c.87-2.52 1.72-4.93 2.26-6.52l-21.26-21s-19.11 7.26-20.14 7.64-2.68-1.45-2.68-1.45-15.15-25.17-15.67-26.07.75-3.12.75-3.12l16.38-13.17-9.53-34.92-21.31-3.57c-1.08-.19-2.08-2.09-2.08-2.09s.2-29.79.2-30.84a2.43 2.43 0 011.89-2.56l21.11-3.67 9.16-33.84-17.1-14.16c-.84-.7-.42-2.07-.42-2.07l16.66-28.15c.59-1 2-.46 2-.46l20.08 7.55 25.33-25-7.61-20.78a2.19 2.19 0 011-2.6l27-15a2.48 2.48 0 013 .63l14 16.2 34.19-9.25s3.92-20.68 4.11-21.76A1.4 1.4 0 01254.62 0h32.45c1.41 0 1.53 1 1.53 1l3.81 22.1 29.48 7.9 13.43-17.21a2.25 2.25 0 012.86-.59l27 14.88a2.8 2.8 0 011.12 2.4l-6.7 21.28 27.5 26.54 21-7.65a2.52 2.52 0 012.05.3S425.48 98.72 426 99.62a2 2 0 01-.26 2l-17.2 13.94 9.12 34.32 21.43 3.88a3.62 3.62 0 011.81 1v33c0 1-1.34 1.49-1.34 1.49l-21.93 3.68-9.26 33.93 16.2 14.14a2.79 2.79 0 011.09 2.38s-16 26.63-16.55 27.53A2.22 2.22 0 01408 272l-21.19-8-21.27 21c1.25 3.56 5.05 13.37 6.3 16.93 1.11 3.16 3.13 6.85 3.58 10.18.33 2.37-2.18 3-3.9 4-7.7 4.31-7.5 4.3-15.2 8.62l1.14-7 9.82-5.5c1.84-1 1-3.4 1-3.4l-7.9-22.67.07-.6.4-3.25 24.78-24.44 19.31 7.32a1.83 1.83 0 002-.42s11.17-19 11.88-20.15a1.61 1.61 0 000-1.92l-16.33-13.72 11-40.78 20.5-3.33a1.82 1.82 0 001.49-1.35l.16-23.39a1.59 1.59 0 00-.94-1.67l-21.15-3.67-11-41.08 16.15-13.16a1.8 1.8 0 00.6-1.91l-11.6-20.3a1.58 1.58 0 00-1.65-1l-20.32 7.35-32.12-31.42 6.48-20.57a1.82 1.82 0 00.09-.48 1.52 1.52 0 00-1-1.47L340 20.16l-.41-.22-.21-.12-.16-.09a1.53 1.53 0 00-2 .25l-13.4 16.91-36.29-9.32s0-.25-.1-.67c-.55-3.5-3.07-19.55-3.26-20.66s-1.6-1-1.6-1h-23.13a1.59 1.59 0 00-1.67.94l-3.93 20.94-40.67 11s-12.56-15-13.36-16a1.82 1.82 0 00-1.91-.62L177.57 33a1.61 1.61 0 00-1 1.66L184 54.73l-30.15 30-19.44-7.19a1.52 1.52 0 00-1.78.32s-7.58 12.88-10.8 18.34z"/><path class="cls-3" d="M121.67 96.48c0-.09.11-.18.16-.28 3.22-5.46 10.83-18.3 10.83-18.3a1.52 1.52 0 011.78-.32l19.44 7.19 30.15-30-7.44-20.08a1.61 1.61 0 011-1.66l20.31-11.62a1.82 1.82 0 011.91.62c.8 1 13.36 16 13.36 16l40.67-11 3.93-20.94a1.59 1.59 0 011.67-.94h23.13s1.4-.17 1.6 1 2.71 17.16 3.26 20.66c.06.42.1.67.1.67l36.37 9.36L337.2 20a1.53 1.53 0 012-.25l.16.09.21.12.41.22 19.67 11.05a1.87 1.87 0 01.56 1 1.82 1.82 0 01-.09.48l-6.48 20.57 32.16 31.34 20.32-7.35a1.58 1.58 0 011.65 1l11.6 20.3a1.8 1.8 0 01-.6 1.91l-16.15 13.16 11 41.08 21.15 3.67a1.59 1.59 0 01.94 1.67c0 1.38-.16 23.39-.16 23.39a1.82 1.82 0 01-1.49 1.35l-20.5 3.33-11 40.78 16.33 13.72a1.61 1.61 0 010 1.92c-.71 1.19-11.88 20.15-11.88 20.15a1.83 1.83 0 01-2 .42l-19.31-7.32-24.78 24.44c.46-3.74 1.14-9.28 1.16-10.14 0-1.24.26-5.38-7.81-8.63a46.1 46.1 0 00-15-3.32c26.99-20.66 43.73-52.61 43.73-89.28a113 113 0 10-181.34 89.86 48.31 48.31 0 00-15.2 3.42c-8.08 3.24-7.46 8.82-7.43 10.06 0 .89.51 5.23.84 8.09l-25.57-24.4-19.69 7.52a1.59 1.59 0 01-1.66-1l-11.74-20.23a1.82 1.82 0 01.59-1.92c1-.81 15.92-12.61 15.92-12.61l-11.43-41.91-20.84-3.27a1.6 1.6 0 01-1-1.67v-23.35a1.83 1.83 0 011.48-1.36c1.25-.21 20.32-3.73 20.32-3.73L137 113.92l-16.44-13.39a1.55 1.55 0 01-.15-2z"/><path class="cls-1" d="M383 170.87c0 36.67-16.7 68.62-43.78 89.25a412.68 412.68 0 00-56.9-7 405.13 405.13 0 0149.9 5.62c24.71-16.64 45.53-50.28 45.53-87.84a107.71 107.71 0 00-215.41 0c0 37.37 19.5 70.42 46.06 88.28-4.31.93-6.74 1.58-6.74 1.58A112.94 112.94 0 11383 170.87z"/><path class="cls-3" d="M359.32 295.84l1-9.78 7.9 22.67s.83 2.36-1 3.4l-9.82 5.5-1.14 7 1.14-10.82z"/><path class="cls-2" d="M377.71 170.87c0 37.56-20.82 71.2-45.53 87.84a405.13 405.13 0 00-49.9-5.62L281 253l-2.69-.11h-.57c-1.1 0-2.2-.07-3.32-.09l-3.41-.07h-12.42l-1.75.07c-.66 0-1.32.06-2 .09a295 295 0 00-46.47 6.11c-26.56-17.86-46.06-50.91-46.06-88.28a107.71 107.71 0 01215.41 0z"/><path class="cls-4" d="M360.75 282.28l.07-.07-.4 3.25z"/><path class="cls-4" d="M360.75 282.28l-.33 3.18-.07.6-.42-1.22.82-2.56z"/><path d="M359.16 30.75a1.52 1.52 0 011 1.47 1.87 1.87 0 00-.56-1L340 20.16zm-19.83-10.93l.21.12z" fill="#24272a"/><path class="cls-4" d="M337.2 19.98l-13.3 16.95-36.37-9.36 36.29 9.32 13.38-16.91zM281 253l-2.69-.11z"/><path class="cls-1" d="M183.86 324.28c-5-2.73-14.21-8-17-9.56-1.76-.94-2.57-1.25-1.88-3.32 1.26-3.73 4.28-12.28 5-14.41.62-1.79 1.35-3.89 2.07-5.92l2.73 2.65 1.73.58-5.27 15.61c-.25.7.4 1.52 1.22 2 3.25 1.81 9.57 5.36 11.09 6.22l.34.18.92 6.52z"/><path class="cls-3" d="M180 284.08l3.85 34-.32.1c-1.52-.86-7.84-4.41-11.09-6.22-.82-.47-1.47-1.29-1.22-2l5.27-15.61 1.92-5.68z"/><path class="cls-6" d="M180.44 282.89L180 284c-.05-.46-.13-1.07-.2-1.78z"/><path class="cls-7" d="M292.81 132.84s5.27 5.58 7.37 10.35 1.85 11 1.85 11l2.62 7.32S317 175.24 319.22 180c2 4.31 11.48 15.53 18.51 21 5.94 4.58 20.39 27.8 21.92 29.43s6.88 4.48 7.38 7.09-5.41 9.55-7.32 12.27-4.52 10.91-8 13.14-8.85 1-9.36-.5 1.85-3.13 3.57-5.42a10.11 10.11 0 001.59-5.67 2.79 2.79 0 01-1.26-1.55c-.37-1.09.56-6.18.56-6.18s-3.44 5.47-5 7.64-3.25 7.79-5.55 10.59-9.85 2-10.68.43 1.46-4 3.24-5.52 1.75-6.12 1.75-6.12a3.05 3.05 0 01-1.11-2.1 2.31 2.31 0 011.11-1.84 4.21 4.21 0 01-.79-1.85 3.2 3.2 0 01.79-1.65s-.66-.32-.66-1.65.82-2.11.63-2.49.13-1.79 0-3.5a14.74 14.74 0 00-1.05-3.89s-11.17-10.15-20.34-18.42S280 190.42 280 190.42s-.59 3.34-3.43 3.3-9.89-6.88-9.89-6.88a2 2 0 01-1.64-.38 2.85 2.85 0 01-1.1-1.67l-1.76-.43a6 6 0 01-1.24-1.39 4.52 4.52 0 01-2-.51 3.12 3.12 0 01-.85-1.54s-2.1-1.48-3.48-2.73a34.11 34.11 0 00-4.5-3s-30.3-10.49-35.12-11.77-23.6-4.48-23.6-17.76c0-14.23 26.93-11.94 26.93-11.94l25.68 1.95a44.67 44.67 0 00-13-14.38c-8.53-5.85-10.08-8.34-10.2-11.27 0 0 1.16-12.21-4.18-19.29s-15.19-11.8-15.19-11.8-2.46-1.13-2.15-2.46 1.64-1.44 1.84-2.15-1-2.36-.63-2.74a1.93 1.93 0 011.08-.42s-.46-1-.16-1.39 1.66-.65 1.55-1.08-2.39-1.42-1.89-2.42 5.85-2.81 6.46-4-.07-1.93.2-2.59 5.85-5.15 5.85-5.15a4.17 4.17 0 013.42-3.65c3.34-.89 13.66 3.53 13.66 3.53a14 14 0 0110-2.27C246.51 53 256 62.76 265 64.87a62.43 62.43 0 0016.77 1.54 5.56 5.56 0 01-.66 3.49 10.59 10.59 0 01-2.47 2.36 4 4 0 01.52 3 7.76 7.76 0 01-1.8 2.72 1.85 1.85 0 01.46 2.35c-.71 1.49-1.58 6.63-7.85 6.93a15.7 15.7 0 01-5.23-.69c-3.66-1.09-6.81-3-10.62-3-5.49.1-7.29 1.9-7.29 1.9s1.17 1.62 4.25 1.53 5.54-1.7 11.24-.16c.71.19 1.42.4 2.12.63a81.27 81.27 0 019.37 3.69 54.1 54.1 0 0111.45 1.28c4.82 1.27 7 2.56 8.67 2.67s11.59-.11 14 .45 19.15 4.88 22.17 4.72 13.65-1.28 16.9-.82 7 2.15 7.85 2.15 1.39 0 1.44.31-1.34 1.69-2.82 1.64a9.45 9.45 0 01-2.31-.31 8.67 8.67 0 01-2.2 0 9.41 9.41 0 01-1.75-.66 4.55 4.55 0 01-2 .71 10.57 10.57 0 00-2.25.31s5.8.41 5.95 2.21-2.51.72-4.05.77-5.24 1.13-7.09.72-5.33-1.85-6.46-1.74-18.93 1.77-24 1.83-16.62-2.51-16.62-2.51-4.31.16-7.91.32a63.48 63.48 0 01-8.72-.52s6.26 15.44 13.72 19.75c5.58 3.23 6.6 3.39 6.77 3.27a11.65 11.65 0 01-.69 3.28 6.71 6.71 0 01-1.05 1.85zM275.16 83a20.36 20.36 0 01-8 .3c-3.57-.7-11.06-5-13.78-5s-7.09 1.36-7.36 1.45a14 14 0 012-1.15 12 12 0 015.83-1.37c2.35.15 6.19 2 9.45 3.37 2.22 1 4.16 1.8 5.17 1.8 8.42 0 8.09-3.82 8.09-3.82l-11.42.74s9.17-1.93 10.53-2.77c2.86-1.79 1.52-3.32 1.52-3.32a15.6 15.6 0 01-12 2.42c-6.79-1.56-12.9-10.23-15.12-11.36s-6.35-1.38-6.35-1.38 5-.66 7 .35 10.91 12 17.83 11.61c8.79-.52 11.57-7.06 11.57-7.06s-14.12 1.52-20.87-2.69-13.92-11.07-19.8-11.5a11.43 11.43 0 00-9.37 4.17s3.81.26 5.2 3.49-.55 6.6 1.63 8.28 3.56-.76 6.75 1.16 3.41 6.06 3.41 6.06-2.18-3.49-4.43-4.57c-1.83-.9-4-.5-5.58-1.29a3 3 0 01-.95-.75 4.37 4.37 0 01-1.31-3.08s-2.54 1.41-2.28 3.81a3.94 3.94 0 00.63 1.79 3.66 3.66 0 001.58 1.31 3.3 3.3 0 01-3-3.23c-.1-3 2.91-4.76 2.91-4.76s.47-3.92-.73-5.18-5.19-2.19-5.19-2.19-4.21 3-4 3.52a3 3 0 01-.18 2.26c-.44 1-6.61 2.94-6.39 3.88.11.47 1.41 1.42 1.41 1.42a1.24 1.24 0 011.17.25c.47.47 0 1.24 0 1.24s0-.73-.36-.8-.55-.07-.55.32-1.2.48-1.23 1.06 1.3 1.77 1.3 1.77-2.14-.07-2.36.48.8.76.83 1.74-1.95 1.16-1.59 2.4 4.83 2.43 8 2.28a14.24 14.24 0 006-1.92 8 8 0 01-2.54 2.14c-1.16.44-6.67.4-6.67.4a30.08 30.08 0 0112.93 10.75c5.11 7.76 4.75 13.75 4.75 13.75s2.4-.29 2.5-3.37-.54-9.11 0-11 3.1-5 3.1-5a12.25 12.25 0 01-6.01-3.21 16 16 0 01-3.16-6.33l-2.14.8s-1.65.76-2.2.18.52-2 .52-2-.2 1.45.3 1.53 4.43-1.09 4.87-3-.58-2.47-1.24-2.43-1.05.83-1.05.83a1.26 1.26 0 01.91-1.38 1.51 1.51 0 011.2 0 2.65 2.65 0 011.16 2.31 2.44 2.44 0 01-1.33 2.66s.94 4.54 3.66 6.49c2 1.43 3.88 1.82 5.11 2.53a7.91 7.91 0 012.06-2.2c1.48-1.11 6.27-1.71 10.19-.78 4.23 1 9.23 3.22 12.36 3.37a6.52 6.52 0 005.11-2.58zM252 88.21a4.92 4.92 0 01-3.6.23l-2.4-.57s-3.06 2-3 4.22 1 9.66-.13 12.59-3.37 2.8-3.37 2.8a23 23 0 010 5.13c-.32 3-.45 5-.45 5a7.85 7.85 0 006.25 2.68c7.16-.09 8.55-9.07 8.55-9.07s.18 4.24-1.48 6.78a10.4 10.4 0 01-3.64 3.19s6.3 2.53 10 6.8a43 43 0 016.06 9.78s13.87 2.07 20-1.08 6.88-7.56 6.88-7.56-7.07-1.27-13.69-11.52-3.69-13.12-10.32-14.7c-6.43-1.55-10.52 3.95-10.74 4.24.19-.36 3.24-6.1 7.44-6.28a32.6 32.6 0 017.77.57l.06-9s-6.94-4.24-12.48-4.49c-5.37-.26-12.83 4.47-13.28 4.76zm106.68 159.14c1.6-2.26 5.51-7.78 4.92-9.93s-4.59-4.37-4.59-4.37a13.46 13.46 0 01-2.58 2.13c-1.32.78-2.29.74-2.26 1.12s.14 3.38.14 3.38a3.45 3.45 0 011.12 2.26 2.15 2.15 0 01-.83 1.79 2.53 2.53 0 01.57 2 2.21 2.21 0 01-.91 1.62 3.43 3.43 0 01.49 2 2.22 2.22 0 01-1.34 1.58l-4.22-.18a10.24 10.24 0 01-.82 5.29c-1.45 2.82-4.5 5.21-4 5.77.89 1.05 6.36.56 7.87-1.76s4.84-10.43 6.44-12.7zm-1.05-15.47l-1.14-2.39a6.48 6.48 0 01-3.8 2.68c-2.3.39-5.8-.83-5.8-.83s3 5.79 2.62 7.14 3.33 1.39 3.31.16-.8-3.57 0-3.84a8.17 8.17 0 003.3-1.4c.95-.89 1.51-1.52 1.51-1.52zm-5.78-1.49c3.82-.46 3.25-3.44 3.25-3.44s-15.3-21.32-17.11-23-10-8.49-10-8.49l-.12 6.32s-9-18.44-11.55-22.59-12.52-15.71-12.52-15.71l-21.39 3.92s3.25 7.54 4.11 9.52 3.44 3.28 5.92 5.58a19.63 19.63 0 014 5.91s24.07 19.86 27.89 23.11 19.95 17.84 19.95 17.84a17 17 0 007.57 1.03zm2.25 11.74a.89.89 0 00-.83-.95l-3.56-.22h-.07a.89.89 0 000 1.77l3.56.23a.89.89 0 00.9-.83zm-.1 3.43a.9.9 0 00-.84-.95l-3.55-.23h-.05a.89.89 0 00-.06 1.78l3.55.23h.05a.9.9 0 00.9-.83zm-.29 3.52a.9.9 0 00-.84-1l-3.56-.23h-.05a.9.9 0 00-.89.84.89.89 0 00.83.94l3.56.23h.05a.9.9 0 00.9-.78zM351.31 102c.76-.38-5-1.78-5-1.78s-13.37 2-16.23 1.66-21.62-5.29-24.08-5.29-10.63 1.09-13.56.38-6.43-3-10.44-3.75a52.08 52.08 0 00-7.89-.7v8.91a15.11 15.11 0 008.78 2c5.22-.38 15.41-.71 15.41-.71l-5.18 1.28s11.4 2 16.23 1.62 18.2-1.57 21.08-1.57c3.61 0 7.07 2.49 8.46 2.36s4.84-.94 5.41-.79 1.91.48 1.91 0-8.33-1-8.33-1 4.32-2.23 5.66-2.42 3.7-.82 3.7-.82 3.3 1 4.07.62zm-10.06 145.19c1.59-2.26 5.51-7.77 4.92-9.93s-4.59-4.37-4.59-4.37A14.11 14.11 0 01339 235c-1.32.78-2.29.74-2.25 1.12s.14 3.39.14 3.39a3.41 3.41 0 011.12 2.25 2.18 2.18 0 01-.83 1.79 2.57 2.57 0 01.57 2 2.24 2.24 0 01-.92 1.63 3.35 3.35 0 01.5 2 2.18 2.18 0 01-1.34 1.58l-4.22-.18a10.18 10.18 0 01-.83 5.29c-1.44 2.82-4.49 5.21-4 5.78.9 1 6.37.55 7.88-1.77s4.84-10.42 6.43-12.69zm-1.05-15.47l-1.15-2.4a6.48 6.48 0 01-3.79 2.69 5.91 5.91 0 01-3.39-.16s.58 5.12.22 6.47 3.32 1.39 3.3.16-.8-3.57 0-3.84a8.06 8.06 0 003.3-1.4c.95-.89 1.51-1.52 1.51-1.52zm-5.2-1.52a6.15 6.15 0 003.72-3.16s-22.34-19.57-28.26-24.54-15.95-11.75-15.95-11.75-.38 1.48-2.58 1.65-10-6.62-10-6.62-2.25-.33-2.71-.95a5.74 5.74 0 01-.72-1.72 1.67 1.67 0 01-1.29-.23 3.66 3.66 0 00-1.65-.42 18.35 18.35 0 002.94 3.32 3.82 3.82 0 011.42 2.87s25.15 18.91 27.44 21.11 22.06 19.56 22.06 19.56 2.95 1.68 5.58.88zm1.67 11.8a.9.9 0 00-.83-.95l-3.56-.22h-.06a.89.89 0 00-.06 1.78l3.56.22h.06a.89.89 0 00.89-.83zm-.1 3.43a.9.9 0 00-.84-1l-3.55-.23h-.05a.89.89 0 00-.07 1.78l3.56.23h.06a.9.9 0 00.89-.81zm-.3 3.52a.89.89 0 00-.83-.95l-3.56-.22h-.05a.89.89 0 00-.06 1.78l3.56.22h.05a.89.89 0 00.89-.86zm-33.22-87l-2.39-5.82c-.67 3.34-5.82 7.35-5.82 7.35zM299.42 151c0-10.13-8.2-16.32-8.2-16.32a17.65 17.65 0 01-9.13 6c-5.79 1.43-16.29.12-16.29.12l3.58 8.41 8.37 2.77-7.45 3.63-.29 8.31 2.61.38s2.51-2.39 4.67-1.81a6.85 6.85 0 013.51 2.61s18.62-.9 18.62-14.1zm-7.67 39.72c1.37-.13 2-1.75.95-4.33-.73-1.85-4.41-4.74-6.77-7.19a8.35 8.35 0 01-1.91-2.58c-.93-2.61-4.36-10.58-6.47-11.35a4.11 4.11 0 00-3.88.88 13.94 13.94 0 01.26 3.34c-.13 1.53-.74 2.29-.4 2.48s2.85 1.85 2.85 1.85a3.42 3.42 0 012.48.38 2.19 2.19 0 011 1.72 2.52 2.52 0 012 .7 2.18 2.18 0 01.79 1.69 3.37 3.37 0 011.94.76 1.21 1.21 0 01.16.16 2.29 2.29 0 01.35 1.85l-2.57 3.34s7.85 6.46 9.22 6.33zm-7.93-9.72a.88.88 0 00.2-.57.91.91 0 00-.33-.69.89.89 0 00-1.25.13l-2.24 2.78a.84.84 0 00-.2.56.89.89 0 001.58.56zm-2.71-2.28a.88.88 0 00.2-.57.85.85 0 00-.33-.68.88.88 0 00-1.25.13l-2.24 2.77a.89.89 0 00-.2.56.87.87 0 00.33.69.89.89 0 001.26-.13zm-2.73-2.06a.94.94 0 00.2-.57.89.89 0 00-1.58-.56l-2.25 2.78a.88.88 0 00-.19.56.89.89 0 001.58.55zm-1.27 15.71c1.37-.13 2-1.75 1-4.33s-7.76-7.16-8.69-9.77c-.18-.52-.47-1.25-.82-2.09-1.33-.68-2.66-1.39-4-2-1.78-.76-3.7-1-5.48-1.72-.21.88-.4 1-.15 1.14s2.85 1.85 2.85 1.85a3.36 3.36 0 012.48.38 2.19 2.19 0 011 1.72 2.51 2.51 0 012 .7 2.17 2.17 0 01.7 1.75 3.37 3.37 0 011.94.76 2.16 2.16 0 01.52 2l-2.58 3.35s7.86 6.41 9.23 6.29zm-4.49-15.34c.89 1.09 3.06-1.91 2-2.6s-3.38-1.41-3.13-2.23a8.11 8.11 0 00.77-3.5c-.19-1.28-.38-2.1-.38-2.1l-2.61-.45a6.49 6.49 0 010 4.65 5.94 5.94 0 01-2.1 2.67s4.56 2.53 5.45 3.59zm-4.84-22.32l4.84-2.13-5.22-1.52-4.58-10.7s-28.53-4.07-40.49-3.69-12.1 9.93-12.1 9.93c0 7.07 10.2 13.69 24.44 17.57S266 172.8 266 172.8a6.2 6.2 0 002.29-3.06 10.19 10.19 0 000-3.63 37.27 37.27 0 01-7-3.56c-2.93-2-10.06-8.91-15.92-10.7s-15.91-1.53-15.91-1.53 11.58-1.92 17-.52 14.87 10.48 16.48 11.27c2 1 4.53 2.5 4.53 2.5zm1.4 27.93a.84.84 0 00.2-.56.87.87 0 00-.33-.69.89.89 0 00-1.25.13l-2.24 2.78a.85.85 0 00-.2.55.93.93 0 00.33.7.89.89 0 001.25-.14zm-2.7-2.28a.89.89 0 00.2-.56.93.93 0 00-.33-.69.9.9 0 00-1.26.14l-2.24 2.77a.88.88 0 00-.19.56.84.84 0 00.33.69.89.89 0 001.25-.13zm-2.74-2.06a.91.91 0 00.2-.56.87.87 0 00-.33-.69.89.89 0 00-1.25.13l-2.25 2.82a.88.88 0 00-.19.56.9.9 0 00.33.7.88.88 0 001.25-.14zM247.22 136l15.42 1.76s-4.28-8.89-8.77-11.75-6.71-4.21-6.71-4.21-2.1.9-5.23-.63a11.68 11.68 0 01-4.06-2.8s.17-17-2.24-21.72c-3.37-6.61-6.43-8.46-6.43-8.46a3.16 3.16 0 00-2.23 3c0 2.36 1.47 8.53.32 11.78a21.69 21.69 0 01-4.22 6.44 10.6 10.6 0 004 6.16c5.5 4.27 8.79 6.43 12.55 10s7.6 10.43 7.6 10.43zM258 178.71c.9 1.09 3.06-1.91 2-2.61s-3.38-1.4-3.12-2.22c.13-.43.38-1 .57-1.66-.83-.26-1.29-.53-2.12-.75a37 37 0 01-2.78 3.28s4.54 2.88 5.45 3.96zm-6.88-4.48l2.77-3.43-17.76-4.88s-28.51-6.57-28.18-19.48c-.09-7.83 9.27-10.4 9.27-10.4S194 132.8 194 146.36c0 11.75 13.3 12.66 25 16.74 10.69 3.75 32.1 11.13 32.1 11.13zM227.55 56.61l.83-1.27s-4.88-3.81-9.13-3.52-4.92 2.1-4.23 2.9c.51.59 1.42-.76 3.67-.73a6.17 6.17 0 013.61 1.2 7 7 0 00-3.21-.59c-1.27.23-1.53.75-1.13 1s.84.08 1.17.38-.15.93.46.9.29-.87 2.73-.87 3.19.87 3.19.87-2.61-.61-3.23-.36S221 56.9 221 58s.42 1.09.63 2.25a24.9 24.9 0 01-.07 4.31s1.8-.71 1.62-2.26c-.13-1.2-.27-1.43.27-2.08.32-.39 1.7-1.57 2.76-2.47.79-.66 1.34-1.14 1.34-1.14zm.6 30.3a43.72 43.72 0 00-3.71-3.21c-1.58-1.21-5.31-2.65-7.54-3.72a6.13 6.13 0 01-1.76-1.21 8.59 8.59 0 01-3 1.33c-1.79.4-6.48-.51-6.48-.51s7.58 4.39 12.08 10 4.26 16.41 4.78 16.49 3.15-3.54 3.37-4.8c.36-2.1-.15-6.83-.34-9.68s2.6-4.69 2.6-4.69zm-7.34-22.81c.67-1.35-.2-5.17-2.57-6.43a10 10 0 00-4.45-1.22s-5 3.49-4.89 4.08.29 2.32-.29 2.85-6.49 2.42-6.29 3.24 1.4 1.6 1.4 1.6 1 0 1.16.24 0 1.36 0 1.36a3 3 0 00-.43-.92c-.19-.15-1.7 1.35-1.7 1.35l1 2.12c-.14 0-1.69-.6-1.73-.19s.48.88.63 1.32a2.16 2.16 0 01-.34 1.83c-.44.44-1.22 0-1.41 1-.32 1.82 8.23 3.1 10.55 2.56a11.4 11.4 0 004.46-2.56c.43-.29 1-.48 1-1.21s-.87-.92-.73-1.7 1.65-.77 1.65-.77-1.11-1.07-.82-1.55 1.11-.48 1.4-.92-2-1.59-1.84-2.37 3.56-2.35 4.24-3.71z"/><path class="cls-1" d="M363.6 237.42c.59 2.15-3.32 7.67-4.92 9.93s-4.93 10.43-6.45 12.75-7 2.81-7.87 1.76c-.49-.56 2.56-2.95 4-5.77a10.24 10.24 0 00.82-5.29l4.22.18a2.22 2.22 0 001.34-1.58 3.43 3.43 0 00-.49-2 2.21 2.21 0 00.91-1.62 2.53 2.53 0 00-.57-2 2.15 2.15 0 00.83-1.79 3.45 3.45 0 00-1.12-2.26s-.11-3-.14-3.38.94-.34 2.26-1.12a13.46 13.46 0 002.58-2.13s4 2.16 4.6 4.32z"/><path class="cls-1" d="M356.49 229.49l1.14 2.39s-.56.63-1.49 1.52a8.17 8.17 0 01-3.3 1.4c-.82.27 0 2.6 0 3.84s-3.67 1.2-3.31-.16-2.62-7.14-2.62-7.14 3.5 1.22 5.8.83a6.48 6.48 0 003.78-2.68z"/><path class="cls-1" d="M355.1 227s.57 3-3.25 3.44a17 17 0 01-7.55-1.07s-16.13-14.59-19.95-17.84-27.89-23.11-27.89-23.11a19.63 19.63 0 00-4-5.91c-2.48-2.3-5.06-3.6-5.92-5.58s-4.11-9.52-4.11-9.52l21.39-3.92s9.93 11.57 12.52 15.71 11.55 22.59 11.55 22.59l.12-6.32s8.19 6.77 10 8.49S355.1 227 355.1 227zm-1.83 14.18a.89.89 0 01-.06 1.78l-3.56-.23a.89.89 0 010-1.77h.07zm-.11 3.43a.89.89 0 01-.06 1.78h-.05l-3.55-.23a.89.89 0 01.06-1.78h.05z"/><path class="cls-6" d="M352.87 248.13a.89.89 0 01-.06 1.78h-.05l-3.56-.23a.89.89 0 01-.83-.94.9.9 0 01.89-.84h.05z"/><path class="cls-1" d="M346.34 100.22s5.73 1.4 5 1.78-4.07-.69-4.07-.69-2.36.63-3.7.82-5.66 2.42-5.66 2.42 8.33.58 8.33 1-1.33.16-1.91 0-4 .67-5.41.79S334 104 330.43 104c-2.88 0-16.24 1.22-21.08 1.57S293.12 104 293.12 104l5.22-1.28s-10.19.33-15.41.71a15.11 15.11 0 01-8.78-2v-8.91a52.08 52.08 0 017.89.7c4 .7 7.52 3 10.44 3.75s11.14-.38 13.56-.38 21.2 5 24.07 5.29 16.23-1.66 16.23-1.66zm-.17 137.04c.59 2.16-3.33 7.67-4.92 9.93s-4.93 10.42-6.45 12.75-7 2.81-7.88 1.77c-.48-.57 2.57-3 4-5.78a10.18 10.18 0 00.83-5.29l4.22.18a2.18 2.18 0 001.34-1.58 3.35 3.35 0 00-.5-2 2.24 2.24 0 00.92-1.63 2.57 2.57 0 00-.57-2 2.18 2.18 0 00.83-1.79 3.41 3.41 0 00-1.12-2.25s-.1-3-.14-3.39.93-.34 2.25-1.12a14.11 14.11 0 002.59-2.13s4.01 2.17 4.6 4.33z"/><path class="cls-8" d="M339.05 229.32l1.15 2.4s-.56.63-1.5 1.52a8.06 8.06 0 01-3.3 1.4c-.81.27 0 2.6 0 3.84s-3.68 1.2-3.3-.16-.22-6.47-.22-6.47a5.91 5.91 0 003.39.16 6.48 6.48 0 003.78-2.69z"/><path class="cls-1" d="M338.76 227a6.15 6.15 0 01-3.76 3.2c-2.67.76-5.54-.88-5.54-.88s-19.73-17.32-22.02-19.56S280 188.65 280 188.65a3.82 3.82 0 00-1.42-2.87 18.35 18.35 0 01-2.94-3.32 3.66 3.66 0 011.65.42 1.67 1.67 0 001.29.23 5.74 5.74 0 00.72 1.72c.46.62 2.71.95 2.71.95s7.77 6.79 10 6.62 2.58-1.65 2.58-1.65 10 6.79 15.95 11.75 28.22 24.5 28.22 24.5zm-2.92 14a.89.89 0 01-.06 1.78h-.06l-3.56-.22a.89.89 0 01.06-1.78h.06zm-.11 3.45a.89.89 0 01-.05 1.78h-.06l-3.56-.23a.89.89 0 01.07-1.78h.05z"/><path class="cls-6" d="M335.44 248a.89.89 0 01-.06 1.78h-.05l-3.56-.22a.89.89 0 01.06-1.78h.05z"/><path class="cls-9" d="M300.66 156.09l2.39 5.82-8.21 1.53s5.16-4.01 5.82-7.35z"/><path class="cls-1" d="M291.22 134.71s8.2 6.19 8.2 16.32c0 13.17-18.62 14.07-18.62 14.07a6.85 6.85 0 00-3.51-2.61c-2.16-.58-4.67 1.81-4.67 1.81l-2.61-.38.29-8.31 7.45-3.63-8.37-2.77-3.58-8.41s10.5 1.31 16.29-.12a17.65 17.65 0 009.13-5.97zm1.48 51.71c1 2.58.42 4.2-.95 4.33s-9.26-6.3-9.26-6.3l2.57-3.34a2.29 2.29 0 00-.35-1.85h1.22c2.36 2.42 6.07 5.31 6.77 7.16z"/><path class="cls-1" d="M246.48 92.7c.45-.29 7.91-5 13.28-4.76 5.54.25 12.48 4.49 12.48 4.49l-.06 9a32.6 32.6 0 00-7.77-.57c-4.2.18-7.25 5.92-7.44 6.28.22-.29 4.31-5.79 10.74-4.24 6.63 1.58 3.7 4.45 10.32 14.7s13.69 11.52 13.69 11.52-.7 4.4-6.88 7.56-20 1.08-20 1.08a43 43 0 00-6.06-9.78c-3.69-4.27-10-6.8-10-6.8a10.4 10.4 0 003.64-3.19c1.66-2.54 1.48-6.78 1.48-6.78s-1.39 9-8.55 9.07a7.85 7.85 0 01-6.25-2.68s.13-2 .45-5a23 23 0 000-5.13s2.22.13 3.37-2.8.19-10.38.13-12.59 3-4.22 3-4.22l2.41.57a4.92 4.92 0 003.6-.23zm39.45 86.53h-1.22a1.21 1.21 0 00-.16-.16 3.37 3.37 0 00-1.94-.76 2.18 2.18 0 00-.79-1.69 2.52 2.52 0 00-2-.7 2.19 2.19 0 00-1-1.72 3.42 3.42 0 00-2.48-.38s-2.52-1.65-2.85-1.85.27-.95.4-2.48a13.94 13.94 0 00-.26-3.34 4.11 4.11 0 013.88-.88c2.11.77 5.54 8.74 6.47 11.35a8.35 8.35 0 001.95 2.61zm-1.93 1.23a.88.88 0 01-.2.57l-2.24 2.77a.89.89 0 01-1.58-.56.84.84 0 01.2-.56l2.24-2.78a.89.89 0 011.25-.13.91.91 0 01.33.69zm-2.69-2.28a.88.88 0 01-.2.57l-2.23 2.77a.89.89 0 01-1.26.13.87.87 0 01-.33-.69.89.89 0 01.2-.56l2.24-2.77a.88.88 0 011.25-.13.85.85 0 01.33.68zm-2.73-2.06a.94.94 0 01-.2.57l-2.24 2.76a.89.89 0 01-1.39-1.11l2.25-2.78a.89.89 0 011.58.56zm-.51 11.95c1 2.58.41 4.2-1 4.33s-9.26-6.3-9.26-6.3l2.58-3.35a2.16 2.16 0 00-.52-2A3.37 3.37 0 00268 180a2.17 2.17 0 00-.79-1.69 2.51 2.51 0 00-2-.7 2.19 2.19 0 00-1-1.72 3.36 3.36 0 00-2.48-.38s-2.52-1.65-2.85-1.85-.06-.26.15-1.14c1.78.72 3.7 1 5.48 1.72 1.38.59 2.71 1.3 4 2 .35.84.64 1.57.82 2.09.98 2.58 7.72 7.17 8.74 9.74zm2.06-120.33s-2.78 6.54-11.57 7.06c-6.92.39-15.8-10.59-17.83-11.61s-7-.35-7-.35 4.14.25 6.35 1.38 8.33 9.8 15.12 11.36a15.6 15.6 0 0012-2.42s1.34 1.53-1.52 3.32c-1.36.84-10.53 2.77-10.53 2.77l-1.84 1.28c-3.26-1.42-7.1-3.22-9.45-3.37a12 12 0 00-5.86 1.37l-1-1.75s-.2-4.13-3.41-6.06-4.57.51-6.75-1.16-.26-5-1.63-8.28-5.2-3.49-5.2-3.49a11.43 11.43 0 019.37-4.17c5.88.43 13.05 7.28 19.8 11.5s20.95 2.62 20.95 2.62z"/><path class="cls-1" d="M276.57 78.51s.33 3.82-8.09 3.82c-1 0-3-.81-5.17-1.8l1.84-1.28zm-1.91 95.95c1 .69-1.15 3.69-2 2.6s-5.41-3.56-5.41-3.56a5.94 5.94 0 002.1-2.67 6.49 6.49 0 000-4.65l2.61.45s.19.82.38 2.1a8.11 8.11 0 01-.77 3.5c-.29.82 2.07 1.52 3.09 2.23z"/><path class="cls-1" d="M272.62 152.61l-4.84 2.13-.26 8.83s-2.52-1.5-4.53-2.5c-1.61-.79-11-9.87-16.48-11.27s-17 .52-17 .52 10.06-.25 15.91 1.53 13 8.66 15.92 10.7a37.27 37.27 0 007 3.56 10.19 10.19 0 010 3.63 6.2 6.2 0 01-2.34 3.06s-17.09-4.72-31.33-8.6-24.44-10.5-24.44-17.57c0 0 .13-9.55 12.1-9.93s40.49 3.69 40.49 3.69l4.58 10.7zm-26.55-72.93c.27-.09 4.72-1.52 7.36-1.45s10.21 4.35 13.78 5a20.36 20.36 0 008-.3 6.52 6.52 0 01-5.08 2.6c-3.13-.15-8.13-2.39-12.36-3.37-3.92-.93-8.71-.33-10.19.78a7.91 7.91 0 00-2.06 2.2c-1.23-.71-3.13-1.1-5.11-2.53-2.72-2-3.66-6.49-3.66-6.49a2.44 2.44 0 001.25-2.61 2.65 2.65 0 00-1.19-2.22l.22-.37c1.56.79 3.75.39 5.58 1.29 2.25 1.08 4.43 4.57 4.43 4.57l1 1.75a14 14 0 00-1.97 1.15zm23.31 102.43a.84.84 0 01-.2.56l-2.24 2.77a.89.89 0 01-1.25.14.93.93 0 01-.33-.7.85.85 0 01.2-.55l2.24-2.78a.89.89 0 011.25-.13.87.87 0 01.33.69zm-2.7-2.28a.89.89 0 01-.2.56l-2.24 2.78a.89.89 0 01-1.25.13.84.84 0 01-.33-.69.88.88 0 01.19-.56l2.24-2.77a.9.9 0 011.26-.14.93.93 0 01.33.69zm-2.74-2.06a.91.91 0 01-.2.56l-2.24 2.77a.88.88 0 01-1.25.14.9.9 0 01-.33-.7.88.88 0 01.19-.56l2.25-2.77a.89.89 0 011.25-.13.87.87 0 01.33.69zm-1.3-40.01L247.22 136s-3.88-6.88-7.64-10.44-7.05-5.73-12.55-10a10.6 10.6 0 01-4-6.16 21.69 21.69 0 004.22-6.44c1.15-3.25-.32-9.42-.32-11.78a3.16 3.16 0 012.23-3s3.06 1.85 6.43 8.46c2.41 4.74 2.24 21.72 2.24 21.72a11.68 11.68 0 004.06 2.8c3.13 1.53 5.23.63 5.23.63s2.22 1.34 6.71 4.21 8.81 11.76 8.81 11.76zM260 176.1c1 .7-1.14 3.7-2 2.61s-5.41-4-5.41-4a37 37 0 002.78-3.28c.83.22 1.29.49 2.12.75-.19.64-.44 1.23-.57 1.66-.28.86 2.08 1.56 3.08 2.26z"/><path class="cls-1" d="M253.87 170.8l-2.77 3.43s-21.41-7.38-32.16-11.13c-11.69-4.08-25-5-25-16.74C194 132.8 217.2 136 217.2 136s-9.36 2.57-9.27 10.4c-.33 12.91 28.18 19.48 28.18 19.48zm-9.11-84.52s-2.55 3.13-3.1 5 .11 7.87 0 11-2.5 3.37-2.5 3.37.36-6-4.75-13.75a30.08 30.08 0 00-12.93-10.8s5.51 0 6.67-.4a8 8 0 002.54-2.14l.63-.87c.55.58 2.2-.18 2.2-.18l2.14-.8a16 16 0 003.17 6.29 12.25 12.25 0 005.93 3.28z"/><path class="cls-1" d="M235.78 71.81c.66 0 1.67.54 1.24 2.43s-4.36 3.05-4.87 3-.3-1.53-.3-1.53-1.06 1.42-.52 2l-.63.87a14.24 14.24 0 01-6 1.92c-3.12.15-7.59-1-8-2.28s1.63-1.42 1.59-2.4-1-1.2-.83-1.74 2.36-.48 2.36-.48-1.34-1.19-1.3-1.77 1.23-.66 1.23-1.06.18-.39.55-.32.36.8.36.8.47-.77 0-1.24a1.24 1.24 0 00-1.17-.25s-1.3-.95-1.41-1.42c-.22-.94 6-2.91 6.39-3.88a3 3 0 00.18-2.26c-.18-.5 4-3.52 4-3.52s4 .91 5.19 2.19.73 5.18.73 5.18-3 1.78-2.91 4.76a3.3 3.3 0 003 3.23 3.66 3.66 0 01-1.58-1.33h1.58s.47-.87 1.12-.9zM227 64.9a8.41 8.41 0 011.12 2.86s-.29-2.86-1-3.83-2-1.88-2.28-1.25 1.38 1.02 2.16 2.22zm-.19 2.86l-2-3.25-.3.61-1 .8h-.39s-.2.41.67 1.14a5.79 5.79 0 003.05.7z"/><path class="cls-1" d="M237.06 70.92l-.22.37a1.51 1.51 0 00-1.2 0 1.26 1.26 0 00-.91 1.38h-1.58a3.94 3.94 0 01-.63-1.79c-.26-2.4 2.28-3.81 2.28-3.81a4.37 4.37 0 001.31 3.08 3 3 0 00.95.77zm-8.68-15.58l-.83 1.27s-.59.48-1.31 1.09l-.73-.8s-.76-.87-3.19-.87v-.84a6.17 6.17 0 00-3.61-1.2c-2.25 0-3.16 1.32-3.67.73-.69-.8 0-2.61 4.23-2.9s9.11 3.52 9.11 3.52z"/><path class="cls-7" d="M228.15 67.76A8.41 8.41 0 00227 64.9c-.81-1.2-2.37-1.59-2.13-2.22s1.61.29 2.28 1.25 1 3.83 1 3.83z"/><path class="cls-1" d="M224.44 83.7a43.72 43.72 0 013.71 3.21s-2.8 1.83-2.6 4.69.7 7.58.34 9.68c-.22 1.26-2.89 4.89-3.37 4.8s-.18-10.76-4.78-16.49-12.08-10-12.08-10 4.69.91 6.48.51a8.59 8.59 0 003-1.33A6.13 6.13 0 00216.9 80c2.23 1.05 5.96 2.49 7.54 3.7z"/><path class="cls-7" d="M225.05 65.54a.79.79 0 01-.17.92c-.44.51-1-.14-1-.14s-.39.12.61.62a4.16 4.16 0 001.75.47zm-.17-1l2 3.25a5.79 5.79 0 01-2.93-.7c-.87-.73-.67-1.14-.67-1.14h.39l1-.8z"/><path class="cls-6" d="M225.05 65.54l1.2 1.87a4.16 4.16 0 01-1.75-.47c-1-.5-.61-.62-.61-.62s.55.65 1 .14a.79.79 0 00.16-.92z"/><path class="cls-1" d="M225.51 56.9l.73.8c-1.06.9-2.44 2.08-2.76 2.47-.54.65-.4.88-.27 2.08.18 1.55-1.62 2.26-1.62 2.26a24.9 24.9 0 00.07-4.31c-.21-1.2-.58-1.2-.66-2.2s.63-1.16 1.25-1.41 3.26.31 3.26.31zm-3.19-1.71V56c-2.44 0-2.11.84-2.73.87s-.14-.61-.46-.9-.77-.12-1.17-.38-.14-.79 1.13-1a7 7 0 013.21.59zm-18.66 17.18l-1-2.12s1.51-1.5 1.7-1.35a3 3 0 01.43.92s.25-1.07 0-1.36-1.16-.24-1.16-.24-1.21-.77-1.4-1.6 5.71-2.71 6.29-3.24.39-2.27.29-2.85 4.89-4.08 4.89-4.08a10 10 0 014.45 1.22c2.37 1.26 3.24 5.08 2.57 6.43s-4.21 3-4.36 3.73 2.13 1.94 1.84 2.37-1.11.44-1.4.92.82 1.55.82 1.55-1.5 0-1.65.77.73 1 .73 1.7-.54.92-1 1.21a11.4 11.4 0 01-4.46 2.56c-2.32.54-10.87-.74-10.55-2.56.19-1.06 1-.58 1.41-1a2.16 2.16 0 00.34-1.83c-.15-.44-.68-.88-.63-1.32s1.71.13 1.85.17zm8.14-5.31h1.31s-.29-2.86-1-3.83-2-1.89-2.27-1.25c-.16.4.44.72 1.11 1.21l-1.11.67-.3.6-.94.81h-.41s-.15.52.72 1.25 2.89.54 2.89.54z"/><path class="cls-4" d="M213.11 67.06h-1.31l-1.93-3.2 1.11-.67a4.43 4.43 0 011 1 8.52 8.52 0 011.13 2.87z"/><path class="cls-7" d="M213.11 67.06A8.52 8.52 0 00212 64.2a4.43 4.43 0 00-1-1c-.67-.49-1.27-.81-1.11-1.21.24-.64 1.59.29 2.27 1.25s.95 3.82.95 3.82zM210 64.84a.78.78 0 01-.17.92c-.44.51-1-.15-1-.15s-.4.13.62.62a4.07 4.07 0 001.74.48zm-.14-1l1.93 3.2s-2 .13-2.89-.59-.72-1.25-.72-1.25h.41l.94-.81.3-.6z"/><path class="cls-8" d="M210 64.84l1.2 1.87a4.07 4.07 0 01-1.74-.48c-1-.49-.62-.62-.62-.62s.55.66 1 .15a.78.78 0 00.16-.92z"/><path class="cls-9" d="M235 73.3a1.39 1.39 0 011.24 0c.54.35.21 1.5-.47 2a14.24 14.24 0 01-2.08 1s2.52-1.49 2.08-2.26-.77-.74-.77-.74z"/><path class="cls-10" d="M282 166.72s4.05 9.82 4.75 10.57 6.17 5.36 6.78 6.2 2.51 4.24 2.51 4.24 21 17.7 23.26 19.54 25.42 22.22 25.42 22.22a42 42 0 004.36.91c1 0 3.17-.07 3.17-.07s-16.95-18.4-22.68-22.85-7.76-3.95-9.55-5.73-9.42-16.55-13.88-22.6-9.66-14.37-9.66-14.37zm-6.36 15.74a24.5 24.5 0 002.42 2.87c1 .86 1.25.92 1.55 1.73a8.75 8.75 0 01.39 1.59s24.22 18.46 25.26 19.3 22.74 20.74 24.24 21.38a10.78 10.78 0 004.5 1.15 3.4 3.4 0 002.59-1S310 209.1 307.2 205.18s-13.64-13.25-13.64-13.25a3.08 3.08 0 01-1.88.47 22 22 0 01-5-2.89c-1.87-1.44-4.63-3.73-4.63-3.73s-2.19-.36-2.53-.78a10.92 10.92 0 01-.9-2zm-7.79-11.61s0 .32-.64.89-1.21 1.06-1.21 1.06l-29.2-8c-1.24-.34-26.54-6.2-26.57-18.15 0-11.25 15.43-11.44 29.94-8.95l22.66 2.71 1.84 4.31s-29.65-7.32-38.53-5.89-9 3.63-9 3.63l3.72-.86s-4.39 2.3-4 5.64 5.72 3.44 5.72 3.44l-4.48 1a47.57 47.57 0 0022.26 10.6 147.11 147.11 0 0127.49 8.57z"/><path class="cls-10" d="M217.2 136s-12.85-1.9-19.8 3.12-2 13.62-.49 15a26.27 26.27 0 008.58 4.82c3.67 1.17 14.33 4.44 17.09 5.4l28.52 9.87 1.16-1.44-34.44-11.54s-14.52-4.21-16.3-10.19 1.78-8 1.78-8l-3.56.38s4.11-7.01 17.46-7.42zm36.43 37.58l-1.06 1.17a45.89 45.89 0 013.86 2.55c.77.68 1.23 1.57 2 1.65s1.83-1.65 1.83-1.65zm7.66 7.25a.84.84 0 01-.71-1.26 1 1 0 101.34 1 .74.74 0 01-.63.26zm2.71 1.95a.84.84 0 01-.72-1.26 1 1 0 00.35 1.94 1 1 0 001-1 .79.79 0 01-.63.32zm2.73 2.31a.84.84 0 01-.71-1.26 1 1 0 101.34 1 .76.76 0 01-.63.26zm1.94-.09s6.28 6.3 8 6.24 1.68-2.22 1.68-2.22.81 3.08-1.28 3.35-9.26-6.3-9.26-6.3zm.14-13.26s0 .08-.37.54a14.19 14.19 0 01-1.23 1.22s3.23 1.89 3.86 2.33 1.47 1.42 1.82 1.43a1.46 1.46 0 001.27-.6 7.43 7.43 0 00.68-1.17zm7.12 7.43a.84.84 0 01-.72-1.26 1 1 0 101.35 1 .76.76 0 01-.63.26zm2.73 1.94a.84.84 0 01-.71-1.26 1 1 0 00.34 2 1 1 0 001-1 .8.8 0 01-.63.26zm2.71 2.31a.84.84 0 01-.72-1.26 1 1 0 101.35 1 .74.74 0 01-.63.26zm2.06-.04s6.28 6.3 8 6.24 1.46-2.56 1.46-2.56 1 3.41-1.06 3.69-9.26-6.31-9.26-6.31zM228.15 89s-.73 0-1.09 1.38c-.43 1.72 1.13 8.27.62 10.59a12.35 12.35 0 01-2.21 5.42c-1.3 1.74-2.4 3-2.4 3s.84 5.29 7.47 8.84a52.23 52.23 0 0111 9.53 91.12 91.12 0 015.72 8.23l3.36.38s-5.26-9.82-8.25-12S228.39 113 228.39 113s6-5.65 5.54-11.44-.28-4.79-.28-4.79z"/><path class="cls-10" d="M246 87.87a5.43 5.43 0 00-2.86 3.33c-.69 2.44 1 8.3.12 11.86S241.1 107 241.1 107l-1.58.49a24.74 24.74 0 010 4.81c-.26 2.87-.46 5.31-.46 5.31s11.17-2.59 11.52-12-5.13-10.52-4.75-13.51 2.17-3.9 2.17-3.9zm23.1 47.41s-4-6-7-9.45-10.49-6.77-10.49-6.77l-2.9 2.13a28 28 0 019.79 6.81 50.19 50.19 0 016.3 9.74s11 1.91 18.3-.39h.12c-4.22.04-14.12-2.07-14.12-2.07z"/><path class="cls-10" d="M246.91 92.43s6.11-4 11.84-4.48 13.49 4.48 13.49 4.48v3.32s-6.72-4.59-12.64-5.48-12.69 2.16-12.69 2.16zm27.24.09v3.23a37.18 37.18 0 019.24.31c4.27.83 7.39 2.17 9.68 2.1s11.59-1 13.56-.51 22.16 5.33 24.77 5.09 14.13-2.16 14.83-2.09 4.65 1.65 5.16 1.4-3.57-1.56-5.45-1.77-13.25 1.81-15 1.63-22.8-5.4-24.19-5.59c-2.09-.29-13 .89-13.62.77s-8-3.49-11.08-4a61.12 61.12 0 00-7.9-.57zm-68.49-12.93s6.85 4.39 9.33 7 4.14 4.14 5.1 7.22a42.55 42.55 0 011.72 7c.23 1.84.71 5.25.71 5.25s.89-8.49-1.49-14.25-10.12-11.51-10.12-11.51-4.05-.43-5.25-.71zm-4.86-3.04a4.2 4.2 0 002.28 1.45 26.13 26.13 0 004.16.86c.26 0-3.59-1.53-3.49-2.15s.86-1.13 1.1-1.75c.3-.8-.17-1.74-.07-2 .19-.41 2.09-2.61 2.09-2.61s.83-1.65-.16-2.32-2.54-1-2.55-1.14c0-.51 4.47-2.5 4.47-2.5a1.79 1.79 0 00.9-.8 8.61 8.61 0 00.4-1.33s-.06.15-.06-.3.92 0 .92 0a37.46 37.46 0 014-3.64c1-.6 2.12-1.25 2.12-1.25a8.37 8.37 0 00-1.74-.48c-.82-.12-1.43-.16-1.43-.16s-2.27 1.65-2.87 2.12-2 1.78-2 1.78a5.29 5.29 0 01-.06 2.67c-.44.84-3.31 1.41-5.07 2.5s-1.43.75-1.33 1.37 1.3 1.33 1.3 1.33.88 0 1.16.24 0 1.36 0 1.36-.19-1-.43-.92a16.82 16.82 0 00-1.7 1.35l1 2.13s-1.53-.61-1.74-.2.66.95.67 1.54 0 1.52-.49 1.69-1.3.27-1.38 1.16zm14.32-21.75c.65.45 1.07-1.6 3.94-1.89s8.14 1.61 8.14 1.61-4-3.12-8.31-2.67-4.47 2.48-3.77 2.95z"/><path class="cls-10" d="M228.38 55.34a9 9 0 00-3-.78 7.31 7.31 0 00-2.22.31 12.82 12.82 0 013.2.74 6.11 6.11 0 011.22 1zm-8.11 1.11a1 1 0 01-.87.43c-.6-.05 0-.47-.23-.83s-1.33-.1-1.37-.63 1.24-1.05 2.43-.87a10.85 10.85 0 012.09.64s-2.95-.37-3 0 .36.26.59.54-.24.39-.16.58a.32.32 0 00.52.14z"/><path class="cls-11" d="M221 57.81s-.09-1.25 1.71-1.36a10.34 10.34 0 014 .86s-4.24-.93-5.71.5zm1 .55a1.91 1.91 0 001.36.62 11.84 11.84 0 001.63-.25l-1.05.94a2.18 2.18 0 01-1.94-1.31z"/><path class="cls-12" d="M239.16 105.6s-.95-11.41-7.65-17.41-10-7.09-10-7.09h4.77s5.24 3.77 8 7.51c5.48 7.45 4.92 17.47 4.92 17.47"/><path class="cls-10" d="M223.67 80.48s-3.77-.25-5.58-1.2-1.41-1.43-1.34-1.59a1.37 1.37 0 01.89-.94c.78-.36.78-.59.71-1a1.5 1.5 0 00-.38-.89c-.24-.27-.62-.67-.45-.85a2.13 2.13 0 011.31-.45h1s-1.47-1.23-1.31-1.77 1.08-.73 1.16-.89.19-.53.33-.53.48-.17.57.33a7.4 7.4 0 01.09.8 2.13 2.13 0 00.14-1.3c-.14-.74-1.31-.48-1.31-.48s-1.71-1.21-1.75-1.64 1.25-1.08 1.88-1.37 4-1.95 4.23-2.72.21-1.86.36-2.36 3.53-3.13 3.53-3.13l1.73.35-4.6 3.34-.06.7a6.51 6.51 0 01-.25 1.62 10.35 10.35 0 01-2.57 2.37c-.91.61-2.16 1.16-2.1 1.48s2.57 1.12 2.74 1.82-1.64 3.66-1.64 3.66a3.19 3.19 0 01.29 2.61c-.45 1.56-1.34 1.44-1 2a5.28 5.28 0 003.38 2.03zM246 56.05c-5-2.84-7.3-2.66-10.38-2s-6.88 3.41-6.88 3.41l1.91.43a14.59 14.59 0 019.26-2.72c4.28.07 12 5 16 7.69a108.8 108.8 0 00-9.91-6.81z"/><path class="cls-12" d="M280.13 67.75s-4 .24-8.55.24a42.7 42.7 0 01-10.3-1.85 15.68 15.68 0 009.43 3.15 26.83 26.83 0 009.42-1.54z"/><path class="cls-10" d="M277.77 69.29a17.26 17.26 0 01-12.06 2.25c-7-1.27-13.27-8.69-13.27-8.69s6.5 9 13.31 10.12 12.02-3.68 12.02-3.68zm-41.99-2.82c-.2-.62.56-6.25 4.77-8s11.17 3.63 11.17 3.63-6.88-3.63-10.7-1.77a11.55 11.55 0 00-5.24 6.14z"/><path class="cls-10" d="M277.2 73.16s-4.85 4.35-11.06 3.77-13.23-6.68-13.23-6.68 6 7.64 13.13 7.68a15.06 15.06 0 0011.16-4.77z"/><path class="cls-12" d="M232.78 58.36a5.4 5.4 0 004 .14 12.41 12.41 0 003.4-2s-1.93 2.81-3.71 3.22-3.69-1.36-3.69-1.36z"/><path class="cls-10" d="M235.93 67.76a4.06 4.06 0 002.75 1.91c1.72.14 1.62-6.06 7.07-6.06 2.67 0 6.49 4.77 6.49 4.77s-3.53-4-6.58-3.84-4.4 5.61-6.83 5.7-2.9-2.48-2.9-2.48zm40.64 10.75s-1.42 2.47-5.86 2.86S259.89 79 259.89 79s6.77 4.34 11.65 3.43 5.03-3.92 5.03-3.92z"/><path class="cls-10" d="M242.85 70.31s2.61 1.06 3.52 0 .34-3.78 2.39-2.9 8.78 10.53 8.78 10.53-7-8.84-8.54-8.93-.77 1.52-1.77 2.62-4.38-1.32-4.38-1.32z"/><path class="cls-7" d="M235.21 68.81s-1.59.77-1.68 2.15a6.23 6.23 0 00.84 3s-.45-2.22 0-3a3.9 3.9 0 011.38-1.24z"/><path class="cls-10" d="M254.2 79s10.46 5.58 14.47 5.53a13.46 13.46 0 006.49-1.6 5.64 5.64 0 01-3.61 2.46c-2.64.62-6.16-.88-6.16-.88zM238 71.38c.13.05.71 3.07 3.05 3.26s4-.48 4.73 1.81-1 4.58-1 4.58 1.42-4.3-.53-4.82-3.21.29-4.49-.24-1.76-4.59-1.76-4.59z"/><path class="cls-10" d="M238.63 74.43s-1 3.12.82 4.34 2 .07 3.4.55 1.24 4.68 1.24 4.68-.49-3.68-1.92-3.77-3.15.34-4.2-1.41.66-4.39.66-4.39z"/><path class="cls-12" d="M245.94 81.1a11.28 11.28 0 005 0 6.52 6.52 0 003.24-2.59s-1.48 2.93-3.61 3.46-4.63-.87-4.63-.87z"/><path class="cls-10" d="M349.56 242.26a.84.84 0 01.59-1.32 1 1 0 100 1.66.79.79 0 01-.59-.34zm.04 3.36a.84.84 0 01.59-1.32 1 1 0 100 1.66.79.79 0 01-.59-.34z"/><path class="cls-12" d="M349.33 249.17a.85.85 0 01.59-1.33 1 1 0 100 1.66.75.75 0 01-.59-.33z"/><path class="cls-10" d="M332.13 242.26a.84.84 0 01.6-1.32 1 1 0 100 1.66.79.79 0 01-.6-.34zm.05 3.36a.84.84 0 01.59-1.32 1 1 0 100 1.66.79.79 0 01-.59-.34z"/><path class="cls-12" d="M331.91 249.17a.85.85 0 01.59-1.33 1 1 0 100 1.66.75.75 0 01-.59-.33zm-.15 1.47s.51 3.5-1.06 5.71-4.16 4.73-3.78 5.36 2.36.77 3.3.52 3.48-4.19 4-7.15a14.37 14.37 0 00.29-4.32zm17.42.25s.51 3.49-1.06 5.71-4.16 4.73-3.78 5.36 2.36.76 3.3.51 3.48-4.18 4-7.14a14.44 14.44 0 00.29-4.33z"/><path class="cls-10" d="M334.57 232.11v7.15s-1.62.33-2.05-.13-.51.24-.44-.47a40.85 40.85 0 000-4.58 21.09 21.09 0 00-.35-2.35zm12.31-.77s1.59 3.26 1.94 4.21a10.42 10.42 0 01.65 2c.07.55-.08 1.36.26 1.56a3.06 3.06 0 001.06.37 13 13 0 001.33-.14l-1.36-7.17zM265.8 140.8l1.71 4a81.84 81.84 0 019.06.68c3.82.59 9 1.72 9 1.72s-5.34-4.61-19.77-6.4z"/><path class="cls-11" d="M235.67 76.71s1.53 4.71 3.16 6.33 5.92 3.24 5.92 3.24l-1.9 2.24s-4.66-1.94-6.44-4.57a11 11 0 01-1.77-5.62l-1.91-.54zm21.5 30.18s3-5.72 6.53-6a38 38 0 018.48.53v-3.8s-11.06-3.38-15.01 9.27zM274.15 98v3.39a13.85 13.85 0 006.32 2c4.07.38 17.87-.69 17.87-.69l-5.22 1.3s11.41 1.94 15.36 1.66 20.55-1.56 20.81-1.57a17.54 17.54 0 012.74.11c.72.16 5.45 2.22 6.43 2.22s5.08-.77 5.08-.77a24.48 24.48 0 01-5.27 0c-1.53-.37-4.9-2.34-7.51-2.22s-20.63 1.34-23.17.51a34.71 34.71 0 00-6.12-1.15s1.59-.88 1.53-1.52-23.84-1.96-28.85-3.27z"/><path class="cls-11" d="M263.53 102.83a79.74 79.74 0 018 11.38c2.74 5.15 10.31 12.79 10.31 12.79s-5.79-5.41-8.21-1.21 5.8 10.89 12.42 8 5.65-4.63 5.65-4.63a23.08 23.08 0 01-10.46-7.19c-4.77-5.67-8.14-16.48-10.12-17.54s-3.63-2.21-7.59-1.6zm23.68 35.68s5.43 1.19 6.17 11.4S281 165.1 281 165.1s19.42-.95 18.62-14.07a22 22 0 00-8.4-16.32zm16.6 24.93l-4.39.81s8.56 8 14.95 15.6a80.9 80.9 0 019.63 14.06 85.65 85.65 0 00-13.3-22.17c-5.43-6.74-6.89-8.3-6.89-8.3zM328 195.42v5a62.57 62.57 0 0111.48 9.45c6 6.21 15.25 19 15.25 19l.37-1.89s-10.35-16.77-16.34-22.16-10.76-9.4-10.76-9.4zm28.49 34.07l-.75.91 1.31 2.1.58-.62-1.14-2.39zm2.51 3.56l-1.38 1.27s3.91 1.8 4.2 4.1-2.1 7.42-2.1 7.42 4.52-5.57 3.74-8.79-4.46-4-4.46-4zm-129-82.74s11-1.76 15.57-.71 15.61 10.17 15.61 10.17l6.3 3.8.11-3.8s-11.71-11.12-21-12.55a26.8 26.8 0 00-16.59 3.09zm40.1 10.85l-.1 2.76 2.62.38 1.52-1.12-4.04-2.02z"/><path class="cls-9" d="M230.71 153a129.66 129.66 0 0117.71 5.83c7.6 3.34 16.94 8.21 16.94 8.21s-12.8-9.51-19.85-11.83a52.27 52.27 0 00-14.8-2.21z"/><path class="cls-11" d="M217.2 136s-9.69 3.17-9.26 10.9 11.06 13.22 16.73 15.28 17.58 5.39 19.71 6l9.49 2.61-.76.94-29.2-9s-18.32-3.21-18.32-15.79c0-8.51 11.61-10.94 11.61-10.94zm21.86-18.4s2.09 3.34 7.63 2.55c6-.85 7.18-8.74 7.18-8.74a8.24 8.24 0 01-5.92 5c-3.12.77-4.47-.53-4.47-.53a8.55 8.55 0 01-2.23 1c-1.62.57-2.19.72-2.19.72zm23.58 20.4s-3-6.94-6.52-10a62.39 62.39 0 00-9-6.12s0 .11-.68.18a13.69 13.69 0 01-1.64 0s7 4.37 9.56 7.09 4.89 8.26 4.89 8.26zm-34.79-49l1.35-.82a22.85 22.85 0 016.8 9.24c2.54 6.16 1.92 21 1.92 21S236.3 102 234.25 97.9a34.75 34.75 0 00-6.4-8.9zm-.95-1.09l1.37-1a32 32 0 00-5.16-3.93c-2-1-6.81-3.19-7-3.33s-1.05-.83-1.05-.83a7.25 7.25 0 01-4.22 1.53c-.79.06 1.06.16 2.62.09a10.53 10.53 0 001.85-.27 68.74 68.74 0 017.3 4.21c1.6 1.29 4.29 3.53 4.29 3.53zm-18.13-17.82a6.19 6.19 0 003.34.51 12.1 12.1 0 004.24-1l-.93-.83s-.41-.26-.09-1 5.59-4.61 5.59-4.61.06 1.22-.63 1.67-3.73 2.59-3.73 2.59-.31.43-.18.68 1.7 1.73 1.76 1.85.33.2-.12.43-1.21.42-1.24.75.82 1.55.82 1.55-1.69.29-1.64.77 1.07 1.53.89 2a26.84 26.84 0 01-3.38 2.6s2.76-2.33 2.69-2.83-1.34-1-1.31-1.75 1.5-1.14 1.5-1.14l-.5-.9a9.89 9.89 0 01-7.08-1.34z"/><path class="cls-9" d="M221.6 62.85l-.12 1.66s1.07-.43 1.34-1.07a4.25 4.25 0 00.29-1.36z"/><path class="cls-11" d="M213.42 63.3c-.39.8.16 3.17.16 3.17a41.87 41.87 0 014.35-3.79c1.34-.84 2.72-1.55 2.72-1.55a9.55 9.55 0 00-.41-1.07c-.18-.36-.54-.94-.54-.94s-5.92 3.44-6.28 4.18zm-3.25-.62l-.43 1.13 1.95 3.25 1.25-.29a8.74 8.74 0 00-1.25-2.83c-.69-.62-1.52-1.26-1.52-1.26z"/><path class="cls-9" d="M218.34 53.33a13.77 13.77 0 003.6.83c1.48 0 3 .07 3 .07a20.2 20.2 0 01-3 .29 17 17 0 01-3.6-1.19zm2.55 2.82a7.22 7.22 0 013.11-.45 10.13 10.13 0 013.4.91l-.53.44s-1.87-1.05-5.98-.9zm1.4 2.01a2.23 2.23 0 011.61-.69 10 10 0 012.24.22 3.73 3.73 0 00-2.24-.56c-1.52.01-1.61 1.03-1.61 1.03z"/><path class="cls-11" d="M225 70.58a4.21 4.21 0 002.72 1.26 13.54 13.54 0 003.34-.46 3.65 3.65 0 01.42-3.39 5.27 5.27 0 012.52-2.47s-.16-3.1-.83-3.77-3.68-2.9-3.68-2.9 3.59.83 4.57 2.15.61 5 .61 5a8.72 8.72 0 00-2.43 2.63c-.6 1.3-.77 3.41.54 4.49s2.14.94 2.14.94a3.46 3.46 0 01-2.42-.14c-.89-.58-.92-1-.92-1a7.63 7.63 0 01-3.79-.06 3.49 3.49 0 01-2.79-2.28zm7-12.77c.1.09 1.1 1.28 3.8 1s4.7-3.4 6.77-2.76a6.63 6.63 0 012.74 1.36 8.53 8.53 0 00-3.82-1.8c-2.29-.42-4 2.67-5.92 2.67a15.09 15.09 0 01-3.57-.47zm3.78 8.66s-.55 2.23 2.14 3 1.78-2.42 3.81-4.11a6.81 6.81 0 013.65-1.76s-2.61-.26-4.1.89-1.85 3.7-3 3.8-2.56-.63-2.5-1.82z"/><path class="cls-11" d="M237.34 68s1.43-5.84 4.62-6.94 9.76 1.08 9.76 1.08-5.38-3.09-10.28-1.94-4.1 7.8-4.1 7.8zm4.35 1.61a5.69 5.69 0 003.69 1.16c2.34 0 1.06-2.19 2.17-3.36s4.89 2.59 4.89 2.59-2.73-4-4.44-3.86-1.42 3-2.74 3.35a13.8 13.8 0 01-3.57.12z"/><path class="cls-9" d="M243.74 68.24s.43-2.71 2.2-3 4.06 1.23 4.06 1.23-2.53-2-4.46-1.59-1.8 3.36-1.8 3.36zm-2.33-6.16a10.65 10.65 0 003.85.23 11.47 11.47 0 015.19-.23c1.75.43 3.68 3.18 3.68 3.18s-2.51-2.61-3.93-2.79a34.63 34.63 0 00-5 .23 8.28 8.28 0 01-3.79-.62z"/><path class="cls-11" d="M238 71.25a2.82 2.82 0 002.29 2.58c2.32.67 2.66-.35 4.24.6a3.52 3.52 0 011.78 2.14 5.08 5.08 0 00-2-2.77c-1.52-1-2.65 0-3.91-.5a3.66 3.66 0 01-2.4-2.05zm.56 3.43s-.54 2.47 1.32 2.75 2.31-.81 4 0 .82 3.6.82 3.6.35-2.7-1-3.17-2.59.86-4.09.27-1.05-3.45-1.05-3.45zm6.12-3.19a3.13 3.13 0 002.91 1.19c1.72-.38.41-2.6 1.36-2.65s6.05 5.61 6.05 5.61-5.19-5-5.82-4.72.07 2.57-1.53 2.86-2.97-2.29-2.97-2.29zm9.38 7.02s-.84 1.41-3.65 2a9.77 9.77 0 01-4.87-.07 17.7 17.7 0 004.91-.47 27.33 27.33 0 003.61-1.46z"/><path class="cls-11" d="M246.1 73.38s.92 2.53 3.11 2.41 1.1-2.3 2.34-2.15 5.15 4.16 5.15 4.16-3.76-3.38-4.84-3.37-.62 2.22-2.46 2.14-3.3-3.19-3.3-3.19z"/><path class="cls-9" d="M238.49 80.13a2.34 2.34 0 001.51 1.39c1.78.31 2.13-.42 2.91.58a7.51 7.51 0 011.16 2.23s-.79-2.08-2-2.23-1.68.36-2.5-.06-1.08-1.91-1.08-1.91z"/><path class="cls-11" d="M250.59 59.73S260.17 70 267.86 70s12.27-2.28 12.27-2.28a20.71 20.71 0 01-12.51 3c-7.71-.4-17.03-10.99-17.03-10.99z"/><path class="cls-11" d="M258.31 69.61s4.66 4.73 10.74 4a18.47 18.47 0 0010.27-5.19A12.1 12.1 0 01269 74.26a15.32 15.32 0 01-10.69-4.65z"/><path class="cls-11" d="M248.57 64a6 6 0 011.63.87c.76.59 7.68 9.76 12.88 10.76s7.21.62 7.21.62-2.38 1.15-7.4-.33-11.17-8.95-11.17-8.95-1.91-2.7-3.15-2.97z"/><path class="cls-11" d="M253 70.3s4.79 7.48 10.75 8.89a22 22 0 0010.6 0s-3.86 2.06-10.88.47S253 70.3 253 70.3zm1 8.47l6.5 4.23s-4.45-1.39-6.5-4.23zm19.66 87.41l.28 2.33a3.68 3.68 0 013.35-.38c1.74.77 6.73 8.52 6.73 8.52s-3.84-10-6.47-11.35a2.76 2.76 0 00-3.89.88zm64.4 64.3l1.01 2.41 1.13-1.17-1.15-2.4-.99 1.16zm3.51 2.41l-1.37 1.27s4.28 2.7 4.82 4.35-2.35 6.62-2.35 6.62 4.36-5 3.5-7.87-4.6-4.37-4.6-4.37z"/><path fill="#83332e" d="M341.55 251.62l5.23-8.05-.58 4.18-4.65 3.87z"/><path class="cls-1" d="M358.37 245.39c4.75.27 4.92 5.49 4.92 5.49s-4.47 66.17-5.09 70.94-6.74 5.32-6.74 5.32-70.95-.74-81.44-.74-75.63.49-81 .68-5-5.4-5-5.4-6.87-66.21-6.93-71.23 3.37-5.17 3.37-5.17 83.93-2 89.61-2.22 83.55 2.07 88.3 2.33zm-6.56 76.18c3.1-2.1 7.62-69.12 5.76-70.74C355 248.6 283 248 270.85 248s-85.9 1.15-88.41 2.75c-2.13 1.34 6.61 69.91 7.63 70.78 2 1.73 73.69-.41 79.95-.41s78.91 2.4 81.79.45z"/><path class="cls-3" d="M357.57 250.83c1.86 1.62-2.66 68.64-5.76 70.74-2.88 1.95-75.52-.41-81.79-.41s-77.92 2.14-79.95.41c-1-.87-9.76-69.44-7.63-70.78 2.51-1.6 76.28-2.75 88.41-2.75s84.15.56 86.72 2.79z"/><path d="M190.36 313.46s31.77-1.08 79.38-1.08c24.88 0 54.1 1.08 85.36 1.08" fill="none"/><path class="cls-2" d="M211.23 295.85h.2l9-15.6-6.26-12.46h17.39l13.66 28.26h6.61l-9.34 15.6-2.24-10.65-23.1-.1-2.24 10.53-6.26-10.48h-.15l.05-.1-3-5zM223 285.22l-6.11 10.68 11.52.05zm50 16.3q-9.54 0-15.2-5.42a17.25 17.25 0 01-3.67-5.36 15.47 15.47 0 01-1.3-6.26 15.66 15.66 0 011.52-6.88 16.52 16.52 0 014.22-5.47 20.26 20.26 0 016.43-3.63 25.24 25.24 0 0116.05 0 20.21 20.21 0 016.4 3.63 16.42 16.42 0 014.23 5.47 16.14 16.14 0 01.22 13.14 17.28 17.28 0 01-3.68 5.36q-5.69 5.42-15.22 5.42zm0-32a16.63 16.63 0 00-1.66 2.83 21.16 21.16 0 00-1.29 3.51 31.17 31.17 0 00-.82 3.87 27.13 27.13 0 00-.3 4 31.33 31.33 0 001 8 30.65 30.65 0 003 7.48 31 31 0 004.08-15.45 27.13 27.13 0 00-.3-4 31.17 31.17 0 00-.82-3.87 24.21 24.21 0 00-1.27-3.51 13.94 13.94 0 00-1.62-2.86zm24.47-1.73h16.89l2.44 7.3 2.48-7.3h17.29v33.13h-14.9V274l-9.49 28.92-9.74-28.32v26.33h-5z"/><path class="cls-11" d="M225.08 63.34l-.44 1.12 2 3.25 1.24-.29a8.74 8.74 0 00-1.24-2.83 19.09 19.09 0 00-1.56-1.25z"/><path d="M38.43 384.89l-.3-3.59c-.64.15-1.2.26-1.66.33s-.93.14-1.38.19a16.66 16.66 0 01-5.51-.15 14 14 0 01-4.68-1.94 13.33 13.33 0 01-4.13-4.39 13.79 13.79 0 01-1.77-5.88 14.28 14.28 0 01.31-4.42 15.16 15.16 0 011.58-4.11 12.56 12.56 0 013.32-3.73 14 14 0 014.69-2.2l1-.22.94-.22c.34-.07.72-.14 1.16-.19l1.63-.2 2.5-.3-.36-3.74 12.63-1.51.27 3.75 2.5-.3 1.63-.19a8.77 8.77 0 011.17-.09h1.93a13.32 13.32 0 015 1 11.41 11.41 0 013.88 2.87 14 14 0 012.22 3.66 13.71 13.71 0 011 4.27 14.22 14.22 0 01-.8 6.19 14.8 14.8 0 01-3.32 5.28 15.24 15.24 0 01-4.26 3 17.66 17.66 0 01-5.38 1.46l-1.38.14c-.46 0-1 .06-1.68.07l.3 3.59-12.84 1.54zm-2.31-28.52a12.6 12.6 0 00-3.1 5.34 17.29 17.29 0 00-.72 6.73 15.79 15.79 0 001.81 6.27 11.14 11.14 0 003.89 4.34zm14.78 21.14a12.38 12.38 0 003.1-5.18 17.32 17.32 0 00-1.09-13 11.6 11.6 0 00-3.93-4.5zm33.53-16.59l17.24-17.87 2.45 34.75-12.73 1.27-1.18-16.68L73 380.89l-2.44-34.76 12.73-1.26zm38.87-16.09a3.67 3.67 0 00-1.52-.82 6.39 6.39 0 00-1.87-.21 5.28 5.28 0 00-1.88.4 4 4 0 00-1.49 1 8.82 8.82 0 01-2.07 4.71 6.17 6.17 0 01-4 1.72 3.37 3.37 0 01-2.39-.61 2.57 2.57 0 01-1.06-2 4.35 4.35 0 01.53-2.17 8.19 8.19 0 011.69-2.21 11.15 11.15 0 013.48-2.13 22.91 22.91 0 014.84-1.37 25.66 25.66 0 015.34-.37 16.76 16.76 0 015 .87 9.21 9.21 0 013.73 2.34 6.21 6.21 0 011.63 4 7.3 7.3 0 01-1.59 5.27 9.91 9.91 0 01-5.34 3.07 23.34 23.34 0 013 .56 10.47 10.47 0 015.53 3.92 8 8 0 011.35 4 9.87 9.87 0 01-1.17 5.44 10.48 10.48 0 01-4.06 4.06 17.23 17.23 0 01-3.91 1.72 23.46 23.46 0 01-4.73.84 19.27 19.27 0 01-6.52-.42 13.29 13.29 0 01-5.07-2.65 14.53 14.53 0 01-2.3-2.43 17.93 17.93 0 01-1.78-3l3.2-3.57a30.17 30.17 0 001.61 2.72 11.35 11.35 0 001.71 2 8 8 0 002 1.38 9.56 9.56 0 002.54.78l5.64-13.41-8.28.74-.14-2.45 4.2-.35zm15.01-4.83l12.75-.87.72 14.41L163 338.3l5.83-.39-6.83 9.31 10.42 16.63-9.77 11.15L152 357.28l.83 16.65-12.83.87zm48.77 26l-15.49-28.31 14.89-.76 7.09 13.66 6.1-14.33 4.8-.25-14.95 35.67-5 .26zm29.99-12l-7.27 16.77-4.68.16 9.63-22.08-5.75-12.96 14.9-.5 14.68 34.4-14.3.48zm23.27-19.08l12.77-.16.1 7.37q1-.12 1.68-.15l1.38-.05a17.23 17.23 0 015.48.74 14.87 14.87 0 014.53 2.43 14.33 14.33 0 014.59 15.23 14.6 14.6 0 01-1.87 3.92 11.64 11.64 0 01-3.58 3.37 13.84 13.84 0 01-4.87 1.66l-1 .11-1 .12c-.34 0-.73.06-1.17.07h-4.15l-12.52.16zm13.2 32.25a12.53 12.53 0 003.38-5 17.37 17.37 0 001.19-6.63 16.29 16.29 0 00-1.36-6.44 12.16 12.16 0 00-3.51-4.74zm28.09-29.47l-7.9 10.94v-14.17l28.66.14v14.17l-8-11.07v31.73l-12.78-.06zm36.28 26.3l-14.12-29.36 14.91.31 6.42 14.15 6.78-13.87 4.81.1-16.64 34.52-5-.1zm21.63-28.59l15 .55 1.64.06c.44 0 .82.05 1.17.09l.95.14 1 .14a14 14 0 014.86 1.77 12.38 12.38 0 013.56 3.45 15.46 15.46 0 011.84 4 14.38 14.38 0 01.59 4.38 13.9 13.9 0 01-1.44 6 13.57 13.57 0 01-3.84 4.72 14.17 14.17 0 01-4.54 2.32 16.88 16.88 0 01-5.49.61c-.45 0-.91 0-1.38-.08s-1-.09-1.68-.19l-.14 7.37-12.78-.46zm12.28 25.71a12 12 0 003.54-4.66 16.09 16.09 0 001.4-6.41 17.29 17.29 0 00-1.15-6.65 12.72 12.72 0 00-3.35-5.07zM386 372.21l-12.76-.66 1-34.84 12.77.66-.36 12.22 5.66.29.36-12.22 12.77.65-1 34.84-12.77-.65.6-20.27-2.94 4.45-2.77-4.68zm36.91-16.66l19-14.87-1.31 34.82-12.76-.84.65-16.7-19.07 15.49 1.36-34.82 12.76.84zm24.42-14.47l12.75 1-.7 14.4L472 343.05l5.83.47-7.66 8.24 8.73 18-10.8 9.61-8.88-19.15-.81 16.65-12.76-1zm42.05 16.66l-4.58-13.59 14.87 1.42 11.67 36.07-14.27-1.36-2.44-7.1-4.63 7.48-3.82-8.34-3.63 6.58-4.68-.45zm4.62 13.49l-2.78-8.07-4.06 7.42z" fill="#231f20"/></g></g></svg>