<svg width="50" height="62" fill="none" xmlns="http://www.w3.org/2000/svg"><path d="M32.709 10.933c.057.029.397.203 1.022.058l.681-.174s.88.58.852 1.218c-.028.638-.284 2.813.029 3.654.312.84.965.812.965.812s-.085.637 0 1.479l.142 1.45s-.596.782-1.789.782c-2.044-.029-2.413-2.639-2.413-2.639s-.057 1.218.426 1.973a3 3 0 001.022.927s-1.789.725-2.84 1.972c-1.05 1.247-1.732 2.842-1.732 2.842s-3.946.61-5.678-.319c-1.76-.928-1.96-2.204-1.96-2.204s2.017-.377 3.89-3.334c1.903-2.959 1.051-3.77 2.953-4.234 1.818-.435 2.982 1.13 3.039 1.218-.057-.116-.909-1.77-2.102-1.827-1.22-.058-2.214.174-2.214.174l-.028-2.61s1.959-1.218 3.549-1.305c1.533-.087 3.634 1.305 3.776 1.392l-1.59-1.305zM26.15 9.425c.057.029 1.193.29 2.243.087 1.022-.203 3.152-1.45 3.918-1.45.739-.03 2.016.406 2.101.406a3.28 3.28 0 00-.567-.32c-.426-.202-1.023-.434-1.647-.405-.682.058-1.76.55-2.698.986-.624.29-1.192.522-1.476.522-2.385 0-2.3-1.102-2.3-1.102l3.265.174s-2.612-.551-2.98-.812c-.824-.522-.427-.957-.427-.957s1.477 1.16 3.407.696c1.931-.464 3.663-2.958 4.288-3.306.624-.319 1.817-.406 1.817-.406s-1.42-.203-1.988.116c-.568.319-3.095 3.48-5.054 3.364-2.498-.145-3.293-2.06-3.293-2.06s4.003.465 5.934-.753c1.902-1.189 3.918-3.19 5.593-3.306 1.675-.116 2.67 1.218 2.67 1.218s-1.08.087-1.477 1.015c-.398.928.17 1.914-.454 2.407-.625.493-1.023-.232-1.931.348-.909.55-.965 1.769-.965 1.769s.624-1.015 1.249-1.334c.51-.261 1.136-.145 1.59-.377a.62.62 0 00.255-.203c.426-.522.37-.9.37-.9s.71.407.652 1.103a1.406 1.406 0 01-.17.522 1.01 1.01 0 01-.454.377s.823-.087.852-.928c.028-.87-.824-1.392-.824-1.392s-.142-1.131.199-1.508c.34-.377 1.476-.638 1.476-.638s1.193.87 1.136 1.015c-.057.145-.085.377.057.667.113.29 1.874.84 1.817 1.13-.028.146-.398.407-.398.407s-.198-.058-.34.087c-.142.145 0 .348 0 .348s0-.203.113-.232c.114-.03.142-.03.142.087 0 .116.341.145.341.319 0 .174-.369.522-.369.522s.596-.03.681.145c.057.145-.227.232-.227.493 0 .29.568.348.454.696-.113.348-1.362.696-2.27.667-.853-.03-1.648-.522-1.704-.551.028.058.397.493.71.609.34.116 1.902.116 1.902.116s-2.215.87-3.663 3.103c-1.448 2.262-1.363 4.002-1.363 4.002s-.681-.087-.71-.986c-.028-.9.142-2.64 0-3.19-.142-.551-.88-1.45-.88-1.45s1.022-.203 1.675-.928c.653-.725.909-1.827.909-1.827l.624.203s.483.232.625.058c.142-.174-.142-.58-.142-.58s.057.435-.085.435c-.142.029-1.25-.32-1.391-.87-.114-.551.17-.725.34-.696.17 0 .313.232.313.232s.057-.29-.256-.406a.355.355 0 00-.34 0c-.17.087-.284.29-.341.638-.085.58.369.783.369.783s-.256 1.305-1.05 1.885c-.568.406-1.108.522-1.449.725 0 0-.17-.32-.596-.638-.426-.32-1.789-.493-2.896-.232-1.193.29-2.612.928-3.52.986-.796.058-1.364-.696-1.392-.725zm-4.997 14.441s-1.505 1.624-2.101 3.016c-.596 1.392-.511 3.19-.511 3.19l-.739 2.117s-3.492 3.973-4.145 5.365c-.568 1.247-3.265 4.495-5.253 6.09-1.675 1.334-5.792 8.061-6.218 8.525-.425.464-1.959 1.305-2.1 2.06-.143.753 1.533 2.754 2.072 3.566.54.783 1.278 3.161 2.271 3.8.994.637 2.499.29 2.67-.146.141-.435-.512-.899-1.023-1.566-.482-.667-.454-1.653-.454-1.653s.255-.116.37-.435c.113-.319-.171-1.798-.171-1.798s.965 1.595 1.42 2.204c.425.638.908 2.262 1.561 3.074.653.812 2.81.58 3.038.116.227-.464-.426-1.16-.909-1.595-.51-.435-.482-1.769-.482-1.769s.312-.26.312-.609c0-.348-.312-.522-.312-.522s.227-.319.227-.522c0-.232-.227-.493-.227-.493s.199-.087.199-.493c0-.377-.228-.609-.17-.725.056-.116-.03-.522 0-1.015.027-.493.283-1.13.283-1.13s3.123-2.93 5.736-5.336c2.612-2.407 8.29-6.612 8.29-6.612s.17.957.966.957c.795-.03 2.81-2.001 2.81-2.001s.2.058.455-.116c.255-.174.312-.493.312-.493l.511-.116c.17-.116.34-.406.34-.406s.37 0 .569-.145c.17-.145.255-.435.255-.435s.597-.435.994-.783c.398-.348 1.278-.87 1.278-.87s8.603-3.045 9.966-3.422c1.362-.377 6.7-1.305 6.7-5.162 0-4.118-7.637-3.45-7.637-3.45l-7.269.55s1.278-2.465 3.691-4.176c2.413-1.71 2.868-2.406 2.896-3.276 0 0-.34-3.538 1.193-5.597 1.505-2.06 4.316-3.422 4.316-3.422s.652-.29.567-.667c-.085-.377-.454-.406-.51-.638-.057-.203.283-.696.17-.783-.114-.116-.313-.116-.313-.116s.142-.29.057-.406c-.085-.116-.483-.174-.426-.32.029-.115.682-.405.54-.695-.142-.29-1.676-.812-1.846-1.16-.17-.348.029-.551-.057-.754-.085-.174-1.646-1.508-1.646-1.508S43.64.348 42.703.087c-.937-.26-3.89 1.015-3.89 1.015S37.65.203 35.974.435c-1.675.261-4.372 3.074-6.928 3.683-2.555.609-4.77.435-4.77.435s-.085.609.199 1.015c.284.406.71.696.71.696s-.284.435-.142.87c.142.406.51.783.51.783s-.34.26-.141.696c.199.435.454 1.914 2.243 2a4.055 4.055 0 001.476-.202c1.05-.32 1.931-.87 3.01-.841 1.562.029 2.073.55 2.073.55s-.313.465-1.221.436c-.88-.03-1.562-.493-3.18-.058l-.596.174c-1.392.464-2.67 1.073-2.67 1.073s-1.873 0-3.236.377c-1.363.377-1.988.754-2.47.783-.455.029-3.294-.03-3.975.145-.682.174-5.423 1.42-6.304 1.363-.88-.058-3.89-.377-4.798-.232-.937.145-1.988.638-2.243.638-.256 0-.398-.03-.398.087-.028.116.37.493.795.464.426-.03.653-.087.653-.087s.426.058.625 0 .483-.203.483-.203.34.232.568.203c.227-.03.653.087.653.087s-1.647.116-1.704.638c-.057.521.71.203 1.164.232.426.029 1.477.319 2.016.203.511-.116 1.505-.522 1.846-.493.312.029 5.366.521 6.814.521 1.448.03 4.713-.724 4.713-.724s1.221.058 2.243.087c1.022.058 2.47-.145 2.47-.145s-1.788 4.523-3.89 5.77c-1.59.928-1.873.986-1.93.957 0 .116.057.58.199.957.085.203.198.377.312.493zM2.442 57.07C1.988 56.403.88 54.808 1.05 54.2c.17-.639 1.306-1.277 1.306-1.277s.369.406.738.61c.37.202.653.202.653.318 0 .116-.028.986-.028.986s-.313.29-.313.667c0 .377.227.522.227.522s-.227.232-.17.58c.057.348.256.464.256.464s-.17.261-.142.58c.028.32.369.464.369.464l1.192-.058s-.113.841.227 1.537c.398.812 1.278 1.508 1.136 1.682-.255.29-1.817.174-2.243-.522-.426-.638-1.363-3.016-1.817-3.683zm.284-4.466l.312-.696s.426.667 1.08.783c.652.116 1.646-.232 1.646-.232s-.852 1.682-.738 2.06c.113.405-.937.405-.937.057 0-.348.227-1.044 0-1.102-.227-.087-.682-.145-.937-.406-.256-.29-.426-.464-.426-.464zm1.647-.435c-1.08-.145-.909-.986-.909-.986s4.344-6.176 4.855-6.67c.511-.492 2.84-2.464 2.84-2.464l.028 1.827s2.555-5.336 3.294-6.554c.738-1.19 3.549-4.553 3.549-4.553l6.076 1.131s-.909 2.175-1.164 2.755c-.256.58-.966.957-1.675 1.624-.71.667-1.136 1.71-1.136 1.71s-6.843 5.772-7.922 6.7c-1.079.928-5.678 5.161-5.678 5.161s-1.08.464-2.158.32zm-.625 3.393c0-.145.085-.26.227-.26l1.022-.059h.029c.142 0 .227.116.255.232 0 .145-.085.261-.227.261l-1.022.058h-.028c-.142.03-.256-.087-.256-.232zm.028 1.015c0-.145.086-.26.228-.26l1.022-.059h.028c.142 0 .256.116.256.232 0 .145-.086.261-.228.261l-1.022.058h-.028c-.142 0-.256-.116-.256-.232zm.086 1.015c0-.145.085-.26.227-.26l1.022-.059h.028c.142 0 .256.116.256.232 0 .145-.085.261-.227.261l-1.022.058h-.029c-.142 0-.255-.116-.255-.232zm.681-42.657c-.227-.116 1.42-.522 1.42-.522s3.804.58 4.6.493c.823-.087 6.132-1.537 6.842-1.537s3.01.319 3.861.116c.824-.203 1.818-.9 2.953-1.102 1.108-.203 2.215-.203 2.215-.203v2.58s-1.022.697-2.499.58c-1.476-.115-4.372-.202-4.372-.202l1.476.377s-3.237.58-4.6.464c-1.362-.116-5.167-.464-5.99-.464-1.022 0-2.016.725-2.414.696-.397-.03-1.362-.261-1.533-.232-.17.058-.54.145-.54 0s2.357-.29 2.357-.29-1.22-.638-1.618-.696c-.37-.058-1.05-.232-1.05-.232s-.91.29-1.108.174zm2.84 42.106c-.455-.667-1.562-2.262-1.392-2.87.17-.639 1.306-1.277 1.306-1.277s.37.406.738.61c.37.202.653.202.653.318 0 .116-.028.986-.028.986s-.312.29-.312.638c0 .348.227.522.227.522s-.227.232-.17.58c.056.348.255.464.255.464s-.17.261-.142.58c.028.32.37.464.37.464l1.192-.058s-.114.841.227 1.537c.397.812 1.277 1.508 1.136 1.682-.256.29-1.818.174-2.244-.522-.425-.638-1.362-3.016-1.817-3.654zm.312-4.495l.312-.696s.426.667 1.079.783c.653.116.965-.058.965-.058s-.17 1.48-.057 1.885c.114.406-.936.406-.936.058 0-.348.227-1.044 0-1.102-.228-.087-.682-.145-.937-.406a7.76 7.76 0 01-.426-.464zm1.448-.435c-.767-.232-1.05-.928-1.05-.928s6.33-5.654 8.034-7.104c1.704-1.45 4.515-3.393 4.515-3.393s.113.435.738.493c.625.058 2.84-1.914 2.84-1.914s.624-.087.766-.261c.142-.174.199-.493.199-.493s.142.058.369-.058.454-.116.483-.116c0 0-.426.638-.824.957-.426.348-.397.84-.397.84s-7.127 5.482-7.78 6.12c-.653.638-6.275 5.683-6.275 5.683s-.852.406-1.618.174zm-.455 3.422c0-.145.086-.26.228-.26l1.022-.059h.028c.142 0 .256.116.256.232 0 .145-.086.261-.228.261l-1.022.058h-.028c-.142 0-.256-.116-.256-.232zm.029.986c0-.145.085-.26.227-.26l1.022-.059h.028c.142 0 .256.116.256.232 0 .145-.085.261-.227.261L9 56.751h-.029c-.142 0-.255-.087-.255-.232zm.085 1.015c0-.145.085-.26.227-.26l1.022-.059h.029c.142 0 .255.116.255.232 0 .145-.085.261-.227.261l-1.022.058h-.028c-.142 0-.256-.087-.256-.232zm9.426-25.229l.682-1.682c.199.957 1.647 2.117 1.647 2.117l-2.329-.435zm1.023-3.16c0-2.93 2.328-4.728 2.328-4.728s.965 1.305 2.584 1.74c1.646.406 4.628.03 4.628.03l-1.023 2.435-2.384.812 2.1 1.044.086 2.407-.739.116s-.71-.696-1.334-.522c-.625.174-.994.754-.994.754s-5.252-.261-5.252-4.089zm2.186 11.512c-.398-.03-.568-.493-.284-1.247.199-.522 1.25-1.363 1.93-2.088.256-.29.483-.522.54-.754.256-.754 1.25-3.074 1.846-3.277.596-.203 1.107.261 1.107.261s-.114.522-.085.957c.028.435.198.667.113.725-.085.058-.795.522-.795.522s-.425-.116-.71.116c-.283.203-.283.493-.283.493s-.313-.058-.568.203c-.256.26-.227.493-.227.493s-.313 0-.54.232l-.057.058c-.17.203-.113.522-.113.522l.738.957c.028 0-2.215 1.885-2.612 1.827zm2.243-2.813a.418.418 0 01-.057-.174c0-.087.028-.145.085-.203a.265.265 0 01.37.029l.624.812c.028.058.057.116.057.174a.266.266 0 01-.085.203c-.114.087-.256.087-.37-.03l-.624-.811zm.795-.667a.41.41 0 01-.057-.174c0-.087.029-.145.085-.203a.265.265 0 01.37.029l.624.812a.418.418 0 01.057.174.266.266 0 01-.085.203c-.114.087-.256.087-.37-.03l-.624-.811zm.766-.58c-.028-.058-.056-.116-.056-.174 0-.087.028-.145.085-.203.114-.087.255-.058.369.029l.625.812a.418.418 0 01.056.174.266.266 0 01-.085.203c-.113.087-.255.058-.369-.03l-.625-.811zm.37 4.553c-.398-.03-.568-.493-.284-1.247.284-.754 2.214-2.088 2.47-2.842.057-.145.142-.377.227-.61.37-.202.767-.405 1.136-.58.51-.231 1.05-.29 1.561-.492.057.26.114.29.029.319-.085.058-.795.522-.795.522s-.426-.116-.71.116c-.284.203-.284.493-.284.493s-.312-.058-.568.203c-.255.26-.227.493-.227.493s-.312 0-.54.232c-.227.203-.142.58-.142.58l.739.957c0 .029-2.243 1.885-2.612 1.856zm1.249-4.437c-.256.319-.88-.551-.568-.754.284-.203.965-.406.88-.638-.085-.232-.284-.638-.227-1.015.057-.377.114-.609.114-.609l.738-.145s-.284.754 0 1.363.596.783.596.783-1.278.696-1.533 1.015zm1.391-6.496l-1.363-.609 1.477-.435 1.306-3.103s8.092-1.189 11.499-1.073c3.407.116 3.435 2.871 3.435 2.871 0 2.06-2.896 3.973-6.927 5.104l-8.887 2.494s-.54-.377-.653-.899c-.114-.493 0-1.044 0-1.044s1.164-.435 1.987-1.044c.823-.58 2.868-2.58 4.515-3.103 1.675-.522 4.514-.435 4.514-.435s-3.294-.55-4.855-.145c-1.562.406-4.23 3.045-4.685 3.277-.568.29-1.278.725-1.278.725l-.085-2.58zm-.397 8.12a.418.418 0 01-.057-.174c0-.087.028-.145.085-.203.114-.087.256-.058.37.029l.624.812c.028.058.057.116.057.174a.266.266 0 01-.086.203c-.113.087-.255.058-.369-.03l-.624-.811zm.766-.667a.418.418 0 01-.056-.174c0-.087.028-.145.085-.203.113-.087.255-.058.369.029l.624.812a.417.417 0 01.057.174.266.266 0 01-.085.203c-.114.087-.256.058-.37-.03l-.624-.811zm.767-.61a.418.418 0 01-.057-.173c0-.087.029-.145.085-.203.114-.087.256-.058.37.029l.624.812a.418.418 0 01.057.174.266.266 0 01-.085.203c-.114.087-.256.058-.37-.03l-.624-.811zm4.685-12.266l-4.373.522s1.221-2.58 2.499-3.422c1.277-.84 1.902-1.218 1.902-1.218s.596.261 1.477-.174c.88-.435 1.164-.812 1.164-.812s-.057-4.93.624-6.292c.966-1.914 1.817-2.465 1.817-2.465s.625.174.625.87-.426 2.465-.085 3.422c.312.928 1.192 1.856 1.192 1.856s-.142 1.015-1.135 1.797c-1.562 1.247-2.499 1.856-3.55 2.9-1.05 1.015-2.157 3.016-2.157 3.016zm-3.038 12.383c-.256.319-.88-.551-.568-.754.284-.203.965-.406.88-.638-.028-.116-.114-.29-.17-.493.227-.087.369-.145.596-.203.028.087.795.957.795.957s-1.278.812-1.533 1.13zm1.959-1.305l-.795-.986 5.054-1.421s8.092-1.914 8.006-5.655c0-2.262-2.64-3.016-2.64-3.016s6.587-.928 6.587 2.987c0 3.393-3.776 3.683-7.098 4.843-3.038 1.102-9.114 3.248-9.114 3.248zm6.672-34.103l-.227-.377S40.829.29 42.022.377c1.192.087 1.391.61 1.192.841-.142.174-.397-.232-1.05-.203a1.65 1.65 0 00-1.023.348c.057-.029.568-.232.91-.174.368.058.425.232.311.29-.113.087-.227.029-.34.116-.085.087.028.261-.142.261-.17 0-.085-.261-.767-.261-.681 0-.908.261-.908.261s.795-.174.965-.116c.17.087.369.116.369.406 0 .29-.114.319-.17.667-.057.348.028 1.247.028 1.247s-.511-.203-.454-.667c.028-.348.085-.406-.085-.609-.086-.116-.483-.464-.795-.725-.227-.145-.398-.29-.398-.29zm-.17 8.787s.369-.406 1.05-.928c.455-.348 1.505-.783 2.13-1.073.312-.145.51-.348.51-.348s.342.26.853.377c.51.116 1.845-.145 1.845-.145s-2.158 1.276-3.435 2.9c-1.306 1.653-1.221 4.756-1.363 4.785-.142.029-.909-1.015-.966-1.392-.113-.61.029-1.972.086-2.813.085-.841-.71-1.363-.71-1.363zm2.1-6.612c-.198-.406.058-1.508.739-1.856.681-.348 1.278-.348 1.278-.348s1.42 1.015 1.391 1.189c-.028.174-.085.667.085.812.17.145 1.846.696 1.789.928-.057.232-.398.464-.398.464s-.283 0-.34.058c-.057.087 0 .406 0 .406s.056-.232.113-.261c.057-.03.483.406.483.406l-.284.609c.028 0 .483-.174.483-.058 0 .116-.142.26-.17.377-.029.116-.029.406.084.522.114.116.341 0 .398.29.085.522-2.328.899-3.01.754-.653-.145-1.135-.667-1.277-.754-.114-.087-.284-.145-.284-.348 0-.203.255-.261.199-.493-.029-.232-.455-.232-.455-.232s.313-.32.227-.464c-.085-.145-.312-.145-.397-.261-.085-.116.568-.464.51-.696.03-.203-.993-.638-1.163-1.044z" fill="#897421"/><path d="M1.05 54.2c-.17.637.937 2.232 1.392 2.87.454.667 1.39 3.016 1.817 3.712.426.667 1.987.812 2.243.522.142-.174-.738-.87-1.136-1.682-.34-.696-.227-1.537-.227-1.537l-1.192.058s-.341-.145-.37-.464c-.028-.319.142-.58.142-.58s-.198-.116-.255-.464c-.057-.348.17-.58.17-.58s-.227-.145-.227-.522.312-.667.312-.667.029-.87.029-.986c0-.116-.256-.087-.653-.319-.398-.232-.738-.609-.738-.609S1.22 53.59 1.05 54.2z" fill="#FCD672"/><path d="M3.067 51.908l-.313.696.426.435c.256.261.71.32.937.406.227.087 0 .754 0 1.102 0 .348 1.05.348.937-.058-.114-.406.738-2.059.738-2.059s-.994.348-1.647.232c-.653-.087-1.078-.754-1.078-.754z" fill="#FCD672"/><path d="M3.464 51.154s-.17.87.909.986c1.079.145 2.13-.319 2.13-.319s4.57-4.233 5.678-5.161c1.079-.928 7.921-6.7 7.921-6.7s.426-1.043 1.136-1.71 1.448-1.044 1.675-1.624c.256-.58 1.164-2.755 1.164-2.755l-6.076-1.131s-2.81 3.364-3.549 4.553c-.738 1.189-3.293 6.554-3.293 6.554l-.029-1.827s-2.328 1.972-2.84 2.465c-.482.493-4.826 6.67-4.826 6.67zm.511 4.147c-.142 0-.255.145-.227.261 0 .145.114.232.256.232h.028l1.022-.058c.142 0 .256-.145.227-.26 0-.146-.113-.233-.255-.233h-.029l-1.022.058zm.029.986c-.142 0-.256.145-.228.261 0 .145.114.232.256.232h.028l1.023-.058c.142 0 .255-.145.227-.26 0-.146-.114-.233-.256-.233h-.028l-1.022.058z" fill="#FCD672"/><path d="M4.089 57.302c-.142 0-.256.145-.227.261 0 .145.113.232.255.232h.029l1.022-.058c.142 0 .255-.145.227-.26 0-.146-.114-.233-.255-.233h-.03l-1.022.058z" fill="#FBCF0B"/><path d="M5.934 14.413s-1.618.406-1.42.522c.228.116 1.165-.203 1.165-.203s.681.174 1.05.232c.37.058 1.619.696 1.619.696s-2.357.174-2.357.29c0 .145.37.058.54 0 .17-.058 1.135.203 1.533.232.397.029 1.391-.696 2.413-.696.824 0 4.6.348 5.991.464 1.363.116 4.6-.464 4.6-.464l-1.477-.377s2.896.087 4.373.203c1.476.116 2.498-.58 2.498-.58V12.18s-1.107 0-2.242.203c-1.136.203-2.13.899-2.953 1.102-.824.203-3.152-.116-3.862-.116s-6.02 1.45-6.843 1.537c-.823.087-4.628-.493-4.628-.493zM5.99 54.17c-.17.638.938 2.233 1.392 2.871.454.667 1.391 3.016 1.817 3.683.426.667 1.988.812 2.243.522.142-.174-.738-.87-1.135-1.682-.341-.696-.228-1.537-.228-1.537l-1.192.058s-.34-.145-.37-.464c-.028-.319.143-.58.143-.58s-.199-.116-.256-.464c-.057-.348.17-.58.17-.58s-.227-.145-.227-.522.313-.638.313-.638.028-.87.028-.986c0-.116-.255-.087-.653-.319-.397-.232-.738-.609-.738-.609s-1.136.61-1.306 1.247z" fill="#FCD672"/><path d="M8.007 51.85l-.312.696.425.435c.256.261.71.32.937.406.228.087 0 .754 0 1.102 0 .348 1.05.348.937-.058-.113-.406.057-1.885.057-1.885s-.312.174-.965.058c-.653-.087-1.08-.754-1.08-.754z" fill="#FEE461"/><path d="M8.092 51.184s.284.696 1.05.927c.767.232 1.562-.26 1.562-.26s5.622-5.046 6.275-5.684c.653-.638 7.78-6.12 7.78-6.12s0-.492.397-.84c.426-.348.824-.957.824-.957-.029 0-.256 0-.483.116-.227.116-.37.058-.37.058s-.084.319-.198.493c-.142.174-.767.26-.767.26s-2.214 1.973-2.839 1.915c-.625-.058-.738-.493-.738-.493s-2.84 1.972-4.515 3.393c-1.675 1.42-7.978 7.192-7.978 7.192zm.824 4.059c-.142 0-.256.145-.227.261 0 .145.113.232.255.232h.029l1.022-.058c.142 0 .255-.145.227-.26 0-.146-.114-.233-.256-.233h-.028l-1.022.058zm.028.987c-.142 0-.255.144-.227.26 0 .145.113.232.255.232h.029l1.022-.058c.142 0 .255-.145.227-.26 0-.146-.113-.233-.255-.233h-.029l-1.022.058z" fill="#FCD672"/><path d="M9.029 57.273c-.142 0-.256.145-.227.261 0 .145.113.232.255.232h.029l1.022-.058c.142 0 .255-.145.227-.26 0-.146-.114-.233-.256-.233h-.028l-1.022.058z" fill="#FBCF0B"/><path d="M18.91 30.623l-.682 1.682 2.329.435s-1.448-1.16-1.647-2.117z" fill="#8D7632"/><path d="M21.579 24.418s-2.329 1.797-2.329 4.726c0 3.828 5.282 4.09 5.282 4.09s.369-.58.993-.755c.625-.174 1.335.522 1.335.522l.738-.116-.085-2.407-2.101-1.044 2.385-.812 1.022-2.436s-2.981.377-4.628-.029c-1.647-.435-2.612-1.74-2.612-1.74zm-.398 14.992c-.284.754-.113 1.218.284 1.247.398.029 2.64-1.827 2.64-1.827l-.737-.957s-.086-.32.113-.522h-.34c-.71.696-1.76 1.537-1.96 2.059z" fill="#FCD672"/><path d="M34.3 12.238c-.143-.087-2.244-1.45-3.777-1.392-1.562.087-3.55 1.305-3.55 1.305l.03 2.61s.965-.232 2.214-.175c1.192.059 2.073 1.711 2.1 1.827-.056-.087-1.22-1.681-3.037-1.218-1.874.464-1.05 1.305-2.925 4.263-1.874 2.987-3.89 3.335-3.89 3.335s.2 1.276 1.96 2.204c1.76.928 5.678.32 5.678.32s.682-1.596 1.732-2.843c1.05-1.247 2.84-1.972 2.84-1.972s-.654-.319-1.023-.928c-.482-.725-.426-1.972-.426-1.972s.398 2.61 2.414 2.64c1.192.028 1.789-.784 1.789-.784s-.029-.58-.142-1.45c-.086-.87 0-1.479 0-1.479s-.625.03-.966-.812c-.312-.84-.056-3.015-.028-3.653.028-.638-.852-1.218-.852-1.218l-.681.174c-.625.145-.966-.03-1.023-.058l1.562 1.276zM23.084 37.322h.34c0-.03.029-.03.057-.058.227-.203.54-.232.54-.232s-.029-.232.227-.493c.255-.261.567-.203.567-.203s0-.29.284-.493.71-.116.71-.116.71-.493.795-.522c.085-.058-.085-.29-.113-.725-.029-.435.085-.957.085-.957s-.511-.464-1.107-.261c-.597.203-1.562 2.523-1.846 3.277-.057.26-.256.522-.54.783zm.539.377c0 .058.029.116.057.174l.625.812c.085.116.255.116.369.029a.266.266 0 00.085-.203.41.41 0 00-.057-.174l-.624-.812c-.086-.116-.256-.116-.37-.03a.334.334 0 00-.085.204zm.795-.667a.41.41 0 00.057.174l.624.812c.086.116.256.116.37.029a.266.266 0 00.085-.203.418.418 0 00-.057-.174l-.625-.812c-.085-.116-.255-.116-.369-.029a.266.266 0 00-.085.203zm.767-.609a.41.41 0 00.057.174l.624.812c.085.116.256.116.37.029a.266.266 0 00.085-.203.418.418 0 00-.057-.174l-.625-.812c-.085-.116-.255-.116-.369-.029a.317.317 0 00-.085.203zm.142 3.48c-.284.754-.114 1.218.284 1.247.397.029 2.64-1.827 2.64-1.827l-.738-.957s-.085-.377.142-.58c.227-.203.54-.232.54-.232s-.029-.232.227-.493c.255-.261.567-.203.567-.203s0-.29.284-.493.71-.116.71-.116.71-.493.795-.522c.085-.03.029-.087-.028-.32-.511.204-1.05.29-1.562.494-.397.174-.766.377-1.136.58-.113.232-.17.464-.227.609-.284.725-2.214 2.059-2.498 2.813zM24.73 4.988s.796 1.885 3.294 2.059c1.96.116 4.486-3.074 5.054-3.364.568-.29 1.988-.116 1.988-.116s-1.165.087-1.818.406c-.624.319-2.356 2.842-4.287 3.306-1.93.464-3.407-.696-3.407-.696s-.37.435.426.957c.426.232 3.01.783 3.01.783l.539.377c.937-.406 2.016-.928 2.697-.986.625-.03 1.221.174 1.647.406l.284-.493s.057-1.19.965-1.77c.909-.55 1.306.146 1.931-.347s.085-1.45.455-2.407c.397-.928 1.476-1.015 1.476-1.015S37.99.754 36.314.87c-1.674.116-3.69 2.117-5.62 3.335-1.932 1.247-5.963.783-5.963.783z" fill="#FCD672"/><path d="M25.752 8.12s-.085 1.102 2.3 1.102c.284 0 .824-.232 1.477-.522l-.511-.377-3.266-.203zm.54 27.81c-.284.203.312 1.073.568.754.255-.32 1.533-1.044 1.533-1.044s-.312-.174-.596-.783c-.284-.61 0-1.363 0-1.363l-.739.145s-.056.232-.113.609.142.783.227 1.015c.085.26-.596.464-.88.667zm.568-6.322l1.363.61.085 2.551s.71-.435 1.277-.725c.455-.232 3.124-2.87 4.685-3.277 1.562-.406 4.855.145 4.855.145s-2.867-.087-4.514.435c-1.675.522-3.691 2.523-4.514 3.103-.824.58-1.988 1.044-1.988 1.044s-.114.551 0 1.044.653.899.653.899l8.887-2.494c4.032-1.13 6.928-3.045 6.928-5.104 0 0-.029-2.755-3.436-2.87-3.407-.117-11.499 1.072-11.499 1.072l-1.306 3.103-1.476.464z" fill="#FCD672"/><path d="M34.413 8.468c-.085-.03-1.335-.435-2.101-.406-.767.029-2.896 1.247-3.919 1.45-1.079.203-2.186-.087-2.243-.087.029.058.597.783 1.448.754.88-.03 2.3-.696 3.521-.986 1.107-.261 2.47-.087 2.896.232.426.319.596.638.596.638.341-.203.88-.32 1.448-.725.767-.551 1.051-1.885 1.051-1.885s-.454-.203-.37-.783c.058-.348.171-.551.342-.638l-.057-.116c-.454.232-1.08.116-1.59.377-.653.319-1.25 1.334-1.25 1.334l-.283.493c.255.174.482.319.51.348zm-6.616 29.695a.41.41 0 00.057.174l.624.812c.085.116.256.116.37.029a.266.266 0 00.085-.203c0-.058-.029-.116-.057-.174l-.625-.812c-.085-.116-.255-.116-.369-.03a.266.266 0 00-.085.204zm.766-.667c0 .058.029.116.057.174l.625.812c.085.116.255.116.369.029a.266.266 0 00.085-.203.418.418 0 00-.057-.174l-.625-.812c-.085-.116-.255-.116-.369-.03a.317.317 0 00-.085.204zm.767-.58c0 .058.029.116.057.174l.625.812c.085.116.255.116.369.029a.266.266 0 00.085-.203c0-.058-.029-.116-.057-.174l-.625-.812c-.085-.116-.255-.116-.369-.03-.056.03-.085.117-.085.204zm.369-11.6l4.372-.522s1.108-2 2.158-3.015c1.08-1.044 2.016-1.653 3.55-2.9.965-.783 1.135-1.798 1.135-1.798s-.88-.928-1.192-1.856c-.313-.928.085-2.726.085-3.422 0-.696-.625-.87-.625-.87s-.88.522-1.817 2.465c-.681 1.363-.625 6.293-.625 6.293s-.255.377-1.164.812c-.88.434-1.476.174-1.476.174s-.625.377-1.903 1.218c-1.277.84-2.498 3.421-2.498 3.421zm.738 11.107c-.284.203.312 1.073.568.754.255-.319 1.533-1.16 1.533-1.16s-.766-.84-.795-.957c-.227.058-.369.145-.596.203.057.174.113.348.17.493.085.261-.568.464-.88.667zm1.761-1.537l.795.986s6.076-2.146 9.142-3.219c3.322-1.189 7.099-1.45 7.099-4.843-.029-3.944-6.616-3.016-6.616-3.016s2.669.754 2.64 3.016c.086 3.741-8.006 5.655-8.006 5.655l-5.054 1.421z" fill="#FCD672"/><path d="M34.782 10.382s.738.899.88 1.45c.142.522-.028 2.29 0 3.19.028.899.71.986.71.986s-.114-1.74 1.363-4.002c1.448-2.262 3.662-3.103 3.662-3.103s-1.561 0-1.902-.116c-.312-.116-.681-.58-.71-.61l-.17-.26c-.142.174-.625-.058-.625-.058l-.596-.232s-.256 1.102-.909 1.827c-.653.725-1.703.928-1.703.928z" fill="#FCD672"/><path d="M37.337 6.177c-.199 0-.483.145-.341.696.114.55 1.25.87 1.391.87.142-.03.085-.435.085-.435s.313.406.142.58l.17.232c.058.029.852.522 1.704.55.88.03 2.158-.318 2.272-.666.113-.348-.454-.406-.454-.696 0-.29.283-.348.227-.493-.057-.145-.682-.145-.682-.145s.37-.348.37-.522c0-.174-.341-.203-.341-.319 0-.116-.057-.116-.142-.087-.114.029-.114.232-.114.232s-.142-.232 0-.348c.142-.145.34-.087.34-.087s.37-.261.398-.406c.057-.261-1.703-.841-1.817-1.131-.114-.29-.114-.493-.057-.667.057-.145-1.135-1.015-1.135-1.015s-1.136.261-1.477.638c-.34.377-.199 1.508-.199 1.508s.852.522.824 1.392c-.029.87-.852.928-.852.928s.256-.087.454-.377h-.454c-.028 0-.142-.232-.312-.232zm2.47-2.001c-.227.348-.312.841-.312.841s.085-.841.284-1.102c.198-.29.567-.551.652-.377.057.174-.369.29-.624.638zm.057.841l.568-.928.085.174.255.232h.114s.057.116-.199.319c-.227.203-.823.203-.823.203z" fill="#FCD672"/><path d="M36.968 5.916l.057.116a.355.355 0 01.34 0c.313.116.256.406.256.406h.454c.085-.145.142-.29.17-.522.086-.696-.653-1.102-.653-1.102s.057.377-.369.899a.62.62 0 01-.255.203zm2.47-4.524l.227.377s.17.145.369.319l.199-.232s.227-.261.908-.261v-.232c.057-.03.426-.348 1.022-.348.654 0 .909.377 1.051.203.199-.232 0-.754-1.192-.841-1.193-.087-2.584 1.015-2.584 1.015z" fill="#FCD672"/><path d="M39.495 5.017s.085-.493.312-.841c.227-.348.681-.464.596-.638-.056-.174-.454.087-.653.377-.17.261-.255 1.102-.255 1.102z" fill="#897421"/><path d="M40.545 9.628c-.681.522-1.05.928-1.05.928s.795.522.738 1.363c-.057.84-.199 2.204-.085 2.813.057.377.823 1.42.965 1.392.142-.03.057-3.132 1.363-4.785 1.278-1.624 3.436-2.9 3.436-2.9s-1.335.26-1.846.145c-.511-.116-.852-.377-.852-.377s-.17.203-.51.348c-.654.29-1.704.725-2.159 1.073z" fill="#FCD672"/><path d="M40.375 4.35c-.029.03-.057.145.056.261.114.145.284-.029.284-.029s.114.029-.17.174c-.284.145-.483.145-.483.145l.313-.55zm.056-.29l-.567.928s.596 0 .823-.203c.256-.203.199-.319.199-.319h-.114l-.255-.232-.086-.174z" fill="#897421"/><path d="M40.375 4.35l-.34.551s.198 0 .482-.145.17-.174.17-.174-.17.174-.284.029c-.085-.116-.028-.232-.028-.261z" fill="#FBCF0B"/><path d="M40.261 1.856l-.198.232c.312.26.681.609.795.725.142.203.113.26.085.609-.057.435.454.667.454.667s-.085-.9-.028-1.247c.057-.348.17-.348.17-.667 0-.32-.17-.348-.369-.406-.17-.087-.909.087-.909.087zm.881-.493v.232c.681 0 .596.232.766.26.17 0 .029-.173.142-.26.085-.087.227-.03.34-.116.114-.087.03-.232-.311-.29-.341-.058-.852.145-.937.174.028 0 0 0 0 0zm5.309 4.987l.284-.608s-.426-.435-.483-.406c-.056.029-.113.26-.113.26s-.057-.318 0-.405c.057-.087.34-.058.34-.058s.341-.232.398-.464c.057-.232-1.618-.783-1.789-.928-.17-.145-.113-.667-.085-.812.029-.174-1.391-1.189-1.391-1.189s-.596 0-1.278.348c-.681.348-.908 1.479-.738 1.856.199.406 1.192.87 1.25 1.073.028.232-.597.55-.512.696.085.116.313.116.398.26.085.146-.227.465-.227.465s.425 0 .454.232c.028.232-.199.29-.199.493s.142.26.284.348c.114.087.596.58 1.278.754.653.145 3.094-.203 3.01-.754-.057-.32-.285-.174-.398-.29-.114-.116-.142-.406-.085-.522.028-.116.198-.261.17-.377-.085-.145-.54 0-.568.029zm-2.3-1.565h-.369s.085-.841.284-1.102c.199-.29.568-.551.653-.377.057.116-.113.203-.312.348l.312.203.085.174.256.232h.113s.057.145-.198.377c-.256.203-.824.145-.824.145z" fill="#FCD672"/><path d="M43.782 4.785h.37l.539-.928-.313-.203a1.361 1.361 0 00-.284.29 2.876 2.876 0 00-.312.84z" fill="#998543"/><path d="M43.782 4.785s.085-.493.312-.841c.085-.116.2-.203.284-.29.199-.145.37-.232.313-.348-.057-.174-.455.087-.653.377-.17.29-.256 1.102-.256 1.102zm.881-.638c-.029.029-.057.145.056.26.114.146.284-.028.284-.028s.114.029-.17.174c-.284.145-.483.145-.483.145l.313-.551zm.028-.29l-.54.928s.568.029.824-.174c.255-.203.199-.377.199-.377h-.114l-.256-.232-.113-.145z" fill="#897421"/><path d="M44.662 4.147l-.34.55s.198 0 .482-.144c.284-.145.17-.174.17-.174s-.17.203-.283.029c-.114-.116-.057-.232-.029-.261z" fill="#FEE461"/><path d="M37.564 6.612s-.199-.116-.34 0c-.142.116-.057.435.141.551.2.116.597.29.597.29s-.71-.435-.597-.667c.114-.203.2-.174.2-.174z" fill="#8D7632"/><path d="M24.22 33.697s-1.165 2.842-1.363 3.074c-.2.232-1.76 1.566-1.931 1.798-.17.232-.71 1.218-.71 1.218s-5.963 5.133-6.616 5.655c-.624.522-7.211 6.437-7.211 6.437s-.966.261-1.25.261c-.284 0-.908-.029-.908-.029s4.798-5.335 6.445-6.64c1.618-1.305 2.215-1.131 2.697-1.653.511-.522 2.67-4.785 3.947-6.554 1.278-1.77 2.754-4.176 2.754-4.176l4.145.609zm1.788 4.553s-.426.58-.682.84c-.255.262-.369.262-.425.494a2.354 2.354 0 00-.114.464s-6.871 5.365-7.183 5.597c-.284.232-6.446 6.002-6.872 6.205-.425.203-.766.348-1.277.348-.511 0-.738-.29-.738-.29s7.552-5.915 8.347-7.046c.795-1.131 3.861-3.857 3.861-3.857s.341.203.54.145c.199-.058.909-.435 1.42-.841a81.337 81.337 0 001.306-1.073s.624-.116.71-.232c.085-.116.255-.58.255-.58l.852-.174zm2.215-3.364s0 .087.17.261c.17.174.34.319.34.319s7.95-2.233 8.291-2.32c.341-.087 7.524-1.798 7.553-5.249 0-3.277-4.373-3.306-8.49-2.61l-6.445.783-.51 1.247s8.432-2.117 10.93-1.71c2.527.405 2.556 1.043 2.556 1.043l-1.05-.26s1.248.666 1.135 1.623c-.114.957-1.618.986-1.618.986l1.277.29s-2.356 2.291-6.331 3.074c-3.947.812-7.808 2.523-7.808 2.523z" fill="#F6DFA4"/><path d="M42.618 24.794s3.634-.55 5.622.9c1.987 1.45.568 3.943.142 4.35-.454.405-1.391 1.043-2.442 1.391-1.05.348-4.06 1.276-4.855 1.566-.795.29-8.092 2.87-8.092 2.87l-.34-.405 9.766-3.335s4.117-1.218 4.628-2.958c.511-1.74-.51-2.32-.51-2.32l1.021.116c0-.029-1.164-2.059-4.94-2.175zM32.255 35.698l.312.348s-.88.551-1.107.725c-.227.203-.341.464-.568.464-.227 0-.511-.464-.511-.464l1.874-1.073zm-2.158 2.088c.198 0 .284-.232.198-.377a.277.277 0 01.2.26c0 .175-.114.29-.285.29a.287.287 0 01-.284-.29c.029.088.086.117.17.117zm-.796.58c.2 0 .284-.232.2-.377a.278.278 0 01.198.26c0 .175-.114.29-.284.29a.287.287 0 01-.284-.29c.028.088.114.117.17.117zm-.766.667c.199 0 .284-.232.199-.377a.278.278 0 01.199.26c0 .175-.114.29-.284.29a.287.287 0 01-.284-.29c.028.088.085.117.17.117zm-.54-.029s-1.788 1.827-2.271 1.798c-.483-.03-.483-.638-.483-.638s-.227.899.37.986c.596.087 2.64-1.827 2.64-1.827l-.256-.32zm-.028-3.857s0 .029.114.145c.113.116.34.377.34.377s-.908.55-1.107.667c-.17.116-.426.406-.511.406a.443.443 0 01-.37-.174 1.788 1.788 0 01-.198-.348l1.732-1.073zm-2.044 2.175c.199 0 .284-.232.199-.377a.278.278 0 01.199.26c0 .175-.114.29-.284.29a.288.288 0 01-.284-.29c.028.059.113.117.17.117zm-.767.551c.199 0 .284-.232.199-.377a.278.278 0 01.199.26c0 .175-.114.29-.284.29a.287.287 0 01-.284-.29c.028.088.085.117.17.117zm-.766.667c.198 0 .284-.232.198-.377a.277.277 0 01.2.26c0 .175-.114.29-.285.29a.287.287 0 01-.284-.29c.029.088.086.117.17.117zm-.596 0s-1.79 1.827-2.272 1.798c-.482-.029-.426-.754-.426-.754s-.284.986.313 1.073c.596.087 2.64-1.827 2.64-1.827l-.255-.29zm15.701-27.375s.199 0 .312.405c.114.493-.312 2.407-.17 3.074.142.667.255 1.073.625 1.566.369.493.681.87.681.87s-.227 1.537-2.13 2.552c-.539.29-2.27 1.682-3.123 2.755-.851 1.073-1.618 2.378-1.618 2.378l-.966.116s1.505-2.842 2.329-3.509c.851-.638 3.946-3.306 3.946-3.306s-1.703-1.624-1.561-3.306c.142-1.681.085-1.392.085-1.392l1.59-2.203z" fill="#F6DFA4"/><path d="M34.441 10.846s.625.26.823.957c.2.696-.284 2.407-.028 3.45.256 1.044.625 1.131.625 1.131l.426.145s-.086.552 0 1.393c.085.84.142 1.536.142 1.536s-3.18-.753-3.266-3.48c-.085-2.725 1.448-3.044 1.335-3.914-.114-.87-.625-1.131-.625-1.131l.568-.087zm-6.559 13.745s1.135-1.74 1.987-2.755c.852-.986 2.982-1.972 2.982-1.972l.823.61s-1.675.666-2.783 1.971c-1.078 1.305-1.788 2.813-1.788 2.813s-3.123.551-5.196-.116h-.029c1.165.058 4.004-.55 4.004-.55z" fill="#F6DFA4"/><path d="M34.185 12.15s-1.732-1.16-3.35-1.304c-1.619-.145-3.833 1.305-3.833 1.305v.957s1.902-1.334 3.577-1.595c1.676-.261 3.606.638 3.606.638zm-7.751.03v.928s-1.42-.145-2.613.087c-1.22.232-2.1.638-2.754.609-.653-.03-3.293-.29-3.861-.145-.568.116-6.303 1.537-7.042 1.479-.738-.058-4.003-.638-4.202-.61-.198.03-1.306.494-1.476.407-.17-.087 1.022-.464 1.533-.522.54-.058 3.776.522 4.259.464.483-.058 6.502-1.537 6.9-1.595.596-.087 3.69.26 3.86.232.2-.03 2.272-1.015 3.153-1.16.88-.174 2.243-.174 2.243-.174zm19.449-3.741s-1.96 1.276-2.64 2.03c-.682.754-1.165 1.189-1.449 2.088-.284.899-.426 1.508-.482 2.03-.057.522-.2 1.508-.2 1.508s-.255-2.465.427-4.147c.681-1.682 2.867-3.306 2.867-3.306s1.136-.116 1.477-.203zm1.391-.899c0 .058-.255.29-.653.435-.454.145-1.022.232-1.192.26-.085 0 1.022-.434.993-.608-.028-.145-.255-.32-.312-.522-.085-.232.057-.493.029-.58-.057-.116-.597-.754-.597-.754s-.227-.493.057-.667c.284-.203.71-.29.71-.319 0-.145-1.278-.725-1.278-.725s-.198-.087-.255-.232c-.057-.145-.114-.377-.114-.377s.029.058.029-.087-.256 0-.256 0-.852-.87-1.136-1.044a7.17 7.17 0 01-.596-.377s.227-.145.483-.174c.227-.029.397-.058.397-.058s.653.464.824.609c.17.145.568.522.568.522s-.114.522.028.783c.113.232.937.406 1.448.725.511.319.397.203.369.406-.028.174-.37.377-.37.377s-.255 0-.34.058c-.085.087 0 .406 0 .406s.057-.29.114-.261c.057.029.482.406.482.406l-.284.609s.426-.174.483-.058c.057.116-.199.26-.199.435 0 .174 0 .435.142.493.2.058.398.058.426.319zm-4.06-6.293c-.198.116-.312-.464-1.107-.55-.795-.088-2.328.463-2.328.463s1.135-.899 2.356-.783c1.221.116 1.25.725 1.08.87z" fill="#F6DFA4"/><path d="M39.438 1.392s.482-.232.851-.232c.37 0 .625.116.625.116s-.71.087-.909.203c-.198.116-.34.29-.34.29l-.227-.377zm2.3.319s.085.145.255.116c.17 0 0-.145.057-.232.057-.116.37-.029.398-.174 0-.145-.341-.29-.682-.261-.255.029-.596.174-.596.174s.823-.116.852 0c.028.116-.114.087-.17.145-.057.087.056.116.056.174-.057.087-.114.116-.17.058z" fill="#F6DFA4"/><path d="M41.511 2.117s.028-.377-.483-.406c-.51-.029-1.135.261-1.135.261s1.22-.261 1.618.145zm-.284.145s-.17.203-.398.174c-.227 0-.454-.058-.454-.058l.313.26c0 .03.425.001.539-.376z" fill="#FFC844"/><path d="M36.372 15.979s.255-3.306 2.158-5.046c1.902-1.74 2.839-2.06 2.839-2.06h-1.363s-1.476 1.103-2.271 2.176c-1.562 2.146-1.392 5.075-1.392 5.075" fill="#F4DB6C"/><path d="M40.772 8.7s1.08-.087 1.59-.348c.511-.261.398-.406.37-.464-.029-.058-.029-.174-.256-.261-.227-.116-.227-.174-.199-.29.029-.116.029-.174.114-.261.057-.087.17-.203.142-.261-.057-.058-.199-.116-.37-.116h-.283s.426-.348.369-.522c-.057-.145-.313-.203-.34-.261-.03-.058-.058-.145-.086-.145-.028 0-.142-.058-.17.087-.029.145-.029.232-.029.232s-.085-.174-.028-.377c.028-.203.369-.145.369-.145s.483-.348.483-.464c0-.116-.341-.319-.511-.406-.17-.087-1.136-.58-1.193-.783-.057-.232-.057-.551-.114-.696-.028-.145-.993-.899-.993-.899l-.483.087 1.306.957.029.203s.028.348.056.464c.057.116.455.522.71.696.256.174.625.348.596.435-.028.087-.738.319-.766.522-.057.203.482 1.073.482 1.073s-.198.319-.085.754c.114.464.37.406.313.58-.057.174-.682.609-1.023.609zm-6.36-7.105c1.42-.812 2.073-.783 2.953-.58.88.203 1.96.986 1.96.986l-.54.116s-.937-.812-2.64-.783c-1.222.029-3.408 1.45-4.544 2.233.739-.551 1.846-1.392 2.811-1.972z" fill="#F6DFA4"/><path d="M24.73 4.988s1.136.058 2.414.058c1.25 0 2.924-.522 2.924-.522s-1.05.928-2.669.928c-1.59 0-2.669-.464-2.669-.464z" fill="#F4DB6C"/><path d="M25.412 5.452s1.448 1.015 3.436.638c1.987-.377 3.776-2.523 3.776-2.523s-1.846 2.61-3.777 2.929c-1.959.348-3.435-1.044-3.435-1.044zm11.925-.812c.057-.174-.17-1.798-1.363-2.32-1.192-.522-3.18 1.044-3.18 1.044s1.96-1.044 3.038-.493c1.079.551 1.505 1.769 1.505 1.769z" fill="#F6DFA4"/><path d="M25.582 6.583s1.392 1.247 3.152 1.102c1.76-.174 3.748-1.943 3.748-1.943s-1.704 2.204-3.72 2.233c-2.044 0-3.18-1.392-3.18-1.392z" fill="#F6DFA4"/><path d="M38.189 2.262c-.057.03-.597.261-1.136.03-.568-.233-.965-.61-.965-.61s.539.812 1.05.928c.511.174 1.05-.348 1.05-.348z" fill="#F4DB6C"/><path d="M37.28 5.017s-.284.522-.795.551c-.483.029-.454-1.769-2.016-1.769-.767 0-1.845 1.392-1.845 1.392s.993-1.189 1.873-1.102c.88.058 1.25 1.624 1.931 1.653.739 0 .852-.725.852-.725zM25.753 8.12s.397.725 1.675.84c1.249.117 3.066-.666 3.066-.666s-1.93 1.247-3.322.986c-1.363-.261-1.42-1.16-1.42-1.16z" fill="#F6DFA4"/><path d="M35.321 5.742s-.738.319-.994 0c-.255-.319-.085-1.102-.681-.841-.596.261-2.499 3.045-2.499 3.045s1.988-2.552 2.414-2.581c.426-.029.227.435.51.754.285.319 1.25-.377 1.25-.377z" fill="#F6DFA4"/><path d="M37.507 5.307s.455.232.483.638c.028.406-.227.87-.227.87s.142-.638 0-.87a1.011 1.011 0 00-.398-.348l.142-.29z" fill="#897421"/><path d="M32.112 8.265s-2.981 1.624-4.117 1.595c-1.135-.03-1.845-.464-1.845-.464s.284.522 1.022.725c.738.174 1.76-.261 1.76-.261l3.18-1.595zm4.6-2.204c-.028.029-.198.899-.88.957-.653.058-1.136-.145-1.334.522-.199.667.284 1.334.284 1.334s-.398-1.247.142-1.392c.568-.145.908.087 1.277-.058.398-.203.511-1.363.511-1.363z" fill="#F6DFA4"/><path d="M36.514 6.93s.284.9-.227 1.248-.568.029-.966.174c-.397.145-.34 1.334-.34 1.334s.142-1.073.54-1.102c.397-.03.88.087 1.192-.406.284-.493-.2-1.247-.2-1.247z" fill="#F6DFA4"/><path d="M34.44 8.874s-.823.203-1.419 0c-.596-.203-.908-.754-.908-.754s.425.84 1.022 1.015c.596.174 1.306-.261 1.306-.261z" fill="#F4DB6C"/><path d="M5.026 55.62c.113-.174 0-.348-.17-.377a.302.302 0 01.312 0c.113.087.142.29.057.406-.086.116-.256.145-.398.058a.255.255 0 00.199-.087zm0 .957c.113-.174 0-.348-.17-.377a.302.302 0 01.312 0c.113.087.142.29.057.406-.086.116-.256.145-.398.058a.255.255 0 00.199-.087z" fill="#F6DFA4"/><path d="M5.082 57.621c.114-.174 0-.348-.17-.377a.302.302 0 01.312 0c.114.087.142.29.057.406-.085.116-.255.145-.397.058.085 0 .17-.029.198-.087z" fill="#F4DB6C"/><path d="M9.966 55.62c.114-.174 0-.348-.17-.377a.302.302 0 01.312 0c.114.087.142.29.057.406-.085.116-.255.145-.397.058.085 0 .17-.029.198-.087zm0 .957c.114-.174 0-.348-.17-.377a.302.302 0 01.312 0c.114.087.142.29.057.406-.085.116-.255.145-.397.058a.255.255 0 00.198-.087z" fill="#F6DFA4"/><path d="M10.051 57.621c.114-.174 0-.348-.17-.377a.302.302 0 01.312 0c.114.087.142.29.057.406-.085.116-.256.145-.398.058a.255.255 0 00.2-.087zm.029.406s-.143 1.015.312 1.653c.454.638 1.192 1.363 1.079 1.566-.114.174-.682.232-.937.145-.256-.058-.994-1.218-1.136-2.059-.142-.87-.085-1.247-.085-1.247l.766-.058zm-4.94.087s-.143 1.015.312 1.653c.454.638 1.192 1.363 1.079 1.566-.114.174-.682.232-.937.145-.256-.058-.994-1.218-1.136-2.059-.142-.87-.085-1.247-.085-1.247l.766-.058z" fill="#F4DB6C"/><path d="M9.284 52.662v2.088s.455.087.597-.029c.113-.145.142.058.113-.145-.028-.203-.028-.957 0-1.334.029-.348.085-.667.085-.667l-.795.087zm-3.492-.232s-.454.958-.54 1.218c-.113.29-.17.435-.198.58-.028.145.028.407-.085.465a.69.69 0 01-.312.116c-.086 0-.37-.03-.37-.03l.398-2.088 1.107-.26zm23.027-26.244l-.483 1.16s-1.476.03-2.583.203c-1.08.174-2.556.493-2.556.493s1.505-1.334 5.622-1.856z" fill="#F6DFA4"/><path d="M37.365 7.598s-.426 1.363-.908 1.827c-.455.464-1.676.928-1.676.928l.54.667s1.334-.551 1.817-1.334c.511-.754.511-1.624.511-1.624l.54-.145-.824-.32zm-6.105 8.757s-.851-1.652-1.845-1.74c-1.136-.086-2.413.146-2.413.146v-1.102s3.151-.986 4.259 2.696zm-4.826-2.581v.987s-.653.464-1.79.58c-1.163.116-5.081-.204-5.081-.204l1.476.377s-3.237.552-4.373.494c-1.107-.087-5.848-.464-5.905-.464-.085 0-.568 0-.767.028-.199.059-1.562.639-1.817.639-.284 0-1.448-.232-1.448-.232s1.05.087 1.505 0c.426-.116 1.391-.667 2.13-.638.737.029 5.848.377 6.586.145.71-.232 1.732-.32 1.732-.32s-.454-.26-.426-.434c.029-.175 6.758-.58 8.178-.957z" fill="#FFC844"/><path d="M29.444 15.167s-1.505 1.798-2.272 3.306c-.766 1.508-2.924 3.711-2.924 3.711s1.647-1.566 2.328-.348c.682 1.218-1.647 3.161-3.52 2.32-1.875-.84-1.619-1.334-1.619-1.334s1.618-.435 2.981-2.087c1.363-1.654 2.3-4.785 2.868-5.075.568-.348 1.05-.667 2.158-.493zM22.743 25.52s-1.533.347-1.76 3.305c-.2 2.958 3.52 4.408 3.52 4.408s-5.508-.29-5.28-4.089c.198-3.219 2.384-4.726 2.384-4.726l1.136 1.101zm-4.713 7.22l1.249.232s-2.442 2.32-4.23 4.524c-1.818 2.204-2.755 4.089-2.755 4.089s1.08-3.045 3.776-6.438c1.534-1.943 1.96-2.407 1.96-2.407zm-6.871 9.28v1.45s-1.562.928-3.266 2.755c-1.703 1.797-4.315 5.51-4.315 5.51l-.114-.552s2.925-4.871 4.628-6.437c1.704-1.566 3.067-2.726 3.067-2.726zm-8.092 9.888l.198.261-.369.61-.17-.175.34-.696zm-.71 1.015l.398.377s-1.108.522-1.193 1.19c-.085.666.596 2.145.596 2.145s-1.277-1.624-1.05-2.552c.198-.928 1.249-1.16 1.249-1.16zm36.598-23.982s-3.123-.522-4.429-.203c-1.306.32-4.43 2.958-4.43 2.958l-1.788 1.102-.028-1.102s3.322-3.219 5.962-3.625c2.64-.406 4.713.87 4.713.87zm-11.357 3.161l.029.783-.767.116-.426-.319 1.164-.58z" fill="#FFC844"/><path d="M38.785 29.724s-2.868.725-5.026 1.682-4.798 2.378-4.798 2.378 3.634-2.755 5.622-3.422c1.987-.667 4.202-.638 4.202-.638z" fill="#8D7632"/><path d="M42.618 24.794s2.754.928 2.64 3.161c-.113 2.233-3.15 3.828-4.74 4.437-1.62.609-4.998 1.566-5.594 1.74-.596.174-2.698.754-2.698.754l.227.26 8.291-2.61s5.196-.927 5.196-4.58c-.028-2.466-3.322-3.162-3.322-3.162zM36.4 19.458s-.596.957-2.158.725c-1.703-.26-2.044-2.523-2.044-2.523s.34 1.102 1.675 1.45c.88.232 1.278-.145 1.278-.145s.17.145.624.29c.455.145.625.203.625.203zm-6.7 5.887s.851-2 1.845-2.9c.993-.898 2.555-1.768 2.555-1.768s0 .029.199.058.454 0 .454 0-1.987 1.276-2.725 2.058c-.71.783-1.392 2.407-1.392 2.407l-.937.145zm9.88-14.18l-.37-.232s-1.192.899-1.93 2.668c-.71 1.798-.54 6.09-.54 6.09s.455-4.727 1.023-5.945c.766-1.566 1.817-2.581 1.817-2.581zm.284-.319l-.398-.29s.909-.841 1.477-1.131c.568-.29 1.93-.928 1.987-.957.057-.03.313-.232.313-.232s.425.377 1.192.435c.227.029-.312.058-.738.029-.284 0-.511-.087-.511-.087s-1.619.84-2.073 1.218a67.403 67.403 0 00-1.25 1.015zm5.139-5.162s-.256.174-.937.145c-.682-.029-1.193-.29-1.193-.29l.256-.232s.113-.087.028-.29c-.085-.203-1.59-1.334-1.59-1.334s-.028.348.17.493c.2.145 1.051.754 1.051.754s.085.116.057.203c-.028.087-.483.493-.511.551-.029.058-.085.058.028.116.142.058.341.116.341.203 0 .087-.227.464-.227.464s.483.087.454.232c-.028.145-.312.435-.255.58.056.116.965.754.965.754s-.795-.667-.767-.812c.029-.145.37-.29.37-.493s-.426-.319-.426-.319l.142-.261c.028-.087 1.107.174 2.044-.464z" fill="#FFC844"/><path d="M41.369 3.567l.028.493s-.312-.116-.369-.319c-.085-.174-.085-.406-.085-.406l.426.232z" fill="#8D7632"/><path d="M43.669 3.712c.113.232-.057.928-.057.928s-.852-.87-1.221-1.102c-.37-.232-.767-.435-.767-.435s.057-.203.114-.32c.056-.115.142-.26.142-.26s1.703.957 1.788 1.189zm.936-.174l.114.319-.568.928-.34-.087s.17-.638.34-.812c.199-.174.454-.348.454-.348z" fill="#FFC844"/><path d="M42.277.812s-.596.232-1.022.232c-.426 0-.852.03-.852.03s.568.086.852.086c.284 0 1.022-.348 1.022-.348zm-.709.812s-.37-.174-.88-.116c-.512.03-.966.261-.966.261l.142.116s.54-.29 1.704-.261zm-.398.58s-.142-.174-.455-.203c-.312 0-.624.058-.624.058s.199-.174.624-.174c.426 0 .455.319.455.319z" fill="#8D7632"/><path d="M40.375 5.829s-.312.348-.767.377c-.454.029-.936-.145-.936-.145s.198-.406-.114-.986-.71-.725-.71-.725.057-.9.227-1.102c.199-.203 1.05-.841 1.05-.841s-1.021.232-1.305.609c-.284.377-.17 1.45-.17 1.45s.51.377.68.754c.171.377.228.986-.141 1.305-.37.319-.596.26-.596.26s.425.117.681-.028c.256-.145.256-.29.256-.29s.425.145 1.078-.03c.654-.115.767-.608.767-.608zm-1.959-3.712c-.028.03-.312.377-1.079.29-.767-.087-1.334-.986-1.93-.812-.597.174-.767.406-.767.406s.426-.406 1.079-.522c.653-.116 1.135.783 1.675.783.568-.029 1.022-.145 1.022-.145zM37.337 4.64s.17.638-.596.87c-.767.232-.511-.696-1.08-1.189-.567-.493-1.05-.522-1.05-.522s.738-.087 1.164.261c.426.319.511 1.073.852 1.102.34.029.71-.174.71-.522z" fill="#FFC844"/><path d="M36.883 5.075s-.398-1.682-1.306-2.001c-.909-.319-2.783.319-2.783.319s1.533-.899 2.925-.551c1.39.348 1.164 2.233 1.164 2.233zm-1.222.464s-.397.348-1.05.348-.312-.638-.625-.986c-.312-.348-1.39.754-1.39.754s.766-1.131 1.248-1.102c.483.029.398.87.767.986.398.058 1.05 0 1.05 0z" fill="#FFC844"/><path d="M35.066 5.133s-.114-.783-.625-.87c-.511-.087-1.164.348-1.164.348s.71-.551 1.277-.464c.568.087.512.986.512.986zm.681-1.769s-.681.174-1.107.058c-.398-.116-.994-.203-1.477-.058-.482.145-1.05.928-1.05.928s.738-.783 1.135-.812c.398-.058 1.42.058 1.42.058s.681.029 1.079-.174z" fill="#8D7632"/><path d="M36.712 6.003s0 .55-.653.754c-.653.203-.766-.087-1.192.174-.454.29-.511.609-.511.609s.142-.522.568-.812c.425-.29.766 0 1.107-.145.37-.116.54-.261.681-.58zm-.17 1.015s.142.725-.369.812c-.54.087-.653-.232-1.136 0-.482.232-.227 1.044-.227 1.044s-.113-.783.284-.928c.37-.145.738.26 1.164.087.426-.174.284-1.015.284-1.015zM34.81 6.09s-.341.464-.824.348c-.482-.116-.113-.754-.397-.783-.284-.03-1.732 1.624-1.732 1.624s1.476-1.45 1.647-1.363c.17.058-.029.754.425.84.483.088.88-.666.88-.666zm-2.669 2.03s.227.406 1.05.58c.824.174 1.364 0 1.364 0s-.88.029-1.392-.145a9.02 9.02 0 01-1.022-.435z" fill="#FFC844"/><path d="M34.413 6.64s-.256.726-.88.697c-.625-.03-.313-.667-.654-.61-.34.03-1.448 1.219-1.448 1.219s1.08-.986 1.363-.986c.284 0 .17.638.71.609.54-.03.909-.928.909-.928z" fill="#FFC844"/><path d="M36.57 8.584s-.141.348-.425.406c-.511.087-.597-.116-.824.174-.227.29-.34.638-.34.638s.227-.61.567-.638c.341-.03.483.116.71-.03.227-.115.313-.55.313-.55z" fill="#8D7632"/><path d="M33.135 2.668s-2.726 2.958-4.912 2.987c-2.186.029-3.492-.667-3.492-.667s1.363 1.015 3.549.87c2.214-.116 4.855-3.19 4.855-3.19z" fill="#FFC844"/><path d="M30.948 5.539s-1.334 1.363-3.038 1.16c-1.703-.203-2.924-1.508-2.924-1.508s.908 1.682 2.924 1.682c1.874 0 3.038-1.334 3.038-1.334z" fill="#FFC844"/><path d="M33.703 3.915s-.256.087-.455.26c-.227.175-2.186 2.843-3.662 3.133-1.477.29-2.044.174-2.044.174s.68.348 2.1-.087c1.42-.435 3.18-2.61 3.18-2.61s.54-.783.88-.87z" fill="#FFC844"/><path d="M32.453 5.742s-1.362 2.175-3.038 2.58c-1.703.407-3.01 0-3.01 0s1.108.61 3.096.146c1.987-.464 2.952-2.726 2.952-2.726zm-.312 2.465l-1.845 1.218c.028 0 1.277-.406 1.845-1.218zm-5.565 25.345l-.085.667s-.455-.319-.966-.116c-.482.232-1.902 2.465-1.902 2.465s1.079-2.9 1.845-3.277a.777.777 0 011.108.261zM8.291 52.199l-.284.695-.312-.348.312-.696.284.349zm-.994.695l.397.377s-1.22.783-1.362 1.276c-.142.493.653 1.914.653 1.914s-1.25-1.45-.994-2.29c.255-.842 1.306-1.277 1.306-1.277z" fill="#FFC844"/><path d="M7.297 58.317l-1.476-2.32.17 1.19 1.306 1.13z" fill="#83332E"/><path d="M40.375 3.712l.113.348-.568.928-.34-.087s.17-.638.34-.812c.2-.174.455-.377.455-.377z" fill="#FFC844"/></svg>