<svg width="36" height="49" viewBox="0 0 36 49" fill="none" xmlns="http://www.w3.org/2000/svg">
<path d="M9.00002 39.6294C9.69077 40.0794 10.5728 40.2144 11.4008 39.9287L17.1068 37.9847C17.6859 37.7872 18.3141 37.7872 18.8933 37.9847L24.5993 39.9287C25.4273 40.2122 26.3093 40.0794 27 39.6294V48.3909L18 45.3354L9.00002 48.3909V39.6294ZM17.2733 34.2969L12.6338 35.8787C12.1144 36.0555 11.5482 36.0365 11.0419 35.8252C10.5355 35.6139 10.1238 35.2248 9.88427 34.7312L7.62302 30.0849C7.41527 29.6556 7.07647 29.3034 6.65552 29.0792L2.15552 26.6942C1.69242 26.4479 1.32991 26.0475 1.13066 25.5623C0.931401 25.0771 0.90792 24.5376 1.06427 24.0369L2.66177 18.9227C2.79807 18.486 2.79807 18.0183 2.66177 17.5817L1.06427 12.4674C0.907513 11.9662 0.931026 11.4259 1.13074 10.9402C1.33045 10.4545 1.69378 10.0539 2.15777 9.80791L6.65552 7.42291C7.07612 7.19926 7.41488 6.84789 7.62302 6.41941L9.88427 1.76641C10.1242 1.27319 10.5361 0.884608 11.0424 0.673709C11.5487 0.462811 12.1146 0.444123 12.6338 0.621159L17.2733 2.20291C17.7444 2.36371 18.2556 2.36371 18.7268 2.20291L23.3663 0.621159C23.8857 0.444287 24.4518 0.463304 24.9582 0.674632C25.4645 0.885961 25.8762 1.27503 26.1158 1.76866L28.377 6.41716C28.5848 6.84648 28.9236 7.19868 29.3445 7.42291L33.8445 9.80791C34.3076 10.0542 34.6701 10.4545 34.8694 10.9397C35.0686 11.4249 35.0921 11.9645 34.9358 12.4652L33.3383 17.5794C33.202 18.016 33.202 18.4838 33.3383 18.9204L34.9358 24.0347C35.0925 24.5359 35.069 25.0762 34.8693 25.5619C34.6696 26.0476 34.3063 26.4482 33.8423 26.6942L29.3445 29.0792C28.9239 29.3028 28.5852 29.6542 28.377 30.0827L26.1158 34.7334C25.8758 35.2266 25.464 35.6152 24.9576 35.8261C24.4513 36.037 23.8854 36.0557 23.3663 35.8787L18.7268 34.2969C18.2556 34.1361 17.7444 34.1361 17.2733 34.2969ZM18 11.4999C17.4033 11.4999 16.831 11.737 16.409 12.1589C15.9871 12.5809 15.75 13.1532 15.75 13.7499V22.7499C15.75 23.3466 15.9871 23.9189 16.409 24.3409C16.831 24.7629 17.4033 24.9999 18 24.9999C18.5968 24.9999 19.1691 24.7629 19.591 24.3409C20.013 23.9189 20.25 23.3466 20.25 22.7499V13.7499C20.25 13.1532 20.013 12.5809 19.591 12.1589C19.1691 11.737 18.5968 11.4999 18 11.4999Z" fill="#D6263B"/>
</svg>
