<svg width="42" height="42" viewBox="0 0 42 42" fill="none" xmlns="http://www.w3.org/2000/svg">
<path d="M12.3779 12.2725C15.0136 9.63682 15.0136 5.36217 12.3779 2.7265C9.74229 0.0908399 5.46764 0.0908399 2.83197 2.7265C0.196309 5.36217 0.196309 9.63682 2.83197 12.2725C5.46869 14.9092 9.74229 14.9092 12.3779 12.2725ZM39.3779 29.7265C36.7423 27.0908 32.4676 27.0908 29.832 29.7265C27.1963 32.3622 27.1963 36.6368 29.832 39.2725C32.4676 41.9081 36.7423 41.9081 39.3779 39.2725C42.0147 36.6368 42.0147 32.3632 39.3779 29.7265ZM39.1733 5.31787L36.7876 2.93217C35.4693 1.61381 33.3325 1.61381 32.0152 2.93217L3.03764 31.9097C1.71928 33.2281 1.71928 35.3649 3.03764 36.6822L5.42334 39.0679C6.7417 40.3862 8.8785 40.3862 10.1958 39.0679L39.1733 10.0903C40.4917 8.77303 40.4917 6.63623 39.1733 5.31787Z" fill="#D6263B"/>
</svg>
