<svg width="38" height="48" viewBox="0 0 38 48" fill="none" xmlns="http://www.w3.org/2000/svg">
<path d="M35.9857 21.743C34.962 19.4388 33.4737 17.3706 31.6141 15.668L30.0795 14.2599C30.0274 14.2135 29.9647 14.1805 29.8968 14.1639C29.829 14.1473 29.7581 14.1476 29.6905 14.1647C29.6228 14.1819 29.5603 14.2155 29.5086 14.2624C29.4569 14.3093 29.4176 14.3683 29.3939 14.434L28.7084 16.401C28.2812 17.6349 27.4955 18.8953 26.3828 20.1346C26.309 20.2137 26.2246 20.2348 26.1666 20.24C26.1086 20.2453 26.0189 20.2348 25.9398 20.1609C25.866 20.0976 25.8291 20.0027 25.8344 19.9078C26.0295 16.7332 25.0803 13.1525 23.0025 9.25545C21.2834 6.01756 18.8945 3.49159 15.9098 1.73026L13.7318 0.448814C13.4471 0.280064 13.0832 0.501549 13.099 0.833775L13.215 3.36503C13.2941 5.09471 13.0938 6.62401 12.6191 7.89491C12.0391 9.45057 11.2059 10.8955 10.1406 12.1928C9.3993 13.0943 8.55907 13.9098 7.63574 14.6238C5.41196 16.3333 3.60374 18.5237 2.34648 21.031C1.09232 23.5603 0.43903 26.3449 0.4375 29.168C0.4375 31.657 0.92793 34.067 1.89824 36.3398C2.83515 38.5281 4.18722 40.5141 5.87969 42.1881C7.58828 43.8756 9.57109 45.2045 11.7807 46.1273C14.0693 47.0871 16.4951 47.5723 19 47.5723C21.5049 47.5723 23.9307 47.0871 26.2193 46.1326C28.4235 45.2152 30.4278 43.8772 32.1203 42.1933C33.8289 40.5058 35.1684 38.5336 36.1018 36.3451C37.0706 34.0785 37.5676 31.6382 37.5625 29.1732C37.5625 26.5998 37.0352 24.1002 35.9857 21.743Z" fill="#D6263B"/>
</svg>
