<svg width="46" height="44" viewBox="0 0 46 44" fill="none" xmlns="http://www.w3.org/2000/svg">
<path d="M5 43.25H7.25V14H5C3.80653 14 2.66193 14.4741 1.81802 15.318C0.974106 16.1619 0.5 17.3065 0.5 18.5V38.75C0.5 39.9435 0.974106 41.0881 1.81802 41.932C2.66193 42.7759 3.80653 43.25 5 43.25ZM41 14H25.25L27.7745 6.422C27.9998 5.74568 28.0611 5.02553 27.9535 4.32085C27.846 3.61617 27.5725 2.94713 27.1557 2.36884C26.7389 1.79055 26.1907 1.31954 25.5562 0.99463C24.9217 0.669716 24.2191 0.500185 23.5063 0.5H23L11.75 12.7355V43.25H36.5L45.302 23.909L45.5 23V18.5C45.5 17.3065 45.0259 16.1619 44.182 15.318C43.3381 14.4741 42.1935 14 41 14Z" fill="#D6263B"/>
</svg>
