<svg width="60" height="59" viewBox="0 0 60 59" fill="none" xmlns="http://www.w3.org/2000/svg">
<g clip-path="url(#clip0_545:18057)">
<path d="M11.8846 38.6982C11.8527 38.6427 11.8168 38.5912 11.7889 38.5358L11.5338 38.6586L11.8009 38.5318C11.5577 38.1476 11.2348 37.6088 10.9796 37.0978C10.9836 36.9552 10.9876 36.8086 11.0075 36.674C11.0235 36.5393 11.0474 36.4284 11.0793 36.3571C11.1351 36.2422 11.1989 36.0283 11.2627 35.8144C11.5657 35.7945 12.2793 35.4737 12.7736 35.1211C13.0368 34.9349 13.1524 34.7369 13.252 34.4992C13.3039 34.3804 13.3517 34.2536 13.4155 34.1149C13.4753 33.9763 13.559 33.8218 13.6667 33.6594C13.7743 33.493 13.8859 33.3266 13.9816 33.1563C14.0334 33.0692 14.0813 32.986 14.1251 32.9028C14.149 32.8592 14.169 32.8196 14.1889 32.776C14.2088 32.7324 14.2288 32.6928 14.2487 32.6493C14.2886 32.5661 14.3205 32.4829 14.3484 32.3997C14.3803 32.3165 14.4042 32.2333 14.4241 32.1501C14.4321 32.1105 14.4401 32.0669 14.4481 32.0273C14.456 31.9877 14.46 31.9441 14.464 31.9085C14.472 31.8293 14.472 31.75 14.464 31.6708C14.452 31.5163 14.4321 31.3896 14.4122 31.2866C14.3922 31.1836 14.3683 31.1043 14.3444 31.041C14.3205 30.9815 14.3005 30.938 14.2886 30.9102C14.2726 30.8825 14.2647 30.8746 14.2647 30.8746C14.2647 30.8746 14.2487 30.8944 14.2168 30.934C14.1849 30.9696 14.1371 31.0211 14.0773 31.0766C13.9537 31.1915 13.7663 31.3341 13.5112 31.445C13.26 31.552 13.0168 31.7104 12.7497 31.8926C12.4866 32.0749 12.2035 32.2769 11.8607 32.4789C11.5258 32.6809 11.2826 32.8315 11.0873 32.9939C10.8999 33.1563 10.7564 33.3306 10.6288 33.5881C10.5172 33.8139 10.5291 34.2774 10.6288 34.721C10.7284 35.1647 10.9118 35.5886 11.0793 35.751C11.0195 35.9292 10.9318 36.1907 10.852 36.3967C10.8162 36.4917 10.7922 36.5947 10.7763 36.6977C10.6088 36.3333 10.4853 36.0164 10.4374 35.8302C10.4055 35.7074 10.3457 35.541 10.262 35.3469C10.1863 35.1489 10.0866 34.927 9.99489 34.6854C9.80353 34.2061 9.62014 33.6594 9.53642 33.188C9.52048 33.1008 9.50453 32.9939 9.48858 32.879C9.47264 32.7641 9.46068 32.6374 9.44872 32.5027C9.52048 32.3997 9.75569 32.0907 9.77961 31.956C9.79157 31.8926 9.79157 31.7421 9.80752 31.5638C9.82745 31.3856 9.87529 31.1875 9.97496 31.037C10.4932 31.0726 10.9836 30.938 11.3942 30.7478C11.5976 30.6527 11.7809 30.5379 11.9364 30.423C12.0959 30.3041 12.2235 30.1853 12.3152 30.0665C12.5065 29.8288 12.8095 29.3217 13.0966 28.8305C13.1683 28.7077 13.2361 28.5849 13.2999 28.4661C13.3677 28.3473 13.4235 28.2324 13.4713 28.1254C13.575 27.9115 13.6387 27.7253 13.6467 27.5986C13.6507 27.5233 13.6667 27.3965 13.7025 27.25C13.7185 27.1787 13.7344 27.0994 13.7544 27.0202C13.7743 26.941 13.7942 26.8618 13.8102 26.7865C13.8819 26.4815 13.9338 26.2161 13.8341 26.224C13.7663 26.2279 13.6906 26.2477 13.6029 26.2794C13.5191 26.3111 13.4275 26.3547 13.3358 26.4062C13.2401 26.4577 13.1364 26.5211 13.0328 26.5924C12.9291 26.6597 12.8215 26.735 12.7098 26.8142C12.5982 26.8934 12.4906 26.9727 12.3789 27.0519C12.2673 27.1311 12.1557 27.2104 12.0441 27.2817C11.8248 27.4282 11.6055 27.551 11.4022 27.6223C10.9956 27.761 10.8002 27.8481 10.6288 28.0145C10.5451 28.0977 10.4653 28.2046 10.3696 28.3473C10.3218 28.4186 10.27 28.5017 10.2102 28.5968C10.1544 28.6919 10.0826 28.7988 10.0108 28.9256C9.74772 29.3653 9.67197 29.8327 9.68393 30.213C9.69589 30.4032 9.71981 30.5696 9.76367 30.7042C9.80353 30.8389 9.85137 30.938 9.89921 30.9934C9.87131 31.0845 9.82745 31.1717 9.75569 31.2351C9.67197 31.3103 9.59224 31.4529 9.53642 31.6114C9.47662 31.7698 9.43277 31.9441 9.40885 32.0788C9.37297 31.6708 9.3331 31.2232 9.27729 30.7993C9.24938 30.3556 9.18958 29.8882 9.14573 29.4643C9.13377 29.3574 9.12181 29.2544 9.11383 29.1554C9.10586 29.0563 9.0939 28.9613 9.08593 28.8701C9.06998 28.6919 9.05802 28.5295 9.05403 28.4027C9.04606 28.0383 9.07795 27.6223 9.14174 27.2222C9.29722 27.04 9.52446 26.941 9.52446 26.941C9.52446 26.941 9.58028 26.8697 9.65204 26.7746C9.7238 26.6795 9.82347 26.5607 9.90719 26.4577C9.94705 26.4815 9.99489 26.4973 10.0507 26.5092C10.2819 26.5567 10.7125 26.5369 11.1191 26.4735C11.5258 26.4102 11.9205 26.3111 12.076 26.1685C12.3909 25.8873 12.977 25.7882 13.2879 25.5466C13.3637 25.4832 13.4235 25.4 13.4633 25.305C13.4833 25.2574 13.4992 25.2059 13.5112 25.1505C13.5271 25.095 13.5391 25.0395 13.5471 24.9801C13.555 24.9207 13.563 24.8613 13.571 24.8019C13.5789 24.7424 13.5829 24.6791 13.5909 24.6196C13.5949 24.5602 13.6029 24.5008 13.6108 24.4414C13.6188 24.382 13.6268 24.3265 13.6348 24.271C13.6706 24.0532 13.8142 23.7125 13.9537 23.4312C14.0255 23.2926 14.0892 23.1619 14.1451 23.0708C14.1969 22.9797 14.2288 22.9242 14.2288 22.9242C14.2288 22.9242 14.1172 22.9519 13.9657 22.9995C13.8102 23.051 13.6228 23.1262 13.4633 23.2213C13.1484 23.4114 12.8374 23.554 12.4547 23.7561C12.2633 23.8551 11.8806 23.9304 11.5138 23.9938C11.151 24.0571 10.8122 24.1047 10.7085 24.1364C10.6049 24.1681 10.4135 24.3582 10.2301 24.58C10.1384 24.6909 10.0547 24.8098 9.97895 24.9128C9.90719 25.0197 9.85137 25.1108 9.82347 25.1742C9.80353 25.2218 9.77164 25.2931 9.74772 25.3802C9.7238 25.4674 9.69589 25.5664 9.67995 25.6773C9.66001 25.7843 9.65602 25.8952 9.664 25.9982C9.67197 26.1051 9.69589 26.2042 9.74373 26.2834C9.6042 26.4181 9.38493 26.5647 9.23742 26.6637C9.31317 26.2359 9.3929 25.8675 9.40087 25.6456C9.40486 25.5585 9.41682 25.4436 9.43676 25.305C9.45669 25.1663 9.48858 25.0118 9.52048 24.8415C9.59622 24.5008 9.69191 24.1126 9.80752 23.7363C10.0308 22.9876 10.3098 22.3062 10.3457 22.1636C10.3816 22.0131 10.4494 21.8111 10.5371 21.5734C10.6966 21.4545 10.8839 21.3714 11.0275 21.3199C11.1032 21.2921 11.167 21.2763 11.2108 21.2604C11.2348 21.2565 11.2507 21.2525 11.2667 21.2486C11.2786 21.2446 11.2866 21.2446 11.2866 21.2446C11.5098 21.2406 11.8487 21.2684 12.3351 21.3872C12.666 21.4704 13.0288 21.4625 13.3397 21.4149C13.4952 21.3912 13.6427 21.3555 13.7703 21.3159C13.8979 21.2763 14.0015 21.2248 14.0853 21.1733C14.1929 21.1059 14.2926 21.0465 14.3843 20.995C14.476 20.9435 14.5597 20.9039 14.6354 20.8683C14.7869 20.793 14.9145 20.7455 15.0261 20.694C15.0899 20.6662 15.1497 20.6385 15.2015 20.6108C15.2574 20.5831 15.3092 20.5514 15.365 20.5157C15.656 20.3176 16.0985 19.9928 16.6527 19.7948C16.7922 19.7433 16.9118 19.6878 17.0195 19.6363C17.1271 19.5848 17.2148 19.5293 17.2906 19.4818C17.3623 19.4343 17.4182 19.3947 17.458 19.363C17.478 19.3471 17.4899 19.3352 17.5019 19.3273C17.5098 19.3194 17.5178 19.3154 17.5178 19.3154C17.5178 19.3154 17.45 19.2996 17.3344 19.2758C17.2228 19.252 17.0633 19.2204 16.8839 19.1847C16.7922 19.1689 16.6966 19.1491 16.6009 19.1292C16.5012 19.1134 16.4015 19.0936 16.3019 19.0778C16.1025 19.0461 15.9032 19.0144 15.7318 18.9866C15.3889 18.9351 14.9583 18.8757 14.5597 18.8559C14.157 18.8321 13.7863 18.848 13.555 18.9233C13.3477 18.9906 13.2042 19.054 13.0567 19.1372C12.9132 19.2243 12.7577 19.3313 12.5384 19.5095C12.4946 19.5452 12.4507 19.5808 12.4029 19.6165C12.3072 19.6918 12.1916 19.7829 12.068 19.9057C12.0042 19.9651 11.9484 20.0364 11.8886 20.1156C11.8288 20.1948 11.773 20.282 11.7251 20.381C11.6853 20.4603 11.6414 20.5355 11.5976 20.6068C11.5537 20.6781 11.5098 20.7415 11.466 20.8009C11.4221 20.8603 11.3743 20.9158 11.3344 20.9633C11.2906 21.0109 11.2507 21.0584 11.2108 21.0941C11.2069 21.0941 11.2069 21.098 11.2029 21.098C11.0793 21.1614 10.8162 21.2723 10.6368 21.3555C10.9039 20.6979 11.3424 19.8581 11.8009 19.157L11.8128 19.1649C12.0401 18.7727 12.367 18.2379 12.7098 17.7666C12.7776 17.7269 12.8454 17.6913 12.9172 17.6556C12.9889 17.62 13.0567 17.5843 13.1245 17.5566C13.26 17.4972 13.3796 17.4496 13.4633 17.4378C13.6029 17.414 13.8381 17.3467 14.0773 17.2793C14.2607 17.4893 14.9544 17.8458 15.5524 18.0201C15.7118 18.0676 15.8554 18.0874 15.9909 18.0914C16.1265 18.0914 16.254 18.0755 16.3936 18.0557C16.5291 18.0359 16.6726 18.0042 16.8361 17.9805C16.9995 17.9567 17.1789 17.9369 17.3902 17.9409C17.8088 17.9409 18.2394 17.9408 18.6182 17.9012C19.0009 17.8616 19.3358 17.7943 19.5909 17.6438C19.6547 17.6081 19.7105 17.5724 19.7623 17.5368C19.8142 17.5051 19.858 17.4734 19.8979 17.4457C19.9776 17.3863 20.0334 17.3387 20.0733 17.2991C20.1132 17.2595 20.1411 17.2239 20.153 17.204C20.169 17.1842 20.173 17.1724 20.173 17.1724C20.173 17.1724 20.1451 17.1684 20.1012 17.1565C20.0574 17.1486 19.9896 17.1327 19.9098 17.109C19.8301 17.0852 19.7344 17.0496 19.6308 17.002C19.5271 16.9584 19.4195 16.899 19.3079 16.8238C19.1962 16.7485 19.0726 16.6851 18.9411 16.6178C18.8095 16.5544 18.67 16.495 18.5225 16.4355C18.2235 16.3127 17.8926 16.1939 17.5298 16.0275C17.167 15.8651 16.9039 15.7582 16.6487 15.6908C16.5251 15.6591 16.4015 15.6393 16.27 15.6274C16.1384 15.6195 16.0029 15.6195 15.8474 15.6393C15.5723 15.667 15.1417 15.9166 14.775 16.2256C14.5916 16.3761 14.4241 16.5465 14.2966 16.701C14.169 16.8594 14.0773 16.9981 14.0454 17.105C13.9457 17.1327 13.8221 17.1644 13.6906 17.1961C13.563 17.2278 13.4314 17.2635 13.3118 17.2872C13.2042 17.311 13.0886 17.3506 12.9809 17.3942C13.0447 17.311 13.1045 17.2357 13.1643 17.1644C13.2241 17.0931 13.2799 17.0258 13.3358 16.9624C13.4474 16.8396 13.5431 16.7406 13.6148 16.6732C13.8142 16.495 14.1092 16.1266 14.468 15.7304C14.8268 15.3343 15.2534 14.9144 15.668 14.6133C15.7477 14.5579 15.8354 14.4905 15.9431 14.4232C16.0467 14.3559 16.1623 14.2806 16.2859 14.2014C16.4255 14.2093 16.8361 14.233 16.9836 14.1895C17.1152 14.1459 17.5776 13.8924 17.9723 13.9122C18.1836 14.336 18.5464 14.653 18.9172 14.8906C19.2919 15.1243 19.6746 15.2788 19.9736 15.3343C20.0494 15.3501 20.1411 15.362 20.2487 15.3739C20.3564 15.3858 20.476 15.4016 20.6035 15.4135C20.8467 15.4413 21.1298 15.4729 21.4088 15.5007C21.5444 15.5165 21.676 15.5284 21.8035 15.5442C21.8673 15.5522 21.9271 15.5561 21.9869 15.5601C22.0467 15.568 22.1025 15.572 22.1584 15.5759C22.266 15.5799 22.3696 15.5878 22.4534 15.5839C22.4972 15.5839 22.5371 15.5799 22.573 15.5759C22.6088 15.572 22.6407 15.5641 22.6686 15.5561C22.8002 15.5126 23.1231 15.4809 23.4022 15.4571C23.474 15.4492 23.5378 15.4452 23.6015 15.4373C23.6613 15.4294 23.7172 15.4254 23.765 15.4135C23.8567 15.3937 23.9085 15.366 23.8926 15.3264C23.8088 15.1006 23.47 14.8193 23.0514 14.542C22.9477 14.4747 22.8361 14.4034 22.7284 14.336C22.6208 14.2687 22.5132 14.2014 22.4055 14.1301C22.1942 13.9954 21.9989 13.8528 21.8593 13.7102C21.7198 13.5636 21.6122 13.4606 21.5085 13.3814C21.4049 13.3021 21.3092 13.2506 21.1976 13.211C21.0859 13.1714 20.9504 13.1397 20.775 13.1199C20.6873 13.108 20.5836 13.0961 20.468 13.0843C20.3484 13.0763 20.2168 13.0605 20.0653 13.0486C19.5231 13.009 19.0248 13.1437 18.654 13.3219C18.5623 13.3655 18.4786 13.4131 18.4029 13.4606C18.3271 13.5081 18.2593 13.5557 18.2035 13.5992C18.0919 13.6903 18.0162 13.7735 17.9843 13.833C17.8806 13.8528 17.777 13.8607 17.6813 13.833C17.6255 13.8171 17.5537 13.8131 17.47 13.8131C17.3902 13.8131 17.2985 13.825 17.2069 13.8369C17.0235 13.8646 16.8321 13.9161 16.6846 13.9597C17.0673 13.7339 17.4899 13.4923 17.8806 13.2546C18.3072 13.0288 18.7497 12.7792 19.1603 12.5653C19.3637 12.4544 19.559 12.3593 19.7344 12.2722C19.7823 12.2484 20.3404 11.9592 21.0221 11.6027C21.2494 11.6107 21.5324 11.6503 21.8434 11.7493C22.3417 11.9117 22.7364 11.8761 23.0075 11.8642C23.8009 11.8364 24.0002 11.8364 24.4946 11.6661C24.9929 11.4958 25.7863 10.751 26.3364 10.248C26.8826 9.74487 27.9351 9.62207 27.9351 9.62207C27.9351 9.62207 26.46 8.45744 25.7225 8.58024C24.9849 8.69908 24.6221 8.89318 24.1677 8.90903C23.7172 8.92487 23.7969 9.22593 22.8361 9.36062C22.3736 9.424 21.6481 9.86371 21.3451 10.5015C21.1856 10.8382 21.0381 11.0838 20.9105 11.2581C19.5271 11.8919 18.0441 12.5931 17.5896 12.8505C17.1152 13.116 16.6806 13.3893 16.3138 13.6428C16.1304 13.7735 15.955 13.8924 15.8035 14.0073C15.7278 14.0627 15.652 14.1182 15.5843 14.1697C15.5165 14.2212 15.4527 14.2727 15.3929 14.3162C15.4049 14.2251 15.4248 14.1102 15.4447 14.0033C15.4647 13.8963 15.4886 13.7973 15.5085 13.7339C15.5085 13.73 15.5125 13.73 15.5125 13.726C15.5484 13.6785 15.5883 13.623 15.6361 13.5675C15.6839 13.5121 15.7397 13.4527 15.8035 13.3932C15.9271 13.2704 16.0826 13.1476 16.266 13.0248C16.7284 12.7277 16.9756 12.4227 17.171 12.2207C17.3105 12.0741 17.4301 11.9553 17.5298 11.8563C17.6334 11.7572 17.7172 11.6701 17.7929 11.5908C17.8686 11.5077 17.9324 11.4364 17.9962 11.3492C18.06 11.266 18.1238 11.1709 18.1956 11.064C18.2713 10.957 18.3351 10.8105 18.3949 10.6441C18.4587 10.4817 18.5145 10.2955 18.5703 10.0974C18.6261 9.90728 18.6819 9.70525 18.7378 9.50719C18.7896 9.30912 18.8494 9.12294 18.9012 8.9526C18.9291 8.86941 18.969 8.78227 19.0168 8.69512C19.0686 8.61193 19.1284 8.52478 19.1962 8.44159C19.264 8.3584 19.3358 8.27522 19.4115 8.19995C19.4912 8.12469 19.571 8.05338 19.6467 7.98604C19.8022 7.85135 19.9577 7.7444 20.0693 7.66913C20.1809 7.59387 20.2567 7.55029 20.2567 7.55029C20.2567 7.55029 20.0972 7.55425 19.8461 7.56614C19.7185 7.57406 19.571 7.58595 19.4075 7.60179C19.3278 7.60971 19.2401 7.6216 19.1524 7.62952C19.0647 7.6414 18.973 7.65329 18.8813 7.66913C18.7896 7.68498 18.6979 7.70082 18.6022 7.71667C18.5105 7.73648 18.4148 7.75628 18.3231 7.77609C18.2314 7.79986 18.1397 7.81966 18.0481 7.84739C17.9603 7.87116 17.8726 7.90285 17.7849 7.93058C17.7012 7.95831 17.6175 7.99 17.5378 8.02169C17.458 8.05338 17.3863 8.08903 17.3185 8.12469C17.1829 8.19599 17.0633 8.26729 16.9796 8.34652C16.6368 8.65946 16.4255 8.92091 16.2421 9.14275C16.1544 9.25762 16.0706 9.36062 15.9829 9.45569C15.8952 9.55472 15.8115 9.6498 15.7079 9.74487C15.6042 9.83598 15.5524 9.91124 15.5165 9.99047C15.4806 10.0657 15.4647 10.137 15.4328 10.2281C15.4049 10.3153 15.365 10.4183 15.2932 10.553C15.2215 10.6877 15.1098 10.854 14.9464 11.0719C14.7869 11.2779 14.6713 11.5908 14.6434 11.9117C14.6155 12.2365 14.6753 12.5693 14.8587 12.8347C15.1218 13.2229 15.2494 13.516 15.3092 13.7102C15.3092 13.7102 15.3092 13.7181 15.3092 13.73C15.3092 13.7418 15.3092 13.7577 15.3092 13.7815C15.3092 13.825 15.3052 13.8884 15.2972 13.9597C15.2892 14.035 15.2813 14.1182 15.2613 14.2093C15.2414 14.2964 15.2175 14.3915 15.1856 14.4826C15.05 14.5896 14.9504 14.6648 14.8946 14.7084C14.8148 14.7718 14.7271 14.8391 14.6354 14.9104C14.5437 14.9857 14.452 15.0649 14.3484 15.1481C14.2447 15.2353 14.1411 15.3303 14.0294 15.4294C13.9178 15.5324 13.8022 15.6433 13.6786 15.7621C13.1922 16.2454 12.6062 16.8871 11.9603 17.7864C11.9205 17.5487 11.8846 17.2912 11.8328 17.0733C11.9643 16.9664 12.2155 16.7604 12.4547 16.5623C12.6939 16.3603 12.9132 16.1662 12.961 16.0592C12.9929 15.9958 12.9969 15.8928 12.9929 15.7582C12.9889 15.6274 12.973 15.465 12.953 15.2868C12.9172 14.9342 12.8813 14.5183 12.9092 14.1578C12.9371 13.7973 13.0567 13.4685 13.1564 13.1476C13.256 12.8268 13.3318 12.5178 13.2799 12.185C13.256 12.0187 13.2162 11.8166 13.1723 11.6146C13.1324 11.4086 13.0886 11.1987 13.0487 11.0125C12.969 10.6362 12.9052 10.351 12.8853 10.3906C12.8773 10.4104 12.8255 10.4698 12.7457 10.5609C12.67 10.652 12.5663 10.7788 12.4467 10.9214C12.3271 11.068 12.1956 11.2343 12.064 11.4086C11.9324 11.5869 11.7969 11.7731 11.6733 11.9592C11.4182 12.3316 11.0952 12.6802 10.8082 12.9971C10.5251 13.318 10.2859 13.6072 10.2142 13.8409C10.1783 13.9597 10.1623 14.0588 10.1504 14.1578C10.1384 14.2608 10.1384 14.3638 10.1384 14.4866C10.1384 14.6094 10.1384 14.7559 10.1304 14.9382C10.1265 15.1243 10.1145 15.3422 10.1025 15.6235C10.0866 15.8889 10.1145 16.083 10.1783 16.2335C10.2381 16.384 10.3338 16.487 10.4613 16.5742C10.7165 16.7445 11.0992 16.8436 11.6015 17.0773C11.6334 17.3783 11.6853 17.7864 11.7291 18.1231C11.6494 18.2379 11.5657 18.3608 11.4859 18.4915C11.4461 18.5549 11.4022 18.6222 11.3583 18.6856C11.3145 18.7529 11.2746 18.8203 11.2348 18.8916L11.2387 18.8955C10.9517 19.363 10.6567 19.9017 10.3856 20.4642C10.1145 21.0267 9.86732 21.613 9.664 22.1715C9.62413 22.0923 9.47662 21.8348 9.38094 21.5496C9.3331 21.407 9.29722 21.2565 9.28526 21.1218C9.27729 20.9871 9.29722 20.8683 9.35702 20.7851C9.70386 20.3097 9.77961 19.7908 9.76367 19.3234C9.75569 19.0936 9.71981 18.8757 9.68393 18.6935C9.64406 18.5113 9.60021 18.3647 9.56832 18.2736C9.53642 18.1825 9.4846 18.1072 9.41682 18.032C9.20951 17.8022 8.87862 17.6002 8.76699 17.1684C8.69124 16.8792 8.48393 16.5187 8.27662 16.2018C8.06931 15.8889 7.86599 15.6314 7.77828 15.568C7.69456 15.5046 7.5949 15.3898 7.51915 15.2907C7.4434 15.1877 7.38759 15.1045 7.38759 15.1045C7.38759 15.1045 7.37563 15.164 7.35968 15.267C7.33975 15.37 7.31184 15.5126 7.27994 15.6869C7.21217 16.0315 7.12446 16.4791 7.0248 16.899C7.01284 16.9505 6.99689 17.006 6.98493 17.0575C6.92513 17.2753 6.86533 17.4734 6.79755 17.6477C6.73377 17.826 6.67396 17.9884 6.61815 18.1429C6.57031 18.3013 6.53044 18.4519 6.51051 18.6103C6.49456 18.7688 6.50254 18.9312 6.5424 19.1094C6.62612 19.466 6.64606 19.6323 6.71782 19.7987C6.78958 19.9651 6.91715 20.1354 7.22413 20.4721C7.53908 20.8089 8.00154 21.0505 8.39622 21.2644C8.79091 21.4744 9.12579 21.6605 9.18958 21.8705C9.22945 22.0131 9.27729 22.1795 9.32513 22.3419C9.34905 22.4211 9.36898 22.5043 9.3929 22.5796C9.41682 22.6548 9.43676 22.7261 9.4527 22.7895C9.42479 22.8767 9.39689 22.9638 9.36898 23.051C9.34506 23.1381 9.31715 23.2213 9.29323 23.3005C9.24539 23.4629 9.20553 23.6174 9.16566 23.764C9.02612 24.2909 8.93044 24.7583 8.8547 25.1782C8.78692 25.5981 8.73509 25.9665 8.7032 26.2913C8.69523 26.3745 8.68725 26.4498 8.67928 26.529C8.67529 26.6043 8.66732 26.6795 8.66333 26.7508C8.65536 26.8934 8.6434 27.0281 8.6434 27.1509C8.63941 27.2777 8.63543 27.3926 8.63543 27.5035C8.63543 27.6144 8.63941 27.7134 8.63941 27.8125C8.63941 27.864 8.63941 27.9511 8.63941 28.066C8.57961 28.0105 8.464 27.8957 8.33244 27.757C8.20087 27.6184 8.04539 27.4599 7.91782 27.3213C8.49589 26.5607 8.79091 25.9229 8.40818 25.3802C8.00553 24.8019 7.80619 24.2354 7.51516 23.5778C7.37164 23.2451 7.12048 23.0034 6.86931 22.7657C6.61815 22.5281 6.36699 22.2943 6.23144 21.9695C6.19955 21.8903 6.15968 21.8111 6.1238 21.7398C6.08393 21.6685 6.04805 21.5972 6.00818 21.5338C5.92845 21.407 5.84872 21.2921 5.77297 21.205C5.69722 21.1139 5.63343 21.0426 5.58559 20.995C5.53775 20.9475 5.50985 20.9237 5.50985 20.9237C5.50985 20.9237 5.47795 21.0188 5.42612 21.1852C5.4022 21.2684 5.3743 21.3674 5.33842 21.4823C5.30652 21.5972 5.27463 21.7239 5.23875 21.8586C5.1032 22.4053 4.97164 23.1183 4.92779 23.7521C4.88393 24.3899 4.99556 25.1307 5.21084 25.7565C5.26666 25.915 5.32646 26.0655 5.39024 26.2042C5.45403 26.3428 5.52579 26.4735 5.59755 26.5924C5.74107 26.8261 5.90054 27.0083 6.05602 27.1192C6.31117 27.3015 6.65802 27.3886 6.97297 27.4282C7.28792 27.4678 7.57496 27.4639 7.71848 27.456C7.90187 27.6263 8.09722 27.8244 8.26865 28.0026C8.44008 28.1848 8.57164 28.3512 8.63144 28.474C8.62745 29.0365 8.6434 29.8842 8.74307 30.827C8.83476 31.8174 9.00619 32.6849 9.1218 33.2395C8.95436 33.1246 8.71915 32.9543 8.61151 32.8592C8.60752 32.8552 8.60752 32.8552 8.60353 32.8513C8.47994 32.6493 8.34041 32.3323 8.2846 31.9362C8.21284 31.441 8.02546 31.1083 7.90985 30.8667C7.82612 30.6924 7.76234 30.5497 7.70652 30.4269C7.64672 30.3041 7.60287 30.2012 7.55503 30.11C7.50719 30.0189 7.45536 29.9357 7.39955 29.8526C7.34373 29.7694 7.27994 29.6822 7.19622 29.5792C7.03277 29.3772 6.71782 29.1435 6.363 28.9098C6.1836 28.7909 6.00021 28.6721 5.82081 28.5572C5.64141 28.4423 5.462 28.3314 5.30652 28.2284C5.15104 28.1254 5.00752 27.9868 4.88393 27.8283C4.76034 27.6699 4.66068 27.4995 4.57297 27.3371C4.48925 27.1787 4.42945 27.0281 4.38559 26.9212C4.34573 26.8142 4.32579 26.7429 4.32579 26.7429C4.32579 26.7429 4.27396 26.8618 4.2022 27.0479C4.16632 27.143 4.12646 27.2539 4.08659 27.3807C4.04672 27.5075 4.00287 27.6421 3.96699 27.7847C3.81549 28.3591 3.73576 29.0365 3.90719 29.401C3.99888 29.5832 4.0826 29.7377 4.16632 29.8763C4.24606 30.015 4.32978 30.1338 4.40154 30.2408C4.54506 30.4626 4.67264 30.6488 4.76433 30.8746C4.85602 31.1004 4.97164 31.1598 5.11915 31.2747C5.26666 31.3896 5.45403 31.5678 5.72114 32.0036C5.8527 32.2135 6.09589 32.4433 6.39888 32.6096C6.69788 32.78 7.06068 32.8949 7.41151 32.8869C7.92579 32.875 8.27264 32.9265 8.4919 32.978C8.4919 32.978 8.49988 32.982 8.51184 32.986C8.5238 32.9939 8.53975 33.0018 8.56367 33.0137C8.60752 33.0375 8.66732 33.0692 8.73509 33.1127C8.87463 33.1959 9.03808 33.3187 9.18559 33.4653C9.22147 33.6198 9.24539 33.7386 9.25735 33.802C9.32911 34.1783 9.43277 34.6458 9.62812 35.2717C9.82745 35.8936 10.1145 36.674 10.6049 37.6484C10.3617 37.5455 10.0946 37.4306 9.85935 37.3474C9.84739 37.2721 9.82347 37.1572 9.79955 37.0265C9.77563 36.8958 9.74373 36.7492 9.71583 36.6106C9.69988 36.5393 9.68393 36.468 9.66798 36.4046C9.65204 36.3372 9.63609 36.2739 9.62014 36.2184C9.58825 36.1035 9.55237 36.0124 9.51649 35.9688C9.47264 35.9134 9.37695 35.85 9.24539 35.7827C9.18161 35.751 9.10586 35.7153 9.02612 35.6757C8.94639 35.6401 8.86267 35.6004 8.77496 35.5608C8.42014 35.3984 8.00553 35.2083 7.67463 35.0023C7.51117 34.8993 7.36367 34.7844 7.22812 34.6656C7.09257 34.5467 6.96499 34.4239 6.83742 34.309C6.58626 34.0793 6.32313 33.8693 5.9723 33.7465C5.79689 33.6871 5.58559 33.6198 5.36632 33.5524C5.14705 33.4851 4.9238 33.4178 4.72048 33.3623C4.31383 33.2474 4.00287 33.1642 4.03078 33.1959C4.05868 33.2276 4.16632 33.4494 4.32579 33.7545C4.40553 33.909 4.49722 34.0793 4.59689 34.2615C4.70054 34.4398 4.8042 34.6299 4.91981 34.8082C5.03144 34.9864 5.12313 35.1845 5.21084 35.3746C5.2547 35.4737 5.29456 35.5687 5.33044 35.6638C5.37031 35.7589 5.41018 35.854 5.44606 35.9451C5.51782 36.1313 5.59357 36.3016 5.66931 36.4482C5.74506 36.5987 5.82878 36.7215 5.91649 36.8047C6.00818 36.8918 6.0919 36.9552 6.17961 37.0146C6.27131 37.0741 6.36699 37.1295 6.4826 37.1969C6.59822 37.2642 6.73377 37.3395 6.90519 37.4425C7.07662 37.5454 7.27994 37.6722 7.53509 37.8307C7.65868 37.9059 7.76632 37.9693 7.86599 38.0129C7.96566 38.0565 8.06134 38.0882 8.14905 38.108C8.32446 38.1436 8.47596 38.1317 8.62745 38.0842C8.93044 37.9891 9.23343 37.7673 9.73177 37.5217C9.88327 37.593 10.0587 37.6762 10.2461 37.7594C10.4294 37.8426 10.6168 37.9257 10.7882 38.005C10.856 38.1278 10.9238 38.2585 10.9995 38.3892C11.0354 38.4566 11.0753 38.5239 11.1152 38.5912C11.1351 38.6269 11.159 38.6625 11.1789 38.6982C11.3424 38.6982 11.5059 38.6982 11.6693 38.6982H11.8846V38.6982Z" fill="url(#paint0_radial_545:18057)"/>
<path d="M54.2154 39.5421C54.0799 39.5421 53.9164 39.5341 53.8088 39.5064C53.7051 39.4787 53.3503 39.4668 52.9397 39.4866C52.529 39.5064 52.0746 39.5539 51.7596 39.6569C51.2892 39.8154 50.9184 39.6807 50.5835 39.6569C50.4759 39.649 50.3722 39.653 50.2726 39.6807C50.1689 39.7084 50.0055 39.756 49.8141 39.8312C49.6227 39.9025 49.3995 40.0016 49.1762 40.1244C48.7297 40.37 48.2792 40.7146 48.0161 41.2335C47.9682 41.3247 47.8686 41.4039 47.733 41.4712C47.5975 41.5386 47.438 41.594 47.2746 41.6376C46.9476 41.7208 46.6287 41.7564 46.529 41.7644C46.9516 41.3128 47.3742 40.8097 47.7569 40.2947C48.1397 39.7837 48.4825 39.2648 48.7656 38.7973L48.2154 38.5398C47.8088 39.2648 47.2586 40.0531 46.7882 40.6077C46.7762 40.5205 46.7603 40.4096 46.7483 40.3106C46.7364 40.2076 46.7244 40.1125 46.7204 40.0491C46.7204 40.0452 46.7204 40.0412 46.7204 40.0412C46.7483 39.9422 46.7961 39.8233 46.856 39.6926C46.8878 39.6292 46.9237 39.5579 46.9676 39.4906C47.0074 39.4193 47.0553 39.348 47.1071 39.2727C47.1749 39.1816 47.2267 39.0905 47.2666 39.0033C47.3064 38.9162 47.3383 38.833 47.3623 38.7538C47.4061 38.5953 47.43 38.4567 47.446 38.3457C47.454 38.2903 47.4659 38.2348 47.4699 38.1873C47.5138 37.9298 47.5297 37.7555 47.5297 37.601C47.5297 37.4426 47.5058 37.3039 47.4579 37.1138C47.3981 36.9038 47.2108 36.6186 46.9676 36.3294C46.848 36.1868 46.7164 36.0442 46.5849 35.9056C46.4533 35.7669 46.3217 35.6402 46.2061 35.5253C46.0905 35.4104 45.951 35.2797 45.8114 35.145C45.6719 35.0103 45.5284 34.8796 45.3968 34.7647C45.1377 34.531 44.9344 34.3567 44.9344 34.3567C44.9344 34.3567 44.9064 34.4597 44.8945 34.6261C44.8865 34.7092 44.8825 34.8083 44.8905 34.9232C44.8945 35.0341 44.9064 35.1569 44.9344 35.2916C45.042 35.8224 44.9822 36.3334 44.9543 36.6582C44.9463 36.7771 44.9583 36.884 44.9742 37.0068C44.9902 37.1138 45.0141 37.2366 45.0261 37.3871C45.034 37.4624 45.042 37.5495 45.046 37.6406C45.05 37.7317 45.05 37.8387 45.046 37.9536C45.042 38.0407 45.0579 38.1477 45.0898 38.2626C45.1217 38.3774 45.1696 38.5042 45.2334 38.631C45.3609 38.8845 45.5563 39.1539 45.8154 39.3519C46.1942 39.6451 46.4094 39.8788 46.529 40.0452C46.529 40.0452 46.533 40.0531 46.537 40.061C46.541 40.0729 46.545 40.0887 46.553 40.1085C46.5689 40.1481 46.5849 40.2076 46.6008 40.2749C46.6287 40.4096 46.6566 40.5958 46.6287 40.778C46.541 40.877 46.4613 40.9681 46.3815 41.0434C46.3058 41.1226 46.234 41.186 46.1742 41.2415C46.1463 41.2692 46.0945 41.3207 46.0227 41.3999C45.951 41.4752 45.8633 41.5782 45.7516 41.6891C45.5403 41.9149 45.2613 42.1962 44.9623 42.4734C44.6633 42.7547 44.3364 43.028 44.0453 43.2538C43.8978 43.3647 43.7623 43.4677 43.6347 43.5509C43.5111 43.6341 43.4035 43.7015 43.3197 43.745C43.1084 43.8599 42.7855 44.0936 42.3988 44.3511C42.4267 44.1887 42.4706 43.951 42.5304 43.7807C42.634 43.7767 42.7417 43.749 42.8493 43.7094C42.9569 43.6658 43.0606 43.6064 43.1563 43.543C43.252 43.4796 43.3357 43.4123 43.4074 43.3489C43.4792 43.2855 43.535 43.2301 43.5669 43.1904C43.6148 43.1389 43.6746 43.0478 43.7423 42.9448C43.8061 42.8379 43.8739 42.7111 43.9337 42.5883C44.0493 42.3388 44.133 42.0971 44.1091 42.006C44.0852 41.9149 43.9536 41.6336 43.8181 41.3326C43.6825 41.0276 43.551 40.7067 43.539 40.5126C43.531 40.3185 43.5151 40.1481 43.5031 39.9857C43.4952 39.8233 43.4832 39.6649 43.4832 39.4985C43.4872 39.3321 43.4473 39.1499 43.4154 39.0152C43.3995 38.9479 43.3795 38.8884 43.3636 38.8488C43.3476 38.8053 43.3397 38.7815 43.3397 38.7815C43.3397 38.7815 43.3317 38.7934 43.3158 38.8211C43.2998 38.8449 43.2799 38.8805 43.252 38.9201C43.1961 39.0033 43.1204 39.1182 43.0247 39.241C42.9769 39.3004 42.929 39.3638 42.8812 39.4272C42.8294 39.4906 42.7775 39.55 42.7257 39.6094C42.6739 39.6688 42.6221 39.7203 42.5702 39.7679C42.5224 39.8154 42.4746 39.859 42.4307 39.8907C42.2553 40.0214 42.0241 40.1561 41.8327 40.2868C41.7849 40.3185 41.741 40.3541 41.6971 40.3898C41.6533 40.4254 41.6174 40.4611 41.5855 40.4967C41.5177 40.572 41.4739 40.6512 41.4579 40.7344C41.442 40.8176 41.446 40.9166 41.454 41.0157C41.4619 41.1147 41.4779 41.2177 41.4978 41.3247C41.5297 41.5346 41.5536 41.7485 41.5018 41.9307C41.45 42.113 41.5457 42.4576 41.6852 42.8022C41.8247 43.1469 42.0121 43.4875 42.1676 43.646C42.2035 43.6856 42.2433 43.7133 42.2832 43.7331C42.2234 43.8441 42.1556 43.9748 42.0958 44.0738C42.036 44.1768 41.9922 44.2481 41.9922 44.2481C41.9922 44.2481 41.9922 44.3036 41.9802 44.3828C41.9643 44.462 41.9403 44.569 41.8845 44.672C41.5098 44.8978 41.1071 45.1077 40.7324 45.2503C40.4692 45.3494 40.0666 45.4761 39.6121 45.5989C39.1576 45.7217 38.6553 45.8445 38.1809 45.9713C37.7184 46.0664 37.236 46.1773 36.7895 46.2684C36.8573 46.2367 36.937 46.1971 37.0128 46.1575C37.0925 46.1139 37.1722 46.0703 37.244 46.0188C37.3915 45.9158 37.5191 45.8128 37.5669 45.7178C37.6108 45.6385 37.6825 45.5752 37.7662 45.5197C37.9058 45.5633 38.2447 45.5514 38.6393 45.4326C39.034 45.3098 39.4805 45.0721 39.8074 44.6878C39.8991 44.5809 39.9789 44.4818 40.0466 44.3986C40.1144 44.3155 40.1742 44.2402 40.2221 44.1729C40.2699 44.1055 40.3138 44.0461 40.3456 43.9906C40.3815 43.9352 40.4055 43.8837 40.4294 43.8322C40.4732 43.7292 40.4932 43.6341 40.4971 43.5113C40.5011 43.3885 40.4852 43.2499 40.4613 43.0597C40.4334 42.8696 40.4493 42.6477 40.4812 42.414C40.4971 42.2991 40.5171 42.1763 40.537 42.0575C40.545 41.9981 40.5569 41.9387 40.5649 41.8792C40.5729 41.8198 40.5809 41.7604 40.5928 41.701C40.6287 41.4673 40.6526 41.2415 40.6526 41.0513C40.6526 40.8572 40.6247 40.6988 40.5649 40.5918C40.541 40.5522 40.4812 40.572 40.3935 40.6235C40.3496 40.6512 40.3018 40.6829 40.25 40.7186C40.1981 40.7542 40.1423 40.8018 40.0825 40.8414C39.8513 41.0196 39.5882 41.2177 39.4606 41.2771C39.2413 41.3801 38.9503 41.7564 38.6354 42.1565C38.4799 42.3546 38.3204 42.5606 38.1769 42.7428C38.0373 42.929 37.9098 43.0874 37.838 43.2063C37.7623 43.3212 37.6985 43.4638 37.6427 43.6341C37.5868 43.8005 37.543 43.9867 37.5151 44.1887C37.4672 44.5888 37.4872 45.0404 37.6945 45.4642C37.6347 45.5316 37.555 45.591 37.4672 45.6425C37.3835 45.69 37.2918 45.7336 37.2041 45.7732C37.0287 45.8445 36.8653 45.8841 36.8055 45.9158C36.7377 45.9475 36.642 46.0307 36.5503 46.1218C36.5025 46.1654 36.4586 46.2129 36.4187 46.2565C36.3789 46.2961 36.347 46.3318 36.3231 46.3555C36.028 46.407 35.7649 46.4467 35.5656 46.4625C35.0354 46.514 34.4015 46.4783 33.8354 46.415C33.8354 46.415 31.3357 46.5893 29.9802 47.0884C28.6247 46.5893 26.1211 46.415 26.1211 46.415C25.5589 46.4823 24.9211 46.514 24.3908 46.4625C24.1915 46.4427 23.9284 46.407 23.6334 46.3555C23.6094 46.3318 23.5775 46.3001 23.5377 46.2565C23.4978 46.2169 23.454 46.1694 23.4061 46.1218C23.3144 46.0307 23.2148 45.9475 23.151 45.9158C23.0912 45.8841 22.9277 45.8445 22.7523 45.7732C22.6646 45.7376 22.5689 45.694 22.4852 45.6425C22.4015 45.591 22.3217 45.5316 22.2619 45.4642C22.4692 45.0404 22.4892 44.5888 22.4413 44.1887C22.4174 43.9867 22.3736 43.7965 22.3177 43.6341C22.2619 43.4638 22.1942 43.3212 22.1224 43.2063C22.0506 43.0874 21.9231 42.929 21.7835 42.7428C21.64 42.5606 21.4805 42.3546 21.3251 42.1565C21.0101 41.7564 20.7191 41.3841 20.4998 41.2771C20.3682 41.2177 20.1051 41.0196 19.8779 40.8414C19.8181 40.7978 19.7623 40.7542 19.7104 40.7186C19.6586 40.6829 19.6108 40.6512 19.5669 40.6235C19.4832 40.572 19.4194 40.5562 19.3955 40.5918C19.3357 40.6988 19.3078 40.8572 19.3078 41.0513C19.3078 41.2415 19.3317 41.4673 19.3676 41.701C19.3755 41.7604 19.3835 41.8198 19.3955 41.8792C19.4035 41.9387 19.4154 41.9981 19.4234 42.0575C19.4433 42.1763 19.4593 42.2991 19.4752 42.414C19.5071 42.6438 19.5231 42.8696 19.4991 43.0597C19.4712 43.2499 19.4593 43.3885 19.4633 43.5113C19.4672 43.6301 19.4872 43.7292 19.531 43.8322C19.551 43.8837 19.5789 43.9352 19.6148 43.9906C19.6466 44.0461 19.6905 44.1055 19.7383 44.1729C19.7862 44.2402 19.846 44.3155 19.9138 44.3986C19.9815 44.4818 20.0613 44.5809 20.153 44.6878C20.4799 45.0721 20.9264 45.3098 21.3171 45.4326C21.7118 45.5514 22.0466 45.5593 22.1902 45.5197C22.2739 45.5712 22.3496 45.6385 22.3895 45.7178C22.4413 45.8128 22.5649 45.9198 22.7124 46.0188C22.7842 46.0703 22.8639 46.1139 22.9437 46.1575C23.0234 46.2011 23.0991 46.2407 23.1669 46.2684C22.7204 46.1773 22.238 46.0664 21.7795 45.9713C21.3051 45.8445 20.8028 45.7217 20.3483 45.5989C19.8938 45.4761 19.4951 45.3494 19.228 45.2503C18.8533 45.1077 18.4506 44.8938 18.0759 44.672C18.0201 44.569 17.9961 44.462 17.9802 44.3828C17.9682 44.3036 17.9682 44.2481 17.9682 44.2481C17.9682 44.2481 17.9244 44.1729 17.8646 44.0738C17.8048 43.9748 17.733 43.8441 17.6772 43.7331C17.7211 43.7094 17.7569 43.6816 17.7928 43.646C17.9483 43.4875 18.1357 43.1469 18.2752 42.8022C18.4148 42.4576 18.5104 42.113 18.4586 41.9307C18.4068 41.7485 18.4307 41.5346 18.4626 41.3247C18.4785 41.2177 18.4945 41.1147 18.5064 41.0157C18.5144 40.9166 18.5184 40.8216 18.5025 40.7344C18.4865 40.6512 18.4427 40.568 18.3749 40.4967C18.343 40.4611 18.3031 40.4254 18.2593 40.3898C18.2194 40.3541 18.1716 40.3185 18.1237 40.2868C17.9284 40.1521 17.7011 40.0214 17.5257 39.8907C17.4819 39.859 17.434 39.8154 17.3862 39.7679C17.3344 39.7203 17.2825 39.6688 17.2307 39.6094C17.1789 39.55 17.127 39.4906 17.0752 39.4272C17.0234 39.3678 16.9755 39.3004 16.9317 39.241C16.84 39.1222 16.7643 39.0033 16.7084 38.9201C16.6805 38.8805 16.6566 38.8449 16.6447 38.8211C16.6287 38.7973 16.6207 38.7815 16.6207 38.7815C16.6207 38.7815 16.6128 38.8053 16.5968 38.8488C16.5809 38.8884 16.5609 38.9479 16.545 39.0152C16.5091 39.1499 16.4732 39.3321 16.4732 39.4985C16.4772 39.6609 16.4652 39.8233 16.4573 39.9857C16.4453 40.1481 16.4294 40.3224 16.4214 40.5126C16.4094 40.7067 16.2739 41.0276 16.1423 41.3326C16.0068 41.6336 15.8792 41.9149 15.8553 42.006C15.8314 42.0971 15.9151 42.3388 16.0307 42.5883C16.0905 42.7111 16.1583 42.8379 16.2221 42.9448C16.2898 43.0518 16.3496 43.1389 16.3975 43.1904C16.4334 43.2301 16.4892 43.2855 16.5569 43.3489C16.6287 43.4123 16.7124 43.4796 16.8081 43.543C16.9038 43.6064 17.0074 43.6658 17.1151 43.7094C17.2227 43.753 17.3304 43.7807 17.434 43.7807C17.4978 43.951 17.5377 44.1887 17.5656 44.3511C17.1789 44.0936 16.8559 43.8599 16.6447 43.745C16.5609 43.7015 16.4533 43.6341 16.3297 43.5509C16.2061 43.4717 16.0666 43.3687 15.9191 43.2538C15.628 43.028 15.3011 42.7547 15.0021 42.4734C14.7031 42.1922 14.428 41.9149 14.2167 41.6891C14.1091 41.5782 14.0214 41.4752 13.9456 41.3999C13.8739 41.3247 13.8221 41.2692 13.7902 41.2415C13.7304 41.186 13.6626 41.1226 13.5829 41.0434C13.5071 40.9681 13.4234 40.877 13.3357 40.778C13.3078 40.5958 13.3357 40.4136 13.3636 40.2749C13.3795 40.2076 13.3955 40.1481 13.4074 40.1085C13.4154 40.0887 13.4194 40.0729 13.4234 40.061C13.4274 40.0491 13.4314 40.0452 13.4314 40.0452C13.551 39.8788 13.7623 39.6451 14.145 39.3519C14.4041 39.1499 14.5955 38.8845 14.727 38.631C14.7908 38.5042 14.8387 38.3774 14.8706 38.2626C14.9025 38.1477 14.9144 38.0407 14.9144 37.9536C14.9104 37.8347 14.9104 37.7317 14.9144 37.6406C14.9184 37.5456 14.9264 37.4624 14.9344 37.3871C14.9503 37.2366 14.9702 37.1138 14.9902 37.0068C15.0101 36.884 15.0181 36.7771 15.0101 36.6582C14.9862 36.3334 14.9224 35.8224 15.03 35.2916C15.0579 35.1569 15.0699 35.0341 15.0779 34.9232C15.0858 34.8083 15.0819 34.7092 15.0739 34.6261C15.0619 34.4597 15.034 34.3567 15.034 34.3567C15.034 34.3567 14.8307 34.531 14.5716 34.7647C14.44 34.8835 14.3005 35.0143 14.1569 35.145C14.0134 35.2757 13.8779 35.4104 13.7623 35.5253C13.6466 35.6402 13.5151 35.7669 13.3835 35.9056C13.252 36.0442 13.1204 36.1829 13.0008 36.3294C12.7576 36.6186 12.5702 36.8999 12.5104 37.1138C12.4586 37.3039 12.4387 37.4426 12.4387 37.601C12.4387 37.7555 12.4586 37.9298 12.4985 38.1873C12.5064 38.2388 12.5144 38.2903 12.5264 38.3457C12.5463 38.4567 12.5662 38.5953 12.6101 38.7538C12.634 38.833 12.6659 38.9162 12.7058 39.0033C12.7456 39.0905 12.7975 39.1816 12.8652 39.2727C12.9171 39.344 12.9649 39.4193 13.0048 39.4906C13.0486 39.5619 13.0845 39.6292 13.1164 39.6926C13.1802 39.8233 13.2241 39.9422 13.252 40.0412C13.252 40.0452 13.252 40.0491 13.252 40.0491C13.248 40.1125 13.236 40.2076 13.2201 40.3106C13.2081 40.4136 13.1922 40.5205 13.1802 40.6077C12.7417 40.0927 12.2433 39.3796 11.8486 38.7023H11.6294C11.4659 38.7023 11.3025 38.7023 11.139 38.7023C11.1589 38.734 11.1789 38.7696 11.1988 38.8013L11.2028 38.7973C11.4858 39.2648 11.8287 39.7837 12.2114 40.2947C12.5902 40.8057 13.0167 41.3088 13.4393 41.7644C13.3397 41.7525 13.0167 41.7208 12.6938 41.6376C12.5304 41.594 12.3709 41.5386 12.2353 41.4712C12.0998 41.4039 12.0001 41.3207 11.9523 41.2335C11.6932 40.7146 11.2427 40.37 10.7922 40.1244C10.5689 40.0016 10.3456 39.9065 10.1543 39.8312C9.96292 39.756 9.79548 39.7084 9.69581 39.6807C9.59614 39.6569 9.49249 39.649 9.38485 39.6569C9.05395 39.6807 8.6792 39.8114 8.20877 39.6569C7.89382 39.5539 7.43933 39.5064 7.0287 39.4866C6.61807 39.4668 6.26325 39.4787 6.1596 39.5064C6.05595 39.5341 5.89249 39.5421 5.75694 39.5421C5.62139 39.5421 5.50977 39.5381 5.50977 39.5381C5.50977 39.5381 5.55761 39.5777 5.64531 39.6451C5.72903 39.7164 5.85262 39.8154 5.99216 39.9303C6.27521 40.168 6.64598 40.4769 6.98884 40.7859C7.03269 40.8255 7.07256 40.8651 7.11641 40.9048C7.29183 41.0711 7.43933 41.2256 7.5709 41.3722C7.70644 41.5148 7.82206 41.6535 7.94166 41.7802C8.06525 41.907 8.18485 42.0219 8.32438 42.1209C8.46392 42.2199 8.62339 42.3071 8.81475 42.3784C9.20146 42.517 9.3689 42.5962 9.56824 42.6359C9.77156 42.6755 9.99482 42.6794 10.4892 42.6359C10.9835 42.5923 11.4619 42.3823 11.8845 42.2001C12.3031 42.0219 12.6579 41.8753 12.8932 41.9426C13.0526 41.9902 13.236 42.0456 13.4154 42.1011C13.5948 42.1526 13.7702 42.2041 13.9098 42.2437C14.1888 42.517 14.4559 42.7666 14.6991 42.9726C15.1377 43.3529 15.5483 43.6658 15.9231 43.9312C16.2978 44.1966 16.6447 44.4105 16.9516 44.5928C17.5736 44.9532 18.0599 45.1751 18.4546 45.3375C18.5104 45.3573 18.5981 45.3969 18.7138 45.4484C18.634 45.4682 18.4626 45.5118 18.2633 45.5593C18.0639 45.6069 17.8327 45.6504 17.6334 45.69C17.1071 44.8819 16.6287 44.3551 15.8991 44.3749C15.7078 44.3788 15.5204 44.3749 15.337 44.363C15.1536 44.3511 14.9742 44.3313 14.7908 44.3036C14.6114 44.2758 14.428 44.2481 14.2407 44.2164C14.0573 44.1847 13.8619 44.1491 13.6626 44.1174C13.4633 44.0817 13.2679 44.0778 13.0805 44.0936C12.8932 44.1055 12.7098 44.1372 12.5264 44.1649C12.1596 44.2243 11.8008 44.2838 11.4061 44.2085C11.0194 44.1293 10.6646 44.1174 10.4094 44.1253C10.1543 44.1332 9.99482 44.161 9.99482 44.161C9.99482 44.161 10.0746 44.2402 10.2061 44.3709C10.2739 44.4383 10.3576 44.5135 10.4533 44.6046C10.549 44.6918 10.6526 44.7908 10.7762 44.8938C11.2466 45.3058 11.8925 45.8049 12.5224 46.1852C13.1483 46.5695 13.9775 46.8824 14.743 47.0369C15.5084 47.1953 16.2061 47.1953 16.5809 47.0607C16.8918 46.9458 17.135 46.7121 17.3184 46.4823C17.5018 46.2525 17.6214 46.0228 17.6772 45.904C17.9363 45.8406 18.2274 45.7653 18.4865 45.7138C18.7456 45.6584 18.9769 45.6187 19.1244 45.6227C19.4154 45.7415 19.7782 45.8841 20.2008 46.0268C20.6234 46.1694 21.1058 46.308 21.6241 46.4308C22.1662 46.5615 22.6885 46.6526 23.151 46.716C23.6134 46.7834 24.0241 46.8111 24.339 46.8349C24.1716 46.9497 23.9204 47.1042 23.7849 47.1676C23.7809 47.1676 23.7809 47.1716 23.7769 47.1716C23.5217 47.2191 23.127 47.2508 22.6765 47.1755C22.533 47.1518 22.4015 47.1359 22.2779 47.128C22.2141 47.124 22.1543 47.1201 22.0985 47.1201C22.0427 47.1161 21.9868 47.1161 21.931 47.1161C21.8234 47.1161 21.7237 47.1201 21.632 47.124C21.5403 47.128 21.4566 47.132 21.3809 47.1359C21.1616 47.1438 20.9822 47.1438 20.8267 47.1438C20.6712 47.1478 20.5437 47.1478 20.428 47.1518C20.1888 47.1637 19.9975 47.1835 19.7104 47.2389C19.5709 47.2627 19.4035 47.3142 19.2241 47.3855C19.0447 47.4568 18.8493 47.54 18.646 47.6351C18.4466 47.7301 18.2393 47.8252 18.036 47.9203C17.9363 47.9678 17.8367 48.0153 17.737 48.0589C17.6413 48.1025 17.5456 48.1461 17.4579 48.1857C17.1031 48.3441 16.5848 48.3719 16.1583 48.3441C15.943 48.3322 15.7516 48.3085 15.6161 48.2847C15.4805 48.2649 15.3968 48.2451 15.3968 48.2451C15.3968 48.2451 15.5005 48.3441 15.6759 48.4986C15.8553 48.6492 16.1025 48.8512 16.3935 49.0492C16.6845 49.2473 17.0154 49.4454 17.3383 49.5919C17.4978 49.6672 17.6613 49.7227 17.8088 49.7702C17.9563 49.8138 18.0998 49.8415 18.2234 49.8455C18.347 49.8494 18.4626 49.8534 18.5742 49.8534C18.6819 49.8494 18.7855 49.8494 18.8812 49.8455C18.9769 49.8415 19.0686 49.8336 19.1563 49.8296C19.24 49.8217 19.3237 49.8138 19.4035 49.8059C19.5629 49.79 19.7025 49.7781 19.846 49.7662C19.9895 49.7544 20.129 49.7504 20.2805 49.7544C20.5795 49.7623 20.6912 49.691 20.8785 49.6118C20.9742 49.5721 21.0898 49.5246 21.2533 49.485C21.337 49.4652 21.4327 49.4454 21.5443 49.4216C21.6559 49.4018 21.7875 49.378 21.935 49.3582C22.0785 49.3424 22.238 49.2948 22.3975 49.2315C22.4772 49.1998 22.5569 49.1641 22.6327 49.1205C22.7124 49.077 22.7882 49.0294 22.8599 48.9819C23.0074 48.8789 23.139 48.764 23.2427 48.6293C23.3503 48.4986 23.43 48.356 23.4779 48.2055C23.6134 47.7658 23.7649 47.4885 23.8805 47.3142C23.8805 47.3142 23.8845 47.3102 23.8965 47.2983C23.9084 47.2904 23.9204 47.2785 23.9403 47.2627C23.9762 47.231 24.032 47.1914 24.0958 47.1438C24.1596 47.0963 24.2353 47.0488 24.3231 46.9973C24.4068 46.9458 24.5025 46.8943 24.5981 46.8547C24.642 46.8586 24.6858 46.8586 24.7257 46.8626C24.7656 46.8626 24.8015 46.8666 24.8334 46.8666C24.8971 46.8705 24.949 46.8745 24.9849 46.8745C25.1005 46.8824 25.228 46.8903 25.3636 46.8943C25.3915 46.8943 25.4194 46.8982 25.4473 46.8982C25.8181 46.9141 27.3689 47.0092 28.9357 47.6192C27.5363 48.5818 26.7908 50.1069 26.7908 50.1069H27.8473C28.3536 49.2077 29.1191 48.558 29.9563 48.0906C30.7935 48.558 31.5589 49.2077 32.0653 50.1069H33.1177C33.1177 50.1069 32.3682 48.5818 30.9729 47.6192C32.5437 47.0092 34.0905 46.9141 34.4653 46.8982C34.4932 46.8982 34.5211 46.8982 34.549 46.8943C34.6845 46.8903 34.8121 46.8824 34.9277 46.8745C34.9676 46.8705 35.0154 46.8666 35.0832 46.8666C35.1151 46.8666 35.151 46.8626 35.1908 46.8626C35.2307 46.8586 35.2706 46.8586 35.3144 46.8547C35.4141 46.8943 35.5058 46.9458 35.5895 46.9973C35.6732 47.0488 35.749 47.1003 35.8167 47.1438C35.8805 47.1914 35.9363 47.231 35.9722 47.2627C35.9922 47.2785 36.0041 47.2904 36.0161 47.2983C36.0241 47.3063 36.032 47.3142 36.032 47.3142C36.1476 47.4885 36.2991 47.7658 36.4347 48.2055C36.4825 48.356 36.5623 48.4986 36.6699 48.6293C36.7775 48.7601 36.9091 48.8789 37.0526 48.9819C37.1244 49.0334 37.2041 49.0809 37.2799 49.1205C37.3596 49.1602 37.4354 49.1998 37.5151 49.2315C37.6746 49.2948 37.834 49.3384 37.9775 49.3582C38.129 49.378 38.2566 49.3978 38.3682 49.4216C38.4799 49.4414 38.5756 49.4612 38.6593 49.485C38.8267 49.5286 38.9383 49.5721 39.034 49.6118C39.2254 49.691 39.333 49.7623 39.632 49.7544C39.7795 49.7504 39.9231 49.7544 40.0666 49.7662C40.2101 49.7781 40.3536 49.79 40.5091 49.8059C40.5888 49.8138 40.6686 49.8217 40.7563 49.8296C40.84 49.8375 40.9317 49.8415 41.0314 49.8455C41.127 49.8494 41.2307 49.8534 41.3383 49.8534C41.446 49.8534 41.5616 49.8534 41.6892 49.8455C41.8128 49.8415 41.9563 49.8177 42.1038 49.7702C42.2553 49.7266 42.4148 49.6672 42.5742 49.5919C42.8971 49.4454 43.232 49.2513 43.5191 49.0492C43.8101 48.8512 44.0613 48.6492 44.2407 48.4986C44.4161 48.3441 44.5197 48.2451 44.5197 48.2451C44.5197 48.2451 44.436 48.2609 44.3005 48.2847C44.1649 48.3085 43.9736 48.3322 43.7583 48.3441C43.3317 48.3719 42.8134 48.3441 42.4586 48.1857C42.3709 48.1461 42.2752 48.1025 42.1795 48.0589C42.0839 48.0153 41.9842 47.9678 41.8805 47.9203C41.6772 47.8252 41.4699 47.7301 41.2706 47.6351C41.0672 47.54 40.8759 47.4568 40.6925 47.3855C40.5131 47.3142 40.3457 47.2627 40.2061 47.2389C39.9191 47.1874 39.7277 47.1637 39.4885 47.1518C39.3689 47.1478 39.2413 47.1478 39.0859 47.1438C38.9304 47.1399 38.755 47.1438 38.5317 47.1359C38.456 47.132 38.3722 47.128 38.2845 47.124C38.1928 47.1201 38.0932 47.1161 37.9855 47.1161C37.9337 47.1161 37.8779 47.1161 37.8181 47.1201C37.7583 47.1201 37.6985 47.124 37.6387 47.128C37.5151 47.1359 37.3835 47.1557 37.24 47.1755C36.7895 47.2508 36.3948 47.2191 36.1397 47.1716C36.1357 47.1716 36.1317 47.1676 36.1317 47.1676C35.9961 47.1003 35.745 46.9458 35.5775 46.8349C35.8965 46.8111 36.3031 46.7834 36.7656 46.716C37.228 46.6526 37.7503 46.5615 38.2925 46.4308C38.8108 46.312 39.2932 46.1694 39.7158 46.0268C40.1383 45.8841 40.5051 45.7415 40.7922 45.6227C40.9397 45.6148 41.1709 45.6544 41.43 45.7138C41.6892 45.7693 41.9802 45.8406 42.2354 45.904C42.2912 46.0188 42.4148 46.2486 42.5942 46.4823C42.7736 46.7121 43.0207 46.9458 43.3317 47.0607C43.7064 47.1993 44.4001 47.1993 45.1656 47.0369C45.931 46.8824 46.7603 46.5655 47.3902 46.1852C48.0201 45.8049 48.6659 45.3058 49.1363 44.8938C49.256 44.7908 49.3636 44.6918 49.4593 44.6046C49.555 44.5175 49.6387 44.4383 49.7025 44.3709C49.838 44.2402 49.9177 44.161 49.9177 44.161C49.9177 44.161 49.7583 44.1332 49.5031 44.1253C49.248 44.1174 48.8971 44.1293 48.5064 44.2085C48.1158 44.2838 47.753 44.2243 47.3862 44.1649C47.2028 44.1332 47.0194 44.1055 46.832 44.0936C46.6447 44.0817 46.4493 44.0817 46.25 44.1174C46.0506 44.1491 45.8553 44.1847 45.6719 44.2164C45.4845 44.2481 45.3011 44.2758 45.1217 44.3036C44.9383 44.3273 44.7589 44.3472 44.5756 44.363C44.3922 44.3749 44.2048 44.3788 44.0134 44.3749C43.2839 44.3511 42.8055 44.8819 42.2792 45.69C42.0759 45.6504 41.8486 45.6069 41.6493 45.5593C41.45 45.5118 41.2825 45.4722 41.1988 45.4484C41.3144 45.3969 41.4021 45.3573 41.4579 45.3375C41.8526 45.1751 42.339 44.9532 42.9609 44.5928C43.2719 44.4105 43.6148 44.1966 43.9895 43.9312C44.3643 43.6658 44.7749 43.3529 45.2134 42.9726C45.4566 42.7666 45.7197 42.517 46.0028 42.2437C46.1423 42.2041 46.3177 42.1526 46.4971 42.1011C46.6765 42.0456 46.8639 41.9902 47.0194 41.9426C47.2546 41.8713 47.6094 42.0219 48.028 42.2001C48.4466 42.3784 48.929 42.5883 49.4234 42.6359C49.9177 42.6794 50.145 42.6755 50.3443 42.6359C50.5476 42.5962 50.7151 42.517 51.0978 42.3784C51.2892 42.3071 51.4447 42.2199 51.5882 42.1209C51.7277 42.0179 51.8513 41.903 51.9709 41.7802C52.0905 41.6535 52.2061 41.5148 52.3417 41.3722C52.4692 41.2256 52.6207 41.0711 52.7922 40.9048C52.836 40.8651 52.8759 40.8255 52.9197 40.7859C53.2626 40.4769 53.6294 40.164 53.9164 39.9303C54.0599 39.8114 54.1795 39.7124 54.2633 39.6451C54.351 39.5777 54.3988 39.5381 54.3988 39.5381C54.3988 39.5381 54.351 39.546 54.2154 39.5421Z" fill="url(#paint1_radial_545:18057)"/>
<path d="M50.7598 33.8098C50.7718 33.7464 50.7957 33.6316 50.8316 33.4731C50.9751 33.3265 51.1426 33.2077 51.2781 33.1205C51.3459 33.077 51.4057 33.0453 51.4495 33.0215C51.4695 33.0096 51.4894 33.0017 51.5014 32.9938C51.5133 32.9859 51.5213 32.9859 51.5213 32.9859C51.7406 32.9344 52.0874 32.8868 52.6017 32.8948C52.9565 32.9027 53.3153 32.7878 53.6143 32.6175C53.9173 32.4471 54.1605 32.2174 54.2921 32.0114C54.5592 31.5756 54.7505 31.4013 54.8941 31.2825C55.0416 31.1676 55.1532 31.1042 55.2449 30.8824C55.3366 30.6566 55.4642 30.4704 55.6077 30.2486C55.6794 30.1377 55.7592 30.0188 55.8429 29.8841C55.9226 29.7455 56.0103 29.591 56.0981 29.4088C56.2735 29.0443 56.1937 28.363 56.0422 27.7926C56.0064 27.65 55.9625 27.5113 55.9226 27.3885C55.8828 27.2657 55.8429 27.1508 55.807 27.0558C55.7353 26.8656 55.6834 26.7507 55.6834 26.7507C55.6834 26.7507 55.6635 26.8181 55.6196 26.929C55.5798 27.036 55.52 27.1865 55.4363 27.3449C55.3525 27.5073 55.2489 27.6777 55.1253 27.8361C55.0017 27.9946 54.8582 28.1332 54.7027 28.2362C54.5472 28.3392 54.3678 28.4501 54.1884 28.565C54.005 28.6799 53.8216 28.7987 53.6422 28.9176C53.2874 29.1513 52.9725 29.385 52.809 29.587C52.7293 29.69 52.6655 29.7772 52.6057 29.8604C52.5499 29.9436 52.4981 30.0268 52.4502 30.1179C52.4024 30.2129 52.3545 30.312 52.2987 30.4348C52.2389 30.5576 52.1791 30.7002 52.0954 30.8745C51.9798 31.1161 51.7964 31.4489 51.7206 31.944C51.6648 32.3402 51.5253 32.6571 51.4017 32.8591C51.3977 32.8631 51.3977 32.8631 51.3937 32.867C51.2901 32.9621 51.0509 33.1324 50.8834 33.2473C50.999 32.6967 51.1705 31.8252 51.2622 30.8349C51.3618 29.8921 51.3778 29.0483 51.3738 28.4818C51.4296 28.359 51.5652 28.1927 51.7366 28.0104C51.908 27.8282 52.1034 27.6341 52.2868 27.4638C52.4303 27.4717 52.7173 27.4757 53.0323 27.436C53.3472 27.3964 53.6901 27.3093 53.9492 27.1271C54.1007 27.0161 54.2642 26.8339 54.4037 26.6002C54.4755 26.4814 54.5472 26.3506 54.611 26.212C54.6748 26.0733 54.7346 25.9228 54.7904 25.7644C55.0057 25.1385 55.1173 24.3937 55.0735 23.7599C55.0296 23.1261 54.8981 22.417 54.7625 21.8664C54.7266 21.7278 54.6947 21.601 54.6668 21.4901C54.6309 21.3792 54.603 21.2762 54.5791 21.193C54.5313 21.0266 54.4954 20.9315 54.4954 20.9315C54.4954 20.9315 54.4675 20.9553 54.4196 21.0029C54.3718 21.0504 54.308 21.1217 54.2363 21.2128C54.1645 21.3039 54.0808 21.4148 54.001 21.5416C53.9612 21.605 53.9213 21.6763 53.8854 21.7476C53.8456 21.8228 53.8097 21.8981 53.7738 21.9773C53.6383 22.3022 53.3871 22.5359 53.1359 22.7736C52.8887 23.0112 52.6336 23.2529 52.4941 23.5856C52.207 24.2472 52.0077 24.8136 51.605 25.388C51.2223 25.9307 51.5173 26.5685 52.0954 27.3291C51.9718 27.4677 51.8123 27.6301 51.6808 27.7648C51.5492 27.9035 51.4296 28.0184 51.3738 28.0738C51.3738 27.9589 51.3738 27.8718 51.3738 27.8203C51.3738 27.7252 51.3778 27.6222 51.3778 27.5113C51.3778 27.4004 51.3738 27.2855 51.3698 27.1588C51.3658 27.032 51.3579 26.9013 51.3459 26.7587C51.3419 26.6874 51.3379 26.6121 51.3299 26.5368C51.322 26.4616 51.314 26.3823 51.306 26.2991C51.2741 25.9743 51.2263 25.6059 51.1545 25.186C51.0828 24.7661 50.9831 24.2987 50.8436 23.7718C50.8037 23.6292 50.7638 23.4708 50.716 23.3083C50.6921 23.2291 50.6682 23.142 50.6402 23.0588C50.6123 22.9756 50.5844 22.8884 50.5565 22.7973C50.5765 22.7339 50.5964 22.6626 50.6163 22.5874C50.6363 22.5121 50.6602 22.4329 50.6841 22.3497C50.728 22.1873 50.7798 22.0169 50.8196 21.8783C50.8794 21.6684 51.2143 21.4822 51.609 21.2722C52.0077 21.0583 52.4701 20.8167 52.7811 20.48C53.0881 20.1432 53.2157 19.9729 53.2874 19.8065C53.3592 19.6402 53.3791 19.4738 53.4628 19.1173C53.5027 18.939 53.5107 18.7766 53.4947 18.6181C53.4748 18.4597 53.4389 18.3091 53.3871 18.1507C53.3353 17.9922 53.2715 17.8338 53.2117 17.6555C53.1439 17.4812 53.0841 17.2832 53.0243 17.0653C53.0123 17.0138 53.0004 16.9583 52.9844 16.9068C52.8848 16.483 52.7931 16.0353 52.7253 15.6947C52.6894 15.5243 52.6655 15.3778 52.6416 15.2748C52.6216 15.1718 52.6137 15.1124 52.6137 15.1124C52.6137 15.1124 52.5579 15.1995 52.4821 15.2985C52.4064 15.3976 52.3067 15.5164 52.223 15.5758C52.1393 15.6392 51.9319 15.8967 51.7246 16.2096C51.5173 16.5226 51.314 16.887 51.2343 17.1762C51.1226 17.612 50.7917 17.81 50.5844 18.0398C50.5167 18.115 50.4648 18.1903 50.4329 18.2814C50.401 18.3725 50.3572 18.5191 50.3173 18.7013C50.2814 18.8835 50.2456 19.0975 50.2376 19.3312C50.2216 19.7986 50.2974 20.3175 50.6442 20.7929C50.704 20.8761 50.724 20.9949 50.716 21.1296C50.704 21.2643 50.6682 21.4148 50.6203 21.5574C50.5246 21.8426 50.3811 22.1001 50.3373 22.1794C50.1339 21.6208 49.8868 21.0345 49.6157 20.472C49.3446 19.9095 49.0456 19.3708 48.7625 18.9033L48.7665 18.8994C48.7226 18.8281 48.6828 18.7607 48.6429 18.6934C48.5991 18.6261 48.5592 18.5627 48.5153 18.4993C48.4356 18.3686 48.3519 18.2458 48.2721 18.1309C48.316 17.7942 48.3678 17.3901 48.3997 17.0851C48.902 16.8553 49.2848 16.7563 49.5399 16.582C49.6675 16.4949 49.7632 16.3919 49.823 16.2413C49.8868 16.0908 49.9107 15.8967 49.8987 15.6313C49.8828 15.35 49.8708 15.1282 49.8708 14.946C49.8628 14.7638 49.8628 14.6172 49.8628 14.4944C49.8628 14.3716 49.8628 14.2686 49.8509 14.1656C49.8389 14.0666 49.823 13.9636 49.7871 13.8487C49.7153 13.615 49.4761 13.3258 49.1931 13.0049C48.906 12.688 48.5791 12.3355 48.328 11.9671C48.2044 11.7809 48.0688 11.5947 47.9373 11.4164C47.8017 11.2421 47.6701 11.0758 47.5545 10.9292C47.4349 10.7826 47.3313 10.6598 47.2555 10.5687C47.1758 10.4776 47.128 10.4142 47.116 10.3984C47.0961 10.3588 47.0323 10.644 46.9525 11.0203C46.9127 11.2065 46.8688 11.4164 46.829 11.6224C46.7891 11.8284 46.7492 12.0265 46.7253 12.1929C46.6735 12.5256 46.7492 12.8386 46.8489 13.1555C46.9486 13.4763 47.0642 13.8051 47.0921 14.1656C47.12 14.5261 47.0841 14.942 47.0482 15.2946C47.0283 15.4728 47.0123 15.6313 47.0084 15.766C47.0004 15.9007 47.0084 16.0037 47.0402 16.067C47.0921 16.174 47.3113 16.3681 47.5466 16.5701C47.7858 16.7682 48.0369 16.9781 48.1685 17.0811C48.1206 17.299 48.0808 17.5605 48.0409 17.7942C47.3951 16.895 46.809 16.2532 46.3226 15.7699C46.1991 15.6511 46.0834 15.5402 45.9718 15.4372C45.8602 15.3382 45.7565 15.2431 45.6529 15.1559C45.5492 15.0688 45.4575 14.9896 45.3658 14.9183C45.2741 14.8469 45.1864 14.7796 45.1067 14.7162C45.0509 14.6726 44.9512 14.5974 44.8196 14.4904C44.7838 14.3993 44.7598 14.3042 44.7399 14.2171C44.72 14.1299 44.712 14.0428 44.704 13.9675C44.6961 13.8923 44.6961 13.8328 44.6921 13.7893C44.6921 13.7655 44.6921 13.7497 44.6921 13.7378C44.6921 13.7259 44.6921 13.718 44.6921 13.718C44.7519 13.5239 44.8755 13.2307 45.1426 12.8425C45.326 12.5771 45.3858 12.2444 45.3618 11.9195C45.3339 11.5987 45.2143 11.2857 45.0549 11.0797C44.8914 10.8619 44.7838 10.6955 44.708 10.5608C44.6363 10.4261 44.5964 10.3231 44.5685 10.236C44.5406 10.1488 44.5206 10.0735 44.4848 9.99828C44.4489 9.92302 44.3931 9.84775 44.2934 9.75268C44.1937 9.65761 44.106 9.56254 44.0183 9.4635C43.9346 9.36447 43.8509 9.26148 43.7592 9.15056C43.5758 8.92872 43.3645 8.66728 43.0216 8.35433C42.9379 8.27511 42.8183 8.2038 42.6828 8.1325C42.615 8.09685 42.5432 8.06516 42.4635 8.0295C42.3878 7.99781 42.304 7.97008 42.2203 7.93839C42.1366 7.91066 42.0489 7.87897 41.9572 7.8552C41.8655 7.83144 41.7738 7.80767 41.6821 7.7839C41.5904 7.76409 41.4987 7.74033 41.403 7.72448C41.3113 7.70467 41.2157 7.68883 41.124 7.67694C41.0323 7.6611 40.9446 7.64922 40.8569 7.63733C40.7692 7.62545 40.6814 7.61753 40.6017 7.6096C40.4383 7.59376 40.2907 7.57791 40.1672 7.57395C39.916 7.56207 39.7565 7.55811 39.7565 7.55811C39.7565 7.55811 39.8283 7.60168 39.9439 7.67694C40.0555 7.75221 40.211 7.85917 40.3665 7.99385C40.4422 8.06119 40.526 8.1325 40.6017 8.20776C40.6775 8.28303 40.7532 8.36622 40.821 8.4494C40.8888 8.53259 40.9486 8.61578 41.0004 8.70293C41.0522 8.79008 41.0881 8.87723 41.116 8.96042C41.1678 9.13075 41.2276 9.3209 41.2795 9.515C41.3353 9.71307 41.3911 9.9151 41.4469 10.1052C41.5027 10.2993 41.5585 10.4895 41.6223 10.6519C41.6821 10.8183 41.7499 10.9648 41.8216 11.0718C41.8974 11.1788 41.9572 11.2738 42.021 11.357C42.0848 11.4402 42.1525 11.5155 42.2243 11.5987C42.3001 11.6818 42.3838 11.765 42.4874 11.8641C42.5871 11.9671 42.7067 12.0819 42.8462 12.2285C43.0376 12.4345 43.2888 12.7356 43.7512 13.0327C43.9346 13.1555 44.0901 13.2783 44.2097 13.4011C44.2735 13.4605 44.3253 13.5199 44.3771 13.5754C44.425 13.6308 44.4648 13.6863 44.5007 13.7338C44.5007 13.7378 44.5047 13.7417 44.5047 13.7417C44.5246 13.8091 44.5486 13.9042 44.5685 14.0111C44.5884 14.1181 44.6044 14.229 44.6203 14.3241C44.5605 14.2765 44.4967 14.229 44.429 14.1775C44.3612 14.126 44.2854 14.0705 44.2097 14.0151C44.0582 13.9002 43.8828 13.7813 43.6994 13.6506C43.3286 13.3971 42.8981 13.1238 42.4236 12.8584C41.9692 12.6009 40.4861 11.8997 39.1027 11.2659C38.9751 11.0916 38.8236 10.85 38.6642 10.5093C38.3612 9.86756 37.6396 9.43181 37.1771 9.36843C36.2123 9.23375 36.2961 8.93269 35.8456 8.91684C35.3911 8.901 35.0323 8.70689 34.2947 8.58805C33.5572 8.46525 32.0781 9.62988 32.0781 9.62988C32.0781 9.62988 33.1306 9.75268 33.6768 10.2558C34.223 10.7589 35.0203 11.5036 35.5187 11.6739C36.013 11.8443 36.2163 11.8443 37.0057 11.872C37.2768 11.8799 37.6715 11.9156 38.1698 11.7571C38.4768 11.6581 38.7638 11.6185 38.9871 11.6105C39.6728 11.9671 40.227 12.2602 40.2748 12.28C40.4502 12.3672 40.6456 12.4622 40.8489 12.5731C41.2555 12.7871 41.6981 13.0366 42.1246 13.2624C42.5193 13.5001 42.9419 13.7378 43.3206 13.9675C43.1731 13.92 42.9818 13.8685 42.7984 13.8447C42.7067 13.8328 42.615 13.821 42.5353 13.821C42.4555 13.821 42.3838 13.8249 42.324 13.8408C42.2283 13.8685 42.1246 13.8606 42.025 13.8408C41.9931 13.7813 41.9173 13.6982 41.8057 13.6071C41.7499 13.5595 41.6821 13.5159 41.6064 13.4684C41.5306 13.4209 41.4469 13.3733 41.3552 13.3298C40.9884 13.1515 40.4861 13.0168 39.9439 13.0564C39.7924 13.0683 39.6569 13.0802 39.5412 13.0921C39.4256 13.104 39.322 13.1158 39.2343 13.1277C39.0549 13.1515 38.9233 13.1792 38.8077 13.2188C38.6961 13.2585 38.6004 13.31 38.4967 13.3892C38.3971 13.4684 38.2854 13.5714 38.1459 13.718C38.0064 13.8645 37.811 14.0032 37.5997 14.1379C37.4961 14.2092 37.3844 14.2765 37.2768 14.3439C37.1692 14.4112 37.0575 14.4825 36.9539 14.5498C36.5353 14.8271 36.1924 15.1044 36.1127 15.3342C36.0967 15.3738 36.1486 15.4015 36.2403 15.4213C36.2841 15.4332 36.3399 15.4372 36.3997 15.4451C36.4595 15.453 36.5273 15.461 36.5991 15.4649C36.8781 15.4926 37.205 15.5204 37.3326 15.5639C37.3605 15.5719 37.3924 15.5798 37.4283 15.5838C37.4642 15.5877 37.504 15.5917 37.5479 15.5917C37.6356 15.5956 37.7353 15.5877 37.8429 15.5838C37.8987 15.5798 37.9545 15.5758 38.0143 15.5679C38.0741 15.5639 38.1339 15.56 38.1977 15.5521C38.3253 15.5362 38.4608 15.5243 38.5924 15.5085C38.8755 15.4768 39.1545 15.4491 39.3977 15.4213C39.5253 15.4095 39.6449 15.3936 39.7525 15.3817C39.8562 15.3698 39.9519 15.358 40.0276 15.3421C40.3266 15.2867 40.7094 15.1361 41.0841 14.8984C41.4589 14.6608 41.8216 14.3399 42.029 13.92C42.4236 13.8962 42.8861 14.1537 43.0177 14.1973C43.1652 14.2409 43.5718 14.2171 43.7153 14.2092C43.8389 14.2884 43.9545 14.3637 44.0582 14.431C44.1618 14.4984 44.2535 14.5657 44.3333 14.6212C44.7439 14.9222 45.1745 15.3421 45.5293 15.7382C45.8881 16.1344 46.1831 16.5028 46.3824 16.681C46.4582 16.7484 46.5499 16.8514 46.6615 16.9702C46.7173 17.0296 46.7731 17.1009 46.8329 17.1722C46.8927 17.2435 46.9565 17.3188 47.0163 17.402C46.9087 17.3584 46.7971 17.3188 46.6894 17.295C46.5698 17.2673 46.4383 17.2356 46.3107 17.2039C46.1831 17.1722 46.0555 17.1406 45.9559 17.1128C45.928 17.0059 45.8323 16.8672 45.7047 16.7088C45.5771 16.5543 45.4097 16.3839 45.2263 16.2334C44.8595 15.9244 44.429 15.6788 44.1539 15.6471C43.9984 15.6273 43.8628 15.6234 43.7313 15.6353C43.5997 15.6432 43.4801 15.663 43.3525 15.6986C43.0974 15.766 42.8343 15.8729 42.4715 16.0353C42.1087 16.1978 41.7778 16.3206 41.4788 16.4434C41.3313 16.5028 41.1917 16.5622 41.0602 16.6256C40.9286 16.689 40.809 16.7563 40.6934 16.8316C40.5818 16.9068 40.4701 16.9623 40.3665 17.0098C40.2628 17.0574 40.1711 17.0891 40.0874 17.1168C40.0077 17.1406 39.9399 17.1564 39.8961 17.1643C39.8482 17.1722 39.8243 17.1802 39.8243 17.1802C39.8243 17.1802 39.8283 17.1921 39.8442 17.2119C39.8602 17.2356 39.8841 17.2673 39.924 17.3069C39.9638 17.3465 40.0236 17.3941 40.0994 17.4535C40.1393 17.4812 40.1831 17.5129 40.2349 17.5446C40.2868 17.5763 40.3426 17.612 40.4064 17.6516C40.6575 17.8021 40.9964 17.8694 41.3751 17.9091C41.7539 17.9487 42.1844 17.9487 42.603 17.9487C42.8143 17.9487 42.9937 17.9685 43.1572 17.9883C43.3206 18.012 43.4642 18.0398 43.5997 18.0635C43.7393 18.0873 43.8668 18.1032 44.0024 18.0992C44.1379 18.0992 44.2814 18.0794 44.4409 18.0279C45.0389 17.8496 45.7326 17.4971 45.916 17.2871C46.1552 17.3505 46.3904 17.4218 46.5299 17.4456C46.6137 17.4575 46.7373 17.505 46.8688 17.5644C46.9366 17.5961 47.0044 17.6278 47.0761 17.6635C47.1479 17.6991 47.2157 17.7387 47.2834 17.7744C47.6263 18.2458 47.9572 18.7805 48.1804 19.1727L48.1924 19.1648C48.6509 19.8659 49.0894 20.7097 49.3565 21.3633C49.1771 21.2841 48.914 21.1692 48.7904 21.1058C48.7864 21.1058 48.7824 21.1019 48.7824 21.1019C48.7426 21.0623 48.7027 21.0187 48.6589 20.9712C48.615 20.9236 48.5711 20.8682 48.5273 20.8087C48.4834 20.7493 48.4396 20.682 48.3957 20.6146C48.3519 20.5433 48.308 20.472 48.2682 20.3888C48.2203 20.2898 48.1605 20.1987 48.1007 20.1234C48.0409 20.0442 47.9811 19.9769 47.9213 19.9135C47.7977 19.7907 47.6821 19.6996 47.5864 19.6243C47.5386 19.5847 47.4907 19.549 47.4509 19.5174C47.2316 19.3431 47.0761 19.2361 46.9326 19.145C46.7851 19.0618 46.6416 18.9984 46.4343 18.9311C46.203 18.8598 45.8323 18.8439 45.4296 18.8637C45.0309 18.8835 44.6004 18.943 44.2575 18.9945C44.0861 19.0182 43.8868 19.0539 43.6874 19.0856C43.5878 19.1014 43.4881 19.1212 43.3884 19.1371C43.2927 19.1569 43.1971 19.1727 43.1054 19.1925C42.926 19.2282 42.7665 19.2599 42.6549 19.2836C42.5432 19.3074 42.4755 19.3232 42.4755 19.3232C42.4755 19.3232 42.4795 19.3272 42.4914 19.3351C42.5034 19.3431 42.5153 19.3549 42.5353 19.3708C42.5711 19.4025 42.627 19.4421 42.7027 19.4896C42.7745 19.5332 42.8662 19.5887 42.9698 19.6441C43.0775 19.6956 43.1971 19.755 43.3366 19.8026C43.8907 20.0006 44.3333 20.3255 44.6243 20.5235C44.6761 20.5592 44.7319 20.5909 44.7878 20.6186C44.8436 20.6463 44.9034 20.6741 44.9632 20.7018C45.0748 20.7493 45.2024 20.8008 45.3539 20.8761C45.4296 20.9117 45.5133 20.9553 45.605 21.0029C45.6927 21.0543 45.7924 21.1098 45.904 21.1811C45.9878 21.2326 46.0914 21.2801 46.219 21.3237C46.3466 21.3633 46.4941 21.399 46.6496 21.4228C46.9605 21.4703 47.3193 21.4742 47.6542 21.395C48.1406 21.2762 48.4794 21.2485 48.6987 21.2524C48.6987 21.2524 48.7067 21.2524 48.7187 21.2564C48.7306 21.2603 48.7505 21.2643 48.7745 21.2683C48.8183 21.2801 48.8861 21.2999 48.9579 21.3277C49.1054 21.3792 49.2927 21.4624 49.4482 21.5812C49.5399 21.8228 49.6077 22.0249 49.6436 22.1714C49.6794 22.314 49.9585 22.9954 50.1818 23.7441C50.2974 24.1165 50.3931 24.5086 50.4688 24.8493C50.5047 25.0196 50.5326 25.1781 50.5565 25.3128C50.5765 25.4514 50.5884 25.5663 50.5924 25.6534C50.6044 25.8753 50.6801 26.2437 50.7559 26.6715C50.6044 26.5725 50.3891 26.4219 50.2495 26.2912C50.2974 26.208 50.3213 26.109 50.3293 26.006C50.3373 25.899 50.3333 25.7881 50.3133 25.6851C50.2974 25.5782 50.2735 25.4752 50.2456 25.388C50.2177 25.3009 50.1897 25.2296 50.1698 25.182C50.1419 25.1187 50.0861 25.0236 50.0143 24.9206C49.9426 24.8136 49.8549 24.6988 49.7672 24.5878C49.5838 24.366 49.3924 24.1719 49.2888 24.1442C49.1891 24.1125 48.8462 24.065 48.4874 24.0016C48.1206 23.9382 47.7379 23.8629 47.5466 23.7639C47.1638 23.5619 46.8569 23.4193 46.5379 23.2291C46.3745 23.134 46.1871 23.0548 46.0356 23.0073C45.8841 22.9558 45.7685 22.932 45.7685 22.932C45.7685 22.932 45.8004 22.9875 45.8522 23.0786C45.904 23.1697 45.9718 23.2965 46.0436 23.4391C46.1791 23.7203 46.3266 24.065 46.3585 24.2789C46.3705 24.3343 46.3785 24.3898 46.3864 24.4492C46.3944 24.5086 46.3984 24.568 46.4064 24.6275C46.4143 24.6869 46.4183 24.7503 46.4263 24.8097C46.4303 24.8691 46.4383 24.9325 46.4462 24.9879C46.4542 25.0474 46.4662 25.1028 46.4821 25.1583C46.4981 25.2137 46.51 25.2652 46.5339 25.3128C46.5738 25.4078 46.6296 25.491 46.7094 25.5544C47.0203 25.8 47.6064 25.8951 47.9213 26.1763C48.0768 26.315 48.4715 26.418 48.8781 26.4814C49.2888 26.5447 49.7193 26.5606 49.9505 26.517C50.0024 26.5051 50.0542 26.4893 50.0941 26.4655C50.1778 26.5646 50.2735 26.6874 50.3492 26.7824C50.421 26.8775 50.4768 26.9488 50.4768 26.9488C50.4768 26.9488 50.704 27.0518 50.8595 27.2301C50.9193 27.6301 50.9512 28.0501 50.9432 28.4105C50.9392 28.5413 50.9273 28.6997 50.9113 28.878C50.9034 28.9691 50.8954 29.0642 50.8834 29.1632C50.8755 29.2622 50.8635 29.3652 50.8515 29.4722C50.8077 29.896 50.7479 30.3635 50.72 30.8071C50.6642 31.231 50.6243 31.6786 50.5884 32.0866C50.5685 31.952 50.5167 31.7777 50.4608 31.6192C50.401 31.4608 50.3253 31.3181 50.2416 31.2429C50.1698 31.1795 50.1299 31.0923 50.0981 31.0012C50.1419 30.9458 50.1937 30.8467 50.2336 30.7121C50.2735 30.5774 50.3014 30.411 50.3133 30.2209C50.3253 29.8406 50.2495 29.3731 49.9864 28.9334C49.9147 28.8106 49.8469 28.6997 49.7871 28.6046C49.7273 28.5096 49.6795 28.4264 49.6276 28.3551C49.5319 28.2125 49.4522 28.1055 49.3685 28.0223C49.1971 27.8559 49.0017 27.7688 48.5951 27.6301C48.3878 27.5588 48.1725 27.436 47.9492 27.2895C47.8376 27.2182 47.726 27.1389 47.6143 27.0597C47.5027 26.9805 47.3951 26.9013 47.2834 26.822C47.1718 26.7428 47.0642 26.6715 46.9605 26.6002C46.8569 26.5329 46.7532 26.4695 46.6575 26.414C46.5618 26.3625 46.4701 26.319 46.3864 26.2873C46.3027 26.2556 46.223 26.2358 46.1552 26.2318C46.0555 26.2278 46.1113 26.4893 46.1791 26.7943C46.1951 26.8696 46.215 26.9488 46.2349 27.028C46.2509 27.1073 46.2708 27.1825 46.2868 27.2578C46.3187 27.4044 46.3386 27.5311 46.3426 27.6064C46.3505 27.7371 46.4143 27.9233 46.518 28.1332C46.5658 28.2402 46.6256 28.3551 46.6894 28.4739C46.7532 28.5928 46.821 28.7156 46.8927 28.8384C47.1758 29.3296 47.4828 29.8366 47.6701 30.0743C47.7618 30.1931 47.8894 30.312 48.0489 30.4308C48.2044 30.5457 48.3878 30.6606 48.5951 30.7556C49.0057 30.9497 49.4961 31.0805 50.0143 31.0448C50.114 31.1953 50.1618 31.3974 50.1818 31.5717C50.2017 31.746 50.2017 31.9005 50.2097 31.9638C50.2336 32.0985 50.4688 32.4075 50.5406 32.5105C50.5246 32.6452 50.5127 32.772 50.4967 32.8868C50.4808 33.0017 50.4648 33.1047 50.4529 33.1958C50.3692 33.6672 50.1858 34.2099 49.9984 34.6932C49.9067 34.9348 49.807 35.1606 49.7313 35.3547C49.6476 35.5488 49.5878 35.7192 49.5559 35.838C49.508 36.0242 49.3884 36.3451 49.221 36.7056C49.205 36.6026 49.1811 36.4996 49.1412 36.4045C49.0655 36.1985 48.9778 35.9371 48.914 35.7588C49.0854 35.5964 49.2648 35.1725 49.3645 34.7288C49.4642 34.2852 49.4761 33.8257 49.3645 33.5959C49.2369 33.3384 49.0934 33.1641 48.906 33.0017C48.7147 32.8393 48.4715 32.6888 48.1326 32.4867C47.7937 32.2847 47.5107 32.0827 47.2436 31.9005C46.9765 31.7182 46.7373 31.5637 46.4821 31.4528C46.227 31.3419 46.0396 31.1993 45.916 31.0844C45.8522 31.029 45.8084 30.9775 45.7765 30.9418C45.7446 30.9062 45.7286 30.8824 45.7286 30.8824C45.7286 30.8824 45.7206 30.8943 45.7047 30.9181C45.6888 30.9418 45.6728 30.9854 45.6449 31.0488C45.621 31.1082 45.5971 31.1914 45.5771 31.2944C45.5572 31.3974 45.5373 31.5241 45.5253 31.6786C45.5173 31.7579 45.5173 31.8371 45.5253 31.9163C45.5293 31.9559 45.5333 31.9955 45.5412 32.0351C45.5452 32.0748 45.5532 32.1144 45.5652 32.1579C45.5851 32.2411 45.609 32.3204 45.6409 32.4075C45.6688 32.4907 45.7007 32.5739 45.7406 32.6571C45.7605 32.6967 45.7804 32.7403 45.8004 32.7838C45.8203 32.8274 45.8442 32.867 45.8642 32.9106C45.908 32.9938 45.9559 33.0809 46.0077 33.1641C46.1074 33.3345 46.215 33.5008 46.3266 33.6672C46.4343 33.8296 46.514 33.9841 46.5778 34.1228C46.6376 34.2614 46.6894 34.3882 46.7412 34.507C46.8409 34.7407 46.9565 34.9428 47.2196 35.1289C47.714 35.4815 48.4276 35.8024 48.7266 35.8222C48.7904 36.0361 48.8582 36.25 48.914 36.3649C48.9459 36.4362 48.9698 36.5471 48.9858 36.6818C49.0057 36.8125 49.0137 36.963 49.0137 37.1056C48.7545 37.6206 48.4356 38.1594 48.1924 38.5396L48.7585 38.809C48.8024 38.7377 48.8422 38.6704 48.8821 38.603C48.922 38.5357 48.9618 38.4683 48.9977 38.401C49.0735 38.2703 49.1412 38.1396 49.209 38.0167C49.3804 37.9415 49.5678 37.8543 49.7512 37.7711C49.9346 37.688 50.114 37.6048 50.2655 37.5335C50.7638 37.7791 51.0668 38.0049 51.3698 38.096C51.5213 38.1435 51.6728 38.1554 51.8482 38.1197C51.9359 38.0999 52.0276 38.0722 52.1313 38.0247C52.2309 37.9811 52.3426 37.9217 52.4662 37.8424C52.7213 37.68 52.9246 37.5533 53.0921 37.4542C53.2635 37.3512 53.399 37.276 53.5147 37.2086C53.6303 37.1413 53.7299 37.0858 53.8177 37.0264C53.9093 36.967 53.9931 36.8997 54.0808 36.8165C54.1725 36.7293 54.2562 36.6065 54.3319 36.4599C54.4077 36.3134 54.4834 36.1391 54.5552 35.9569C54.5911 35.8657 54.6309 35.7707 54.6708 35.6756C54.7107 35.5805 54.7505 35.4815 54.7904 35.3864C54.8781 35.1923 54.9698 34.9982 55.0814 34.82C55.1971 34.6377 55.3007 34.4516 55.4044 34.2733C55.504 34.095 55.5957 33.9207 55.6755 33.7662C55.8309 33.4612 55.9426 33.2394 55.9665 33.2077C55.9944 33.176 55.6834 33.2592 55.2768 33.3741C55.0735 33.4335 54.8502 33.5008 54.6309 33.5642C54.4117 33.6316 54.2004 33.6989 54.025 33.7583C53.6781 33.8811 53.415 34.0911 53.1598 34.3208C53.0323 34.4357 52.9047 34.5585 52.7691 34.6774C52.6336 34.7962 52.4861 34.9111 52.3226 35.0141C51.9917 35.2201 51.5771 35.4102 51.2223 35.5726C51.1346 35.6122 51.0509 35.6518 50.9711 35.6875C50.8914 35.7231 50.8196 35.7628 50.7519 35.7944C50.6243 35.8618 50.5286 35.9252 50.4848 35.9806C50.4489 36.0282 50.413 36.1153 50.3771 36.2302C50.3612 36.2856 50.3452 36.349 50.3293 36.4164C50.3133 36.4837 50.2974 36.5511 50.2814 36.6224C50.2535 36.765 50.2256 36.9115 50.1977 37.0383C50.1738 37.169 50.1539 37.2799 50.1379 37.3592C49.9067 37.4424 49.6396 37.5572 49.3924 37.6602C49.8828 36.6857 50.1738 35.9054 50.3731 35.2834C50.5804 34.6536 50.6881 34.1861 50.7598 33.8098Z" fill="url(#paint2_radial_545:18057)"/>
<path d="M16.3008 31.1597C20.8656 31.0765 25.4343 31.0409 29.9991 31.0092L36.8483 30.9815L43.6975 30.9617V31.3578L36.8483 31.342L29.9991 31.3142L23.15 31.2588L16.3008 31.1597ZM16.3008 31.1597L23.15 31.0607L29.9991 31.0052L36.8483 30.9775L43.6975 30.9617V31.3578L36.8483 31.338L29.9991 31.3103C25.4343 31.2786 20.8696 31.2429 16.3008 31.1597Z" fill="#FFCF78"/>
<path d="M30.2069 59.0001C34.1019 58.9684 37.9889 58.1841 41.577 56.6867C45.165 55.1933 48.454 52.9947 51.2009 50.2614C53.9477 47.5281 56.1484 44.256 57.6235 40.6829C59.1026 37.1138 59.8441 33.2475 59.8042 29.3931C59.7723 25.5348 58.959 21.6884 57.4202 18.1509C55.8853 14.6134 53.6288 11.3889 50.8421 8.71501C48.0554 6.03715 44.7424 3.90992 41.1424 2.4878C37.5424 1.06569 33.6634 0.356611 29.7962 0.396224C25.9251 0.416031 22.058 1.17264 18.482 2.65022C14.9019 4.11987 11.6208 6.29464 8.87398 9.00815C6.12315 11.7217 3.91452 14.9739 2.42747 18.5351C0.936443 22.0924 0.178967 25.9507 0.202888 29.8051C0.218834 33.6634 1.01219 37.5139 2.54309 41.0632C4.06601 44.6126 6.31452 47.8569 9.09724 50.5506C11.88 53.2482 15.1969 55.3992 18.8089 56.8412C22.4168 58.291 26.3119 59.0199 30.2069 59.0001ZM30.2069 59.0001C26.3119 59.0357 22.4089 58.3267 18.7889 56.8927C15.165 55.4626 11.8281 53.3196 9.02548 50.6259C6.21883 47.9321 3.9504 44.6878 2.40355 41.1226C0.848735 37.5654 0.0354457 33.6912 -0.000434689 29.8091C-0.0403018 25.927 0.705213 22.037 2.19624 18.4401C3.6793 14.8432 5.89591 11.5474 8.66269 8.7982C11.4255 6.04508 14.7344 3.83069 18.3504 2.32935C21.9624 0.824048 25.8773 0.0317824 29.7923 0.0040531C33.7152 -0.0157535 37.6341 0.717092 41.27 2.1709C44.9059 3.62471 48.2467 5.78759 51.0454 8.50506C53.8481 11.2186 56.1125 14.4827 57.6434 18.0558C59.1823 21.6289 59.9836 25.511 59.9996 29.3931C60.0235 33.2752 59.258 37.1613 57.759 40.7423C56.264 44.3273 54.0394 47.6034 51.2687 50.3327C48.5019 53.066 45.1969 55.2566 41.5929 56.7342C37.9929 58.2157 34.1019 58.9842 30.2069 59.0001Z" fill="#FFDB78"/>
<path d="M20.2127 53.7989C19.9057 53.9336 19.6147 53.9376 19.3436 53.8227C19.1841 53.7554 19.0525 53.6563 18.9489 53.5296C18.8452 53.4028 18.7695 53.2602 18.7176 53.1057C18.6698 52.9512 18.6459 52.7888 18.6539 52.6224C18.6618 52.4521 18.6977 52.2936 18.7655 52.1391C18.8333 51.9807 18.9289 51.842 19.0485 51.7232C19.1681 51.6044 19.2997 51.5132 19.4472 51.4459C19.5947 51.3786 19.7462 51.3429 19.9137 51.339C20.0771 51.335 20.2406 51.3667 20.396 51.434C20.6273 51.5331 20.7947 51.6638 20.8984 51.8222C21.006 51.9807 21.0618 52.155 21.0738 52.3412L20.7748 52.4006C20.7628 52.2342 20.715 52.0916 20.6273 51.9728C20.5396 51.8539 20.42 51.7628 20.2725 51.6994C20.1529 51.6479 20.0333 51.6242 19.9097 51.6361C19.7901 51.644 19.6745 51.6796 19.5708 51.7351C19.4632 51.7905 19.3675 51.8658 19.2798 51.9609C19.1921 52.0559 19.1243 52.1629 19.0725 52.2817C19.0166 52.4085 18.9848 52.5353 18.9808 52.666C18.9728 52.7967 18.9887 52.9195 19.0246 53.0384C19.0605 53.1572 19.1163 53.2602 19.196 53.3513C19.2758 53.4424 19.3715 53.5137 19.4911 53.5652C19.7502 53.6761 20.0372 53.6524 20.3522 53.4979L20.4957 53.173L19.9854 52.9512L20.0851 52.7254L20.8505 53.0582L20.3362 54.2347L20.0811 54.1238L20.2127 53.7989Z" fill="#FFDB78"/>
<path d="M22.058 54.512C22.2015 54.5555 22.3291 54.5674 22.4407 54.5397C22.5523 54.512 22.652 54.4644 22.7357 54.3931C22.8194 54.3218 22.8912 54.2347 22.951 54.1277C23.0108 54.0208 23.0586 53.9098 23.0945 53.791L23.4852 52.5511L23.8002 52.6501L23.4095 53.89C23.3576 54.0564 23.2899 54.2069 23.2022 54.3456C23.1184 54.4803 23.0148 54.5952 22.8952 54.6823C22.7756 54.7694 22.64 54.8249 22.4846 54.8487C22.3291 54.8724 22.1576 54.8566 21.9703 54.7972C21.7749 54.7338 21.6194 54.6506 21.5038 54.5397C21.3922 54.4288 21.3125 54.302 21.2646 54.1634C21.2168 54.0247 21.2008 53.8742 21.2128 53.7157C21.2248 53.5573 21.2527 53.3988 21.3045 53.2404L21.6952 52.0005L22.0101 52.0995L21.6194 53.3394C21.5796 53.4622 21.5556 53.585 21.5437 53.7039C21.5317 53.8267 21.5397 53.9376 21.5716 54.0445C21.5995 54.1515 21.6553 54.2426 21.7311 54.3258C21.8108 54.405 21.9184 54.4684 22.058 54.512Z" fill="#FFDB78"/>
<path d="M23.3945 55.2053L24.9613 52.9038L25.2244 52.9593L25.7387 55.6926L25.3959 55.6213L25.2484 54.8211L24.1839 54.6032L23.7334 55.2806L23.3945 55.2053ZM25.0171 53.296L24.3035 54.3616L25.2324 54.5517L25.0171 53.296Z" fill="#FFDB78"/>
<path d="M26.2207 55.7479L26.5038 53.1929L27.6041 53.3117C27.7157 53.3236 27.8194 53.3592 27.9111 53.4147C28.0028 53.4702 28.0785 53.5454 28.1383 53.6286C28.1981 53.7158 28.242 53.8069 28.2699 53.9099C28.2978 54.0129 28.3058 54.1119 28.2938 54.2149C28.2818 54.302 28.2619 54.3892 28.226 54.4684C28.1901 54.5476 28.1463 54.6189 28.0905 54.6823C28.0347 54.7457 27.9749 54.7972 27.9031 54.8368C27.8313 54.8764 27.7516 54.9042 27.6679 54.916L28.1822 55.9618L27.8114 55.9222L27.325 54.9398L26.6433 54.8645L26.5436 55.7836L26.2207 55.7479ZM26.6792 54.5793L27.4566 54.6665C27.5244 54.6744 27.5881 54.6665 27.644 54.6427C27.6998 54.6189 27.7516 54.5873 27.7955 54.5397C27.8393 54.4961 27.8752 54.4407 27.9031 54.3773C27.931 54.3139 27.9509 54.2505 27.9589 54.1792C27.9669 54.1079 27.9629 54.0366 27.943 53.9733C27.923 53.9059 27.8951 53.8465 27.8592 53.791C27.8234 53.7356 27.7755 53.692 27.7237 53.6603C27.6719 53.6247 27.6121 53.6048 27.5483 53.6009L26.7908 53.5177L26.6792 54.5793Z" fill="#FFDB78"/>
<path d="M28.4922 55.9897L29.5885 53.4307L29.8596 53.4346L30.8882 56.0214L30.5374 56.0174L30.2424 55.2608L29.154 55.245L28.843 55.9936L28.4922 55.9897ZM29.7201 53.8109L29.2218 54.9914L30.1706 55.0033L29.7201 53.8109Z" fill="#FFDB78"/>
<path d="M31.5547 54.009L31.7381 55.962L31.4112 55.9937L31.168 53.4346L31.4231 53.4109L33.2092 55.2569L33.0218 53.2683L33.3487 53.2366L33.5879 55.7916L33.3128 55.8154L31.5547 54.009Z" fill="#FFDB78"/>
<path d="M35.752 53.066L34.875 53.2364L35.3215 55.4745L34.9985 55.5379L34.552 53.2998L33.675 53.4701L33.6191 53.1849L35.6922 52.7769L35.752 53.066Z" fill="#FFDB78"/>
<path d="M38.3048 54.4012L38.3885 54.6785L36.7021 55.1697L35.9766 52.7018L37.631 52.2185L37.7108 52.4958L36.3712 52.884L36.6065 53.6842L37.7706 53.3435L37.8463 53.605L36.6822 53.9417L36.9334 54.7934L38.3048 54.4012Z" fill="#FFDB78"/>
<path d="M40.4893 53.5691L40.597 53.8385L38.9624 54.4763L38.0176 52.0837L39.6242 51.4578L39.7319 51.7271L38.4322 52.2342L38.7392 53.0106L39.8674 52.5709L39.9671 52.8244L38.8349 53.2641L39.1618 54.0881L40.4893 53.5691Z" fill="#FFDB78"/>
<path d="M41.1662 53.589L39.9941 51.2954L40.7915 50.8914C40.9749 50.8003 41.1543 50.7488 41.3257 50.7369C41.4971 50.725 41.6526 50.7488 41.8001 50.8042C41.9476 50.8597 42.0792 50.9468 42.1948 51.0617C42.3144 51.1766 42.4101 51.3113 42.4898 51.4697C42.5775 51.644 42.6333 51.8144 42.6533 51.9807C42.6732 52.1471 42.6613 52.3056 42.6134 52.4561C42.5656 52.6066 42.4898 52.7413 42.3782 52.8681C42.2706 52.9909 42.131 53.0978 41.9596 53.181L41.1662 53.589ZM42.1988 51.6202C42.131 51.4895 42.0553 51.3826 41.9636 51.2915C41.8719 51.2003 41.7722 51.133 41.6606 51.0934C41.549 51.0538 41.4333 51.034 41.3098 51.0419C41.1862 51.0498 41.0586 51.0855 40.927 51.1528L40.4207 51.4103L41.3297 53.185L41.836 52.9275C41.9676 52.8601 42.0752 52.777 42.1549 52.6819C42.2347 52.5829 42.2865 52.4799 42.3144 52.365C42.3423 52.2501 42.3463 52.1313 42.3264 52.0045C42.3064 51.8738 42.2626 51.747 42.1988 51.6202Z" fill="#FFDB78"/>
<path d="M20.2892 28.7589C20.3052 28.6995 20.3211 28.6242 20.3371 28.5331C20.353 28.442 20.365 28.3311 20.3769 28.2004C20.3889 28.0657 20.3969 27.9112 20.4009 27.725C20.4049 27.5428 20.4088 27.3289 20.4088 27.0833L20.4128 24.2628C20.4128 24.0172 20.3969 23.8231 20.365 23.6766C20.3331 23.5339 20.2932 23.4191 20.2494 23.3438C20.2055 23.2646 20.1577 23.2091 20.1098 23.1735C20.062 23.1378 20.0221 23.1061 19.9902 23.0784V23.0625L21.2461 22.5674V22.5832C21.2301 22.6426 21.2142 22.7179 21.1982 22.809C21.1823 22.9001 21.1703 23.0111 21.1583 23.1457C21.1464 23.2804 21.1384 23.4389 21.1344 23.6211C21.1304 23.8033 21.1265 24.0172 21.1265 24.2628L21.1225 27.0833C21.1225 27.3289 21.1225 27.5428 21.1304 27.725C21.1344 27.9072 21.1424 28.0657 21.1544 28.2004C21.1663 28.3351 21.1783 28.446 21.1942 28.5331C21.2102 28.6242 21.2261 28.6995 21.2421 28.7589V28.7748H20.2932V28.7589H20.2892Z" fill="#FFDB78"/>
<path d="M22.3418 25.689C22.3418 25.3958 22.3777 25.1106 22.4494 24.8373C22.5212 24.5639 22.6249 24.3065 22.7564 24.0688C22.888 23.8311 23.0474 23.6132 23.2348 23.4191C23.4222 23.225 23.6255 23.0547 23.8528 22.916C24.08 22.7774 24.3192 22.6665 24.5783 22.5912C24.8375 22.5159 25.1086 22.4763 25.3837 22.4763C25.6627 22.4763 25.9298 22.5159 26.189 22.5912C26.4481 22.6665 26.6913 22.7774 26.9185 22.916C27.1458 23.0547 27.3491 23.225 27.5365 23.4231C27.7199 23.6211 27.8793 23.839 28.0109 24.0767C28.1425 24.3144 28.2461 24.5719 28.3179 24.8452C28.3896 25.1185 28.4255 25.4037 28.4255 25.7008C28.4255 25.9979 28.3896 26.2832 28.3139 26.5565C28.2421 26.8298 28.1385 27.0873 28.0069 27.325C27.8754 27.5627 27.7159 27.7805 27.5285 27.9786C27.3411 28.1767 27.1378 28.343 26.9106 28.4817C26.6833 28.6203 26.4401 28.7273 26.181 28.8065C25.9219 28.8818 25.6548 28.9174 25.3757 28.9174C25.0966 28.9174 24.8295 28.8778 24.5704 28.8026C24.3112 28.7273 24.068 28.6164 23.8448 28.4777C23.6215 28.3391 23.4142 28.1687 23.2308 27.9707C23.0474 27.7726 22.888 27.5547 22.7564 27.3171C22.6249 27.0754 22.5212 26.8219 22.4494 26.5486C22.3777 26.2752 22.3418 25.9861 22.3418 25.689ZM22.9797 25.7088C22.9797 25.9464 23.0076 26.1722 23.0634 26.3941C23.1192 26.6119 23.1989 26.8179 23.3026 27.012C23.4062 27.2061 23.5298 27.3804 23.6734 27.5389C23.8209 27.6973 23.9803 27.832 24.1597 27.9469C24.3391 28.0618 24.5305 28.1489 24.7338 28.2084C24.9371 28.2717 25.1524 28.3034 25.3757 28.3034C25.5989 28.3034 25.8142 28.2717 26.0215 28.2123C26.2288 28.1489 26.4202 28.0618 26.5996 27.9509C26.779 27.84 26.9385 27.7013 27.086 27.5429C27.2295 27.3844 27.3571 27.2101 27.4607 27.016C27.5644 26.8259 27.6441 26.6199 27.7039 26.398C27.7597 26.1802 27.7916 25.9504 27.7916 25.7127C27.7916 25.3562 27.7278 25.0235 27.6043 24.7105C27.4807 24.3976 27.3092 24.1242 27.09 23.8866C26.8707 23.6489 26.6195 23.4627 26.3285 23.328C26.0375 23.1894 25.7225 23.122 25.3876 23.122C25.0528 23.122 24.7378 23.1894 24.4468 23.328C24.1558 23.4627 23.9006 23.6489 23.6813 23.8866C23.4621 24.1203 23.2946 24.3976 23.167 24.7105C23.0435 25.0195 22.9797 25.3522 22.9797 25.7088Z" fill="#FFDB78"/>
<path d="M29.0996 25.7009C29.0996 25.4078 29.1355 25.1226 29.2073 24.8492C29.279 24.5759 29.3827 24.3184 29.5142 24.0807C29.6458 23.8431 29.8053 23.6252 29.9926 23.4311C30.18 23.237 30.3833 23.0666 30.6106 22.928C30.8378 22.7893 31.077 22.6784 31.3362 22.6032C31.5953 22.5279 31.8664 22.4883 32.1415 22.4883C32.4205 22.4883 32.6876 22.5279 32.9468 22.6032C33.2059 22.6784 33.4491 22.7893 33.6764 22.928C33.9036 23.0666 34.1069 23.237 34.2943 23.435C34.4777 23.6331 34.6372 23.851 34.7687 24.0887C34.9003 24.3263 35.0039 24.5838 35.0757 24.8572C35.1475 25.1305 35.1833 25.4157 35.1833 25.7088C35.1833 26.0059 35.1475 26.2912 35.0717 26.5645C34.9999 26.8378 34.8963 27.0953 34.7647 27.333C34.6332 27.5746 34.4737 27.7885 34.2863 27.9866C34.0989 28.1847 33.8956 28.351 33.6684 28.4897C33.4411 28.6283 33.1979 28.7353 32.9388 28.8145C32.6797 28.8898 32.4086 28.9294 32.1335 28.9294C31.8544 28.9294 31.5873 28.8898 31.3282 28.8145C31.069 28.7393 30.8259 28.6283 30.6026 28.4897C30.3793 28.351 30.172 28.1807 29.9886 27.9826C29.8053 27.7846 29.6458 27.5667 29.5142 27.329C29.3827 27.0874 29.279 26.8339 29.2073 26.5605C29.1355 26.2832 29.0996 25.998 29.0996 25.7009ZM29.7375 25.7207C29.7375 25.9584 29.7654 26.1842 29.8212 26.406C29.877 26.6239 29.9568 26.8299 30.0604 27.024C30.1641 27.2181 30.2877 27.3924 30.4312 27.5509C30.5787 27.7093 30.7381 27.844 30.9176 27.9589C31.097 28.0738 31.2883 28.1609 31.4916 28.2203C31.695 28.2837 31.9102 28.3154 32.1335 28.3154C32.3568 28.3154 32.572 28.2837 32.7793 28.2243C32.9867 28.1609 33.178 28.0737 33.3574 27.9628C33.5368 27.8519 33.6963 27.7133 33.8438 27.5548C33.9873 27.3964 34.1149 27.2221 34.2185 27.028C34.3222 26.8378 34.4019 26.6318 34.4617 26.41C34.5215 26.1921 34.5494 25.9624 34.5494 25.7247C34.5494 25.3682 34.4857 25.0354 34.3621 24.7225C34.2385 24.4095 34.0671 24.1362 33.8478 23.8985C33.6325 23.6608 33.3773 23.4747 33.0863 23.34C32.7953 23.2013 32.4803 23.134 32.1455 23.134C31.8106 23.134 31.4956 23.2013 31.2046 23.34C30.9136 23.4747 30.6584 23.6608 30.4391 23.8985C30.2199 24.1322 30.0524 24.4095 29.9249 24.7225C29.8013 25.0315 29.7375 25.3642 29.7375 25.7207Z" fill="#FFDB78"/>
<path d="M35.9414 24.1243C35.9414 23.8985 35.9813 23.6885 36.065 23.4865C36.1487 23.2885 36.2564 23.1142 36.3959 22.9636C36.5354 22.8131 36.6989 22.6982 36.8863 22.6111C37.0736 22.5239 37.273 22.4803 37.4843 22.4803C37.6956 22.4803 37.8989 22.5239 38.0863 22.6111C38.2736 22.6982 38.4371 22.8171 38.5806 22.9636C38.7201 23.1142 38.8318 23.2885 38.9115 23.4865C38.9912 23.6846 39.0351 23.8985 39.0351 24.1243C39.0351 24.3501 38.9952 24.56 38.9115 24.7581C38.8278 24.9562 38.7162 25.1265 38.5766 25.277C38.4371 25.4236 38.2696 25.5424 38.0823 25.6256C37.8949 25.7128 37.6916 25.7564 37.4803 25.7564C37.269 25.7564 37.0657 25.7128 36.8823 25.6256C36.6949 25.5385 36.5314 25.4236 36.3919 25.2731C36.2524 25.1265 36.1447 24.9522 36.061 24.7541C35.9813 24.564 35.9414 24.3501 35.9414 24.1243ZM36.4358 24.1362C36.4358 24.2907 36.4637 24.4372 36.5155 24.5719C36.5713 24.7066 36.6431 24.8254 36.7387 24.9284C36.8344 25.0314 36.9421 25.1107 37.0696 25.1701C37.1972 25.2295 37.3328 25.2612 37.4803 25.2612C37.6318 25.2612 37.7673 25.2335 37.8949 25.174C38.0225 25.1146 38.1341 25.0354 38.2258 24.9324C38.3215 24.8294 38.3932 24.7106 38.449 24.5759C38.5009 24.4412 38.5288 24.2946 38.5288 24.1401C38.5288 23.9817 38.5009 23.8312 38.449 23.6925C38.3972 23.5539 38.3215 23.4311 38.2298 23.3281C38.1341 23.2251 38.0265 23.1419 37.8989 23.0825C37.7713 23.023 37.6318 22.9914 37.4843 22.9914C37.3368 22.9914 37.2012 23.0191 37.0736 23.0785C36.9461 23.1379 36.8344 23.2171 36.7427 23.3241C36.6471 23.4271 36.5753 23.5499 36.5195 23.6885C36.4637 23.8272 36.4358 23.9738 36.4358 24.1362ZM40.9328 22.4368L41.2677 22.6665L37.3168 29.0324L36.9819 28.8026L40.9328 22.4368ZM39.2902 27.3052C39.2902 27.0794 39.3301 26.8655 39.4138 26.6675C39.4976 26.4694 39.6052 26.2951 39.7447 26.1446C39.8843 25.994 40.0477 25.8792 40.2351 25.792C40.4225 25.7049 40.6218 25.6613 40.8291 25.6613C41.0404 25.6613 41.2437 25.7049 41.4311 25.792C41.6185 25.8792 41.7819 25.998 41.9255 26.1446C42.065 26.2951 42.1766 26.4694 42.2564 26.6675C42.3401 26.8655 42.3799 27.0794 42.3799 27.3052C42.3799 27.531 42.3401 27.741 42.2564 27.9391C42.1726 28.1371 42.061 28.3075 41.9215 28.458C41.7819 28.6046 41.6145 28.7234 41.4271 28.8066C41.2397 28.8937 41.0364 28.9373 40.8251 28.9373C40.6138 28.9373 40.4185 28.8937 40.2311 28.8066C40.0437 28.7194 39.8803 28.6046 39.7407 28.454C39.6012 28.3075 39.4936 28.1332 39.4098 27.9351C39.3341 27.741 39.2902 27.531 39.2902 27.3052ZM39.7846 27.3171C39.7846 27.4716 39.8125 27.6182 39.8643 27.7529C39.9201 27.8876 39.9919 28.0064 40.0876 28.1094C40.1833 28.2124 40.2909 28.2916 40.4185 28.351C40.5461 28.4104 40.6816 28.4421 40.8291 28.4421C40.9806 28.4421 41.1162 28.4144 41.2437 28.355C41.3713 28.2956 41.4829 28.2163 41.5746 28.1133C41.6703 28.0104 41.7421 27.8915 41.7979 27.7568C41.8497 27.6221 41.8776 27.4756 41.8776 27.3211C41.8776 27.1666 41.8497 27.0161 41.7979 26.8774C41.7461 26.7388 41.6703 26.616 41.5786 26.513C41.4829 26.41 41.3753 26.3268 41.2477 26.2674C41.1201 26.2079 40.9806 26.1763 40.8331 26.1763C40.6856 26.1763 40.55 26.2079 40.4225 26.2674C40.2949 26.3268 40.1833 26.41 40.0916 26.513C39.9959 26.616 39.9241 26.7388 39.8683 26.8774C39.8125 27.0121 39.7846 27.1587 39.7846 27.3171Z" fill="#FFDB78"/>
<path d="M21.8184 36.1711C21.8344 36.1474 21.8503 36.1157 21.8703 36.0721C21.8902 36.0285 21.9061 35.9731 21.9141 35.9097C21.9301 35.8146 21.946 35.7077 21.9659 35.5888C21.9859 35.47 22.0018 35.3432 22.0218 35.2125C22.0417 35.0818 22.0616 34.9471 22.0816 34.8084C22.1015 34.6698 22.1214 34.5351 22.1374 34.4044C22.1573 34.2697 22.1733 34.1429 22.1892 34.0201C22.2052 33.8973 22.2211 33.7824 22.237 33.6795C22.249 33.5765 22.261 33.4893 22.2689 33.4101C22.2769 33.3348 22.2849 33.2754 22.2889 33.2397H22.548L23.8397 35.6522L25.1154 33.2397H25.3108L25.6457 35.676C25.6537 35.7512 25.6656 35.8186 25.6776 35.874C25.6895 35.9295 25.6975 35.977 25.7095 36.0127C25.7214 36.0523 25.7294 36.084 25.7414 36.1077C25.7533 36.1315 25.7613 36.1553 25.7693 36.1711V36.1791H25.255V36.1711C25.263 36.1553 25.2669 36.1315 25.2749 36.0959C25.2829 36.0602 25.2829 36.0206 25.2829 35.9731C25.2829 35.9572 25.2829 35.9374 25.2789 35.9176C25.2789 35.8978 25.2749 35.878 25.2709 35.8582L25.0118 33.8934L23.8038 36.1711L23.6643 36.1553L22.4483 33.8736C22.4005 34.1984 22.3606 34.4955 22.3248 34.7728C22.3088 34.8916 22.2929 35.0065 22.2809 35.1253C22.265 35.2402 22.253 35.3511 22.241 35.4541C22.2291 35.5571 22.2211 35.6443 22.2131 35.7235C22.2052 35.8027 22.2012 35.8582 22.2012 35.8938C22.2012 35.9414 22.2012 35.981 22.2052 36.0166C22.2091 36.0523 22.2091 36.084 22.2131 36.1077C22.2171 36.1355 22.2211 36.1632 22.2251 36.183H21.8145V36.1711H21.8184Z" fill="#FFDB78"/>
<path d="M27.5705 33.1882C27.7978 33.1882 28.0091 33.2239 28.2004 33.2991C28.3918 33.3744 28.5592 33.4774 28.7028 33.6121C28.8423 33.7468 28.9539 33.9092 29.0337 34.0954C29.1134 34.2855 29.1533 34.4915 29.1533 34.7213C29.1533 34.852 29.1373 34.9787 29.1094 35.1055C29.0775 35.2323 29.0337 35.3511 28.9779 35.462C28.9181 35.5729 28.8503 35.6759 28.7626 35.771C28.6789 35.8661 28.5832 35.9493 28.4715 36.0166C28.3639 36.084 28.2443 36.1394 28.1127 36.179C27.9812 36.2186 27.8416 36.2384 27.6901 36.2384C27.4629 36.2384 27.2516 36.2028 27.0602 36.1275C26.8689 36.0562 26.7014 35.9493 26.5579 35.8185C26.4184 35.6839 26.3068 35.5254 26.227 35.3353C26.1473 35.1491 26.1074 34.9391 26.1074 34.7094C26.1074 34.5787 26.1234 34.4519 26.1513 34.3251C26.1832 34.1984 26.227 34.0795 26.2828 33.9647C26.3426 33.8498 26.4104 33.7468 26.4941 33.6517C26.5779 33.5566 26.6735 33.4734 26.7812 33.4061C26.8888 33.3348 27.0084 33.2833 27.14 33.2437C27.2755 33.208 27.4191 33.1882 27.5705 33.1882ZM27.6862 36.0602C27.8377 36.0602 27.9772 36.0325 28.1008 35.977C28.2284 35.9215 28.336 35.8423 28.4237 35.7393C28.5154 35.6363 28.5832 35.5096 28.635 35.359C28.6868 35.2085 28.7107 35.0382 28.7107 34.848C28.7107 34.6381 28.6868 34.444 28.639 34.2617C28.5911 34.0835 28.5194 33.925 28.4237 33.7943C28.328 33.6636 28.2084 33.5606 28.0649 33.4853C27.9214 33.4101 27.7579 33.3744 27.5666 33.3744C27.4151 33.3744 27.2755 33.4021 27.1519 33.4536C27.0244 33.5091 26.9167 33.5844 26.829 33.6874C26.7373 33.7904 26.6695 33.9171 26.6177 34.0637C26.5659 34.2142 26.542 34.3806 26.542 34.5707C26.542 34.7807 26.5659 34.9748 26.6137 35.157C26.6616 35.3392 26.7333 35.4937 26.829 35.6284C26.9247 35.7591 27.0443 35.8661 27.1878 35.9414C27.3313 36.0206 27.4948 36.0602 27.6862 36.0602Z" fill="#FFDB78"/>
<path d="M29.7233 33.2397L31.8322 35.4858V34.0439C31.8322 33.929 31.8322 33.826 31.8283 33.7389C31.8243 33.6517 31.8203 33.5765 31.8163 33.5131C31.8123 33.4497 31.8043 33.3982 31.7964 33.3546C31.7884 33.311 31.7804 33.2754 31.7724 33.2477V33.2397H32.1352V33.2477C32.1273 33.2754 32.1193 33.311 32.1113 33.3546C32.1033 33.3982 32.0994 33.4497 32.0914 33.5131C32.0874 33.5765 32.0834 33.6517 32.0794 33.7389C32.0754 33.826 32.0754 33.929 32.0754 34.0439V36.2226H32.0037L29.8987 33.9765V35.3789C29.8987 35.4937 29.8987 35.5967 29.9027 35.6839C29.9067 35.771 29.9107 35.8463 29.9146 35.9097C29.9186 35.9731 29.9266 36.0246 29.9346 36.0681C29.9425 36.1117 29.9505 36.1474 29.9585 36.1751V36.183H29.5957V36.1751C29.6037 36.1474 29.6117 36.1117 29.6196 36.0681C29.6276 36.0246 29.6356 35.9731 29.6396 35.9097C29.6435 35.8463 29.6475 35.771 29.6515 35.6839C29.6555 35.5967 29.6555 35.4937 29.6555 35.3789V34.0439C29.6555 33.929 29.6555 33.826 29.6515 33.7389C29.6475 33.6517 29.6435 33.5765 29.6396 33.5131C29.6356 33.4497 29.6276 33.3982 29.6196 33.3546C29.6117 33.311 29.6037 33.2754 29.5957 33.2477V33.2397H29.7233V33.2397Z" fill="#FFDB78"/>
<path d="M33.2172 33.236C33.3847 33.236 33.5402 33.232 33.6797 33.232C33.8192 33.232 33.9388 33.2281 34.0385 33.2241C34.1382 33.2201 34.206 33.2162 34.2418 33.2083L34.1422 33.4816C34.0983 33.4697 34.0465 33.4578 33.9867 33.4499C33.9349 33.442 33.8711 33.434 33.7953 33.4261C33.7196 33.4182 33.6359 33.4142 33.5402 33.4142C33.5083 33.4142 33.4684 33.4142 33.4206 33.4182C33.3767 33.4182 33.3289 33.4222 33.289 33.4261C33.2412 33.4301 33.1893 33.4301 33.1415 33.434V34.5551C33.281 34.5551 33.4086 34.5511 33.5202 34.5432C33.6319 34.5353 33.7315 34.5313 33.8073 34.5234C33.899 34.5155 33.9827 34.5076 34.0545 34.4957L33.9907 34.7928C33.895 34.7809 33.7993 34.769 33.7036 34.7571C33.6199 34.7492 33.5282 34.7373 33.4285 34.7334C33.3289 34.7254 33.2332 34.7215 33.1415 34.7215V36.0089C33.301 36.0089 33.4485 36.001 33.584 35.9891C33.7196 35.9772 33.8352 35.9614 33.9388 35.9416C34.0545 35.9218 34.1621 35.902 34.2618 35.8742L34.202 36.207C34.186 36.207 34.1621 36.203 34.1302 36.203C34.0983 36.203 34.0624 36.199 34.0226 36.199C33.9827 36.199 33.9388 36.1951 33.895 36.1951C33.8511 36.1951 33.8073 36.1951 33.7674 36.1951C33.7275 36.1951 33.6917 36.1951 33.6638 36.1911C33.6319 36.1911 33.6119 36.1911 33.596 36.1911H32.7109V36.1832C32.7189 36.1555 32.7269 36.1198 32.7349 36.0762C32.7428 36.0327 32.7508 35.9812 32.7548 35.9178C32.7588 35.8544 32.7628 35.7791 32.7668 35.692C32.7707 35.6049 32.7707 35.5019 32.7707 35.387V34.052C32.7707 33.9371 32.7707 33.8341 32.7668 33.747C32.7628 33.6598 32.7588 33.5846 32.7548 33.5212C32.7508 33.4578 32.7428 33.4063 32.7349 33.3627C32.7269 33.3192 32.7189 33.2835 32.7109 33.2558V33.2479C32.8784 33.2399 33.0458 33.2399 33.2172 33.236Z" fill="#FFDB78"/>
<path d="M35.9559 34.7686V35.3787C35.9559 35.4935 35.9559 35.5965 35.9598 35.6837C35.9638 35.7708 35.9678 35.8461 35.9718 35.9095C35.9758 35.9729 35.9838 36.0244 35.9917 36.0679C35.9997 36.1115 36.0077 36.1472 36.0157 36.1749V36.1828H35.5253V36.1749C35.5333 36.1472 35.5412 36.1115 35.5492 36.0679C35.5572 36.0244 35.5612 35.9729 35.5691 35.9095C35.5731 35.8461 35.5771 35.7708 35.5811 35.6837C35.5851 35.5965 35.5851 35.4935 35.5851 35.3787V34.8122L34.6721 33.5644C34.6402 33.5208 34.6083 33.4812 34.5804 33.4495C34.5485 33.4139 34.5206 33.3822 34.4927 33.3544C34.4648 33.3267 34.4409 33.3069 34.421 33.2871C34.401 33.2712 34.3811 33.2554 34.3691 33.2475V33.2396H34.9911C34.9911 33.2712 35.003 33.3227 35.0309 33.394C35.0588 33.4654 35.1067 33.5485 35.1745 33.6476L35.8442 34.5666L36.502 33.604C36.526 33.5683 36.5499 33.5367 36.5698 33.501C36.5937 33.4654 36.6137 33.4297 36.6336 33.398C36.6535 33.3663 36.6695 33.3346 36.6814 33.3069C36.6934 33.2792 36.6974 33.2554 36.6974 33.2356H37.0961V33.2435C37.0642 33.2712 37.0243 33.3069 36.9765 33.3584C36.9246 33.4099 36.8728 33.4772 36.813 33.5604L35.9559 34.7686Z" fill="#FFDB78"/>
<path d="M24.9836 39.0826C24.9836 38.9677 24.9836 38.8647 24.9796 38.7775C24.9757 38.6904 24.9717 38.6151 24.9677 38.5517C24.9637 38.4884 24.9557 38.4369 24.9477 38.3933C24.9398 38.3497 24.9318 38.3141 24.9238 38.2863V38.2784C24.9517 38.2784 24.9796 38.2824 25.0115 38.2824C25.0355 38.2824 25.0673 38.2863 25.0992 38.2863C25.1311 38.2863 25.163 38.2863 25.1989 38.2863C25.2468 38.2863 25.3145 38.2824 25.3982 38.2705C25.482 38.2626 25.5896 38.2546 25.7212 38.2546C25.8448 38.2546 25.9564 38.2705 26.06 38.3022C26.1637 38.3339 26.2554 38.3814 26.3311 38.4408C26.4069 38.5002 26.4667 38.5755 26.5105 38.6627C26.5544 38.7498 26.5743 38.8528 26.5743 38.9637C26.5743 39.0588 26.5624 39.142 26.5345 39.2172C26.5066 39.2925 26.4707 39.3559 26.4268 39.4113C26.379 39.4668 26.3232 39.5143 26.2554 39.55C26.1876 39.5896 26.1159 39.6173 26.0361 39.6411C26.1517 39.6569 26.2594 39.6886 26.3551 39.7322C26.4507 39.7718 26.5345 39.8273 26.6022 39.8907C26.67 39.954 26.7258 40.0254 26.7617 40.1125C26.7976 40.1957 26.8175 40.2908 26.8175 40.3938C26.8175 40.6829 26.7218 40.8968 26.5345 41.0434C26.3431 41.186 26.06 41.2613 25.6813 41.2613C25.6414 41.2613 25.5936 41.2613 25.5378 41.2573C25.482 41.2534 25.4262 41.2494 25.3703 41.2454C25.3145 41.2415 25.2587 41.2375 25.2029 41.2336C25.1471 41.2296 25.0992 41.2296 25.0594 41.2296H24.9238V41.2217C24.9318 41.1939 24.9398 41.1583 24.9477 41.1147C24.9557 41.0711 24.9637 41.0196 24.9677 40.9563C24.9717 40.8929 24.9757 40.8176 24.9796 40.7305C24.9836 40.6433 24.9836 40.5403 24.9836 40.4254V39.0826V39.0826ZM25.3544 39.6094C25.3943 39.6134 25.4262 39.6173 25.458 39.6173C25.4899 39.6173 25.5218 39.6173 25.5537 39.6173C25.6454 39.6173 25.7291 39.6055 25.8089 39.5777C25.8846 39.55 25.9484 39.5104 26.0042 39.4589C26.06 39.4074 26.0999 39.34 26.1318 39.2608C26.1637 39.1816 26.1757 39.0865 26.1757 38.9796C26.1757 38.8924 26.1637 38.8092 26.1438 38.7379C26.1198 38.6666 26.0879 38.6032 26.0481 38.5517C26.0042 38.5002 25.9524 38.4606 25.8886 38.4329C25.8248 38.4052 25.7531 38.3933 25.6733 38.3933C25.6215 38.3933 25.5776 38.3972 25.5378 38.4012C25.4979 38.4052 25.466 38.4091 25.4381 38.4171C25.4062 38.421 25.3783 38.4289 25.3584 38.4369V39.6094H25.3544ZM25.7331 39.7639C25.6414 39.7639 25.5617 39.7679 25.4979 39.7758C25.4341 39.7837 25.3863 39.7877 25.3544 39.7956V40.4175C25.3544 40.576 25.3584 40.7107 25.3624 40.8137C25.3664 40.9166 25.3743 41.0038 25.3863 41.0672C25.4381 41.0751 25.4899 41.0791 25.5418 41.087C25.5936 41.0909 25.6335 41.0949 25.6654 41.0949C25.9205 41.0949 26.1079 41.0394 26.2235 40.9246C26.3431 40.8097 26.3989 40.6354 26.3989 40.3977C26.3989 40.3066 26.383 40.2195 26.3551 40.1442C26.3272 40.0689 26.2873 40.0016 26.2315 39.9461C26.1757 39.8907 26.1079 39.8471 26.0242 39.8154C25.9444 39.7797 25.8448 39.7639 25.7331 39.7639Z" fill="#FFDB78"/>
<path d="M29.3054 41.2177V41.2098C29.3094 41.2019 29.3094 41.194 29.3134 41.1781C29.3134 41.1662 29.3134 41.1504 29.3134 41.1425C29.3134 41.0989 29.3094 41.0513 29.2975 41.0038C29.2855 40.9523 29.2656 40.8889 29.2297 40.8137L28.9825 40.2551C28.9068 40.2512 28.8031 40.2512 28.6795 40.2512C28.552 40.2512 28.4164 40.2512 28.2689 40.2512C28.1613 40.2512 28.0576 40.2512 27.9579 40.2512C27.8583 40.2512 27.7666 40.2512 27.6868 40.2551L27.4516 40.7978C27.4317 40.8493 27.4078 40.9048 27.3878 40.9642C27.3639 41.0236 27.352 41.087 27.352 41.1464C27.352 41.1623 27.352 41.1781 27.3559 41.19C27.3599 41.2019 27.3599 41.2098 27.3639 41.2138V41.2217H26.9453V41.2138C26.9692 41.186 27.0011 41.1425 27.037 41.0751C27.0729 41.0078 27.1128 40.9246 27.1566 40.8255L28.3287 38.219H28.4922L29.6045 40.7226C29.6284 40.782 29.6563 40.8374 29.6842 40.8929C29.7121 40.9484 29.74 40.9959 29.7639 41.0434C29.7878 41.087 29.8118 41.1226 29.8277 41.1543C29.8476 41.186 29.8596 41.2019 29.8676 41.2098V41.2177H29.3054V41.2177ZM27.9779 40.0729C28.0576 40.0729 28.1373 40.0729 28.2211 40.0729C28.3048 40.0729 28.3845 40.0729 28.4643 40.0689C28.544 40.0689 28.6197 40.0689 28.6955 40.065C28.7672 40.065 28.835 40.065 28.8948 40.061L28.3207 38.7577L27.7546 40.0689H27.9779V40.0729Z" fill="#FFDB78"/>
<path d="M32.4899 38.7301L32.47 38.738C32.3623 38.639 32.2348 38.5597 32.0872 38.5003C31.9357 38.4409 31.7723 38.4132 31.5969 38.4132C31.4255 38.4132 31.266 38.4409 31.1225 38.4924C30.9789 38.5479 30.8553 38.6231 30.7517 38.7261C30.648 38.8291 30.5683 38.9559 30.5125 39.1024C30.4567 39.253 30.4248 39.4194 30.4248 39.6095C30.4248 39.8194 30.4527 40.0136 30.5085 40.1958C30.5643 40.378 30.6441 40.5325 30.7517 40.6672C30.8593 40.7979 30.9949 40.9048 31.1544 40.9801C31.3178 41.0554 31.5052 41.095 31.7205 41.095C31.8002 41.095 31.8759 41.0871 31.9557 41.0712C32.0314 41.0554 32.1072 41.0316 32.1789 40.9999C32.2507 40.9682 32.3185 40.9286 32.3823 40.885C32.446 40.8375 32.5019 40.786 32.5537 40.7266L32.5776 40.7424L32.4142 41.1623C32.3105 41.202 32.1989 41.2336 32.0753 41.2534C31.9517 41.2733 31.8281 41.2851 31.7005 41.2851C31.4494 41.2851 31.2181 41.2495 31.0068 41.1742C30.7955 41.1029 30.6161 40.996 30.4686 40.8652C30.3171 40.7306 30.2015 40.5721 30.1178 40.382C30.0341 40.1958 29.9902 39.9858 29.9902 39.7561C29.9902 39.6253 30.0062 39.4986 30.0421 39.3718C30.074 39.2451 30.1258 39.1262 30.1896 39.0113C30.2534 38.8965 30.3331 38.7935 30.4288 38.6984C30.5245 38.6033 30.6321 38.5201 30.7517 38.4528C30.8713 38.3815 31.0068 38.33 31.1504 38.2904C31.2939 38.2508 31.4534 38.231 31.6208 38.231C31.8839 38.231 32.1271 38.2706 32.3544 38.3538L32.4899 38.7301Z" fill="#FFDB78"/>
<path d="M32.9531 41.21C32.9611 41.1823 32.9691 41.1466 32.977 41.103C32.985 41.0595 32.993 41.008 32.997 40.9446C33.001 40.8812 33.005 40.8059 33.0089 40.7188C33.0129 40.6316 33.0129 40.5287 33.0129 40.4138V39.0788C33.0129 38.9639 33.0129 38.8609 33.0089 38.7738C33.005 38.6866 33.001 38.6114 32.997 38.548C32.993 38.4846 32.985 38.4331 32.977 38.3895C32.9691 38.346 32.9611 38.3103 32.9531 38.2826V38.2747H33.4435V38.2826C33.4355 38.3103 33.4275 38.346 33.4196 38.3895C33.4116 38.4331 33.4076 38.4846 33.3996 38.548C33.3956 38.6114 33.3917 38.6866 33.3877 38.7738C33.3837 38.8609 33.3837 38.9639 33.3837 39.0788V39.5344L34.5797 38.5559C34.7153 38.445 34.779 38.3539 34.779 38.2747H35.3531V38.2826C35.2734 38.3024 35.1897 38.338 35.1099 38.3935C35.0262 38.449 34.9385 38.5123 34.8468 38.5916L33.7903 39.4789L35.0621 40.8773C35.1139 40.9327 35.1618 40.9763 35.1976 41.0119C35.2335 41.0476 35.2694 41.0793 35.2973 41.103C35.3252 41.1268 35.3531 41.1466 35.377 41.1625C35.401 41.1783 35.4249 41.1942 35.4528 41.21V41.2179H34.8548C34.8508 41.206 34.8388 41.1902 34.8269 41.1704C34.8149 41.1506 34.799 41.1308 34.783 41.111C34.7671 41.0912 34.7471 41.0674 34.7272 41.0476C34.7073 41.0238 34.6873 41.004 34.6714 40.9842L33.3877 39.574V40.4138C33.3877 40.5287 33.3877 40.6316 33.3917 40.7188C33.3956 40.8059 33.3996 40.8812 33.4036 40.9446C33.4076 41.008 33.4156 41.0595 33.4236 41.103C33.4315 41.1466 33.4395 41.1823 33.4475 41.21V41.2179H32.9571V41.21H32.9531Z" fill="#FFDB78"/>
</g>
<defs>
<radialGradient id="paint0_radial_545:18057" cx="0" cy="0" r="1" gradientUnits="userSpaceOnUse" gradientTransform="translate(15.8654 23.1282) scale(13.9826 13.8935)">
<stop stop-color="#FFFBC9"/>
<stop offset="0.1146" stop-color="#F8F0B8"/>
<stop offset="0.3413" stop-color="#E7D48B"/>
<stop offset="0.3708" stop-color="#E4D085"/>
<stop offset="0.6854" stop-color="#DBB340"/>
<stop offset="1" stop-color="#AD8A49"/>
</radialGradient>
<radialGradient id="paint1_radial_545:18057" cx="0" cy="0" r="1" gradientUnits="userSpaceOnUse" gradientTransform="translate(30.0012 42.2364) scale(18.1814 18.0656)">
<stop stop-color="#FFFBC9"/>
<stop offset="0.1146" stop-color="#F8F0B8"/>
<stop offset="0.3413" stop-color="#E7D48B"/>
<stop offset="0.3708" stop-color="#E4D085"/>
<stop offset="0.6854" stop-color="#DBB340"/>
<stop offset="1" stop-color="#AD8A49"/>
</radialGradient>
<radialGradient id="paint2_radial_545:18057" cx="0" cy="0" r="1" gradientUnits="userSpaceOnUse" gradientTransform="translate(44.1379 23.1783) scale(14.0109 13.9217)">
<stop stop-color="#FFFBC9"/>
<stop offset="0.1146" stop-color="#F8F0B8"/>
<stop offset="0.3413" stop-color="#E7D48B"/>
<stop offset="0.3708" stop-color="#E4D085"/>
<stop offset="0.6854" stop-color="#DBB340"/>
<stop offset="1" stop-color="#AD8A49"/>
</radialGradient>
<clipPath id="clip0_545:18057">
<rect width="60" height="59" fill="white"/>
</clipPath>
</defs>
</svg>
