<svg width="60" height="59" fill="none" xmlns="http://www.w3.org/2000/svg"><g clip-path="url(#clip0_545:18057)"><path d="M11.885 38.698c-.032-.055-.068-.107-.096-.162l-.255.123.267-.127a17.266 17.266 0 01-.821-1.434c.004-.143.008-.29.027-.424.017-.135.04-.246.072-.317.056-.115.12-.329.184-.543.303-.02 1.016-.34 1.51-.693.264-.186.38-.384.479-.622.052-.119.1-.245.163-.384a2.97 2.97 0 01.252-.456c.107-.166.219-.332.315-.503a5.61 5.61 0 00.207-.38l.06-.127c.04-.083.071-.166.1-.25.031-.083.055-.166.075-.249l.024-.123c.008-.04.012-.083.016-.119a1.18 1.18 0 000-.237 3.377 3.377 0 00-.052-.384 1.495 1.495 0 00-.068-.246 3.55 3.55 0 00-.055-.13.196.196 0 00-.024-.036l-.048.059a2.01 2.01 0 01-.706.511c-.251.107-.494.265-.761.448-.263.182-.546.384-.89.586-.334.202-.577.352-.773.515-.187.162-.33.337-.458.594-.112.226-.1.69 0 1.133.1.444.283.868.45 1.03-.06.178-.147.44-.227.646-.036.095-.06.198-.076.3a6.043 6.043 0 01-.339-.867 3.565 3.565 0 00-.175-.483c-.076-.198-.175-.42-.267-.662-.191-.479-.375-1.026-.459-1.497a7.675 7.675 0 01-.087-.685c.071-.103.307-.412.33-.547.013-.063.013-.214.029-.392.02-.178.067-.377.167-.527.518.036 1.009-.099 1.42-.29.203-.094.386-.21.541-.324.16-.119.287-.238.38-.356.19-.238.493-.745.78-1.236.072-.123.14-.246.204-.365a4.01 4.01 0 00.171-.34c.104-.215.168-.4.176-.527.004-.076.02-.203.056-.349.016-.071.031-.15.051-.23.02-.079.04-.158.056-.233.072-.305.124-.57.024-.563a.84.84 0 00-.231.055 2.01 2.01 0 00-.267.127 3.31 3.31 0 00-.303.186 9.685 9.685 0 00-.323.222l-.331.238c-.112.08-.223.158-.335.23a2.99 2.99 0 01-.642.34c-.406.139-.602.226-.773.393-.084.083-.164.19-.26.332-.047.072-.099.155-.159.25-.056.095-.127.202-.2.329a2.37 2.37 0 00-.326 1.287c.012.19.036.357.08.491.04.135.087.234.135.29a.518.518 0 01-.143.241.96.96 0 00-.22.376c-.06.159-.103.333-.127.468a30.302 30.302 0 00-.132-1.28c-.028-.443-.087-.91-.131-1.335-.012-.107-.024-.21-.032-.309s-.02-.194-.028-.285a8.617 8.617 0 01-.032-.467c-.008-.365.024-.78.088-1.18a1.2 1.2 0 01.382-.282l.128-.166c.072-.095.171-.214.255-.317.04.024.088.04.144.051.23.048.662.028 1.068-.035.407-.064.802-.163.957-.305.315-.282.901-.38 1.212-.622a.632.632 0 00.175-.242c.02-.048.036-.1.048-.154.016-.056.028-.111.036-.17l.024-.18c.008-.059.012-.122.02-.181.004-.06.012-.12.02-.179l.024-.17c.036-.218.18-.559.319-.84.071-.138.135-.27.191-.36l.084-.147s-.112.028-.263.076a2.632 2.632 0 00-.503.221c-.315.19-.626.333-1.008.535-.192.1-.574.174-.941.238-.363.063-.702.11-.805.142-.104.032-.295.222-.479.444-.092.11-.175.23-.251.333a1.954 1.954 0 00-.156.261c-.02.048-.051.12-.075.206-.024.087-.052.186-.068.297-.02.107-.024.218-.016.321a.645.645 0 00.08.285c-.14.135-.36.282-.507.38.076-.427.156-.796.164-1.017.004-.088.016-.202.036-.341.02-.139.052-.293.083-.463.076-.341.172-.73.288-1.106.223-.748.502-1.43.538-1.572.036-.15.103-.353.191-.59.16-.12.347-.203.49-.254.076-.028.14-.044.184-.06l.056-.011c.012-.004.02-.004.02-.004.223-.004.562.023 1.048.142.331.083.694.075 1.005.028.155-.024.303-.06.43-.1a1.31 1.31 0 00.315-.142c.108-.067.208-.126.3-.178.091-.052.175-.091.25-.127.152-.075.28-.122.391-.174a2.483 2.483 0 00.339-.178c.291-.198.734-.523 1.288-.721.14-.052.259-.107.367-.159.107-.051.195-.107.27-.154.072-.048.128-.087.168-.119.02-.016.032-.028.044-.036a.069.069 0 01.016-.012l-.184-.04-.45-.09a8.52 8.52 0 01-.283-.056l-.3-.051-.57-.091a12.164 12.164 0 00-1.171-.131c-.403-.024-.774-.008-1.005.067-.207.068-.35.131-.498.214a4.483 4.483 0 00-.519.372 4.008 4.008 0 01-.135.107 3.659 3.659 0 00-.335.29c-.064.06-.12.13-.18.21-.06.079-.115.166-.163.265a3.023 3.023 0 01-.259.42c-.044.06-.092.115-.132.162-.043.048-.083.095-.123.131-.004 0-.004.004-.008.004-.124.063-.387.174-.566.258.267-.658.705-1.498 1.164-2.199l.012.008c.227-.392.554-.927.897-1.398.068-.04.135-.076.207-.111.072-.036.14-.072.207-.1.136-.059.256-.106.34-.118.139-.024.374-.091.613-.159.184.21.877.567 1.475.741.16.048.303.067.439.071.136 0 .263-.015.403-.035.135-.02.279-.052.442-.076a3.5 3.5 0 01.554-.04c.419 0 .85 0 1.228-.039.383-.04.718-.107.973-.257a2.24 2.24 0 00.171-.107c.052-.032.096-.064.136-.091.08-.06.135-.107.175-.147a.561.561 0 00.08-.095c.016-.02.02-.032.02-.032s-.028-.004-.072-.015a1.904 1.904 0 01-.47-.155 1.902 1.902 0 01-.323-.178 3.54 3.54 0 00-.367-.206 7 7 0 00-.418-.182c-.3-.123-.63-.242-.993-.409-.363-.162-.626-.269-.881-.336a2.363 2.363 0 00-.379-.064 2.206 2.206 0 00-.423.012c-.275.028-.705.278-1.072.587-.183.15-.35.32-.478.475-.128.158-.22.297-.252.404-.1.028-.223.06-.354.091-.128.032-.26.067-.38.091a2.147 2.147 0 00-.33.107c.064-.083.123-.158.183-.23.06-.07.116-.138.172-.202.111-.122.207-.221.279-.289.2-.178.494-.546.853-.943.359-.396.785-.816 1.2-1.117.08-.055.167-.122.275-.19l.343-.222c.14.008.55.032.698-.011.131-.044.594-.298.988-.278.212.424.574.741.945.979.375.233.758.388 1.057.443.075.016.167.028.275.04.107.012.227.028.355.04.243.027.526.059.805.087.135.016.267.027.395.043.063.008.123.012.183.016.06.008.116.012.171.016.108.004.212.012.295.008.044 0 .084-.004.12-.008a.565.565 0 00.096-.02c.131-.043.454-.075.733-.099.072-.008.136-.012.2-.02.06-.008.115-.012.163-.023.092-.02.143-.048.128-.088-.084-.225-.423-.507-.842-.784a23.672 23.672 0 00-.323-.206 14.73 14.73 0 01-.323-.206 3.166 3.166 0 01-.546-.42 3.086 3.086 0 00-.35-.329 1.09 1.09 0 00-.311-.17 1.887 1.887 0 00-.423-.091 9.567 9.567 0 00-.307-.036c-.12-.008-.251-.024-.403-.035a2.83 2.83 0 00-1.662.412 2.411 2.411 0 00-.2.138.914.914 0 00-.219.234.653.653 0 01-.303 0 .81.81 0 00-.211-.02c-.08 0-.171.012-.263.024-.184.028-.375.08-.522.123.382-.226.805-.468 1.196-.705.426-.226.869-.476 1.28-.69.203-.11.398-.206.573-.293.048-.024.606-.313 1.288-.67.227.009.51.048.821.147.499.163.893.127 1.165.115.793-.028.992-.028 1.487-.198.498-.17 1.291-.915 1.841-1.418.547-.503 1.6-.626 1.6-.626S26.46 8.457 25.722 8.58c-.738.12-1.1.313-1.555.329-.45.016-.371.317-1.332.452-.462.063-1.188.503-1.49 1.14-.16.337-.308.583-.436.757-1.383.634-2.866 1.335-3.32 1.593-.475.265-.91.538-1.276.792-.184.13-.359.25-.51.364-.076.056-.152.111-.22.163-.067.051-.131.103-.191.146.012-.09.032-.206.052-.313.02-.107.044-.206.063-.27 0-.003.005-.003.005-.007.035-.048.075-.103.123-.159a3.124 3.124 0 01.63-.543c.462-.296.71-.601.905-.803.14-.147.26-.266.359-.365.103-.099.187-.186.263-.265.076-.083.14-.155.203-.242a5.57 5.57 0 00.2-.285 1.81 1.81 0 00.199-.42c.064-.162.12-.348.175-.547.056-.19.112-.392.168-.59.052-.198.111-.384.163-.554.028-.084.068-.17.116-.258a3.129 3.129 0 01.395-.495 4.347 4.347 0 01.658-.53c.11-.076.187-.12.187-.12s-.16.004-.41.016c-.129.008-.276.02-.44.036-.08.008-.167.02-.255.028a4.643 4.643 0 00-.27.04l-.28.047-.279.06c-.092.023-.183.043-.275.07-.088.024-.175.056-.263.084a4.212 4.212 0 00-.247.09 2.25 2.25 0 00-.22.104 1.558 1.558 0 00-.338.222c-.343.312-.555.574-.738.796a4.357 4.357 0 01-.26.313c-.087.099-.17.194-.274.289a.698.698 0 00-.191.245c-.036.076-.052.147-.084.238a1.92 1.92 0 01-.14.325 4.242 4.242 0 01-.347.519c-.16.206-.275.519-.303.84-.027.324.032.657.216.923.263.388.39.681.45.875v.071c0 .044-.004.107-.012.179-.008.075-.016.158-.036.25-.02.086-.043.181-.075.273-.136.107-.236.182-.291.225-.08.064-.168.131-.26.202-.091.076-.183.155-.287.238-.103.087-.207.182-.319.281a23.41 23.41 0 00-.35.333 15.725 15.725 0 00-1.719 2.024c-.04-.237-.075-.495-.127-.713l.622-.51c.239-.203.458-.397.506-.504.032-.063.036-.166.032-.3a6.21 6.21 0 00-.04-.472c-.036-.353-.072-.769-.044-1.13.028-.36.148-.688.247-1.01.1-.32.176-.63.124-.962a8.597 8.597 0 00-.108-.57c-.04-.206-.083-.416-.123-.603-.08-.376-.144-.661-.164-.621-.008.02-.06.079-.14.17-.075.091-.179.218-.298.36a13.767 13.767 0 00-.773 1.038c-.256.373-.579.721-.866 1.038-.283.321-.522.61-.594.844a1.773 1.773 0 00-.064.317c-.012.103-.012.206-.012.329 0 .122 0 .269-.008.451-.004.186-.016.404-.028.685-.015.266.012.46.076.61.06.151.156.254.283.341.255.17.638.27 1.14.503.032.301.084.71.128 1.046a7.84 7.84 0 00-.243.368 5.25 5.25 0 01-.128.195 3.505 3.505 0 00-.123.206l.004.003a17.9 17.9 0 00-.853 1.57 18.82 18.82 0 00-.722 1.707c-.04-.08-.187-.337-.283-.622a1.929 1.929 0 01-.096-.428.524.524 0 01.072-.337c.347-.475.423-.994.407-1.462a3.746 3.746 0 00-.195-1.05.705.705 0 00-.152-.241c-.207-.23-.538-.432-.65-.864-.076-.289-.283-.65-.49-.966-.208-.313-.411-.57-.499-.634a1.593 1.593 0 01-.259-.277 5.87 5.87 0 01-.131-.187s-.012.06-.028.163c-.02.103-.048.246-.08.42-.068.345-.156.792-.255 1.212-.012.052-.028.107-.04.159-.06.217-.12.415-.187.59l-.18.495a2.824 2.824 0 00-.107.467 1.54 1.54 0 00.031.5c.084.356.104.522.176.689.072.166.2.336.506.673.315.337.778.578 1.172.792.395.21.73.396.794.607.04.142.087.309.135.47.024.08.044.163.068.239.024.075.044.146.06.21l-.084.261c-.024.087-.052.17-.076.25-.048.162-.087.316-.127.463-.14.527-.236.994-.311 1.414-.068.42-.12.788-.152 1.113l-.024.238c-.004.075-.012.15-.016.222-.008.142-.02.277-.02.4-.004.127-.008.242-.008.352 0 .111.004.21.004.31v.253a7.893 7.893 0 01-.307-.309c-.131-.139-.287-.297-.414-.436.578-.76.873-1.398.49-1.94-.402-.58-.602-1.146-.893-1.803-.143-.333-.395-.575-.646-.812-.25-.238-.502-.472-.638-.796a2.576 2.576 0 00-.107-.23c-.04-.071-.076-.143-.116-.206a3.187 3.187 0 00-.423-.539c-.047-.047-.075-.071-.075-.071s-.032.095-.084.261c-.024.083-.052.182-.088.297-.031.115-.063.242-.1.377a11.82 11.82 0 00-.31 1.893 5.337 5.337 0 00.462 2.452c.064.139.136.27.208.388.143.234.303.416.458.527.255.183.602.27.917.31.315.039.602.035.745.027.184.17.38.368.55.547.172.182.304.348.363.471-.004.563.012 1.41.112 2.353.092.99.263 1.858.379 2.412a6.769 6.769 0 01-.51-.38l-.008-.008a2.435 2.435 0 01-.32-.915c-.071-.495-.259-.828-.374-1.07a14.417 14.417 0 01-.203-.44c-.06-.122-.104-.225-.152-.316a3.644 3.644 0 00-.359-.53c-.163-.203-.478-.437-.833-.67a38.27 38.27 0 00-.542-.353c-.18-.115-.359-.226-.514-.329a1.825 1.825 0 01-.423-.4 3.476 3.476 0 01-.311-.49c-.084-.16-.144-.31-.187-.417-.04-.107-.06-.178-.06-.178s-.052.119-.124.305a6.211 6.211 0 00-.115.333c-.04.127-.084.261-.12.404-.152.574-.231 1.252-.06 1.616.092.182.176.337.26.475.08.139.163.258.235.365.143.222.27.408.362.634.092.225.208.285.355.4.148.115.335.293.602.729.132.21.375.44.678.606.299.17.662.285 1.013.277.514-.012.86.04 1.08.091l.02.008c.012.008.028.016.052.028.044.023.103.055.171.099.14.083.303.206.45.352.036.155.06.274.072.337.072.376.176.844.371 1.47.2.622.486 1.402.977 2.376-.243-.103-.51-.217-.746-.3-.012-.076-.036-.19-.06-.322-.023-.13-.055-.277-.083-.415a8.335 8.335 0 00-.096-.393.766.766 0 00-.104-.25.884.884 0 00-.27-.185l-.22-.107c-.08-.036-.163-.076-.251-.115-.355-.163-.77-.353-1.1-.559a3.548 3.548 0 01-.447-.336c-.135-.12-.263-.242-.39-.357-.252-.23-.515-.44-.866-.563a26.138 26.138 0 00-1.252-.384c-.406-.115-.717-.198-.69-.166.029.032.136.253.296.559.08.154.171.324.27.506.105.179.208.369.324.547.111.178.203.377.29.567.045.099.085.194.12.289.04.095.08.19.116.281.072.186.148.357.223.503.076.15.16.273.247.357.092.087.176.15.264.21.091.06.187.114.303.182.115.067.25.142.422.245.172.103.375.23.63.389.124.075.231.138.331.182.1.044.195.075.283.095a.923.923 0 00.478-.024c.303-.095.606-.317 1.105-.562.151.071.327.154.514.237l.542.246c.068.123.136.253.211.384.036.068.076.135.116.202.02.036.044.072.064.107h.706z" fill="url(#paint0_radial_545:18057)"/><path d="M54.215 39.542a1.85 1.85 0 01-.406-.036c-.104-.027-.459-.04-.87-.02-.41.02-.864.068-1.18.17-.47.16-.84.025-1.175 0a.904.904 0 00-.311.025 4.268 4.268 0 00-.459.15 4.9 4.9 0 00-.638.293c-.446.246-.897.59-1.16 1.11-.048.09-.147.17-.283.237a2.49 2.49 0 01-.458.167 5.008 5.008 0 01-.746.126 16.91 16.91 0 001.228-1.47c.383-.51.726-1.03 1.009-1.497l-.55-.257a14.11 14.11 0 01-1.428 2.068c-.012-.087-.028-.198-.04-.297-.012-.103-.024-.199-.028-.262v-.008a2.53 2.53 0 01.136-.348 2.04 2.04 0 01.112-.202c.04-.072.087-.143.14-.218.067-.091.119-.183.159-.27.04-.087.071-.17.095-.25.044-.158.068-.296.084-.407.008-.056.02-.111.024-.159.044-.257.06-.431.06-.586 0-.158-.024-.297-.072-.487-.06-.21-.247-.495-.49-.785a9.442 9.442 0 00-.383-.423c-.132-.14-.263-.266-.379-.38-.116-.116-.255-.246-.395-.381s-.283-.265-.414-.38c-.26-.234-.463-.408-.463-.408s-.028.103-.04.27a1.783 1.783 0 00-.003.296c.004.111.015.234.043.369.108.53.048 1.041.02 1.366-.008.12.004.226.02.349.016.107.04.23.052.38a4.07 4.07 0 01.02.567c-.004.087.012.194.044.309a2.149 2.149 0 00.725 1.088c.38.294.594.528.714.694l.008.016c.004.012.008.028.016.047.016.04.032.1.048.167.028.135.056.32.028.503-.088.099-.168.19-.247.265-.076.08-.148.143-.208.199-.028.027-.08.079-.151.158-.072.075-.16.178-.271.29-.212.225-.49.506-.79.783-.299.282-.626.555-.917.78a7.304 7.304 0 01-.41.298c-.124.083-.231.15-.315.194-.212.115-.535.349-.921.606.028-.162.072-.4.131-.57.104-.004.212-.032.32-.072.107-.043.21-.103.306-.166a2.286 2.286 0 00.41-.353 1.9 1.9 0 00.176-.245 4.94 4.94 0 00.192-.357c.115-.25.199-.49.175-.582-.024-.091-.155-.372-.29-.673-.137-.305-.268-.626-.28-.82-.008-.194-.024-.365-.036-.527-.008-.163-.02-.321-.02-.487a1.991 1.991 0 00-.12-.65 2.494 2.494 0 01-.023-.067s-.008.011-.024.04c-.016.023-.036.058-.064.098-.056.083-.132.198-.227.321-.048.06-.096.123-.144.186a5.876 5.876 0 01-.155.182c-.052.06-.104.111-.156.159a1.238 1.238 0 01-.14.123c-.175.13-.406.265-.597.396a1.744 1.744 0 00-.136.103.967.967 0 00-.111.107.5.5 0 00-.128.237 1.097 1.097 0 00-.004.282c.008.099.024.202.044.309.032.21.056.423.004.606-.052.182.044.527.183.871.14.345.327.685.483.844.035.04.075.067.115.087-.06.111-.127.242-.187.34-.06.104-.104.175-.104.175s0 .056-.012.135c-.016.079-.04.186-.095.289a7.46 7.46 0 01-1.153.578c-.263.1-.665.226-1.12.349-.454.123-.957.245-1.431.372-.463.095-.945.206-1.392.297.068-.031.148-.07.224-.11.08-.044.16-.088.231-.14.148-.102.275-.205.323-.3a.594.594 0 01.2-.198c.139.043.478.031.872-.087.395-.123.841-.36 1.168-.745.092-.107.172-.206.24-.29.067-.083.127-.158.175-.225.048-.068.092-.127.124-.182.036-.056.06-.107.083-.159a.839.839 0 00.068-.32 3.006 3.006 0 00-.036-.452 2.385 2.385 0 01.02-.646c.016-.115.036-.238.056-.357.008-.059.02-.118.028-.178s.016-.119.028-.178c.036-.234.06-.46.06-.65 0-.194-.028-.352-.088-.46-.024-.039-.084-.019-.171.032a4.49 4.49 0 00-.144.096c-.052.035-.108.083-.167.122-.232.179-.495.377-.622.436-.22.103-.51.48-.826.88l-.458.586c-.14.186-.267.344-.339.463a1.76 1.76 0 00-.195.428 3.06 3.06 0 00-.128.555c-.048.4-.028.851.18 1.275a.938.938 0 01-.228.178 3.25 3.25 0 01-.263.131c-.175.071-.339.111-.398.143a1.136 1.136 0 00-.256.206 2.092 2.092 0 00-.131.135l-.096.099a8.807 8.807 0 01-.757.106c-.53.052-1.165.016-1.73-.047 0 0-2.5.174-3.856.673-1.355-.499-3.859-.673-3.859-.673-.562.067-1.2.099-1.73.047-.2-.02-.463-.055-.758-.107a2.51 2.51 0 01-.095-.098c-.04-.04-.084-.088-.132-.135a1.232 1.232 0 00-.255-.206c-.06-.032-.223-.072-.399-.143a1.84 1.84 0 01-.267-.13 1 1 0 01-.223-.179c.207-.424.227-.875.18-1.275a2.704 2.704 0 00-.124-.555 1.96 1.96 0 00-.196-.428c-.071-.119-.199-.277-.338-.463-.144-.182-.303-.388-.459-.587-.315-.4-.606-.772-.825-.879-.132-.06-.395-.257-.622-.436-.06-.043-.116-.087-.168-.122a4.277 4.277 0 00-.143-.096c-.084-.051-.148-.067-.172-.031-.06.107-.087.265-.087.46 0 .19.024.415.06.649.008.06.016.119.027.178.009.06.02.12.028.178.02.12.036.242.052.357.032.23.048.456.024.646a2.54 2.54 0 00-.036.451.855.855 0 00.068.321c.02.052.048.103.084.159.032.055.076.114.123.182a11.752 11.752 0 00.415.515c.327.384.773.622 1.164.745.395.118.73.126.873.087a.53.53 0 01.2.198c.051.095.175.202.322.3.072.052.152.096.232.14.08.043.155.083.223.11-.447-.09-.929-.202-1.388-.297-.474-.127-.976-.25-1.43-.372-.455-.123-.854-.25-1.121-.349a7.836 7.836 0 01-1.152-.578 1.016 1.016 0 01-.096-.29c-.012-.078-.012-.134-.012-.134l-.103-.174a5.426 5.426 0 01-.188-.34.49.49 0 00.116-.088c.155-.159.343-.5.482-.844.14-.344.235-.689.184-.871-.052-.182-.028-.396.004-.606.015-.107.031-.21.043-.31a1.1 1.1 0 00-.003-.28.482.482 0 00-.128-.238 1.023 1.023 0 00-.116-.107 1.206 1.206 0 00-.135-.103c-.196-.135-.423-.266-.598-.396a1.247 1.247 0 01-.14-.123 1.989 1.989 0 01-.155-.159c-.052-.059-.104-.118-.156-.182-.052-.06-.1-.127-.143-.186-.092-.119-.168-.238-.224-.32a.924.924 0 01-.063-.1c-.016-.024-.024-.04-.024-.04l-.024.068a1.985 1.985 0 00-.124.65c.004.162-.008.324-.016.487-.012.162-.028.336-.036.527-.012.194-.147.515-.279.82-.135.3-.263.582-.287.673-.024.091.06.333.176.582.06.123.127.25.191.357.068.107.128.194.175.245a2.297 2.297 0 00.41.353c.097.063.2.123.308.166a.861.861 0 00.319.072c.064.17.104.408.132.57-.387-.257-.71-.491-.921-.606a3.491 3.491 0 01-.315-.194 5.724 5.724 0 01-.41-.297c-.292-.226-.619-.5-.918-.78a17.956 17.956 0 01-.785-.785c-.108-.11-.196-.214-.271-.29-.072-.074-.124-.13-.156-.157a5.874 5.874 0 01-.455-.464c-.027-.182 0-.364.029-.503.015-.067.031-.127.043-.166.008-.02.012-.036.016-.048a.042.042 0 01.008-.016c.12-.166.331-.4.714-.693a2.196 2.196 0 00.726-1.09c.031-.114.043-.221.043-.308a4.065 4.065 0 01.076-.947c.02-.123.028-.23.02-.349-.024-.325-.088-.836.02-1.366.028-.135.04-.258.048-.369a1.794 1.794 0 00-.004-.297c-.012-.166-.04-.27-.04-.27s-.203.175-.462.409c-.132.118-.271.25-.415.38-.144.13-.28.265-.395.38-.115.115-.247.242-.379.38-.131.14-.263.278-.382.424-.243.29-.43.57-.49.785a1.73 1.73 0 00-.072.487c0 .154.02.329.06.586.007.052.015.103.027.159.02.11.04.25.084.408.024.079.056.162.096.25.04.087.091.178.16.269.051.071.099.146.139.218.044.07.08.138.111.202.064.13.108.25.136.348v.008a3.254 3.254 0 01-.032.262c-.012.103-.028.21-.04.297a13.984 13.984 0 01-1.331-1.906h-.71l.06.1.004-.005c.283.468.626.987 1.008 1.498.38.51.806 1.014 1.228 1.47-.1-.013-.422-.044-.745-.127a2.494 2.494 0 01-.459-.167.642.642 0 01-.283-.237c-.259-.52-.71-.864-1.16-1.11a5.505 5.505 0 00-.638-.293 4.582 4.582 0 00-.458-.15 1.006 1.006 0 00-.311-.024c-.331.024-.706.154-1.176 0-.315-.103-.77-.15-1.18-.17-.41-.02-.766-.008-.87.02a1.792 1.792 0 01-.402.035c-.136 0-.247-.004-.247-.004s.048.04.135.107c.084.071.208.17.347.285.283.238.654.547.997.856l.127.119c.176.166.323.32.455.467.135.143.251.282.37.408.124.127.244.242.383.34.14.1.3.187.49.258.387.139.555.218.754.258.204.04.427.043.921 0 .494-.044.973-.254 1.395-.436.42-.178.774-.325 1.01-.257.159.047.342.103.521.158l.495.143c.279.273.546.523.79.729a14.959 14.959 0 002.252 1.62c.622.36 1.108.582 1.503.745.055.02.143.059.259.11-.08.02-.251.064-.45.111-.2.048-.431.091-.63.131-.527-.808-1.005-1.335-1.735-1.315a6.603 6.603 0 01-1.108-.071c-.18-.028-.363-.056-.55-.088-.184-.031-.38-.067-.578-.099-.2-.035-.395-.04-.582-.023-.188.011-.371.043-.555.07-.366.06-.725.12-1.12.044a4.363 4.363 0 00-.997-.083 3.253 3.253 0 00-.414.036l.211.21c.068.067.152.142.247.234.096.087.2.186.323.289.47.412 1.117.91 1.746 1.291.626.384 1.455.697 2.221.852.765.158 1.463.158 1.838.024.31-.115.554-.349.737-.579.184-.23.303-.46.36-.578.258-.063.55-.139.808-.19.26-.056.49-.095.638-.091a16.128 16.128 0 002.5.808c.542.13 1.064.222 1.527.285.462.067.873.095 1.188.119-.167.115-.419.27-.554.333-.004 0-.004.004-.008.004-.255.047-.65.079-1.1.004a4.024 4.024 0 00-.4-.048c-.063-.004-.123-.008-.178-.008-.056-.004-.112-.004-.168-.004-.108 0-.207.004-.299.008l-.251.012c-.22.008-.399.008-.554.008-.156.004-.283.004-.399.008-.24.012-.43.032-.718.087-.14.024-.306.075-.486.147-.18.07-.375.154-.578.25l-.61.284a94.1 94.1 0 01-.578.265c-.355.16-.873.187-1.3.16a4.781 4.781 0 01-.542-.06c-.136-.02-.22-.04-.22-.04s.104.1.28.254c.18.15.426.352.717.55.291.198.622.396.945.543.16.075.323.13.47.178.148.044.292.072.415.075.124.004.24.008.351.008.108-.004.211-.004.307-.008.096-.003.188-.011.275-.015l.248-.024c.159-.016.299-.028.442-.04.143-.012.283-.016.434-.012.3.008.411-.063.598-.142a2.36 2.36 0 01.375-.127c.084-.02.18-.04.291-.063.112-.02.244-.044.391-.064.143-.016.303-.063.463-.127.08-.031.159-.067.235-.11.08-.044.155-.092.227-.14.147-.102.279-.217.383-.352.107-.13.187-.273.235-.423.135-.44.287-.718.402-.892l.017-.016.043-.035c.036-.032.092-.072.156-.12a2.52 2.52 0 01.227-.146c.084-.051.18-.103.275-.142.044.004.088.004.128.008.04 0 .076.004.107.004.064.004.116.008.152.008.116.007.243.015.379.02.027 0 .055.003.083.003.371.016 1.922.111 3.489.721-1.4.963-2.145 2.488-2.145 2.488h1.056c.507-.9 1.272-1.549 2.11-2.016.837.467 1.602 1.117 2.108 2.016h1.053s-.75-1.525-2.145-2.488c1.57-.61 3.117-.705 3.492-.72.028 0 .056 0 .084-.005.136-.004.263-.012.379-.02a1.5 1.5 0 01.155-.007c.032 0 .068-.004.108-.004.04-.004.08-.004.123-.008.1.04.192.09.276.142.083.052.159.103.227.147.063.047.12.087.155.119.02.016.032.027.044.035l.016.016c.116.175.267.452.403.892.047.15.127.293.235.423a2.024 2.024 0 00.61.492c.08.04.155.079.235.11.16.064.319.107.462.127.152.02.28.04.391.064a2.987 2.987 0 01.666.19c.191.079.299.15.598.142.148-.004.291 0 .435.012.143.012.287.024.442.04l.247.024a7.461 7.461 0 00.582.024c.108 0 .224 0 .351-.008.124-.004.267-.028.415-.076.151-.043.31-.103.47-.178.323-.147.658-.34.945-.543.291-.198.542-.4.722-.55.175-.155.279-.254.279-.254l-.22.04a4.784 4.784 0 01-.542.06c-.426.027-.945 0-1.3-.16l-.279-.126-.299-.139c-.203-.095-.41-.19-.61-.285a9.485 9.485 0 00-.578-.25 2.522 2.522 0 00-.486-.146 5.182 5.182 0 00-.718-.087c-.12-.004-.247-.004-.402-.008-.156-.004-.331 0-.554-.008l-.247-.012a6.89 6.89 0 00-.3-.008c-.051 0-.107 0-.167.004-.06 0-.12.004-.18.008-.123.008-.255.028-.398.047-.45.076-.845.044-1.1-.003-.004 0-.008-.004-.008-.004a6.626 6.626 0 01-.554-.333c.319-.024.725-.052 1.188-.119.462-.063.984-.154 1.526-.285a15.092 15.092 0 001.424-.404c.422-.143.79-.285 1.076-.404.148-.008.379.031.638.09.26.056.55.128.805.191.056.115.18.345.36.578.179.23.426.464.737.579.374.138 1.068.138 1.834-.024a7.34 7.34 0 002.224-.852 13.096 13.096 0 002.069-1.581 4.77 4.77 0 00.243-.233c.136-.13.216-.21.216-.21s-.16-.028-.415-.036a4.38 4.38 0 00-.997.084c-.39.075-.753.015-1.12-.044a5.17 5.17 0 00-.554-.071 2.41 2.41 0 00-.582.023c-.2.032-.395.068-.578.1-.188.031-.37.059-.55.087-.184.023-.363.043-.546.059-.184.012-.371.016-.563.012-.73-.024-1.207.507-1.734 1.315-.203-.04-.43-.083-.63-.13-.199-.048-.367-.088-.45-.112.115-.051.203-.09.259-.11.395-.163.881-.385 1.503-.745.31-.183.654-.396 1.029-.662a15.71 15.71 0 002.013-1.688c.14-.039.315-.09.494-.142.18-.055.367-.11.522-.158.236-.072.59.079 1.009.257.419.178.901.388 1.395.436.495.043.722.04.921 0 .204-.04.371-.119.754-.258a2.19 2.19 0 00.49-.257c.14-.103.263-.218.383-.34.12-.127.235-.266.37-.409.128-.146.28-.3.451-.467l.128-.12c.343-.308.71-.621.996-.855l.347-.285c.088-.067.136-.107.136-.107s-.048.008-.184.004z" fill="url(#paint1_radial_545:18057)"/><path d="M50.76 33.81c.012-.064.036-.178.072-.337a2.59 2.59 0 01.446-.352c.068-.044.128-.076.172-.1.02-.011.04-.02.051-.027.012-.008.02-.008.02-.008.22-.052.566-.1 1.08-.091.355.008.714-.107 1.013-.278.303-.17.547-.4.678-.606.267-.435.459-.61.602-.729.148-.114.26-.178.35-.4.093-.225.22-.412.364-.633.071-.111.151-.23.235-.365a7.17 7.17 0 00.255-.475c.175-.365.096-1.046-.056-1.616a7.576 7.576 0 00-.235-.737c-.072-.19-.124-.305-.124-.305s-.02.067-.063.178a3.505 3.505 0 01-.495.907 1.825 1.825 0 01-.422.4c-.156.103-.335.214-.515.329a28.25 28.25 0 00-.546.353c-.355.233-.67.467-.833.669a9.28 9.28 0 00-.203.273 2.783 2.783 0 00-.156.258 8.585 8.585 0 00-.151.317c-.06.123-.12.265-.204.44-.115.241-.299.574-.374 1.069a2.434 2.434 0 01-.32.915l-.007.008a6.023 6.023 0 01-.51.38c.115-.55.286-1.422.378-2.412.1-.943.116-1.787.112-2.353.056-.123.191-.29.363-.472.171-.182.366-.376.55-.546.143.008.43.012.745-.028s.658-.127.917-.309a1.81 1.81 0 00.455-.527 4.264 4.264 0 00.387-.836c.215-.625.326-1.37.283-2.004a11.816 11.816 0 00-.311-1.894l-.096-.376c-.036-.11-.064-.214-.088-.297a3.754 3.754 0 00-.084-.262s-.027.024-.075.072a3.806 3.806 0 00-.419.539 4.137 4.137 0 00-.227.436c-.136.324-.387.558-.638.796-.247.237-.502.479-.642.812-.287.661-.486 1.228-.889 1.802-.383.543-.088 1.18.49 1.941-.123.139-.283.301-.414.436-.132.139-.251.253-.307.309v-.254c0-.095.004-.198.004-.309 0-.11-.004-.226-.008-.352a7.597 7.597 0 00-.024-.4c-.004-.072-.008-.147-.016-.222a15.684 15.684 0 00-.486-2.765c-.04-.143-.08-.301-.128-.464-.024-.079-.048-.166-.076-.25a10.43 10.43 0 01-.084-.26c.02-.064.04-.135.06-.21.02-.076.044-.155.068-.238.044-.163.096-.333.136-.472.06-.21.394-.396.789-.606.399-.214.861-.455 1.172-.792.307-.337.435-.507.506-.674.072-.166.092-.332.176-.689.04-.178.048-.34.032-.499a2.472 2.472 0 00-.108-.467c-.052-.159-.115-.317-.175-.495a6.13 6.13 0 01-.188-.59c-.012-.052-.024-.108-.04-.16-.1-.423-.19-.87-.259-1.211-.036-.17-.06-.317-.083-.42-.02-.103-.028-.163-.028-.163s-.056.088-.132.187a1.46 1.46 0 01-.259.277c-.084.063-.291.32-.498.634-.208.313-.411.677-.49.966-.112.436-.443.634-.65.864a.706.706 0 00-.152.241 3.75 3.75 0 00-.195 1.05c-.016.468.06.986.406 1.462.06.083.08.202.072.337a1.928 1.928 0 01-.096.427c-.095.286-.239.543-.283.622a18.833 18.833 0 00-.721-1.707 18.994 18.994 0 00-.853-1.569l.004-.004c-.044-.07-.084-.138-.124-.206-.044-.067-.084-.13-.128-.194a7.39 7.39 0 00-.243-.368c.044-.337.096-.74.128-1.046.502-.23.885-.329 1.14-.503a.723.723 0 00.283-.34c.064-.151.088-.345.076-.61a13.071 13.071 0 01-.028-.686c-.008-.182-.008-.329-.008-.452 0-.122 0-.225-.012-.328a1.717 1.717 0 00-.064-.317c-.072-.234-.31-.523-.594-.844-.287-.317-.614-.67-.865-1.038a13.8 13.8 0 00-.39-.55c-.136-.175-.268-.341-.384-.488l-.299-.36c-.08-.091-.127-.155-.139-.17-.02-.04-.084.245-.163.621-.04.187-.084.396-.124.602-.04.206-.08.405-.104.57-.052.334.024.647.124.963.1.321.215.65.243 1.01.028.361-.008.777-.044 1.13-.02.178-.036.336-.04.471-.008.135 0 .238.032.301.052.107.271.301.507.503.239.198.49.408.622.511-.048.218-.088.48-.128.713a15.724 15.724 0 00-1.718-2.024c-.124-.119-.24-.23-.351-.333-.112-.099-.215-.194-.32-.281-.103-.087-.194-.166-.286-.238-.092-.071-.18-.138-.26-.202-.055-.043-.155-.119-.286-.226a1.912 1.912 0 01-.08-.273c-.02-.087-.028-.174-.036-.25-.008-.075-.008-.134-.012-.178v-.071c.06-.194.184-.487.45-.876.184-.265.244-.598.22-.923a1.662 1.662 0 00-.307-.84 4.767 4.767 0 01-.347-.518 1.912 1.912 0 01-.14-.325c-.027-.087-.047-.163-.083-.238a.84.84 0 00-.192-.245c-.1-.095-.187-.19-.275-.29l-.259-.312c-.183-.222-.395-.484-.737-.797a1.56 1.56 0 00-.34-.221 3.211 3.211 0 00-.218-.103c-.076-.032-.16-.06-.244-.092-.083-.027-.171-.059-.263-.083l-.275-.071c-.092-.02-.183-.044-.279-.06a3.421 3.421 0 00-.279-.047c-.092-.016-.18-.028-.267-.04a5.443 5.443 0 00-.255-.027c-.164-.016-.311-.032-.435-.036-.251-.012-.41-.016-.41-.016l.187.119c.111.075.267.182.422.317.076.067.16.139.236.214.076.075.151.158.219.241.068.084.128.167.18.254.051.087.087.174.115.257.052.17.112.36.163.555.056.198.112.4.168.59.056.194.111.384.175.547.06.166.128.313.2.42.075.107.135.202.199.285.064.083.132.159.203.242.076.083.16.166.263.265.1.103.22.218.36.364.19.207.442.508.904.805.184.123.34.245.459.368.063.06.115.119.167.174.048.056.088.111.124.159a2.778 2.778 0 01.068.277c.02.107.035.218.051.313l-.191-.146a15.829 15.829 0 00-.22-.163c-.15-.115-.326-.234-.51-.364-.37-.254-.8-.527-1.275-.793-.455-.257-1.938-.958-3.321-1.592a4.483 4.483 0 01-.439-.757c-.303-.641-1.024-1.077-1.487-1.14-.965-.135-.88-.436-1.331-.452-.455-.016-.814-.21-1.551-.329-.738-.123-2.217 1.042-2.217 1.042s1.053.123 1.599.626 1.343 1.248 1.842 1.418c.494.17.697.17 1.487.198.27.008.666.044 1.164-.115a3.02 3.02 0 01.817-.146c.686.356 1.24.65 1.288.669.175.087.37.182.574.293.407.214.85.464 1.276.69.394.237.817.475 1.196.704a3.066 3.066 0 00-.523-.122 2.158 2.158 0 00-.263-.024.848.848 0 00-.211.02.636.636 0 01-.299 0 .914.914 0 00-.22-.234 2.453 2.453 0 00-.45-.277 2.82 2.82 0 00-1.411-.274 17.159 17.159 0 00-.71.072c-.18.024-.31.051-.426.09-.112.04-.208.092-.311.171-.1.08-.212.182-.351.329a2.98 2.98 0 01-.546.42c-.104.071-.216.139-.323.206-.108.067-.22.139-.323.206-.419.277-.762.554-.841.784-.016.04.036.068.127.087.044.012.1.016.16.024s.127.016.2.02c.278.028.605.055.733.099.028.008.06.016.095.02.036.004.076.008.12.008.088.004.187-.004.295-.008a2.81 2.81 0 00.171-.016c.06-.004.12-.008.184-.016.127-.016.263-.028.394-.043.284-.032.563-.06.806-.088.127-.011.247-.027.354-.04.104-.011.2-.023.276-.039.299-.055.681-.206 1.056-.444.375-.237.738-.558.945-.978.395-.024.857.234.989.277.147.044.554.02.697.012l.343.222c.104.067.196.135.275.19.41.301.842.721 1.196 1.117.36.396.654.765.853.943.076.067.168.17.28.29.055.059.111.13.17.201.06.072.124.147.184.23a2.095 2.095 0 00-.327-.107l-.378-.091c-.128-.032-.255-.063-.355-.091-.028-.107-.124-.246-.251-.404a3.598 3.598 0 00-.479-.476c-.367-.309-.797-.554-1.072-.586a1.923 1.923 0 00-.423-.012 1.762 1.762 0 00-.379.064c-.255.067-.518.174-.88.336-.363.163-.694.286-.993.408a6.91 6.91 0 00-.419.183c-.131.063-.251.13-.367.206a2.599 2.599 0 01-.606.285 1.87 1.87 0 01-.19.047c-.049.008-.073.016-.073.016s.004.012.02.032a.62.62 0 00.08.095c.04.04.1.087.175.146.04.028.084.06.136.092.052.031.108.067.171.107.252.15.59.217.97.257.378.04.808.04 1.227.04.211 0 .39.02.554.04.164.023.307.05.443.075.14.023.267.04.402.035.136 0 .28-.02.439-.071.598-.178 1.292-.53 1.475-.74.24.063.474.134.614.158.084.011.207.059.339.118.068.032.135.064.207.1.072.035.14.075.207.11.343.472.674 1.006.897 1.399l.012-.008c.459.7.897 1.545 1.164 2.198-.179-.079-.442-.194-.566-.257-.004 0-.008-.004-.008-.004-.04-.04-.08-.083-.123-.13a1.925 1.925 0 01-.132-.163c-.044-.06-.087-.127-.131-.194-.044-.072-.088-.143-.128-.226a1.448 1.448 0 00-.167-.266 2.612 2.612 0 00-.18-.21 3.659 3.659 0 00-.335-.289c-.047-.04-.095-.075-.135-.107a5.725 5.725 0 00-.518-.372 2.562 2.562 0 00-.499-.214c-.231-.071-.602-.087-1.004-.067-.4.02-.83.079-1.172.13-.172.024-.371.06-.57.092-.1.015-.2.035-.3.051-.095.02-.19.036-.283.055-.179.036-.338.068-.45.092-.112.023-.18.04-.18.04l.016.011c.012.008.024.02.044.036.036.032.092.071.168.119.072.043.163.099.267.154.108.052.227.111.367.159.554.198.996.523 1.287.72.052.036.108.068.164.096l.175.083c.112.047.24.099.39.174.077.036.16.08.252.127.088.051.187.107.299.178.084.052.187.1.315.143.128.04.275.075.43.099.312.047.67.051 1.005-.028.487-.119.825-.146 1.045-.143a.437.437 0 00.076.016c.043.012.111.032.183.06.147.051.335.134.49.253.092.242.16.444.196.59.035.143.315.824.538 1.573.115.372.211.765.287 1.105.036.17.064.33.087.464.02.138.032.253.036.34.012.222.088.59.164 1.019a4.12 4.12 0 01-.507-.38.676.676 0 00.08-.286 1.227 1.227 0 00-.016-.32 1.925 1.925 0 00-.143-.504 1.738 1.738 0 00-.156-.261 5.473 5.473 0 00-.247-.333c-.183-.222-.375-.416-.478-.444-.1-.031-.443-.079-.802-.142-.366-.064-.75-.14-.94-.238-.383-.202-.69-.345-1.01-.535a2.597 2.597 0 00-.501-.222c-.152-.051-.267-.075-.267-.075l.083.147c.052.09.12.218.192.36.135.281.283.626.315.84.011.055.02.11.027.17.008.06.012.119.02.178.008.06.012.123.02.183.004.06.012.123.02.178.008.06.02.115.036.17.016.056.028.107.052.155.04.095.096.178.175.241.311.246.897.341 1.212.622.156.139.55.242.957.305.41.064.841.08 1.072.036a.51.51 0 00.144-.052c.084.1.18.222.255.317.072.096.128.167.128.167s.227.103.383.281c.06.4.091.82.083 1.18a8.32 8.32 0 01-.032.468c-.008.091-.016.186-.028.285-.008.1-.02.202-.032.31-.043.423-.103.89-.131 1.334-.056.424-.096.872-.132 1.28a2.75 2.75 0 00-.127-.468c-.06-.158-.136-.3-.22-.376a.552.552 0 01-.143-.242.897.897 0 00.136-.289c.04-.135.067-.301.08-.491a2.37 2.37 0 00-.328-1.288c-.071-.122-.14-.233-.199-.328-.06-.095-.108-.179-.16-.25a2.18 2.18 0 00-.259-.333c-.17-.166-.366-.253-.773-.392a3.013 3.013 0 01-.646-.34c-.111-.072-.223-.151-.335-.23l-.33-.238c-.112-.08-.22-.15-.323-.222a7.12 7.12 0 00-.303-.186 2.319 2.319 0 00-.272-.127.812.812 0 00-.23-.055c-.1-.004-.045.257.023.562.016.076.036.155.056.234.016.08.036.155.052.23.032.146.052.273.056.348.007.131.071.317.175.527a9.701 9.701 0 00.375.705c.283.492.59.999.777 1.236.092.12.22.238.379.357.155.115.339.23.546.325.41.194.901.325 1.42.289.099.15.147.352.167.527.02.174.02.329.028.392.024.135.259.444.33.547-.015.134-.027.261-.043.376l-.044.309c-.084.471-.267 1.014-.455 1.497-.091.242-.191.468-.267.662a3.771 3.771 0 00-.175.483 5.765 5.765 0 01-.335.868 1.292 1.292 0 00-.08-.302c-.075-.206-.163-.467-.227-.645.171-.163.35-.587.45-1.03.1-.444.112-.903 0-1.133a1.798 1.798 0 00-.458-.594c-.191-.163-.434-.313-.773-.515-.34-.202-.622-.404-.89-.587a4.688 4.688 0 00-.76-.447 2.01 2.01 0 01-.567-.369c-.064-.055-.108-.107-.14-.142a.61.61 0 01-.047-.06l-.024.036c-.016.024-.032.067-.06.13-.024.06-.048.143-.068.246-.02.103-.04.23-.052.385a1.18 1.18 0 00.016.356 2.192 2.192 0 00.1.372c.028.084.06.167.1.25l.06.127c.02.043.043.083.063.127a9.702 9.702 0 00.462.757c.108.162.188.316.252.455.06.138.111.265.163.384.1.234.215.436.479.622.494.352 1.208.673 1.507.693.063.214.131.428.187.543.032.071.056.182.072.317.02.13.028.281.028.424-.26.515-.578 1.053-.822 1.434l.566.269c.044-.071.084-.139.124-.206.04-.067.08-.135.116-.202.076-.13.143-.261.211-.384.171-.076.359-.163.542-.246.184-.083.363-.166.515-.238.498.246.8.472 1.104.563.151.048.303.06.478.024.088-.02.18-.048.283-.095.1-.044.212-.103.335-.183.255-.162.459-.289.626-.388.172-.103.307-.178.423-.245.115-.068.215-.123.303-.183a1.344 1.344 0 00.514-.567c.076-.146.151-.32.223-.502.036-.091.076-.186.116-.281l.12-.29a4.71 4.71 0 01.29-.566c.116-.182.22-.368.323-.547.1-.178.192-.352.271-.507.156-.305.268-.527.292-.558.027-.032-.284.051-.69.166-.203.06-.427.127-.646.19-.22.068-.43.135-.606.194-.347.123-.61.333-.865.563-.128.115-.255.238-.39.356a3.541 3.541 0 01-.447.337c-.331.206-.746.396-1.1.559-.088.04-.172.079-.252.114-.08.036-.151.076-.22.107a.907.907 0 00-.266.187.902.902 0 00-.108.25 16.455 16.455 0 00-.096.392c-.027.142-.055.288-.083.415-.024.131-.044.242-.06.321-.231.083-.498.198-.746.301.49-.974.782-1.755.981-2.377a11.5 11.5 0 00.387-1.473z" fill="url(#paint2_radial_545:18057)"/><path d="M16.3 31.16c4.566-.084 9.134-.12 13.7-.15l6.848-.029 6.85-.02v.397l-6.85-.016L30 31.314l-6.849-.055-6.85-.1zm0 0l6.85-.1 6.85-.055 6.848-.027 6.85-.016v.396l-6.85-.02L30 31.31c-4.565-.031-9.13-.067-13.698-.15z" fill="#FFCF78"/><path d="M30.207 59a30.25 30.25 0 0011.37-2.313 30.073 30.073 0 009.624-6.426 29.377 29.377 0 006.422-9.578 28.805 28.805 0 002.181-11.29 28.863 28.863 0 00-2.384-11.242 29.285 29.285 0 00-6.578-9.436 29.883 29.883 0 00-9.7-6.227A30.139 30.139 0 0029.796.396c-3.87.02-7.738.777-11.314 2.254a29.834 29.834 0 00-9.608 6.358 29.27 29.27 0 00-6.447 9.527 28.782 28.782 0 00-2.224 11.27c.016 3.858.81 7.709 2.34 11.258a29.39 29.39 0 006.554 9.488 29.943 29.943 0 009.712 6.29 30.24 30.24 0 0011.398 2.16zm0 0a30.337 30.337 0 01-11.418-2.107 30.054 30.054 0 01-9.764-6.267 29.482 29.482 0 01-6.621-9.503A28.999 28.999 0 010 29.809 28.993 28.993 0 012.196 18.44a29.494 29.494 0 016.467-9.642A30.144 30.144 0 0118.35 2.33 30.41 30.41 0 0129.792.004c3.923-.02 7.842.713 11.478 2.167a30.122 30.122 0 019.775 6.334 29.55 29.55 0 016.598 9.55A29.054 29.054 0 0160 29.394a29.026 29.026 0 01-2.241 11.35 29.388 29.388 0 01-6.49 9.59 30.012 30.012 0 01-9.676 6.401A30.33 30.33 0 0130.207 59z" fill="#FFDB78"/><path d="M20.213 53.799c-.307.135-.598.139-.87.024a1.01 1.01 0 01-.394-.293 1.334 1.334 0 01-.295-.908c.008-.17.044-.328.111-.483a1.361 1.361 0 01.682-.693 1.165 1.165 0 01.949-.012c.231.1.399.23.502.388.108.159.164.333.176.52l-.3.059a.8.8 0 00-.147-.428.846.846 0 00-.354-.274.728.728 0 00-.363-.063.838.838 0 00-.34.1 1.137 1.137 0 00-.498.547 1.022 1.022 0 00-.091.383c-.008.13.008.254.044.372a.83.83 0 00.466.527c.26.111.546.087.861-.067l.144-.325-.51-.222.1-.226.765.333-.515 1.177-.255-.111.132-.325zm1.845.713a.724.724 0 00.383.028.712.712 0 00.295-.147.955.955 0 00.215-.265 1.68 1.68 0 00.143-.337l.391-1.24.315.1-.39 1.239c-.052.166-.12.317-.208.456-.084.134-.187.25-.307.336a.92.92 0 01-.41.167 1.131 1.131 0 01-.515-.052 1.19 1.19 0 01-.466-.257.978.978 0 01-.24-.377 1.109 1.109 0 01-.051-.447 2.05 2.05 0 01.091-.476l.391-1.24.315.1-.39 1.24c-.04.122-.064.245-.076.364a.872.872 0 00.028.34.663.663 0 00.16.282.782.782 0 00.326.186zm1.337.693l1.566-2.301.263.055.515 2.734-.343-.072-.148-.8-1.064-.218-.45.678-.34-.076zm1.622-1.909l-.713 1.066.928.19-.215-1.256zm1.203 2.452l.284-2.555 1.1.119a.742.742 0 01.534.317.91.91 0 01.132.28.792.792 0 01.024.306.85.85 0 01-.203.467.694.694 0 01-.423.234l.514 1.046-.37-.04-.487-.982-.682-.075-.1.919-.322-.036zm.46-1.169l.777.087c.067.008.131 0 .187-.023a.43.43 0 00.152-.103.667.667 0 00.163-.36.505.505 0 00-.016-.207.695.695 0 00-.084-.182.425.425 0 00-.135-.13.344.344 0 00-.176-.06l-.757-.083-.112 1.061zm1.812 1.411l1.096-2.56.272.005 1.028 2.586-.35-.004-.296-.756-1.088-.016-.311.749-.35-.004zm1.228-2.18l-.498 1.181.949.012-.45-1.192zm1.835.199l.183 1.953-.327.032-.243-2.56.255-.023 1.786 1.846-.187-1.989.327-.031.239 2.555-.275.023-1.758-1.806zm4.197-.943l-.877.17.447 2.239-.324.063-.446-2.238-.877.17-.056-.285 2.073-.408.06.289zm2.553 1.335l.084.277-1.687.492-.725-2.468 1.654-.483.08.277-1.34.388.235.8 1.165-.34.075.261-1.164.337.251.851 1.372-.392zm2.185-.831l.107.269-1.635.637-.944-2.392 1.606-.626.108.27-1.3.506.307.777 1.128-.44.1.253-1.132.44.327.824 1.327-.519zm.676.019l-1.172-2.294.797-.404c.184-.09.363-.142.535-.154a1.106 1.106 0 01.869.325c.12.115.215.25.295.408.087.174.143.344.163.51a1.114 1.114 0 01-.275.888c-.107.123-.247.23-.418.313l-.794.408zM42.2 51.62a1.288 1.288 0 00-.235-.328.817.817 0 00-.303-.199.87.87 0 00-.351-.051.974.974 0 00-.383.11l-.506.258.909 1.775.506-.258a.998.998 0 00.319-.245.794.794 0 00.16-.317.909.909 0 00.011-.36 1.285 1.285 0 00-.127-.385zM20.29 28.759a3.299 3.299 0 00.087-.559 7.06 7.06 0 00.024-.475c.004-.182.008-.396.008-.642l.004-2.82c0-.246-.016-.44-.048-.586a1.227 1.227 0 00-.116-.333.526.526 0 00-.14-.17 2.127 2.127 0 01-.119-.096v-.015l1.256-.496v.016c-.016.06-.032.135-.048.226a4.225 4.225 0 00-.04.337c-.012.134-.02.293-.024.475s-.008.396-.008.642l-.004 2.82a15.731 15.731 0 00.032 1.117c.012.135.024.246.04.333.016.091.032.166.048.226v.016h-.949v-.016h-.004zm2.052-3.07a3.35 3.35 0 01.414-1.62c.132-.238.291-.456.479-.65a3.1 3.1 0 01.618-.503 2.887 2.887 0 013.066 0c.227.139.43.309.617.507a3.345 3.345 0 01.782 1.422c.072.274.107.559.107.856 0 .297-.035.582-.111.855a3.321 3.321 0 01-.307.769 3.205 3.205 0 01-.479.654 2.988 2.988 0 01-1.347.828c-.26.075-.526.11-.805.11a2.869 2.869 0 01-1.531-.44 2.981 2.981 0 01-.614-.506 3.35 3.35 0 01-.475-.654 3.411 3.411 0 01-.307-.768 3.39 3.39 0 01-.107-.86zm.638.02a2.76 2.76 0 00.323 1.303c.103.194.227.368.37.527.148.158.307.293.487.408.18.115.37.202.574.261.203.064.418.095.642.095.223 0 .438-.031.645-.09a2.46 2.46 0 00.579-.262 2.41 2.41 0 00.486-.408c.144-.159.271-.333.375-.527a2.76 2.76 0 00.144-2.305 2.622 2.622 0 00-.515-.824 2.393 2.393 0 00-.762-.559 2.163 2.163 0 00-.94-.206c-.335 0-.65.067-.941.206a2.41 2.41 0 00-.766.559 2.65 2.65 0 00-.514.823 2.666 2.666 0 00-.187.999zm6.12-.009a3.347 3.347 0 01.414-1.62c.132-.237.291-.455.479-.649a3.1 3.1 0 01.618-.503 2.886 2.886 0 013.066 0c.227.139.43.309.617.507a3.344 3.344 0 01.782 1.422c.072.274.107.559.107.852a3.366 3.366 0 01-.418 1.624 3.102 3.102 0 01-.479.654c-.187.198-.39.364-.618.503a2.886 2.886 0 01-3.066 0 2.982 2.982 0 01-.613-.507 3.349 3.349 0 01-.475-.654 3.403 3.403 0 01-.307-.768 3.408 3.408 0 01-.107-.86zm.637.02a2.763 2.763 0 00.323 1.303c.104.195.228.37.371.528.148.158.307.293.487.408.179.115.37.202.574.261.203.064.418.095.641.095.224 0 .439-.031.646-.09a2.369 2.369 0 001.065-.67 2.683 2.683 0 00.618-1.145c.06-.218.087-.448.087-.685a2.7 2.7 0 00-.701-1.827 2.35 2.35 0 00-.762-.558 2.161 2.161 0 00-.94-.206c-.335 0-.65.067-.941.206-.291.135-.547.32-.766.558-.22.234-.387.512-.514.825a2.664 2.664 0 00-.188.998zm6.204-1.596c0-.226.04-.435.124-.637a1.78 1.78 0 01.33-.523c.14-.15.304-.266.491-.353a1.4 1.4 0 01.598-.13c.212 0 .415.043.602.13.188.087.351.206.495.353a1.696 1.696 0 01.454 1.16c0 .226-.04.436-.123.634a1.76 1.76 0 01-.335.519 1.56 1.56 0 01-.495.349c-.187.087-.39.13-.602.13-.211 0-.414-.043-.598-.13a1.545 1.545 0 01-.49-.353 1.703 1.703 0 01-.331-.519c-.08-.19-.12-.404-.12-.63zm.495.012a1.147 1.147 0 00.303.792c.095.103.203.183.33.242.128.06.264.091.411.091a1.003 1.003 0 00.745-.329c.096-.103.168-.221.224-.356a1.273 1.273 0 000-.883 1.157 1.157 0 00-.22-.365 1.058 1.058 0 00-.33-.245.974.974 0 00-.415-.092.956.956 0 00-.41.087.962.962 0 00-.331.246 1.168 1.168 0 00-.224.364 1.178 1.178 0 00-.083.448zm4.497-1.7l.335.23-3.951 6.366-.335-.23 3.95-6.365zm-1.643 4.87c0-.227.04-.44.124-.639.084-.198.191-.372.33-.522a1.55 1.55 0 01.491-.353 1.4 1.4 0 01.594-.13c.211 0 .415.043.602.13.188.087.35.206.495.353a1.696 1.696 0 01.454 1.16 1.6 1.6 0 01-.124.634 1.766 1.766 0 01-.334.519 1.56 1.56 0 01-.495.349 1.42 1.42 0 01-.602.13c-.211 0-.407-.043-.594-.13a1.547 1.547 0 01-.49-.353 1.703 1.703 0 01-.331-.519 1.721 1.721 0 01-.12-.63zm.495.011a1.147 1.147 0 00.303.792c.095.103.203.183.33.242.128.06.264.091.411.091a1.003 1.003 0 00.745-.329c.096-.103.168-.221.224-.356a1.27 1.27 0 000-.88 1.157 1.157 0 00-.22-.364 1.058 1.058 0 00-.33-.246.974.974 0 00-.825 0c-.128.06-.24.143-.331.246a1.167 1.167 0 00-.224.364 1.138 1.138 0 00-.083.44zm-17.967 8.854a.72.72 0 00.052-.099.567.567 0 00.044-.162l.052-.321c.02-.119.036-.246.056-.377l.06-.404c.02-.138.04-.273.055-.404.02-.134.036-.261.052-.384s.032-.238.048-.34c.012-.103.024-.19.032-.27l.02-.17h.259l1.292 2.412 1.275-2.412h.196l.335 2.436c.008.075.02.143.032.198.011.055.02.103.031.139.012.04.02.071.032.095.012.024.02.047.028.063v.008h-.514v-.008c.008-.016.012-.04.02-.075.008-.036.008-.075.008-.123 0-.016 0-.036-.004-.055 0-.02-.004-.04-.008-.06l-.26-1.965-1.207 2.278-.14-.016-1.216-2.281c-.047.324-.087.621-.123.899-.016.119-.032.233-.044.352-.016.115-.028.226-.04.33-.012.102-.02.19-.028.269a1.884 1.884 0 00-.012.17c0 .047 0 .087.004.123.004.035.004.067.008.09l.012.076h-.41v-.012h.003zm5.752-2.983c.228 0 .44.036.63.111.192.075.36.178.503.313.14.135.25.297.33.483.08.19.12.397.12.626 0 .131-.016.258-.044.385a1.487 1.487 0 01-.638.911 1.452 1.452 0 01-.781.222 1.71 1.71 0 01-.63-.112 1.545 1.545 0 01-.502-.309 1.433 1.433 0 01-.331-.483 1.58 1.58 0 01-.12-.626c0-.13.016-.257.044-.384a1.545 1.545 0 01.343-.673 1.34 1.34 0 01.646-.408c.136-.036.28-.056.43-.056zm.116 2.872c.152 0 .291-.028.415-.083a.877.877 0 00.323-.238 1.1 1.1 0 00.211-.38c.052-.15.076-.32.076-.511 0-.21-.024-.404-.072-.586a1.405 1.405 0 00-.215-.468 1.035 1.035 0 00-.36-.309 1.05 1.05 0 00-.497-.11c-.152 0-.291.027-.415.079a.869.869 0 00-.323.233c-.092.103-.16.23-.211.377-.052.15-.076.317-.076.507 0 .21.024.404.072.586.048.182.12.337.215.471a1.04 1.04 0 00.857.433zm2.037-2.82l2.11 2.246v-1.442c0-.115 0-.218-.005-.305a13.41 13.41 0 00-.012-.226 1.333 1.333 0 00-.044-.265v-.008h.363v.008a1.173 1.173 0 00-.024.107c-.008.043-.012.095-.02.158a13.41 13.41 0 00-.012.226c-.004.087-.004.19-.004.305v2.179h-.071l-2.105-2.246v1.402a7.079 7.079 0 00.016.53 1.306 1.306 0 00.044.266v.008h-.363v-.008a1.306 1.306 0 00.044-.265c.003-.064.008-.139.011-.226.005-.087.005-.19.005-.305v-1.335c0-.115 0-.218-.005-.305a14.693 14.693 0 00-.011-.226 1.31 1.31 0 00-.044-.265v-.008h.127zm3.494-.004c.168 0 .323-.004.463-.004s.259-.004.358-.008c.1-.004.168-.008.204-.016l-.1.274a1.179 1.179 0 00-.155-.032 4.152 4.152 0 00-.192-.024 2.457 2.457 0 00-.255-.012c-.032 0-.072 0-.12.004-.043 0-.091.004-.131.008-.048.004-.1.004-.148.008v1.121c.14 0 .268-.004.38-.012.11-.008.21-.012.286-.02.092-.008.176-.015.247-.027l-.063.297-.287-.036c-.084-.008-.176-.02-.276-.024a3.588 3.588 0 00-.286-.011v1.287a5.004 5.004 0 00.797-.067c.115-.02.223-.04.323-.068l-.06.333c-.016 0-.04-.004-.072-.004-.032 0-.068-.004-.107-.004-.04 0-.084-.004-.128-.004h-.128c-.04 0-.075 0-.103-.004h-.954v-.008a1.328 1.328 0 00.044-.265l.012-.226c.004-.087.004-.19.004-.305v-1.335c0-.115 0-.218-.004-.305a13.41 13.41 0 00-.012-.226 1.333 1.333 0 00-.044-.265v-.008c.167-.008.335-.008.506-.012zm2.739 1.533v.61a7.26 7.26 0 00.016.53 1.328 1.328 0 00.044.266v.008h-.49v-.008c.007-.028.015-.063.023-.107s.012-.095.02-.158l.012-.226c.004-.087.004-.19.004-.305v-.567l-.913-1.248a1.671 1.671 0 00-.092-.114c-.032-.036-.06-.068-.087-.096-.028-.027-.052-.047-.072-.067a.927.927 0 00-.052-.04v-.007h.622c0 .031.012.083.04.154s.076.154.144.254l.67.919.657-.963c.024-.036.048-.067.068-.103.024-.036.044-.071.064-.103a.674.674 0 00.047-.091.178.178 0 00.016-.071h.4v.008a1.622 1.622 0 00-.283.317l-.858 1.208zm-10.972 4.314c0-.115 0-.218-.004-.305a12.573 12.573 0 00-.012-.226 1.31 1.31 0 00-.044-.266v-.008c.028 0 .056.004.088.004.023 0 .055.004.087.004h.1c.048 0 .115-.004.2-.016a3.69 3.69 0 01.322-.015c.124 0 .235.015.339.047.104.032.195.08.271.139.076.06.136.134.18.222.043.087.063.19.063.3a.698.698 0 01-.148.448.585.585 0 01-.17.139.983.983 0 01-.22.091c.116.016.223.048.32.091.095.04.178.095.246.159a.633.633 0 01.16.221.708.708 0 01.055.282c0 .289-.095.503-.282.65-.192.142-.475.217-.854.217-.04 0-.087 0-.143-.004l-.168-.012-.167-.011c-.056-.004-.104-.004-.144-.004h-.135v-.008a1.31 1.31 0 00.044-.265l.012-.227c.004-.087.004-.19.004-.305v-1.342zm.37.526c.04.004.072.008.104.008h.096a.764.764 0 00.255-.04.573.573 0 00.195-.118.533.533 0 00.128-.198.759.759 0 00.044-.281.911.911 0 00-.032-.242.636.636 0 00-.096-.186.431.431 0 00-.16-.12.535.535 0 00-.215-.039 1.304 1.304 0 00-.235.024.325.325 0 00-.08.02v1.172h-.004zm.38.155c-.093 0-.172.004-.236.012s-.112.012-.144.02v.621c0 .159.004.294.008.397.004.103.012.19.024.253.052.008.104.012.156.02.052.004.091.008.123.008.256 0 .443-.056.559-.17.12-.115.175-.29.175-.527a.736.736 0 00-.044-.254.539.539 0 00-.33-.329.72.72 0 00-.292-.051zm3.571 1.454v-.008c.004-.008.004-.016.008-.032v-.035a.573.573 0 00-.015-.14.924.924 0 00-.068-.19l-.247-.558c-.076-.004-.18-.004-.303-.004h-.722c-.1 0-.191 0-.271.004l-.235.543c-.02.051-.044.107-.064.166a.494.494 0 00-.032.226c.004.012.004.02.008.024v.008h-.419v-.008a.756.756 0 00.092-.139c.036-.067.076-.15.12-.25l1.172-2.606h.163l1.113 2.504c.023.059.051.114.08.17.027.055.055.103.079.15.024.044.048.08.064.111.02.032.032.048.04.056v.008h-.563zm-1.327-1.145h.243c.084 0 .163 0 .243-.004.08 0 .156 0 .232-.004.071 0 .139 0 .199-.004l-.574-1.303-.566 1.31h.223v.005zm4.512-1.343l-.02.008a1.247 1.247 0 00-.873-.325c-.172 0-.331.028-.475.08a1.04 1.04 0 00-.37.233c-.104.103-.184.23-.24.376a1.44 1.44 0 00-.087.508c0 .21.028.404.084.586.055.182.135.337.243.471.107.13.243.238.402.313a1.335 1.335 0 00.802.091 1.121 1.121 0 00.426-.186c.064-.047.12-.099.172-.158l.024.015-.164.42c-.104.04-.215.072-.339.091-.123.02-.247.032-.375.032a2.06 2.06 0 01-.693-.11 1.554 1.554 0 01-.538-.31 1.375 1.375 0 01-.351-.483 1.515 1.515 0 01-.076-1.01 1.494 1.494 0 01.71-.92c.12-.07.255-.122.398-.162a2.112 2.112 0 011.204.063l.136.377zm.463 2.48a1.306 1.306 0 00.044-.265l.012-.226c.004-.087.004-.19.004-.305v-1.335c0-.115 0-.218-.004-.305a12.523 12.523 0 00-.012-.226 1.31 1.31 0 00-.044-.265v-.008h.49v.008a1.116 1.116 0 00-.023.106c-.008.044-.012.096-.02.159l-.012.226c-.004.087-.004.19-.004.305v.455l1.196-.978c.135-.111.199-.202.199-.281h.574v.008a.739.739 0 00-.243.11 2.543 2.543 0 00-.263.199l-1.057.887 1.272 1.398c.052.056.1.1.136.135.035.036.071.067.1.091a.835.835 0 00.079.06c.024.015.048.031.076.047v.008h-.598c-.004-.012-.016-.028-.028-.048a.792.792 0 00-.1-.123c-.02-.023-.04-.043-.056-.063l-1.283-1.41v.84a7.076 7.076 0 00.016.53 1.306 1.306 0 00.043.266v.008h-.49v-.008h-.004z" fill="#FFDB78"/></g><defs><radialGradient id="paint0_radial_545:18057" cx="0" cy="0" r="1" gradientUnits="userSpaceOnUse" gradientTransform="matrix(13.9826 0 0 13.8935 15.865 23.128)"><stop stop-color="#FFFBC9"/><stop offset=".115" stop-color="#F8F0B8"/><stop offset=".341" stop-color="#E7D48B"/><stop offset=".371" stop-color="#E4D085"/><stop offset=".685" stop-color="#DBB340"/><stop offset="1" stop-color="#AD8A49"/></radialGradient><radialGradient id="paint1_radial_545:18057" cx="0" cy="0" r="1" gradientUnits="userSpaceOnUse" gradientTransform="matrix(18.1814 0 0 18.0656 30.001 42.236)"><stop stop-color="#FFFBC9"/><stop offset=".115" stop-color="#F8F0B8"/><stop offset=".341" stop-color="#E7D48B"/><stop offset=".371" stop-color="#E4D085"/><stop offset=".685" stop-color="#DBB340"/><stop offset="1" stop-color="#AD8A49"/></radialGradient><radialGradient id="paint2_radial_545:18057" cx="0" cy="0" r="1" gradientUnits="userSpaceOnUse" gradientTransform="matrix(14.0109 0 0 13.9217 44.138 23.178)"><stop stop-color="#FFFBC9"/><stop offset=".115" stop-color="#F8F0B8"/><stop offset=".341" stop-color="#E7D48B"/><stop offset=".371" stop-color="#E4D085"/><stop offset=".685" stop-color="#DBB340"/><stop offset="1" stop-color="#AD8A49"/></radialGradient><clipPath id="clip0_545:18057"><path fill="#fff" d="M0 0h60v59H0z"/></clipPath></defs></svg>