<svg width="181" height="29" fill="none" xmlns="http://www.w3.org/2000/svg"><path d="M3.46 22H.4V.64l14.52 15.21V1.99h3.06v21.24L3.46 8.02V22zm28.023-11.16V9.37h2.94V22h-2.94v-1.32c-.98 1.14-2.24 1.71-3.78 1.71-1.86 0-3.35-.66-4.47-1.98-1.1-1.32-1.65-2.9-1.65-4.74 0-2 .59-3.6 1.77-4.8 1.2-1.22 2.66-1.83 4.38-1.83 1.58 0 2.83.6 3.75 1.8zm-3.39.84c-1.04 0-1.89.39-2.55 1.17-.64.78-.96 1.74-.96 2.88 0 1.12.32 2.07.96 2.85.66.78 1.51 1.17 2.55 1.17 1 0 1.84-.35 2.52-1.05.7-.7 1.05-1.68 1.05-2.94 0-1.3-.35-2.3-1.05-3-.68-.72-1.52-1.08-2.52-1.08zm12.998 8.85v8.34h-2.94V9.37h2.94v1.38c.96-1.14 2.21-1.71 3.75-1.71 1.72 0 3.17.61 4.35 1.83 1.2 1.2 1.8 2.78 1.8 4.74 0 2.02-.62 3.66-1.86 4.92-1.24 1.24-2.66 1.86-4.26 1.86-1.5 0-2.76-.62-3.78-1.86zm3.39-8.85c-1 0-1.85.36-2.55 1.08-.68.7-1.02 1.7-1.02 3 0 1.26.34 2.24 1.02 2.94.7.7 1.55 1.05 2.55 1.05 1.04 0 1.88-.39 2.52-1.17.66-.78.99-1.73.99-2.85 0-1.14-.33-2.1-.99-2.88-.64-.78-1.48-1.17-2.52-1.17zm10.838-.75c1.3-1.26 2.91-1.89 4.83-1.89s3.52.63 4.8 1.89c1.3 1.24 1.95 2.83 1.95 4.77 0 1.92-.65 3.52-1.95 4.8-1.28 1.26-2.88 1.89-4.8 1.89s-3.53-.63-4.83-1.89c-1.28-1.28-1.92-2.88-1.92-4.8 0-1.94.64-3.53 1.92-4.77zm2.1 7.74c.68.72 1.59 1.08 2.73 1.08s2.05-.36 2.73-1.08c.68-.74 1.02-1.72 1.02-2.94 0-1.34-.37-2.35-1.11-3.03-.72-.68-1.6-1.02-2.64-1.02s-1.93.34-2.67 1.02c-.72.68-1.08 1.69-1.08 3.03 0 1.22.34 2.2 1.02 2.94zM69.967.13h2.94V22h-2.94V.13zm15.5 17.61l2.46 1.38c-.56 1-1.27 1.77-2.13 2.31-.98.64-2.22.96-3.72.96-1.76 0-3.18-.54-4.26-1.62-1.24-1.24-1.86-2.85-1.86-4.83 0-2.08.67-3.81 2.01-5.19 1.14-1.14 2.55-1.71 4.23-1.71 1.64 0 2.99.55 4.05 1.65 1.18 1.22 1.77 3 1.77 5.34v.36h-9.06c.08 1.06.44 1.91 1.08 2.55.54.54 1.29.81 2.25.81.78 0 1.45-.21 2.01-.63.46-.36.85-.82 1.17-1.38zm-6.3-3.75h5.85c-.12-.7-.42-1.27-.9-1.71-.52-.48-1.18-.72-1.98-.72-.84 0-1.53.27-2.07.81-.44.4-.74.94-.9 1.62zm13.183-3.06c1.3-1.26 2.91-1.89 4.83-1.89s3.52.63 4.8 1.89c1.3 1.24 1.95 2.83 1.95 4.77 0 1.92-.65 3.52-1.95 4.8-1.28 1.26-2.88 1.89-4.8 1.89s-3.53-.63-4.83-1.89c-1.28-1.28-1.92-2.88-1.92-4.8 0-1.94.64-3.53 1.92-4.77zm2.1 7.74c.68.72 1.59 1.08 2.73 1.08s2.05-.36 2.73-1.08c.68-.74 1.02-1.72 1.02-2.94 0-1.34-.37-2.35-1.11-3.03-.72-.68-1.6-1.02-2.64-1.02s-1.93.34-2.67 1.02c-.72.68-1.08 1.69-1.08 3.03 0 1.22.34 2.2 1.02 2.94zM106.97 22V9.37h2.94v1.17c.9-1 2.04-1.5 3.42-1.5 1.66 0 2.9.57 3.72 1.71.52.74.78 1.91.78 3.51V22h-2.94v-7.02c0-.76-.06-1.38-.18-1.86-.12-.48-.31-.81-.57-.99-.26-.2-.5-.32-.72-.36-.2-.06-.48-.09-.84-.09-.42 0-.76.04-1.02.12-.24.06-.51.22-.81.48-.28.24-.49.67-.63 1.29-.14.6-.21 1.39-.21 2.37V22h-2.94zm29.95-18.93v3.6c-1.64-1.48-3.45-2.22-5.43-2.22-2.16 0-3.92.72-5.28 2.16-1.34 1.42-2.01 3.24-2.01 5.46 0 2.14.69 3.93 2.07 5.37 1.38 1.42 3.13 2.13 5.25 2.13 1.98 0 3.78-.77 5.4-2.31v3.63c-1.68 1-3.51 1.5-5.49 1.5-2.78 0-5.14-.92-7.08-2.76-2.14-2-3.21-4.52-3.21-7.56 0-3.2 1.07-5.81 3.21-7.83 1.84-1.74 4.25-2.61 7.23-2.61 2.06 0 3.84.48 5.34 1.44zm12.484 7.77V9.37h2.94V22h-2.94v-1.32c-.98 1.14-2.24 1.71-3.78 1.71-1.86 0-3.35-.66-4.47-1.98-1.1-1.32-1.65-2.9-1.65-4.74 0-2 .59-3.6 1.77-4.8 1.2-1.22 2.66-1.83 4.38-1.83 1.58 0 2.83.6 3.75 1.8zm-3.39.84c-1.04 0-1.89.39-2.55 1.17-.64.78-.96 1.74-.96 2.88 0 1.12.32 2.07.96 2.85.66.78 1.51 1.17 2.55 1.17 1 0 1.84-.35 2.52-1.05.7-.7 1.05-1.68 1.05-2.94 0-1.3-.35-2.3-1.05-3-.68-.72-1.52-1.08-2.52-1.08zM156.071.13h2.94V13.6l4.11-4.23h3.9l-5.43 5.25 5.82 7.38h-3.72l-4.14-5.4-.54.54V22h-2.94V.13zm21.799 17.61l2.46 1.38c-.56 1-1.27 1.77-2.13 2.31-.98.64-2.22.96-3.72.96-1.76 0-3.18-.54-4.26-1.62-1.24-1.24-1.86-2.85-1.86-4.83 0-2.08.67-3.81 2.01-5.19 1.14-1.14 2.55-1.71 4.23-1.71 1.64 0 2.99.55 4.05 1.65 1.18 1.22 1.77 3 1.77 5.34v.36h-9.06c.08 1.06.44 1.91 1.08 2.55.54.54 1.29.81 2.25.81.78 0 1.45-.21 2.01-.63.46-.36.85-.82 1.17-1.38zm-6.3-3.75h5.85c-.12-.7-.42-1.27-.9-1.71-.52-.48-1.18-.72-1.98-.72-.84 0-1.53.27-2.07.81-.44.4-.74.94-.9 1.62z" fill="#3A3A3A"/></svg>