<svg width="30" height="30" viewBox="0 0 30 30" fill="none" xmlns="http://www.w3.org/2000/svg">
<g clip-path="url(#clip0)">
<path d="M25.5074 25.0089C25.2963 24.8717 25.015 24.9362 24.8844 25.1496C23.3206 27.7026 20.9967 29.1086 18.3408 29.1086H14.1972C11.3141 29.1086 9.00354 28.2583 7.3296 26.5815C4.40891 23.6557 4.38295 19.1417 4.38307 19.0956C4.38313 18.9796 4.37653 16.2405 3.65606 14.9411C3.33229 14.3576 3.29374 13.6688 3.55934 13.0406C3.70899 12.6868 3.95404 12.3782 4.26467 12.1522C4.81726 11.7502 5.49829 11.6316 6.14071 11.8156C6.69544 11.9745 7.15507 12.34 7.43493 12.8451C7.44217 12.8581 7.44942 12.8712 7.45655 12.8841C8.04865 13.9583 8.35625 15.1656 8.35625 16.3921V19.0674C8.35625 19.3113 8.54421 19.5241 8.78808 19.5314C9.04037 19.539 9.24734 19.3366 9.24734 19.086V6.17419C9.24734 5.93021 9.05938 5.71748 8.81552 5.71017C8.56322 5.70256 8.35625 5.9049 8.35625 6.15553V12.6742C8.31116 12.5895 8.26388 12.5025 8.21421 12.4129C7.81905 11.6997 7.16974 11.1834 6.386 10.9589C5.52075 10.7111 4.60602 10.8519 3.84621 11.3577C3.32071 11.7076 2.91509 12.2174 2.69255 12.8082C2.37063 13.6628 2.4399 14.5861 2.87677 15.3733C3.38178 16.2841 3.49204 18.3687 3.49186 19.0937C3.49114 19.293 3.5114 24.0124 6.69324 27.2054C8.54107 29.0595 11.0657 29.9997 14.1972 29.9997H18.3408C21.3119 29.9997 23.9006 28.4496 25.6325 25.6342C25.7613 25.4247 25.7136 25.1429 25.5074 25.0089Z" fill="black"/>
<path d="M24.7809 10.9457C24.0739 10.9457 23.4288 11.2161 22.9436 11.6588V11.3913C22.9436 9.88681 21.7196 8.66287 20.2151 8.66287C19.3731 8.66287 18.6189 9.04628 18.118 9.6477C17.681 8.72252 16.7387 8.08081 15.6493 8.08081C14.9423 8.08081 14.2972 8.35117 13.812 8.79386V2.72632C13.811 1.22305 12.5871 0 11.0838 0C10.3553 0 9.67018 0.283842 9.15478 0.799248C8.63937 1.31465 8.35547 1.99972 8.35547 2.72828V4.37353C8.35547 4.61958 8.55495 4.81907 8.80101 4.81907C9.04707 4.81907 9.24656 4.61958 9.24656 4.37353V2.72828C9.24656 2.23776 9.43773 1.77648 9.78484 1.42937C10.1319 1.08226 10.5932 0.891089 11.0838 0.891089C12.0961 0.891089 12.9202 1.71469 12.9209 2.72667V14.6539C12.9209 14.9 13.1204 15.0994 13.3665 15.0994C13.6125 15.0994 13.812 14.9 13.812 14.6539V10.8092C13.812 9.7961 14.6363 8.9719 15.6494 8.9719C16.6625 8.9719 17.4868 9.7961 17.4868 10.8092V13.9106C17.4868 14.1567 17.6862 14.3562 17.9323 14.3562C18.1784 14.3562 18.3778 14.1567 18.3778 13.9106V11.3913C18.3778 10.3782 19.2021 9.55402 20.2152 9.55402C21.2283 9.55402 22.0525 10.3783 22.0525 11.3913V14.8663C22.0525 15.1123 22.252 15.3118 22.4981 15.3118C22.7441 15.3118 22.9436 15.1123 22.9436 14.8663V13.6742C22.9436 12.6611 23.7679 11.8369 24.781 11.8369C25.7941 11.8369 26.6183 12.6611 26.6183 13.6742V18.9395C26.6183 20.461 26.3085 22.0309 25.7224 23.4794C25.6301 23.7075 25.7402 23.9673 25.9683 24.0596C26.023 24.0817 26.0796 24.0923 26.1353 24.0923C26.3115 24.0923 26.4783 23.9871 26.5485 23.8137C27.1772 22.2599 27.5095 20.5745 27.5095 18.9395V13.6742C27.5094 12.1697 26.2854 10.9457 24.7809 10.9457Z" fill="black"/>
<path d="M13.6762 24.5034V19.6262C13.6762 19.3801 13.4768 19.1807 13.2307 19.1807C12.9846 19.1807 12.7852 19.3801 12.7852 19.6262V24.5034C12.7852 24.7494 12.9846 24.9489 13.2307 24.9489C13.4768 24.9489 13.6762 24.7494 13.6762 24.5034Z" fill="black"/>
<path d="M16.52 24.5034V19.6262C16.52 19.3801 16.3205 19.1807 16.0745 19.1807C15.8284 19.1807 15.6289 19.3801 15.6289 19.6262V24.5034C15.6289 24.7494 15.8284 24.9489 16.0745 24.9489C16.3205 24.9489 16.52 24.7494 16.52 24.5034Z" fill="black"/>
<path d="M19.3677 24.5034V19.6262C19.3677 19.3801 19.1682 19.1807 18.9221 19.1807C18.676 19.1807 18.4766 19.3801 18.4766 19.6262V24.5034C18.4766 24.7494 18.676 24.9489 18.9221 24.9489C19.1682 24.9489 19.3677 24.7494 19.3677 24.5034Z" fill="black"/>
</g>
<defs>
<clipPath id="clip0">
<rect width="30" height="30" fill="white"/>
</clipPath>
</defs>
</svg>
