<svg width="35" height="34" fill="none" xmlns="http://www.w3.org/2000/svg"><path d="M15.504 2.904c.648.195 1.32.301 1.996.316a7.513 7.513 0 001.992-.316 2.07 2.07 0 01-3.988 0zm4.753-1.544c-.622 0-1.625.5-2.757.5-1.132 0-2.135-.5-2.758-.5-.421 0-.68.228-.68.99a3.43 3.43 0 006.858 0c0-.762-.248-.99-.68-.99h.017z" fill="#CA9E55"/><path fill-rule="evenodd" clip-rule="evenodd" d="M17.496 3.409a7.703 7.703 0 01-1.683-.225 1.881 1.881 0 003.37 0 7.702 7.702 0 01-1.679.225h-.008zm1.779-.443c.073-.02.145-.04.217-.062a2.07 2.07 0 01-3.988 0 7.584 7.584 0 001.996.316c.6-.014 1.196-.1 1.775-.254zm-5.401-.616c0-.395.065-.694.22-.896.166-.214.403-.283.648-.283.178 0 .375.036.578.083.143.034.298.076.458.12l.2.054c.468.124.982.243 1.522.243s1.054-.12 1.521-.243l.201-.055c.16-.043.315-.085.458-.119.196-.046.387-.08.56-.083h.017c.244.003.474.073.635.284.155.202.217.502.217.895v.006a3.62 3.62 0 01-7.235 0V2.35zm6.383-.99h-.017c-.262.004-.59.093-.965.195-.517.14-1.125.305-1.775.305-.65 0-1.258-.165-1.775-.305-.384-.104-.718-.195-.983-.195-.421 0-.68.228-.68.99a3.43 3.43 0 006.858 0c0-.752-.242-.984-.663-.99z" fill="#CA9E55"/><path d="M14.392 2.768l1.258.36.109.027a8.938 8.938 0 003.482 0l.108-.027 1.258-.36 4.291 1.07-1.312 4.377a14.96 14.96 0 00-.15 8.054l3.138 12.087a8.845 8.845 0 00-1.934-.197c-2.112 0-4.689.629-7.664 1.867-1.836.765-3.468 1.152-4.855 1.152-2.866 0-3.998-1.673-4.42-2.662.36-1.272 1.57-5.314 3.597-12.009.85-2.812.85-5.813 0-8.626L10.101 3.84l4.291-1.071zm6.192-1.408l-1.609.46a7.554 7.554 0 01-2.95 0l-1.609-.46-4.644 1.16a1.36 1.36 0 00-.973 1.7l1.22 4.052a13.6 13.6 0 010 7.84c-1.301 4.309-3.127 10.354-3.603 12.033a1.36 1.36 0 00.054.891c.425 1.058 1.85 3.502 5.651 3.502 1.431 0 3.203-.34 5.379-1.258 3.172-1.322 5.477-1.761 7.14-1.761 1.662 0 2.638.422 3.247.85a.34.34 0 00.19.061.338.338 0 00.34-.421l-3.665-14.083a13.6 13.6 0 01.136-7.32L26.2 4.23a1.359 1.359 0 00-.972-1.7l-4.644-1.17z" fill="#CA9E55"/><path fill-rule="evenodd" clip-rule="evenodd" d="M15.65 3.128l-1.258-.36-4.29 1.07 1.196 4.043c.85 2.813.85 5.814 0 8.626-2.026 6.695-3.237 10.737-3.597 12.009.422.99 1.554 2.662 4.42 2.662 1.387 0 3.02-.387 4.855-1.152 2.975-1.238 5.552-1.867 7.664-1.867a8.844 8.844 0 011.934.197L23.436 16.27a14.96 14.96 0 01.15-8.054l1.312-4.376-4.29-1.071-1.259.36-.108.027a8.927 8.927 0 01-1.741.17 8.928 8.928 0 01-1.741-.17l-.109-.027zm4.963-.067l3.929.98-1.228 4.092c-.8 2.67-.853 5.51-.152 8.207l3.026 11.655a9.12 9.12 0 00-1.55-.12c-2.162 0-4.778.644-7.77 1.889-1.816.756-3.41 1.13-4.747 1.13-1.373 0-2.31-.398-2.952-.9A3.987 3.987 0 018 28.496c.392-1.37 1.591-5.373 3.568-11.906a15.196 15.196 0 000-8.789l-1.112-3.758 3.93-.98m6.192-1.995l4.718 1.188a1.644 1.644 0 011.175 2.054v.002l-1.313 4.376a13.316 13.316 0 00-.133 7.168l3.666 14.085a.623.623 0 01-.62.773.623.623 0 01-.347-.112h-.001c-.557-.392-1.474-.799-3.084-.799-1.614 0-3.881.427-7.03 1.74-2.204.929-4.012 1.28-5.489 1.28-3.959 0-5.463-2.56-5.913-3.679a1.643 1.643 0 01-.065-1.074c.477-1.683 2.304-7.732 3.606-12.038a13.316 13.316 0 000-7.677L8.527 4.3a1.643 1.643 0 011.175-2.054l4.719-1.178 1.67.477a7.269 7.269 0 002.818 0l1.67-.477zm-1.604.752a7.554 7.554 0 01-2.95 0l-1.609-.459-4.644 1.16a1.36 1.36 0 00-.973 1.7l1.22 4.052a13.6 13.6 0 010 7.84c-1.301 4.309-3.127 10.354-3.603 12.033a1.36 1.36 0 00.054.891c.425 1.058 1.85 3.502 5.651 3.502 1.431 0 3.203-.34 5.379-1.258 3.172-1.322 5.477-1.761 7.14-1.761 1.662 0 2.638.422 3.247.85a.34.34 0 00.19.061.338.338 0 00.34-.421l-3.665-14.083a13.6 13.6 0 01.136-7.32L26.2 4.23a1.359 1.359 0 00-.972-1.7l-4.644-1.17-1.609.46z" fill="#CA9E55"/><path d="M23.664 11.502h-12.58v2.775h12.58v-2.775z" fill="#CA9E55"/><path fill-rule="evenodd" clip-rule="evenodd" d="M10.895 11.313h12.958v3.153H10.895v-3.152zm12.769.19v2.774h-12.58v-2.775h12.58z" fill="#CA9E55"/></svg>