<svg width="33" height="26" fill="none" xmlns="http://www.w3.org/2000/svg"><path d="M6.435 10.756a1.734 1.734 0 100-3.468 1.734 1.734 0 000 3.468z" fill="#CA9E55"/><path d="M28.264 2.936H24.83l-.306-.646C23.912 1.066 22.688.284 21.328.284h-9.622A3.54 3.54 0 008.51 2.29l-.306.646H4.736A4.397 4.397 0 00.35 7.322v13.94a4.397 4.397 0 004.386 4.386H28.23a4.397 4.397 0 004.386-4.386V7.322c.034-2.414-1.938-4.386-4.352-4.386zm2.006 18.36c0 1.122-.918 2.04-2.04 2.04H4.736a2.046 2.046 0 01-2.04-2.04V7.356c0-1.122.918-2.04 2.04-2.04h4.148c.442 0 .85-.272 1.054-.646l.646-1.292c.204-.408.612-.68 1.088-.68h9.622c.476 0 .884.272 1.088.68l.646 1.292c.204.408.612.646 1.054.646h4.148c1.122 0 2.04.918 2.04 2.04v13.94z" fill="#CA9E55"/><path d="M16.5 6.234c-4.012 0-7.276 3.264-7.276 7.276 0 4.012 3.264 7.31 7.276 7.31 4.012 0 7.276-3.264 7.276-7.276 0-4.012-3.264-7.31-7.276-7.31zm0 12.206c-2.72 0-4.93-2.21-4.93-4.93 0-2.72 2.21-4.896 4.93-4.896 2.72 0 4.93 2.21 4.93 4.93 0 2.72-2.21 4.896-4.93 4.896z" fill="#CA9E55"/></svg>