<svg width="25" height="28" fill="none" xmlns="http://www.w3.org/2000/svg"><path d="M2.984 15.886H9.14v-6.47H2.984v6.47zM1.78 20.994h8.454v-2.51a1.1 1.1 0 00-.322-.776v-.002a1.095 1.095 0 00-.207-.161H2.31c-.077.045-.146.1-.207.16l-.002.003c-.196.197-.32.472-.32.775v2.51zm8.454 1.5H1.78v.973h8.454v-.974zm0 2.473H1.78v.167c0 .3.124.578.32.775h.002c.197.196.475.323.776.323h6.259a1.1 1.1 0 001.097-1.098v-.167zm4.49-4.386h8.455V9.385a1.1 1.1 0 00-.323-.775v-.002a1.098 1.098 0 00-.775-.32h-6.258c-.304 0-.58.123-.776.32l-.002.002c-.196.197-.32.472-.32.775v11.196zm8.455 1.499h-8.455v.974h8.455v-.974zm0 2.474h-8.455v.578c0 .3.125.578.321.775h.002a1.1 1.1 0 00.776.323h6.258a1.1 1.1 0 001.098-1.099v-.578zM15.823 6.788h6.258c.712 0 1.364.293 1.832.763h.002a2.59 2.59 0 01.764 1.834v15.746c0 .713-.296 1.366-.764 1.834a2.597 2.597 0 01-1.834.764h-6.258a2.59 2.59 0 01-1.834-.764v-.002a2.584 2.584 0 01-.764-1.832V9.385c0-.712.293-1.361.764-1.832l.002-.002a2.59 2.59 0 011.832-.763zM4.09 5.258c.893-.174 1.78-.585 2.461-1.174.712-.616 1.196-1.43 1.204-2.359-.155.03-.291.144-.405.25L4.09 5.033v.226zm4.065-.674a5.568 5.568 0 01-.624.63c-.954.824-2.208 1.375-3.441 1.564v1.14h4.065V4.583zM2.252 7.917h.338V4.71c0-.234.107-.443.276-.58L6.326.885C7.877-.585 9.654.6 9.654 2.605v5.312h.234c.447 0 .75.355.75.789v7.664c.118.085.228.177.33.28h.002a2.59 2.59 0 01.764 1.833v6.65c0 .713-.296 1.366-.764 1.834a2.598 2.598 0 01-1.833.764h-6.26a2.59 2.59 0 01-1.833-.764v-.002a2.584 2.584 0 01-.764-1.831v-6.65c0-.713.293-1.362.764-1.833l.002-.002c.134-.134.28-.252.439-.354V8.667c0-.518.299-.75.767-.75z" fill="#CA9E55"/></svg>