<svg width="35" height="34" fill="none" xmlns="http://www.w3.org/2000/svg"><g clip-path="url(#clip0)" fill="#CA9E55"><path d="M33.504 27.957h-3.055V5.047a.996.996 0 00-.996-.996H6.543V.996a.996.996 0 00-1.992 0v3.055H1.496a.996.996 0 000 1.992h3.055v22.91c0 .55.446.996.996.996h22.91v3.055a.996.996 0 001.992 0v-3.055h3.055a.996.996 0 000-1.992zM28.457 6.043v18.513l-6.268-6.268a.996.996 0 00-1.409 0l-2.284 2.284-4.276-4.276a.996.996 0 00-1.409 0l-6.268 6.268V6.043h21.914zM6.543 27.957v-2.576l6.973-6.972 7.264 7.264a.996.996 0 101.409-1.409l-2.284-2.284 1.58-1.58 6.972 6.974v.583H6.543z"/><path d="M22.48 16.004a3.989 3.989 0 003.985-3.985 3.989 3.989 0 00-3.985-3.984 3.989 3.989 0 00-3.984 3.985 3.989 3.989 0 003.985 3.984zm0-5.977c1.099 0 1.993.894 1.993 1.993a1.994 1.994 0 01-1.992 1.992 1.994 1.994 0 01-1.993-1.992c0-1.099.894-1.993 1.992-1.993z"/></g><defs><clipPath id="clip0"><path fill="#fff" transform="translate(.5)" d="M0 0h34v34H0z"/></clipPath></defs></svg>