<svg width="37" height="36" fill="none" xmlns="http://www.w3.org/2000/svg"><path d="M21.114 20.864c-2.333 2.408-2.503 5.41-2.704 11.986 6.13 0 10.363-.021 12.548-2.143C33.079 28.523 33.1 24.09 33.1 18.16c-6.576.212-9.578.372-11.986 2.705zM3.4 18.16c0 5.93.022 10.363 2.143 12.549 2.185 2.12 6.417 2.142 12.548 2.142-.212-6.576-.371-9.578-2.705-11.986C12.98 18.53 9.976 18.361 3.4 18.16zM18.091 3.15c-6.12 0-10.363.021-12.548 2.143C3.422 7.478 3.4 11.912 3.4 17.84c6.577-.212 9.579-.371 11.986-2.705 2.334-2.408 2.504-5.41 2.705-11.986zm3.023 11.986c-2.333-2.408-2.503-5.41-2.704-11.986 6.13 0 10.363.021 12.548 2.143C33.079 7.478 33.1 11.912 33.1 17.84c-6.576-.212-9.578-.371-11.986-2.705z" fill="#2C3036"/><path d="M33.1 18.16v-.319c-6.576-.212-9.578-.371-11.986-2.705-2.333-2.408-2.503-5.41-2.704-11.986h-.319c-.212 6.577-.371 9.578-2.705 11.986C12.98 17.47 9.976 17.64 3.4 17.841v.318c6.577.212 9.579.372 11.986 2.705 2.334 2.408 2.504 5.41 2.705 11.986h.319c.212-6.576.37-9.578 2.704-11.986 2.408-2.334 5.41-2.503 11.986-2.705z" fill="#fff"/></svg>