<svg width="36" height="36" fill="none" xmlns="http://www.w3.org/2000/svg"><path fill-rule="evenodd" clip-rule="evenodd" d="M18 3.15c-4.033 0-4.538.018-6.122.089-1.58.073-2.66.324-3.604.69a7.278 7.278 0 00-2.632 1.713A7.28 7.28 0 003.93 8.273c-.367.945-.618 2.024-.69 3.604-.073 1.585-.09 2.09-.09 6.123s.017 4.538.09 6.123c.072 1.58.323 2.66.69 3.604.373.99.957 1.889 1.712 2.631a7.281 7.281 0 002.632 1.712c.944.367 2.024.618 3.604.69 1.584.072 2.09.09 6.122.09 4.034 0 4.538-.018 6.123-.09 1.58-.072 2.66-.323 3.604-.69a7.28 7.28 0 002.632-1.712 7.281 7.281 0 001.712-2.631c.367-.945.617-2.024.69-3.604.072-1.585.09-2.09.09-6.123s-.018-4.538-.09-6.123c-.073-1.58-.323-2.66-.69-3.604a7.28 7.28 0 00-1.712-2.631 7.278 7.278 0 00-2.632-1.712c-.944-.367-2.024-.618-3.604-.691-1.585-.071-2.09-.09-6.123-.09zm0 2.676c3.965 0 4.435.015 6 .086 1.45.067 2.235.307 2.759.51a4.646 4.646 0 011.708 1.112c.52.52.84 1.015 1.11 1.707.202.525.446 1.31.511 2.758.072 1.567.086 2.034.086 6s-.014 4.435-.086 6c-.067 1.45-.309 2.235-.51 2.76a4.603 4.603 0 01-1.111 1.707c-.52.52-1.016.84-1.708 1.111-.524.202-1.31.445-2.758.51-1.565.072-2.034.087-6 .087s-4.436-.015-6-.086c-1.45-.067-2.235-.31-2.76-.511a4.601 4.601 0 01-1.707-1.11 4.6 4.6 0 01-1.11-1.709c-.204-.524-.446-1.31-.512-2.757-.07-1.567-.086-2.035-.086-6.001 0-3.965.015-4.434.086-6 .067-1.449.308-2.234.511-2.759a4.64 4.64 0 011.111-1.707c.52-.52 1.016-.84 1.708-1.111.524-.204 1.31-.446 2.757-.511 1.567-.071 2.035-.086 6.001-.086zm0 17.123a4.95 4.95 0 110-9.899 4.95 4.95 0 010 9.9zm0-12.575a7.626 7.626 0 100 15.253 7.626 7.626 0 000-15.253zm9.71-.301a1.783 1.783 0 11-3.566 0 1.783 1.783 0 013.565 0z" fill="url(#paint0_linear_545:17873)"/><defs><linearGradient id="paint0_linear_545:17873" x1="18" y1="3.15" x2="18" y2="32.85" gradientUnits="userSpaceOnUse"><stop stop-color="#7B00FF"/><stop offset=".495" stop-color="#FF006E"/><stop offset="1" stop-color="#FF8B00"/></linearGradient></defs></svg>