<svg width="37" height="36" fill="none" xmlns="http://www.w3.org/2000/svg"><circle cx="18.5" cy="18" r="14.76" fill="#fff"/><path d="M3.65 18c0 6.08 3.657 11.305 8.89 13.601-.043-1.037-.008-2.282.258-3.41l1.91-8.091s-.474-.949-.474-2.35c0-2.2 1.275-3.844 2.864-3.844 1.35 0 2.003 1.014 2.003 2.23 0 1.357-.866 3.388-1.311 5.27-.372 1.575.79 2.86 2.344 2.86 2.813 0 4.708-3.614 4.708-7.896 0-3.255-2.192-5.69-6.179-5.69-4.505 0-7.31 3.359-7.31 7.111 0 1.294.38 2.206.978 2.913.275.324.313.455.214.827-.072.274-.235.931-.303 1.192-.099.376-.404.51-.744.372-2.074-.847-3.04-3.12-3.04-5.674 0-4.218 3.557-9.276 10.612-9.276 5.67 0 9.402 4.103 9.402 8.507 0 5.825-3.239 10.177-8.013 10.177-1.603 0-3.111-.867-3.628-1.851 0 0-.862 3.421-1.044 4.082-.315 1.145-.932 2.29-1.495 3.181 1.366.404 2.784.61 4.209.61C26.7 32.85 33.35 26.2 33.35 18S26.7 3.15 18.5 3.15 3.65 9.8 3.65 18z" fill="#E60023"/></svg>