<svg width="0" height="0" class="hidden">
  <symbol fill="none" xmlns="http://www.w3.org/2000/svg" viewBox="0 0 37 36" id="pnt">
    <circle cx="18.5002" cy="18" r="14.76" fill="white"></circle>
    <path d="M3.65039 18C3.65039 24.0807 7.30687 29.3045 12.5392 31.6012C12.4974 30.5642 12.5317 29.3194 12.7976 28.1912C13.0831 26.9857 14.7084 20.0996 14.7084 20.0996C14.7084 20.0996 14.234 19.1514 14.234 17.7501C14.234 15.5494 15.5094 13.9059 17.0979 13.9059C18.4486 13.9059 19.1012 14.9204 19.1012 16.1353C19.1012 17.4931 18.2351 19.5241 17.7898 21.4053C17.4177 22.9805 18.5796 24.2653 20.1336 24.2653C22.9471 24.2653 24.842 20.6517 24.842 16.3701C24.842 13.1155 22.65 10.6795 18.663 10.6795C14.1585 10.6795 11.3522 14.0387 11.3522 17.791C11.3522 19.0848 11.7337 19.9971 12.3311 20.7036C12.6059 21.0281 12.644 21.1586 12.5446 21.5313C12.4734 21.8045 12.3098 22.4623 12.242 22.723C12.1432 23.0991 11.8384 23.2335 11.4985 23.0947C9.42375 22.2477 8.45748 19.9755 8.45748 17.4214C8.45748 13.2031 12.0151 8.14495 19.0705 8.14495C24.7401 8.14495 28.4716 12.2476 28.4716 16.6516C28.4716 22.4769 25.233 26.8289 20.4591 26.8289C18.8559 26.8289 17.3479 25.9623 16.8313 24.9779C16.8313 24.9779 15.9692 28.3993 15.7866 29.06C15.4717 30.2049 14.8555 31.3493 14.292 32.2412C15.6583 32.6452 17.0757 32.8503 18.5006 32.8501C26.7008 32.8501 33.3497 26.2016 33.3497 18C33.3497 9.7987 26.7008 3.15015 18.5006 3.15015C10.2995 3.15015 3.65039 9.7987 3.65039 18Z" fill="#E60023"></path>
  </symbol>
  <symbol fill="none" xmlns="http://www.w3.org/2000/svg" viewBox="0 0 37 36" id="tg">
    <circle cx="18.75" cy="18" r="13.5" fill="white"></circle>
    <path fill-rule="evenodd" clip-rule="evenodd" d="M33.6004 18.0001C33.6004 26.2011 26.9513 32.8501 18.7504 32.8501C10.5495 32.8501 3.90039 26.2011 3.90039 18.0001C3.90039 9.79923 10.5495 3.15015 18.7504 3.15015C26.9513 3.15015 33.6004 9.79923 33.6004 18.0001ZM19.2825 14.1132C17.8384 14.7133 14.9513 15.957 10.6225 17.843C9.91959 18.1227 9.55082 18.3961 9.5174 18.6634C9.46048 19.1164 10.0273 19.2946 10.797 19.5359C10.9022 19.5693 11.0111 19.6027 11.1224 19.6398C11.881 19.8861 12.9007 20.1744 13.4304 20.1856C13.9118 20.1955 14.4488 19.9975 15.0416 19.5916C19.0858 16.8604 21.1734 15.4806 21.3046 15.4509C21.3974 15.4299 21.5261 15.4026 21.6127 15.4806C21.6994 15.5573 21.6907 15.7033 21.682 15.7429C21.6251 15.9818 19.405 18.0472 18.2542 19.1164C17.8953 19.4493 17.6416 19.6856 17.5896 19.7401C17.4733 19.8601 17.3545 19.9752 17.2406 20.0853C16.5353 20.7635 16.0081 21.2733 17.2703 22.1049C17.8767 22.5046 18.3618 22.8351 18.8457 23.1642C19.3741 23.5243 19.9013 23.8832 20.5844 24.3312C20.7576 24.445 20.9234 24.5626 21.0856 24.6777C21.7006 25.117 22.2538 25.5105 22.9369 25.4487C23.3329 25.4115 23.7437 25.039 23.9516 23.9265C24.4429 21.2956 25.4106 15.5982 25.6346 13.2494C25.6482 13.0544 25.6399 12.8584 25.6099 12.6653C25.5918 12.5093 25.5159 12.3657 25.397 12.2631C25.22 12.1183 24.9453 12.0874 24.8216 12.0898C24.2635 12.0997 23.4071 12.398 19.2825 14.1132Z" fill="#29AAEC"></path>
  </symbol>
  <symbol fill="none" xmlns="http://www.w3.org/2000/svg" viewBox="0 0 37 36" id="tiktok">
    <path d="M18.1643 3.17401C19.7069 3.15015 21.2406 3.16429 22.7725 3.15015C22.8653 4.95434 23.5142 6.79212 24.8348 8.06769C26.1528 9.37509 28.0171 9.97354 29.831 10.176V14.922C28.1311 14.8663 26.4233 14.5127 24.8808 13.7808C24.209 13.4767 23.5831 13.0851 22.9705 12.6847C22.9626 16.1286 22.9847 19.5682 22.9484 22.998C22.8565 24.6457 22.3128 26.2855 21.3546 27.6433C19.813 29.9036 17.1372 31.3772 14.3889 31.4231C12.7032 31.5195 11.0192 31.0598 9.58273 30.213C7.20219 28.8092 5.52706 26.2395 5.28309 23.4815C5.25236 22.8974 5.24764 22.3123 5.26894 21.7277C5.4811 19.4851 6.59048 17.3397 8.31246 15.8802C10.2643 14.1804 12.9984 13.3706 15.5584 13.8498C15.5823 15.5956 15.5124 17.3397 15.5124 19.0855C14.3429 18.7072 12.9763 18.8133 11.9544 19.5231C11.2068 20.0156 10.6418 20.7402 10.3465 21.5854C10.1025 22.183 10.1723 22.8468 10.1865 23.4815C10.4667 25.4157 12.3266 27.0413 14.312 26.8654C15.6282 26.8512 16.8897 26.0875 17.5756 24.9693C17.7975 24.5777 18.0459 24.1772 18.0592 23.7167C18.175 21.6084 18.129 19.509 18.1431 17.4007C18.1529 12.6493 18.129 7.91123 18.1652 3.1749L18.1643 3.17401Z" fill="#00F7EF"></path>
    <path d="M19.5784 4.58832C21.1209 4.56445 22.6546 4.5786 24.1866 4.56445C24.2794 6.36864 24.9282 8.20642 26.2489 9.482C27.5669 10.7894 29.4312 11.3878 31.2451 11.5903V16.3363C29.5452 16.2806 27.8374 15.927 26.2948 15.1951C25.623 14.891 24.9972 14.4994 24.3846 14.099C24.3766 17.543 24.3987 20.9825 24.3625 24.4123C24.2705 26.06 23.7269 27.6998 22.7687 29.0576C21.227 31.3179 18.5512 32.7915 15.803 32.8375C14.1172 32.9338 12.4333 32.4741 10.9968 31.6273C8.61626 30.2236 6.94113 27.6538 6.69715 24.8958C6.66642 24.3117 6.6617 23.7266 6.68301 23.142C6.89516 20.8994 8.00455 18.754 9.72653 17.2946C11.6783 15.5947 14.4125 14.785 16.9725 15.2641C16.9963 17.0099 16.9265 18.754 16.9265 20.4998C15.757 20.1215 14.3904 20.2276 13.3685 20.9374C12.6209 21.4299 12.0559 22.1546 11.7605 22.9997C11.5166 23.5973 11.5864 24.2612 11.6006 24.8958C11.8808 26.83 13.7407 28.4556 15.7261 28.2797C17.0423 28.2656 18.3037 27.5018 18.9897 26.3836C19.2116 25.992 19.46 25.5915 19.4732 25.131C19.589 23.0227 19.5431 20.9233 19.5572 18.815C19.5669 14.0636 19.5431 9.32553 19.5793 4.5892L19.5784 4.58832Z" fill="#FC0150"></path>
    <path fill-rule="evenodd" clip-rule="evenodd" d="M15.5612 15.1282C15.5572 15.702 15.5474 16.2758 15.5376 16.8495C15.5249 17.5947 15.5122 18.34 15.5122 19.0856C14.3427 18.7072 12.976 18.8133 11.9542 19.5231C11.2065 20.0156 10.6416 20.7403 10.3462 21.5854C10.1387 22.0938 10.1582 22.6501 10.1774 23.1957C10.1808 23.2914 10.1841 23.3868 10.1862 23.4816C10.3567 24.6583 11.1119 25.7208 12.1243 26.3329C12.8694 27.5615 14.2637 28.4093 15.7261 28.2798C17.0423 28.2656 18.3037 27.5019 18.9897 26.3836C19.0061 26.3547 19.0226 26.3258 19.0392 26.2967C19.247 25.9326 19.4609 25.5576 19.4732 25.131C19.5576 23.594 19.5561 22.0616 19.5545 20.5271C19.5539 19.9568 19.5534 19.3863 19.5572 18.8151C19.5607 17.1115 19.5599 15.4096 19.559 13.709C19.5575 10.6663 19.556 7.62743 19.5793 4.58927L19.5784 4.58838C20.4626 4.5747 21.344 4.57351 22.2237 4.57232C22.4703 4.57199 22.7168 4.57165 22.9632 4.57104C23.2532 5.88293 23.8615 7.12792 24.8345 8.06772C25.0585 8.28984 25.2982 8.4915 25.5507 8.67423C25.7583 8.96201 25.9908 9.23277 26.2489 9.48206C27.2243 10.4496 28.4988 11.0289 29.8308 11.3467V14.9221C28.1309 14.8664 26.423 14.5128 24.8805 13.7808C24.2087 13.4768 23.5828 13.0852 22.9702 12.6847C22.9675 13.8558 22.9683 15.0264 22.9691 16.1963C22.9706 18.4668 22.9721 20.7345 22.9481 22.998C22.8562 24.6458 22.3126 26.2855 21.3543 27.6433C19.8127 29.9036 17.1369 31.3772 14.3886 31.4232C12.7029 31.5195 11.0189 31.0599 9.58247 30.213C9.23678 30.0092 8.90597 29.7808 8.59226 29.5307C7.53416 28.2067 6.84672 26.5867 6.69715 24.8959C6.66642 24.3118 6.6617 23.7266 6.68301 23.1421C6.89516 20.8995 8.00455 18.7541 9.72653 17.2946C11.3226 15.9045 13.4419 15.1097 15.5612 15.1282Z" fill="black"></path>
  </symbol>
  <symbol fill="none" xmlns="http://www.w3.org/2000/svg" viewBox="0 0 36 36" id="vk">
    <path d="M32.1694 10.3745C32.3769 9.68535 32.1694 9.17993 31.1882 9.17993H27.9379C27.1108 9.17993 26.7329 9.61717 26.5254 10.0974C26.5254 10.0974 24.8728 14.1273 22.531 16.7404C21.7751 17.5007 21.4298 17.7408 21.0177 17.7408C20.8117 17.7408 20.5123 17.5007 20.5123 16.8115V10.3745C20.5123 9.54751 20.2737 9.17993 19.5845 9.17993H14.477C13.9612 9.17993 13.6499 9.56233 13.6499 9.92694C13.6499 10.7095 14.8208 10.8903 14.9409 13.0958V17.8802C14.9409 18.928 14.7527 19.1192 14.3377 19.1192C13.2364 19.1192 10.5567 15.0744 8.96635 10.4442C8.65658 9.54454 8.34385 9.18141 7.51384 9.18141H4.26497C3.33566 9.18141 3.15039 9.61865 3.15039 10.0989C3.15039 10.9615 4.25163 15.2301 8.28011 20.8756C10.9658 24.7307 14.7467 26.8205 18.1913 26.8205C20.2559 26.8205 20.5108 26.3566 20.5108 25.5562V22.6423C20.5108 21.7145 20.7079 21.5277 21.3616 21.5277C21.8418 21.5277 22.6688 21.7708 24.5971 23.6279C26.7996 25.8304 27.1642 26.819 28.4018 26.819H31.6507C32.5785 26.819 33.0424 26.3551 32.7756 25.4391C32.4836 24.5276 31.4313 23.2011 30.0351 21.6315C29.2763 20.7363 28.1424 19.7729 27.7971 19.2912C27.3154 18.6701 27.4547 18.3959 27.7971 17.8446C27.7986 17.8461 31.7574 12.2702 32.1694 10.3745V10.3745Z" fill="#2A87F0"></path>
  </symbol>
  <symbol fill="none" xmlns="http://www.w3.org/2000/svg" viewBox="0 0 37 36" id="ytb">
    <circle cx="18.5" cy="18" r="9" fill="white"></circle>
    <path d="M32.7462 10.8724C32.5772 10.2453 32.2469 9.6734 31.7881 9.21362C31.3294 8.75383 30.7582 8.42222 30.1315 8.25177C27.8076 7.61367 18.5107 7.60328 18.5107 7.60328C18.5107 7.60328 9.21521 7.59289 6.88986 8.2028C6.26352 8.38109 5.69353 8.7174 5.23461 9.17944C4.77569 9.64148 4.44325 10.2137 4.2692 10.8413C3.65633 13.1651 3.65039 17.985 3.65039 17.985C3.65039 17.985 3.64446 22.8286 4.25288 25.1287C4.59419 26.4005 5.59585 27.4051 6.86908 27.7479C9.21669 28.386 18.4884 28.3964 18.4884 28.3964C18.4884 28.3964 27.7854 28.4068 30.1092 27.7984C30.7362 27.6282 31.3079 27.2974 31.7678 26.8385C32.2276 26.3797 32.5598 25.8087 32.7314 25.1822C33.3457 22.8598 33.3502 18.0414 33.3502 18.0414C33.3502 18.0414 33.3798 13.1963 32.7462 10.8724ZM15.5368 22.4502L15.5443 13.5465L23.2712 18.0058L15.5368 22.4502Z" fill="#FF0000"></path>
  </symbol>
  <symbol fill="none" xmlns="http://www.w3.org/2000/svg" viewBox="0 0 37 36" id="dzen">
    <path d="M21.1143 20.8641C18.7807 23.2719 18.611 26.2737 18.4095 32.8501C24.5404 32.8501 28.7727 32.8289 30.9577 30.7075C33.0792 28.5224 33.1004 24.0886 33.1004 18.1593C26.524 18.3714 23.5221 18.5305 21.1143 20.8641ZM3.40039 18.1593C3.40039 24.0886 3.4216 28.5224 5.54303 30.7075C7.7281 32.8289 11.9604 32.8501 18.0913 32.8501C17.8791 26.2737 17.72 23.2719 15.3865 20.8641C12.9786 18.5305 9.97682 18.3608 3.40039 18.1593ZM18.0913 3.15015C11.971 3.15015 7.7281 3.17136 5.54303 5.29279C3.4216 7.47786 3.40039 11.9116 3.40039 17.841C9.97682 17.6289 12.9786 17.4698 15.3865 15.1362C17.72 12.7284 17.8897 9.72657 18.0913 3.15015ZM21.1143 15.1362C18.7807 12.7284 18.611 9.72657 18.4095 3.15015C24.5404 3.15015 28.7727 3.17136 30.9577 5.29279C33.0792 7.47786 33.1004 11.9116 33.1004 17.841C26.524 17.6289 23.5221 17.4698 21.1143 15.1362Z" fill="#2C3036"></path>
    <path d="M33.1004 18.1593V17.841C26.524 17.6289 23.5221 17.4698 21.1143 15.1362C18.7807 12.7284 18.611 9.72657 18.4095 3.15015H18.0913C17.8791 9.72657 17.72 12.7284 15.3865 15.1362C12.9786 17.4698 9.97682 17.6395 3.40039 17.841V18.1593C9.97682 18.3714 12.9786 18.5305 15.3865 20.8641C17.72 23.2719 17.8897 26.2737 18.0913 32.8501H18.4095C18.6216 26.2737 18.7807 23.2719 21.1143 20.8641C23.5221 18.5305 26.524 18.3608 33.1004 18.1593Z" fill="white"></path>
  </symbol>
  <symbol fill="none" xmlns="http://www.w3.org/2000/svg" viewBox="0 0 37 36" id="fb">
    <path d="M22.7322 3.15015C18.5509 3.15015 16.0985 5.35855 16.0985 10.3906V14.818H10.7949V20.1216H16.0985V32.8501H21.4021V20.1216H25.6449L26.7056 14.818H21.4021V11.2879C21.4021 9.39245 22.0205 8.45372 23.7993 8.45372H26.7056V3.36759C26.2029 3.29971 24.738 3.15015 22.7322 3.15015Z" fill="#1C77ED"></path>
  </symbol>
  <symbol fill="none" xmlns="http://www.w3.org/2000/svg" viewBox="0 0 36 36" id="inst">
    <path fill-rule="evenodd" clip-rule="evenodd" d="M18.0004 3.1499C13.9671 3.1499 13.4622 3.16772 11.8777 3.239C10.2977 3.31177 9.2181 3.56273 8.27364 3.92953C7.28238 4.30203 6.38435 4.88636 5.64222 5.64173C4.88688 6.3839 4.30256 7.28192 3.93002 8.27315C3.56322 9.21761 3.31226 10.2972 3.23949 11.8772C3.16673 13.4617 3.15039 13.9666 3.15039 17.9999C3.15039 22.0332 3.16673 22.5381 3.23949 24.1226C3.31226 25.7026 3.56322 26.7822 3.93002 27.7267C4.30261 28.7179 4.88692 29.6159 5.64222 30.3581C6.38441 31.1134 7.28243 31.6977 8.27364 32.0703C9.2181 32.4371 10.2977 32.688 11.8777 32.7608C13.4622 32.8321 13.9671 32.8499 18.0004 32.8499C22.0336 32.8499 22.5385 32.8321 24.123 32.7608C25.7031 32.688 26.7827 32.4371 27.7271 32.0703C28.7184 31.6977 29.6164 31.1134 30.3586 30.3581C31.1139 29.6159 31.6982 28.7179 32.0708 27.7267C32.4376 26.7822 32.6885 25.7026 32.7613 24.1226C32.8326 22.5381 32.8504 22.0332 32.8504 17.9999C32.8504 13.9666 32.8326 13.4617 32.7613 11.8772C32.6885 10.2972 32.4376 9.21761 32.0708 8.27315C31.6982 7.28192 31.1139 6.3839 30.3586 5.64173C29.6164 4.88636 28.7184 4.30203 27.7271 3.92953C26.7827 3.56273 25.7031 3.31177 24.123 3.239C22.5385 3.16772 22.0336 3.1499 18.0004 3.1499ZM18.0004 5.82587C21.9653 5.82587 22.4346 5.84072 23.9998 5.912C25.4492 5.97883 26.2347 6.2194 26.7589 6.42284C27.4509 6.69311 27.9469 7.01536 28.4667 7.53362C28.9864 8.05337 29.3072 8.54936 29.5774 9.24137C29.7794 9.76558 30.0229 10.5511 30.0883 11.999C30.1596 13.5657 30.1744 14.0335 30.1744 17.9999C30.1744 21.9649 30.1596 22.4341 30.0883 23.9993C30.0215 25.4487 29.7794 26.2342 29.5774 26.7584C29.3394 27.4035 28.9598 27.987 28.4667 28.4662C27.9469 28.9859 27.4509 29.3067 26.7589 29.577C26.2347 29.7789 25.4492 30.0225 24.0013 30.0878C22.4361 30.1591 21.9668 30.1739 18.0004 30.1739C14.0354 30.1739 13.5647 30.1591 12.001 30.0878C10.5516 30.021 9.76607 29.7789 9.24186 29.577C8.59675 29.339 8.0132 28.9594 7.53411 28.4662C7.04088 27.9871 6.66132 27.4035 6.42333 26.7584C6.21989 26.2342 5.97783 25.4487 5.91249 24.0008C5.84121 22.4341 5.82636 21.9663 5.82636 17.9999C5.82636 14.035 5.84121 13.5657 5.91249 12.0005C5.97932 10.5511 6.21989 9.76558 6.42333 9.24137C6.6936 8.54936 7.01585 8.05337 7.53411 7.53362C8.05386 7.01387 8.54985 6.69311 9.24186 6.42284C9.76607 6.2194 10.5516 5.97734 11.9995 5.912C13.5662 5.84072 14.034 5.82587 18.0004 5.82587ZM18.0004 22.9494C16.6877 22.9494 15.4288 22.4279 14.5006 21.4997C13.5723 20.5715 13.0509 19.3126 13.0509 17.9999C13.0509 16.6872 13.5723 15.4283 14.5006 14.5001C15.4288 13.5719 16.6877 13.0504 18.0004 13.0504C19.3131 13.0504 20.572 13.5719 21.5002 14.5001C22.4284 15.4283 22.9499 16.6872 22.9499 17.9999C22.9499 19.3126 22.4284 20.5715 21.5002 21.4997C20.572 22.4279 19.3131 22.9494 18.0004 22.9494ZM18.0004 10.3744C16.999 10.3744 16.0074 10.5717 15.0822 10.9549C14.1571 11.3381 13.3165 11.8998 12.6084 12.6079C11.9003 13.316 11.3386 14.1566 10.9554 15.0818C10.5722 16.0069 10.3749 16.9985 10.3749 17.9999C10.3749 19.0013 10.5722 19.9929 10.9554 20.918C11.3386 21.8432 11.9003 22.6838 12.6084 23.3919C13.3165 24.1 14.1571 24.6617 15.0822 25.0449C16.0074 25.4281 16.999 25.6254 18.0004 25.6254C20.0228 25.6254 21.9624 24.822 23.3924 23.3919C24.8225 21.9619 25.6259 20.0223 25.6259 17.9999C25.6259 15.9775 24.8225 14.0379 23.3924 12.6079C21.9624 11.1778 20.0228 10.3744 18.0004 10.3744ZM27.7093 10.073C27.7093 10.307 27.6632 10.5387 27.5737 10.7549C27.4841 10.9711 27.3529 11.1676 27.1874 11.333C27.0219 11.4985 26.8255 11.6298 26.6093 11.7193C26.3931 11.8089 26.1613 11.855 25.9273 11.855C25.6933 11.855 25.4616 11.8089 25.2454 11.7193C25.0292 11.6298 24.8327 11.4985 24.6673 11.333C24.5018 11.1676 24.3705 10.9711 24.281 10.7549C24.1914 10.5387 24.1453 10.307 24.1453 10.073C24.1453 9.60036 24.3331 9.1471 24.6673 8.81291C25.0014 8.47872 25.4547 8.29097 25.9273 8.29097C26.3999 8.29097 26.8532 8.47872 27.1874 8.81291C27.5216 9.1471 27.7093 9.60036 27.7093 10.073Z" fill="url(#paint0_linear_545:17873)"></path>
    <defs>
      <linearGradient id="paint0_linear_545:17873" x1="18.0004" y1="3.1499" x2="18.0004" y2="32.8499" gradientUnits="userSpaceOnUse">
        <stop stop-color="#7B00FF"></stop>
        <stop offset="0.494792" stop-color="#FF006E"></stop>
        <stop offset="1" stop-color="#FF8B00"></stop>
      </linearGradient>
    </defs>
  </symbol>
</svg>