<svg width="37" height="36" fill="none" xmlns="http://www.w3.org/2000/svg"><circle cx="18.75" cy="18" r="13.5" fill="#fff"/><path fill-rule="evenodd" clip-rule="evenodd" d="M33.6 18c0 8.201-6.649 14.85-14.85 14.85-8.2 0-14.85-6.649-14.85-14.85 0-8.2 6.65-14.85 14.85-14.85C26.951 3.15 33.6 9.8 33.6 18zm-14.318-3.887c-1.444.6-4.33 1.844-8.66 3.73-.702.28-1.071.553-1.105.82-.057.453.51.632 1.28.873.105.033.214.067.325.104.759.246 1.779.534 2.308.546.482.01 1.019-.189 1.612-.594 4.044-2.732 6.131-4.111 6.263-4.141.092-.021.221-.048.308.03.086.076.078.222.069.262-.057.239-2.277 2.304-3.428 3.373-.359.333-.612.57-.664.624-.117.12-.235.235-.35.345-.705.678-1.232 1.188.03 2.02.607.4 1.092.73 1.576 1.06.528.36 1.055.718 1.738 1.166.174.114.34.232.502.347.615.439 1.168.832 1.85.77.397-.037.808-.409 1.016-1.521.49-2.631 1.459-8.329 1.683-10.678a2.619 2.619 0 00-.025-.584.627.627 0 00-.213-.402c-.177-.145-.452-.176-.575-.173-.558.01-1.415.308-5.54 2.023z" fill="#29AAEC"/></svg>