<svg width="37" height="36" fill="none" xmlns="http://www.w3.org/2000/svg"><path d="M18.164 3.174c1.543-.024 3.077-.01 4.608-.024.093 1.804.742 3.642 2.063 4.918 1.318 1.307 3.182 1.906 4.996 2.108v4.746c-1.7-.056-3.408-.41-4.95-1.141-.672-.304-1.298-.696-1.91-1.096-.008 3.444.014 6.883-.023 10.313-.091 1.648-.635 3.287-1.593 4.645-1.542 2.26-4.218 3.734-6.966 3.78-1.686.097-3.37-.363-4.806-1.21-2.38-1.404-4.056-3.974-4.3-6.732a20.097 20.097 0 01-.014-1.753 8.836 8.836 0 013.043-5.848c1.952-1.7 4.686-2.51 7.246-2.03.024 1.746-.046 3.49-.046 5.236-1.17-.379-2.536-.273-3.558.437a4.082 4.082 0 00-1.607 2.062c-.245.598-.175 1.262-.16 1.896.28 1.935 2.14 3.56 4.125 3.384 1.316-.014 2.578-.777 3.264-1.896.221-.391.47-.792.483-1.252.116-2.109.07-4.208.084-6.316.01-4.752-.014-9.49.022-14.226v-.001z" fill="#00F7EF"/><path d="M19.578 4.588c1.543-.024 3.077-.01 4.609-.024.092 1.805.741 3.642 2.062 4.918 1.318 1.307 3.182 1.906 4.996 2.108v4.746c-1.7-.055-3.408-.409-4.95-1.14-.672-.305-1.298-.697-1.91-1.097-.008 3.444.014 6.884-.023 10.313-.091 1.648-.635 3.288-1.593 4.646-1.542 2.26-4.218 3.733-6.966 3.78-1.686.096-3.37-.364-4.806-1.21-2.38-1.404-4.056-3.974-4.3-6.732a20.12 20.12 0 01-.014-1.754 8.835 8.835 0 013.044-5.847c1.951-1.7 4.685-2.51 7.245-2.03.024 1.745-.046 3.489-.046 5.235-1.169-.378-2.536-.272-3.557.437A4.083 4.083 0 0011.76 23c-.244.597-.175 1.261-.16 1.896.28 1.934 2.14 3.56 4.125 3.384 1.316-.014 2.578-.778 3.264-1.896.222-.392.47-.793.483-1.253.116-2.108.07-4.208.084-6.316.01-4.751-.014-9.49.022-14.226z" fill="#FC0150"/><path fill-rule="evenodd" clip-rule="evenodd" d="M15.561 15.128c-.004.574-.014 1.148-.023 1.721-.013.746-.026 1.491-.026 2.237-1.17-.379-2.536-.273-3.558.437a4.082 4.082 0 00-1.608 2.062c-.207.509-.188 1.065-.169 1.61l.01.287c.17 1.176.925 2.239 1.937 2.85.745 1.23 2.14 2.077 3.602 1.948 1.316-.014 2.578-.778 3.264-1.896.016-.03.033-.058.05-.087.207-.364.42-.74.433-1.166.085-1.537.083-3.07.082-4.604-.001-.57-.002-1.14.002-1.712.004-1.704.003-3.405.002-5.106-.002-3.043-.003-6.082.02-9.12.884-.014 1.765-.015 2.645-.017l.74-.001c.29 1.312.898 2.557 1.87 3.497.224.222.464.424.717.606.207.288.44.559.698.808.975.968 2.25 1.547 3.582 1.865v3.575c-1.7-.056-3.408-.41-4.95-1.141-.672-.304-1.298-.696-1.91-1.096a1174.54 1174.54 0 00-.002 3.511c.002 2.27.003 4.538-.02 6.802-.093 1.648-.636 3.287-1.595 4.645-1.541 2.26-4.217 3.734-6.965 3.78-1.686.097-3.37-.363-4.807-1.21a8.577 8.577 0 01-.99-.682c-1.058-1.324-1.745-2.944-1.895-4.635a20.12 20.12 0 01-.014-1.754 8.836 8.836 0 013.044-5.847 8.875 8.875 0 015.834-2.167z" fill="#000"/></svg>