<svg width="36" height="36" fill="none" xmlns="http://www.w3.org/2000/svg"><path d="M32.17 10.374c.207-.689 0-1.194-.982-1.194h-3.25c-.827 0-1.205.437-1.413.917 0 0-1.652 4.03-3.994 6.643-.756.76-1.101 1-1.513 1-.206 0-.506-.24-.506-.928v-6.438c0-.826-.238-1.194-.928-1.194h-5.107c-.516 0-.827.382-.827.747 0 .783 1.17.963 1.29 3.169v4.784c0 1.048-.187 1.24-.602 1.24-1.102 0-3.781-4.046-5.372-8.676-.31-.9-.622-1.263-1.452-1.263H4.265c-.93 0-1.115.438-1.115.918 0 .862 1.102 5.131 5.13 10.777 2.686 3.855 6.467 5.944 9.911 5.944 2.065 0 2.32-.463 2.32-1.264v-2.914c0-.927.197-1.114.85-1.114.48 0 1.308.243 3.236 2.1 2.203 2.202 2.567 3.191 3.805 3.191h3.249c.927 0 1.391-.464 1.125-1.38-.292-.911-1.345-2.238-2.74-3.808-.76-.895-1.894-1.858-2.239-2.34-.482-.62-.342-.895 0-1.446.002.001 3.96-5.575 4.372-7.47z" fill="#2A87F0"/></svg>