<svg width="37" height="36" fill="none" xmlns="http://www.w3.org/2000/svg"><circle cx="18.5" cy="18" r="9" fill="#fff"/><path d="M32.746 10.872a3.718 3.718 0 00-2.615-2.62c-2.323-.638-11.62-.649-11.62-.649s-9.296-.01-11.621.6a3.799 3.799 0 00-2.62 2.638c-.614 2.324-.62 7.144-.62 7.144s-.006 4.844.603 7.144a3.718 3.718 0 002.616 2.619c2.348.638 11.62.648 11.62.648s9.296.01 11.62-.598a3.732 3.732 0 002.622-2.616c.615-2.322.62-7.14.62-7.14s.029-4.846-.605-7.17zM15.536 22.45l.008-8.903 7.727 4.459-7.734 4.444z" fill="red"/></svg>