<svg width="41" height="44" viewBox="0 0 41 44" fill="none" xmlns="http://www.w3.org/2000/svg">
<circle cx="20.5" cy="20" r="20" fill="#C4C4C4"/>
<mask id="mask0_877:23395" style="mask-type:alpha" maskUnits="userSpaceOnUse" x="0" y="3" width="41" height="41">
<g clip-path="url(#clip0_877:23395)">
<path d="M23.8333 23.2H17.1667C14.0725 23.2 11.105 24.4291 8.91709 26.617C6.72916 28.805 5.5 31.7724 5.5 34.8666V38.2C5.5 38.642 5.67559 39.0659 5.98816 39.3785C6.30072 39.691 6.72464 39.8666 7.16667 39.8666H33.8333C34.2754 39.8666 34.6993 39.691 35.0118 39.3785C35.3244 39.0659 35.5 38.642 35.5 38.2V34.8666C35.5 31.7724 34.2708 28.805 32.0829 26.617C29.895 24.4291 26.9275 23.2 23.8333 23.2Z" fill="#333333"/>
<path d="M20.5 21.5333C24.6421 21.5333 28 18.1755 28 14.0333C28 9.89119 24.6421 6.53333 20.5 6.53333C16.3579 6.53333 13 9.89119 13 14.0333C13 18.1755 16.3579 21.5333 20.5 21.5333Z" fill="#333333"/>
</g>
</mask>
<g mask="url(#mask0_877:23395)">
<circle cx="20.5" cy="19.9999" r="20" fill="#DDDDDD"/>
</g>
<defs>
<clipPath id="clip0_877:23395">
<rect width="40" height="40" fill="white" transform="translate(0.5 3.19995)"/>
</clipPath>
</defs>
</svg>
