<svg width="150" height="150" viewBox="0 0 150 150" fill="none" xmlns="http://www.w3.org/2000/svg">
<rect width="150" height="150" rx="8" fill="#C4C4C4"/>
<g clip-path="url(#clip0_710:22891)">
<path d="M87.5 75H62.5C50.8968 75 39.7688 79.6094 31.5641 87.8141C23.3594 96.0188 18.75 107.147 18.75 118.75V131.25C18.75 132.908 19.4085 134.497 20.5806 135.669C21.7527 136.842 23.3424 137.5 25 137.5H125C126.658 137.5 128.247 136.842 129.419 135.669C130.592 134.497 131.25 132.908 131.25 131.25V118.75C131.25 107.147 126.641 96.0188 118.436 87.8141C110.231 79.6094 99.1032 75 87.5 75V75Z" fill="#DDDDDD"/>
<path d="M75 68.75C90.533 68.75 103.125 56.158 103.125 40.625C103.125 25.092 90.533 12.5 75 12.5C59.467 12.5 46.875 25.092 46.875 40.625C46.875 56.158 59.467 68.75 75 68.75Z" fill="#DDDDDD"/>
</g>
<defs>
<clipPath id="clip0_710:22891">
<path d="M0 8C0 3.58172 3.58172 0 8 0H142C146.418 0 150 3.58172 150 8V142C150 146.418 146.418 150 142 150H8C3.58172 150 0 146.418 0 142V8Z" fill="white"/>
</clipPath>
</defs>
</svg>
