<svg width="51" height="51" fill="none" xmlns="http://www.w3.org/2000/svg"><g clip-path="url(#clip0_1196_2856)" fill="#000"><path d="M38.69 7.035h-1.76v1.759a3.528 3.528 0 01-3.516 3.517H17.586a3.528 3.528 0 01-3.517-3.517V7.035H12.31a3.528 3.528 0 00-3.517 3.517v36.931a3.528 3.528 0 003.517 3.518h26.38a3.528 3.528 0 003.517-3.518v-36.93a3.528 3.528 0 00-3.517-3.518zm-15.3 31.128l-7.739-7.738 1.232-1.231L23.39 35.7l12.486-12.486 1.23 1.23L23.39 38.163z"/><path d="M17.586 10.552h15.828c.88 0 1.758-.704 1.758-1.759V7.034c0-1.055-.703-1.758-1.758-1.758h-3.517V3.517A3.528 3.528 0 0026.379 0h-1.758a3.528 3.528 0 00-3.517 3.517v1.759h-3.518c-.879 0-1.758.703-1.758 1.758v1.76c0 1.054.703 1.758 1.758 1.758zM25.5 3.517c.527 0 .88.352.88.88 0 .527-.352.879-.88.879-.527 0-.88-.352-.88-.88 0-.527.352-.879.88-.879z"/></g><defs><clipPath id="clip0_1196_2856"><path fill="#fff" d="M0 0h51v51H0z"/></clipPath></defs></svg>