<svg width="38" height="28" fill="none" xmlns="http://www.w3.org/2000/svg"><path d="M26.783 15.883c2.284 1.55 3.884 3.65 3.884 6.45v5h6.666v-5c0-3.633-5.95-5.783-10.55-6.45zM24 14a6.665 6.665 0 006.667-6.667A6.665 6.665 0 0024 .667c-.783 0-1.517.166-2.217.4a9.966 9.966 0 010 12.533c.7.233 1.434.4 2.217.4zm-10 0a6.665 6.665 0 006.667-6.667A6.665 6.665 0 0014 .667a6.665 6.665 0 00-6.667 6.666A6.665 6.665 0 0014 14zm0-10c1.833 0 3.333 1.5 3.333 3.333 0 1.834-1.5 3.334-3.333 3.334a3.343 3.343 0 01-3.333-3.334C10.667 5.5 12.167 4 14 4zm0 11.667C9.55 15.667.667 17.9.667 22.333v5h26.666v-5c0-4.433-8.883-6.666-13.333-6.666zM24 24H4v-1.65C4.333 21.15 9.5 19 14 19s9.667 2.15 10 3.333V24z" fill="#333"/></svg>