<svg width="34" height="34" viewBox="0 0 34 34" fill="none" xmlns="http://www.w3.org/2000/svg">
<path d="M16.9834 0.333252C7.78337 0.333252 0.333374 7.79992 0.333374 16.9999C0.333374 26.1999 7.78337 33.6666 16.9834 33.6666C26.2 33.6666 33.6667 26.1999 33.6667 16.9999C33.6667 7.79992 26.2 0.333252 16.9834 0.333252ZM17 30.3333C9.63337 30.3333 3.66671 24.3666 3.66671 16.9999C3.66671 9.63325 9.63337 3.66659 17 3.66659C24.3667 3.66659 30.3334 9.63325 30.3334 16.9999C30.3334 24.3666 24.3667 30.3333 17 30.3333ZM17.8334 8.66659H15.3334V18.6666L24.0834 23.9166L25.3334 21.8666L17.8334 17.4166V8.66659Z" fill="#333333"/>
</svg>
