<svg width="15" height="16" fill="none" xmlns="http://www.w3.org/2000/svg"><path d="M3.18 15.88c0-.173-.033-.26-.1-.26l-.46.22c0-.093-.053-.16-.16-.2l-.16-.02c-.107 0-.24.047-.4.14a1.4 1.4 0 00-.1-.2 2.736 2.736 0 01-.1-.18c-.173-.333-.347-.7-.52-1.1-.16-.413-.313-.807-.46-1.18-.133-.373-.24-.667-.32-.88a8.008 8.008 0 01-.18-.78 21.031 21.031 0 01-.2-1.32c.147.093.26.14.34.14.093 0 .18-.14.26-.42.04.053.113.08.22.08.08 0 .14-.027.18-.08l.32-.48.36.12h.02c.027 0 .053-.013.08-.04a.465.465 0 01.12-.08c.107-.067.187-.1.24-.1l.06.02c.333.16.547.453.64.88.24 1.013.48 1.52.72 1.52s.52-.253.84-.76c.16-.253.32-.547.48-.88.173-.333.347-.707.52-1.12.027.16.053.24.08.24.067 0 .18-.167.34-.5.173-.333.447-.793.82-1.38.213-.36.48-.767.8-1.22A79.748 79.748 0 019.6 3.3c.36-.427.68-.793.96-1.1.28-.307.487-.507.62-.6.507-.347.907-.68 1.2-1a1.48 1.48 0 01-.06.26.846.846 0 00-.02.14c0 .053.027.08.08.08l.56-.28v.08c0 .107.027.16.08.16.04 0 .12-.06.24-.18s.187-.207.2-.26l-.04.28.68-.4-.16.36c.213-.147.367-.22.46-.22.053 0 .093.033.12.1a.35.35 0 01.04.16.55.55 0 01-.1.28 6.725 6.725 0 01-.26.38c-.08.107-.213.267-.4.48-.173.2-.44.5-.8.9a64.3 64.3 0 00-1.44 1.62c-.16.173-.407.48-.74.92-.333.427-.713.927-1.14 1.5-.413.56-.827 1.127-1.24 1.7-.413.573-.78 1.093-1.1 1.56-.32.453-.547.793-.68 1.02l-1.24 2.1-.66 1.12a4.89 4.89 0 01-.4.58c-.2.24-.42.453-.66.64l-.18-.1-.16.1-.18.2z" fill="#3847D4"/></svg>