<svg width="138" height="18" fill="none" xmlns="http://www.w3.org/2000/svg"><path d="M9.648 5.832v6.469c0 3.166-1.846 4.895-4.684 4.895-2.977 0-4.707-1.706-4.87-4.804h2.309c.163 1.797.99 2.647 2.561 2.647 1.407 0 2.31-.873 2.31-2.738V9.917H3.14V7.966h4.133V5.832c0-1.887-.903-2.76-2.263-2.76-1.547 0-2.375.832-2.515 2.67H.186C.328 2.62 2.057.914 4.989.914c2.837 0 4.66 1.729 4.66 4.917zm10.382-2.47h-3.37v13.56h-2.374V3.363h-3.348V1.206h9.093v2.156zm7.134 10.399h-4.268l-.738 3.166h-2.445l4.062-15.716h2.515l4.062 15.716h-2.421l-.767-3.166zm-.486-2.115l-1.014-4.222a49.11 49.11 0 01-.599-3.366h-.07c-.117.833-.346 2.334-.598 3.366l-.991 4.222h3.272zm14.608-10.44v15.717h-2.332V3.34h-3.418c-.229 4.58-.439 8.174-.738 10.04-.416 2.851-1.776 3.77-4.016 3.77v-2.065c1.015 0 1.524-.605 1.777-2.224.252-1.638.463-5.163.738-11.655h7.99zm2.768 10.736v-5.75c0-3.28 1.846-5.277 4.936-5.277 3.095 0 4.937 1.997 4.937 5.277v5.75c0 3.28-1.847 5.276-4.937 5.276-3.09 0-4.936-2.001-4.936-5.276zm7.48 0v-5.75c0-1.974-.88-3.053-2.54-3.053-1.682 0-2.538 1.079-2.538 3.053v5.75c0 1.974.856 3.052 2.539 3.052 1.66 0 2.538-1.078 2.538-3.052zM65.931 1.206v15.717h-2.333V10.03h-4.567v6.892H56.7V1.206h2.332v6.692h4.567V1.206h2.333zm17.422 5.077c0 3.302-1.8 5.117-4.96 5.117h-1.94v5.523h-2.332V1.206h4.268c3.165 0 4.964 1.865 4.964 5.077zm-2.374 0c0-1.933-.856-2.92-2.609-2.92h-1.916v5.881h1.916c1.753 0 2.609-.941 2.609-2.961zm12.504 8.511v2.133H85.34V1.207h7.914V3.34h-5.586v4.558h5.147v2.088h-5.147v4.803h5.815v.005zm2.034-2.494V5.833c0-3.188 1.823-4.917 4.66-4.917 2.931 0 4.661 1.706 4.801 4.826h-2.309c-.14-1.842-.968-2.67-2.515-2.67-1.36 0-2.262.874-2.262 2.761v6.469c0 1.865.897 2.738 2.309 2.738 1.571 0 2.398-.855 2.562-2.647h2.309c-.164 3.098-1.898 4.804-4.871 4.804-2.842 0-4.684-1.729-4.684-4.895zm20.19-11.094l-3.922 12.419c-.832 2.606-1.964 3.525-4.409 3.525h-.575v-2.042h.646c1.248 0 1.776-.628 2.262-2.202l.182-.582-4.062-11.113h2.468l2.632 7.656 2.333-7.656h2.445v-.005zm10.868 5.077c0 3.302-1.8 5.117-4.96 5.117h-1.94v5.523h-2.332V1.206h4.268c3.164 0 4.964 1.865 4.964 5.077zm-2.375 0c0-1.933-.855-2.92-2.608-2.92h-1.917v5.881h1.917c1.753 0 2.608-.941 2.608-2.961zm4.245 6.017V5.833c0-3.188 1.823-4.917 4.661-4.917 2.931 0 4.66 1.706 4.801 4.826h-2.31c-.14-1.842-.967-2.67-2.515-2.67-1.36 0-2.262.874-2.262 2.761v6.469c0 1.865.897 2.738 2.309 2.738 1.571 0 2.398-.855 2.562-2.647H138c-.164 3.098-1.893 4.804-4.871 4.804-2.837 0-4.684-1.729-4.684-4.895z" fill="#444443"/></svg>