<svg width="200" height="48" fill="none" xmlns="http://www.w3.org/2000/svg"><g clip-path="url(#clip0)"><path d="M62.005 30.387v-1.894c0-1.483.858-2.295 2.189-2.295 1.33 0 2.174.812 2.174 2.295v1.894c0 1.483-.844 2.294-2.174 2.294-1.33-.005-2.19-.816-2.19-2.294zm3.41 0v-1.894c0-.966-.457-1.386-1.221-1.386-.765 0-1.221.425-1.221 1.386v1.894c0 .966.456 1.4 1.22 1.4.765 0 1.222-.439 1.222-1.4zm6.29 2.149h-.953v-5.323h-2.09v5.328h-.943v-6.183h3.986v6.178zm4.845-5.324h-1.509v5.329h-.943v-5.328h-1.51v-.86h3.963v.86zm.482 3.175v-1.894c0-1.483.859-2.295 2.19-2.295 1.33 0 2.174.812 2.174 2.295v1.894c0 1.483-.844 2.294-2.175 2.294-1.33-.005-2.189-.816-2.189-2.294zm3.406 0v-1.894c0-.966-.457-1.386-1.222-1.386-.764 0-1.22.425-1.22 1.386v1.894c0 .966.456 1.4 1.22 1.4.765 0 1.222-.439 1.222-1.4zm6.379.362c0 1.116-.725 1.787-2.14 1.787h-1.93v-6.184h1.786c1.266 0 1.971.648 1.971 1.682 0 .444-.253.918-.715 1.222.69.246 1.028.87 1.028 1.493zm-3.152-1.812h.834c.7 0 1.062-.328 1.062-.884 0-.565-.363-.894-1.062-.894h-.834v1.778zm2.209 1.788c0-.624-.387-.976-1.182-.976h-1.027v1.961h1.027c.795.005 1.182-.338 1.182-.985zm5.982-2.387v4.198h-.784l-.075-.589c-.278.425-.735.74-1.45.74-1.161 0-1.98-.73-1.98-1.919 0-1.222.859-1.879 2.249-1.879h1.087v-.541c0-.812-.353-1.256-1.078-1.256-.615 0-1.062.329-1.112.952h-.953c.05-1.13.86-1.846 2.09-1.846 1.281 0 2.006.802 2.006 2.14zm-.953 1.377h-1.097c-.824 0-1.271.377-1.271 1.068 0 .681.471 1.048 1.196 1.048s1.172-.444 1.172-1.092v-1.024zm5.967-3.363v6.184h-.918v-2.174h-.834l-1.291 2.174H92.73l1.45-2.27c-.725-.213-1.232-.904-1.232-1.928 0-1.213.834-1.986 2.08-1.986h1.842zm-.918.86h-.909c-.735 0-1.161.426-1.161 1.155 0 .763.372 1.188 1.112 1.188h.953v-2.343h.005zm8.38 0h-1.509v5.329h-.944v-5.328h-1.509v-.86h3.962v.86zm.481 3.175v-1.894c0-1.483.859-2.295 2.19-2.295 1.33 0 2.174.812 2.174 2.295v1.894c0 1.483-.844 2.294-2.174 2.294-1.331 0-2.19-.816-2.19-2.294zm3.411 0v-1.894c0-.966-.457-1.386-1.221-1.386-.765 0-1.222.425-1.222 1.386v1.894c0 .966.457 1.4 1.222 1.4.764 0 1.221-.439 1.221-1.4zm6.583-1.787v1.729c0 1.517-.775 2.352-2.006 2.352a1.807 1.807 0 01-1.34-.59v2.566h-.929v-8.319h.715l.095.575c.312-.41.868-.705 1.459-.705 1.182.005 2.006.85 2.006 2.391zm-.968 0c0-1.069-.447-1.527-1.207-1.527-.665 0-1.171.492-1.171 1.507v1.753c0 .894.447 1.484 1.171 1.484.8 0 1.207-.445 1.207-1.484V28.6zm5.545-1.368H117.1v5.304h-.953v-6.198h3.237v.894zm.521 3.155v-1.894c0-1.483.859-2.295 2.19-2.295 1.33 0 2.174.812 2.174 2.295v1.894c0 1.483-.844 2.294-2.174 2.294-1.331 0-2.19-.816-2.19-2.294zm3.406 0v-1.894c0-.966-.457-1.386-1.221-1.386-.765 0-1.221.425-1.221 1.386v1.894c0 .966.456 1.4 1.221 1.4.764 0 1.221-.439 1.221-1.4zm6.379.362c0 1.116-.724 1.787-2.139 1.787h-1.931v-6.184h1.787c1.266 0 1.971.648 1.971 1.682 0 .444-.254.918-.715 1.222.685.246 1.027.87 1.027 1.493zm-3.157-1.812h.834c.7 0 1.062-.328 1.062-.884 0-.565-.362-.894-1.062-.894h-.834v1.778zm2.214 1.788c0-.624-.387-.976-1.181-.976h-1.028v1.961h1.028c.794.005 1.181-.338 1.181-.985zm1.385.99c.69 0 .819-.836.909-1.942a58.65 58.65 0 00.159-3.42h3.49v6.183h-.944v-5.324h-1.633a59.91 59.91 0 01-.144 2.715c-.134 1.788-.64 2.682-1.837 2.682v-.894zm9.572-5.363v6.184h-.919v-2.174h-.834l-1.291 2.174h-1.097l1.45-2.27c-.725-.213-1.231-.904-1.231-1.928 0-1.213.834-1.986 2.08-1.986h1.842zm-.919.86h-.908c-.735 0-1.162.426-1.162 1.155 0 .763.372 1.188 1.112 1.188h.953v-2.343h.005zm4.875 3.208v-1.985c0-1.42.824-2.232 2.105-2.232 1.316 0 2.1.812 2.15 2.232h-.968c-.025-.904-.447-1.338-1.182-1.338-.715 0-1.137.434-1.137 1.338v1.985c0 .918.422 1.338 1.137 1.338.75 0 1.172-.425 1.207-1.338h.953c-.035 1.435-.859 2.247-2.165 2.247-1.275 0-2.1-.812-2.1-2.247zm8.763-3.208h-1.509v5.329h-.944v-5.328h-1.509v-.86h3.962v.86zm5.158 1.388v1.729c0 1.517-.775 2.352-2.006 2.352a1.807 1.807 0 01-1.34-.59v2.566h-.929v-8.319h.715l.095.575c.312-.41.868-.705 1.459-.705 1.182.005 2.006.85 2.006 2.391zm-.968 0c0-1.069-.447-1.527-1.207-1.527-.665 0-1.171.492-1.171 1.507v1.753c0 .894.447 1.484 1.171 1.484.8 0 1.207-.445 1.207-1.484V28.6zm2.149 1.787v-1.894c0-1.483.859-2.295 2.19-2.295 1.33 0 2.174.812 2.174 2.295v1.894c0 1.483-.844 2.294-2.174 2.294-1.331 0-2.19-.816-2.19-2.294zm3.406 0v-1.894c0-.966-.457-1.386-1.221-1.386-.765 0-1.222.425-1.222 1.386v1.894c0 .966.457 1.4 1.222 1.4.764 0 1.221-.439 1.221-1.4zm2.309-4.035h.928v3.058c0 .47 0 .986-.025 1.551l.025.024c.109-.28.387-.966.556-1.338l1.618-3.29h.968v6.184h-.918v-2.845c0-.614.01-1.257.05-1.822l-.025-.01a14.902 14.902 0 01-.616 1.517l-1.593 3.155h-.968v-6.184zm8.916.86h-1.509v5.329h-.944v-5.328h-1.509v-.86h3.962v.86zm4.855 3.406c-.094 1.305-.908 2.044-2.259 2.044-1.291 0-2.115-.822-2.115-2.27v-1.943c0-1.435.834-2.256 2.125-2.256 1.316 0 2.165.821 2.165 2.256v1.377h-3.322v.565c0 .942.437 1.363 1.172 1.363.809 0 1.187-.353 1.291-1.14h.943v.004zm-3.406-2.174v.623h2.378v-.623c0-.927-.446-1.362-1.206-1.362-.74 0-1.172.435-1.172 1.362zm3.937 3.271c.69 0 .819-.836.909-1.942a58.65 58.65 0 00.159-3.42h3.49v6.183h-.944v-5.324h-1.633a59.91 59.91 0 01-.144 2.715c-.134 1.788-.64 2.682-1.837 2.682v-.894zm10.172-1.222c0 1.212-.918 2.043-2.09 2.043h-2.03v-6.184h.943v2.131h1.087c1.172-.005 2.09.821 2.09 2.01zm-.968 0c0-.706-.496-1.155-1.186-1.155h-1.028v2.338h1.028c.69 0 1.186-.454 1.186-1.183zm5.858-4.141v6.184h-.953v-2.754h-2.09v2.754h-.943v-6.184h.943v2.566h2.09v-2.566h.953zm1.341 4.035v-1.894c0-1.483.859-2.295 2.189-2.295 1.331 0 2.175.812 2.175 2.295v1.894c0 1.483-.844 2.294-2.175 2.294-1.33 0-2.189-.816-2.189-2.294zm3.406 0v-1.894c0-.966-.457-1.386-1.222-1.386-.764 0-1.221.425-1.221 1.386v1.894c0 .966.457 1.4 1.221 1.4.765 0 1.222-.439 1.222-1.4zM62.005 41.488v-1.894c0-1.483.858-2.294 2.189-2.294 1.33 0 2.174.811 2.174 2.294v1.894c0 1.483-.844 2.295-2.174 2.295-1.33-.005-2.19-.816-2.19-2.295zm3.41 0v-1.894c0-.966-.457-1.386-1.221-1.386-.765 0-1.221.425-1.221 1.386v1.894c0 .966.456 1.401 1.22 1.401.765 0 1.222-.44 1.222-1.4zm6.29 2.15h-.953v-5.324h-2.09v5.329h-.943v-6.184h3.986v6.179zm5.451-4.198v4.198h-.784l-.075-.59c-.278.426-.734.74-1.45.74-1.161 0-1.98-.73-1.98-1.918 0-1.222.859-1.88 2.249-1.88h1.087v-.54c0-.812-.353-1.257-1.077-1.257-.616 0-1.063.329-1.112.952h-.954c.05-1.13.86-1.845 2.09-1.845 1.281 0 2.006.802 2.006 2.14zm-.958 1.377h-1.097c-.824 0-1.271.377-1.271 1.067 0 .681.472 1.049 1.196 1.049.725 0 1.172-.445 1.172-1.092v-1.024zm1.742 1.999c.69 0 .825-.835.91-1.942.083-1.01.133-2.246.158-3.42h3.49v6.184h-.943v-5.324H79.92a60.2 60.2 0 01-.144 2.715c-.134 1.787-.64 2.681-1.836 2.681v-.894zm10.088-5.362l-2.08 6.797c-.288.976-.7 1.623-1.618 1.623h-.521v-.893h.362c.521 0 .69-.377.844-.884l.338-1.092-2.04-5.55h1.002l1.45 4.197 1.28-4.198h.983zm5.009 2.623v1.401c0 1.469-.844 2.295-2.164 2.295-1.306 0-2.14-.821-2.14-2.295v-3.362c0-1.657 1.197-2.222 2.066-2.483.565-.164.858-.26 1.146-.74l.725.542c-.328.633-.884.884-1.51 1.048-.664.174-1.483.425-1.483 1.6v.386c.327-.41.799-.633 1.414-.633 1.152-.005 1.947.807 1.947 2.241zm-.963.092c0-1.01-.446-1.444-1.161-1.444-.63 0-1.207.352-1.207 1.386v1.363c0 .951.437 1.386 1.172 1.386.75 0 1.196-.435 1.196-1.386v-1.305zm3.709.671l-.457.508v2.295h-.943v-6.184h.943v2.73c.288-.387.566-.778.844-1.14l1.221-1.59h1.172l-2.165 2.657 2.463 3.527h-1.122l-1.956-2.802zm3.391.648v-1.894c0-1.483.859-2.294 2.189-2.294s2.174.811 2.174 2.294v1.894c0 1.483-.844 2.295-2.174 2.295s-2.19-.816-2.19-2.295zm3.41 0v-1.894c0-.966-.456-1.386-1.221-1.386-.765 0-1.221.425-1.221 1.386v1.894c0 .966.456 1.401 1.221 1.401.765 0 1.221-.44 1.221-1.4zm2.304-4.034h.928v3.058c0 .469 0 .986-.025 1.551l.025.024c.109-.28.387-.966.556-1.338l1.619-3.29h.968v6.184h-.919v-2.846c0-.613.01-1.256.05-1.821l-.025-.01c-.084.27-.387 1.049-.616 1.517l-1.593 3.165h-.968v-6.194zm.64-2.352h.725c.035.459.253.695.675.695.437 0 .651-.236.675-.695h.735c-.035.884-.566 1.386-1.4 1.386-.844 0-1.375-.502-1.41-1.386zm7.611 2.352h.928v3.058c0 .469 0 .986-.025 1.55l.025.025c.109-.28.387-.966.556-1.338l1.619-3.29h.968v6.183h-.919v-2.845c0-.613.01-1.256.05-1.821l-.025-.01c-.084.27-.387 1.048-.616 1.517l-1.593 3.164h-.968v-6.193zm8.092 4.034v-1.894c0-1.483.859-2.294 2.189-2.294 1.331 0 2.175.811 2.175 2.294v1.894c0 1.483-.844 2.295-2.175 2.295-1.33 0-2.189-.816-2.189-2.295zm3.411 0v-1.894c0-.966-.457-1.386-1.222-1.386-.764 0-1.221.425-1.221 1.386v1.894c0 .966.457 1.401 1.221 1.401.765 0 1.222-.44 1.222-1.4zm6.602-1.411v1.401c0 1.469-.844 2.295-2.164 2.295-1.306 0-2.14-.821-2.14-2.295v-3.362c0-1.657 1.197-2.222 2.065-2.483.566-.164.859-.26 1.147-.74l.725.542c-.328.633-.884.884-1.509 1.048-.665.174-1.485.425-1.485 1.6v.386c.328-.41.8-.633 1.415-.633 1.152-.005 1.946.807 1.946 2.241zm-.963.092c0-1.01-.447-1.444-1.161-1.444-.631 0-1.207.352-1.207 1.386v1.363c0 .951.437 1.386 1.172 1.386.749 0 1.196-.435 1.196-1.386v-1.305zm2.15 1.319v-1.894c0-1.483.859-2.294 2.189-2.294 1.331 0 2.175.811 2.175 2.294v1.894c0 1.483-.844 2.295-2.175 2.295-1.33 0-2.189-.816-2.189-2.295zm3.405 0v-1.894c0-.966-.456-1.386-1.221-1.386-.764 0-1.221.425-1.221 1.386v1.894c0 .966.457 1.401 1.221 1.401.765 0 1.221-.44 1.221-1.4zm6.583-1.788v1.73c0 1.517-.774 2.353-2.005 2.353a1.81 1.81 0 01-1.341-.59v2.566h-.928v-8.315h.715l.094.575c.313-.41.869-.705 1.46-.705 1.186 0 2.005.845 2.005 2.386zm-.963 0c0-1.067-.447-1.526-1.206-1.526-.665 0-1.172.493-1.172 1.507v1.754c0 .893.447 1.483 1.172 1.483.799 0 1.206-.445 1.206-1.483V39.7zm6.072-2.246l-2.08 6.797c-.288.976-.7 1.623-1.619 1.623h-.521v-.893h.362c.522 0 .69-.377.844-.884l.338-1.092-2.04-5.55h1.002l1.45 4.197 1.281-4.198h.983zm-.095 5.329h.472c.353-.566.521-1.46.591-2.469.074-.966.109-1.903.119-2.855h3.505v5.328h.715v2.223h-.919v-1.363h-3.564v1.363h-.919v-2.227zm3.744 0v-4.469h-1.653c-.01.73-.035 1.444-.095 2.174-.084.986-.228 1.74-.457 2.295h2.205zm2.417-1.295v-1.894c0-1.483.859-2.294 2.19-2.294 1.33 0 2.174.811 2.174 2.294v1.894c0 1.483-.844 2.295-2.174 2.295-1.331 0-2.19-.816-2.19-2.295zm3.406 0v-1.894c0-.966-.457-1.386-1.221-1.386-.765 0-1.221.425-1.221 1.386v1.894c0 .966.456 1.401 1.221 1.401.764 0 1.221-.44 1.221-1.4zm6.379.362c0 1.116-.724 1.788-2.139 1.788h-1.932v-6.184h1.788c1.266 0 1.971.647 1.971 1.681 0 .445-.254.918-.715 1.223.69.246 1.027.87 1.027 1.492zm-3.152-1.811h.834c.7 0 1.062-.329 1.062-.884 0-.566-.362-.894-1.062-.894h-.834v1.778zm2.209 1.787c0-.623-.387-.976-1.181-.976h-1.028v1.962h1.028c.794.004 1.181-.339 1.181-.986zm5.977-2.386v4.198h-.784l-.074-.59c-.278.426-.735.74-1.45.74-1.162 0-1.981-.73-1.981-1.918 0-1.222.859-1.88 2.249-1.88h1.087v-.54c0-.812-.352-1.257-1.077-1.257-.616 0-1.062.329-1.112.952h-.953c.049-1.13.859-1.845 2.09-1.845 1.281 0 2.005.802 2.005 2.14zm-.953 1.377h-1.097c-.824 0-1.271.377-1.271 1.067 0 .681.472 1.049 1.197 1.049.724 0 1.171-.445 1.171-1.092v-1.024zm6.439-3.363v6.184h-.953v-2.754h-2.09v2.754h-.943v-6.184h.943v2.565h2.09v-2.565h.953zm1.499 0h.929v3.058c0 .469 0 .986-.025 1.55l.025.025c.109-.28.387-.966.556-1.338l1.618-3.29h.968v6.183h-.918v-2.845c0-.613.01-1.256.05-1.821l-.025-.01c-.085.27-.388 1.048-.616 1.517l-1.593 3.164h-.969v-6.193zm9.785 4.266c-.094 1.304-.908 2.043-2.258 2.043-1.291 0-2.115-.82-2.115-2.27V39.55c0-1.435.834-2.256 2.125-2.256 1.315 0 2.164.82 2.164 2.256v1.377h-3.321v.565c0 .942.437 1.362 1.171 1.362.81 0 1.187-.353 1.291-1.14h.943v.005zm-3.41-2.174v.623h2.378v-.623c0-.928-.447-1.362-1.207-1.362-.734 0-1.171.434-1.171 1.362zm9.765-2.092v6.184h-.894V40.72c0-.623.05-1.164.075-1.672l-.05-.024c-.184.517-.352 1.034-.546 1.493l-.69 1.541h-.909l-.69-1.541a25.634 25.634 0 01-.531-1.493l-.049.024c.01.508.059 1.049.059 1.672v2.918h-.893v-6.184h.968l1.122 2.517c.158.377.312.74.446 1.13h.035c.134-.386.288-.753.447-1.13l1.137-2.517h.963zM71.648 6.832v6.469c0 3.166-1.846 4.895-4.684 4.895-2.977 0-4.707-1.706-4.87-4.804h2.309c.163 1.797.99 2.647 2.561 2.647 1.407 0 2.31-.873 2.31-2.738v-2.384H65.14V8.966h4.133V6.832c0-1.887-.903-2.76-2.263-2.76-1.547 0-2.375.832-2.515 2.67h-2.31c.141-3.121 1.87-4.827 4.802-4.827 2.837 0 4.66 1.729 4.66 4.917zm10.382-2.47h-3.37v13.56h-2.374V4.363h-3.347V2.206h9.092v2.156zm7.134 10.399h-4.268l-.738 3.166h-2.445l4.062-15.716h2.515l4.062 15.716h-2.421l-.767-3.166zm-.486-2.115l-1.014-4.222a49.11 49.11 0 01-.599-3.366h-.07c-.117.833-.346 2.334-.598 3.366l-.991 4.222h3.272zm14.608-10.44v15.717h-2.332V4.34h-3.417c-.23 4.58-.44 8.174-.74 10.04-.415 2.851-1.775 3.77-4.015 3.77v-2.065c1.015 0 1.524-.605 1.777-2.224.252-1.638.463-5.163.738-11.655h7.989zm2.768 10.736v-5.75c0-3.28 1.846-5.277 4.936-5.277 3.095 0 4.937 1.997 4.937 5.277v5.75c0 3.28-1.847 5.276-4.937 5.276-3.09 0-4.936-2.001-4.936-5.276zm7.479 0v-5.75c0-1.974-.879-3.053-2.538-3.053-1.683 0-2.539 1.079-2.539 3.053v5.75c0 1.974.856 3.052 2.539 3.052 1.659 0 2.538-1.078 2.538-3.052zm14.398-10.736v15.717h-2.333V11.03h-4.567v6.892h-2.332V2.206h2.332v6.692h4.567V2.206h2.333zm17.422 5.077c0 3.302-1.799 5.117-4.959 5.117h-1.94v5.523h-2.333V2.206h4.268c3.165 0 4.964 1.865 4.964 5.077zm-2.374 0c0-1.933-.856-2.92-2.609-2.92h-1.916v5.881h1.916c1.753 0 2.609-.941 2.609-2.961zm12.504 8.511v2.133h-8.143V2.207h7.914V4.34h-5.586v4.558h5.147v2.088h-5.147v4.803h5.815v.005zm2.034-2.494V6.833c0-3.188 1.823-4.917 4.66-4.917 2.931 0 4.661 1.706 4.801 4.826h-2.309c-.14-1.842-.968-2.67-2.515-2.67-1.36 0-2.262.874-2.262 2.761v6.469c0 1.865.897 2.738 2.309 2.738 1.571 0 2.398-.855 2.562-2.647h2.309c-.164 3.098-1.898 4.804-4.871 4.804-2.842 0-4.684-1.729-4.684-4.895zm20.19-11.094l-3.922 12.419c-.832 2.606-1.964 3.525-4.409 3.525h-.575v-2.042h.646c1.248 0 1.776-.628 2.262-2.202l.182-.582-4.062-11.113h2.468l2.632 7.656 2.333-7.656h2.445v-.005zm10.868 5.077c0 3.302-1.8 5.117-4.96 5.117h-1.94v5.523h-2.332V2.206h4.268c3.164 0 4.964 1.865 4.964 5.077zm-2.375 0c0-1.933-.855-2.92-2.608-2.92h-1.917v5.881h1.917c1.753 0 2.608-.941 2.608-2.961zm4.245 6.017V6.833c0-3.188 1.823-4.917 4.661-4.917 2.931 0 4.66 1.706 4.801 4.826h-2.31c-.14-1.842-.967-2.67-2.515-2.67-1.36 0-2.262.874-2.262 2.761v6.469c0 1.865.897 2.738 2.309 2.738 1.571 0 2.398-.855 2.562-2.647H200c-.164 3.098-1.893 4.804-4.871 4.804-2.837 0-4.684-1.729-4.684-4.895z" fill="#444443"/><path d="M29.263 41.74c-.776 0-1.402-.609-1.402-1.364V27.912c0-2.911 2.43-5.277 5.422-5.277h8.77c1.445 0 2.618-1.142 2.618-2.547v-8.552c0-1.406-1.173-2.547-2.618-2.547H18.867c-.776 0-1.402-.61-1.402-1.365s.626-1.365 1.402-1.365h23.186c2.992 0 5.423 2.366 5.423 5.277v8.552c0 2.911-2.431 5.277-5.423 5.277h-8.77c-1.444 0-2.617 1.141-2.617 2.547v12.464c0 .755-.627 1.365-1.403 1.365z" fill="#E94B23"/><path d="M20.905 41.74H7.933c-.776 0-1.402-.609-1.402-1.364 0-.755.626-1.365 1.402-1.365h12.972c1.473 0 2.67-1.164 2.67-2.597V11.586c0-1.433-1.197-2.597-2.67-2.597H7.933c-.776 0-1.402-.61-1.402-1.365s.626-1.365 1.402-1.365h12.972c3.02 0 5.474 2.388 5.474 5.327v24.823c0 2.939-2.454 5.332-5.474 5.332z" fill="#444443"/><path d="M24.977 25.365H14.473c-.776 0-1.403-.61-1.403-1.365s.627-1.365 1.403-1.365h10.504c.776 0 1.402.61 1.402 1.365s-.626 1.365-1.402 1.365z" fill="#444443"/><path d="M47.625 48H6.185C2.772 48 0 45.298 0 41.982V6.018C0 2.698 2.772 0 6.185 0H47.63c3.408 0 6.184 2.697 6.184 6.018v35.964C53.81 45.298 51.038 48 47.626 48zM6.185 2.73c-1.866 0-3.38 1.473-3.38 3.288v35.964c0 1.815 1.514 3.289 3.38 3.289H47.63c1.865 0 3.38-1.474 3.38-3.29V6.019c0-1.815-1.515-3.289-3.38-3.289H6.185z" fill="#444443"/></g><defs><clipPath id="clip0"><path fill="#fff" d="M0 0h200v48H0z"/></clipPath></defs></svg>