<svg width="226" height="56" fill="none" xmlns="http://www.w3.org/2000/svg"><path d="M70.065 36.82v-2.08c0-1.63.914-2.52 2.33-2.52 1.415 0 2.313.89 2.313 2.52v2.08c0 1.63-.898 2.521-2.313 2.521-1.416-.005-2.33-.897-2.33-2.52zm3.629 0v-2.08c0-1.061-.486-1.523-1.3-1.523-.813 0-1.299.467-1.299 1.523v2.08c0 1.062.486 1.54 1.3 1.54.813 0 1.299-.483 1.299-1.54zm6.693 2.362h-1.014v-5.849h-2.224v5.854h-1.004v-6.793h4.242v6.788zm5.155-5.849h-1.606v5.854h-1.003v-5.854h-1.606v-.944h4.215v.944zm.513 3.487v-2.08c0-1.63.914-2.52 2.33-2.52 1.415 0 2.313.89 2.313 2.52v2.08c0 1.63-.898 2.521-2.314 2.521-1.415-.005-2.33-.897-2.33-2.52zm3.623 0v-2.08c0-1.061-.486-1.523-1.299-1.523-.814 0-1.3.467-1.3 1.523v2.08c0 1.062.487 1.54 1.3 1.54.813 0 1.3-.483 1.3-1.54zm6.788.398c0 1.226-.771 1.964-2.276 1.964h-2.055v-6.793h1.901c1.347 0 2.097.71 2.097 1.846 0 .489-.269 1.009-.76 1.343.734.27 1.093.955 1.093 1.64zm-3.354-1.99h.887c.745 0 1.13-.36 1.13-.971 0-.621-.385-.982-1.13-.982h-.887v1.953zm2.35 1.964c0-.685-.411-1.072-1.257-1.072h-1.093v2.154h1.093c.846.005 1.258-.371 1.258-1.082zm6.366-2.622v4.612h-.835l-.079-.647c-.296.467-.782.812-1.542.812-1.237 0-2.108-.802-2.108-2.107 0-1.343.914-2.065 2.393-2.065h1.157v-.594c0-.892-.375-1.38-1.147-1.38-.655 0-1.13.36-1.183 1.045H97.47c.053-1.241.914-2.027 2.224-2.027 1.363 0 2.134.881 2.134 2.351zm-1.014 1.513h-1.168c-.877 0-1.352.414-1.352 1.173 0 .748.502 1.151 1.273 1.151.771 0 1.247-.488 1.247-1.2v-1.124zm6.349-3.694v6.793h-.977v-2.389h-.888l-1.373 2.389h-1.167l1.542-2.495c-.771-.233-1.31-.992-1.31-2.117 0-1.332.887-2.181 2.213-2.181h1.96zm-.977.944h-.967c-.782 0-1.236.467-1.236 1.269 0 .838.396 1.305 1.183 1.305h1.014v-2.574h.006zm8.916 0h-1.605v5.854h-1.004v-5.854h-1.606v-.944h4.215v.944zm.513 3.487v-2.08c0-1.63.914-2.52 2.329-2.52 1.416 0 2.314.89 2.314 2.52v2.08c0 1.63-.898 2.521-2.314 2.521-1.415 0-2.329-.897-2.329-2.52zm3.629 0v-2.08c0-1.061-.486-1.523-1.3-1.523-.813 0-1.299.467-1.299 1.523v2.08c0 1.062.486 1.54 1.299 1.54.814 0 1.3-.483 1.3-1.54zm7.004-1.964v1.9c0 1.667-.824 2.585-2.134 2.585a1.896 1.896 0 01-1.426-.648v2.819h-.988v-9.14h.761l.1.632a1.973 1.973 0 011.553-.774c1.257.005 2.134.934 2.134 2.627zm-1.03 0c0-1.172-.475-1.677-1.284-1.677-.707 0-1.246.542-1.246 1.656v1.927c0 .981.475 1.629 1.246 1.629.851 0 1.284-.488 1.284-1.63v-1.905zm5.9-1.501h-2.429v5.827h-1.015v-6.809h3.444v.982zm.555 3.465v-2.08c0-1.63.914-2.52 2.33-2.52 1.415 0 2.313.89 2.313 2.52v2.08c0 1.63-.898 2.521-2.313 2.521-1.416 0-2.33-.897-2.33-2.52zm3.624 0v-2.08c0-1.061-.486-1.523-1.3-1.523-.813 0-1.299.467-1.299 1.523v2.08c0 1.062.486 1.54 1.299 1.54.814 0 1.3-.483 1.3-1.54zm6.788.398c0 1.226-.772 1.964-2.277 1.964h-2.055v-6.793h1.902c1.347 0 2.097.71 2.097 1.846 0 .489-.27 1.009-.761 1.343.729.27 1.094.955 1.094 1.64zm-3.36-1.99h.887c.745 0 1.131-.36 1.131-.971 0-.621-.386-.982-1.131-.982h-.887v1.953zm2.356 1.964c0-.685-.412-1.072-1.257-1.072h-1.094v2.154h1.094c.845.005 1.257-.371 1.257-1.082zm1.474 1.088c.734 0 .871-.919.966-2.134.09-1.11.143-2.468.169-3.757h3.714v6.793H146.4v-5.849h-1.738a66.788 66.788 0 01-.153 2.983c-.142 1.963-.681 2.945-1.954 2.945v-.982zm10.184-5.891v6.793h-.977v-2.389h-.888l-1.373 2.389h-1.167l1.542-2.495c-.771-.233-1.31-.992-1.31-2.117 0-1.332.887-2.181 2.213-2.181h1.96zm-.977.944h-.967c-.782 0-1.236.467-1.236 1.269 0 .838.396 1.305 1.183 1.305h1.015v-2.574h.005zm5.187 3.524v-2.181c0-1.56.877-2.452 2.24-2.452 1.4 0 2.234.892 2.287 2.452h-1.03c-.026-.992-.475-1.47-1.257-1.47-.761 0-1.21.478-1.21 1.47v2.181c0 1.008.449 1.47 1.21 1.47.798 0 1.247-.467 1.283-1.47h1.015c-.037 1.576-.914 2.468-2.303 2.468-1.358 0-2.235-.892-2.235-2.468zm9.323-3.524h-1.605v5.854h-1.004v-5.854h-1.606v-.944h4.215v.944zm5.489 1.523v1.9c0 1.667-.824 2.585-2.134 2.585a1.896 1.896 0 01-1.426-.648v2.819h-.988v-9.14h.76l.101.632a1.973 1.973 0 011.553-.774c1.257.005 2.134.934 2.134 2.627zm-1.03 0c0-1.172-.476-1.677-1.284-1.677-.708 0-1.246.542-1.246 1.656v1.927c0 .981.475 1.629 1.246 1.629.851 0 1.284-.488 1.284-1.63v-1.905zm2.287 1.964v-2.08c0-1.63.914-2.52 2.33-2.52 1.415 0 2.313.89 2.313 2.52v2.08c0 1.63-.898 2.521-2.313 2.521-1.416 0-2.33-.897-2.33-2.52zm3.624 0v-2.08c0-1.061-.486-1.523-1.3-1.523-.813 0-1.299.467-1.299 1.523v2.08c0 1.062.486 1.54 1.299 1.54.814 0 1.3-.483 1.3-1.54zm2.456-4.431h.988v3.359c0 .515 0 1.083-.027 1.704l.027.026a40.15 40.15 0 01.591-1.47l1.722-3.614h1.031v6.793h-.978v-3.126c0-.674.011-1.38.053-2l-.026-.011c-.09.297-.412 1.151-.655 1.666l-1.696 3.466h-1.03v-6.793zm9.487.944h-1.606v5.854h-1.003v-5.854h-1.606v-.944h4.215v.944zm5.166 3.742c-.1 1.432-.966 2.244-2.403 2.244-1.374 0-2.25-.902-2.25-2.494v-2.133c0-1.576.887-2.479 2.26-2.479 1.4 0 2.303.903 2.303 2.479v1.512h-3.533v.621c0 1.035.464 1.497 1.246 1.497.861 0 1.263-.388 1.374-1.253h1.003v.006zm-3.623-2.389v.685h2.53v-.684c0-1.02-.476-1.497-1.284-1.497-.787 0-1.246.477-1.246 1.497zm4.188 3.594c.735 0 .872-.919.967-2.134.09-1.11.143-2.468.169-3.757h3.714v6.793h-1.004v-5.849h-1.738c-.026.903-.09 2.208-.153 2.983-.143 1.963-.681 2.945-1.955 2.945v-.982zm10.824-1.343c0 1.332-.977 2.245-2.224 2.245h-2.16v-6.793h1.003v2.34h1.157c1.247-.005 2.224.902 2.224 2.208zm-1.03 0c0-.775-.528-1.269-1.263-1.269h-1.093v2.569h1.093c.735 0 1.263-.499 1.263-1.3zm6.233-4.548v6.793h-1.014v-3.025h-2.224v3.025h-1.004v-6.793h1.004v2.818h2.224v-2.818h1.014zm1.426 4.431v-2.08c0-1.63.914-2.52 2.33-2.52s2.314.89 2.314 2.52v2.08c0 1.63-.898 2.521-2.314 2.521s-2.33-.897-2.33-2.52zm3.624 0v-2.08c0-1.061-.486-1.523-1.299-1.523-.814 0-1.3.467-1.3 1.523v2.08c0 1.062.486 1.54 1.3 1.54.813 0 1.299-.483 1.299-1.54zm2.456-4.431h.988v3.36c0 .514 0 1.082-.026 1.703l.026.026c.116-.308.412-1.061.592-1.47l1.722-3.614h1.03v6.793h-.977v-3.126c0-.674.01-1.38.052-2l-.026-.011c-.09.297-.412 1.152-.655 1.666l-1.696 3.476h-1.03V32.39zm.682-2.585h.771c.037.504.269.764.718.764.465 0 .692-.26.719-.764h.782c-.037.971-.603 1.523-1.49 1.523-.898 0-1.463-.552-1.5-1.523zM70.065 49.016v-2.08c0-1.63.914-2.521 2.33-2.521 1.415 0 2.313.891 2.313 2.52v2.08c0 1.63-.898 2.522-2.313 2.522-1.416-.006-2.33-.897-2.33-2.521zm3.629 0v-2.08c0-1.062-.486-1.524-1.3-1.524-.813 0-1.299.467-1.299 1.523v2.08c0 1.062.486 1.54 1.3 1.54.813 0 1.299-.483 1.299-1.54zm6.693 2.362h-1.014v-5.849h-2.224v5.854h-1.004V44.59h4.242v6.788zm5.8-4.612v4.611h-.835l-.079-.647c-.296.467-.782.812-1.542.812-1.237 0-2.108-.801-2.108-2.107 0-1.343.914-2.064 2.393-2.064h1.157v-.595c0-.891-.375-1.38-1.147-1.38-.655 0-1.13.361-1.183 1.046H81.83c.053-1.242.914-2.027 2.224-2.027 1.363 0 2.134.88 2.134 2.35zm-1.02 1.512H84c-.877 0-1.352.414-1.352 1.173 0 .748.502 1.152 1.273 1.152.77 0 1.246-.489 1.246-1.2v-1.125zm1.854 2.197c.735 0 .877-.918.967-2.133.09-1.11.143-2.468.17-3.758h3.713v6.793h-1.004V45.53h-1.738a68.31 68.31 0 01-.153 2.983c-.143 1.963-.681 2.945-1.955 2.945v-.982zm10.734-5.891l-2.213 7.467c-.306 1.072-.745 1.784-1.722 1.784h-.555v-.982h.386c.554 0 .734-.414.898-.971l.359-1.2-2.171-6.098h1.067l1.542 4.612 1.363-4.611h1.046zm5.33 2.882v1.539c0 1.613-.898 2.52-2.303 2.52-1.39 0-2.277-.901-2.277-2.52v-3.694c0-1.82 1.273-2.441 2.198-2.727.602-.181.914-.287 1.22-.813l.771.595c-.348.695-.94.971-1.606 1.151-.708.192-1.58.467-1.58 1.757v.425c.35-.451.851-.695 1.506-.695 1.226-.006 2.071.886 2.071 2.462zm-1.025.1c0-1.108-.475-1.586-1.236-1.586-.671 0-1.283.387-1.283 1.523V49c0 1.045.464 1.523 1.246 1.523.798 0 1.273-.478 1.273-1.523v-1.433zm3.946.739l-.486.557v2.52h-1.003V44.59h1.003v2.998c.307-.424.602-.854.898-1.252l1.3-1.746h1.246l-2.303 2.919 2.62 3.874h-1.194l-2.081-3.078zm3.608.711v-2.08c0-1.63.914-2.521 2.33-2.521 1.415 0 2.313.891 2.313 2.52v2.08c0 1.63-.898 2.522-2.313 2.522-1.416 0-2.33-.897-2.33-2.521zm3.629 0v-2.08c0-1.062-.486-1.524-1.299-1.524-.814 0-1.3.467-1.3 1.523v2.08c0 1.062.486 1.54 1.3 1.54.813 0 1.299-.483 1.299-1.54zm2.451-4.432h.988v3.36c0 .515 0 1.082-.027 1.703l.027.027a40.15 40.15 0 01.591-1.47l1.722-3.614h1.03v6.793h-.977v-3.126c0-.674.011-1.38.053-2l-.026-.011c-.09.297-.412 1.151-.655 1.666l-1.696 3.476h-1.03v-6.803zm.681-2.584h.772c.037.504.269.764.718.764.465 0 .692-.26.718-.764h.782c-.037.971-.602 1.523-1.489 1.523-.898 0-1.464-.552-1.501-1.523zm8.098 2.584h.988v3.36c0 .515 0 1.082-.026 1.703l.026.027c.116-.308.412-1.062.592-1.47l1.722-3.614h1.03v6.793h-.977v-3.126c0-.674.01-1.38.052-2l-.026-.011c-.09.297-.412 1.151-.655 1.666l-1.696 3.476h-1.03v-6.803zm8.61 4.432v-2.08c0-1.63.914-2.521 2.33-2.521s2.314.891 2.314 2.52v2.08c0 1.63-.898 2.522-2.314 2.522s-2.33-.897-2.33-2.521zm3.629 0v-2.08c0-1.062-.486-1.524-1.299-1.524s-1.299.467-1.299 1.523v2.08c0 1.062.486 1.54 1.299 1.54s1.299-.483 1.299-1.54zm7.026-1.55v1.539c0 1.613-.898 2.52-2.303 2.52-1.389 0-2.277-.901-2.277-2.52v-3.694c0-1.82 1.273-2.441 2.198-2.727.602-.181.913-.287 1.22-.813l.771.595c-.349.695-.94.971-1.606 1.151-.708.192-1.579.467-1.579 1.757v.425c.348-.451.85-.695 1.505-.695 1.226-.006 2.071.886 2.071 2.462zm-1.025.1c0-1.108-.475-1.586-1.236-1.586-.671 0-1.283.387-1.283 1.523V49c0 1.045.464 1.523 1.246 1.523.798 0 1.273-.478 1.273-1.523v-1.433zm2.287 1.45v-2.08c0-1.63.914-2.521 2.33-2.521s2.314.891 2.314 2.52v2.08c0 1.63-.898 2.522-2.314 2.522S145 50.64 145 49.016zm3.624 0v-2.08c0-1.062-.486-1.524-1.299-1.524-.814 0-1.3.467-1.3 1.523v2.08c0 1.062.486 1.54 1.3 1.54.813 0 1.299-.483 1.299-1.54zm7.005-1.964v1.9c0 1.666-.825 2.584-2.135 2.584a1.898 1.898 0 01-1.426-.647v2.818h-.988v-9.133h.761l.1.631a1.975 1.975 0 011.553-.775c1.263 0 2.135.929 2.135 2.622zm-1.025 0c0-1.173-.476-1.677-1.284-1.677-.708 0-1.246.541-1.246 1.656v1.926c0 .982.475 1.63 1.246 1.63.851 0 1.284-.489 1.284-1.63v-1.905zm6.46-2.468l-2.213 7.467c-.307 1.072-.745 1.784-1.722 1.784h-.555v-.982h.386c.554 0 .734-.414.898-.971l.359-1.2-2.171-6.098h1.067l1.542 4.612 1.363-4.611h1.046zm-.1 5.854h.502c.375-.62.554-1.602.628-2.712.079-1.061.116-2.09.127-3.136h3.729v5.853h.761v2.442h-.977v-1.497h-3.793v1.497h-.977v-2.447zm3.983 0V45.53h-1.759a35.977 35.977 0 01-.101 2.388c-.09 1.083-.243 1.91-.486 2.521h2.346zm2.572-1.422v-2.08c0-1.63.914-2.521 2.33-2.521 1.415 0 2.313.891 2.313 2.52v2.08c0 1.63-.898 2.522-2.313 2.522-1.416 0-2.33-.897-2.33-2.521zm3.624 0v-2.08c0-1.062-.486-1.524-1.3-1.524-.813 0-1.299.467-1.299 1.523v2.08c0 1.062.486 1.54 1.299 1.54.814 0 1.3-.483 1.3-1.54zm6.788.398c0 1.226-.772 1.963-2.277 1.963h-2.055v-6.793h1.902c1.347 0 2.097.712 2.097 1.847 0 .489-.27 1.009-.761 1.343.734.27 1.094.955 1.094 1.64zm-3.355-1.99h.888c.745 0 1.13-.361 1.13-.971 0-.621-.385-.982-1.13-.982h-.888v1.953zm2.351 1.963c0-.684-.412-1.072-1.257-1.072h-1.094v2.155h1.094c.845.005 1.257-.371 1.257-1.083zm6.36-2.621v4.611h-.835l-.079-.647c-.296.467-.782.812-1.542.812-1.236 0-2.108-.801-2.108-2.107 0-1.343.914-2.064 2.393-2.064h1.157v-.595c0-.891-.375-1.38-1.147-1.38-.655 0-1.13.361-1.183 1.046h-1.014c.053-1.242.914-2.027 2.224-2.027 1.363 0 2.134.88 2.134 2.35zm-1.014 1.512h-1.168c-.877 0-1.352.414-1.352 1.173 0 .748.502 1.152 1.273 1.152.771 0 1.247-.489 1.247-1.2v-1.125zm6.851-3.694v6.793h-1.014v-3.025h-2.224v3.026h-1.004v-6.794h1.004v2.819h2.224v-2.819h1.014zm1.595 0h.988v3.36c0 .515 0 1.082-.026 1.703l.026.027c.116-.308.412-1.062.592-1.47l1.722-3.614h1.03v6.793h-.978v-3.126c0-.674.011-1.38.053-2l-.026-.011c-.09.297-.412 1.151-.655 1.666l-1.696 3.476h-1.03v-6.803zm10.412 4.686c-.101 1.433-.967 2.245-2.404 2.245-1.373 0-2.25-.902-2.25-2.494v-2.133c0-1.577.887-2.479 2.261-2.479 1.4 0 2.303.902 2.303 2.479V48.4h-3.534v.621c0 1.035.465 1.497 1.247 1.497.861 0 1.262-.388 1.373-1.253h1.004v.005zm-3.629-2.388v.685h2.53v-.685c0-1.019-.475-1.496-1.284-1.496-.781 0-1.246.477-1.246 1.496zm10.39-2.298v6.793h-.951v-3.205c0-.685.053-1.279.08-1.836l-.053-.027c-.196.568-.375 1.136-.581 1.64l-.735 1.693h-.966l-.735-1.693a28.695 28.695 0 01-.565-1.64l-.053.027c.011.557.064 1.151.064 1.836v3.206h-.951v-6.794h1.03l1.194 2.765c.169.414.333.812.475 1.242h.037c.143-.424.307-.828.476-1.242l1.209-2.764h1.025zM80.963 7.971v7.547c0 3.694-2.087 5.71-5.293 5.71-3.365 0-5.32-1.99-5.505-5.604h2.61c.185 2.096 1.12 3.089 2.895 3.089 1.59 0 2.61-1.02 2.61-3.195v-2.781h-4.67V10.46h4.67V7.971c0-2.202-1.02-3.221-2.558-3.221-1.748 0-2.683.971-2.841 3.115h-2.61c.159-3.64 2.113-5.63 5.425-5.63 3.206 0 5.267 2.016 5.267 5.736zM92.695 5.09h-3.809v15.82h-2.683V5.09H82.42V2.573h10.274v2.515zm8.06 12.132h-4.822l-.835 3.694h-2.763l4.59-18.336h2.843l4.59 18.336h-2.736l-.867-3.694zm-.549-2.468L99.06 9.829a58.976 58.976 0 01-.676-3.927h-.08c-.132.971-.39 2.722-.676 3.927l-1.12 4.925h3.698zm16.507-12.18V20.91h-2.635V5.063h-3.862c-.259 5.344-.496 9.537-.834 11.712-.471 3.328-2.008 4.4-4.538 4.4v-2.41c1.146 0 1.722-.705 2.007-2.595.286-1.91.523-6.023.835-13.596h9.027zm3.128 12.525V8.39c0-3.827 2.086-6.157 5.578-6.157 3.497 0 5.578 2.33 5.578 6.157v6.708c0 3.826-2.087 6.156-5.578 6.156-3.492 0-5.578-2.335-5.578-6.156zm8.451 0V8.39c0-2.304-.993-3.561-2.868-3.561-1.902 0-2.868 1.257-2.868 3.56V15.1c0 2.303.966 3.56 2.868 3.56 1.875 0 2.868-1.257 2.868-3.56zm16.27-12.525V20.91h-2.636v-8.04h-5.161v8.04h-2.636V2.574h2.636v7.806h5.161V2.574h2.636zm19.687 5.922c0 3.853-2.033 5.97-5.604 5.97h-2.192v6.444h-2.636V2.574h4.822c3.577 0 5.61 2.176 5.61 5.922zm-2.683 0c0-2.255-.967-3.407-2.948-3.407h-2.165v6.862h2.165c1.981 0 2.948-1.098 2.948-3.455zm14.13 9.93v2.489h-9.202V2.574h8.943v2.489h-6.312v5.317h5.816v2.436h-5.816v5.605h6.571v.005zm2.298-2.908V7.97c0-3.72 2.06-5.737 5.266-5.737 3.313 0 5.267 1.99 5.425 5.631h-2.609c-.159-2.15-1.093-3.115-2.842-3.115-1.537 0-2.557 1.019-2.557 3.221v7.547c0 2.176 1.015 3.195 2.61 3.195 1.775 0 2.71-.998 2.895-3.089h2.609c-.185 3.614-2.145 5.604-5.504 5.604-3.212 0-5.293-2.016-5.293-5.71zm22.814-12.944l-4.431 14.488c-.941 3.04-2.219 4.113-4.982 4.113h-.649v-2.383h.729c1.41 0 2.007-.732 2.556-2.569l.206-.679-4.59-12.965h2.789l2.974 8.932 2.636-8.932h2.762v-.005zm12.282 5.922c0 3.853-2.034 5.97-5.605 5.97h-2.192v6.444h-2.636V2.574h4.823c3.576 0 5.61 2.176 5.61 5.922zm-2.684 0c0-2.255-.966-3.407-2.947-3.407h-2.166v6.862h2.166c1.981 0 2.947-1.098 2.947-3.455zm4.797 7.022V7.97c0-3.72 2.06-5.737 5.266-5.737 3.312 0 5.267 1.99 5.425 5.631h-2.609c-.159-2.15-1.094-3.115-2.842-3.115-1.537 0-2.557 1.019-2.557 3.221v7.547c0 2.176 1.014 3.195 2.61 3.195 1.775 0 2.71-.998 2.894-3.089H226c-.185 3.614-2.139 5.604-5.504 5.604-3.207 0-5.293-2.016-5.293-5.71zM33.068 48.698a1.586 1.586 0 01-1.585-1.592V32.564c0-3.396 2.747-6.156 6.127-6.156h9.91a2.967 2.967 0 002.958-2.972V13.46a2.967 2.967 0 00-2.958-2.972h-26.2a1.586 1.586 0 01-1.585-1.592c0-.881.708-1.592 1.585-1.592h26.2c3.38 0 6.127 2.76 6.127 6.156v9.977c0 3.397-2.746 6.156-6.127 6.156h-9.91a2.967 2.967 0 00-2.958 2.972v14.542c0 .88-.708 1.592-1.584 1.592z" fill="#fff"/><path d="M23.623 48.698H8.964a1.586 1.586 0 01-1.585-1.592c0-.881.708-1.593 1.585-1.593h14.659a3.026 3.026 0 003.016-3.03V13.517a3.026 3.026 0 00-3.016-3.03H8.964A1.586 1.586 0 017.38 8.895c0-.881.708-1.592 1.585-1.592h14.659c3.412 0 6.185 2.786 6.185 6.214v28.96c0 3.43-2.773 6.22-6.185 6.22z" fill="#fff"/><path d="M28.224 29.592h-11.87A1.586 1.586 0 0114.77 28c0-.88.708-1.592 1.585-1.592h11.87c.876 0 1.584.711 1.584 1.592 0 .881-.708 1.592-1.584 1.592z" fill="#fff"/><path d="M53.817 56H6.989C3.132 56 0 52.848 0 48.979V7.02C0 3.147 3.132 0 6.989 0h46.833c3.85 0 6.988 3.147 6.988 7.021V48.98c-.005 3.868-3.137 7.02-6.993 7.02zM6.989 3.184c-2.108 0-3.82 1.72-3.82 3.837V48.98c0 2.117 1.712 3.837 3.82 3.837h46.833c2.107 0 3.819-1.72 3.819-3.837V7.02c0-2.117-1.712-3.837-3.82-3.837H6.99z" fill="#fff"/></svg>