<svg width="54" height="48" fill="none" xmlns="http://www.w3.org/2000/svg"><path d="M29.263 41.74c-.776 0-1.402-.609-1.402-1.364V27.912c0-2.911 2.43-5.277 5.422-5.277h8.77c1.445 0 2.618-1.142 2.618-2.547v-8.552c0-1.406-1.173-2.547-2.618-2.547H18.867c-.776 0-1.402-.61-1.402-1.365s.626-1.365 1.402-1.365h23.186c2.992 0 5.423 2.366 5.423 5.277v8.552c0 2.911-2.431 5.277-5.423 5.277h-8.77c-1.444 0-2.617 1.141-2.617 2.547v12.464c0 .755-.627 1.365-1.403 1.365z" fill="#E94B23"/><path d="M20.905 41.74H7.933c-.776 0-1.402-.609-1.402-1.364 0-.755.626-1.365 1.402-1.365h12.972c1.473 0 2.67-1.164 2.67-2.597V11.586c0-1.433-1.197-2.597-2.67-2.597H7.933c-.776 0-1.402-.61-1.402-1.365s.626-1.365 1.402-1.365h12.972c3.02 0 5.474 2.388 5.474 5.327v24.823c0 2.939-2.454 5.332-5.474 5.332z" fill="#444443"/><path d="M24.977 25.365H14.473c-.776 0-1.403-.61-1.403-1.365s.627-1.365 1.403-1.365h10.504c.776 0 1.402.61 1.402 1.365s-.626 1.365-1.402 1.365z" fill="#444443"/><path d="M47.625 48H6.185C2.772 48 0 45.298 0 41.982V6.018C0 2.698 2.772 0 6.185 0H47.63c3.408 0 6.184 2.697 6.184 6.018v35.964C53.81 45.298 51.038 48 47.626 48zM6.185 2.73c-1.866 0-3.38 1.473-3.38 3.288v35.964c0 1.815 1.514 3.289 3.38 3.289H47.63c1.865 0 3.38-1.474 3.38-3.29V6.019c0-1.815-1.515-3.289-3.38-3.289H6.185z" fill="#444443"/></svg>