<svg width="96" height="30" viewBox="0 0 96 30" fill="none" xmlns="http://www.w3.org/2000/svg">
<g clip-path="url(#clip0)">
<path d="M27.5395 21.2826C27.3889 20.917 27.2477 20.5326 27.0971 20.2045L26.4007 18.6388L26.3724 18.6107C24.3018 14.1107 22.0901 9.53572 19.7465 5.03571L19.6524 4.84821C19.4171 4.40759 19.1818 3.92009 18.9371 3.47009C18.636 2.93571 18.3442 2.36384 17.8642 1.82009C17.3963 1.25115 16.8075 0.792766 16.1402 0.478016C15.4728 0.163266 14.7437 0 14.0054 0C13.267 0 12.5379 0.163266 11.8706 0.478016C11.2033 0.792766 10.6144 1.25115 10.1465 1.82009C9.7042 2.36384 9.37478 2.93571 9.07361 3.47009C8.83831 3.95759 8.60302 4.43571 8.35831 4.87634L8.2642 5.06384C5.95831 9.56384 3.7089 14.1388 1.63832 18.6388L1.58185 18.6951C1.37479 19.1826 1.13008 19.6888 0.894787 20.2326C0.744198 20.5607 0.59361 20.917 0.443022 21.3107C0.0364645 22.3418 -0.0933621 23.4605 0.0663371 24.5568C0.226036 25.653 0.669749 26.6889 1.35375 27.5623C2.03774 28.4358 2.93841 29.1166 3.967 29.5377C4.99558 29.9588 6.11657 30.1057 7.21949 29.9638C8.27687 29.8252 9.29504 29.4744 10.2124 28.9326C11.436 28.2482 12.6124 27.2545 13.9301 25.8201C15.2477 27.2545 16.4524 28.2482 17.6477 28.942C18.7972 29.614 20.0989 29.9849 21.4313 30.0201C22.9742 30.0265 24.4673 29.4766 25.635 28.472C26.8027 27.4674 27.5661 26.0759 27.7842 24.5545C28.0363 23.4611 27.951 22.3174 27.5395 21.2732V21.2826ZM14.0242 22.8388C12.4054 20.7763 11.3513 18.8826 10.9936 17.2607C10.8454 16.6597 10.8135 16.0361 10.8995 15.4232C10.9654 14.9451 11.1442 14.5232 11.3889 14.167C11.9536 13.3513 12.9418 12.8451 14.0242 12.8451C14.5382 12.8294 15.0481 12.9412 15.508 13.1703C15.968 13.3993 16.3636 13.7386 16.6595 14.1576C16.9042 14.5326 17.083 14.9451 17.1395 15.4232C17.2336 15.967 17.196 16.5951 17.0454 17.2607C16.6877 18.8545 15.6336 20.767 14.0242 22.8388ZM26.0148 24.2263C25.9078 24.9988 25.5996 25.7298 25.1207 26.3467C24.6418 26.9635 24.009 27.4446 23.2854 27.742C22.5701 28.042 21.7795 28.1263 21.0077 28.042C20.2548 27.9482 19.5018 27.7045 18.7301 27.2545C17.4487 26.4656 16.2964 25.4854 15.3136 24.3482C17.2901 21.9107 18.4854 19.6888 18.9371 17.7107C19.1536 16.7732 19.1818 15.9295 19.0877 15.1513C18.9702 14.4138 18.6941 13.7102 18.2783 13.0888C17.8036 12.415 17.1699 11.8677 16.4331 11.495C15.6962 11.1223 14.8787 10.9356 14.0524 10.9513C12.3113 10.9513 10.7583 11.7576 9.81714 13.0795C9.39346 13.6993 9.11964 14.4085 9.01714 15.1513C8.89478 15.9388 8.92302 16.8107 9.16773 17.7107C9.61949 19.6888 10.843 21.9388 12.7913 24.367C11.8251 25.5259 10.6702 26.5147 9.37478 27.292C8.59361 27.742 7.85008 27.9763 7.09714 28.0701C5.92621 28.2195 4.7434 27.9025 3.80581 27.188C2.86822 26.4735 2.25164 25.4193 2.09008 24.2545C1.99596 23.5045 2.06185 22.7545 2.36302 21.9107C2.45714 21.6107 2.59832 21.3107 2.7489 20.9545C2.95596 20.467 3.20067 19.9607 3.43596 19.4545L3.47361 19.3888C5.50655 14.917 7.72773 10.3513 10.0336 5.87946L10.1277 5.69197C10.363 5.24196 10.5983 4.76384 10.843 4.31384C11.0877 3.83571 11.3513 3.37634 11.6901 3.00134C11.9834 2.65261 12.3498 2.37216 12.7637 2.17973C13.1775 1.9873 13.6287 1.88758 14.0854 1.88758C14.5421 1.88758 14.9932 1.9873 15.4071 2.17973C15.8209 2.37216 16.1874 2.65261 16.4807 3.00134C16.8101 3.37634 17.083 3.83571 17.3277 4.31384C17.563 4.76384 17.7983 5.25134 18.043 5.69197L18.1371 5.87946C20.4336 10.3513 22.6548 14.917 24.7254 19.3888L24.7536 19.417C24.9983 19.9045 25.2054 20.4482 25.4407 20.917C25.5913 21.2826 25.7418 21.5732 25.836 21.8826C26.0148 22.7263 26.1089 23.4763 26.0148 24.2263ZM39.116 22.6326C38.4067 22.6429 37.7043 22.4941 37.0607 22.1971C36.4171 21.9001 35.849 21.4626 35.3983 20.917C34.3857 19.7544 33.8482 18.2555 33.8924 16.717C33.8769 15.145 34.4317 13.6203 35.4548 12.4232C35.928 11.8707 36.5171 11.4282 37.1805 11.1269C37.844 10.8256 38.5657 10.6729 39.2948 10.6795C39.9808 10.6608 40.6604 10.8162 41.2696 11.131C41.8787 11.4459 42.3975 11.9099 42.7771 12.4795L42.8712 11.0076H45.6195V22.3326H42.8618L42.7677 20.6826C42.3763 21.2907 41.8354 21.7891 41.1963 22.1304C40.5571 22.4717 39.841 22.6445 39.116 22.6326ZM39.8312 19.9326C40.3771 19.9326 40.8571 19.7826 41.3089 19.5107C41.723 19.2107 42.0618 18.817 42.3254 18.3388C42.5607 17.8607 42.683 17.2888 42.683 16.6513C42.7197 16.0976 42.6115 15.544 42.369 15.0444C42.1265 14.5448 41.758 14.1165 41.2995 13.8013C40.8589 13.5279 40.3503 13.383 39.8312 13.383C39.3122 13.383 38.8035 13.5279 38.363 13.8013C37.9489 14.1013 37.6101 14.4951 37.3465 14.9732C37.0977 15.5005 36.9752 16.0782 36.9889 16.6607C36.9522 17.2144 37.0604 17.7681 37.3029 18.2677C37.5454 18.7672 37.9139 19.1955 38.3724 19.5107C38.8148 19.7826 39.2948 19.9326 39.8312 19.9326ZM50.3254 7.95134C50.3254 8.27946 50.2689 8.57946 50.1183 8.82322C49.9677 9.05759 49.7607 9.27321 49.4877 9.42321C49.2148 9.57321 48.923 9.62947 48.6218 9.62947C48.3207 9.62947 48.0195 9.57321 47.7465 9.42321C47.4884 9.28007 47.2713 9.07352 47.116 8.82322C46.9702 8.55615 46.8987 8.25515 46.9089 7.95134C46.9089 7.61384 46.9748 7.31384 47.116 7.07946C47.2665 6.79821 47.483 6.62946 47.7465 6.47946C48.0195 6.32946 48.3112 6.26384 48.6218 6.26384C48.9214 6.25696 49.2177 6.32764 49.4816 6.46896C49.7456 6.61028 49.9682 6.81741 50.1277 7.07009C50.2647 7.34342 50.3325 7.64594 50.3254 7.95134ZM47.1254 22.2951V10.9888H50.1183V22.3138H47.116L47.1254 22.2951ZM58.1183 13.9513V13.9888C57.9771 13.9232 57.7889 13.8951 57.6477 13.867C57.4595 13.8295 57.3089 13.8295 57.1301 13.8295C56.2924 13.8295 55.6618 14.0732 55.2477 14.5795C54.7959 15.0951 54.5889 15.817 54.5889 16.7451V22.3045H51.5865V10.9795H54.3442L54.4383 12.6951C54.7395 12.0951 55.0971 11.6451 55.6054 11.3076C56.1109 10.9797 56.7061 10.8159 57.3089 10.8388C57.5254 10.8388 57.7324 10.8576 57.9112 10.8951C58.0054 10.9232 58.0618 10.9232 58.1183 10.9513V13.9513ZM59.323 22.2951V6.33884H62.316V12.4326C62.7395 11.8888 63.2195 11.467 63.8218 11.1388C64.7754 10.6731 65.8587 10.541 66.8969 10.7638C67.9352 10.9867 68.8677 11.5514 69.5442 12.367C70.5591 13.5319 71.0966 15.0346 71.0501 16.5763C71.0656 18.1483 70.5108 19.673 69.4877 20.8701C69.0145 21.4226 68.4254 21.8651 67.762 22.1664C67.0985 22.4677 66.3768 22.6204 65.6477 22.6138C64.9617 22.6325 64.2821 22.4772 63.6729 22.1623C63.0637 21.8474 62.545 21.3834 62.1654 20.8138L62.0712 22.2857L59.323 22.3138V22.2951ZM65.1112 19.9326C65.6477 19.9326 66.1277 19.7826 66.5795 19.5107C66.9936 19.2107 67.3324 18.817 67.596 18.3388C67.8407 17.8607 67.9536 17.2888 67.9536 16.6513C67.9536 16.0232 67.8407 15.4513 67.596 14.9732C67.3488 14.5122 67.0015 14.1118 66.5795 13.8013C66.1389 13.5279 65.6303 13.383 65.1112 13.383C64.5922 13.383 64.0835 13.5279 63.643 13.8013C63.2195 14.1013 62.8901 14.4951 62.6171 14.9732C62.3682 15.5005 62.2458 16.0782 62.2595 16.6607C62.2228 17.2144 62.331 17.7681 62.5735 18.2677C62.816 18.7672 63.1845 19.1955 63.643 19.5107C64.0854 19.7826 64.5654 19.9326 65.1112 19.9326ZM72.1795 22.3045V10.9795H74.9371L75.0312 12.4513C75.3778 11.8871 75.8694 11.4254 76.4551 11.1139C77.0409 10.8024 77.6995 10.6524 78.363 10.6795C79.1217 10.6664 79.8674 10.8764 80.5069 11.2833C81.1463 11.6902 81.6512 12.2758 81.9583 12.967C82.2877 13.6795 82.4665 14.5607 82.4665 15.5451V22.3326H79.4642V15.9388C79.4642 15.1513 79.2854 14.5326 78.9277 14.0732C78.5701 13.6232 78.0807 13.3795 77.4595 13.3795C77.0077 13.3795 76.6124 13.4732 76.2642 13.6795C75.9348 13.8951 75.6618 14.167 75.4548 14.5513C75.2454 14.9399 75.1416 15.3762 75.1536 15.817V22.3045H72.1795ZM83.963 22.3045V6.32946H86.9654V12.4232C87.372 11.8764 87.901 11.4316 88.5104 11.124C89.1198 10.8165 89.7928 10.6546 90.4759 10.6513C91.1852 10.641 91.8876 10.7899 92.5312 11.0869C93.1748 11.3839 93.7429 11.8214 94.1936 12.367C95.2012 13.5318 95.735 15.03 95.6901 16.567C95.7064 18.1391 95.1515 19.6641 94.1277 20.8607C93.6545 21.4133 93.0654 21.8557 92.402 22.157C91.7385 22.4583 91.0168 22.611 90.2877 22.6045C89.6017 22.6232 88.9221 22.4678 88.3129 22.1529C87.7037 21.838 87.185 21.374 86.8054 20.8045L86.7206 22.2763L83.963 22.3045ZM89.7795 19.9326C90.3254 19.9326 90.8054 19.7826 91.2477 19.5107C91.6712 19.2107 92.0006 18.817 92.2736 18.3388C92.5089 17.8607 92.6312 17.2888 92.6312 16.6513C92.6679 16.0976 92.5597 15.544 92.3172 15.0444C92.0747 14.5448 91.7062 14.1165 91.2477 13.8013C90.8072 13.5279 90.2985 13.383 89.7795 13.383C89.2604 13.383 88.7518 13.5279 88.3112 13.8013C87.8971 14.1013 87.5583 14.4951 87.2948 14.9732C87.0321 15.4958 86.9089 16.077 86.9371 16.6607C86.9004 17.2144 87.0086 17.7681 87.2511 18.2677C87.4937 18.7672 87.8622 19.1955 88.3206 19.5107C88.763 19.7826 89.2148 19.9326 89.7795 19.9326Z" fill="#FF385C"/>
</g>
<defs>
<clipPath id="clip0">
<rect width="96" height="30" fill="white"/>
</clipPath>
</defs>
</svg>
