<svg width="85" height="28" viewBox="0 0 85 28" fill="none" xmlns="http://www.w3.org/2000/svg">
<path d="M36.1719 14.3591C36.1719 18.2456 33.05 21.1095 29.2187 21.1095C25.3875 21.1095 22.2656 18.2456 22.2656 14.3591C22.2656 10.4452 25.3875 7.60864 29.2187 7.60864C33.05 7.60864 36.1719 10.4452 36.1719 14.3591ZM33.1281 14.3591C33.1281 11.9304 31.3187 10.2686 29.2187 10.2686C27.1187 10.2686 25.3094 11.9304 25.3094 14.3591C25.3094 16.7634 27.1187 18.4495 29.2187 18.4495C31.3187 18.4495 33.1281 16.7604 33.1281 14.3591Z" fill="#EA4335"/>
<path d="M51.1719 14.3591C51.1719 18.2456 48.05 21.1095 44.2187 21.1095C40.3875 21.1095 37.2656 18.2456 37.2656 14.3591C37.2656 10.4482 40.3875 7.60864 44.2187 7.60864C48.05 7.60864 51.1719 10.4452 51.1719 14.3591ZM48.1281 14.3591C48.1281 11.9304 46.3187 10.2686 44.2187 10.2686C42.1187 10.2686 40.3094 11.9304 40.3094 14.3591C40.3094 16.7634 42.1187 18.4495 44.2187 18.4495C46.3187 18.4495 48.1281 16.7604 48.1281 14.3591Z" fill="#FBBC05"/>
<path d="M65.5468 8.01647V20.1356C65.5468 25.1208 62.528 27.1569 58.9593 27.1569C55.5999 27.1569 53.578 24.9686 52.8155 23.1791L55.4655 22.1047C55.9374 23.2034 57.0937 24.4999 58.9562 24.4999C61.2405 24.4999 62.6562 23.1273 62.6562 20.5434V19.5726H62.5499C61.8687 20.3912 60.5562 21.1065 58.8999 21.1065C55.4343 21.1065 52.2593 18.1665 52.2593 14.3834C52.2593 10.573 55.4343 7.60864 58.8999 7.60864C60.553 7.60864 61.8655 8.32386 62.5499 9.11821H62.6562V8.01951H65.5468V8.01647ZM62.8718 14.3834C62.8718 12.0065 61.2437 10.2686 59.1718 10.2686C57.0718 10.2686 55.3124 12.0065 55.3124 14.3834C55.3124 16.736 57.0718 18.4495 59.1718 18.4495C61.2437 18.4495 62.8718 16.736 62.8718 14.3834Z" fill="#4285F4"/>
<path d="M70.3125 0.913086V20.6957H67.3438V0.913086H70.3125Z" fill="#34A853"/>
<path d="M81.8813 16.5809L84.2438 18.1148C83.4813 19.2135 81.6438 21.1066 78.4688 21.1066C74.5313 21.1066 71.5907 18.1422 71.5907 14.3561C71.5907 10.3418 74.5563 7.60571 78.1282 7.60571C81.7251 7.60571 83.4845 10.3935 84.0595 11.9001L84.3751 12.667L75.1095 16.4044C75.8188 17.7588 76.922 18.4496 78.4688 18.4496C80.0188 18.4496 81.0938 17.707 81.8813 16.5809ZM74.6095 14.1522L80.8032 11.6475C80.4626 10.8044 79.4376 10.217 78.2313 10.217C76.6845 10.217 74.5313 11.547 74.6095 14.1522V14.1522Z" fill="#EA4335"/>
<path d="M11.0282 12.6031V9.73915H20.9375C21.0344 10.2383 21.0844 10.8287 21.0844 11.4678C21.0844 13.6165 20.4813 16.2735 18.5375 18.1665C16.6469 20.0839 14.2313 21.1065 11.0313 21.1065C5.10005 21.1065 0.112549 16.4013 0.112549 10.6248C0.112549 4.84828 5.10005 0.143066 11.0313 0.143066C14.3125 0.143066 16.65 1.39698 18.4063 3.03133L16.3313 5.0522C15.0719 3.90176 13.3657 3.00698 11.0282 3.00698C6.69692 3.00698 3.30942 6.40654 3.30942 10.6248C3.30942 14.8431 6.69692 18.2426 11.0282 18.2426C13.8375 18.2426 15.4375 17.1439 16.4625 16.1457C17.2938 15.3361 17.8407 14.1796 18.0563 12.6L11.0282 12.6031V12.6031Z" fill="#4285F4"/>
</svg>
