<svg width="107" height="30" viewBox="0 0 107 30" fill="none" xmlns="http://www.w3.org/2000/svg">
<path d="M11.5875 4.96606V13.4283H3.73031V4.96606H0V25.1661H3.73031V16.9787H11.5875V25.1661H15.3178V4.96606H11.5875Z" fill="#33475B"/>
<path d="M27.2562 18.6364C27.2562 19.4459 26.9311 20.2223 26.3523 20.7948C25.7736 21.3672 24.9886 21.6888 24.1702 21.6888C23.3517 21.6888 22.5667 21.3672 21.988 20.7948C21.4092 20.2223 21.0841 19.4459 21.0841 18.6364V9.98438H17.5457V18.6364C17.5457 20.3725 18.243 22.0375 19.4841 23.2651C20.7252 24.4927 22.4085 25.1823 24.1638 25.1823C25.919 25.1823 27.6023 24.4927 28.8434 23.2651C30.0846 22.0375 30.7818 20.3725 30.7818 18.6364V9.98438H27.2562V18.6364Z" fill="#33475B"/>
<path d="M53.4727 10.8757C53.4727 9.10225 54.6589 8.54003 55.9584 8.54003C57.0056 8.54003 58.3892 9.32822 59.2939 10.2845L61.6114 7.58372C60.4545 6.03627 58.1077 4.96606 56.1868 4.96606C52.3487 4.96606 49.5724 7.18963 49.5724 10.8757C49.5724 17.7145 58.0237 15.5452 58.0237 19.3722C58.0237 20.5527 56.8649 21.5958 55.538 21.5958C53.4453 21.5958 52.7672 20.5834 51.8059 19.5132L49.2343 22.158C50.8792 24.1556 52.908 25.1697 55.3388 25.1697C58.985 25.1697 61.9185 22.9191 61.9185 19.4011C61.9185 11.8085 53.4672 14.1676 53.4672 10.8757" fill="#33475B"/>
<path d="M105.755 21.9392C103.664 21.9392 103.07 21.0444 103.07 19.6741V13.609H106.32V10.5358H103.07V6.48096L99.4827 8.07361V20.4279C99.4827 23.5879 101.687 25.1806 104.71 25.1806C105.184 25.1891 105.658 25.1516 106.124 25.0685L107 21.8814C106.605 21.9085 106.152 21.9356 105.755 21.9356" fill="#33475B"/>
<path d="M40.7244 10.0857C38.9717 10.0857 37.749 10.5882 36.5665 11.7361V5.08716H33.0226V17.4107C33.0226 22.0242 36.3947 25.1842 40.1835 25.1842C44.3871 25.1842 48.0845 21.9681 48.0845 17.6367C48.0845 13.3595 44.6814 10.0875 40.7244 10.0875V10.0857ZM40.7025 21.6572C39.9073 21.6572 39.1299 21.424 38.4686 20.9869C37.8074 20.5499 37.292 19.9288 36.9877 19.2021C36.6833 18.4754 36.6037 17.6757 36.7589 16.9042C36.914 16.1327 37.297 15.4241 37.8593 14.8679C38.4216 14.3117 39.1381 13.9329 39.9181 13.7794C40.6981 13.626 41.5065 13.7047 42.2413 14.0057C42.976 14.3068 43.604 14.8165 44.0458 15.4705C44.4876 16.1246 44.7234 16.8935 44.7234 17.6801C44.7234 18.7349 44.2998 19.7465 43.5457 20.4923C42.7917 21.2382 41.7689 21.6572 40.7025 21.6572Z" fill="#33475B"/>
<path d="M79.2045 17.4522C79.2045 13.1136 75.5144 9.90479 71.3034 9.90479C67.5146 9.90479 64.1425 13.0648 64.1425 17.6782V30.009H67.6864V23.351C68.8671 24.4971 70.0916 25.0015 71.8426 25.0015C75.7995 25.0015 79.2026 21.7312 79.2026 17.4522H79.2045ZM75.8488 17.4088C75.8488 18.1954 75.613 18.9644 75.1712 19.6184C74.7294 20.2724 74.1014 20.7822 73.3667 21.0832C72.6319 21.3842 71.8235 21.463 71.0435 21.3095C70.2635 21.1561 69.5471 20.7773 68.9847 20.2211C68.4224 19.6649 68.0394 18.9562 67.8843 18.1847C67.7291 17.4133 67.8088 16.6136 68.1131 15.8869C68.4174 15.1602 68.9328 14.539 69.594 14.102C70.2553 13.665 71.0327 13.4318 71.8279 13.4318C72.8943 13.4318 73.9171 13.8508 74.6711 14.5966C75.4252 15.3425 75.8488 16.3541 75.8488 17.4088Z" fill="#33475B"/>
<path d="M90.6532 9.73496V6.21341C91.1237 5.99596 91.5221 5.6508 91.802 5.2181C92.0819 4.78541 92.2318 4.28298 92.2342 3.76931V3.68796C92.2342 2.96878 91.9453 2.27906 91.4312 1.77052C90.9171 1.26199 90.2198 0.976296 89.4927 0.976296H89.4104C88.6833 0.976296 87.986 1.26199 87.4719 1.77052C86.9577 2.27906 86.6689 2.96878 86.6689 3.68796V3.76931C86.6713 4.28298 86.8212 4.78541 87.1011 5.2181C87.3809 5.6508 87.7793 5.99596 88.2498 6.21341V9.73496C86.8975 9.93959 85.6239 10.494 84.5579 11.3421L74.7944 3.81992C74.8635 3.57187 74.9004 3.31612 74.9041 3.05885C74.9052 2.45453 74.725 1.86346 74.3864 1.36041C74.0479 0.85736 73.5661 0.46493 73.002 0.232757C72.4379 0.000583346 71.8168 -0.0609035 71.2174 0.0560738C70.618 0.173051 70.0671 0.463237 69.6344 0.889927C69.2018 1.31662 68.9067 1.86064 68.7867 2.45319C68.6667 3.04574 68.727 3.66019 68.9601 4.21882C69.1931 4.77745 69.5884 5.25517 70.096 5.59154C70.6036 5.92792 71.2006 6.10785 71.8116 6.10856C72.3459 6.1062 72.8702 5.96533 73.3323 5.70001L82.9477 13.0992C82.0837 14.3899 81.6329 15.9082 81.6541 17.456C81.6753 19.0038 82.1675 20.5094 83.0665 21.7765L80.1422 24.669C79.9057 24.5943 79.6594 24.5547 79.4111 24.5515C78.9096 24.5518 78.4193 24.6992 78.0024 24.9751C77.5855 25.2509 77.2607 25.6428 77.0689 26.1013C76.8771 26.5597 76.827 27.0641 76.925 27.5506C77.0229 28.0372 77.2645 28.4841 77.6192 28.8349C77.9738 29.1857 78.4257 29.4247 78.9176 29.5215C79.4095 29.6184 79.9195 29.5689 80.3829 29.3792C80.8464 29.1895 81.2426 28.8682 81.5215 28.4558C81.8004 28.0435 81.9494 27.5586 81.9498 27.0625C81.9467 26.8169 81.9066 26.5732 81.831 26.3394L84.7242 23.4776C85.6676 24.1957 86.7647 24.6907 87.9314 24.9247C89.0981 25.1587 90.3034 25.1254 91.4551 24.8275C92.6068 24.5296 93.6742 23.975 94.5758 23.206C95.4773 22.4371 96.1889 21.4742 96.6561 20.3913C97.1233 19.3083 97.3338 18.1339 97.2713 16.9581C97.2088 15.7823 96.8751 14.6362 96.2957 13.6076C95.7163 12.579 94.9066 11.6953 93.9285 11.024C92.9505 10.3528 91.8301 9.91183 90.6532 9.73496ZM89.4543 21.3156C88.6629 21.3148 87.8894 21.0821 87.2317 20.6467C86.574 20.2113 86.0616 19.5929 85.7591 18.8695C85.4567 18.1461 85.3778 17.3503 85.5325 16.5826C85.6872 15.8149 86.0686 15.1098 86.6283 14.5564C87.188 14.003 87.9011 13.6262 88.6773 13.4735C89.4535 13.3209 90.258 13.3992 90.9892 13.6987C91.7204 13.9982 92.3455 14.5053 92.7854 15.1561C93.2252 15.8068 93.4602 16.5719 93.4606 17.3547C93.4606 18.4047 93.0389 19.4117 92.2882 20.1542C91.5376 20.8966 90.5195 21.3137 89.4579 21.3137" fill="#FF7A59"/>
</svg>
