<svg width="123" height="26" viewBox="0 0 123 26" fill="none" xmlns="http://www.w3.org/2000/svg">
<g clip-path="url(#clip0)">
<path d="M43.4166 14.9753L42.6835 17.0311H42.6224C42.5002 16.5675 42.2762 15.8621 41.9096 15.0156L37.9793 5.24042H34.1305V20.8203H36.676V11.2063C36.676 10.6017 36.676 9.91639 36.6557 9.06987C36.6353 8.64662 36.5946 8.32414 36.5742 8.08228H36.6353C36.7575 8.68693 36.9 9.13034 37.0018 9.41251L41.7264 20.78H43.5184L48.2022 9.31173C48.304 9.04972 48.4058 8.52569 48.5076 8.08228H48.5687C48.5076 9.23111 48.4669 10.259 48.4465 10.8838V20.7598H51.155V5.20011H47.4487L43.4166 14.9753ZM53.7209 9.5939H56.3682V20.7598H53.7209V9.5939ZM55.0649 4.87763C54.6169 4.87763 54.2504 5.03887 53.9449 5.32104C53.6394 5.60321 53.4765 5.966 53.4765 6.40941C53.4765 6.83266 53.6394 7.19546 53.9449 7.47763C54.2504 7.7598 54.6169 7.90088 55.0649 7.90088C55.5129 7.90088 55.8999 7.73964 56.185 7.47763C56.4904 7.19546 56.6533 6.83266 56.6533 6.40941C56.6533 5.98615 56.4904 5.62336 56.185 5.32104C55.9202 5.03887 55.5333 4.87763 55.0649 4.87763ZM65.7562 9.49313C65.2674 9.39235 64.7583 9.33189 64.2696 9.33189C63.0681 9.33189 61.9684 9.59391 61.052 10.1179C60.1356 10.642 59.4025 11.3675 58.9341 12.2745C58.4454 13.2017 58.201 14.2699 58.201 15.4993C58.201 16.5675 58.4454 17.5148 58.9138 18.3815C59.3821 19.228 60.0338 19.9133 60.9095 20.3769C61.7444 20.8404 62.7219 21.0823 63.8215 21.0823C65.0841 21.0823 66.1634 20.8203 67.0187 20.3365L67.0391 20.3164V17.8978L66.9373 17.9784C66.5504 18.2606 66.1023 18.5024 65.6543 18.6435C65.186 18.8048 64.7583 18.8854 64.3918 18.8854C63.3328 18.8854 62.4979 18.5831 61.9073 17.9179C61.2964 17.273 60.9909 16.3862 60.9909 15.2776C60.9909 14.1288 61.2964 13.2218 61.9277 12.5567C62.559 11.8916 63.3939 11.5489 64.4121 11.5489C65.2674 11.5489 66.1431 11.8311 66.9373 12.3955L67.0391 12.4761V9.91639L67.0187 9.89623C66.6725 9.75515 66.2856 9.5939 65.7562 9.49313ZM74.4924 9.41251C73.8408 9.41251 73.2298 9.61406 72.7004 10.0373C72.2523 10.4001 71.9469 10.9241 71.6821 11.5489H71.6618V9.5939H69.0144V20.7598H71.6618V15.0559C71.6618 14.0885 71.8654 13.2823 72.3134 12.6978C72.7615 12.0931 73.3316 11.7908 74.024 11.7908C74.2684 11.7908 74.5128 11.8513 74.8182 11.8916C75.1033 11.9722 75.307 12.0528 75.4495 12.1536L75.5513 12.2342V9.61406L75.4903 9.5939C75.307 9.47297 74.9404 9.41251 74.4924 9.41251ZM81.7014 9.35205C79.8482 9.35205 78.3616 9.89623 77.323 10.9644C76.2641 12.0327 75.755 13.504 75.755 15.3582C75.755 17.0916 76.2845 18.5024 77.3027 19.5303C78.3209 20.5381 79.7057 21.0621 81.4366 21.0621C83.249 21.0621 84.6949 20.5179 85.7335 19.4296C86.7924 18.3412 87.3015 16.89 87.3015 15.0962C87.3015 13.3226 86.8128 11.9117 85.8149 10.8838C84.8578 9.85592 83.4527 9.35205 81.7014 9.35205ZM83.8192 17.9381C83.3305 18.5629 82.5566 18.8652 81.5995 18.8652C80.6424 18.8652 79.8686 18.5629 79.3187 17.8978C78.7689 17.273 78.5042 16.366 78.5042 15.2172C78.5042 14.028 78.7893 13.121 79.3187 12.4761C79.8686 11.8311 80.622 11.5086 81.5792 11.5086C82.5159 11.5086 83.249 11.811 83.7785 12.4358C84.308 13.0606 84.5931 13.9675 84.5931 15.1567C84.5523 16.366 84.3283 17.3133 83.8192 17.9381ZM93.2071 14.2296C92.3722 13.8869 91.8427 13.6249 91.5984 13.4032C91.3947 13.2017 91.2929 12.9195 91.2929 12.5567C91.2929 12.2544 91.4151 11.952 91.7206 11.7505C92.026 11.5489 92.3722 11.4482 92.8813 11.4482C93.3293 11.4482 93.7977 11.5288 94.2457 11.6497C94.6937 11.7706 95.101 11.952 95.4268 12.1939L95.5287 12.2745V9.81561L95.4676 9.79546C95.1621 9.67453 94.7548 9.5536 94.2661 9.45282C93.7773 9.3722 93.3293 9.33189 92.9628 9.33189C91.7002 9.33189 90.6616 9.63421 89.847 10.2993C89.0325 10.9241 88.6455 11.7706 88.6455 12.7582C88.6455 13.2823 88.727 13.7458 88.9103 14.1288C89.0936 14.5117 89.3583 14.8745 89.7249 15.1769C90.0914 15.459 90.6209 15.7815 91.354 16.0838C91.9649 16.3458 92.4333 16.5474 92.7184 16.7086C93.0035 16.8699 93.1868 17.0513 93.3293 17.1924C93.4311 17.3536 93.4922 17.5551 93.4922 17.8172C93.4922 18.5629 92.922 18.9257 91.7613 18.9257C91.3133 18.9257 90.8449 18.8451 90.2951 18.6637C89.7452 18.4823 89.2361 18.2203 88.8085 17.9179L88.7066 17.8373V20.397L88.7677 20.4172C89.1547 20.5986 89.623 20.7195 90.1932 20.8606C90.7634 20.9613 91.2725 21.042 91.7206 21.042C93.085 21.042 94.205 20.7396 94.9992 20.0745C95.8138 19.4296 96.2414 18.6032 96.2414 17.535C96.2414 16.7893 96.0378 16.1241 95.5898 15.6203C94.9992 15.1365 94.2661 14.6327 93.2071 14.2296ZM103.226 9.35205C101.373 9.35205 99.8866 9.89623 98.848 10.9644C97.8095 12.0327 97.28 13.504 97.28 15.3582C97.28 17.0916 97.8095 18.5024 98.8277 19.5303C99.8459 20.5381 101.231 21.0621 102.962 21.0621C104.774 21.0621 106.22 20.5179 107.258 19.4296C108.317 18.3412 108.827 16.89 108.827 15.0962C108.827 13.3226 108.338 11.9117 107.34 10.8838C106.383 9.85592 104.978 9.35205 103.226 9.35205ZM105.324 17.9381C104.835 18.5629 104.061 18.8652 103.104 18.8652C102.127 18.8652 101.373 18.5629 100.823 17.8978C100.274 17.273 100.009 16.366 100.009 15.2172C100.009 14.028 100.294 13.121 100.823 12.4761C101.373 11.8311 102.127 11.5086 103.084 11.5086C104 11.5086 104.754 11.811 105.283 12.4358C105.813 13.0606 106.098 13.9675 106.098 15.1567C106.098 16.366 105.833 17.3133 105.324 17.9381ZM122.98 11.7505V9.5939H120.312V6.28848L120.23 6.30863L117.705 7.05437L117.644 7.07453V9.5939H113.653V8.18305C113.653 7.53809 113.816 7.03422 114.101 6.71173C114.386 6.38925 114.814 6.22801 115.343 6.22801C115.71 6.22801 116.097 6.30863 116.524 6.49003L116.626 6.55049V4.27298L116.565 4.25282C116.198 4.13189 115.71 4.05127 115.078 4.05127C114.284 4.05127 113.592 4.23266 112.96 4.53499C112.329 4.87763 111.861 5.34119 111.515 5.966C111.168 6.57065 110.985 7.25592 110.985 8.04197V9.5939H109.132V11.7303H110.985V20.7598H113.653V11.7505H117.644V17.4947C117.644 19.8528 118.764 21.042 121.004 21.042C121.371 21.042 121.758 20.9815 122.124 20.921C122.511 20.8404 122.796 20.7396 122.959 20.659L122.98 20.6389V18.4823L122.878 18.5629C122.715 18.6637 122.572 18.7443 122.328 18.8048C122.124 18.8652 121.941 18.8854 121.799 18.8854C121.269 18.8854 120.903 18.7644 120.638 18.4621C120.393 18.18 120.271 17.7164 120.271 17.0311V11.7505H122.98Z" fill="#737373"/>
<path d="M0 0H12.4833V12.355H0V0Z" fill="#F25022"/>
<path d="M13.7865 0H26.2698V12.355H13.7865V0Z" fill="#7FBA00"/>
<path d="M0 13.645H12.4833V26.0001H0V13.645Z" fill="#00A4EF"/>
<path d="M13.7865 13.645H26.2698V26.0001H13.7865V13.645Z" fill="#FFB900"/>
</g>
<defs>
<clipPath id="clip0">
<rect width="123" height="26" fill="white"/>
</clipPath>
</defs>
</svg>
