<svg width="48" height="12" fill="none" xmlns="http://www.w3.org/2000/svg"><path d="M0 .162h1.718v9.532h4.835v1.777H0V.16zm14.969 11.47a4.557 4.557 0 01-2.55-.743c-.758-.506-1.352-1.2-1.784-2.084-.431-.894-.647-1.89-.647-2.989 0-1.098.216-2.09.647-2.973.432-.894 1.027-1.588 1.784-2.084A4.487 4.487 0 0114.969 0a4.48 4.48 0 012.55.76c.758.495 1.352 1.184 1.784 2.067.431.883.647 1.88.647 2.99 0 1.109-.216 2.105-.647 2.988-.432.883-1.026 1.578-1.784 2.084a4.557 4.557 0 01-2.55.743zm0-1.841c.617 0 1.171-.167 1.665-.501.493-.345.88-.819 1.163-1.422.281-.614.422-1.298.422-2.052s-.14-1.432-.422-2.035c-.282-.614-.67-1.088-1.163-1.422a2.838 2.838 0 00-1.665-.517c-.617 0-1.171.172-1.665.517-.493.334-.88.808-1.162 1.421-.282.604-.423 1.282-.423 2.036s.14 1.438.423 2.052c.281.603.669 1.077 1.162 1.422a2.9 2.9 0 001.665.5zm16.024-4.104h1.625v4.507a4.929 4.929 0 01-1.664 1.067 5.332 5.332 0 01-1.956.371 4.557 4.557 0 01-2.55-.743c-.758-.506-1.352-1.2-1.784-2.084-.431-.883-.647-1.88-.647-2.989 0-1.11.216-2.106.647-2.989.432-.883 1.026-1.572 1.784-2.068A4.571 4.571 0 0129.024 0c.776 0 1.48.156 2.114.469.635.312 1.168.77 1.6 1.373l-1.084 1.292c-.705-.861-1.555-1.292-2.55-1.292-.652 0-1.233.167-1.744.5-.502.335-.899.803-1.19 1.406-.281.603-.422 1.293-.422 2.068 0 .754.14 1.433.423 2.036.29.603.687 1.077 1.189 1.422.51.344 1.088.517 1.73.517.723 0 1.357-.194 1.903-.582V5.687zm11.118 5.945a4.557 4.557 0 01-2.55-.743c-.758-.506-1.352-1.2-1.784-2.084-.431-.894-.647-1.89-.647-2.989 0-1.098.216-2.09.647-2.973.432-.894 1.026-1.588 1.784-2.084A4.487 4.487 0 0142.111 0a4.48 4.48 0 012.55.76c.758.495 1.352 1.184 1.784 2.067.431.883.647 1.88.647 2.99 0 1.109-.216 2.105-.647 2.988-.432.883-1.026 1.578-1.784 2.084a4.557 4.557 0 01-2.55.743zm0-1.841a2.9 2.9 0 001.665-.501c.493-.345.88-.819 1.162-1.422.282-.614.423-1.298.423-2.052s-.14-1.432-.422-2.035c-.282-.614-.67-1.088-1.163-1.422a2.838 2.838 0 00-1.665-.517 2.84 2.84 0 00-1.665.517c-.493.334-.88.808-1.162 1.421-.282.604-.423 1.282-.423 2.036s.14 1.438.423 2.052c.281.603.669 1.077 1.162 1.422.494.334 1.049.5 1.665.5z" fill="#00CCC0"/></svg>