<svg width="220" height="30" fill="none" xmlns="http://www.w3.org/2000/svg"><g clip-path="url(#clip0_545:18055)"><path d="M26.479 29.754l-.085-13.442-6.44 10.787h-4.406l-6.44-10.324v12.979H0V.258h8.219l9.66 15.717L27.283.258h8.219l.084 29.496H26.48zm37.328-7.501v7.5H39.15V.259h24.107v7.5H48.979v3.455h12.54v7.164H48.98v3.876h14.828zM66.386.258h14.616c3.304 0 6.214.604 8.727 1.811 2.542 1.18 4.505 2.88 5.89 5.1 1.411 2.218 2.118 4.83 2.118 7.837 0 3.005-.707 5.618-2.119 7.837-1.384 2.22-3.347 3.933-5.889 5.14-2.513 1.18-5.423 1.77-8.727 1.77H66.386V.259zM80.578 22c2.147 0 3.855-.604 5.126-1.811 1.3-1.236 1.95-2.964 1.95-5.183 0-2.22-.65-3.933-1.95-5.141-1.27-1.236-2.98-1.854-5.126-1.854h-4.194V22h4.194zM100.116.258h9.999v29.496h-9.999V.258zm33.749 24.355h-11.269l-1.991 5.14h-10.168L123.401.259h9.829l12.964 29.496h-10.337l-1.992-5.141zm-2.753-7.163l-2.881-7.417-2.881 7.417h5.762z" fill="#F90"/><path d="M143.822.213h2.779v12.542h7.822v2.338h-10.601V.213zm24.215 15.093c-1.525 0-2.9-.326-4.125-.978a7.447 7.447 0 01-2.886-2.742c-.698-1.177-1.047-2.488-1.047-3.933 0-1.446.349-2.75 1.047-3.912A7.248 7.248 0 01163.912 1c1.225-.666 2.6-.999 4.125-.999 1.524 0 2.899.333 4.125 1a7.292 7.292 0 012.885 2.72c.698 1.162 1.048 2.473 1.048 3.933s-.35 2.77-1.048 3.933a7.444 7.444 0 01-2.885 2.742c-1.226.652-2.601.978-4.125.978zm0-2.424c.997 0 1.895-.22 2.693-.659a4.954 4.954 0 001.881-1.87c.456-.808.684-1.708.684-2.7 0-.992-.228-1.885-.684-2.679a4.763 4.763 0 00-1.881-1.87c-.798-.454-1.696-.68-2.693-.68-.998 0-1.895.226-2.693.68a4.763 4.763 0 00-1.881 1.87c-.456.794-.684 1.687-.684 2.679 0 .992.228 1.892.684 2.7a4.954 4.954 0 001.881 1.87c.798.44 1.695.66 2.693.66zm25.921-5.399h2.629v5.93c-.769.61-1.667 1.078-2.693 1.404-1.026.326-2.08.489-3.163.489-1.525 0-2.9-.326-4.125-.978a7.437 7.437 0 01-2.885-2.742c-.699-1.163-1.048-2.473-1.048-3.933s.349-2.77 1.048-3.933A7.285 7.285 0 01186.606 1c1.24-.667 2.629-1 4.168-1 1.254 0 2.393.205 3.419.616a6.719 6.719 0 012.587 1.807l-1.753 1.701c-1.14-1.134-2.515-1.7-4.125-1.7-1.054 0-1.995.22-2.821.658a4.907 4.907 0 00-1.924 1.85c-.456.793-.684 1.7-.684 2.72 0 .993.228 1.886.684 2.68a5.06 5.06 0 001.924 1.87c.826.454 1.759.68 2.8.68 1.168 0 2.194-.255 3.077-.765V7.483zm17.985 7.823c-1.525 0-2.9-.326-4.125-.978a7.444 7.444 0 01-2.885-2.742c-.699-1.177-1.048-2.488-1.048-3.933 0-1.446.349-2.75 1.048-3.912A7.246 7.246 0 01207.818 1c1.225-.666 2.6-.999 4.125-.999s2.9.333 4.125 1a7.294 7.294 0 012.886 2.72c.698 1.162 1.047 2.473 1.047 3.933s-.349 2.77-1.047 3.933a7.447 7.447 0 01-2.886 2.742c-1.225.652-2.6.978-4.125.978zm0-2.424c.997 0 1.895-.22 2.693-.659a4.954 4.954 0 001.881-1.87c.456-.808.684-1.708.684-2.7 0-.992-.228-1.885-.684-2.679a4.763 4.763 0 00-1.881-1.87c-.798-.454-1.696-.68-2.693-.68-.997 0-1.895.226-2.693.68a4.763 4.763 0 00-1.881 1.87c-.456.794-.684 1.687-.684 2.679 0 .992.228 1.892.684 2.7a4.954 4.954 0 001.881 1.87c.798.44 1.696.66 2.693.66z" fill="#00CCC0"/><path d="M156.011 24.12c.64.236 1.135.58 1.486 1.031.351.452.526.996.526 1.632 0 .944-.392 1.678-1.176 2.201-.784.513-1.919.77-3.405.77h-6.098V18.978h5.788c1.445 0 2.533.257 3.266.77.743.513 1.114 1.195 1.114 2.047 0 .503-.129.955-.387 1.355-.247.4-.619.723-1.114.97zm-5.077-2.602v1.601h1.703c.794 0 1.192-.267 1.192-.8 0-.534-.398-.8-1.192-.8h-1.703zm2.198 5.696c.805 0 1.207-.282 1.207-.847 0-.564-.402-.846-1.207-.846h-2.198v1.693h2.198zM164.499 30c-1.661 0-2.956-.446-3.885-1.34-.928-.892-1.392-2.144-1.392-3.755v-5.927h3.652v5.82c0 .79.139 1.364.418 1.723.289.36.702.539 1.238.539.537 0 .944-.18 1.223-.539.289-.359.433-.934.433-1.724v-5.819h3.591v5.927c0 1.611-.464 2.863-1.393 3.756-.929.893-2.224 1.34-3.885 1.34zm6.952-11.022h3.653v10.776h-3.653V18.978zm5.411 0h3.653v7.959h4.891v2.817h-8.544V18.978zm9.553 0h5.339c1.207 0 2.27.22 3.189.662.928.431 1.645 1.052 2.151 1.863.516.81.774 1.765.774 2.863s-.258 2.053-.774 2.863c-.506.811-1.223 1.437-2.151 1.878-.919.431-1.982.647-3.189.647h-5.339V18.978zm5.184 7.943c.785 0 1.409-.22 1.873-.662.475-.451.712-1.082.712-1.893 0-.81-.237-1.437-.712-1.878-.464-.451-1.088-.677-1.873-.677h-1.532v5.11h1.532zm16.61.093v2.74h-9.008V18.978h8.807v2.74h-5.216v1.263h4.581v2.616h-4.581v1.417h5.417zm6.049.03h-.99v2.71h-3.653V18.978h5.216c1.001 0 1.873.164 2.616.493.743.328 1.315.8 1.718 1.416.402.616.603 1.334.603 2.155 0 .77-.175 1.442-.526 2.017-.351.575-.856 1.031-1.517 1.37l2.276 3.325H216.1l-1.842-2.71zm1.827-4.002c0-.4-.124-.708-.372-.923-.247-.226-.619-.34-1.114-.34h-1.331v2.526h1.331c.495 0 .867-.108 1.114-.324.248-.226.372-.539.372-.939z" fill="#FAFAFA"/></g><defs><clipPath id="clip0_545:18055"><path fill="#fff" d="M0 0h220v30H0z"/></clipPath></defs></svg>