<svg width="230" height="30" fill="none" xmlns="http://www.w3.org/2000/svg"><g clip-path="url(#clip0_545:17888)"><path d="M27.682 29.754l-.088-13.442-6.733 10.787h-4.606L9.523 16.775v12.979H0V.258h8.593L18.69 15.975 28.524.258h8.593l.088 29.496h-9.523zm39.026-7.501v7.5H40.93V.259h25.202v7.5H51.206v3.455h13.11v7.164h-13.11v3.876h15.502zM69.403.258h15.28c3.455 0 6.497.604 9.125 1.811 2.657 1.18 4.71 2.88 6.156 5.1 1.477 2.218 2.215 4.83 2.215 7.837 0 3.005-.738 5.618-2.215 7.837-1.446 2.22-3.499 3.933-6.156 5.14-2.628 1.18-5.67 1.77-9.124 1.77h-15.28V.259zM84.241 22c2.244 0 4.03-.604 5.36-1.811 1.357-1.236 2.037-2.964 2.037-5.183 0-2.22-.68-3.933-2.038-5.141-1.329-1.236-3.115-1.854-5.36-1.854h-4.384V22h4.385zM104.667.258h10.453v29.496h-10.453V.258zm35.283 24.355h-11.781l-2.082 5.14h-10.63L129.01.259h10.276l13.553 29.496h-10.807l-2.082-5.141zm-2.879-7.163l-3.012-7.417-3.011 7.417h6.023z" fill="#F90"/><path d="M150.359.213h2.905v12.542h8.178v2.338h-11.083V.213zm25.316 15.093c-1.594 0-3.032-.326-4.313-.978-1.281-.666-2.287-1.58-3.016-2.742-.73-1.177-1.095-2.488-1.095-3.933 0-1.446.365-2.75 1.095-3.912.729-1.176 1.735-2.09 3.016-2.742C172.643.333 174.081 0 175.675 0c1.594 0 3.031.333 4.312 1 1.281.651 2.287 1.558 3.017 2.72.73 1.162 1.095 2.473 1.095 3.933s-.365 2.77-1.095 3.933c-.73 1.162-1.736 2.076-3.017 2.742-1.281.652-2.718.978-4.312.978zm0-2.424c1.042 0 1.981-.22 2.815-.659a5.07 5.07 0 001.966-1.87c.477-.808.715-1.708.715-2.7 0-.992-.238-1.885-.715-2.679a4.875 4.875 0 00-1.966-1.87c-.834-.454-1.773-.68-2.815-.68-1.043 0-1.982.226-2.816.68a4.881 4.881 0 00-1.966 1.87c-.477.794-.715 1.687-.715 2.679 0 .992.238 1.892.715 2.7a5.077 5.077 0 001.966 1.87c.834.44 1.773.66 2.816.66zm27.099-5.399h2.749v5.93c-.805.61-1.743 1.078-2.816 1.404a11.307 11.307 0 01-3.307.489c-1.594 0-3.031-.326-4.312-.978-1.281-.666-2.287-1.58-3.017-2.742-.73-1.163-1.095-2.473-1.095-3.933s.365-2.77 1.095-3.933c.73-1.162 1.736-2.069 3.017-2.72 1.296-.667 2.748-1 4.357-1 1.311 0 2.503.205 3.575.616 1.073.411 1.974 1.014 2.704 1.807l-1.832 1.701c-1.192-1.134-2.63-1.7-4.313-1.7-1.102 0-2.085.22-2.949.658a5.042 5.042 0 00-2.012 1.85c-.476.793-.715 1.7-.715 2.72 0 .993.239 1.886.715 2.68a5.196 5.196 0 002.012 1.87c.864.454 1.839.68 2.927.68 1.221 0 2.294-.255 3.217-.765V7.483zm18.803 7.823c-1.594 0-3.032-.326-4.313-.978-1.281-.666-2.287-1.58-3.017-2.742-.729-1.177-1.094-2.488-1.094-3.933 0-1.446.365-2.75 1.094-3.912.73-1.176 1.736-2.09 3.017-2.742C218.545.333 219.983 0 221.577 0c1.594 0 3.031.333 4.312 1 1.281.651 2.287 1.558 3.017 2.72.73 1.162 1.095 2.473 1.095 3.933s-.365 2.77-1.095 3.933c-.73 1.162-1.736 2.076-3.017 2.742-1.281.652-2.718.978-4.312.978zm0-2.424c1.042 0 1.981-.22 2.815-.659a5.07 5.07 0 001.966-1.87c.477-.808.715-1.708.715-2.7 0-.992-.238-1.885-.715-2.679a4.875 4.875 0 00-1.966-1.87c-.834-.454-1.773-.68-2.815-.68-1.043 0-1.982.226-2.816.68a4.875 4.875 0 00-1.966 1.87c-.477.794-.715 1.687-.715 2.679 0 .992.238 1.892.715 2.7a5.07 5.07 0 001.966 1.87c.834.44 1.773.66 2.816.66z" fill="#00CCC0"/><path d="M163.102 24.12c.669.236 1.187.58 1.554 1.031.366.452.55.996.55 1.632 0 .944-.41 1.678-1.23 2.201-.82.513-2.006.77-3.56.77h-6.375V18.978h6.052c1.51 0 2.648.257 3.414.77.776.513 1.165 1.195 1.165 2.047 0 .503-.135.955-.405 1.355-.259.4-.647.723-1.165.97zm-5.307-2.602v1.601h1.78c.83 0 1.246-.267 1.246-.8 0-.534-.416-.8-1.246-.8h-1.78zm2.298 5.696c.841 0 1.262-.282 1.262-.847 0-.564-.421-.846-1.262-.846h-2.298v1.693h2.298zM171.976 30c-1.736 0-3.09-.446-4.061-1.34-.971-.892-1.456-2.144-1.456-3.755v-5.927h3.818v5.82c0 .79.146 1.364.437 1.723.302.36.734.539 1.295.539.561 0 .987-.18 1.278-.539.302-.359.453-.934.453-1.724v-5.819h3.754v5.927c0 1.611-.485 2.863-1.456 3.756-.971.893-2.325 1.34-4.062 1.34zm7.268-11.022h3.819v10.776h-3.819V18.978zm5.657 0h3.819v7.959h5.113v2.817h-8.932V18.978zm9.987 0h5.582c1.262 0 2.373.22 3.333.662.971.431 1.721 1.052 2.25 1.863.539.81.809 1.765.809 2.863s-.27 2.053-.809 2.863c-.529.811-1.279 1.437-2.25 1.878-.96.431-2.071.647-3.333.647h-5.582V18.978zm5.42 7.943c.82 0 1.473-.22 1.958-.662.496-.451.745-1.082.745-1.893 0-.81-.249-1.437-.745-1.878-.485-.451-1.138-.677-1.958-.677h-1.602v5.11h1.602zm17.365.093v2.74h-9.417V18.978h9.207v2.74h-5.453v1.263h4.789v2.616h-4.789v1.417h5.663zm6.324.03h-1.035v2.71h-3.819V18.978h5.453c1.046 0 1.958.164 2.735.493.776.328 1.375.8 1.796 1.416.42.616.631 1.334.631 2.155 0 .77-.184 1.442-.551 2.017-.366.575-.895 1.031-1.585 1.37L230 29.754h-4.077l-1.926-2.71zm1.91-4.002c0-.4-.13-.708-.389-.923-.259-.226-.647-.34-1.165-.34h-1.391v2.526h1.391c.518 0 .906-.108 1.165-.324.259-.226.389-.539.389-.939z" fill="#333"/></g><defs><clipPath id="clip0_545:17888"><path fill="#fff" d="M0 0h230v30H0z"/></clipPath></defs></svg>