<svg width="50" height="50" viewBox="-2 -2 55 55" fill="none" xmlns="http://www.w3.org/2000/svg"><path fill-rule="evenodd" clip-rule="evenodd" d="M17.293 22.207a1 1 0 011.414-1.414L25 27.086l6.293-6.293a1 1 0 011.414 1.414l-7 7a1 1 0 01-1.414 0l-7-7z" fill="#CA9E55"/><path d="M25 48C12.297 48 2 37.703 2 25h-4c0 14.912 12.088 27 27 27v-4zm23-23c0 12.703-10.297 23-23 23v4c14.912 0 27-12.088 27-27h-4zM25 2c12.703 0 23 10.297 23 23h4C52 10.088 39.912-2 25-2v4zm0-4C10.088-2-2 10.088-2 25h4C2 12.297 12.297 2 25 2v-4z" fill="#CA9E55"/></svg>