<svg width="50" height="50" viewBox="-2 -2 55 55" fill="none" xmlns="http://www.w3.org/2000/svg">
<path fill-rule="evenodd" clip-rule="evenodd" d="M17.2929 22.2071C16.9024 21.8166 16.9024 21.1834 17.2929 20.7929C17.6834 20.4024 18.3166 20.4024 18.7071 20.7929L25 27.0858L31.2929 20.7929C31.6834 20.4024 32.3166 20.4024 32.7071 20.7929C33.0976 21.1834 33.0976 21.8166 32.7071 22.2071L25.7071 29.2071C25.3166 29.5976 24.6834 29.5976 24.2929 29.2071L17.2929 22.2071Z" fill="#CA9E55"/>
<path d="M25 48C12.2974 48 2 37.7025 2 25H-2C-2 39.9117 10.0883 52 25 52V48ZM48 25C48 37.7025 37.7025 48 25 48V52C39.9117 52 52 39.9117 52 25H48ZM25 2C37.7025 2 48 12.2975 48 25H52C52 10.0883 39.9117 -2 25 -2V2ZM25 -2C10.0883 -2 -2 10.0883 -2 25H2C2 12.2975 12.2974 2 25 2V-2Z" fill="#CA9E55"/>
</svg>
