<svg width="35" height="35" fill="none" xmlns="http://www.w3.org/2000/svg"><path d="M18.193 28c4.63 0 2.979-2.93 3.336-3.773-.005-.63-.01-1.235.01-1.603.294.082.986.433 2.415 1.823C26.161 26.672 26.725 28 28.508 28h3.281c1.04 0 1.581-.43 1.852-.792.261-.35.517-.963.237-1.917-.732-2.3-5.001-6.268-5.266-6.687.04-.077.104-.18.137-.233h-.003c.843-1.114 4.059-5.932 4.532-7.86a.024.024 0 00.003-.011c.256-.88.021-1.45-.221-1.773-.366-.483-.947-.727-1.732-.727h-3.282c-1.098 0-1.932.553-2.353 1.563-.705 1.793-2.687 5.48-4.172 6.786a85.507 85.507 0 01.01-4.31C21.578 9.992 21.733 8 19.608 8h-5.157c-1.33 0-2.604 1.453-1.226 3.179 1.206 1.512.434 2.354.694 6.549-1.014-1.087-2.816-4.021-4.09-7.772-.358-1.015-.9-1.955-2.423-1.955H4.125C2.795 8.001 2 8.727 2 9.941 2 12.67 8.039 28 18.193 28zM7.407 10c.289 0 .318 0 .533.61 1.305 3.844 4.233 9.531 6.372 9.531 1.607 0 1.607-1.646 1.607-2.266l-.002-4.936c-.088-1.633-.682-2.447-1.073-2.94l4.677.005c.003.023-.027 5.46.014 6.778 0 1.87 1.485 2.942 3.803.596 2.447-2.762 4.14-6.89 4.207-7.058.1-.24.187-.321.501-.321h3.295l-.003.012c-.3 1.4-3.261 5.861-4.252 7.247-.016.02-.03.044-.045.066-.436.712-.79 1.499.06 2.605h.001c.078.094.28.313.572.617.912.94 4.04 4.16 4.318 5.44-.184.029-.384.008-3.484.014-.66 0-1.176-.986-3.146-2.973-1.77-1.723-2.92-2.427-3.966-2.427-2.032 0-1.884 1.65-1.866 3.644.007 2.163-.006 1.479.008 1.615-.118.047-.458.14-1.345.14-8.46 0-13.969-13.428-14.181-15.995.073-.006 1.083-.002 3.395-.004z" fill="#FFC844"/></svg>