<svg width="110" height="92" fill="none" xmlns="http://www.w3.org/2000/svg"><g clip-path="url(#clip0)"><path d="M65.508 29.1c-22.284 0-40.355 18.28-40.355 40.84v9.426h80.701V69.94c.009-22.56-18.053-40.84-40.346-40.84z" fill="#FFDC64"/><path d="M107.412 79.357H46.889c-.853 0-1.55-.705-1.55-1.568V69.94c0-7.444 1.367-14.412 3.752-20.42.366-.907 1.689-.758 1.854.211l3.264 19.17a3.112 3.112 0 003.056 2.607H73.76a3.105 3.105 0 003.055-2.608l6.102-35.81a39.823 39.823 0 00-17.409-3.99 39.793 39.793 0 00-16.66 3.647l-.74.379c-13.563 6.58-22.946 20.578-22.946 36.814v9.426h-1.55c-.853 0-1.549.705-1.549 1.568v2a1.56 1.56 0 001.062 1.497c11.098 3.674 26 5.92 42.4 5.92s31.294-2.255 42.401-5.92a1.574 1.574 0 001.062-1.497v-2c-.018-.872-.714-1.577-1.576-1.577z" fill="#E7B042"/><path d="M68.72 71.508h-6.415c-1.672 0-3.047-1.339-3.1-3.03l-1.34-39.263c-.06-1.78 1.35-3.25 3.1-3.25h9.096c1.758 0 3.16 1.47 3.098 3.25l-1.34 39.263c-.052 1.682-1.428 3.03-3.099 3.03z" fill="#FFF082"/><path d="M107.909 81.41c-11.099 2.625-26.001 4.228-42.401 4.228-16.4 0-31.293-1.612-42.4-4.228-.514-.124-.871-.423-1.002-.784-.017.105-.06.194-.06.308v2a1.56 1.56 0 001.062 1.497c11.098 3.674 26 5.929 42.4 5.929s31.293-2.255 42.401-5.92a1.573 1.573 0 001.061-1.497v-2c0-.106-.043-.203-.06-.308-.131.352-.488.651-1.001.775zM63.358 68.469l-.949-39.263c-.043-1.78.958-3.25 2.202-3.25h-3.647c-1.758 0-3.16 1.47-3.099 3.25l1.34 39.263c.062 1.691 1.428 3.03 3.1 3.03h3.255c-1.184.01-2.159-1.339-2.202-3.03z" fill="#FFDC64"/><path d="M65.508 91.356c-15.895 0-31.067-2.123-42.705-5.973-1.045-.344-1.741-1.33-1.741-2.45v-1.999c0-1.418 1.14-2.572 2.542-2.572h.461l.096-.467V69.94c0-19.468 13.614-36.646 32.364-40.849l.33-.07.035-.335a4.096 4.096 0 011.132-2.457 4.04 4.04 0 012.942-1.269h9.097a4.01 4.01 0 012.942 1.268 4.147 4.147 0 011.131 2.458l.035.335.33.07c18.75 4.203 32.365 21.38 32.365 40.85v8.42h.461c1.497 0 2.638 1.155 2.638 2.573v2c0 1.119-.697 2.105-1.741 2.449-11.647 3.85-26.81 5.973-42.714 5.973zM23.604 80.362a.559.559 0 00-.557.563v2c0 .247.148.467.374.546 11.447 3.788 26.401 5.876 42.096 5.876 15.694 0 30.64-2.088 42.087-5.876.226-.07.374-.29.374-.546v-2a.558.558 0 00-.557-.563H95.008a.998.998 0 01-.992-1.005.998.998 0 01.992-1.004h9.871v-8.422c0-14.711-7.973-28.18-20.795-35.131l-.583-.317-3.247 23.027a.998.998 0 01-.984.864c-.043 0-.096 0-.148-.01a.976.976 0 01-.653-.387 1.03 1.03 0 01-.191-.749l3.342-23.653-.322-.14a38.913 38.913 0 00-6.65-2.247l-.548-.132-1.28 37.457c-.078 2.246-1.872 4-4.091 4h-6.416c-2.22 0-4.021-1.762-4.09-4l-1.28-37.457-.549.132a38.919 38.919 0 00-6.65 2.247l-.322.14 3.342 23.653a.98.98 0 01-.191.74.977.977 0 01-.653.388c-.052.009-.096.009-.14.009-.487 0-.913-.37-.983-.864L47.55 34.474l-.583.317C34.119 41.76 26.154 55.22 26.154 69.931v8.422H79.48c.548 0 .992.45.992 1.004a.998.998 0 01-.992 1.005H23.604zm37.36-53.402c-.574 0-1.114.229-1.514.652-.4.422-.61.977-.592 1.559l1.34 39.263c.044 1.154.966 2.061 2.107 2.061h6.415c1.14 0 2.072-.907 2.107-2.061l1.34-39.263a2.158 2.158 0 00-.592-1.56c-.4-.422-.94-.651-1.523-.651h-9.088z" fill="#444"/><path d="M53.095 67.8c-.487 0-.914-.37-.983-.864l-.444-3.145a.979.979 0 01.191-.74.976.976 0 01.653-.387c.043-.01.096-.01.14-.01a.99.99 0 01.974.864l.444 3.145a1.01 1.01 0 01-.191.749.976.976 0 01-.653.387c-.035-.008-.087 0-.13 0zm24.835 0c-.044 0-.096 0-.148-.01a1.001 1.001 0 01-.836-1.136l.444-3.145a.998.998 0 011.123-.854c.54.08.922.59.844 1.136l-.444 3.145a1.011 1.011 0 01-.983.863zm-63.022-4.951a3.698 3.698 0 01-2.646-1.11l-3.97-4.017a3.788 3.788 0 01-1.097-2.678 3.79 3.79 0 011.097-2.679l3.952-3.999-.157-.308a23.933 23.933 0 01-1.688-4.123l-.105-.335H4.697c-2.063 0-3.743-1.7-3.743-3.788V34.13c0-2.088 1.68-3.788 3.743-3.788h5.597l.105-.335a23.932 23.932 0 011.688-4.122l.157-.309-3.952-3.999a3.829 3.829 0 010-5.365l3.97-4.017a3.698 3.698 0 012.646-1.11c1 0 1.94.396 2.646 1.11l3.952 4 .305-.16a23.344 23.344 0 014.073-1.708l.331-.106V8.548c0-2.088 1.68-3.788 3.743-3.788h5.615c2.063 0 3.743 1.7 3.743 3.788v5.664l.33.106c1.41.44 2.777 1.013 4.074 1.71l.305.158 3.952-4c.67-.678 1.636-1.066 2.646-1.066s1.976.388 2.655 1.066l3.97 4.017a3.788 3.788 0 011.096 2.678 3.824 3.824 0 01-1.097 2.687l-3.952 4 .157.308c.33.634.636 1.286.914 1.956-.6.15-1.219.308-1.837.493a21.801 21.801 0 00-1.218-2.431.957.957 0 01.148-1.154l4.465-4.52c.348-.352.548-.828.548-1.339 0-.502-.191-.977-.548-1.339l-3.97-4.017a1.857 1.857 0 00-1.322-.537c-.505 0-.984.194-1.323.537l-4.466 4.52a.896.896 0 01-.662.281.935.935 0 01-.478-.132 21.301 21.301 0 00-5.554-2.325.943.943 0 01-.705-.925V8.548c0-1.04-.836-1.885-1.863-1.885h-5.614a1.876 1.876 0 00-1.863 1.885v6.396c0 .431-.287.81-.705.924a21.554 21.554 0 00-5.554 2.326.934.934 0 01-.478.132.896.896 0 01-.662-.282l-4.465-4.519a1.846 1.846 0 00-1.324-.555c-.496 0-.966.194-1.323.555l-3.969 4.017a1.909 1.909 0 000 2.678l4.465 4.52a.957.957 0 01.148 1.154 21.844 21.844 0 00-2.298 5.62.935.935 0 01-.914.713H4.697c-1.027 0-1.863.846-1.863 1.886v5.682c0 1.04.836 1.885 1.863 1.885h6.32c.426 0 .8.29.905.713a21.972 21.972 0 002.298 5.62.957.957 0 01-.148 1.155l-4.465 4.519a1.897 1.897 0 00-.549 1.339c0 .502.192.978.549 1.339l3.969 4.017c.357.352.818.555 1.323.555.496 0 .966-.194 1.323-.555l4.466-4.52a.935.935 0 011.149-.15l.043.027a51.557 51.557 0 00-1.018 2.643l-3.3 3.339a3.65 3.65 0 01-2.654 1.128z" fill="#444"/><path d="M26.372 47.423A12.405 12.405 0 0120.6 36.958c0-6.792 5.457-12.315 12.169-12.315 4.77 0 9.061 2.8 11.055 7.17-.557.291-1.114.6-1.663.908-1.645-3.718-5.353-6.176-9.392-6.176-5.676 0-10.29 4.67-10.29 10.413 0 3.665 1.898 7.03 4.989 8.915-.375.52-.74 1.04-1.097 1.55z" fill="#444"/></g><defs><clipPath id="clip0"><path fill="#fff" transform="translate(.954 .355)" d="M0 0h109v91H0z"/></clipPath></defs></svg>