<svg width="79" height="81" fill="none" xmlns="http://www.w3.org/2000/svg"><g clip-path="url(#clip0)"><path d="M14.454 1.027v48.716M20.83 1.027v48.716m6.385-48.716v48.716m6.383-48.716v48.716m6.384-48.716v48.716m6.384-48.716v48.716M52.75 1.027v48.716m6.376-48.716v48.716m-46.47-1.813H60.93m-48.274-6.443H60.93m-48.274-6.442H60.93m-48.274-6.442H60.93m-48.274-6.435H60.93m-48.274-6.443H60.93M12.656 9.283H60.93M12.656 2.84H60.93" stroke="#444" stroke-width="2" stroke-miterlimit="10" stroke-linecap="round" stroke-linejoin="round"/><path d="M75.994 56.87l-16.9 20.698-36.186-10.346L37.12 54.936l35.493-1.706 3.381 3.64z" fill="#fff" stroke="#444" stroke-width="2" stroke-miterlimit="10" stroke-linecap="round" stroke-linejoin="round"/><path d="M71.92 51.369l5.073 2.714L51.95 68.425 27.215 58.65l44.706-7.282z" fill="#fff" stroke="#444" stroke-width="2" stroke-miterlimit="10" stroke-linecap="round" stroke-linejoin="round"/><path d="M72.846 48.265l4.147 3.332L43.19 63.225l-11.675-9.142 41.33-5.818z" fill="#fff" stroke="#444" stroke-width="2" stroke-miterlimit="10" stroke-linecap="round" stroke-linejoin="round"/><path d="M61.516 38.962l16.475 10.23-47.362 9.076-4.726-13.025 35.613-6.281z" fill="#fff" stroke="#444" stroke-width="2" stroke-miterlimit="10" stroke-linecap="round" stroke-linejoin="round"/><path d="M15.246 28.428l-6.624.873-4.44 1.223-2.243 1.162v1.512l5.066 1.86 9.739.525 7.954.41 8.834-1.398 2.862-1.511.573-1.284-2.417-1.625-11.236-1.747h-8.068z" fill="#E7B042"/><path d="M35.296 57.1l1.843-2.681-1.224-1.277-.62-18.957-6.07 1.089-5.392.188v43.731h5.705l4.952-1.457 2.077-1.163.4-1.276-1.611-.813-.06-17.385z" fill="#FFDC64"/><path d="M20.198 35.583L2.745 34.185v18.957l-1.272.914.633 1.41.639 1.049v17.674l-1.272 1.457 1.272 1.8 7.834 1.747h13.254V35.462l-3.635.12z" fill="#E7B042"/><path d="M19.167 80.356c6.956 0 18.731-.954 18.731-4.521v-.155c0-.524-.273-1.008-.719-1.276a4.406 4.406 0 00-.912-.625v-4.111a.815.815 0 00-.812-.82.815.815 0 00-.812.82v4.11c0 .088.02.176.047.256a.91.91 0 000 .33.814.814 0 00.473.819l.246.107c.286.135.619.282.812.39l.06.067c-.546 1.028-6.564 2.795-17.101 2.795-10.538 0-16.522-1.767-17.061-2.788l.067-.08c.186-.115.512-.256.812-.377l.246-.107a.82.82 0 00.466-.82.876.876 0 000-.322.865.865 0 00-.007-.262v-16.58c4 1.357 10.817 1.78 15.47 1.78 1.385 0 2.77 0 4.074-.1a.818.818 0 00.779-.86.816.816 0 00-.852-.786c-1.318.067-2.67.1-4.074.1-8.094 0-13.526-1.054-15.843-2.008a.738.738 0 00-.28-.12 1.984 1.984 0 01-.911-.693c.293-.174.592-.335.905-.47l.226-.1c.034-.02.06-.04.087-.068a.693.693 0 00.16-.114c.06-.087.12-.175.173-.262a.951.951 0 000-.195.813.813 0 00.073-.08V35.012c4 1.357 10.817 1.78 15.47 1.78 4.653 0 11.476-.43 15.47-1.78v18.325a.947.947 0 000 .195c.053.087.113.175.173.262.047.047.107.08.16.114.026.027.06.047.086.067l.227.101c.3.121.599.269.878.43-.3.33-.672.578-1.091.726-1.212.544-3.575 1.222-7.888 1.645a.812.812 0 00-.773.86.81.81 0 00.852.78h.08a35.795 35.795 0 007.29-1.324v9.19c0 .457.365.82.811.82.453 0 .813-.37.813-.82V56.52c.998-.55 1.63-1.215 1.63-2.035 0-.954-.732-1.364-1.63-1.767V34.333c1.018-.557 1.63-1.236 1.63-2.049 0-3.573-11.775-4.527-18.731-4.527-1.97 0-3.908.067-5.758.188a.82.82 0 00-.76.88c.034.457.42.8.873.765 1.81-.12 3.714-.188 5.645-.188 10.803 0 16.88 1.875 17.1 2.869-.046.221-.399.483-1.011.766a.752.752 0 00-.26.114c-2.31.954-7.741 2.008-15.83 2.008-8.087 0-13.466-1.048-15.796-1.995a.906.906 0 00-.306-.14c-.586-.27-.925-.525-.978-.746-.047-.222 1.504-1.498 7.435-2.291a.823.823 0 00.706-.927.819.819 0 00-.919-.712c-5.871.806-8.853 2.123-8.853 3.93 0 .82.612 1.477 1.63 2.048v18.38c-.898.396-1.63.82-1.63 1.76 0 .82.612 1.478 1.63 2.049v17.264a4.716 4.716 0 00-.911.631 1.477 1.477 0 00-.72 1.27v.155c0 3.567 11.776 4.52 18.733 4.52z" fill="#444"/><path d="M28.153 33.447c.827 0 1.498-.386 1.498-.86 0-.475-.67-.86-1.498-.86-.827 0-1.498.385-1.498.86 0 .474.67.86 1.498.86z" fill="#444"/></g><defs><clipPath id="clip0"><path fill="#fff" transform="translate(.435 .355)" d="M0 0h78.222v80H0z"/></clipPath></defs></svg>