<svg width="119" height="81" fill="none" xmlns="http://www.w3.org/2000/svg"><g clip-path="url(#clip0)"><path d="M77.352 1.628v11.278l-3.197.714v31.3l3.197.407v11.486l-11.324 5.185-29.026-10.363v-10.68l2.83-1.014V13.006l-4.293-1.014v-9.15L65.94.913l11.413.715z" fill="#FFDC64" stroke="#444" stroke-width="2" stroke-miterlimit="10" stroke-linecap="round" stroke-linejoin="round"/><path d="M63.822.998v12.215l4.307.915v33.235l-2.386 2.543.285 12.093 11.324-5.01-.045-11.593-2.98-.614.09-31.223 2.935-.653V1.628l-13.53-.63z" fill="#E7B042" stroke="#444" stroke-width="2" stroke-miterlimit="10" stroke-linecap="round" stroke-linejoin="round"/><path d="M63.822 2.035v11.178l4.307.915v33.235l-2.386 2.543v11.947" fill="#FFDC64"/><path d="M63.822 2.035v11.178l4.307.915v33.235l-2.386 2.543v11.947m-1.921-48.64l-27.623-1.067m28.824 38.713l-28.02-9.757" stroke="#444" stroke-width="2" stroke-miterlimit="10" stroke-linecap="round" stroke-linejoin="round"/><path d="M56.61 62.475l6.56 3.104-.016 2.558-1.463 3.995-2.161 1.621-5.831-2.236" fill="#fff"/><path d="M56.61 62.475l6.56 3.104-.016 2.558-1.463 3.995-2.161 1.621-5.831-2.236" stroke="#444" stroke-width="2" stroke-miterlimit="10" stroke-linecap="round" stroke-linejoin="round"/><path d="M56.873 52.019l3.61 2.151-.518 3.042-2.522-.422" fill="#fff"/><path d="M56.873 52.019l3.61 2.151-.518 3.042-2.522-.422m-6.16 20.405l4.285.983 1.253-3.48-3.227-2.182" stroke="#444" stroke-width="2" stroke-miterlimit="10" stroke-linecap="round" stroke-linejoin="round"/><path d="M56.706 66.69c2.04-7.698 1.576-14.527-1.036-15.252-2.612-.726-6.383 4.927-8.423 12.626-2.04 7.698-1.576 14.527 1.036 15.252 2.612.726 6.383-4.927 8.423-12.626z" fill="#fff" stroke="#444" stroke-width="2" stroke-miterlimit="10" stroke-linecap="round" stroke-linejoin="round"/><path d="M52.776 67.469L23.526 55.69l1.582-4.126 28.486 11.47-.818 4.434z" fill="#fff" stroke="#444" stroke-width="2" stroke-miterlimit="10" stroke-linecap="round" stroke-linejoin="round"/><path d="M26.917 51.68l-.6 5.709m2.896-4.479l-.6 5.708m2.807-5.001l-.601 5.708m3.069-4.817l-.6 5.7m3.002-4.924l-.6 5.7m2.963-4.686l-.6 5.708m2.972-4.648l-.6 5.708m3.481-4.632l-.6 5.708m2.874-4.786l-.6 5.7m3.046-4.771l-.6 5.701m2.972-4.64l-.6 5.708" stroke="#444" stroke-width="2" stroke-miterlimit="10" stroke-linecap="round" stroke-linejoin="round"/><path d="M70.913 75.582l-9.192-3.703 1.583-4.126 8.953 3.603-1.344 4.226z" fill="#fff" stroke="#444" stroke-width="2" stroke-miterlimit="10" stroke-linecap="round" stroke-linejoin="round"/><path d="M65.113 67.868l-.6 5.708m2.888-4.479l-.592 5.709m2.806-5.002l-.6 5.709m-6.154-7.345l-5.883-2.535m4.285 5.931l-5.275-2.213" stroke="#444" stroke-width="2" stroke-miterlimit="10" stroke-linecap="round" stroke-linejoin="round"/><path d="M8.464 41.624L5.035 51.973l18.017 6.906 3.392-10.932-17.98-6.323z" fill="#FFDC64" stroke="#444" stroke-width="2" stroke-miterlimit="10" stroke-linecap="round" stroke-linejoin="round"/><path d="M7.954 53.187l-6.408 20.45c-.27.869.172 1.806 1.013 2.121.878.33 1.846-.146 2.146-1.052l6.61-19.922" stroke="#444" stroke-width="2" stroke-miterlimit="10" stroke-linecap="round" stroke-linejoin="round"/><path d="M96.832 42.392l3.01-2.505s5.718.945 9.057 3.281c.36.254 6.709 4.38 8.067 9.58 0 0 2.214 2.743.42 3.857-1.786 1.106-2.754-1.183-2.829-2.082-.278-3.542-10.348-6.392-10.348-6.392s-1.478-.369-2.822 0c-1.628.446-2.026 1.152-2.026 1.152l-2.529-6.891z" fill="#fff" stroke="#444" stroke-width="2" stroke-miterlimit="10" stroke-linecap="round" stroke-linejoin="round"/><path d="M118.092 55.883s.225 5.654-.278 6.361c-.503.707-2.702 1.03-3.7-.322v-3.757l-9.237-6.569s-1.111-.5-1.771-.192c-.66.307-2.476 1.529-2.476 1.529m.382 16.602l-.728 5.847s-.908 1.152-3.452.837c-2.543-.323-5.02-2.604-5.958-2.697-.938-.092-6.296-1.075-7.249-1.367-2.086-.63-3.009-.838-4.292-1.813-2.972-2.267-5.478-3.941-4.285-16.272" stroke="#444" stroke-width="2" stroke-miterlimit="10" stroke-linecap="round" stroke-linejoin="round"/><path d="M85.629 59.64l3.061 3.903s5.876 5.539 6.634 5.055c4.518-2.843 7.437.768 4.473 1.298 0 0-14.678.576-21.312-7.275-4.517-5.54-3.294-6.454-3.437-9.926l.233-1.637L95.09 39.88s6.492 2.604 5.884 8.72l-.33 6.7-12.142 7.997" fill="#fff"/><path d="M85.629 59.64l3.061 3.903s5.876 5.539 6.634 5.055c4.518-2.843 7.437.768 4.473 1.298 0 0-14.678.576-21.312-7.275-4.517-5.54-3.294-6.454-3.437-9.926l.233-1.637L95.09 39.88s6.492 2.604 5.884 8.72l-.33 6.7-12.142 7.997" stroke="#444" stroke-width="2" stroke-miterlimit="10" stroke-linecap="round" stroke-linejoin="round"/><path d="M94.881 46.433V19.721s-1.44-2.828-3.511-1.86c-2.072.96-1.944 4.564-.443 5.14.315 0 0 5.716 0 5.716s-3.7 6.999-4.143 8.351c-.442 1.352-1.32 13.552-1.32 13.552l1.816 1.091s1.32-12.461 1.568-13.805c.248-1.353 3.85-6.423 3.85-6.423s.608-2.313.608-2.889v-4.948s-3.265-1.813-1.126-4.302c.75-.807 2.244-.061 2.244-.061" fill="#fff"/><path d="M94.881 46.433V19.721s-1.44-2.828-3.511-1.86c-2.072.96-1.944 4.564-.443 5.14.315 0 0 5.716 0 5.716s-3.7 6.999-4.143 8.351c-.442 1.352-1.32 13.552-1.32 13.552l1.816 1.091s1.32-12.461 1.568-13.805c.248-1.353 3.85-6.423 3.85-6.423s.608-2.313.608-2.889v-4.948s-3.265-1.813-1.126-4.302c.75-.807 2.244-.061 2.244-.061" stroke="#444" stroke-width="2" stroke-miterlimit="10" stroke-linecap="round" stroke-linejoin="round"/><path d="M95.106 44.205l1.884 1.69-9.553 6.054-3.482-2.358 1.441-.937" stroke="#444" stroke-width="2" stroke-miterlimit="10" stroke-linecap="round" stroke-linejoin="round"/><path d="M93.95 38.666L93.928 42l-4.91 2.943.357-3.427 4.573-2.85z" fill="#fff"/></g><defs><clipPath id="clip0"><path fill="#fff" transform="translate(.713 .145)" d="M0 0h118.182v80H0z"/></clipPath></defs></svg>