<svg width="100" height="81" fill="none" xmlns="http://www.w3.org/2000/svg"><g clip-path="url(#clip0)"><path d="M13.704 54.554l-5.939 9.969m5.939-10.4l5.765 10.075m25.491 5.107l-5.94 9.96m5.94-10.39l5.755 10.066m40.182-20.458l-5.94 9.96m5.94-10.39l5.756 10.066M63.36 42.633l-5.939 9.96m5.939-10.391l5.757 10.066M30.198 23.17v35.99m17.766-40.457v35.85m15.718-39.059v34.99M45.168 35.38v42.462M59.52 29.05v45.02m15.64-45.02v40.932m15.65-44.51v40.686" stroke="#444" stroke-width="2" stroke-miterlimit="10" stroke-linecap="round" stroke-linejoin="round"/><path d="M27.708 35.723v4.739l62.77-16.264-1.471-4.43-61.3 15.955z" fill="#fff"/><path d="M13.704 27.996v35.437M25.33 36.022l71.75-18.593M25.33 41.077l71.75-18.594M27.708 36.25v3.306M1.826 25.473l71.75-18.594M1.826 30.527l71.75-18.593M4.047 25.754v3.297" stroke="#444" stroke-width="2" stroke-miterlimit="10" stroke-linecap="round" stroke-linejoin="round"/><path d="M93.614 22.264v3.868l-1.394-.088-42.89-17.45.741-4.528 2.29.958 41.253 17.24z" fill="#E7B042"/><path d="M96.862 22.932L48.86 3.573m47.105 23.834L47.964 8.04m46.468 14.224v3.868M49.33 3.969v4.07" stroke="#444" stroke-width="2" stroke-miterlimit="10" stroke-linecap="round" stroke-linejoin="round"/><path d="M78.339 26.545v3.868l-1.394-.088-42.88-17.45.74-4.528 2.282.959 41.252 17.24z" fill="#E7B042"/><path d="M81.587 27.213L33.586 7.855M80.69 31.68L32.698 12.32m46.459 14.216v3.877M34.065 8.25v4.07" stroke="#444" stroke-width="2" stroke-miterlimit="10" stroke-linecap="round" stroke-linejoin="round"/><path d="M62.446 31.855v3.868l-1.393-.088-42.881-17.45.74-4.537 2.282.967 41.252 17.24z" fill="#E7B042"/><path d="M65.694 32.523L17.701 13.165M64.797 36.99L16.805 17.63m46.468 14.216v3.877M18.172 13.56v4.07" stroke="#444" stroke-width="2" stroke-miterlimit="10" stroke-linecap="round" stroke-linejoin="round"/><path d="M47.467 36.03v3.86l-1.384-.08-42.89-17.459.74-4.527 2.29.967 41.244 17.24z" fill="#E7B042"/><path d="M50.715 36.699L2.724 17.34m47.103 23.825L1.826 21.807m46.468 14.215v3.868M3.193 17.727v4.08" stroke="#444" stroke-width="2" stroke-miterlimit="10" stroke-linecap="round" stroke-linejoin="round"/><path d="M2.732 17.42L55.13 1.587a1 1 0 01.6.009l43.404 14.268c.958.316.914 1.697-.061 1.951L69.7 25.526a1.02 1.02 0 01-.627-.035l-23.687-9.512a1.02 1.02 0 00-.627-.044l-30.523 7.903a1.022 1.022 0 01-.628-.043L2.636 19.328c-.88-.343-.819-1.636.096-1.908z" fill="#E7B042"/><path d="M2.322 16.013L54.722.19a1 1 0 01.6.009l43.403 14.268c.959.316.915 1.697-.06 1.952l-29.374 7.71a1.02 1.02 0 01-.627-.036L44.977 14.58a1.02 1.02 0 00-.627-.044L13.826 22.44a1.021 1.021 0 01-.627-.043L2.227 17.93c-.88-.352-.82-1.636.095-1.917z" fill="#FFDC64"/></g><defs><clipPath id="clip0"><path fill="#fff" transform="translate(.955 .145)" d="M0 0h98.876v80H0z"/></clipPath></defs></svg>