<svg width="142" height="81" fill="none" xmlns="http://www.w3.org/2000/svg"><g clip-path="url(#clip0)"><path d="M55.423 5.304V50.97l47.74 9.813.568-58.552-48.308 3.073z" fill="#E7B042"/><path d="M52.356 3.848v49.288m8.887-49.622v51.209m9.999-52.06v54.64M81.925 1.866v58.01m9.82-58.62v61.533M100.861.657v63.761M112.982 2.23v56.128m-12.121 6.665L52.356 53.136m48.505 11.888l12.307-6.117M100.33 7.532l-47.573 1.29M100.861.54L52.757 3.86m48.104 9.962H52.683m48.178 6.282l-48.178-.981m48.178 7.647l-48.178-2.345m48.178 8.863l-48.178-4.32m48.178 10.609l-48.505-5.382m48.505 11.665l-48.178-6.586m47.876 13.029l-48.203-8.412m48.048 14.467l-48.048-9.24m48.882-41.814l11.745.87m-12.122 5.648h11.665m-11.665 6.283l12.122-.488m-12.122 7.153l11.665-1.512m-11.665 8.03l12.122-2.16m-12.122 8.449l12.122-2.691m-11.745 8.671l11.745-2.993m-12.424 9.739l12.424-4.209m-12.122 10.264l11.665-4.617M66.243 16.167l-23.935 47.27 25.009-19.373m21.398-27.897l-23.428 54.54 23.428-23.736m19.947-30.298l31.964 50.498-33.025-20.706M100.985.645l11.998 1.586" stroke="#444" stroke-width="1.5" stroke-miterlimit="10" stroke-linecap="round" stroke-linejoin="round"/><path d="M44.721 49.55l6.796 19.152-12.03 5.684-4.838-23.138L44.72 49.55z" fill="#fff"/><path d="M9.455 11.618v58.695m9.82-59.084v6.95m15.362-6.666v6.666m-6.247-7.555v64.237m12.122-62.194V68.8M28.39 75.466L9.456 70.825m18.934 4.641l12.307-6.116M27.86 17.969l-18.405.5m19.065-7.604l-19.065.753m18.935 12.64H9.456m18.934 6.289l-18.935-.389m18.935 7.055l-18.935-.926m18.935 7.437L9.456 42.027m18.934 7.986L9.889 47.964m18.501 8.339L9.456 53.365m18.632 9.375L9.455 59.487M27.934 68.8L9.455 65.247m19.312-47.5l11.746.87M28.767 10.68l11.746 1.857M28.39 24.258h11.666M28.39 30.547l12.122-.494m-12.122 7.16l11.666-1.518M28.39 43.724l12.122-2.154M28.39 50.013l12.122-2.69M28.767 56l11.746-2.993M28.088 62.74l12.424-4.203M28.39 68.8l11.666-4.622M16.244 26.61L.463 79.613l15.781-22.2M36.192 27.11l14.843 52.504L35.13 56.907" stroke="#444" stroke-width="1.5" stroke-miterlimit="10" stroke-linecap="round" stroke-linejoin="round"/></g><defs><clipPath id="clip0"><path fill="#fff" transform="translate(0 .077)" d="M0 0h141.089v80H0z"/></clipPath></defs></svg>