<svg width="100" height="81" fill="none" xmlns="http://www.w3.org/2000/svg"><g clip-path="url(#clip0)"><path d="M24.06 4.838V2.755c0-.968.784-1.755 1.747-1.755.963 0 1.746.787 1.746 1.755V5.03m23.85-.192V2.755c0-.968.443-1.755.995-1.755.546 0 .995.787.995 1.755V5.03m2.979.15H15.548v14.195h40.824V5.18zm0 14.195L40.669 42.252H32.13L15.548 19.375" stroke="#444443" stroke-width="2" stroke-miterlimit="10" stroke-linecap="round" stroke-linejoin="round"/><path d="M27.226 19.375v35.492m27.676-35.492v32.138M18.193 23.032v26.856m0-.11c3.203-1.425 9.752-2.399 17.301-2.399 10.715 0 19.401 1.967 19.401 4.386 0 2.418-8.686 4.386-19.4 4.386-2.96 0-5.766-.149-8.276-.42" stroke="#444" stroke-width="2" stroke-miterlimit="10" stroke-linecap="round" stroke-linejoin="round"/><path d="M15.548 17.118h40.824M40.483 42.252H32.13v3.515h8.353v-3.515z" stroke="#444443" stroke-width="2" stroke-miterlimit="10" stroke-linecap="round" stroke-linejoin="round"/><path d="M80.926 67.363V54.965l-4.794 2.068V42.842l-17.726-1.738V54.86l17.495 15.39h1.237l3.788-2.888z" fill="#fff" stroke="#444" stroke-width="2" stroke-miterlimit="10" stroke-linecap="round" stroke-linejoin="round"/><path d="M60.136 41.367v6.768c0 1.145.835 2.118 1.961 2.283l9.04 1.346a2.303 2.303 0 002.638-2.282v-6.836" stroke="#444" stroke-width="2" stroke-miterlimit="10" stroke-linecap="round" stroke-linejoin="round"/><path d="M52.394 59.965l6.012-4.553 3.131.428.049-1.01a1.613 1.613 0 011.797-1.53l1.773.209c.511.06.956.36 1.212.807l.59 1.047 1.03-.826c.317-.257.725-.38 1.127-.35l2.083.16c.81.061 1.444.722 1.487 1.536l.164 3.525-5.89 10.844-4.892-.325-5.434.943-4.24-10.905z" fill="#fff" stroke="#444" stroke-width="2" stroke-miterlimit="10" stroke-linecap="round" stroke-linejoin="round"/><path d="M60.44 69.995L55.8 68.93c-1.206-.276-2.053-1.298-2.053-2.473v-6.113c0-1.597 1.529-2.797 3.186-2.503l4.642.832c1.267.227 2.187 1.28 2.187 2.503v6.346c0 1.647-1.627 2.864-3.32 2.473z" fill="#E7B042" stroke="#444" stroke-width="2" stroke-miterlimit="10" stroke-linecap="round" stroke-linejoin="round"/><path d="M73.39 65.382c.713-3.354-.408-6.439-2.503-6.889-2.096-.45-4.373 1.905-5.087 5.26-.714 3.355.407 6.439 2.502 6.889 2.096.45 4.373-1.905 5.087-5.26z" fill="#fff" stroke="#444" stroke-width="2" stroke-miterlimit="10" stroke-linecap="round" stroke-linejoin="round"/><path d="M77.098 66.332c.66-3.1-.366-5.948-2.29-6.362-1.925-.413-4.02 1.765-4.68 4.866-.66 3.1.366 5.948 2.29 6.361 1.925.413 4.02-1.765 4.68-4.865z" fill="#fff" stroke="#444" stroke-width="2" stroke-miterlimit="10" stroke-linecap="round" stroke-linejoin="round"/><path d="M74.805 59.965l-3.917-1.475m1.528 12.704l-4.111-.55" stroke="#444" stroke-width="2" stroke-miterlimit="10" stroke-linecap="round" stroke-linejoin="round"/><path d="M79.367 61.415l5.001.496-.274 2.802-5.001-.495a1.405 1.405 0 01-1.255-1.536 1.394 1.394 0 011.529-1.267z" fill="#fff" stroke="#444" stroke-width="2" stroke-miterlimit="10" stroke-linecap="round" stroke-linejoin="round"/><path d="M89.499 63.94c.362-3.679-.953-6.822-2.938-7.02-1.986-.197-3.889 2.626-4.252 6.306-.362 3.679.953 6.822 2.939 7.02 1.985.197 3.888-2.626 4.25-6.305z" fill="#fff" stroke="#444" stroke-width="2" stroke-miterlimit="10" stroke-linecap="round" stroke-linejoin="round"/><path d="M91.715 65.809l-5.002-.496.275-2.803 5 .496c.768.08 1.335.765 1.255 1.536a1.403 1.403 0 01-1.528 1.267z" fill="#fff" stroke="#444" stroke-width="2" stroke-miterlimit="10" stroke-linecap="round" stroke-linejoin="round"/><path d="M69.81 57.437a.995.995 0 00.992-.997.995.995 0 00-.993-.998.995.995 0 00-.992.998c0 .55.444.997.992.997zm-5.855-.857a.995.995 0 00.993-.997.995.995 0 00-.993-.998.995.995 0 00-.992.998c0 .55.444.997.992.997zm15.107 2.644a.6.6 0 000-1.2.598.598 0 00-.597.6c0 .332.268.6.597.6zm-10.867 1.811a.6.6 0 000-1.2.598.598 0 00-.597.6c0 .332.267.6.597.6zm-.828 8.592a.599.599 0 000-1.199.598.598 0 00-.597.6c0 .33.267.6.597.6zm11.695-2.735a.6.6 0 000-1.2.598.598 0 00-.597.6c0 .332.268.6.597.6z" fill="#444"/><path d="M56.627 70.87L52.4 69.842a2.46 2.46 0 01-1.87-2.393v-5.906a2.452 2.452 0 012.905-2.417l4.228.808a2.456 2.456 0 011.992 2.417v6.126c0 1.591-1.486 2.766-3.028 2.393z" fill="#FFDC64" stroke="#444" stroke-width="2" stroke-miterlimit="10" stroke-linecap="round" stroke-linejoin="round"/><path d="M59.71 41.232l-2.632-.245m40.034 23.947l-3.844-.404" stroke="#444" stroke-width="2" stroke-miterlimit="10" stroke-linecap="round" stroke-linejoin="round"/><path d="M52.826 61.966c.33 0 .597-.269.597-.6 0-.331-.267-.6-.597-.6a.598.598 0 00-.597.6c0 .331.267.6.597.6zm-.116 6.132c.33 0 .597-.269.597-.6 0-.331-.267-.6-.596-.6a.598.598 0 00-.597.6c0 .331.267.6.597.6zm4.868-5.22a.6.6 0 000-1.2.598.598 0 00-.597.6c0 .331.267.6.597.6zm0 6.382a.599.599 0 000-1.199.598.598 0 00-.597.6c0 .331.267.6.597.6z" fill="#444"/><path d="M12.498 77.35l4.27 2.36 20.53-5.178 2.748-3.11M16.767 76.37v2.818M1.097 71.48l4.269 2.361 20.53-5.179 2.748-3.108M5.366 70.5v2.826m31.521-1.903v2.818" stroke="#444" stroke-width="2" stroke-miterlimit="10" stroke-linecap="round" stroke-linejoin="round"/><path d="M37.298 50.855L25.274 45.16l-20.53 4.225v19.968l12.023 6.526" fill="#E7B042"/><path d="M37.298 50.855L25.274 45.16l-20.53 4.225v19.968l12.023 6.526m0-20.883L4.743 49.385" stroke="#444" stroke-width="2" stroke-miterlimit="10" stroke-linecap="round" stroke-linejoin="round"/><path d="M16.767 54.996v20.883l20.531-5.172V50.855l-20.53 4.14z" fill="#FFDC64" stroke="#444" stroke-width="2" stroke-miterlimit="10" stroke-linecap="round" stroke-linejoin="round"/><path d="M20.658 59.414c.45 0 .815-.367.815-.82a.817.817 0 00-.815-.818.817.817 0 00-.815.819c0 .452.365.819.815.819zm0 3.308c.45 0 .815-.366.815-.819a.817.817 0 00-.815-.819.817.817 0 00-.815.82c0 .452.365.818.815.818zm4.262-4.147a.817.817 0 00.816-.819.817.817 0 00-.815-.819.817.817 0 00-.816.82c0 .452.366.818.816.818zm0 3.309a.818.818 0 00.816-.82.817.817 0 00-.815-.818.817.817 0 00-.816.819c0 .452.366.819.816.819zm3.981-4.108c.45 0 .815-.367.815-.82a.817.817 0 00-.815-.819.817.817 0 00-.815.82c0 .452.365.819.815.819zm0 3.308c.45 0 .815-.367.815-.819a.817.817 0 00-.815-.819.817.817 0 00-.815.82c0 .452.365.818.815.818zm4.096-4.16c.45 0 .815-.366.815-.819a.817.817 0 00-.815-.819.817.817 0 00-.815.82c0 .452.365.818.815.818zm0 3.309c.45 0 .815-.367.815-.82a.817.817 0 00-.815-.818.817.817 0 00-.815.819c0 .452.365.819.815.819zm-8.077 4.973a.818.818 0 00.816-.82.817.817 0 00-.815-.819.817.817 0 00-.816.82c0 .452.366.819.816.819zm3.981-.8c.45 0 .815-.367.815-.82a.817.817 0 00-.815-.818.817.817 0 00-.815.819c0 .452.365.819.815.819zm4.096-.858c.45 0 .815-.367.815-.819a.817.817 0 00-.815-.82.817.817 0 00-.815.82c0 .452.365.82.815.82zm-8.077 5.018a.818.818 0 00.816-.82.817.817 0 00-.815-.819.817.817 0 00-.816.82c0 .452.366.819.816.819zm3.981-.8c.45 0 .815-.367.815-.819a.817.817 0 00-.815-.82.817.817 0 00-.815.82c0 .452.365.82.815.82zm4.096-.851c.45 0 .815-.367.815-.82a.817.817 0 00-.815-.818.817.817 0 00-.815.819c0 .452.365.819.815.819z" fill="#444"/></g><defs><clipPath id="clip0"><path fill="#fff" transform="translate(.455 .355)" d="M0 0h99.091v80H0z"/></clipPath></defs></svg>