<svg version="1.1" id="Слой_1" xmlns="http://www.w3.org/2000/svg" x="0" y="0" viewBox="0 0 1686 2731" xml:space="preserve"><style>.st0{fill-rule:evenodd;clip-rule:evenodd;fill:#fff}</style><g id="Слой_x0020_1"><path class="st0" d="M472.2 646.6c-59.6 59.6-17 161.6 51 182.9l1046.5-63.8C842.3 829.5 2178.1-599.8 472.2 646.6z"/><path class="st0" d="M1369.8 4.3c85.1-25.5 204.2 123.4 263.7 336.1 55.3 208.4 34 399.9-51 421.1-85.1 25.5-204.2-123.4-263.7-336.1-55.3-208.5-34.1-399.9 51-421.1z"/><path d="M1293.2 136.1c268-25.5 51 212.7 46.8 353.1-55.3-165.9-55.3-297.8-46.8-353.1zM782.8 723.2h68.1l4.3 127.6c0 51 8.5 46.8 63.8 46.8h161.6v76.6l-229.7 4.3c-46.8 0-63.8-8.5-63.8-59.6l-4.3-195.7zm357.3-34.1l72.3-4.3 4.3 195.7c4.3 63.8 4.3 93.6-59.6 93.6h-4.3c.1-85-8.4-204.1-12.7-285z" fill-rule="evenodd" clip-rule="evenodd" fill="#fff"/><path fill="none" d="M1361.3 799.7h71.7v254.7h-71.7z"/><path d="M127.7 1539.9c599.8-42.5 446.7-540.2 302-510.5-68.1 12.8-123.4 110.6-68.1 242.5 85.1 204.2 319 119.1 433.9-110.6 34-63.8 80.8-268 165.9-216.9 42.5 21.3 25.5 93.6-8.5 187.2-191.4 591.3-812.5 302-906.1 689.1-12.8 59.6-25.5 242.5-17 306.3 12.8 119.1 89.3 29.8 97.8-93.6 8.5-157.4 29.8-263.7 119.1-246.7 76.6 12.8 72.3 340.3-51 578.5-72.3 140.4-204.2 182.9-178.7 268 17 59.6 76.6 106.3 136.1 76.6 46.8-17-8.5-127.6 25.5-165.9 833.8-982.6 8.5-918.8 272.2-531.7 63.8 93.6 93.6 157.4 114.9 212.7 29.8 102.1 34 199.9 12.8 336.1-12.8 110.6 8.5 136.1 80.8 136.1 97.8 0 161.6-21.3 51-102.1-38.3-25.5-29.8-144.6-12.8-246.7 51-340.3-170.2-544.5 72.3-867.8" fill="none" stroke="#fff" stroke-width="24.243" stroke-miterlimit="17.016"/><path class="st0" d="M710.5 774.2l72.3-4.3 4.3 106.3c0 51 4.3 46.8 63.8 46.8h174.4c51-4.3 55.3 0 55.3-51l-4.3-114.9h68.1l4.3 148.9c4.3 63.8 0 93.6-59.6 93.6l-306.3 4.3c-51 0-63.8-8.5-63.8-59.6l-8.5-170.1z"/></g></svg>