<svg xmlns="http://www.w3.org/2000/svg" width="1222" height="1002" viewBox="0 0 72 59" shape-rendering="geometricPrecision" text-rendering="geometricPrecision" image-rendering="optimizeQuality" fill-rule="evenodd" clip-rule="evenodd"><path d="M54 0c5-1 12 8 16 20 3 12 2 23-3 25-5 1-11-6-14-16-2 9-1 17 13 16l-21 1v-6l-4 1v12c1 4 1 6-3 6H20c-3 0-4 0-4-3v-8L5 49c-4-1-7-7-3-11C29 18 43 10 50 8c-1 3 0 11 3 21 0-9 13-23-3-21 0-4 2-7 4-8zM20 47v-4l4-1v6l13-1v4c0 3 0 3-3 3H24c-3 0-4 1-4-2v-5z" fill="red"/></svg>