<svg width="0" height="0" class="hidden">
  <symbol version="1.0" xmlns="http://www.w3.org/2000/svg" preserveAspectRatio="xMidYMid meet" color="#000000" viewBox="0 0 35.000000 38.000000" id="3">
    <g transform="translate(0.000000,38.000000) scale(0.100000,-0.100000)"  stroke="none">
      <path d="M265 360 c-18 -7 -19 -8 -2 -15 23 -10 22 -14 -14 -68 -47 -71 -121
-118 -238 -153 -9 -3 -11 -8 -5 -14 16 -16 112 17 172 57 50 34 122 118 122
143 0 7 7 10 15 7 20 -8 28 9 15 33 -11 21 -31 24 -65 10z"></path>
      <path d="M298 237 c-5 -10 -8 -61 -8 -113 l0 -94 -30 0 -30 0 0 66 c0 41 -4
63 -10 59 -5 -3 -10 -33 -10 -66 l0 -59 -35 0 c-34 0 -35 1 -35 41 0 24 -4 38
-10 34 -5 -3 -10 -22 -10 -41 0 -31 -2 -34 -30 -34 -25 0 -30 4 -30 25 0 14
-4 25 -10 25 -5 0 -10 -11 -10 -24 0 -16 -7 -26 -21 -29 -12 -3 -18 -10 -14
-16 4 -7 65 -11 171 -11 155 0 187 6 149 27 -11 6 -15 34 -17 118 -2 61 -6
102 -10 92z"></path>
    </g>
  </symbol>
  <symbol version="1.0" xmlns="http://www.w3.org/2000/svg" preserveAspectRatio="xMidYMid meet" color="#000000" viewBox="0 0 36.000000 45.000000" id="4">
    <g transform="translate(0.000000,45.000000) scale(0.100000,-0.100000)" stroke="none">
      <path d="M95 413 c-30 -32 -34 -43 -28 -68 4 -16 6 -41 5 -55 -1 -14 7 -40 16
-59 13 -27 14 -35 4 -38 -7 -3 -18 -11 -25 -19 -7 -8 -25 -28 -40 -44 -24 -26
-28 -38 -25 -78 l3 -47 158 -3 157 -3 0 57 c0 52 -3 59 -39 95 -21 22 -44 39
-50 39 -15 0 -14 12 5 38 12 17 12 22 2 22 -7 0 -18 -10 -23 -22 -37 -80 -134
-21 -119 73 l7 39 48 0 c26 0 51 5 55 11 5 8 -12 10 -60 7 -47 -3 -66 0 -66 8
0 7 7 14 15 18 8 3 15 12 15 20 0 19 34 29 63 20 35 -12 97 -11 97 2 0 7 -17
11 -42 11 -24 -1 -55 2 -70 7 -24 7 -32 3 -63 -31z m10 -250 c-9 -25 -9 -25
-1 -56 5 -17 4 -32 -3 -41 -8 -10 -8 -16 2 -25 19 -15 27 -4 21 28 -5 26 -5
26 40 23 47 -4 54 -10 36 -28 -8 -8 -6 -15 5 -24 8 -7 15 -11 16 -9 6 24 3
117 -3 126 -14 18 9 25 24 8 7 -9 25 -28 41 -42 20 -20 27 -36 27 -65 l0 -38
-145 0 -145 0 0 45 c0 39 4 47 25 57 14 6 25 16 25 23 0 13 20 35 33 35 5 0 6
-8 2 -17z m92 0 c2 -6 -3 -18 -12 -27 -20 -19 -55 -5 -55 22 0 13 8 17 32 16
18 0 34 -6 35 -11z m-38 -53 c4 0 20 9 35 21 28 22 36 11 10 -15 -29 -30 -94
-15 -94 21 0 8 7 6 20 -7 11 -11 24 -20 29 -20z"></path>
      <path d="M227 394 c-4 -4 -7 -33 -7 -64 0 -51 3 -58 25 -68 14 -6 25 -19 25
-29 0 -14 3 -14 23 4 12 12 31 23 42 25 18 3 20 11 20 68 l0 65 -60 3 c-34 2
-64 0 -68 -4z m121 -62 c3 -43 0 -53 -15 -58 -10 -3 -26 -10 -35 -15 -11 -6
-18 -6 -18 0 0 5 -10 11 -22 13 -19 2 -24 10 -26 47 -5 67 0 72 60 69 l53 -3
3 -53z"></path>
      <path d="M285 341 c-3 -12 -11 -21 -17 -21 -5 0 -8 7 -4 15 5 15 -5 20 -17 8
-9 -8 12 -33 29 -33 13 0 30 37 21 47 -3 2 -8 -5 -12 -16z"></path>
      <path d="M313 329 c-2 -17 1 -18 12 -9 8 7 12 16 9 21 -9 16 -20 10 -21 -12z"></path>
    </g>
  </symbol>
  <symbol version="1.0" xmlns="http://www.w3.org/2000/svg" preserveAspectRatio="xMidYMid meet" color="#000000" viewBox="0 0 53.000000 38.000000" id="1">
    <g transform="translate(0.000000,38.000000) scale(0.100000,-0.100000)" stroke="none">
      <path d="M12 368 c-8 -8 -12 -57 -12 -155 0 -164 -1 -163 94 -163 43 0 56 -3
56 -15 0 -8 -7 -15 -15 -15 -8 0 -15 -4 -15 -10 0 -6 30 -10 70 -10 40 0 70 4
70 10 0 6 -9 10 -20 10 -11 0 -20 7 -20 15 0 9 9 15 25 15 14 0 25 4 25 10 0
5 -52 11 -122 12 l-123 3 -3 27 -3 28 125 0 c77 0 126 4 126 10 0 6 -48 10
-125 10 l-125 0 0 105 0 105 168 -2 167 -3 3 -32 c2 -18 7 -33 13 -33 13 0 11
64 -3 78 -17 17 -339 17 -356 0z"></path>
      <path d="M100 260 c-15 -28 4 -60 36 -60 13 0 27 7 30 15 7 18 40 20 47 3 4
-10 6 -10 6 0 1 18 19 15 24 -5 4 -17 5 -17 6 0 0 9 6 17 11 17 6 0 10 5 10
10 0 6 -21 10 -46 10 -27 0 -51 6 -60 15 -21 21 -51 19 -64 -5z m57 -16 c7
-18 -14 -35 -34 -27 -7 3 -13 14 -13 24 0 24 38 26 47 3z"></path>
      <path d="M297 274 c-4 -4 -7 -67 -7 -141 l0 -133 60 0 c53 0 60 2 60 20 0 17
-7 20 -50 20 l-50 0 0 105 0 105 75 0 75 0 0 -30 c0 -16 5 -30 11 -30 6 0 9
17 7 43 l-3 42 -85 3 c-47 1 -89 0 -93 -4z"></path>
      <path d="M430 85 c0 -86 8 -103 38 -73 9 9 12 9 12 0 0 -7 11 -12 25 -12 25 0
25 1 25 85 l0 85 -50 0 -50 0 0 -85z m80 11 c0 -52 -1 -54 -30 -58 l-30 -5 0
59 c0 58 0 58 30 58 30 0 30 -1 30 -54z"></path>
    </g>
  </symbol>
  <symbol version="1.0" xmlns="http://www.w3.org/2000/svg" preserveAspectRatio="xMidYMid meet" color="#000000" viewBox="0 0 42.000000 45.000000" id="2">
    <g transform="translate(0.000000,45.000000) scale(0.100000,-0.100000)" stroke="none">
      <path d="M145 440 c-4 -6 -1 -17 5 -25 10 -12 9 -15 -9 -15 -42 0 -22 -47 32
-75 31 -15 30 -28 -6 -46 -32 -16 -32 -17 -28 -77 l3 -62 -65 0 c-66 0 -89
-12 -68 -33 6 -6 11 -33 11 -59 l0 -48 190 0 190 0 0 68 c0 37 5 73 11 79 7 7
9 19 6 27 -5 12 -22 16 -72 16 l-66 0 3 36 c3 33 -1 39 -29 53 -38 19 -37 31
3 50 33 16 44 29 44 54 0 11 -8 17 -21 17 -18 0 -19 3 -9 15 20 24 2 35 -60
35 -32 0 -62 -5 -65 -10z m115 -10 c0 -5 -22 -10 -50 -10 -27 0 -50 5 -50 10
0 6 23 10 50 10 28 0 50 -4 50 -10z m-10 -42 c0 -13 -9 -36 -19 -51 l-18 -28
-22 27 c-11 15 -21 37 -21 50 0 21 5 24 40 24 35 0 40 -3 40 -22z m-93 -13 c8
-22 -6 -33 -17 -15 -13 20 -12 30 0 30 6 0 13 -7 17 -15z m133 8 c0 -5 -4 -15
-10 -23 -11 -18 -25 -7 -17 15 6 15 27 21 27 8z m-50 -113 c0 -5 -11 -10 -24
-10 -14 0 -28 5 -31 10 -4 6 7 10 24 10 17 0 31 -4 31 -10z m35 -30 c-8 -13
-122 -13 -130 0 -4 6 20 10 65 10 45 0 69 -4 65 -10z m-7 -122 l-3 -103 -55 0
-55 0 -3 103 -3 102 61 0 61 0 -3 -102z m122 48 c8 -2 -13 -4 -48 -5 -35 0
-61 3 -58 7 4 7 70 6 106 -2z m-2 -88 l-3 -63 -50 0 -50 0 -3 63 -3 62 56 0
56 0 -3 -62z m-248 42 c0 -6 -27 -10 -60 -10 -33 0 -60 4 -60 10 0 6 27 10 60
10 33 0 60 -4 60 -10z m-2 -62 l-3 -43 -50 0 c-47 0 -50 1 -53 28 -6 49 3 57
58 57 l51 0 -3 -42z"></path>
      <path d="M192 373 c2 -10 10 -18 18 -18 8 0 16 8 18 18 2 12 -3 17 -18 17 -15
0 -20 -5 -18 -17z m28 -3 c0 -5 -4 -10 -10 -10 -5 0 -10 5 -10 10 0 6 5 10 10
10 6 0 10 -4 10 -10z"></path>
      <path d="M200 185 c0 -8 5 -15 10 -15 6 0 10 7 10 15 0 8 -4 15 -10 15 -5 0
-10 -7 -10 -15z"></path>
      <path d="M310 105 c0 -8 5 -15 10 -15 6 0 10 7 10 15 0 8 -4 15 -10 15 -5 0
-10 -7 -10 -15z"></path>
      <path d="M340 105 c0 -8 5 -15 10 -15 6 0 10 7 10 15 0 8 -4 15 -10 15 -5 0
-10 -7 -10 -15z"></path>
      <path d="M52 60 c0 -14 2 -19 5 -12 2 6 2 18 0 25 -3 6 -5 1 -5 -13z"></path>
      <path d="M82 60 c0 -14 2 -19 5 -12 2 6 2 18 0 25 -3 6 -5 1 -5 -13z"></path>
      <path d="M112 60 c0 -14 2 -19 5 -12 2 6 2 18 0 25 -3 6 -5 1 -5 -13z"></path>
    </g>
  </symbol>
</svg>