<svg width="493" height="413" viewBox="0 0 493 413" fill="none" xmlns="http://www.w3.org/2000/svg">
<path d="M474.617 123.861C484.711 123.861 492.893 115.678 492.893 105.584C492.893 95.4904 484.711 87.3076 474.617 87.3076C464.523 87.3076 456.34 95.4904 456.34 105.584C456.34 115.678 464.523 123.861 474.617 123.861Z" fill="#DC587D"/>
<path d="M480.835 100.955C479.373 99.4924 476.936 99.4924 475.474 100.955L474.499 101.929L473.524 100.955C472.062 99.4924 469.625 99.4924 468.163 100.955C466.701 102.417 466.701 104.854 468.163 106.316L471.818 109.971C472.428 110.58 473.159 110.946 473.89 111.068C475.108 111.189 476.327 110.824 477.18 109.971L480.835 106.316C482.297 104.854 482.297 102.417 480.835 100.955Z" fill="white"/>
<path d="M118.093 36.6853C121.264 23.122 112.84 9.55546 99.2771 6.38368C85.7137 3.21189 72.1472 11.6359 68.9755 25.1992C65.8037 38.7626 74.2277 52.3291 87.791 55.5008C101.354 58.6726 114.921 50.2486 118.093 36.6853Z" fill="#DC587D"/>
<path d="M102.142 24.4363C100.07 22.365 96.7806 22.4868 94.7092 24.5582L93.3689 25.8985L92.0286 24.5582C89.9572 22.4868 86.6674 22.6087 84.5961 24.5582C82.5247 26.6295 82.6465 29.9194 84.5961 31.9907L89.7136 36.9864C90.5665 37.8393 91.5412 38.2048 92.6378 38.4485C94.2218 38.6922 95.9277 38.2048 97.1461 36.9864L102.142 31.8689C104.213 29.6757 104.213 26.3858 102.142 24.4363Z" fill="white"/>
<path d="M461.961 311.848H422.361C419.437 311.848 417 309.411 417 306.486V282.361C417 279.437 419.437 277 422.361 277H461.961C464.885 277 467.322 279.437 467.322 282.361V306.486C467.444 309.533 465.007 311.848 461.961 311.848Z" fill="#3963DA"/>
<path d="M433.086 308.192L440.153 318.306C441.128 319.768 443.321 319.768 444.296 318.306L451.241 308.192H433.086Z" fill="#3963DA"/>
<path d="M444.682 302.222C440.905 302.344 437.127 302.344 433.594 302.101C432.497 301.979 431.523 300.273 432.863 299.786C432.254 299.542 431.766 299.176 431.523 298.567C431.279 297.958 431.523 297.105 432.132 296.983C430.791 297.349 430.304 295.277 431.279 294.546C430.791 294.059 430.304 293.45 430.182 292.84C430.06 292.109 430.304 291.378 431.035 291.013C431.401 290.769 431.888 290.769 432.375 290.769C433.959 290.769 435.543 290.769 437.127 290.769C436.762 288.332 436.518 285.652 437.858 283.458C438.224 282.849 439.199 281.996 440.052 282.484C440.783 282.971 440.539 284.068 440.539 284.799C440.417 287.845 442.123 290.891 444.804 292.353C444.804 292.353 444.682 298.933 444.682 302.222Z" fill="#FBFBFB"/>
<path d="M446.004 302.229H451.73V292.481H446.004V302.229Z" fill="#FBFBFB"/>
<path d="M58.1608 227.186H7.35142C3.57422 227.186 0.40625 224.14 0.40625 220.241V189.292C0.40625 185.515 3.45238 182.347 7.35142 182.347H58.1608C61.938 182.347 65.106 185.393 65.106 189.292V220.241C65.106 224.14 61.938 227.186 58.1608 227.186Z" fill="#3963DA"/>
<path d="M20.9941 222.312L30.0107 235.35C31.351 237.178 34.0316 237.178 35.25 235.35L44.1447 222.434H20.9941V222.312Z" fill="#3963DA"/>
<path d="M35.8604 214.759C30.9866 214.881 26.1128 214.881 21.7264 214.637C20.2642 214.515 19.0458 212.322 20.8735 211.591C20.1424 211.225 19.4113 210.86 19.1676 210.007C18.9239 209.276 19.1676 208.179 20.0205 208.057C18.3147 208.423 17.7055 205.864 19.0458 205.011C18.3147 204.402 17.8273 203.671 17.5836 202.696C17.4618 201.843 17.8273 200.747 18.5584 200.381C19.0458 200.137 19.655 200.137 20.2642 200.137C22.2137 200.137 24.2851 200.137 26.2346 200.137C25.7473 196.969 25.5036 193.558 27.0875 190.755C27.5749 189.902 28.9152 188.928 29.89 189.537C30.8647 190.146 30.6211 191.608 30.4992 192.583C30.2555 196.482 32.5706 200.381 35.9822 202.209C36.1041 202.209 35.8604 210.494 35.8604 214.759Z" fill="#FBFBFB"/>
<path d="M37.6639 214.691H44.9746V202.141H37.6639V214.691Z" fill="#FBFBFB"/>
<path d="M381.424 413H118.946C111.398 413 105.189 406.919 105.189 399.257V102.635C105.189 95.0948 111.277 88.8923 118.946 88.8923H381.424C388.972 88.8923 395.181 94.9732 395.181 102.635V399.257C395.059 406.798 388.972 413 381.424 413Z" fill="#C5CCEC"/>
<path d="M178.481 364.962C175.316 361.921 170.325 361.921 167.281 365.083L165.211 367.151L163.142 365.083C159.977 362.043 154.985 362.043 151.942 365.205C148.898 368.367 148.898 373.353 152.063 376.394L159.733 383.934C160.95 385.15 162.533 385.88 163.994 386.123C166.429 386.488 168.985 385.758 170.812 383.812L178.36 376.15C181.647 372.988 181.647 368.002 178.481 364.962Z" fill="#DC587D"/>
<path d="M192.629 377.354H191.373V369.03L188.855 369.955V368.821L192.433 367.477H192.629V377.354ZM198.455 373.972L197.672 374.789V377.354H196.423V366.985H197.672V373.256L198.34 372.453L200.615 370.05H202.134L199.292 373.101L202.465 377.354H201L198.455 373.972Z" fill="white"/>
<path d="M272.149 372.427L272.648 367.526H277.685V368.68H273.708L273.411 371.36C273.893 371.077 274.44 370.935 275.052 370.935C275.947 370.935 276.658 371.232 277.185 371.826C277.712 372.416 277.975 373.215 277.975 374.223C277.975 375.236 277.7 376.034 277.151 376.62C276.607 377.2 275.844 377.49 274.863 377.49C273.994 377.49 273.285 377.25 272.736 376.768C272.187 376.287 271.874 375.62 271.798 374.77H272.979C273.055 375.332 273.256 375.758 273.58 376.046C273.904 376.329 274.331 376.471 274.863 376.471C275.443 376.471 275.898 376.273 276.226 375.877C276.559 375.481 276.726 374.934 276.726 374.236C276.726 373.579 276.546 373.053 276.186 372.657C275.83 372.256 275.355 372.056 274.761 372.056C274.217 372.056 273.789 372.175 273.479 372.414L273.148 372.684L272.149 372.427ZM285.503 373.163C285.503 374.626 285.253 375.713 284.753 376.424C284.254 377.135 283.473 377.49 282.411 377.49C281.362 377.49 280.585 377.144 280.081 376.451C279.577 375.753 279.316 374.713 279.298 373.332V371.664C279.298 370.219 279.548 369.146 280.048 368.444C280.547 367.742 281.33 367.391 282.397 367.391C283.455 367.391 284.233 367.73 284.733 368.41C285.233 369.085 285.489 370.129 285.503 371.543V373.163ZM284.254 371.455C284.254 370.397 284.105 369.628 283.808 369.146C283.511 368.66 283.041 368.417 282.397 368.417C281.758 368.417 281.292 368.658 280.999 369.139C280.707 369.621 280.556 370.361 280.547 371.36V373.359C280.547 374.421 280.7 375.206 281.006 375.715C281.317 376.219 281.785 376.471 282.411 376.471C283.027 376.471 283.484 376.233 283.781 375.755C284.083 375.278 284.24 374.527 284.254 373.5V371.455Z" fill="white"/>
<path d="M258.716 383.204H231.689C230.715 383.204 229.863 382.352 229.863 381.379V365.691C229.863 364.718 230.715 363.867 231.689 363.867H258.716C259.69 363.867 260.542 364.718 260.542 365.691V381.379C260.542 382.352 259.69 383.204 258.716 383.204Z" fill="#8994C8"/>
<path d="M237.4 370.434H251.279" stroke="#F9F8FF" stroke-width="1.1502" stroke-miterlimit="10" stroke-linecap="round" stroke-linejoin="round"/>
<path d="M237.4 375.664H243.488" stroke="#F9F8FF" stroke-width="1.1502" stroke-miterlimit="10" stroke-linecap="round" stroke-linejoin="round"/>
<path d="M253.599 381.136V387.946C253.599 388.19 253.356 388.311 253.234 388.19L244.469 381.258H253.599V381.136Z" fill="#8994C8"/>
<rect x="142.109" y="123.74" width="216.884" height="209.573" rx="8" fill="#FEFEFE"/>
<path d="M322.058 282.094C322.058 282.094 323.942 275.515 319.025 272.338C315.291 269.926 309.926 270.685 307.72 271.787C307.72 271.787 300.196 263.246 295.136 256.909C292.79 253.972 288.629 249.359 282.031 245.268C274.394 240.523 263.492 236.476 248.36 236.52C234.246 236.562 218.629 239.298 209.918 245.174C208.628 246.042 207.49 246.979 206.53 247.988C199.085 255.807 187.229 275.093 184.196 275.645C184.196 275.645 177.579 272.338 172.892 275.645C168.205 278.951 168.756 284.461 169.859 286.665C169.859 286.665 169.697 287.095 169.525 287.795C168.894 290.371 168.163 296.623 175.097 298.788C183.921 301.543 196.601 297.961 207.079 283.64C207.043 283.734 206.574 285.002 206.004 286.682C205.444 288.352 204.785 290.429 204.363 292.176C204.363 292.176 201.184 292.782 198.173 295.488C198.167 295.493 198.164 295.496 198.159 295.501C197.002 296.543 195.868 297.898 194.95 299.645C191.641 305.952 196.88 327.718 245.407 327.718C293.841 327.718 301.076 309.33 299.184 301.315C299.181 301.299 299.176 301.285 299.174 301.268C298.313 297.703 296.956 295.014 295.496 293.008C294.751 291.983 293.982 291.137 293.235 290.443C297.1 293.038 304.258 296.973 311.03 296.034C318.499 294.997 323.937 289.722 323.942 285.599C323.941 284.24 323.356 283.009 322.058 282.094ZM177.711 286.714C175.946 286.714 174.515 285.287 174.515 283.524C174.515 281.76 175.946 280.33 177.711 280.33C179.476 280.33 180.907 281.76 180.907 283.524C180.907 285.287 179.476 286.714 177.711 286.714ZM314.2 281.901C312.435 281.901 311.004 280.471 311.004 278.708C311.004 276.944 312.435 275.514 314.2 275.514C315.964 275.514 317.396 276.944 317.396 278.708C317.395 280.471 315.964 281.901 314.2 281.901Z" fill="white"/>
<path d="M291.804 198.068C287.025 179.384 268.773 165.352 246.823 165.106C223.606 164.846 204.177 180.099 200.349 200.318C197.129 201.543 194.934 206.179 195.267 211.557C195.625 217.346 198.784 221.92 202.473 222.209C208.94 238.413 225.869 250.081 245.867 250.305C267.111 250.543 285.183 237.793 291.035 220.134C294.486 219.483 297.385 215.103 297.767 209.609C298.176 203.712 295.535 198.685 291.804 198.068Z" fill="white"/>
<path d="M216.498 182.969C217.183 182.969 217.739 182.414 217.739 181.729C217.739 181.044 217.183 180.49 216.498 180.49C215.813 180.49 215.258 181.044 215.258 181.729C215.258 182.414 215.813 182.969 216.498 182.969Z" fill="white"/>
<path d="M200.837 317.233C200.365 317.233 199.929 316.928 199.783 316.453C198.022 310.716 198.326 305.562 200.688 301.134C204.726 293.563 213.274 290.904 213.636 290.794C214.219 290.617 214.835 290.947 215.011 291.53C215.188 292.111 214.859 292.727 214.276 292.903C214.192 292.929 206.22 295.428 202.626 302.186C200.559 306.075 200.311 310.657 201.892 315.807C202.07 316.389 201.743 317.005 201.161 317.184C201.053 317.217 200.944 317.233 200.837 317.233Z" fill="#E32B2B"/>
<path d="M294.837 315.376C294.798 315.376 294.758 315.373 294.718 315.369C294.112 315.305 293.674 314.761 293.739 314.156C294.477 307.288 293.151 301.854 289.796 298.003C284.809 292.277 276.9 291.965 276.821 291.963C276.213 291.944 275.734 291.436 275.752 290.829C275.771 290.221 276.281 289.738 276.885 289.76C277.247 289.77 285.808 290.086 291.444 296.537C295.23 300.871 296.74 306.878 295.932 314.392C295.871 314.956 295.393 315.376 294.837 315.376Z" fill="#E32B2B"/>
<path d="M280.68 276.616C280.671 276.616 280.663 276.616 280.654 276.616C280.046 276.603 279.563 276.1 279.576 275.492C279.583 275.172 279.801 267.615 285.217 263.101C288.603 260.278 293.214 259.312 298.917 260.228C299.519 260.325 299.927 260.89 299.831 261.492C299.734 262.093 299.167 262.5 298.567 262.405C293.527 261.595 289.516 262.395 286.642 264.783C281.998 268.642 281.783 275.471 281.781 275.54C281.767 276.139 281.277 276.616 280.68 276.616Z" fill="#E32B2B"/>
<path d="M212.42 276.617C211.94 276.617 211.498 276.302 211.36 275.818C209.994 271.049 207.646 267.761 204.381 266.044C199.598 263.529 194.355 265.237 194.302 265.254C193.725 265.446 193.1 265.138 192.906 264.561C192.712 263.985 193.019 263.361 193.595 263.166C193.844 263.082 199.75 261.133 205.384 264.08C209.215 266.085 211.939 269.83 213.481 275.212C213.648 275.797 213.309 276.407 212.724 276.575C212.623 276.603 212.52 276.617 212.42 276.617Z" fill="#E32B2B"/>
<path d="M245.408 328.82C211.101 328.82 199.438 318.013 195.539 311.571C192.34 306.286 192.697 301.568 193.974 299.134C194.705 297.74 195.561 296.581 196.46 295.618C194.646 296.831 192.786 297.841 190.897 298.633C185.395 300.941 179.668 301.369 174.77 299.84C171.99 298.972 170.035 297.408 168.96 295.191C167.329 291.828 168.273 288.014 168.677 286.721C167.598 284.057 167.197 278.314 172.257 274.744C176.735 271.585 182.569 273.727 184.237 274.45C185.855 273.479 190.412 267.206 194.111 262.115C198.152 256.552 202.331 250.8 205.733 247.228C213.969 238.578 233.842 235.46 248.358 235.418C248.439 235.418 248.524 235.418 248.606 235.418C274.04 235.418 288.412 246.721 295.999 256.221C300.21 261.494 306.208 268.384 308.016 270.449C310.798 269.326 315.927 268.417 319.721 271.481C324.124 275.038 323.677 279.834 323.3 281.679C324.806 283.051 325.373 284.991 324.858 287.109C323.867 291.182 318.738 296.076 311.183 297.124C306.422 297.784 301.554 296.213 297.652 294.295C298.682 296.106 299.597 298.317 300.247 301.009C301.206 304.98 299.908 309.725 296.774 313.703C291.339 320.599 278.017 328.82 245.408 328.82ZM207.083 282.532C207.261 282.532 207.44 282.575 207.605 282.664C208.09 282.926 208.308 283.505 208.115 284.02C208.097 284.069 206.272 288.96 205.435 292.433C205.333 292.854 204.995 293.176 204.569 293.258C204.516 293.268 198.933 294.428 195.927 300.157C194.837 302.236 194.876 306.219 197.426 310.43C201.084 316.475 212.183 326.615 245.408 326.615C259.259 326.615 270.747 325.097 279.553 322.102C286.618 319.699 291.829 316.414 295.039 312.339C299.069 307.225 298.402 302.77 298.102 301.526C296.86 296.385 294.541 293.208 292.555 291.325C290.845 290.17 289.775 289.275 289.638 289.159C289.205 288.793 289.121 288.159 289.444 287.692C289.766 287.225 290.391 287.079 290.886 287.355C291.741 287.829 292.818 288.545 293.952 289.589C297.71 292.092 304.546 295.82 310.878 294.941C317.23 294.059 321.883 290.002 322.713 286.589C323.082 285.069 322.649 283.86 321.423 282.996C321.028 282.717 320.861 282.214 321.01 281.754C321.075 281.55 322.576 276.623 318.333 273.195C314.896 270.419 309.863 271.949 308.214 272.773C307.767 272.996 307.224 272.89 306.894 272.515C306.818 272.43 299.293 263.881 294.274 257.596C286.99 248.475 273.156 237.622 248.604 237.622C248.522 237.622 248.445 237.622 248.364 237.622L248.36 236.519L248.364 237.622C234.283 237.662 215.087 240.6 207.33 248.747C204.029 252.213 199.709 258.162 195.896 263.409C189.217 272.602 186.308 276.381 184.395 276.728C184.16 276.771 183.918 276.736 183.704 276.629C183.646 276.6 177.611 273.665 173.529 276.544C169.382 279.469 169.95 284.381 170.847 286.171C170.985 286.448 171.001 286.769 170.89 287.058C170.876 287.096 169.405 291.071 170.95 294.24C171.75 295.881 173.257 297.058 175.428 297.735C179.83 299.111 185.02 298.707 190.043 296.6C195.885 294.149 201.469 289.441 206.192 282.983C206.406 282.691 206.741 282.532 207.083 282.532ZM204.096 289.011C202.947 290.256 201.762 291.412 200.548 292.474C201.754 291.824 202.8 291.459 203.453 291.269C203.643 290.536 203.864 289.769 204.096 289.011Z" fill="#4F124C"/>
<path d="M308.18 272.671C308.126 272.733 308.023 272.812 307.938 272.883L307.663 273.096C307.476 273.235 307.286 273.372 307.092 273.505C306.709 273.776 306.311 274.034 305.927 274.32C305.535 274.6 305.167 274.911 304.802 275.246C304.423 275.576 304.099 275.955 303.728 276.358L303.72 276.366C303.664 276.427 303.57 276.431 303.509 276.374C303.475 276.344 303.459 276.3 303.461 276.258C303.484 275.701 303.598 275.13 303.806 274.599C304.013 274.066 304.285 273.551 304.617 273.083C304.947 272.614 305.321 272.17 305.757 271.799C305.975 271.614 306.203 271.441 306.449 271.292C306.571 271.215 306.699 271.148 306.829 271.082C306.965 271.015 307.087 270.963 307.262 270.902C307.778 270.72 308.345 270.992 308.526 271.508C308.648 271.855 308.566 272.224 308.342 272.484L308.18 272.671Z" fill="#4F124C"/>
<path d="M184.689 274.779C184.877 274.856 185.009 274.922 185.157 275.004C185.297 275.086 185.439 275.168 185.57 275.261C185.837 275.442 186.086 275.647 186.32 275.869C186.79 276.311 187.188 276.834 187.529 277.39C187.865 277.95 188.121 278.566 188.282 279.196C188.436 279.831 188.456 280.495 188.347 281.11C188.333 281.19 188.256 281.244 188.175 281.229C188.127 281.221 188.089 281.19 188.069 281.15L188.063 281.138C187.796 280.595 187.535 280.112 187.198 279.682C186.864 279.253 186.51 278.862 186.116 278.507C185.723 278.151 185.305 277.829 184.894 277.5L184.277 277.008C184.082 276.843 183.853 276.666 183.702 276.51L183.593 276.398C183.209 276.002 183.218 275.37 183.614 274.986C183.907 274.701 184.332 274.634 184.689 274.779Z" fill="#4F124C"/>
<path d="M244.573 303.826C244.568 303.826 244.563 303.826 244.558 303.826C237.951 303.739 230.96 300.266 224.792 297.202C221.267 295.451 217.938 293.797 215.484 293.25C209.671 291.955 204.695 293.227 204.645 293.24C204.056 293.395 203.453 293.043 203.298 292.455C203.143 291.867 203.493 291.265 204.081 291.109C204.304 291.05 209.604 289.682 215.964 291.099C218.679 291.704 221.967 293.337 225.774 295.229C231.731 298.188 238.482 301.542 244.586 301.622C245.196 301.63 245.683 302.13 245.675 302.739C245.667 303.342 245.175 303.826 244.573 303.826Z" fill="#4F124C"/>
<path d="M224.468 270.96C228.957 266.001 262.505 265.174 268.02 270.96C273.534 276.746 273.871 286.275 269.949 290.614C264.803 296.308 230.077 297.502 222.801 291.564C216.459 286.389 220.128 275.755 224.468 270.96Z" fill="white"/>
<path d="M244.411 296.589C235.645 296.589 225.887 295.509 222.099 292.418C219.869 290.598 218.564 287.981 218.328 284.852C217.909 279.3 220.791 273.375 223.646 270.221C226.422 267.153 237.217 265.939 245.617 265.831C254.71 265.709 265.574 266.8 268.814 270.2C271.585 273.107 273.291 277.03 273.618 281.245C273.935 285.312 272.894 288.996 270.764 291.353C267.635 294.814 256.539 296.308 247.198 296.553C246.288 296.576 245.355 296.589 244.411 296.589ZM247.008 268.026C246.558 268.026 246.104 268.029 245.646 268.035C235.652 268.163 227.088 269.705 225.283 271.699C222.652 274.606 220.174 280.001 220.528 284.686C220.72 287.234 221.719 289.261 223.495 290.711C226.519 293.178 236.021 294.638 247.141 294.35C257.961 294.066 267.003 292.226 269.127 289.876C272.521 286.121 272.426 277.185 267.217 271.72C265.081 269.479 257.049 268.026 247.008 268.026Z" fill="#4F124C"/>
<path d="M206.217 282.952C207.293 281.553 208.334 280.043 209.311 278.53C210.289 277.01 211.209 275.453 212.068 273.869L212.696 272.672C212.902 272.272 213.089 271.864 213.275 271.454L213.551 270.84L213.802 270.216C213.966 269.799 214.151 269.391 214.323 268.979C215.046 267.338 215.758 265.731 216.789 264.123L216.796 264.113C216.911 263.935 217.149 263.882 217.328 263.997C217.434 264.066 217.496 264.18 217.504 264.296C217.535 264.781 217.525 265.263 217.491 265.742C217.473 266.226 217.385 266.691 217.294 267.157C217.126 268.096 216.825 268.99 216.497 269.874C216.324 270.312 216.121 270.735 215.921 271.16L215.617 271.795L215.293 272.418C215.074 272.832 214.878 273.257 214.661 273.671L214.011 274.911C213.122 276.552 212.174 278.156 211.166 279.722C210.661 280.504 210.145 281.279 209.611 282.042C209.077 282.811 208.538 283.553 207.949 284.316C207.577 284.798 206.885 284.887 206.402 284.516C205.92 284.144 205.83 283.452 206.202 282.97L206.217 282.952Z" fill="#4F124C"/>
<path d="M253.417 328.63C246.357 328.63 237.992 326.807 232.803 322.295C229.578 319.491 227.913 316.006 227.853 311.937C227.803 308.426 228.768 305.731 230.723 303.928C234.27 300.656 239.978 301.196 243.389 301.518C244.198 301.594 244.896 301.66 245.242 301.638C245.775 301.601 246.482 301.664 247.376 301.744C251.686 302.123 260.653 302.913 270.136 294.563C277.535 288.049 282.958 286.44 286.417 286.363C285.43 285.284 284.437 283.999 283.442 282.514C283.103 282.009 283.238 281.324 283.744 280.985C284.25 280.647 284.936 280.782 285.274 281.287C287.201 284.162 289.076 286.195 290.848 287.329C290.923 287.374 290.969 287.406 290.988 287.42C291.474 287.765 291.597 288.434 291.267 288.929C290.936 289.425 290.27 289.568 289.764 289.252C289.732 289.232 289.7 289.212 289.667 289.191C289.111 288.878 283.215 285.985 271.594 296.216C261.402 305.191 251.797 304.345 247.182 303.938C246.414 303.87 245.75 303.813 245.388 303.836C244.864 303.872 244.121 303.801 243.181 303.712C240.136 303.424 235.041 302.943 232.219 305.547C230.743 306.908 230.016 309.047 230.058 311.905C230.108 315.321 231.518 318.257 234.249 320.633C240.099 325.719 250.491 327.071 257.671 326.175C258.276 326.103 258.827 326.528 258.903 327.132C258.978 327.736 258.549 328.286 257.945 328.362C256.537 328.537 255.01 328.63 253.417 328.63Z" fill="#4F124C"/>
<path d="M275.121 261.203C276.272 262.759 277.069 264.424 277.784 266.121C278.137 266.972 278.433 267.845 278.775 268.7C279.106 269.56 279.489 270.396 279.861 271.238C280.614 272.916 281.422 274.565 282.269 276.19C283.125 277.809 284.045 279.387 285.027 280.915L285.038 280.931C285.367 281.443 285.218 282.125 284.706 282.454C284.194 282.783 283.511 282.635 283.182 282.122C282.153 280.522 281.2 278.885 280.318 277.218C279.447 275.546 278.618 273.856 277.849 272.142L276.712 269.567C276.326 268.712 275.93 267.859 275.597 266.982C275.269 266.103 274.99 265.205 274.781 264.283C274.677 263.822 274.587 263.356 274.527 262.881C274.46 262.407 274.419 261.928 274.422 261.431C274.423 261.218 274.598 261.045 274.812 261.046C274.938 261.047 275.05 261.109 275.121 261.203Z" fill="#4F124C"/>
<path d="M286.349 288.564C285.8 288.564 285.325 288.155 285.256 287.597C285.074 286.127 282.213 280.608 280.454 277.473C280.156 276.943 280.344 276.271 280.876 275.973C281.407 275.676 282.079 275.864 282.377 276.395C282.865 277.263 287.15 284.947 287.445 287.327C287.52 287.931 287.091 288.481 286.486 288.556C286.44 288.561 286.394 288.564 286.349 288.564Z" fill="#4F124C"/>
<g opacity="0.2">
<path d="M270.173 273.921C270.59 277.479 269.784 280.921 267.882 283.026C263.177 288.231 231.437 289.322 224.787 283.895C222.044 281.657 221.352 278.303 221.802 274.925C218.993 280.244 217.842 287.612 222.793 291.652C230.07 297.59 264.795 296.396 269.942 290.702C273.266 287.024 273.529 279.617 270.173 273.921Z" fill="#4F124C"/>
<path d="M206.004 286.681C206.575 285.001 207.044 283.733 207.08 283.64C196.602 297.962 183.921 301.544 175.098 298.788C168.164 296.622 168.895 290.37 169.526 287.795C172.319 291.123 173.84 294.551 185.614 293.446C195.265 292.54 212.208 276.506 216.349 266.94C216.22 267.384 213.286 277.124 206.004 286.681Z" fill="#4F124C"/>
<path d="M323.943 285.599C323.937 289.72 318.5 294.996 311.03 296.033C304.259 296.972 299.376 294.359 293.235 290.442C284.699 284.997 279.915 276.32 277.913 269.538C277.913 269.538 287.296 284.748 301.28 288.736C310.733 291.432 317.929 291.255 323.943 285.599Z" fill="#4F124C"/>
</g>
<path d="M215.312 288.506C216.747 288.408 218.144 288.146 219.34 287.629C224.359 285.456 228.771 280.404 231.429 282.884C233.976 285.26 231.106 292.688 225.497 295.259" fill="white"/>
<path d="M276.179 288.564C274.63 288.48 273.082 288.21 271.741 287.629C266.721 285.456 262.309 280.404 259.651 282.884C256.964 285.391 260.241 291.718 265.756 295.489" fill="white"/>
<path d="M268.715 298.247C268.566 298.247 268.414 298.216 268.269 298.151C263.059 295.844 258.414 290.684 257.692 286.404C257.388 284.597 257.806 283.101 258.903 282.078C261.292 279.849 264.305 281.821 267.496 283.909C269.006 284.897 270.567 285.918 272.183 286.618C276.782 288.608 284.321 286.586 284.396 286.566C284.984 286.405 285.59 286.751 285.751 287.337C285.912 287.924 285.567 288.53 284.98 288.691C284.641 288.785 276.621 290.942 271.306 288.64C269.517 287.865 267.801 286.742 266.288 285.752C263.328 283.816 261.456 282.711 260.407 283.689C259.871 284.189 259.689 284.98 259.867 286.038C260.391 289.146 264.094 293.891 269.162 296.136C269.719 296.382 269.97 297.034 269.723 297.59C269.541 298.002 269.138 298.247 268.715 298.247Z" fill="#4F124C"/>
<path d="M224.466 296.914C224.056 296.914 223.662 296.684 223.472 296.29C223.207 295.742 223.437 295.083 223.986 294.819C227.641 293.057 230.871 289.268 231.339 286.195C231.506 285.098 231.283 284.255 230.677 283.69C229.629 282.712 227.756 283.817 224.797 285.753C223.284 286.743 221.567 287.866 219.778 288.64C214.465 290.942 205.819 288.625 205.453 288.525C204.865 288.364 204.52 287.759 204.68 287.172C204.84 286.585 205.447 286.24 206.034 286.399C206.116 286.422 214.299 288.611 218.901 286.618C220.517 285.918 222.078 284.897 223.588 283.909C226.779 281.821 229.792 279.85 232.181 282.078C233.335 283.155 233.797 284.692 233.518 286.526C232.943 290.306 229.257 294.725 224.943 296.804C224.79 296.879 224.627 296.914 224.466 296.914Z" fill="#4F124C"/>
<g opacity="0.2">
<path d="M260.103 283.634C260.103 283.634 265.836 294.498 274.688 292.319C274.688 292.319 269.987 296.232 268.712 297.144C268.712 297.145 254.956 288.517 260.103 283.634Z" fill="#4F124C"/>
<path d="M231.704 284.078C231.704 284.078 228.595 291.975 217.145 292.573C217.145 292.573 220.211 293.708 223.346 295.26C226.482 296.813 223.432 295.576 223.432 295.576C223.432 295.576 233.45 291.976 231.704 284.078Z" fill="#4F124C"/>
</g>
<path d="M314.2 283.003C311.83 283.003 309.902 281.076 309.902 278.708C309.902 276.34 311.83 274.413 314.2 274.413C316.57 274.413 318.498 276.34 318.498 278.708C318.498 281.076 316.57 283.003 314.2 283.003ZM314.2 276.618C313.046 276.618 312.108 277.555 312.108 278.708C312.108 279.861 313.046 280.799 314.2 280.799C315.354 280.799 316.292 279.861 316.292 278.708C316.292 277.555 315.354 276.618 314.2 276.618Z" fill="#4F124C"/>
<path d="M316.299 277.163C315.904 277.163 315.55 276.888 315.464 276.487C315.366 276.027 315.658 275.575 316.117 275.474C316.206 275.454 318.027 275.011 319.363 272.899C319.616 272.5 320.143 272.381 320.543 272.633C320.942 272.886 321.061 273.413 320.808 273.811C319.066 276.564 316.583 277.121 316.479 277.144C316.419 277.156 316.358 277.163 316.299 277.163Z" fill="#4F124C"/>
<path d="M323.031 282.322C323.014 282.423 322.999 282.49 322.983 282.56C322.968 282.633 322.952 282.703 322.932 282.768C322.893 282.902 322.858 283.037 322.81 283.163C322.721 283.421 322.611 283.668 322.493 283.912C322.25 284.394 321.954 284.851 321.607 285.266C320.917 286.101 320.029 286.776 319.059 287.22C318.822 287.34 318.565 287.419 318.319 287.511C318.194 287.554 318.072 287.604 317.946 287.639L317.564 287.727C317.309 287.78 317.059 287.852 316.804 287.877L316.04 287.94C315.788 287.971 315.535 287.952 315.285 287.937C315.034 287.925 314.786 287.909 314.54 287.889C314.049 287.819 313.567 287.709 313.096 287.602C313.019 287.585 312.971 287.508 312.988 287.431C313.001 287.373 313.048 287.331 313.103 287.322L313.12 287.319C313.596 287.235 314.061 287.18 314.517 287.106C314.743 287.049 314.967 286.998 315.189 286.949L315.521 286.874C315.632 286.851 315.735 286.801 315.842 286.769L316.474 286.558C316.58 286.53 316.675 286.469 316.775 286.425L317.07 286.29L317.364 286.157C317.458 286.107 317.547 286.045 317.638 285.99C317.815 285.872 318.005 285.781 318.173 285.656C318.864 285.181 319.417 284.571 319.907 283.928C320.033 283.77 320.133 283.591 320.254 283.428C320.314 283.346 320.356 283.253 320.41 283.167C320.462 283.079 320.521 282.995 320.568 282.906C320.659 282.724 320.765 282.549 320.848 282.366C320.896 282.276 320.936 282.187 320.977 282.097L321.038 281.967C321.057 281.925 321.077 281.879 321.088 281.865L321.34 281.557C321.675 281.147 322.28 281.086 322.69 281.421C322.966 281.647 323.084 281.995 323.031 282.322Z" fill="#4F124C"/>
<path d="M177.71 287.818C175.34 287.818 173.412 285.891 173.412 283.523C173.412 281.155 175.34 279.229 177.71 279.229C180.08 279.229 182.008 281.155 182.008 283.523C182.008 285.891 180.08 287.818 177.71 287.818ZM177.71 281.433C176.556 281.433 175.618 282.37 175.618 283.523C175.618 284.676 176.556 285.614 177.71 285.614C178.864 285.614 179.802 284.676 179.802 283.523C179.802 282.37 178.864 281.433 177.71 281.433Z" fill="#4F124C"/>
<path d="M175.606 281.978C175.547 281.978 175.487 281.972 175.427 281.959C175.322 281.937 172.84 281.38 171.097 278.627C170.845 278.228 170.964 277.701 171.363 277.449C171.762 277.197 172.289 277.316 172.542 277.714C173.884 279.834 175.713 280.272 175.79 280.29C176.248 280.395 176.539 280.849 176.437 281.308C176.349 281.706 175.997 281.978 175.606 281.978Z" fill="#4F124C"/>
<path d="M170.802 286.349C170.876 286.467 170.976 286.661 171.071 286.821C171.165 286.992 171.268 287.157 171.37 287.325C171.467 287.496 171.587 287.651 171.685 287.82C171.794 287.982 171.916 288.134 172.022 288.299C172.488 288.922 173.004 289.508 173.62 289.992L173.851 290.177C173.929 290.236 174.014 290.284 174.096 290.34C174.263 290.442 174.423 290.568 174.601 290.657C174.78 290.741 174.961 290.831 175.142 290.927C175.232 290.979 175.327 291.014 175.424 291.046L175.714 291.15C176.098 291.321 176.513 291.384 176.931 291.499C177.036 291.529 177.142 291.552 177.249 291.56L177.572 291.605C177.789 291.634 178.009 291.671 178.233 291.707L178.25 291.709C178.328 291.722 178.382 291.795 178.369 291.873C178.36 291.931 178.317 291.976 178.264 291.99C178.043 292.046 177.82 292.105 177.593 292.155C177.366 292.201 177.137 292.275 176.903 292.282C176.437 292.319 175.958 292.372 175.478 292.313L175.115 292.282C174.994 292.273 174.872 292.261 174.754 292.23C174.515 292.18 174.276 292.126 174.035 292.066C173.795 292.005 173.57 291.903 173.334 291.82C173.218 291.774 173.097 291.737 172.985 291.682L172.655 291.506C171.769 291.044 170.956 290.41 170.323 289.638C170.01 289.251 169.72 288.844 169.486 288.405C169.428 288.295 169.367 288.187 169.313 288.076L169.161 287.733C169.064 287.493 168.987 287.28 168.909 286.98C168.772 286.45 169.091 285.909 169.621 285.772C170.049 285.662 170.483 285.847 170.708 286.201L170.802 286.349Z" fill="#4F124C"/>
<path d="M297.765 209.407C297.386 214.901 294.487 219.281 291.033 219.932C294.62 211.786 292.136 200.081 291.802 197.867C295.535 198.482 298.177 203.51 297.765 209.407Z" fill="#D4D4D4"/>
<path d="M202.474 222.008C198.784 221.718 195.627 217.144 195.267 211.356C194.937 205.977 197.13 201.343 200.35 200.116C200.35 200.116 198.493 214.453 202.474 222.008Z" fill="#D4D4D4"/>
<path opacity="0.2" d="M291.035 213.396C285.184 231.054 267.111 243.804 245.868 243.566C225.869 243.343 208.94 231.674 202.474 215.471C199.298 215.222 196.517 211.796 195.575 207.155C195.287 208.519 195.171 210.007 195.268 211.557C195.625 217.346 198.785 221.921 202.474 222.21C208.941 238.413 225.869 250.081 245.868 250.305C267.111 250.543 285.184 237.793 291.035 220.135C294.487 219.483 297.386 215.104 297.767 209.609C297.878 208.014 297.764 206.483 297.467 205.085C296.569 209.507 294.008 212.835 291.035 213.396Z" fill="#4F124C"/>
<path d="M253.404 245.998C274.296 241.744 287.995 222.418 284 202.833C280.006 183.248 259.832 170.821 238.94 175.075C218.048 179.33 204.349 198.656 208.344 218.241C212.338 237.825 232.512 250.253 253.404 245.998Z" fill="#4F124C"/>
<path opacity="0.6" d="M283.994 202.426C280 182.842 259.826 170.415 238.935 174.67C219.726 178.582 206.6 195.236 207.717 213.116C208.727 196.905 221.254 182.509 238.935 178.908C240.147 178.661 241.355 178.473 242.559 178.336C242.727 179.672 244.71 180.726 247.137 180.726C249.568 180.726 251.552 179.669 251.716 178.332C267.505 180.123 280.829 191.145 283.994 206.663C284.316 208.24 284.521 209.815 284.619 211.38C284.803 208.437 284.608 205.435 283.994 202.426Z" fill="white"/>
<path d="M245.124 247.934C237.62 247.934 230.316 245.911 223.954 241.992C215.181 236.588 209.252 228.23 207.259 218.456C203.149 198.308 217.259 178.362 238.713 173.992C249.092 171.879 259.628 173.683 268.377 179.072C277.15 184.476 283.079 192.834 285.073 202.608C287.067 212.381 284.884 222.391 278.927 230.795C272.986 239.177 263.998 244.958 253.618 247.072C250.786 247.648 247.941 247.934 245.124 247.934ZM247.205 175.334C244.535 175.334 241.84 175.605 239.153 176.152C218.891 180.279 205.553 199.059 209.42 218.016C211.29 227.187 216.863 235.035 225.111 240.116C233.382 245.21 243.349 246.914 253.178 244.912C263.006 242.91 271.511 237.444 277.127 229.521C282.727 221.62 284.781 212.218 282.911 203.048C281.041 193.878 275.468 186.029 267.22 180.949C261.209 177.246 254.303 175.334 247.205 175.334Z" fill="#4F124C"/>
<path opacity="0.4" d="M234.281 191.431C235.71 194.017 233.924 196.306 230.251 200.372C226.577 204.439 224.3 206.863 221.355 205.806C216.714 204.14 219.631 197.52 223.304 193.454C226.977 189.387 232.63 188.443 234.281 191.431Z" fill="white"/>
<path d="M246.461 251.41C246.259 251.41 246.058 251.409 245.856 251.407C235.96 251.296 226.497 248.447 218.49 243.169C210.832 238.122 205.036 231.231 201.692 223.212C197.716 222.42 194.537 217.604 194.167 211.625C193.825 206.1 195.946 201.254 199.379 199.542C201.402 189.65 207.162 180.654 215.645 174.158C224.362 167.483 235.446 163.867 246.836 164.004C257.736 164.126 267.963 167.509 276.411 173.788C284.439 179.755 290.203 188.028 292.701 197.145C296.68 198.315 299.295 203.528 298.868 209.686C298.478 215.289 295.589 219.931 291.886 221.058C288.876 229.695 282.843 237.413 274.843 242.843C266.577 248.454 256.774 251.41 246.461 251.41ZM246.233 166.205C224.002 166.205 205.213 180.56 201.434 200.523C201.363 200.899 201.101 201.211 200.743 201.348C197.957 202.408 196.077 206.768 196.368 211.489C196.687 216.638 199.407 220.864 202.56 221.11C202.979 221.143 203.343 221.411 203.498 221.801C209.955 237.98 226.987 248.991 245.88 249.203C246.065 249.205 246.251 249.206 246.435 249.206C266.37 249.206 284.228 237.172 289.989 219.788C290.115 219.407 290.437 219.126 290.831 219.052C293.82 218.487 296.33 214.395 296.667 209.534C297.028 204.33 294.766 199.675 291.625 199.156C291.193 199.085 290.844 198.765 290.736 198.342C285.957 179.658 267.895 166.445 246.811 166.208C246.62 166.206 246.424 166.205 246.233 166.205Z" fill="#4F124C"/>
<path d="M250.439 216.682C243.323 216.682 236.679 216.334 230.941 215.863C212.911 214.382 199.709 211.395 199.578 211.365C199.118 211.26 198.831 210.802 198.936 210.342C199.041 209.882 199.499 209.596 199.96 209.7C200.09 209.729 213.195 212.693 231.109 214.163C247.615 215.517 271.697 215.844 292.691 209.713C293.144 209.581 293.619 209.84 293.751 210.293C293.883 210.745 293.624 211.22 293.171 211.352C279.237 215.421 263.985 216.682 250.439 216.682Z" fill="#4F124C"/>
<path d="M291.032 221.237C290.884 221.237 290.733 221.207 290.589 221.144C290.031 220.898 289.778 220.248 290.023 219.691C293.159 212.568 291.419 202.397 290.848 199.056C290.789 198.711 290.741 198.433 290.711 198.232C290.621 197.631 291.036 197.07 291.639 196.979C292.241 196.889 292.803 197.304 292.893 197.906C292.921 198.096 292.966 198.358 293.022 198.684C293.622 202.187 295.445 212.849 292.043 220.578C291.86 220.991 291.456 221.237 291.032 221.237Z" fill="#4F124C"/>
<path d="M202.475 223.312C202.078 223.312 201.695 223.098 201.498 222.723C197.401 214.949 199.179 200.776 199.256 200.177C199.334 199.573 199.886 199.149 200.491 199.226C201.095 199.304 201.522 199.856 201.444 200.459C201.425 200.599 199.678 214.54 203.45 221.696C203.734 222.235 203.527 222.901 202.988 223.184C202.824 223.271 202.648 223.312 202.475 223.312Z" fill="#4F124C"/>
<g opacity="0.2">
<path d="M282.031 245.268C276.47 249.996 265.259 260.996 246.802 260.996C226.476 260.996 214.702 250.308 209.918 245.174C218.629 239.297 234.245 236.561 248.36 236.519C263.491 236.476 274.394 240.523 282.031 245.268Z" fill="#4F124C"/>
<path d="M245.407 327.717C196.879 327.717 191.64 305.951 194.949 299.644C195.867 297.898 197 296.542 198.159 295.5C188.47 305.351 214.52 319.069 220.768 319.821C227.019 320.57 231.251 304.951 231.251 304.951C229.417 320.592 250.913 319.435 261.575 319.804C272.238 320.171 285.839 314.294 291.538 310.803C294.831 308.787 297.508 304.541 299.184 301.314C301.075 309.329 293.84 327.717 245.407 327.717Z" fill="#4F124C"/>
</g>
</svg>
