<svg width="475" height="453" fill="none" xmlns="http://www.w3.org/2000/svg"><path d="M414.983 344.759s4.341-15.166-6.986-22.49c-8.6-5.56-20.957-3.81-26.037-1.271 0 0-17.331-19.688-28.985-34.297a117.844 117.844 0 00-30.185-26.834c-17.591-10.937-42.701-20.267-77.554-20.165-32.509.096-68.48 6.403-88.542 19.95-2.972 2-5.595 4.161-7.805 6.485-17.147 18.025-44.455 62.484-51.44 63.755 0 0-15.242-7.622-26.038 0s-9.526 20.324-6.986 25.405c0 0-.374.991-.769 2.604-1.454 5.939-3.138 20.35 12.835 25.341 20.322 6.352 49.529-1.905 73.662-34.919-.082.217-1.162 3.139-2.476 7.012-1.289 3.849-2.807 8.637-3.779 12.664 0 0-7.321 1.398-14.257 7.635l-.032.031c-2.666 2.401-5.277 5.526-7.392 9.553-7.621 14.538 4.445 64.714 116.218 64.714 111.557 0 128.221-42.389 123.864-60.865-.006-.038-.019-.069-.025-.107-1.981-8.219-5.106-14.418-8.471-19.042a40.708 40.708 0 00-5.207-5.913c8.903 5.982 25.39 15.053 40.988 12.888 17.203-2.389 29.727-14.551 29.74-24.053-.003-3.133-1.35-5.972-4.341-8.081zM82.511 355.41a7.358 7.358 0 01-7.361-7.356 7.363 7.363 0 017.361-7.362 7.363 7.363 0 017.361 7.362 7.357 7.357 0 01-7.361 7.356zm314.373-11.095a7.362 7.362 0 010-14.724 7.362 7.362 0 010 14.724z" fill="#fff"/><path d="M345.3 151.062c-11.007-43.071-53.047-75.417-103.604-75.984-53.476-.6-98.225 34.562-107.043 81.17-7.416 2.825-12.472 13.512-11.705 25.909.824 13.344 8.101 23.89 16.597 24.555 14.896 37.353 53.888 64.25 99.949 64.767 48.931.549 90.556-28.843 104.035-69.549 7.95-1.502 14.626-11.598 15.505-24.263.942-13.595-5.139-25.183-13.734-26.605z" fill="#fff"/><path d="M171.845 116.253a2.857 2.857 0 100-5.714 2.857 2.857 0 000 5.714z" fill="#fff"/><path d="M135.774 425.76a2.542 2.542 0 01-2.427-1.796c-4.056-13.226-3.355-25.107 2.085-35.316 9.299-17.452 28.989-23.581 29.822-23.835a2.54 2.54 0 011.475 4.863c-.193.059-18.555 5.82-26.832 21.398-4.763 8.964-5.333 19.528-1.692 31.4a2.542 2.542 0 01-2.431 3.286zm216.515-4.281a2.541 2.541 0 01-2.529-2.811c1.7-15.832-1.355-28.359-9.081-37.237-11.488-13.199-29.705-13.918-29.887-13.923a2.541 2.541 0 01-2.461-2.615c.042-1.401 1.217-2.513 2.609-2.463.834.023 20.552.752 33.533 15.623 8.72 9.989 12.198 23.837 10.339 41.158a2.542 2.542 0 01-2.523 2.268zm-32.605-89.348h-.058a2.537 2.537 0 01-2.483-2.591c.016-.737.519-18.158 12.991-28.565 7.801-6.507 18.419-8.733 31.556-6.622a2.542 2.542 0 01-.807 5.018c-11.606-1.868-20.847-.023-27.466 5.482-10.696 8.897-11.192 24.639-11.196 24.796a2.54 2.54 0 01-2.537 2.482zm-157.225.003a2.543 2.543 0 01-2.441-1.842c-3.146-10.993-8.554-18.574-16.075-22.531-11.016-5.798-23.093-1.862-23.213-1.822a2.544 2.544 0 01-3.217-1.596 2.538 2.538 0 011.588-3.217c.573-.194 14.176-4.687 27.152 2.108 8.825 4.621 15.1 13.255 18.65 25.66a2.54 2.54 0 01-2.444 3.24z" fill="#E32B2B"/><path d="M238.438 452.47c-79.019 0-105.883-24.911-114.864-39.762-7.367-12.183-6.546-23.058-3.603-28.67a37.034 37.034 0 015.726-8.104c-4.178 2.796-8.463 5.124-12.813 6.95-12.672 5.321-25.864 6.308-37.145 2.783-6.404-2.002-10.906-5.607-13.383-10.717-3.757-7.753-1.581-16.544-.65-19.526-2.488-6.141-3.412-19.38 8.245-27.61 10.314-7.28 23.751-2.344 27.593-.677 3.727-2.238 14.223-16.698 22.743-28.435 9.307-12.823 18.932-26.082 26.767-34.317 18.97-19.941 64.745-27.128 98.179-27.225h.57c58.582 0 91.685 26.056 109.161 47.956 9.698 12.155 23.514 28.038 27.678 32.798 6.408-2.588 18.222-4.684 26.96 2.378 10.142 8.199 9.113 19.257 8.244 23.508 3.47 3.164 4.775 7.635 3.588 12.519-2.281 9.388-14.095 20.671-31.497 23.087-10.966 1.52-22.178-2.1-31.166-6.522 2.373 4.174 4.481 9.27 5.978 15.477 2.209 9.153-.782 20.093-8 29.262-12.519 15.897-43.204 34.847-118.311 34.847zm-88.274-106.702a2.541 2.541 0 012.378 3.429c-.042.113-4.245 11.388-6.174 19.395a2.542 2.542 0 01-1.994 1.901c-.122.023-12.98 2.698-19.904 15.905-2.512 4.792-2.42 13.972 3.451 23.68 8.427 13.935 33.99 37.31 110.517 37.31 31.903 0 58.363-3.5 78.647-10.404 16.272-5.539 28.274-13.111 35.669-22.504 9.282-11.789 7.745-22.061 7.054-24.927-2.861-11.851-8.201-19.174-12.776-23.515-3.938-2.664-6.403-4.726-6.718-4.993a2.54 2.54 0 012.874-4.159c1.969 1.093 4.449 2.742 7.061 5.15 8.656 5.77 24.4 14.363 38.986 12.337 14.629-2.032 25.347-11.385 27.259-19.254.851-3.503-.148-6.29-2.971-8.283a2.542 2.542 0 01-.951-2.861c.149-.47 3.607-11.828-6.167-19.731-7.916-6.4-19.507-2.873-23.305-.974a2.54 2.54 0 01-3.042-.593c-.173-.197-17.507-19.904-29.068-34.391-16.777-21.027-48.639-46.045-105.19-46.045h-.554l-.008-2.541.008 2.541c-32.433.093-76.647 6.865-94.512 25.646-7.603 7.99-17.554 21.702-26.337 33.799-15.382 21.192-22.084 29.902-26.49 30.702a2.535 2.535 0 01-1.59-.227c-.136-.068-14.035-6.834-23.437-.197-9.552 6.744-8.243 18.066-6.178 22.193.319.637.355 1.379.1 2.044-.032.087-3.42 9.25.137 16.556 1.844 3.784 5.314 6.495 10.314 8.057 10.14 3.171 22.095 2.241 33.664-2.617 13.455-5.649 26.317-16.503 37.195-31.39a2.542 2.542 0 012.052-1.039zm-6.88 14.935a107.014 107.014 0 01-8.172 7.982c2.778-1.497 5.189-2.338 6.691-2.777a130.96 130.96 0 011.481-5.205z" fill="#4F124C"/><path d="M383.022 323.036c-.124.143-.362.325-.558.489l-.634.491c-.43.32-.867.637-1.314.942-.883.625-1.799 1.221-2.685 1.879a27.605 27.605 0 00-2.59 2.135c-.872.761-1.619 1.634-2.474 2.563l-.017.019a.344.344 0 01-.597-.248c.053-1.285.315-2.602.795-3.826a16.238 16.238 0 011.866-3.494c.761-1.082 1.622-2.105 2.626-2.96a12.727 12.727 0 011.595-1.169c.281-.176.576-.332.875-.485.314-.152.593-.273.996-.414a2.285 2.285 0 012.49 3.647l-.374.431zm-284.437 4.858c.433.178.737.331 1.079.519.322.189.648.378.951.592.615.418 1.188.891 1.727 1.403 1.083 1.018 2 2.223 2.784 3.506a15.693 15.693 0 011.735 4.163c.355 1.463.4 2.994.149 4.411a.34.34 0 01-.64.092l-.013-.026c-.616-1.252-1.216-2.365-1.993-3.356a20.63 20.63 0 00-2.493-2.709c-.904-.822-1.866-1.564-2.813-2.322l-1.422-1.134c-.449-.381-.977-.789-1.324-1.147l-.251-.259a2.302 2.302 0 012.524-3.733zm137.924 66.961h-.034c-15.219-.2-31.32-8.205-45.526-15.269-8.12-4.036-15.788-7.849-21.441-9.111-13.387-2.984-24.849-.053-24.964-.023a2.538 2.538 0 01-3.102-1.809 2.54 2.54 0 011.803-3.103c.513-.136 12.72-3.289 27.368-.023 6.255 1.394 13.828 5.159 22.597 9.519 13.719 6.822 29.27 14.554 43.33 14.739a2.54 2.54 0 01-.031 5.08z" fill="#4F124C"/><path d="M190.204 319.091c10.339-11.432 87.61-13.338 100.311 0 12.701 13.338 13.478 35.305 4.445 45.306-11.855 13.127-91.837 15.879-108.597 2.191-14.607-11.929-6.155-36.443 3.841-47.497z" fill="#fff"/><path d="M236.146 378.172c-20.19 0-42.666-2.49-51.391-9.615-5.138-4.197-8.142-10.227-8.686-17.441-.966-12.798 5.672-26.456 12.249-33.729 6.394-7.07 31.257-9.87 50.605-10.118 20.943-.28 45.966 2.234 53.43 10.071 6.382 6.702 10.311 15.744 11.065 25.46.729 9.377-1.668 17.868-6.575 23.301-7.206 7.979-32.763 11.423-54.278 11.987a245.28 245.28 0 01-6.419.084zm5.981-65.843c-1.037 0-2.082.007-3.137.02-23.019.296-42.745 3.849-46.903 8.447-6.059 6.7-11.766 19.136-10.951 29.938.443 5.874 2.743 10.546 6.833 13.888 6.965 5.688 28.853 9.052 54.465 8.388 24.922-.654 45.747-4.894 50.64-10.314 7.817-8.656 7.598-29.254-4.4-41.851-4.919-5.166-23.421-8.516-46.547-8.516zm-93.958 34.407c2.479-3.227 4.876-6.707 7.126-10.193a166.946 166.946 0 006.35-10.746l1.445-2.759c.475-.922.906-1.863 1.335-2.807l.636-1.416.578-1.439c.378-.961.804-1.902 1.199-2.852 1.666-3.782 3.305-7.486 5.682-11.193l.014-.022a.888.888 0 011.631.421 24.697 24.697 0 01-.029 3.333c-.042 1.117-.245 2.188-.454 3.261-.388 2.164-1.08 4.226-1.837 6.263-.396 1.011-.865 1.986-1.325 2.965l-.701 1.464-.746 1.437c-.504.954-.955 1.935-1.455 2.887l-1.498 2.86a171.72 171.72 0 01-10.134 16.437 126.742 126.742 0 01-3.828 5.242 2.54 2.54 0 11-4.024-3.101l.035-.042z" fill="#4F124C"/><path d="M256.886 452.034c-16.26 0-35.527-4.202-47.479-14.603-7.428-6.464-11.264-14.498-11.401-23.878-.116-8.093 2.107-14.305 6.611-18.463 8.168-7.542 21.317-6.296 29.172-5.554 1.863.175 3.47.326 4.268.275 1.229-.085 2.856.062 4.916.244 9.926.874 30.581 2.696 52.423-16.552 17.041-15.016 29.531-18.726 37.499-18.902-2.272-2.489-4.561-5.451-6.852-8.873a2.541 2.541 0 014.22-2.828c4.439 6.627 8.758 11.312 12.838 13.927.172.103.278.177.321.208a2.54 2.54 0 01-2.817 4.225c-.075-.047-.149-.093-.223-.141-1.281-.721-14.862-7.391-41.629 16.195-23.476 20.687-45.597 18.738-56.227 17.8-1.77-.156-3.298-.288-4.133-.235-1.207.082-2.918-.082-5.084-.286-7.013-.663-18.748-1.774-25.249 4.23-3.397 3.137-5.072 8.068-4.976 14.657.114 7.875 3.362 14.643 9.654 20.119 13.474 11.724 37.41 14.84 53.947 12.774a2.55 2.55 0 012.836 2.207 2.54 2.54 0 01-2.206 2.836c-3.243.404-6.76.618-10.429.618z" fill="#4F124C"/><path d="M306.878 296.599c2.651 3.587 4.486 7.426 6.134 11.339.813 1.959 1.495 3.973 2.281 5.944.763 1.982 1.646 3.91 2.502 5.85a216.54 216.54 0 005.547 11.416 148.37 148.37 0 006.353 10.891l.024.037a2.542 2.542 0 01-.764 3.511 2.538 2.538 0 01-3.509-.764 154.406 154.406 0 01-6.598-11.305 223.152 223.152 0 01-5.686-11.701l-2.62-5.937c-.888-1.972-1.802-3.937-2.568-5.959a48.174 48.174 0 01-1.879-6.221 34.625 34.625 0 01-.586-3.232 22.936 22.936 0 01-.241-3.343.892.892 0 011.61-.526z" fill="#4F124C"/><path d="M332.739 359.673a2.54 2.54 0 01-2.517-2.229c-.42-3.389-7.008-16.112-11.061-23.338a2.54 2.54 0 114.431-2.486c1.123 2.002 10.994 19.714 11.672 25.2a2.54 2.54 0 01-2.525 2.853z" fill="#4F124C"/><path d="M295.477 325.919c.959 8.2-.896 16.136-5.278 20.988-10.837 11.997-83.942 14.514-99.26 2.003-6.317-5.158-7.911-12.892-6.876-20.677-6.468 12.261-9.119 29.245 2.284 38.558 16.76 13.688 96.742 10.936 108.597-2.19 7.656-8.479 8.261-25.552.533-38.682zm-147.799 29.414a275.388 275.388 0 012.476-7.011c-24.133 33.014-53.34 41.271-73.662 34.919-15.972-4.993-14.289-19.404-12.835-25.342 6.433 7.673 9.936 15.574 37.056 13.027 22.228-2.089 61.252-39.049 70.792-61.1-.298 1.023-7.055 23.474-23.827 45.507zm271.646-2.496c-.013 9.501-12.536 21.664-29.741 24.053-15.597 2.165-26.845-3.859-40.988-12.888-19.66-12.551-30.681-32.553-35.291-48.188 0 0 21.612 35.062 53.822 44.256 21.772 6.215 38.346 5.806 52.198-7.233z" opacity=".2" fill="#4F124C"/><path d="M169.125 359.54c3.305-.226 6.522-.83 9.276-2.023 11.562-5.01 21.724-16.654 27.846-10.938 5.866 5.478-.744 22.6-13.665 28.528m116.734-15.434c-3.569-.194-7.134-.817-10.224-2.156-11.562-5.01-21.723-16.654-27.845-10.938-6.19 5.779 1.358 20.364 14.062 29.057" fill="#fff"/><path d="M292.117 381.993c-.344 0-.693-.07-1.028-.219-11.999-5.32-22.699-17.214-24.36-27.08-.702-4.166.262-7.615 2.787-9.972 5.503-5.139 12.444-.593 19.793 4.219 3.478 2.278 7.074 4.632 10.796 6.245 10.593 4.589 27.956-.072 28.131-.119a2.54 2.54 0 011.343 4.899c-.78.216-19.252 5.187-31.494-.119-4.121-1.785-8.072-4.373-11.559-6.656-6.817-4.463-11.129-7.011-13.544-4.756-1.236 1.154-1.655 2.977-1.245 5.414 1.207 7.165 9.736 18.103 21.41 23.278a2.541 2.541 0 01-1.03 4.866zm-101.913-3.073a2.54 2.54 0 01-1.106-4.828c8.42-4.062 15.859-12.796 16.936-19.881.385-2.529-.128-4.473-1.523-5.775-2.415-2.253-6.728.294-13.544 4.757-3.486 2.282-7.439 4.87-11.559 6.655-12.24 5.306-32.153-.035-32.996-.266a2.54 2.54 0 011.337-4.901c.189.053 19.039 5.099 29.638.505 3.721-1.613 7.317-3.966 10.795-6.244 7.349-4.813 14.291-9.357 19.793-4.22 2.657 2.481 3.722 6.026 3.079 10.253-1.324 8.714-9.815 18.899-19.751 23.693a2.511 2.511 0 01-1.099.252z" fill="#4F124C"/><path d="M272.29 348.308s13.205 25.043 33.593 20.019c0 0-10.829 9.021-13.766 11.124 0 .001-31.682-19.887-19.827-31.143zm-65.413 1.023s-7.159 18.205-33.533 19.583c0 0 7.062 2.616 14.284 6.194 7.222 3.579.198.728.198.728s23.074-8.298 19.051-26.505z" opacity=".2" fill="#4F124C"/><path d="M396.884 346.852c-5.459 0-9.9-4.442-9.9-9.901 0-5.458 4.441-9.9 9.9-9.9 5.458 0 9.899 4.442 9.899 9.9 0 5.459-4.441 9.901-9.899 9.901zm0-14.719a4.824 4.824 0 00-4.819 4.82 4.823 4.823 0 004.819 4.819 4.824 4.824 0 004.819-4.819 4.825 4.825 0 00-4.819-4.82z" fill="#4F124C"/><path d="M401.726 333.391a1.968 1.968 0 01-.42-3.892c.205-.047 4.4-1.068 7.478-5.937a1.969 1.969 0 013.328 2.103c-4.013 6.345-9.731 7.63-9.972 7.683a2.086 2.086 0 01-.414.043zm15.498 11.894c-.038.232-.074.387-.109.549-.036.168-.072.33-.118.48-.09.307-.171.619-.282.909a15.287 15.287 0 01-.73 1.726 16.199 16.199 0 01-2.041 3.123 16.663 16.663 0 01-5.869 4.504c-.546.277-1.136.458-1.705.671-.287.098-.568.214-.858.295l-.88.202c-.587.124-1.162.288-1.751.347l-1.759.144c-.58.071-1.162.029-1.74-.006a56.114 56.114 0 01-1.715-.111c-1.13-.161-2.242-.416-3.326-.661a.333.333 0 01-.249-.395.329.329 0 01.265-.252l.039-.007c1.096-.193 2.168-.32 3.218-.489a51.346 51.346 0 011.549-.364l.764-.172c.254-.052.493-.169.74-.241l1.454-.487c.245-.065.463-.205.693-.306l.681-.313.676-.307c.218-.114.421-.257.631-.383.408-.273.847-.482 1.232-.772 1.592-1.093 2.867-2.5 3.994-3.982.291-.363.522-.777.799-1.152.139-.189.236-.404.361-.603.12-.202.256-.395.362-.602.212-.418.454-.822.646-1.243.11-.209.203-.414.298-.621l.139-.299c.045-.099.091-.204.117-.236l.579-.709a2.211 2.211 0 013.895 1.763zM82.51 357.953c-5.458 0-9.899-4.441-9.899-9.9 0-5.459 4.441-9.9 9.9-9.9 5.458 0 9.899 4.441 9.899 9.9 0 5.459-4.441 9.9-9.9 9.9zm0-14.72a4.825 4.825 0 00-4.819 4.82 4.824 4.824 0 004.82 4.819 4.824 4.824 0 004.819-4.819 4.825 4.825 0 00-4.82-4.82z" fill="#4F124C"/><path d="M77.666 344.491c-.136 0-.272-.015-.412-.045-.241-.051-5.96-1.335-9.972-7.681a1.968 1.968 0 113.328-2.104c3.09 4.887 7.302 5.898 7.48 5.938a1.976 1.976 0 011.491 2.347 1.967 1.967 0 01-1.915 1.545zm-11.065 10.077c.17.271.402.718.62 1.088.216.394.455.775.688 1.162.224.392.5.751.728 1.14.25.374.531.725.774 1.106 1.075 1.435 2.262 2.786 3.682 3.9l.53.427c.182.136.377.248.565.375.386.237.753.527 1.164.731.413.196.83.403 1.247.624.206.121.425.201.648.274l.67.239c.884.394 1.838.539 2.801.805.242.069.486.123.733.141l.745.104c.5.067 1.007.152 1.522.234l.04.006a.33.33 0 01.03.646c-.508.131-1.022.266-1.545.382-.522.106-1.05.277-1.588.291-1.075.086-2.178.208-3.283.072l-.835-.072a4.472 4.472 0 01-.832-.119 42.7 42.7 0 01-1.656-.378c-.553-.141-1.072-.376-1.616-.567-.266-.107-.546-.192-.803-.319l-.761-.404c-2.04-1.066-3.912-2.528-5.37-4.307-.722-.892-1.39-1.829-1.928-2.841-.134-.254-.274-.503-.4-.76l-.348-.79a12.881 12.881 0 01-.582-1.737 2.284 2.284 0 014.144-1.794l.216.341z" fill="#4F124C"/><path d="M359.032 177.2c-.873 12.665-7.55 22.762-15.505 24.262 8.262-18.778 2.54-45.761 1.772-50.863 8.597 1.416 14.682 13.007 13.733 26.601zm-219.487 29.049c-8.498-.669-15.769-11.214-16.598-24.556-.76-12.4 4.291-23.082 11.707-25.91 0 0-4.278 33.049 4.891 50.466z" fill="#D4D4D4"/><path opacity=".2" d="M343.528 186.395c-13.478 40.706-55.103 70.098-104.034 69.55-46.061-.516-85.055-27.415-99.949-64.767-7.314-.572-13.719-8.471-15.889-19.169-.664 3.143-.93 6.574-.708 10.148.824 13.344 8.101 23.89 16.597 24.556 14.896 37.352 53.888 64.249 99.949 64.766 48.931.549 90.556-28.843 104.034-69.549 7.951-1.502 14.627-11.597 15.506-24.263.255-3.679-.008-7.208-.692-10.43-2.068 10.194-7.967 17.865-14.814 19.158z" fill="#4F124C"/><path d="M256.852 261.551c48.12-9.808 79.672-54.358 70.472-99.505-9.2-45.147-55.668-73.795-103.788-63.987s-79.672 54.357-70.472 99.504c9.2 45.147 55.667 73.795 103.788 63.988z" fill="#4F124C"/><path opacity=".6" d="M327.311 161.107c-9.201-45.145-55.667-73.79-103.785-63.982-44.244 9.018-74.476 47.409-71.905 88.626 2.328-37.37 31.181-70.556 71.905-78.857a96.014 96.014 0 018.348-1.318c.387 3.079 4.953 5.51 10.545 5.51 5.597 0 10.168-2.437 10.545-5.521 36.367 4.131 67.057 29.538 74.347 65.311a78.821 78.821 0 011.438 10.874 78.67 78.67 0 00-1.438-20.643z" fill="#fff"/><path d="M237.787 266.011c-17.284 0-34.108-4.663-48.762-13.697-20.206-12.457-33.863-31.725-38.454-54.254-9.466-46.445 23.035-92.426 72.448-102.498 23.906-4.872 48.173-.714 68.326 11.71 20.207 12.457 33.863 31.724 38.455 54.254 4.592 22.529-.436 45.605-14.155 64.977-13.684 19.323-34.387 32.648-58.294 37.521a98 98 0 01-19.564 1.987zm4.792-167.356c-6.149 0-12.358.624-18.546 1.885-46.669 9.513-77.39 52.805-68.484 96.506 4.307 21.139 17.143 39.23 36.141 50.943 19.05 11.744 42.008 15.671 64.646 11.057 22.637-4.615 42.227-17.215 55.162-35.479 12.899-18.215 17.63-39.888 13.323-61.026-4.307-21.139-17.144-39.232-36.141-50.943-13.845-8.535-29.753-12.942-46.101-12.942z" fill="#4F124C"/><path opacity=".4" d="M212.812 135.762c3.29 5.96-.824 11.237-9.284 20.61-8.46 9.374-13.706 14.963-20.488 12.527-10.691-3.84-3.973-19.101 4.488-28.475 8.461-9.374 21.481-11.551 25.284-4.662z" fill="#fff"/><path d="M240.86 274.026c-.465 0-.929-.003-1.395-.008-22.793-.256-44.589-6.822-63.031-18.989-17.637-11.635-30.988-27.521-38.691-46.006-9.157-1.825-16.48-12.927-17.332-26.709-.787-12.737 4.099-23.907 12.004-27.855 4.66-22.802 17.927-43.54 37.467-58.515 20.078-15.388 45.606-23.723 71.842-23.408 25.106.283 48.661 8.082 68.12 22.556 18.49 13.753 31.767 32.825 37.519 53.841 9.165 2.697 15.188 14.715 14.204 28.909-.896 12.918-7.551 23.617-16.08 26.216-6.934 19.911-20.829 37.702-39.255 50.218-19.04 12.934-41.619 19.75-65.372 19.75zm-.526-196.415c-51.205 0-94.48 33.09-103.185 79.109a2.54 2.54 0 01-1.592 1.902c-6.416 2.444-10.747 12.495-10.075 23.378.734 11.868 6.998 21.61 14.26 22.179a2.543 2.543 0 012.162 1.592c14.872 37.295 54.101 62.678 97.618 63.167.425.003.854.006 1.278.006 45.915.001 87.047-27.74 100.316-67.814a2.536 2.536 0 011.94-1.697c6.886-1.301 12.666-10.734 13.443-21.941.832-11.995-4.378-22.726-11.615-23.923a2.54 2.54 0 01-2.047-1.877c-11.007-43.068-52.609-73.529-101.172-74.074-.44-.005-.89-.007-1.331-.007z" fill="#4F124C"/><path d="M250.027 193.969c-16.391 0-31.695-.802-44.909-1.887-41.529-3.414-71.936-10.299-72.238-10.369a1.97 1.97 0 01-1.481-2.359 1.973 1.973 0 012.359-1.48c.3.068 30.485 6.901 71.747 10.289 38.018 3.121 93.484 3.874 141.841-10.259a1.969 1.969 0 011.104 3.78c-32.094 9.379-67.224 12.285-98.423 12.285z" fill="#4F124C"/><path d="M343.527 204.47a2.542 2.542 0 01-2.323-3.563c7.222-16.421 3.215-39.866 1.899-47.569-.135-.794-.245-1.435-.315-1.898a2.542 2.542 0 015.025-.754c.066.439.169 1.044.298 1.795 1.381 8.075 5.58 32.652-2.256 50.471a2.546 2.546 0 01-2.328 1.518zm-203.98 4.783a2.537 2.537 0 01-2.25-1.357c-9.437-17.921-5.342-50.592-5.164-51.974a2.54 2.54 0 015.038.651c-.042.323-4.065 32.46 4.621 48.955a2.54 2.54 0 01-2.245 3.725z" fill="#4F124C"/><path d="M322.792 259.866c-12.809 10.899-38.631 36.257-81.142 36.257-46.818 0-73.935-24.637-84.954-36.473 20.062-13.548 56.032-19.855 88.542-19.95 34.852-.102 59.963 9.229 77.554 20.166zm-84.356 190.063c-111.772 0-123.84-50.175-116.219-64.714 2.115-4.027 4.725-7.152 7.393-9.552-22.317 22.706 37.685 54.329 52.076 56.063 14.397 1.727 24.145-34.278 24.145-34.278-4.223 36.057 45.287 33.388 69.846 34.24 24.558.845 55.886-12.702 69.013-20.749 7.583-4.649 13.75-14.436 17.611-21.874 4.356 18.476-12.309 60.864-123.865 60.864z" opacity=".2" fill="#4F124C"/><g clip-path="url(#clip0_1307:23574)" filter="url(#filter0_d_1307:23574)"><g filter="url(#filter1_d_1307:23574)"><path d="M110.599 219.761c17.438 17.44 17.438 45.726 0 63.165s-45.72 17.439-63.158 0c-17.438-17.439-17.438-45.725 0-63.165 17.437-17.439 45.72-17.439 63.158 0z" fill="url(#paint0_radial_1307:23574)"/></g><path d="M94.28 229.103c8.052 8.052 2.498 31.485 1.014 37.114a2.296 2.296 0 01-1.555 1.601c-5.729 1.675-28.874 6.874-36.959-1.211-5.705-5.706-6.25-14.406-.4-20.256 3.678-3.678 8.763-5.097 13.447-4.201-.896-4.684.522-9.769 4.2-13.448 5.85-5.85 14.549-5.305 20.254.401z" fill="#fff"/></g><g filter="url(#filter2_d_1307:23574)"><path d="M373.217 279.151c0-10.818 8.769-19.589 19.587-19.589s19.588 8.771 19.588 19.589c0 10.818-8.77 19.59-19.588 19.59-10.818 0-19.587-8.772-19.587-19.59z" fill="#1DA1F2"/><path d="M404.026 277.111a2.04 2.04 0 00-2.04-2.041h-6.448l.98-4.663c.02-.102.03-.214.03-.326 0-.419-.173-.806-.449-1.082l-1.081-1.071-6.713 6.713a2.04 2.04 0 00-.602 1.449v10.203a2.04 2.04 0 002.041 2.041h9.181c.847 0 1.571-.51 1.877-1.245l3.081-7.193c.092-.235.143-.48.143-.745v-2.04zm-22.444 11.223h4.081V276.09h-4.081v12.244z" fill="#fff"/></g><g filter="url(#filter3_d_1307:23574)"><path d="M78.918 16.795c8.654-14.99 27.822-20.127 42.811-11.472 14.99 8.655 20.126 27.825 11.472 42.816-8.654 14.99-27.822 20.127-42.812 11.472-14.99-8.655-20.125-27.825-11.471-42.816z" fill="#00C74F"/><path d="M119.761 38.117l-4.182-15.61-3.265 5.655c-10.711-4.3-19.033.32-24.527 6.572 6.39-2.907 12.644-2.312 19.712 1.769l-3.346 5.796 15.608-4.182z" fill="#fff"/></g><g filter="url(#filter4_d_1307:23574)"><path d="M360.975 71.012c13.792-23.891 44.341-32.078 68.231-18.284 23.89 13.794 32.074 44.346 18.282 68.237-13.792 23.892-44.341 32.079-68.231 18.285-23.89-13.795-32.074-44.347-18.282-68.238z" fill="#FF5C00"/><g clip-path="url(#clip1_1307:23574)"><path d="M386.442 112.755a2.347 2.347 0 01-1.091-1.422c-.16-.6-.076-1.239.234-1.777l3.512-6.083-8.11-4.683a4.68 4.68 0 01-1.714-6.398l14.048-24.334a4.684 4.684 0 016.396-1.714l32.443 18.733a4.685 4.685 0 011.714 6.397l-14.048 24.334a4.68 4.68 0 01-6.397 1.714l-12.368-7.142-11.846 3.192a2.385 2.385 0 01-1.759-.232l-1.014-.585z" fill="#fff"/></g></g><defs><filter id="filter0_d_1307:23574" x="-19.928" y="152.388" width="197.896" height="197.912" filterUnits="userSpaceOnUse" color-interpolation-filters="sRGB"><feFlood flood-opacity="0" result="BackgroundImageFix"/><feColorMatrix in="SourceAlpha" values="0 0 0 0 0 0 0 0 0 0 0 0 0 0 0 0 0 0 127 0" result="hardAlpha"/><feOffset/><feGaussianBlur stdDeviation="10"/><feComposite in2="hardAlpha" operator="out"/><feColorMatrix values="0 0 0 0 0.811765 0 0 0 0 0.0509804 0 0 0 0 0.137255 0 0 0 0.25 0"/><feBlend in2="BackgroundImageFix" result="effect1_dropShadow_1307:23574"/><feBlend in="SourceGraphic" in2="effect1_dropShadow_1307:23574" result="shape"/></filter><filter id="filter1_d_1307:23574" x="34.363" y="206.682" width="89.314" height="89.324" filterUnits="userSpaceOnUse" color-interpolation-filters="sRGB"><feFlood flood-opacity="0" result="BackgroundImageFix"/><feColorMatrix in="SourceAlpha" values="0 0 0 0 0 0 0 0 0 0 0 0 0 0 0 0 0 0 127 0" result="hardAlpha"/><feOffset/><feComposite in2="hardAlpha" operator="out"/><feColorMatrix values="0 0 0 0 0.811765 0 0 0 0 0.0509804 0 0 0 0 0.137255 0 0 0 0.25 0"/><feBlend in2="BackgroundImageFix" result="effect1_dropShadow_1307:23574"/><feBlend in="SourceGraphic" in2="effect1_dropShadow_1307:23574" result="shape"/></filter><filter id="filter2_d_1307:23574" x="363.217" y="249.562" width="59.176" height="59.179" filterUnits="userSpaceOnUse" color-interpolation-filters="sRGB"><feFlood flood-opacity="0" result="BackgroundImageFix"/><feColorMatrix in="SourceAlpha" values="0 0 0 0 0 0 0 0 0 0 0 0 0 0 0 0 0 0 127 0" result="hardAlpha"/><feOffset/><feGaussianBlur stdDeviation="5"/><feComposite in2="hardAlpha" operator="out"/><feColorMatrix values="0 0 0 0 0.113725 0 0 0 0 0.631373 0 0 0 0 0.94902 0 0 0 0.25 0"/><feBlend in2="BackgroundImageFix" result="effect1_dropShadow_1307:23574"/><feBlend in="SourceGraphic" in2="effect1_dropShadow_1307:23574" result="shape"/></filter><filter id="filter3_d_1307:23574" x="43.248" y="-30.349" width="125.623" height="125.631" filterUnits="userSpaceOnUse" color-interpolation-filters="sRGB"><feFlood flood-opacity="0" result="BackgroundImageFix"/><feColorMatrix in="SourceAlpha" values="0 0 0 0 0 0 0 0 0 0 0 0 0 0 0 0 0 0 127 0" result="hardAlpha"/><feOffset/><feGaussianBlur stdDeviation="10"/><feComposite in2="hardAlpha" operator="out"/><feColorMatrix values="0 0 0 0 0 0 0 0 0 0.780392 0 0 0 0 0.309804 0 0 0 0.25 0"/><feBlend in2="BackgroundImageFix" result="effect1_dropShadow_1307:23574"/><feBlend in="SourceGraphic" in2="effect1_dropShadow_1307:23574" result="shape"/></filter><filter id="filter4_d_1307:23574" x="316" y="7.751" width="176.463" height="176.475" filterUnits="userSpaceOnUse" color-interpolation-filters="sRGB"><feFlood flood-opacity="0" result="BackgroundImageFix"/><feColorMatrix in="SourceAlpha" values="0 0 0 0 0 0 0 0 0 0 0 0 0 0 0 0 0 0 127 0" result="hardAlpha"/><feOffset/><feGaussianBlur stdDeviation="10"/><feComposite in2="hardAlpha" operator="out"/><feColorMatrix values="0 0 0 0 1 0 0 0 0 0.360784 0 0 0 0 0 0 0 0 0.25 0"/><feBlend in2="BackgroundImageFix" result="effect1_dropShadow_1307:23574"/><feBlend in="SourceGraphic" in2="effect1_dropShadow_1307:23574" result="shape"/></filter><clipPath id="clip0_1307:23574"><path fill="#fff" transform="rotate(-45.003 303.414 125.585)" d="M0 0h111.655v111.655H0z"/></clipPath><clipPath id="clip1_1307:23574"><path fill="#fff" transform="rotate(30.002 89.49 763.855) skewX(.005)" d="M0 0h56.193v56.196H0z"/></clipPath><radialGradient id="paint0_radial_1307:23574" cx="0" cy="0" r="1" gradientUnits="userSpaceOnUse" gradientTransform="rotate(-45.003 294.78 28.507) scale(109.079)"><stop offset=".01" stop-color="#FF3347"/><stop offset=".82" stop-color="#E72035"/><stop offset="1" stop-color="#CF0D23"/></radialGradient></defs></svg>