<?xml version="1.0" encoding="utf-8"?>
<!-- Generator: Adobe Illustrator 25.2.3, SVG Export Plug-In . SVG Version: 6.00 Build 0)  -->
<svg version="1.1" id="Слой_1" xmlns="http://www.w3.org/2000/svg" xmlns:xlink="http://www.w3.org/1999/xlink" x="0px" y="0px"
	 viewBox="0 0 475 453" style="enable-background:new 0 0 475 453;" xml:space="preserve">
<style type="text/css">
	.st0{fill:#FFFFFF;}
	.st1{fill:#E32B2B;}
	.st2{fill:#4F124C;}
	.st3{opacity:0.2;}
	.st4{fill:#D4D4D4;}
	.st5{opacity:0.2;fill:#4F124C;enable-background:new    ;}
	.st6{opacity:0.6;fill:#FFFFFF;enable-background:new    ;}
	.st7{opacity:0.4;fill:#FFFFFF;enable-background:new    ;}
	.st8{clip-path:url(#SVGID_2_);}
	.st9{fill:url(#SVGID_3_);}
	.st10{fill:#1DA1F2;}
	.st11{fill:#00C74F;}
	.st12{fill:#FF5C00;}
	.st13{clip-path:url(#SVGID_5_);}
</style>
<path class="st0" d="M415,344.8c0,0,4.3-15.2-7-22.5c-8.6-5.6-21-3.8-26-1.3c0,0-17.3-19.7-29-34.3c-5.4-6.8-15-17.4-30.2-26.8
	c-17.6-10.9-42.7-20.3-77.6-20.2c-32.5,0.1-68.5,6.4-88.5,20c-3,2-5.6,4.2-7.8,6.5c-17.1,18-44.5,62.5-51.4,63.8c0,0-15.2-7.6-26,0
	c-10.8,7.6-9.5,20.3-7,25.4c0,0-0.4,1-0.8,2.6c-1.5,5.9-3.1,20.4,12.8,25.3c20.3,6.4,49.5-1.9,73.7-34.9c-0.1,0.2-1.2,3.1-2.5,7
	c-1.3,3.8-2.8,8.6-3.8,12.7c0,0-7.3,1.4-14.3,7.6c0,0,0,0,0,0c-2.7,2.4-5.3,5.5-7.4,9.6c-7.6,14.5,4.4,64.7,116.2,64.7
	c111.6,0,128.2-42.4,123.9-60.9c0,0,0-0.1,0-0.1c-2-8.2-5.1-14.4-8.5-19c-1.7-2.4-3.5-4.3-5.2-5.9c8.9,6,25.4,15.1,41,12.9
	c17.2-2.4,29.7-14.6,29.7-24.1C419.3,349.7,418,346.9,415,344.8z M82.5,355.4c-4.1,0-7.4-3.3-7.4-7.4c0-4.1,3.3-7.4,7.4-7.4
	s7.4,3.3,7.4,7.4C89.9,352.1,86.6,355.4,82.5,355.4z M396.9,344.3c-4.1,0-7.4-3.3-7.4-7.4s3.3-7.4,7.4-7.4c4.1,0,7.4,3.3,7.4,7.4
	C404.2,341,400.9,344.3,396.9,344.3z"/>
<path class="st0" d="M345.3,151.1c-11-43.1-53-75.4-103.6-76c-53.5-0.6-98.2,34.6-107,81.2c-7.4,2.8-12.5,13.5-11.7,25.9
	c0.8,13.3,8.1,23.9,16.6,24.6c14.9,37.4,53.9,64.2,99.9,64.8c48.9,0.5,90.6-28.8,104-69.5c8-1.5,14.6-11.6,15.5-24.3
	C360,164.1,353.9,152.5,345.3,151.1z"/>
<path class="st0" d="M171.8,116.3c1.6,0,2.9-1.3,2.9-2.9c0-1.6-1.3-2.9-2.9-2.9s-2.9,1.3-2.9,2.9C169,115,170.3,116.3,171.8,116.3z"
	/>
<path class="st1" d="M135.8,425.8c-1.1,0-2.1-0.7-2.4-1.8c-4.1-13.2-3.4-25.1,2.1-35.3c9.3-17.5,29-23.6,29.8-23.8
	c1.3-0.4,2.8,0.4,3.2,1.7c0.4,1.3-0.4,2.8-1.7,3.2c-0.2,0.1-18.6,5.8-26.8,21.4c-4.8,9-5.3,19.5-1.7,31.4c0.4,1.3-0.3,2.8-1.7,3.2
	C136.3,425.7,136,425.8,135.8,425.8z"/>
<path class="st1" d="M352.3,421.5c-0.1,0-0.2,0-0.3,0c-1.4-0.1-2.4-1.4-2.3-2.8c1.7-15.8-1.4-28.4-9.1-37.2
	c-11.5-13.2-29.7-13.9-29.9-13.9c-1.4,0-2.5-1.2-2.5-2.6s1.2-2.5,2.6-2.5c0.8,0,20.6,0.8,33.5,15.6c8.7,10,12.2,23.8,10.3,41.2
	C354.7,420.5,353.6,421.5,352.3,421.5z"/>
<path class="st1" d="M319.7,332.1C319.7,332.1,319.6,332.1,319.7,332.1c-1.5,0-2.6-1.2-2.5-2.6c0-0.7,0.5-18.2,13-28.6
	c7.8-6.5,18.4-8.7,31.6-6.6c1.4,0.2,2.3,1.5,2.1,2.9c-0.2,1.4-1.5,2.3-2.9,2.1c-11.6-1.9-20.8,0-27.5,5.5
	c-10.7,8.9-11.2,24.6-11.2,24.8C322.2,331,321.1,332.1,319.7,332.1z"/>
<path class="st1" d="M162.5,332.1c-1.1,0-2.1-0.7-2.4-1.8c-3.1-11-8.6-18.6-16.1-22.5c-11-5.8-23.1-1.9-23.2-1.8
	c-1.3,0.4-2.8-0.3-3.2-1.6c-0.4-1.3,0.3-2.8,1.6-3.2c0.6-0.2,14.2-4.7,27.2,2.1c8.8,4.6,15.1,13.3,18.6,25.7
	c0.4,1.3-0.4,2.8-1.7,3.1C162.9,332.1,162.7,332.1,162.5,332.1z"/>
<path class="st2" d="M238.4,452.5c-79,0-105.9-24.9-114.9-39.8c-7.4-12.2-6.5-23.1-3.6-28.7c1.7-3.2,3.7-5.9,5.7-8.1
	c-4.2,2.8-8.5,5.1-12.8,7c-12.7,5.3-25.9,6.3-37.1,2.8c-6.4-2-10.9-5.6-13.4-10.7c-3.8-7.8-1.6-16.5-0.7-19.5
	c-2.5-6.1-3.4-19.4,8.2-27.6c10.3-7.3,23.8-2.3,27.6-0.7c3.7-2.2,14.2-16.7,22.7-28.4c9.3-12.8,18.9-26.1,26.8-34.3
	c19-19.9,64.7-27.1,98.2-27.2c0.2,0,0.4,0,0.6,0c58.6,0,91.7,26.1,109.2,48c9.7,12.2,23.5,28,27.7,32.8c6.4-2.6,18.2-4.7,27,2.4
	c10.1,8.2,9.1,19.3,8.2,23.5c3.5,3.2,4.8,7.6,3.6,12.5c-2.3,9.4-14.1,20.7-31.5,23.1c-11,1.5-22.2-2.1-31.2-6.5
	c2.4,4.2,4.5,9.3,6,15.5c2.2,9.2-0.8,20.1-8,29.3C344.2,433.5,313.5,452.5,238.4,452.5z M150.2,345.8c0.4,0,0.8,0.1,1.2,0.3
	c1.1,0.6,1.6,1.9,1.2,3.1c0,0.1-4.2,11.4-6.2,19.4c-0.2,1-1,1.7-2,1.9c-0.1,0-13,2.7-19.9,15.9c-2.5,4.8-2.4,14,3.5,23.7
	c8.4,13.9,34,37.3,110.5,37.3c31.9,0,58.4-3.5,78.6-10.4c16.3-5.5,28.3-13.1,35.7-22.5c9.3-11.8,7.7-22.1,7.1-24.9
	c-2.9-11.9-8.2-19.2-12.8-23.5c-3.9-2.7-6.4-4.7-6.7-5c-1-0.8-1.2-2.3-0.4-3.4c0.7-1.1,2.2-1.4,3.3-0.8c2,1.1,4.4,2.7,7.1,5.2
	c8.7,5.8,24.4,14.4,39,12.3c14.6-2,25.3-11.4,27.3-19.3c0.9-3.5-0.1-6.3-3-8.3c-0.9-0.6-1.3-1.8-1-2.9c0.1-0.5,3.6-11.8-6.2-19.7
	c-7.9-6.4-19.5-2.9-23.3-1c-1,0.5-2.3,0.3-3-0.6c-0.2-0.2-17.5-19.9-29.1-34.4c-16.8-21-48.6-46-105.2-46c-0.2,0-0.4,0-0.6,0l0-2.5
	l0,2.5c-32.4,0.1-76.6,6.9-94.5,25.6c-7.6,8-17.6,21.7-26.3,33.8c-15.4,21.2-22.1,29.9-26.5,30.7c-0.5,0.1-1.1,0-1.6-0.2
	c-0.1-0.1-14-6.8-23.4-0.2c-9.6,6.7-8.2,18.1-6.2,22.2c0.3,0.6,0.4,1.4,0.1,2c0,0.1-3.4,9.2,0.1,16.6c1.8,3.8,5.3,6.5,10.3,8.1
	c10.1,3.2,22.1,2.2,33.7-2.6c13.5-5.6,26.3-16.5,37.2-31.4C148.6,346.1,149.4,345.8,150.2,345.8z M143.3,360.7
	c-2.6,2.9-5.4,5.5-8.2,8c2.8-1.5,5.2-2.3,6.7-2.8C142.2,364.2,142.8,362.5,143.3,360.7z"/>
<path class="st2" d="M383,323c-0.1,0.1-0.4,0.3-0.6,0.5l-0.6,0.5c-0.4,0.3-0.9,0.6-1.3,0.9c-0.9,0.6-1.8,1.2-2.7,1.9
	c-0.9,0.6-1.7,1.4-2.6,2.1c-0.9,0.8-1.6,1.6-2.5,2.6l0,0c-0.1,0.1-0.3,0.1-0.5,0c-0.1-0.1-0.1-0.2-0.1-0.3c0.1-1.3,0.3-2.6,0.8-3.8
	c0.5-1.2,1.1-2.4,1.9-3.5c0.8-1.1,1.6-2.1,2.6-3c0.5-0.4,1-0.8,1.6-1.2c0.3-0.2,0.6-0.3,0.9-0.5c0.3-0.2,0.6-0.3,1-0.4
	c1.2-0.4,2.5,0.2,2.9,1.4c0.3,0.8,0.1,1.6-0.4,2.2L383,323z"/>
<path class="st2" d="M98.6,327.9c0.4,0.2,0.7,0.3,1.1,0.5c0.3,0.2,0.6,0.4,1,0.6c0.6,0.4,1.2,0.9,1.7,1.4c1.1,1,2,2.2,2.8,3.5
	c0.8,1.3,1.4,2.7,1.7,4.2c0.4,1.5,0.4,3,0.1,4.4c0,0.2-0.2,0.3-0.4,0.3c-0.1,0-0.2-0.1-0.2-0.2l0,0c-0.6-1.3-1.2-2.4-2-3.4
	c-0.8-1-1.6-1.9-2.5-2.7c-0.9-0.8-1.9-1.6-2.8-2.3l-1.4-1.1c-0.4-0.4-1-0.8-1.3-1.1l-0.3-0.3c-0.9-0.9-0.9-2.4,0-3.3
	C96.8,327.7,97.8,327.6,98.6,327.9z"/>
<path class="st2" d="M236.5,394.9C236.5,394.9,236.5,394.9,236.5,394.9c-15.3-0.2-31.4-8.2-45.6-15.3c-8.1-4-15.8-7.8-21.4-9.1
	c-13.4-3-24.8-0.1-25,0c-1.4,0.4-2.7-0.5-3.1-1.8c-0.4-1.4,0.4-2.7,1.8-3.1c0.5-0.1,12.7-3.3,27.4,0c6.3,1.4,13.8,5.2,22.6,9.5
	c13.7,6.8,29.3,14.6,43.3,14.7c1.4,0,2.5,1.2,2.5,2.6C239,393.7,237.9,394.9,236.5,394.9z"/>
<path class="st0" d="M190.2,319.1c10.3-11.4,87.6-13.3,100.3,0c12.7,13.3,13.5,35.3,4.4,45.3c-11.9,13.1-91.8,15.9-108.6,2.2
	C171.8,354.7,180.2,330.1,190.2,319.1z"/>
<path class="st2" d="M236.1,378.2c-20.2,0-42.7-2.5-51.4-9.6c-5.1-4.2-8.1-10.2-8.7-17.4c-1-12.8,5.7-26.5,12.2-33.7
	c6.4-7.1,31.3-9.9,50.6-10.1c20.9-0.3,46,2.2,53.4,10.1c6.4,6.7,10.3,15.7,11.1,25.5c0.7,9.4-1.7,17.9-6.6,23.3
	c-7.2,8-32.8,11.4-54.3,12C240.5,378.1,238.3,378.2,236.1,378.2z M242.1,312.3c-1,0-2.1,0-3.1,0c-23,0.3-42.7,3.8-46.9,8.4
	c-6.1,6.7-11.8,19.1-11,29.9c0.4,5.9,2.7,10.5,6.8,13.9c7,5.7,28.9,9.1,54.5,8.4c24.9-0.7,45.7-4.9,50.6-10.3
	c7.8-8.7,7.6-29.3-4.4-41.9C283.8,315.7,265.3,312.3,242.1,312.3z"/>
<path class="st2" d="M148.2,346.7c2.5-3.2,4.9-6.7,7.1-10.2c2.3-3.5,4.4-7.1,6.4-10.7l1.4-2.8c0.5-0.9,0.9-1.9,1.3-2.8l0.6-1.4
	l0.6-1.4c0.4-1,0.8-1.9,1.2-2.9c1.7-3.8,3.3-7.5,5.7-11.2l0,0c0.3-0.4,0.8-0.5,1.2-0.3c0.2,0.2,0.4,0.4,0.4,0.7c0.1,1.1,0,2.2,0,3.3
	c0,1.1-0.2,2.2-0.5,3.3c-0.4,2.2-1.1,4.2-1.8,6.3c-0.4,1-0.9,2-1.3,3l-0.7,1.5l-0.7,1.4c-0.5,1-1,1.9-1.5,2.9l-1.5,2.9
	c-2,3.8-4.2,7.5-6.6,11.1c-1.2,1.8-2.4,3.6-3.6,5.3c-1.2,1.8-2.5,3.5-3.8,5.2c-0.9,1.1-2.5,1.3-3.6,0.5
	C147.5,349.5,147.3,347.9,148.2,346.7L148.2,346.7z"/>
<path class="st2" d="M256.9,452c-16.3,0-35.5-4.2-47.5-14.6c-7.4-6.5-11.3-14.5-11.4-23.9c-0.1-8.1,2.1-14.3,6.6-18.5
	c8.2-7.5,21.3-6.3,29.2-5.6c1.9,0.2,3.5,0.3,4.3,0.3c1.2-0.1,2.9,0.1,4.9,0.2c9.9,0.9,30.6,2.7,52.4-16.6c17-15,29.5-18.7,37.5-18.9
	c-2.3-2.5-4.6-5.5-6.9-8.9c-0.8-1.2-0.5-2.7,0.7-3.5c1.2-0.8,2.7-0.5,3.5,0.7c4.4,6.6,8.8,11.3,12.8,13.9c0.2,0.1,0.3,0.2,0.3,0.2
	c1.1,0.8,1.4,2.3,0.6,3.5s-2.3,1.5-3.5,0.7c-0.1,0-0.1-0.1-0.2-0.1c-1.3-0.7-14.9-7.4-41.6,16.2c-23.5,20.7-45.6,18.7-56.2,17.8
	c-1.8-0.2-3.3-0.3-4.1-0.2c-1.2,0.1-2.9-0.1-5.1-0.3c-7-0.7-18.7-1.8-25.2,4.2c-3.4,3.1-5.1,8.1-5,14.7c0.1,7.9,3.4,14.6,9.7,20.1
	c13.5,11.7,37.4,14.8,53.9,12.8c1.4-0.2,2.7,0.8,2.8,2.2c0.2,1.4-0.8,2.7-2.2,2.8C264.1,451.8,260.6,452,256.9,452z"/>
<path class="st2" d="M306.9,296.6c2.7,3.6,4.5,7.4,6.1,11.3c0.8,2,1.5,4,2.3,5.9c0.8,2,1.6,3.9,2.5,5.9c1.7,3.9,3.6,7.7,5.5,11.4
	c2,3.7,4.1,7.4,6.4,10.9l0,0c0.8,1.2,0.4,2.8-0.8,3.5c-1.2,0.8-2.8,0.4-3.5-0.8c-2.4-3.7-4.6-7.5-6.6-11.3c-2-3.9-3.9-7.8-5.7-11.7
	l-2.6-5.9c-0.9-2-1.8-3.9-2.6-6c-0.8-2-1.4-4.1-1.9-6.2c-0.2-1.1-0.4-2.1-0.6-3.2c-0.2-1.1-0.2-2.2-0.2-3.3c0-0.5,0.4-0.9,0.9-0.9
	C306.5,296.2,306.7,296.4,306.9,296.6z"/>
<path class="st2" d="M332.7,359.7c-1.3,0-2.4-0.9-2.5-2.2c-0.4-3.4-7-16.1-11.1-23.3c-0.7-1.2-0.3-2.8,1-3.5c1.2-0.7,2.8-0.3,3.5,1
	c1.1,2,11,19.7,11.7,25.2c0.2,1.4-0.8,2.7-2.2,2.8C332.9,359.7,332.8,359.7,332.7,359.7z"/>
<g class="st3">
	<path class="st2" d="M295.5,325.9c1,8.2-0.9,16.1-5.3,21c-10.8,12-83.9,14.5-99.3,2c-6.3-5.2-7.9-12.9-6.9-20.7
		c-6.5,12.3-9.1,29.2,2.3,38.6c16.8,13.7,96.7,10.9,108.6-2.2C302.6,356.1,303.2,339,295.5,325.9z"/>
	<path class="st2" d="M147.7,355.3c1.3-3.9,2.4-6.8,2.5-7c-24.1,33-53.3,41.3-73.7,34.9c-16-5-14.3-19.4-12.8-25.3
		c6.4,7.7,9.9,15.6,37.1,13c22.2-2.1,61.3-39,70.8-61.1C171.2,310.8,164.4,333.3,147.7,355.3z"/>
	<path class="st2" d="M419.3,352.8c0,9.5-12.5,21.7-29.7,24.1c-15.6,2.2-26.8-3.9-41-12.9c-19.7-12.6-30.7-32.6-35.3-48.2
		c0,0,21.6,35.1,53.8,44.3C388.9,366.3,405.5,365.9,419.3,352.8z"/>
</g>
<path class="st0" d="M169.1,359.5c3.3-0.2,6.5-0.8,9.3-2c11.6-5,21.7-16.7,27.8-10.9c5.9,5.5-0.7,22.6-13.7,28.5"/>
<path class="st0" d="M309.3,359.7c-3.6-0.2-7.1-0.8-10.2-2.2c-11.6-5-21.7-16.7-27.8-10.9c-6.2,5.8,1.4,20.4,14.1,29.1"/>
<path class="st2" d="M292.1,382c-0.3,0-0.7-0.1-1-0.2c-12-5.3-22.7-17.2-24.4-27.1c-0.7-4.2,0.3-7.6,2.8-10
	c5.5-5.1,12.4-0.6,19.8,4.2c3.5,2.3,7.1,4.6,10.8,6.2c10.6,4.6,28-0.1,28.1-0.1c1.4-0.4,2.7,0.4,3.1,1.8c0.4,1.4-0.4,2.8-1.8,3.1
	c-0.8,0.2-19.3,5.2-31.5-0.1c-4.1-1.8-8.1-4.4-11.6-6.7c-6.8-4.5-11.1-7-13.5-4.8c-1.2,1.2-1.7,3-1.2,5.4
	c1.2,7.2,9.7,18.1,21.4,23.3c1.3,0.6,1.9,2.1,1.3,3.4C294,381.4,293.1,382,292.1,382z"/>
<path class="st2" d="M190.2,378.9c-0.9,0-1.9-0.5-2.3-1.4c-0.6-1.3-0.1-2.8,1.2-3.4c8.4-4.1,15.9-12.8,16.9-19.9
	c0.4-2.5-0.1-4.5-1.5-5.8c-2.4-2.3-6.7,0.3-13.5,4.8c-3.5,2.3-7.4,4.9-11.6,6.7c-12.2,5.3-32.2,0-33-0.3c-1.4-0.4-2.2-1.8-1.8-3.1
	c0.4-1.4,1.8-2.1,3.1-1.8c0.2,0.1,19,5.1,29.6,0.5c3.7-1.6,7.3-4,10.8-6.2c7.3-4.8,14.3-9.4,19.8-4.2c2.7,2.5,3.7,6,3.1,10.3
	c-1.3,8.7-9.8,18.9-19.8,23.7C191,378.8,190.6,378.9,190.2,378.9z"/>
<g class="st3">
	<path class="st2" d="M272.3,348.3c0,0,13.2,25,33.6,20c0,0-10.8,9-13.8,11.1C292.1,379.5,260.4,359.6,272.3,348.3z"/>
	<path class="st2" d="M206.9,349.3c0,0-7.2,18.2-33.5,19.6c0,0,7.1,2.6,14.3,6.2c7.2,3.6,0.2,0.7,0.2,0.7S210.9,367.5,206.9,349.3z"
		/>
</g>
<path class="st2" d="M396.9,346.9c-5.5,0-9.9-4.4-9.9-9.9c0-5.5,4.4-9.9,9.9-9.9c5.5,0,9.9,4.4,9.9,9.9
	C406.8,342.4,402.3,346.9,396.9,346.9z M396.9,332.1c-2.7,0-4.8,2.2-4.8,4.8s2.2,4.8,4.8,4.8c2.7,0,4.8-2.2,4.8-4.8
	S399.5,332.1,396.9,332.1z"/>
<path class="st2" d="M401.7,333.4c-0.9,0-1.7-0.6-1.9-1.6c-0.2-1.1,0.4-2.1,1.5-2.3c0.2,0,4.4-1.1,7.5-5.9c0.6-0.9,1.8-1.2,2.7-0.6
	c0.9,0.6,1.2,1.8,0.6,2.7c-4,6.3-9.7,7.6-10,7.7C402,333.4,401.9,333.4,401.7,333.4z"/>
<path class="st2" d="M417.2,345.3c0,0.2-0.1,0.4-0.1,0.5c0,0.2-0.1,0.3-0.1,0.5c-0.1,0.3-0.2,0.6-0.3,0.9c-0.2,0.6-0.5,1.2-0.7,1.7
	c-0.6,1.1-1.2,2.2-2,3.1c-1.6,1.9-3.6,3.5-5.9,4.5c-0.5,0.3-1.1,0.5-1.7,0.7c-0.3,0.1-0.6,0.2-0.9,0.3l-0.9,0.2
	c-0.6,0.1-1.2,0.3-1.8,0.3l-1.8,0.1c-0.6,0.1-1.2,0-1.7,0c-0.6,0-1.1-0.1-1.7-0.1c-1.1-0.2-2.2-0.4-3.3-0.7c-0.2,0-0.3-0.2-0.2-0.4
	c0-0.1,0.1-0.2,0.3-0.3l0,0c1.1-0.2,2.2-0.3,3.2-0.5c0.5-0.1,1-0.3,1.5-0.4l0.8-0.2c0.3-0.1,0.5-0.2,0.7-0.2l1.5-0.5
	c0.2-0.1,0.5-0.2,0.7-0.3l0.7-0.3l0.7-0.3c0.2-0.1,0.4-0.3,0.6-0.4c0.4-0.3,0.8-0.5,1.2-0.8c1.6-1.1,2.9-2.5,4-4
	c0.3-0.4,0.5-0.8,0.8-1.2c0.1-0.2,0.2-0.4,0.4-0.6c0.1-0.2,0.3-0.4,0.4-0.6c0.2-0.4,0.5-0.8,0.6-1.2c0.1-0.2,0.2-0.4,0.3-0.6
	l0.1-0.3c0-0.1,0.1-0.2,0.1-0.2l0.6-0.7c0.8-0.9,2.2-1.1,3.1-0.3C417.1,343.7,417.3,344.5,417.2,345.3z"/>
<path class="st2" d="M82.5,358c-5.5,0-9.9-4.4-9.9-9.9c0-5.5,4.4-9.9,9.9-9.9c5.5,0,9.9,4.4,9.9,9.9C92.4,353.5,88,358,82.5,358z
	 M82.5,343.2c-2.7,0-4.8,2.2-4.8,4.8c0,2.7,2.2,4.8,4.8,4.8c2.7,0,4.8-2.2,4.8-4.8C87.3,345.4,85.2,343.2,82.5,343.2z"/>
<path class="st2" d="M77.7,344.5c-0.1,0-0.3,0-0.4,0c-0.2-0.1-6-1.3-10-7.7c-0.6-0.9-0.3-2.1,0.6-2.7c0.9-0.6,2.1-0.3,2.7,0.6
	c3.1,4.9,7.3,5.9,7.5,5.9c1.1,0.2,1.7,1.3,1.5,2.3C79.4,343.9,78.6,344.5,77.7,344.5z"/>
<path class="st2" d="M66.6,354.6c0.2,0.3,0.4,0.7,0.6,1.1c0.2,0.4,0.5,0.8,0.7,1.2c0.2,0.4,0.5,0.8,0.7,1.1c0.3,0.4,0.5,0.7,0.8,1.1
	c1.1,1.4,2.3,2.8,3.7,3.9l0.5,0.4c0.2,0.1,0.4,0.2,0.6,0.4c0.4,0.2,0.8,0.5,1.2,0.7c0.4,0.2,0.8,0.4,1.2,0.6
	c0.2,0.1,0.4,0.2,0.6,0.3l0.7,0.2c0.9,0.4,1.8,0.5,2.8,0.8c0.2,0.1,0.5,0.1,0.7,0.1l0.7,0.1c0.5,0.1,1,0.2,1.5,0.2l0,0
	c0.2,0,0.3,0.2,0.3,0.4c0,0.1-0.1,0.2-0.2,0.3c-0.5,0.1-1,0.3-1.5,0.4c-0.5,0.1-1,0.3-1.6,0.3c-1.1,0.1-2.2,0.2-3.3,0.1l-0.8-0.1
	c-0.3,0-0.6,0-0.8-0.1c-0.5-0.1-1.1-0.2-1.7-0.4c-0.6-0.1-1.1-0.4-1.6-0.6c-0.3-0.1-0.5-0.2-0.8-0.3l-0.8-0.4
	c-2-1.1-3.9-2.5-5.4-4.3c-0.7-0.9-1.4-1.8-1.9-2.8c-0.1-0.3-0.3-0.5-0.4-0.8l-0.3-0.8c-0.2-0.6-0.4-1-0.6-1.7
	c-0.3-1.2,0.4-2.5,1.6-2.8c1-0.3,2,0.2,2.5,1L66.6,354.6z"/>
<path class="st4" d="M359,177.2c-0.9,12.7-7.6,22.8-15.5,24.3c8.3-18.8,2.5-45.8,1.8-50.9C353.9,152,360,163.6,359,177.2z"/>
<path class="st4" d="M139.5,206.2c-8.5-0.7-15.8-11.2-16.6-24.6c-0.8-12.4,4.3-23.1,11.7-25.9C134.7,155.8,130.4,188.8,139.5,206.2z
	"/>
<path class="st5" d="M343.5,186.4c-13.5,40.7-55.1,70.1-104,69.6c-46.1-0.5-85.1-27.4-99.9-64.8c-7.3-0.6-13.7-8.5-15.9-19.2
	c-0.7,3.1-0.9,6.6-0.7,10.1c0.8,13.3,8.1,23.9,16.6,24.6c14.9,37.4,53.9,64.2,99.9,64.8c48.9,0.5,90.6-28.8,104-69.5
	c8-1.5,14.6-11.6,15.5-24.3c0.3-3.7,0-7.2-0.7-10.4C356.3,177.4,350.4,185.1,343.5,186.4z"/>
<path class="st2" d="M256.9,261.6c48.1-9.8,79.7-54.4,70.5-99.5c-9.2-45.1-55.7-73.8-103.8-64c-48.1,9.8-79.7,54.4-70.5,99.5
	C162.3,242.7,208.7,271.4,256.9,261.6z"/>
<path class="st6" d="M327.3,161.1c-9.2-45.1-55.7-73.8-103.8-64c-44.2,9-74.5,47.4-71.9,88.6c2.3-37.4,31.2-70.6,71.9-78.9
	c2.8-0.6,5.6-1,8.3-1.3c0.4,3.1,5,5.5,10.5,5.5c5.6,0,10.2-2.4,10.5-5.5c36.4,4.1,67.1,29.5,74.3,65.3c0.7,3.6,1.2,7.3,1.4,10.9
	C329.2,175,328.7,168,327.3,161.1z"/>
<path class="st2" d="M237.8,266c-17.3,0-34.1-4.7-48.8-13.7c-20.2-12.5-33.9-31.7-38.5-54.3c-9.5-46.4,23-92.4,72.4-102.5
	c23.9-4.9,48.2-0.7,68.3,11.7c20.2,12.5,33.9,31.7,38.5,54.3c4.6,22.5-0.4,45.6-14.2,65c-13.7,19.3-34.4,32.6-58.3,37.5
	C250.8,265.4,244.3,266,237.8,266z M242.6,98.7c-6.1,0-12.4,0.6-18.5,1.9c-46.7,9.5-77.4,52.8-68.5,96.5
	c4.3,21.1,17.1,39.2,36.1,50.9c19.1,11.7,42,15.7,64.6,11.1c22.6-4.6,42.2-17.2,55.2-35.5c12.9-18.2,17.6-39.9,13.3-61
	c-4.3-21.1-17.1-39.2-36.1-50.9C274.8,103.1,258.9,98.7,242.6,98.7z"/>
<path class="st7" d="M212.8,135.8c3.3,6-0.8,11.2-9.3,20.6c-8.5,9.4-13.7,15-20.5,12.5c-10.7-3.8-4-19.1,4.5-28.5
	C196,131.1,209,128.9,212.8,135.8z"/>
<path class="st2" d="M240.9,274c-0.5,0-0.9,0-1.4,0c-22.8-0.3-44.6-6.8-63-19c-17.6-11.6-31-27.5-38.7-46
	c-9.2-1.8-16.5-12.9-17.3-26.7c-0.8-12.7,4.1-23.9,12-27.9c4.7-22.8,17.9-43.5,37.5-58.5c20.1-15.4,45.6-23.7,71.8-23.4
	c25.1,0.3,48.7,8.1,68.1,22.6c18.5,13.8,31.8,32.8,37.5,53.8c9.2,2.7,15.2,14.7,14.2,28.9c-0.9,12.9-7.6,23.6-16.1,26.2
	c-6.9,19.9-20.8,37.7-39.3,50.2C287.2,267.2,264.6,274,240.9,274z M240.3,77.6c-51.2,0-94.5,33.1-103.2,79.1
	c-0.2,0.9-0.8,1.6-1.6,1.9c-6.4,2.4-10.7,12.5-10.1,23.4c0.7,11.9,7,21.6,14.3,22.2c1,0.1,1.8,0.7,2.2,1.6
	c14.9,37.3,54.1,62.7,97.6,63.2c0.4,0,0.9,0,1.3,0c45.9,0,87-27.7,100.3-67.8c0.3-0.9,1-1.5,1.9-1.7c6.9-1.3,12.7-10.7,13.4-21.9
	c0.8-12-4.4-22.7-11.6-23.9c-1-0.2-1.8-0.9-2-1.9c-11-43.1-52.6-73.5-101.2-74.1C241.2,77.6,240.8,77.6,240.3,77.6z"/>
<path class="st2" d="M250,194c-16.4,0-31.7-0.8-44.9-1.9c-41.5-3.4-71.9-10.3-72.2-10.4c-1.1-0.2-1.7-1.3-1.5-2.4
	c0.2-1.1,1.3-1.7,2.4-1.5c0.3,0.1,30.5,6.9,71.7,10.3c38,3.1,93.5,3.9,141.8-10.3c1-0.3,2.1,0.3,2.4,1.3c0.3,1-0.3,2.1-1.3,2.4
	C316.4,191.1,281.2,194,250,194z"/>
<path class="st2" d="M343.5,204.5c-0.3,0-0.7-0.1-1-0.2c-1.3-0.6-1.9-2.1-1.3-3.3c7.2-16.4,3.2-39.9,1.9-47.6
	c-0.1-0.8-0.2-1.4-0.3-1.9c-0.2-1.4,0.7-2.7,2.1-2.9c1.4-0.2,2.7,0.7,2.9,2.1c0.1,0.4,0.2,1,0.3,1.8c1.4,8.1,5.6,32.7-2.3,50.5
	C345.4,203.9,344.5,204.5,343.5,204.5z"/>
<path class="st2" d="M139.5,209.3c-0.9,0-1.8-0.5-2.2-1.4c-9.4-17.9-5.3-50.6-5.2-52c0.2-1.4,1.4-2.4,2.8-2.2
	c1.4,0.2,2.4,1.5,2.2,2.8c0,0.3-4.1,32.5,4.6,49c0.7,1.2,0.2,2.8-1.1,3.4C140.4,209.2,139.9,209.3,139.5,209.3z"/>
<g class="st3">
	<path class="st2" d="M322.8,259.9c-12.8,10.9-38.6,36.3-81.1,36.3c-46.8,0-73.9-24.6-85-36.5c20.1-13.5,56-19.9,88.5-19.9
		C280.1,239.6,305.2,248.9,322.8,259.9z"/>
	<path class="st2" d="M238.4,449.9c-111.8,0-123.8-50.2-116.2-64.7c2.1-4,4.7-7.2,7.4-9.6c-22.3,22.7,37.7,54.3,52.1,56.1
		c14.4,1.7,24.1-34.3,24.1-34.3c-4.2,36.1,45.3,33.4,69.8,34.2c24.6,0.8,55.9-12.7,69-20.7c7.6-4.6,13.8-14.4,17.6-21.9
		C366.7,407.5,350,449.9,238.4,449.9z"/>
</g>
<g>
	<defs>
		
			<rect id="SVGID_1_" x="23.2" y="195.5" transform="matrix(0.7071 -0.7071 0.7071 0.7071 -154.5885 129.5042)" width="111.7" height="111.7"/>
	</defs>
	<clipPath id="SVGID_2_">
		<use xlink:href="#SVGID_1_"  style="overflow:visible;"/>
	</clipPath>
	<g class="st8">
		<g>
			
				<radialGradient id="SVGID_3_" cx="-719.349" cy="760.2905" r="1" gradientTransform="matrix(77.1267 -77.1343 -77.1343 -77.1267 114191.6797 3369.0615)" gradientUnits="userSpaceOnUse">
				<stop  offset="1.000000e-02" style="stop-color:#FF3347"/>
				<stop  offset="0.82" style="stop-color:#E72035"/>
				<stop  offset="1" style="stop-color:#CF0D23"/>
			</radialGradient>
			<path class="st9" d="M110.6,219.8c17.4,17.4,17.4,45.7,0,63.2c-17.4,17.4-45.7,17.4-63.2,0c-17.4-17.4-17.4-45.7,0-63.2
				C64.9,202.3,93.2,202.3,110.6,219.8z"/>
		</g>
		<path class="st0" d="M94.3,229.1c8.1,8.1,2.5,31.5,1,37.1c-0.2,0.8-0.8,1.4-1.6,1.6c-5.7,1.7-28.9,6.9-37-1.2
			c-5.7-5.7-6.3-14.4-0.4-20.3c3.7-3.7,8.8-5.1,13.4-4.2c-0.9-4.7,0.5-9.8,4.2-13.4C79.9,222.9,88.6,223.4,94.3,229.1z"/>
	</g>
</g>
<g>
	<path class="st10" d="M373.2,279.2c0-10.8,8.8-19.6,19.6-19.6l0,0c10.8,0,19.6,8.8,19.6,19.6l0,0c0,10.8-8.8,19.6-19.6,19.6l0,0
		C382,298.7,373.2,290,373.2,279.2L373.2,279.2z"/>
	<path class="st0" d="M404,277.1c0-0.5-0.2-1.1-0.6-1.4c-0.4-0.4-0.9-0.6-1.4-0.6h-6.4l1-4.7c0-0.1,0-0.2,0-0.3
		c0-0.4-0.2-0.8-0.4-1.1l-1.1-1.1l-6.7,6.7c-0.4,0.4-0.6,0.9-0.6,1.4v10.2c0,0.5,0.2,1.1,0.6,1.4c0.4,0.4,0.9,0.6,1.4,0.6h9.2
		c0.8,0,1.6-0.5,1.9-1.2l3.1-7.2c0.1-0.2,0.1-0.5,0.1-0.7V277.1z M381.6,288.3h4.1v-12.2h-4.1V288.3z"/>
</g>
<g>
	<path class="st11" d="M78.9,16.8c8.7-15,27.8-20.1,42.8-11.5l0,0c15,8.7,20.1,27.8,11.5,42.8l0,0c-8.7,15-27.8,20.1-42.8,11.5l0,0
		C75.4,51,70.3,31.8,78.9,16.8L78.9,16.8z"/>
	<path class="st0" d="M119.8,38.1l-4.2-15.6l-3.3,5.7c-10.7-4.3-19,0.3-24.5,6.6c6.4-2.9,12.6-2.3,19.7,1.8l-3.3,5.8L119.8,38.1z"/>
</g>
<g>
	<path class="st12" d="M361,71c13.8-23.9,44.3-32.1,68.2-18.3l0,0c23.9,13.8,32.1,44.3,18.3,68.2l0,0
		c-13.8,23.9-44.3,32.1-68.2,18.3l0,0C355.4,125.5,347.2,94.9,361,71L361,71z"/>
	<g>
		<defs>
			
				<rect id="SVGID_4_" x="376.1" y="67.9" transform="matrix(0.5 -0.866 0.866 0.5 118.9737 398.0564)" width="56.2" height="56.2"/>
		</defs>
		<clipPath id="SVGID_5_">
			<use xlink:href="#SVGID_4_"  style="overflow:visible;"/>
		</clipPath>
		<g class="st13">
			<path class="st0" d="M386.4,112.8c-0.5-0.3-0.9-0.8-1.1-1.4c-0.2-0.6-0.1-1.2,0.2-1.8l3.5-6.1l-8.1-4.7c-1.1-0.6-1.9-1.6-2.2-2.8
				c-0.3-1.2-0.2-2.5,0.5-3.6l14-24.3c0.6-1.1,1.6-1.9,2.8-2.2c1.2-0.3,2.5-0.2,3.6,0.5l32.4,18.7c1.1,0.6,1.9,1.6,2.2,2.8
				c0.3,1.2,0.2,2.5-0.5,3.6l-14,24.3c-0.6,1.1-1.6,1.9-2.8,2.2c-1.2,0.3-2.5,0.2-3.6-0.5l-12.4-7.1l-11.8,3.2
				c-0.6,0.2-1.3,0.1-1.8-0.2L386.4,112.8z"/>
		</g>
	</g>
</g>
</svg>
