<svg width="475" height="453" viewBox="0 0 475 453" fill="none" xmlns="http://www.w3.org/2000/svg">
<path d="M414.983 344.759C414.983 344.759 419.324 329.593 407.997 322.269C399.397 316.709 387.04 318.459 381.96 320.998C381.96 320.998 364.629 301.31 352.975 286.701C347.571 279.932 337.988 269.299 322.79 259.867C305.199 248.93 280.089 239.6 245.236 239.702C212.727 239.798 176.756 246.105 156.694 259.652C153.722 261.652 151.099 263.813 148.889 266.137C131.742 284.162 104.434 328.621 97.4484 329.892C97.4484 329.892 82.2066 322.27 71.411 329.892C60.6154 337.514 61.8845 350.216 64.4252 355.297C64.4252 355.297 64.0512 356.288 63.6562 357.901C62.2021 363.84 60.5183 378.251 76.4912 383.242C96.8132 389.594 126.02 381.337 150.153 348.323C150.071 348.54 148.991 351.462 147.677 355.335C146.388 359.184 144.87 363.972 143.898 367.999C143.898 367.999 136.577 369.397 129.641 375.634C129.628 375.647 129.621 375.654 129.609 375.665C126.943 378.066 124.332 381.191 122.217 385.218C114.596 399.756 126.662 449.932 238.435 449.932C349.992 449.932 366.656 407.543 362.299 389.067C362.293 389.029 362.28 388.998 362.274 388.96C360.293 380.741 357.168 374.542 353.803 369.918C352.088 367.555 350.316 365.605 348.596 364.005C357.499 369.987 373.986 379.058 389.584 376.893C406.787 374.504 419.311 362.342 419.324 352.84C419.321 349.707 417.974 346.868 414.983 344.759ZM82.511 355.41C78.4466 355.41 75.1499 352.119 75.1499 348.054C75.1499 343.989 78.4466 340.692 82.511 340.692C86.5754 340.692 89.8721 343.989 89.8721 348.054C89.8721 352.12 86.5754 355.41 82.511 355.41ZM396.884 344.315C392.82 344.315 389.524 341.018 389.524 336.953C389.524 332.888 392.82 329.591 396.884 329.591C400.949 329.591 404.245 332.887 404.245 336.953C404.244 341.018 400.949 344.315 396.884 344.315Z" fill="white"/>
<path d="M345.3 151.062C334.293 107.991 292.253 75.6449 241.696 75.0779C188.22 74.4781 143.471 109.64 134.653 156.248C127.237 159.073 122.181 169.76 122.948 182.157C123.772 195.501 131.049 206.047 139.545 206.712C154.441 244.065 193.433 270.962 239.494 271.479C288.425 272.028 330.05 242.636 343.529 201.93C351.479 200.428 358.155 190.332 359.034 177.667C359.976 164.072 353.895 152.484 345.3 151.062Z" fill="white"/>
<path d="M171.845 116.253C173.423 116.253 174.702 114.974 174.702 113.396C174.702 111.818 173.423 110.539 171.845 110.539C170.267 110.539 168.988 111.818 168.988 113.396C168.988 114.974 170.267 116.253 171.845 116.253Z" fill="white"/>
<path d="M135.774 425.76C134.688 425.76 133.683 425.057 133.347 423.964C129.291 410.738 129.992 398.857 135.432 388.648C144.731 371.196 164.421 365.067 165.254 364.813C166.598 364.406 168.015 365.166 168.422 366.509C168.829 367.85 168.071 369.269 166.729 369.676C166.536 369.735 148.174 375.496 139.897 391.074C135.134 400.038 134.564 410.602 138.205 422.474C138.616 423.815 137.862 425.235 136.521 425.648C136.272 425.724 136.021 425.76 135.774 425.76Z" fill="#E32B2B"/>
<path d="M352.289 421.479C352.199 421.479 352.107 421.474 352.015 421.465C350.62 421.315 349.611 420.063 349.76 418.668C351.46 402.836 348.405 390.309 340.679 381.431C329.191 368.232 310.974 367.513 310.792 367.508C309.392 367.465 308.289 366.294 308.331 364.893C308.373 363.492 309.548 362.38 310.94 362.43C311.774 362.453 331.492 363.182 344.473 378.053C353.193 388.042 356.671 401.89 354.812 419.211C354.671 420.512 353.57 421.479 352.289 421.479Z" fill="#E32B2B"/>
<path d="M319.684 332.131C319.664 332.131 319.646 332.131 319.626 332.131C318.225 332.101 317.113 330.942 317.143 329.54C317.159 328.803 317.662 311.382 330.134 300.975C337.935 294.468 348.553 292.242 361.69 294.353C363.076 294.577 364.017 295.88 363.795 297.266C363.572 298.652 362.266 299.592 360.883 299.371C349.277 297.503 340.036 299.348 333.417 304.853C322.721 313.75 322.225 329.492 322.221 329.649C322.189 331.031 321.059 332.131 319.684 332.131Z" fill="#E32B2B"/>
<path d="M162.459 332.134C161.354 332.134 160.337 331.406 160.018 330.292C156.872 319.299 151.464 311.718 143.943 307.761C132.927 301.963 120.85 305.899 120.73 305.939C119.4 306.382 117.961 305.671 117.513 304.343C117.065 303.015 117.774 301.576 119.101 301.126C119.674 300.932 133.277 296.439 146.253 303.234C155.078 307.855 161.353 316.489 164.903 328.894C165.289 330.244 164.508 331.651 163.16 332.036C162.926 332.102 162.69 332.134 162.459 332.134Z" fill="#E32B2B"/>
<path d="M238.438 452.47C159.419 452.47 132.555 427.559 123.574 412.708C116.207 400.525 117.028 389.65 119.971 384.038C121.655 380.826 123.626 378.154 125.697 375.934C121.519 378.73 117.234 381.058 112.884 382.884C100.212 388.205 87.0197 389.192 75.7386 385.667C69.3355 383.665 64.8328 380.06 62.3563 374.95C58.599 367.197 60.7749 358.406 61.7054 355.424C59.2184 349.283 58.2945 336.044 69.951 327.814C80.2649 320.534 93.7023 325.47 97.5436 327.137C101.271 324.899 111.767 310.439 120.287 298.702C129.594 285.879 139.219 272.62 147.054 264.385C166.024 244.444 211.799 237.257 245.233 237.16C245.42 237.16 245.616 237.16 245.803 237.16C304.385 237.16 337.488 263.216 354.964 285.116C364.662 297.271 378.478 313.154 382.642 317.914C389.05 315.326 400.864 313.23 409.602 320.292C419.744 328.491 418.715 339.549 417.846 343.8C421.316 346.964 422.621 351.435 421.434 356.319C419.153 365.707 407.339 376.99 389.937 379.406C378.971 380.926 367.759 377.306 358.771 372.884C361.144 377.058 363.252 382.154 364.749 388.361C366.958 397.514 363.967 408.454 356.749 417.623C344.23 433.52 313.545 452.47 238.438 452.47ZM150.164 345.768C150.574 345.768 150.986 345.866 151.368 346.072C152.485 346.675 152.986 348.01 152.542 349.197C152.5 349.31 148.297 360.585 146.368 368.592C146.134 369.562 145.355 370.305 144.374 370.493C144.252 370.516 131.394 373.191 124.47 386.398C121.958 391.19 122.05 400.37 127.921 410.078C136.348 424.013 161.911 447.388 238.438 447.388C270.341 447.388 296.801 443.888 317.085 436.984C333.357 431.445 345.359 423.873 352.754 414.48C362.036 402.691 360.499 392.419 359.808 389.553C356.947 377.702 351.607 370.379 347.032 366.038C343.094 363.374 340.629 361.312 340.314 361.045C339.316 360.201 339.122 358.738 339.865 357.662C340.608 356.587 342.046 356.25 343.188 356.886C345.157 357.979 347.637 359.628 350.249 362.036C358.905 367.806 374.649 376.399 389.235 374.373C403.864 372.341 414.582 362.988 416.494 355.119C417.345 351.616 416.346 348.829 413.523 346.836C412.614 346.193 412.228 345.034 412.572 343.975C412.721 343.505 416.179 332.147 406.405 324.244C398.489 317.844 386.898 321.371 383.1 323.27C382.07 323.786 380.819 323.542 380.058 322.677C379.885 322.48 362.551 302.773 350.99 288.286C334.213 267.259 302.351 242.241 245.8 242.241C245.612 242.241 245.433 242.241 245.246 242.241L245.238 239.7L245.246 242.241C212.813 242.334 168.599 249.106 150.734 267.887C143.131 275.877 133.18 289.589 124.397 301.686C109.015 322.878 102.313 331.588 97.9071 332.388C97.3664 332.487 96.8087 332.407 96.3165 332.161C96.1814 332.093 82.282 325.327 72.8802 331.964C63.3275 338.708 64.6372 350.03 66.7016 354.157C67.0205 354.794 67.0572 355.536 66.8026 356.201C66.7698 356.288 63.3813 365.451 66.9391 372.757C68.783 376.541 72.2529 379.252 77.253 380.814C87.3924 383.985 99.3481 383.055 110.917 378.197C124.372 372.548 137.234 361.694 148.112 346.807C148.605 346.134 149.377 345.768 150.164 345.768ZM143.284 360.703C140.638 363.572 137.908 366.238 135.112 368.685C137.89 367.188 140.301 366.347 141.803 365.908C142.242 364.219 142.751 362.45 143.284 360.703Z" fill="#4F124C"/>
<path d="M383.022 323.036C382.898 323.179 382.66 323.361 382.464 323.525L381.83 324.016C381.4 324.336 380.963 324.653 380.516 324.958C379.633 325.583 378.717 326.179 377.831 326.837C376.93 327.482 376.082 328.2 375.241 328.972C374.369 329.733 373.622 330.606 372.767 331.535L372.75 331.554C372.621 331.694 372.403 331.703 372.263 331.573C372.185 331.503 372.149 331.403 372.153 331.306C372.206 330.021 372.468 328.704 372.948 327.48C373.424 326.253 374.05 325.066 374.814 323.986C375.575 322.904 376.436 321.881 377.44 321.026C377.943 320.6 378.469 320.202 379.035 319.857C379.316 319.681 379.611 319.525 379.91 319.372C380.224 319.22 380.503 319.099 380.906 318.958C382.097 318.539 383.401 319.165 383.82 320.355C384.101 321.155 383.91 322.005 383.396 322.605L383.022 323.036Z" fill="#4F124C"/>
<path d="M98.5847 327.894C99.0178 328.072 99.3222 328.225 99.6635 328.413C99.9863 328.602 100.312 328.791 100.615 329.005C101.23 329.423 101.803 329.896 102.342 330.408C103.425 331.426 104.342 332.631 105.126 333.914C105.901 335.204 106.489 336.625 106.861 338.077C107.216 339.54 107.261 341.071 107.01 342.488C106.977 342.673 106.801 342.797 106.615 342.764C106.505 342.744 106.416 342.673 106.37 342.58L106.357 342.554C105.741 341.302 105.141 340.189 104.364 339.198C103.594 338.208 102.78 337.306 101.871 336.489C100.967 335.667 100.005 334.925 99.0585 334.167L97.6358 333.033C97.187 332.652 96.6594 332.244 96.3117 331.886L96.061 331.627C95.1752 330.715 95.1962 329.258 96.1083 328.372C96.7841 327.716 97.7632 327.56 98.5847 327.894Z" fill="#4F124C"/>
<path d="M236.509 394.855C236.497 394.855 236.487 394.855 236.475 394.855C221.256 394.655 205.155 386.65 190.949 379.586C182.829 375.55 175.161 371.737 169.508 370.475C156.121 367.491 144.659 370.422 144.544 370.452C143.186 370.81 141.799 369.998 141.442 368.643C141.085 367.287 141.891 365.9 143.245 365.54C143.758 365.404 155.965 362.251 170.613 365.517C176.868 366.911 184.441 370.676 193.21 375.036C206.929 381.858 222.48 389.59 236.54 389.775C237.943 389.793 239.065 390.945 239.047 392.348C239.03 393.74 237.896 394.855 236.509 394.855Z" fill="#4F124C"/>
<path d="M190.204 319.091C200.543 307.659 277.814 305.753 290.515 319.091C303.216 332.429 303.993 354.396 294.96 364.397C283.105 377.524 203.123 380.276 186.363 366.588C171.756 354.659 180.208 330.145 190.204 319.091Z" fill="white"/>
<path d="M236.146 378.172C215.956 378.172 193.48 375.682 184.755 368.557C179.617 364.36 176.613 358.33 176.069 351.116C175.103 338.318 181.741 324.66 188.318 317.387C194.712 310.317 219.575 307.517 238.923 307.269C259.866 306.989 284.889 309.503 292.353 317.34C298.735 324.042 302.664 333.084 303.418 342.8C304.147 352.177 301.75 360.668 296.843 366.101C289.637 374.08 264.08 377.524 242.565 378.088C240.468 378.143 238.32 378.172 236.146 378.172ZM242.127 312.329C241.09 312.329 240.045 312.336 238.99 312.349C215.971 312.645 196.245 316.198 192.087 320.796C186.028 327.496 180.321 339.932 181.136 350.734C181.579 356.608 183.879 361.28 187.969 364.622C194.934 370.31 216.822 373.674 242.434 373.01C267.356 372.356 288.181 368.116 293.074 362.696C300.891 354.04 300.672 333.442 288.674 320.845C283.755 315.679 265.253 312.329 242.127 312.329Z" fill="#4F124C"/>
<path d="M148.169 346.736C150.648 343.509 153.045 340.029 155.295 336.543C157.548 333.038 159.666 329.45 161.645 325.797L163.09 323.038C163.565 322.116 163.996 321.175 164.425 320.231L165.061 318.815L165.639 317.376C166.017 316.415 166.443 315.474 166.838 314.524C168.504 310.742 170.143 307.038 172.52 303.331L172.534 303.309C172.799 302.897 173.348 302.776 173.76 303.041C174.005 303.199 174.147 303.461 174.165 303.73C174.237 304.848 174.214 305.959 174.136 307.063C174.094 308.18 173.891 309.251 173.682 310.324C173.294 312.488 172.602 314.55 171.845 316.587C171.449 317.598 170.98 318.573 170.52 319.552L169.819 321.016L169.073 322.453C168.569 323.407 168.118 324.388 167.618 325.34L166.12 328.2C164.072 331.983 161.888 335.68 159.568 339.29C158.405 341.093 157.216 342.878 155.986 344.637C154.757 346.41 153.514 348.12 152.158 349.879C151.301 350.991 149.707 351.197 148.595 350.341C147.483 349.484 147.277 347.889 148.134 346.778L148.169 346.736Z" fill="#4F124C"/>
<path d="M256.886 452.034C240.626 452.034 221.359 447.832 209.407 437.431C201.979 430.967 198.143 422.933 198.006 413.553C197.89 405.46 200.113 399.248 204.617 395.09C212.785 387.548 225.934 388.794 233.789 389.536C235.652 389.711 237.259 389.862 238.057 389.811C239.286 389.726 240.913 389.873 242.973 390.055C252.899 390.929 273.554 392.751 295.396 373.503C312.437 358.487 324.927 354.777 332.895 354.601C330.623 352.112 328.334 349.15 326.043 345.728C325.262 344.563 325.574 342.985 326.74 342.203C327.904 341.423 329.484 341.734 330.263 342.9C334.702 349.527 339.021 354.212 343.101 356.827C343.273 356.93 343.379 357.004 343.422 357.035C344.543 357.831 344.827 359.373 344.065 360.516C343.303 361.659 341.769 361.989 340.605 361.26C340.53 361.213 340.456 361.167 340.382 361.119C339.101 360.398 325.52 353.728 298.753 377.314C275.277 398.001 253.156 396.052 242.526 395.114C240.756 394.958 239.228 394.826 238.393 394.879C237.186 394.961 235.475 394.797 233.309 394.593C226.296 393.93 214.561 392.819 208.06 398.823C204.663 401.96 202.988 406.891 203.084 413.48C203.198 421.355 206.446 428.123 212.738 433.599C226.212 445.323 250.148 448.439 266.685 446.373C268.078 446.209 269.347 447.189 269.521 448.58C269.696 449.972 268.708 451.242 267.315 451.416C264.072 451.82 260.555 452.034 256.886 452.034Z" fill="#4F124C"/>
<path d="M306.878 296.599C309.529 300.186 311.364 304.025 313.012 307.938C313.825 309.897 314.507 311.911 315.293 313.882C316.056 315.864 316.939 317.792 317.795 319.732C319.529 323.601 321.392 327.402 323.342 331.148C325.314 334.881 327.433 338.518 329.695 342.039L329.719 342.076C330.477 343.256 330.135 344.828 328.955 345.587C327.775 346.345 326.203 346.004 325.446 344.823C323.076 341.135 320.88 337.361 318.848 333.518C316.842 329.664 314.934 325.768 313.162 321.817L310.542 315.88C309.654 313.908 308.74 311.943 307.974 309.921C307.218 307.894 306.575 305.825 306.095 303.7C305.855 302.636 305.649 301.563 305.509 300.468C305.356 299.376 305.261 298.271 305.268 297.125C305.271 296.633 305.672 296.235 306.166 296.238C306.456 296.239 306.715 296.384 306.878 296.599Z" fill="#4F124C"/>
<path d="M332.739 359.673C331.475 359.673 330.381 358.73 330.222 357.444C329.802 354.055 323.214 341.332 319.161 334.106C318.475 332.883 318.909 331.334 320.134 330.648C321.357 329.963 322.906 330.397 323.592 331.62C324.715 333.622 334.586 351.334 335.264 356.82C335.436 358.213 334.448 359.481 333.055 359.654C332.949 359.666 332.843 359.673 332.739 359.673Z" fill="#4F124C"/>
<g opacity="0.2">
<path d="M295.477 325.919C296.436 334.119 294.581 342.055 290.199 346.907C279.362 358.904 206.257 361.421 190.939 348.91C184.622 343.752 183.028 336.018 184.063 328.233C177.595 340.494 174.944 357.478 186.347 366.791C203.107 380.479 283.089 377.727 294.944 364.601C302.6 356.122 303.205 339.049 295.477 325.919Z" fill="#4F124C"/>
<path d="M147.678 355.333C148.993 351.459 150.071 348.537 150.154 348.322C126.021 381.336 96.8142 389.593 76.4921 383.241C60.5205 378.248 62.203 363.837 63.6571 357.899C70.0903 365.572 73.5931 373.473 100.713 370.926C122.941 368.837 161.965 331.877 171.505 309.826C171.207 310.849 164.45 333.3 147.678 355.333Z" fill="#4F124C"/>
<path d="M419.324 352.837C419.311 362.338 406.788 374.501 389.583 376.89C373.986 379.055 362.738 373.031 348.595 364.002C328.935 351.451 317.914 331.449 313.304 315.814C313.304 315.814 334.916 350.876 367.126 360.07C388.898 366.285 405.472 365.876 419.324 352.837Z" fill="#4F124C"/>
</g>
<path d="M169.125 359.54C172.43 359.314 175.647 358.71 178.401 357.517C189.963 352.507 200.125 340.863 206.247 346.579C212.113 352.057 205.503 369.179 192.582 375.107" fill="white"/>
<path d="M309.316 359.673C305.747 359.479 302.182 358.856 299.092 357.517C287.53 352.507 277.369 340.863 271.247 346.579C265.057 352.358 272.605 366.943 285.309 375.636" fill="white"/>
<path d="M292.117 381.993C291.773 381.993 291.424 381.923 291.089 381.774C279.09 376.454 268.39 364.56 266.729 354.694C266.027 350.528 266.991 347.079 269.516 344.722C275.019 339.583 281.96 344.129 289.309 348.941C292.787 351.219 296.383 353.573 300.105 355.186C310.698 359.775 328.061 355.114 328.236 355.067C329.59 354.697 330.985 355.493 331.356 356.845C331.726 358.199 330.932 359.595 329.579 359.966C328.799 360.182 310.327 365.153 298.085 359.847C293.964 358.062 290.013 355.474 286.526 353.191C279.709 348.728 275.397 346.18 272.982 348.435C271.746 349.589 271.327 351.412 271.737 353.849C272.944 361.014 281.473 371.952 293.147 377.127C294.429 377.696 295.008 379.197 294.439 380.48C294.019 381.43 293.09 381.993 292.117 381.993Z" fill="#4F124C"/>
<path d="M190.204 378.92C189.26 378.92 188.353 378.392 187.914 377.483C187.305 376.219 187.834 374.701 189.098 374.092C197.518 370.03 204.957 361.296 206.034 354.211C206.419 351.682 205.906 349.738 204.511 348.436C202.096 346.183 197.783 348.73 190.967 353.193C187.481 355.475 183.528 358.063 179.408 359.848C167.168 365.154 147.255 359.813 146.412 359.582C145.059 359.212 144.262 357.817 144.631 356.464C145 355.11 146.398 354.315 147.749 354.681C147.938 354.734 166.788 359.78 177.387 355.186C181.108 353.573 184.704 351.22 188.182 348.942C195.531 344.129 202.473 339.585 207.975 344.722C210.632 347.203 211.697 350.748 211.054 354.975C209.73 363.689 201.239 373.874 191.303 378.668C190.951 378.839 190.575 378.92 190.204 378.92Z" fill="#4F124C"/>
<g opacity="0.2">
<path d="M272.29 348.308C272.29 348.308 285.495 373.351 305.883 368.327C305.883 368.327 295.054 377.348 292.117 379.451C292.117 379.452 260.435 359.564 272.29 348.308Z" fill="#4F124C"/>
<path d="M206.877 349.331C206.877 349.331 199.718 367.536 173.344 368.914C173.344 368.914 180.406 371.53 187.628 375.108C194.85 378.687 187.826 375.836 187.826 375.836C187.826 375.836 210.9 367.538 206.877 349.331Z" fill="#4F124C"/>
</g>
<path d="M396.884 346.852C391.425 346.852 386.984 342.41 386.984 336.951C386.984 331.493 391.425 327.051 396.884 327.051C402.342 327.051 406.783 331.493 406.783 336.951C406.783 342.41 402.342 346.852 396.884 346.852ZM396.884 332.133C394.226 332.133 392.065 334.295 392.065 336.953C392.065 339.611 394.226 341.772 396.884 341.772C399.541 341.772 401.703 339.611 401.703 336.953C401.703 334.295 399.541 332.133 396.884 332.133Z" fill="#4F124C"/>
<path d="M401.726 333.391C400.817 333.391 400.001 332.758 399.804 331.833C399.577 330.774 400.25 329.73 401.306 329.499C401.511 329.452 405.706 328.431 408.784 323.562C409.366 322.643 410.581 322.368 411.501 322.95C412.42 323.531 412.694 324.747 412.112 325.665C408.099 332.01 402.381 333.295 402.14 333.348C402.002 333.376 401.863 333.391 401.726 333.391Z" fill="#4F124C"/>
<path d="M417.224 345.285C417.186 345.517 417.15 345.672 417.115 345.834C417.079 346.002 417.043 346.164 416.997 346.314C416.907 346.621 416.826 346.933 416.715 347.223C416.51 347.819 416.258 348.389 415.985 348.949C415.426 350.061 414.745 351.115 413.944 352.072C412.356 353.997 410.31 355.552 408.075 356.576C407.529 356.853 406.939 357.034 406.37 357.247C406.083 357.345 405.802 357.461 405.512 357.542L404.632 357.744C404.045 357.868 403.47 358.032 402.881 358.091L401.122 358.235C400.542 358.306 399.96 358.264 399.382 358.229C398.806 358.2 398.234 358.164 397.667 358.118C396.537 357.957 395.425 357.702 394.341 357.457C394.164 357.416 394.053 357.239 394.092 357.062C394.122 356.928 394.23 356.832 394.357 356.81L394.396 356.803C395.492 356.61 396.564 356.483 397.614 356.314C398.135 356.182 398.651 356.063 399.163 355.95L399.927 355.778C400.181 355.726 400.42 355.609 400.667 355.537L402.121 355.05C402.366 354.985 402.584 354.845 402.814 354.744L403.495 354.431L404.171 354.124C404.389 354.01 404.592 353.867 404.802 353.741C405.21 353.468 405.649 353.259 406.034 352.969C407.626 351.876 408.901 350.469 410.028 348.987C410.319 348.624 410.55 348.21 410.827 347.835C410.966 347.646 411.063 347.431 411.188 347.232C411.308 347.03 411.444 346.837 411.55 346.63C411.762 346.212 412.004 345.808 412.196 345.387C412.306 345.178 412.399 344.973 412.494 344.766L412.633 344.467C412.678 344.368 412.724 344.263 412.75 344.231L413.329 343.522C414.102 342.577 415.494 342.436 416.439 343.208C417.075 343.729 417.346 344.531 417.224 345.285Z" fill="#4F124C"/>
<path d="M82.5105 357.953C77.0524 357.953 72.6113 353.512 72.6113 348.053C72.6113 342.594 77.0524 338.153 82.5105 338.153C87.9687 338.153 92.4098 342.594 92.4098 348.053C92.4098 353.512 87.9687 357.953 82.5105 357.953ZM82.5105 343.233C79.853 343.233 77.6915 345.395 77.6915 348.053C77.6915 350.711 79.853 352.872 82.5105 352.872C85.1681 352.872 87.3296 350.711 87.3296 348.053C87.3296 345.395 85.1681 343.233 82.5105 343.233Z" fill="#4F124C"/>
<path d="M77.6665 344.491C77.53 344.491 77.3935 344.476 77.2544 344.446C77.0129 344.395 71.2949 343.111 67.2817 336.765C66.7003 335.847 66.9746 334.631 67.8932 334.05C68.8119 333.468 70.0272 333.743 70.6098 334.661C73.6992 339.548 77.9119 340.559 78.0904 340.599C79.1442 340.841 79.8148 341.888 79.5812 342.946C79.3778 343.863 78.5681 344.491 77.6665 344.491Z" fill="#4F124C"/>
<path d="M66.6011 354.568C66.7717 354.839 67.0027 355.286 67.2218 355.656C67.4371 356.05 67.6759 356.431 67.9095 356.818C68.1326 357.21 68.4095 357.569 68.6366 357.958C68.8872 358.332 69.1681 358.683 69.4109 359.064C70.4857 360.499 71.6734 361.85 73.0934 362.964L73.6236 363.391C73.8047 363.527 74.0003 363.639 74.1879 363.766C74.5738 364.003 74.9412 364.293 75.352 364.497C75.7654 364.693 76.1814 364.9 76.5987 365.121C76.8048 365.242 77.024 365.322 77.2471 365.395L77.9164 365.634C78.8009 366.028 79.755 366.173 80.7183 366.439C80.9598 366.508 81.2039 366.562 81.4506 366.58L82.196 366.684C82.696 366.751 83.2026 366.836 83.7184 366.918L83.7577 366.924C83.9375 366.953 84.0609 367.122 84.032 367.302C84.011 367.436 83.9113 367.538 83.7879 367.57C83.28 367.701 82.7656 367.836 82.2433 367.952C81.7209 368.058 81.1934 368.229 80.6553 368.243C79.5805 368.329 78.4768 368.451 77.3717 368.315L76.5371 368.243C76.2562 368.224 75.9767 368.195 75.705 368.124C75.1551 368.01 74.6026 367.884 74.0488 367.746C73.4963 367.605 72.9766 367.37 72.4333 367.179C72.1669 367.072 71.8873 366.987 71.6301 366.86L70.8689 366.456C68.8282 365.39 66.9567 363.928 65.4987 362.149C64.7769 361.257 64.1089 360.32 63.5708 359.308C63.437 359.054 63.2965 358.805 63.1719 358.548L62.8228 357.758C62.5984 357.205 62.4212 356.714 62.2414 356.021C61.9251 354.799 62.66 353.552 63.8819 353.237C64.8674 352.983 65.8675 353.411 66.3845 354.227L66.6011 354.568Z" fill="#4F124C"/>
<path d="M359.032 177.2C358.159 189.865 351.482 199.962 343.527 201.462C351.789 182.684 346.067 155.701 345.299 150.599C353.896 152.015 359.981 163.606 359.032 177.2Z" fill="#D4D4D4"/>
<path d="M139.545 206.249C131.047 205.58 123.776 195.035 122.947 181.693C122.187 169.293 127.238 158.611 134.654 155.783C134.654 155.783 130.376 188.832 139.545 206.249Z" fill="#D4D4D4"/>
<path opacity="0.2" d="M343.528 186.395C330.05 227.101 288.425 256.493 239.494 255.945C193.433 255.429 154.439 228.53 139.545 191.178C132.231 190.606 125.826 182.707 123.656 172.009C122.992 175.152 122.726 178.583 122.948 182.157C123.772 195.501 131.049 206.047 139.545 206.713C154.441 244.065 193.433 270.962 239.494 271.479C288.425 272.028 330.05 242.636 343.528 201.93C351.479 200.428 358.155 190.333 359.034 177.667C359.289 173.988 359.026 170.459 358.342 167.237C356.274 177.431 350.375 185.102 343.528 186.395Z" fill="#4F124C"/>
<path d="M256.852 261.551C304.972 251.743 336.524 207.193 327.324 162.046C318.124 116.899 271.656 88.2514 223.536 98.0591C175.416 107.867 143.864 152.416 153.064 197.563C162.264 242.71 208.731 271.358 256.852 261.551Z" fill="#4F124C"/>
<path opacity="0.6" d="M327.311 161.107C318.11 115.962 271.644 87.3164 223.526 97.1248C179.282 106.143 149.05 144.534 151.621 185.751C153.949 148.381 182.802 115.195 223.526 106.894C226.317 106.325 229.101 105.891 231.874 105.576C232.261 108.655 236.827 111.086 242.419 111.086C248.016 111.086 252.587 108.649 252.964 105.565C289.331 109.696 320.021 135.103 327.311 170.876C328.052 174.51 328.525 178.14 328.749 181.75C329.173 174.965 328.724 168.043 327.311 161.107Z" fill="white"/>
<path d="M237.787 266.011C220.503 266.011 203.679 261.348 189.025 252.314C168.819 239.857 155.162 220.589 150.571 198.06C141.105 151.615 173.606 105.634 223.019 95.5619C246.925 90.6899 271.192 94.8479 291.345 107.272C311.552 119.729 325.208 138.996 329.8 161.526C334.392 184.055 329.364 207.131 315.645 226.503C301.961 245.826 281.258 259.151 257.351 264.024C250.828 265.353 244.274 266.011 237.787 266.011ZM242.579 98.6555C236.43 98.6555 230.221 99.2789 224.033 100.54C177.364 110.053 146.643 153.345 155.549 197.046C159.856 218.185 172.692 236.276 191.69 247.989C210.74 259.733 233.698 263.66 256.336 259.046C278.973 254.431 298.563 241.831 311.498 223.567C324.397 205.352 329.128 183.679 324.821 162.541C320.514 141.402 307.677 123.309 288.68 111.598C274.835 103.063 258.927 98.6555 242.579 98.6555Z" fill="#4F124C"/>
<path opacity="0.4" d="M212.812 135.762C216.102 141.722 211.988 146.999 203.528 156.372C195.068 165.746 189.822 171.335 183.04 168.899C172.349 165.059 179.067 149.798 187.528 140.424C195.989 131.05 209.009 128.873 212.812 135.762Z" fill="white"/>
<path d="M240.86 274.026C240.395 274.026 239.931 274.023 239.465 274.018C216.672 273.762 194.876 267.196 176.434 255.029C158.797 243.394 145.446 227.508 137.743 209.023C128.586 207.198 121.263 196.096 120.411 182.314C119.624 169.577 124.51 158.407 132.415 154.459C137.075 131.657 150.342 110.919 169.882 95.9436C189.96 80.5558 215.488 72.2214 241.724 72.5364C266.83 72.8186 290.385 80.6175 309.844 95.0917C328.334 108.845 341.611 127.917 347.363 148.933C356.528 151.63 362.551 163.648 361.567 177.842C360.671 190.76 354.016 201.459 345.487 204.058C338.553 223.969 324.658 241.76 306.232 254.276C287.192 267.21 264.613 274.026 240.86 274.026ZM240.334 77.6106C189.129 77.6106 145.854 110.701 137.149 156.72C136.985 157.588 136.383 158.307 135.557 158.622C129.141 161.066 124.81 171.117 125.482 182C126.216 193.868 132.48 203.61 139.742 204.179C140.707 204.255 141.545 204.872 141.904 205.771C156.776 243.066 196.005 268.449 239.522 268.938C239.947 268.941 240.376 268.944 240.8 268.944C286.715 268.945 327.847 241.204 341.116 201.13C341.406 200.253 342.149 199.603 343.056 199.433C349.942 198.132 355.722 188.699 356.499 177.492C357.331 165.497 352.121 154.766 344.884 153.569C343.889 153.405 343.086 152.667 342.837 151.692C331.83 108.624 290.228 78.1631 241.665 77.6184C241.225 77.6132 240.775 77.6106 240.334 77.6106Z" fill="#4F124C"/>
<path d="M250.027 193.969C233.636 193.969 218.332 193.167 205.118 192.082C163.589 188.668 133.182 181.783 132.88 181.713C131.819 181.47 131.158 180.415 131.399 179.354C131.642 178.295 132.696 177.636 133.758 177.874C134.058 177.942 164.243 184.775 205.505 188.163C243.523 191.284 298.989 192.037 347.346 177.904C348.388 177.6 349.483 178.198 349.787 179.242C350.092 180.285 349.493 181.378 348.45 181.684C316.356 191.063 281.226 193.969 250.027 193.969Z" fill="#4F124C"/>
<path d="M343.527 204.47C343.186 204.47 342.838 204.401 342.506 204.255C341.223 203.689 340.639 202.19 341.204 200.907C348.426 184.486 344.419 161.041 343.103 153.338C342.968 152.544 342.858 151.903 342.788 151.44C342.581 150.053 343.536 148.76 344.925 148.551C346.312 148.342 347.606 149.299 347.813 150.686C347.879 151.125 347.982 151.73 348.111 152.481C349.492 160.556 353.691 185.133 345.855 202.952C345.435 203.903 344.503 204.47 343.527 204.47Z" fill="#4F124C"/>
<path d="M139.547 209.253C138.633 209.253 137.751 208.76 137.297 207.896C127.86 189.975 131.955 157.304 132.133 155.922C132.313 154.531 133.583 153.552 134.978 153.729C136.369 153.909 137.351 155.182 137.171 156.573C137.129 156.896 133.106 189.033 141.792 205.528C142.446 206.77 141.969 208.306 140.728 208.959C140.35 209.159 139.946 209.253 139.547 209.253Z" fill="#4F124C"/>
<g opacity="0.2">
<path d="M322.792 259.866C309.983 270.765 284.161 296.123 241.65 296.123C194.832 296.123 167.715 271.486 156.696 259.65C176.758 246.102 212.728 239.795 245.238 239.7C280.09 239.598 305.201 248.929 322.792 259.866Z" fill="#4F124C"/>
<path d="M238.436 449.929C126.664 449.929 114.596 399.754 122.217 385.215C124.332 381.188 126.942 378.063 129.61 375.663C107.293 398.369 167.295 429.992 181.686 431.726C196.083 433.453 205.831 397.448 205.831 397.448C201.608 433.505 251.118 430.836 275.677 431.688C300.235 432.533 331.563 418.986 344.69 410.939C352.273 406.29 358.44 396.503 362.301 389.065C366.657 407.541 349.992 449.929 238.436 449.929Z" fill="#4F124C"/>
</g>
<g clip-path="url(#clip0_1307:23574)" filter="url(#filter0_d_1307:23574)">
<g filter="url(#filter1_d_1307:23574)">
<path d="M110.599 219.761C128.037 237.201 128.037 265.487 110.599 282.926C93.1614 300.365 64.8782 300.365 47.4406 282.926C30.0029 265.487 30.0029 237.201 47.4406 219.761C64.8782 202.322 93.1614 202.322 110.599 219.761Z" fill="url(#paint0_radial_1307:23574)"/>
</g>
<path d="M94.2808 229.103C102.332 237.155 96.7785 260.588 95.2943 266.217C95.093 266.987 94.4979 267.582 93.739 267.818C88.0104 269.493 64.8648 274.692 56.7805 266.607C51.0755 260.901 50.5298 252.201 56.3798 246.351C60.0578 242.673 65.1431 241.254 69.8267 242.15C68.9306 237.466 70.3487 232.381 74.0267 228.702C79.8767 222.852 88.5758 223.397 94.2808 229.103Z" fill="white"/>
</g>
<g filter="url(#filter2_d_1307:23574)">
<path d="M373.217 279.151C373.217 268.333 381.986 259.562 392.804 259.562V259.562C403.622 259.562 412.392 268.333 412.392 279.151V279.151C412.392 289.969 403.622 298.741 392.804 298.741V298.741C381.986 298.741 373.217 289.969 373.217 279.151V279.151Z" fill="#1DA1F2"/>
<path d="M404.026 277.111C404.026 276.569 403.811 276.05 403.429 275.668C403.046 275.285 402.527 275.07 401.986 275.07H395.538L396.518 270.407C396.538 270.305 396.548 270.193 396.548 270.081C396.548 269.662 396.375 269.275 396.099 268.999L395.018 267.928L388.305 274.641C387.928 275.019 387.703 275.529 387.703 276.09V286.293C387.703 286.834 387.918 287.353 388.301 287.736C388.683 288.119 389.202 288.334 389.744 288.334H398.925C399.772 288.334 400.496 287.824 400.802 287.089L403.883 279.896C403.975 279.661 404.026 279.416 404.026 279.151V277.111ZM381.582 288.334H385.663V276.09H381.582V288.334Z" fill="white"/>
</g>
<g filter="url(#filter3_d_1307:23574)">
<path d="M78.9178 16.7952C87.5717 1.80467 106.74 -3.33245 121.729 5.32276V5.32276C136.719 13.978 141.855 33.148 133.201 48.1385V48.1385C124.547 63.129 105.379 68.2661 90.3891 59.6109V59.6109C75.3993 50.9557 70.2638 31.7857 78.9178 16.7952V16.7952Z" fill="#00C74F"/>
<path d="M119.761 38.1165L115.579 22.5066L112.314 28.1616C101.603 23.8618 93.2814 28.4818 87.787 34.7344C94.1776 31.8268 100.431 32.4216 107.499 36.5028L104.153 42.2992L119.761 38.1165Z" fill="white"/>
</g>
<g filter="url(#filter4_d_1307:23574)">
<path d="M360.975 71.0121C374.767 47.1209 405.316 38.9337 429.206 52.7279V52.7279C453.096 66.5221 461.28 97.0743 447.488 120.965V120.965C433.696 144.857 403.147 153.044 379.257 139.25V139.25C355.367 125.455 347.183 94.9033 360.975 71.0121V71.0121Z" fill="#FF5C00"/>
<g clip-path="url(#clip1_1307:23574)">
<path d="M386.442 112.755C385.905 112.444 385.512 111.933 385.351 111.333C385.191 110.733 385.275 110.094 385.585 109.556L389.097 103.473L380.987 98.7897C379.911 98.1686 379.126 97.1458 378.805 95.946C378.484 94.7463 378.652 93.468 379.273 92.3924L393.321 68.0581C393.942 66.9825 394.965 66.1976 396.164 65.8762C397.364 65.5547 398.642 65.723 399.717 66.344L432.16 85.0765C433.235 85.6975 434.02 86.7204 434.342 87.9201C434.663 89.1199 434.495 90.3981 433.874 91.4738L419.826 115.808C419.205 116.884 418.182 117.669 416.983 117.99C415.783 118.311 414.505 118.143 413.429 117.522L401.061 110.38L389.215 113.572C388.587 113.723 387.963 113.633 387.456 113.34L386.442 112.755Z" fill="white"/>
</g>
</g>
<defs>
<filter id="filter0_d_1307:23574" x="-19.9277" y="152.388" width="197.896" height="197.912" filterUnits="userSpaceOnUse" color-interpolation-filters="sRGB">
<feFlood flood-opacity="0" result="BackgroundImageFix"/>
<feColorMatrix in="SourceAlpha" type="matrix" values="0 0 0 0 0 0 0 0 0 0 0 0 0 0 0 0 0 0 127 0" result="hardAlpha"/>
<feOffset/>
<feGaussianBlur stdDeviation="10"/>
<feComposite in2="hardAlpha" operator="out"/>
<feColorMatrix type="matrix" values="0 0 0 0 0.811765 0 0 0 0 0.0509804 0 0 0 0 0.137255 0 0 0 0.25 0"/>
<feBlend mode="normal" in2="BackgroundImageFix" result="effect1_dropShadow_1307:23574"/>
<feBlend mode="normal" in="SourceGraphic" in2="effect1_dropShadow_1307:23574" result="shape"/>
</filter>
<filter id="filter1_d_1307:23574" x="34.3633" y="206.682" width="89.3145" height="89.3237" filterUnits="userSpaceOnUse" color-interpolation-filters="sRGB">
<feFlood flood-opacity="0" result="BackgroundImageFix"/>
<feColorMatrix in="SourceAlpha" type="matrix" values="0 0 0 0 0 0 0 0 0 0 0 0 0 0 0 0 0 0 127 0" result="hardAlpha"/>
<feOffset/>
<feComposite in2="hardAlpha" operator="out"/>
<feColorMatrix type="matrix" values="0 0 0 0 0.811765 0 0 0 0 0.0509804 0 0 0 0 0.137255 0 0 0 0.25 0"/>
<feBlend mode="normal" in2="BackgroundImageFix" result="effect1_dropShadow_1307:23574"/>
<feBlend mode="normal" in="SourceGraphic" in2="effect1_dropShadow_1307:23574" result="shape"/>
</filter>
<filter id="filter2_d_1307:23574" x="363.217" y="249.562" width="59.1758" height="59.1792" filterUnits="userSpaceOnUse" color-interpolation-filters="sRGB">
<feFlood flood-opacity="0" result="BackgroundImageFix"/>
<feColorMatrix in="SourceAlpha" type="matrix" values="0 0 0 0 0 0 0 0 0 0 0 0 0 0 0 0 0 0 127 0" result="hardAlpha"/>
<feOffset/>
<feGaussianBlur stdDeviation="5"/>
<feComposite in2="hardAlpha" operator="out"/>
<feColorMatrix type="matrix" values="0 0 0 0 0.113725 0 0 0 0 0.631373 0 0 0 0 0.94902 0 0 0 0.25 0"/>
<feBlend mode="normal" in2="BackgroundImageFix" result="effect1_dropShadow_1307:23574"/>
<feBlend mode="normal" in="SourceGraphic" in2="effect1_dropShadow_1307:23574" result="shape"/>
</filter>
<filter id="filter3_d_1307:23574" x="43.248" y="-30.3489" width="125.623" height="125.631" filterUnits="userSpaceOnUse" color-interpolation-filters="sRGB">
<feFlood flood-opacity="0" result="BackgroundImageFix"/>
<feColorMatrix in="SourceAlpha" type="matrix" values="0 0 0 0 0 0 0 0 0 0 0 0 0 0 0 0 0 0 127 0" result="hardAlpha"/>
<feOffset/>
<feGaussianBlur stdDeviation="10"/>
<feComposite in2="hardAlpha" operator="out"/>
<feColorMatrix type="matrix" values="0 0 0 0 0 0 0 0 0 0.780392 0 0 0 0 0.309804 0 0 0 0.25 0"/>
<feBlend mode="normal" in2="BackgroundImageFix" result="effect1_dropShadow_1307:23574"/>
<feBlend mode="normal" in="SourceGraphic" in2="effect1_dropShadow_1307:23574" result="shape"/>
</filter>
<filter id="filter4_d_1307:23574" x="316" y="7.75122" width="176.463" height="176.475" filterUnits="userSpaceOnUse" color-interpolation-filters="sRGB">
<feFlood flood-opacity="0" result="BackgroundImageFix"/>
<feColorMatrix in="SourceAlpha" type="matrix" values="0 0 0 0 0 0 0 0 0 0 0 0 0 0 0 0 0 0 127 0" result="hardAlpha"/>
<feOffset/>
<feGaussianBlur stdDeviation="10"/>
<feComposite in2="hardAlpha" operator="out"/>
<feColorMatrix type="matrix" values="0 0 0 0 1 0 0 0 0 0.360784 0 0 0 0 0 0 0 0 0.25 0"/>
<feBlend mode="normal" in2="BackgroundImageFix" result="effect1_dropShadow_1307:23574"/>
<feBlend mode="normal" in="SourceGraphic" in2="effect1_dropShadow_1307:23574" result="shape"/>
</filter>
<radialGradient id="paint0_radial_1307:23574" cx="0" cy="0" r="1" gradientUnits="userSpaceOnUse" gradientTransform="translate(66.1907 216.801) rotate(-45.0028) scale(109.079)">
<stop offset="0.01" stop-color="#FF3347"/>
<stop offset="0.82" stop-color="#E72035"/>
<stop offset="1" stop-color="#CF0D23"/>
</radialGradient>
<clipPath id="clip0_1307:23574">
<rect width="111.655" height="111.655" fill="white" transform="matrix(0.707072 -0.707141 0.707072 0.707141 0.0722656 251.344)"/>
</clipPath>
<clipPath id="clip1_1307:23574">
<rect width="56.1934" height="56.1962" fill="white" transform="matrix(0.866004 0.500037 -0.499963 0.866047 393.947 57.6052)"/>
</clipPath>
</defs>
</svg>
