<svg width="255" height="284" fill="none" xmlns="http://www.w3.org/2000/svg"><g clip-path="url(#clip0)" fill="#2B2B29"><path d="M279.523 218.67c-5.167.739-10.826-.986-19.931-4.684-17.224-6.656-27.312-17.504-31.003-31.309-2.707-10.108-10.827-11.34-15.01-17.997h2.953c1.476 0 2.707-1.725 1.476-2.465-2.952-1.726-6.397-2.712-9.842-3.205-.984 0-1.23-1.232-.492-1.725 2.461-1.233 5.659-1.973 8.366-2.712.492-.247 0-.74-.492-.74-5.413 1.233-12.303 2.219-17.47 2.465-2.215.247-3.199 2.466-2.707 4.438.738 3.205 0 6.903-1.722 8.135.492 1.973.246 3.205 1.23 5.917 1.23 2.958.984 8.875-1.969 11.34-2.46 1.972-5.167 5.177-8.12 7.889-.738.74 0 1.972.985 1.726.246 0 .492-.247.492-.247.738-.246 1.476.493.984 1.233-7.874 11.833-14.271 15.531-29.035 21.201-5.167 1.973-14.025 6.164-21.161 5.917-2.461 1.726-4.675 3.205-7.382 4.191-1.23.493-1.23 2.465 0 2.465 1.969 0 3.691-.493 5.413-1.232 6.398 0 12.795-.493 18.947-1.726.492 0 .738.493.246.739-7.874 4.191-16.24 7.396-24.852 7.643-4.183 1.232-9.104 2.958-12.549 1.726-5.413-1.726-9.842-8.629-8.366-14.299-3.691-1.233-6.644-3.945-7.382-8.382 1.969.986 4.429 2.219 6.89 2.958 1.23.493 2.214-1.232 1.23-2.218-2.214-1.726-4.921-3.945-7.874-8.382-9.104-12.82-12.549-23.667-11.073-34.021 0-.493-.738-.74-.984-.247-.738 1.726-1.23 3.698-1.722 5.424 0 .246-.738.246-.738 0 .246-4.191 1.476-10.354 2.46-12.326-4.183-6.657-6.89-19.23-7.874-30.323 1.969-.247 3.937-.493 5.906-1.233 3.199-.986 9.35-2.958 15.994-7.149.246 6.902.246 8.382.738 11.586v.987c.984 5.916 2.46 11.586 3.937 17.503 1.722 6.41 2.706 5.424 1.722.247l-.738-3.698c-.246-.74.738-1.48 1.23-.74 9.597 10.847 17.471 21.941 18.701 38.212.492 4.684 3.445 11.587 6.89 12.819v-.986c2.952-4.684 8.12-7.642 11.81-9.368 8.612-3.944-5.659-5.177-14.517-12.326-1.969-1.479-3.445-3.205-4.675-4.684-.984-2.712-2.215-5.177-3.691-7.396-1.723-9.368 7.382-17.997 23.129-22.188 15.748-4.191 24.852-1.232 31.496 2.959.738.493 1.476-.493.984-.986-3.691-3.205-9.596-6.41-13.533-7.15 1.969-2.958 3.445-5.177 5.413-7.149.985-.74 0-2.465-1.23-1.972h-.246c6.398-19.969 33.71-37.966 51.919-33.528 5.167 1.233 21.653 5.917 30.019 14.299 7.874 3.698 15.256 2.465 24.852 3.204 1.23 0 1.968-1.479.738-2.218-7.136-3.698-18.947-9.615-20.669-12.08 3.199-2.465 8.366-5.67 13.041-7.643.738-.246.492-1.232-.246-1.232-7.382.74-16.732 2.712-22.637 5.67-6.152-3.944-25.837-4.93-32.726-5.424-.492 0-.985.247-1.477.247-16.732 2.465-49.212 19.229-50.688 42.896-.492.986-1.722 2.712-2.707 3.698-16.239.739-32.233 5.67-40.107 20.461-3.691-4.684-7.628-9.368-11.811-13.805-.492-2.958-.984-5.917-1.23-8.875 2.214.246 5.167.493 9.104.986 4.429.493 7.874.986 12.303.493 7.135-.493 13.533-2.712 19.685-6.41 2.214-1.232 3.444-1.972 4.183-2.711 8.366-5.917 17.47-17.75 20.669-28.844 3.198-11.094 4.183-21.695.738-33.528-2.953-10.108-8.612-18.736-15.502-24.406-.984-.986-1.722-1.48-2.953-2.219-3.199-2.219-4.183-2.712-11.565-6.41l-4.921-2.465c-5.905-2.958-10.826-5.917-19.931-7.15-2.952-3.204-5.905-5.67-10.088-8.135C107.036 17.01 84.89 5.67 82.184 4.191c-.246 0-.492-.247-.739-.247C73.572.246 64.467-1.479 53.887.246 33.464 3.944 15.5 21.201 7.135 40.923 2.952 50.784.492 59.66.245 70.507c-.491 15.531 3.2 28.597 9.351 38.951 7.628 12.573 20.669 21.941 36.417 23.42 7.874.74 14.025 1.479 18.946 1.972 0 .74 0 1.233-.246 1.973-1.722 22.68-.246 54.236 7.382 75.437 2.707 7.889 9.843 15.285 16.732 21.941.246 1.726.738 3.698 1.23 5.424 1.723.986 3.445 1.972 5.414 2.465 5.905 1.726 13.533.247 20.177-1.233 4.921 0 10.088-1.479 14.763-3.204 10.827 0 23.622-3.945 31.742-11.341.738-.739 1.476-1.232 1.968-1.972 4.922-1.479 9.597-3.451 14.272-5.67 8.858-4.438 16.732-11.094 22.883-18.49 1.477 11.094 6.89 20.216 15.01 28.844 2.953 15.778 14.764 42.896 25.836 54.483.985.986 2.215-.247 1.969-1.479-1.477-4.438-1.723-8.875-.246-14.053-2.953-3.204-4.675-7.888-3.937-16.024.246-2.958 4.429-2.219 8.612-1.232-.246-1.48-.246-3.205 0-4.931-16.24-10.601-22.884-20.708-23.868-38.212 1.476 1.233 2.953 2.465 4.429 3.205 9.35 4.931 35.187 13.313 45.767 11.587 2.215-.247 3.937-1.233 5.66-2.219 1.23-.246.246-1.726-.985-1.479zM148.374 48.073c4.183 1.972 8.858 14.298 9.596 21.448 1.968 16.763-1.969 25.145-2.953 26.132l-.246.246c-.492-.493-.246-1.233 0-2.219 0-.246.246-.493.246-.74 3.691-25.145-2.46-31.308-6.643-44.867zm0-5.917c1.476.74 2.706 1.726 3.69 2.958.247.247.493.74.739.986 1.968 2.712 4.675 4.931 6.643 7.89.738 1.232-1.23-2.712-1.968-3.699-.984-1.232-1.723-2.711-2.953-3.697-.246-.247.246-.74.492-.74 1.477.74 2.707 1.726 3.445 2.712.246.246.246.493.492.493 2.215 2.712 4.921 4.93 6.644 7.889.984 1.232-1.477-2.959-2.461-4.191a18.574 18.574 0 00-2.707-3.452c-.246-.246.001-.74.247-.493.984.493 1.722.986 2.46 1.726 16.978 18.983 15.01 46.84 2.215 66.562-.492.74-1.723 1.233-2.707 1.233-.738-.246-1.23-.986-.738-1.726 3.937-6.409 6.89-13.559 8.366-20.954h-.246c-.492 1.725-1.23 3.204-2.215 3.697 0-1.232 0-.986.246-4.19h-.492c-1.476 5.67-3.937 13.559-8.858 21.201-.492.986-1.722 1.479-2.953 1.233-.984-.247-1.23-1.233-.738-1.973 4.183-6.409 7.382-13.559 8.858-21.201l-.492-.247c-.492 1.726-1.23 3.205-2.214 3.452 0-1.233 0-1.233.246-4.191h-.246c-1.477 5.916-4.183 13.805-9.105 21.448-.738.986-1.968 1.479-2.952 1.232-.984-.246-1.231-1.232-.738-1.972 14.763-22.187 14.271-52.264-1.477-70.753.492-.74.984-1.48 1.477-1.233zM98.67 16.764c1.968.986 3.69 2.218 5.167 3.944 3.199 4.191 5.905 8.875 8.12 13.806-1.231-3.205-2.215-5.424-2.707-6.657.984.494 1.969 1.233 2.953 2.22.246.246.492 0 .492-.247a39.695 39.695 0 00-5.167-7.396c-.492-.247.246-.986.738-.74 1.722.986 3.445 2.219 4.675 3.698 1.476 1.726 2.707 3.451 3.691 5.424.738.986 1.968 1.479 2.953 2.219.492.246.738-.494.492-.987-.738-.986-1.477-2.218-2.215-3.205-.738-.986.246-2.218 1.231-1.479 2.214 1.48 2.952 2.712 3.444 3.452 16.732 22.434 14.026 54.482-.492 76.916-.738 1.233-2.46 1.973-3.937 1.726-1.23-.246-1.722-1.479-.984-2.465 1.722-2.465 3.199-5.177 4.675-7.89 2.707-5.423 4.675-10.846 5.906-16.516l-.739-.247c-.738 1.726-1.476 2.958-2.214 3.205 0-.986 0-.986.246-3.945l-.984-.246a71.705 71.705 0 01-5.906 16.764c-.492.74-.738 1.479-1.23 2.219-.984 1.972-2.215 3.944-3.445 5.916-.984 1.233-2.46 1.972-3.937 1.726-1.23-.247-1.722-1.726-.984-2.712 5.167-7.889 8.858-16.517 10.827-25.146l-.985-.246c-.492 1.725-1.23 2.958-2.214 3.205 0-.986 0-.986.246-3.698l-1.23-.247c-2.215 9.122-5.906 17.75-10.827 25.393-.984 1.479-2.707 2.218-4.43 1.725-1.23-.246-1.968-1.725-1.23-2.712 11.319-17.257 16.733-39.69 11.565-61.631-2.214-9.122-6.151-17.504-11.81-24.16-.739-.247-.247-1.233.246-.986zm7.627 34.02c-1.476-13.805-6.643-22.68-7.381-26.378 4.921 2.219 9.842 17.257 10.58 25.392 1.477 15.778-1.476 26.625-3.199 30.077-.492.74-.984-1.48-.738-2.466.492-4.93 1.723-16.024.738-26.625zM10.088 83.327c-.492-1.972-.738-4.19-.984-6.41-.738-11.093 1.476-19.722 2.953-22.187.492-.74 1.476.493 1.476 1.233 0 .493-.246 1.479-.246 2.958-.984 7.642-1.23 15.285.246 23.913 0 .247 0 .493-.246.493s-.738 0-.984.247c-.493.246-1.23.246-1.723.246-.246 0-.492-.246-.492-.493zm6.398 13.066c-.739.74-3.2-3.205-5.168-8.875 0-.246 0-.246.247-.246.738 0 1.722-.247 2.46-.247.246 0 .492 0 .492.247.246.74.246 1.232.492 1.972 1.23 5.423 1.723 6.903 1.477 7.15zm23.13-16.517c-2.953-1.972-5.66-5.67-6.398-10.6-.246-.987-.739-1.727-1.723-1.973l-9.35-2.465s-.246 0 0-.247c0 0 0-.246.246-.246 7.136 1.232 10.827-12.327 3.937-14.792 0 0-.246 0 0-.247 0 0 0-.246.246 0 .984.247 6.644 2.22 9.596 2.959.985.246 1.969 0 2.707-.74 1.969-2.219 4.43-3.944 6.89-4.684.246 0 .246 0 .246.247 0 .246 0 .246-.246.246-2.46.986-4.43 2.465-6.398 4.438-.492.493-.246 1.479.492 1.479l10.335 3.205c3.69 1.232 4.921 6.163 2.953 10.107-3.2 6.657-7.874 4.191-17.717 1.48-.738-.247-1.476.492-1.23 1.232.738 3.945 2.707 7.642 5.66 9.615.245 0 .245.246.245.493 0 .493-.246.493-.492.493zm29.526-19.23c-.246 0-.246.247-.246.247.739 5.917-1.23 12.327-4.92 17.01 0 0-.247.247 0 .247-2.954 3.451-6.89 5.67-10.335 6.163-1.477.247-1.723.247-2.46.247-2.462-.247-6.645-1.233-7.875-1.48v-.246h.246c.246 0 .492 0 .738.247 2.461.74 6.398.493 10.089-1.726 13.041-7.642 10.088-24.9 10.334-21.941.493 5.177-.984 8.135-1.476 8.628-.246.247-.246 0-.492-.246v-1.48c.984-6.902-.492-10.6-.984-12.572-.246-.493.246-1.726.492-1.233.246.247.492.493.738.986l.246.247c-1.476-3.698-4.183-6.656-8.12-8.136-1.476-.493-2.707-.74-4.183-.74 0 0-.246 0-.246-.246 0 0 0-.246.246-.246 1.476 0 2.953.246 4.43.74 3.936 1.478 6.643 1.972 9.595 4.93 1.23 1.48 2.461 2.958 3.2 4.93.245 1.973.737 3.698.983 5.67z"/><path d="M181.838 179.965c-3.691 4.191-8.366 6.903-13.533 8.875-.492.246-.246.739.246.739 4.183-.986 8.12-2.711 12.057-4.93 4.921-2.958 3.445-7.149 1.23-4.684zm85.628 24.899c-1.722.986-3.691.493-6.397-1.479-1.477-.986-3.199-1.726-4.922-1.479-1.23.246-1.722 1.726-.738 2.465 4.921 4.684 13.041 10.108 15.502 3.698.246-.74.246-1.726-.246-2.712-.246-1.232-1.968-1.232-3.199-.493zm-144.929-9.368c0-.493-.984-.246-.984.247.246 5.917.246 11.587-.984 17.257-.492 2.465 4.921 3.944 4.429-2.465-.738-5.424-1.477-10.355-2.461-15.039z"/></g><defs><clipPath id="clip0"><path fill="#fff" d="M0 0h281v284H0z"/></clipPath></defs></svg>