<svg width="36" height="24" fill="none" xmlns="http://www.w3.org/2000/svg"><g clip-path="url(#clip0)"><path d="M6.313 20.32h9.888v3.648H.33v-3.36l9.856-8.8c1.365-1.195 2.048-2.421 2.048-3.68 0-1.152-.363-2.101-1.088-2.848-.704-.768-1.632-1.152-2.784-1.152-.79 0-1.493.181-2.112.544a3.817 3.817 0 00-1.44 1.472 3.637 3.637 0 00-.48 1.952H.361c0-1.515.341-2.848 1.024-4A6.847 6.847 0 014.233 1.44C5.45.8 6.846.48 8.425.48c1.472 0 2.795.33 3.968.992a7.05 7.05 0 012.784 2.752c.683 1.152 1.024 2.464 1.024 3.936 0 1.067-.15 1.973-.448 2.72a6.382 6.382 0 01-1.216 1.984c-.533.597-1.312 1.344-2.336 2.24L6.313 20.32zm22.662-.128H18.767v-3.616L26.159.96h4.384l-7.36 15.616h5.792v-5.984h3.904v5.984h2.176v3.616h-2.176V24h-3.904v-3.808z" fill="#CA9E55"/></g><defs><clipPath id="clip0"><path fill="#fff" d="M0 0h36v24H0z"/></clipPath></defs></svg>