<svg width="24" height="24" fill="none" xmlns="http://www.w3.org/2000/svg"><g clip-path="url(#clip0)" fill="#CA9E55"><path d="M.429 2.571h.857v-.857H.429a.429.429 0 000 .857zm20.997 1.715h.43V3h-.002V0H2.14v4.286h19.285zm2.146-2.572h-.857v.857h.857a.429.429 0 000-.857zM2.238 24h19.524a.426.426 0 00.351-.67A5.884 5.884 0 0121 20.143v-15H3v15a5.885 5.885 0 01-1.114 3.187.426.426 0 00.352.67zm5.048-4.714h12a.429.429 0 010 .857h-12a.429.429 0 010-.857zm-2.572 0h.857a.429.429 0 010 .857h-.857a.429.429 0 110-.857z"/></g><defs><clipPath id="clip0"><path fill="#fff" d="M0 0h24v24H0z"/></clipPath></defs></svg>