<svg width="24" height="24" fill="none" xmlns="http://www.w3.org/2000/svg"><path d="M23.041 16.515a.936.936 0 00.936-.936V9.497a3.747 3.747 0 00-3.743-3.743h-1.965V3.743A3.747 3.747 0 0014.526 0H3.766A3.747 3.747 0 00.023 3.743v10.76a3.747 3.747 0 003.743 3.743h1.965v2.011A3.747 3.747 0 009.474 24h10.76a3.747 3.747 0 003.743-3.743.936.936 0 00-1.872 0c0 1.032-.84 1.872-1.871 1.872H9.474a1.873 1.873 0 01-1.872-1.872V9.497c0-1.032.84-1.871 1.872-1.871h10.76c1.032 0 1.871.84 1.871 1.871v6.082c0 .517.42.936.936.936zM1.895 3.743c0-1.032.84-1.872 1.871-1.872h1.33l-3.201 3.2V3.744zM5.73 16.374H3.913l1.818-1.817v1.817zm0-6.877v2.413l-3.564 3.564a1.86 1.86 0 01-.272-.971v-1.47l3.849-3.85a3.805 3.805 0 00-.013.314zm-3.836.89V7.718l5.84-5.84.007-.007h2.668l-8.515 8.516zm9.992-4.633H9.474c-.106 0-.21.005-.313.013l3.664-3.664a.933.933 0 00.17-.232h1.531c.356 0 .688.1.972.273L11.9 5.74l-.013.013zm4.51 0h-1.864l1.865-1.864v1.864z" fill="#CA9E55"/></svg>