<svg width="24" height="24" fill="none" xmlns="http://www.w3.org/2000/svg"><g clip-path="url(#clip0)" fill="#CA9E55"><path d="M15.703 19.266h-15a.703.703 0 00-.703.703 2.11 2.11 0 002.11 2.11h12.187a2.11 2.11 0 002.11-2.11.703.703 0 00-.704-.703zM23.655 3.13c-2.726-1.61-5.49-1.61-8.216 0a.703.703 0 00-.26.94l2.134 3.948h4.468l2.135-3.948a.703.703 0 00-.261-.94zM17.79 9.422h3.515v2.11h-3.516v-2.11zm0 10.898a1.758 1.758 0 103.515 0v-7.383h-3.516v7.383zM12.015 7.25a5.355 5.355 0 00-3.812-1.578c-1.44 0-2.793.56-3.812 1.579a5.355 5.355 0 00-1.579 3.811c0 1.44.561 2.794 1.58 3.812a5.355 5.355 0 003.811 1.58c1.44 0 2.794-.562 3.812-1.58a5.355 5.355 0 001.579-3.812 5.35 5.35 0 00-1.58-3.811zM5.55 12.429a.703.703 0 01-.497-1.2L8.37 7.914a.703.703 0 11.994.994L6.05 12.223a.701.701 0 01-.498.205zm5.801-1.531L8.037 14.21a.7.7 0 01-.994 0 .703.703 0 010-.994l3.315-3.315a.703.703 0 01.994.995z"/><path d="M8.203 2.86C3.68 2.86 0 6.54 0 11.062a8.201 8.201 0 003.615 6.796h4.588a6.797 6.797 0 110-13.593 6.797 6.797 0 010 13.593h4.588a8.201 8.201 0 003.615-6.797c0-4.523-3.68-8.203-8.203-8.203z"/></g><defs><clipPath id="clip0"><path fill="#fff" d="M0 0h24v24H0z"/></clipPath></defs></svg>