<svg width="24" height="24" fill="none" xmlns="http://www.w3.org/2000/svg"><path d="M12.003 21.936a8.27 8.27 0 01-4.473-1.314l.967-.997a6.905 6.905 0 003.506.952v-1.406a5.507 5.507 0 01-2.492-.593l.923-.951a4.3 4.3 0 01-2.673-4.649l-1.289.319a5.48 5.48 0 01.512-2.016l-1.272-.598a6.881 6.881 0 00-.655 2.948v.016L.404 14.8l-.121.37c-.52 1.586-.317 3.366.555 4.882.872 1.517 2.308 2.587 3.94 2.936l.38.082 1.373-1.416a9.702 9.702 0 007.461 1.484l-.287-1.376a8.373 8.373 0 01-1.702.175z" fill="#CA9E55"/><path d="M14.893 13.631a2.888 2.888 0 11-5.775 0 2.888 2.888 0 015.775 0zM8.171 6.253L8.558 7.6a6.94 6.94 0 00-1.734 1.403l1.048.937c.323-.362.69-.676 1.088-.938l.366 1.276a4.27 4.27 0 012.68-.942 4.27 4.27 0 012.68.942l2.09-7.288-.261-.289C15.399 1.462 13.755.75 12.005.75c-1.748 0-3.392.712-4.508 1.952l-.26.29.542 1.892a9.722 9.722 0 00-1.585.966 9.794 9.794 0 00-3.464 4.894l1.343.417a8.267 8.267 0 014.098-4.908z" fill="#CA9E55"/><path d="M23.724 15.201l-.12-.37-1.916-.48a9.72 9.72 0 00-3.245-7.99l-.933 1.053a8.314 8.314 0 012.79 6.59l-1.35-.339v-.034c0-1.61-.563-3.18-1.586-4.419l-1.084.895a5.546 5.546 0 011.254 3.204l-1.282-.322a4.3 4.3 0 01-2.686 4.641l5.261 5.457.38-.08c1.633-.345 3.072-1.412 3.948-2.926.876-1.514 1.083-3.292.569-4.88z" fill="#CA9E55"/></svg>