<svg width="24" height="24" fill="none" xmlns="http://www.w3.org/2000/svg"><path d="M21.256 7.2h.428a.4.4 0 100-.8h-.428a.4.4 0 100 .8zm-2.141 0h.428a.4.4 0 100-.8h-.428a.4.4 0 100 .8zm4.285-.8a.4.4 0 00-.165.765A.4.4 0 0024 7v-.6h-.6zm.2 1.882a.4.4 0 00-.4.4v.42a.4.4 0 10.8 0v-.42a.4.4 0 00-.4-.4zm0 4.205a.4.4 0 00-.4.4v.421a.4.4 0 10.8 0v-.42a.4.4 0 00-.4-.4zm0 2.103a.4.4 0 00-.4.4v.42a.4.4 0 10.8 0v-.42a.4.4 0 00-.4-.4zm0-4.205a.4.4 0 00-.4.4v.42a.4.4 0 10.8 0v-.42a.4.4 0 00-.4-.4zm0 8.41a.4.4 0 00-.4.4v.42a.4.4 0 10.8 0v-.42a.4.4 0 00-.4-.4zm0-2.103a.4.4 0 00-.4.4v.42a.4.4 0 10.8 0v-.42a.4.4 0 00-.4-.4zm0 4.205a.4.4 0 00-.4.4v.421a.4.4 0 10.8 0v-.42a.4.4 0 00-.4-.4zm0 2.103a.4.4 0 00-.365.235.4.4 0 00.165.765h.6v-.6a.4.4 0 00-.4-.4zm-12.393.2h-.42a.4.4 0 100 .8h.42a.4.4 0 100-.8zm-2.105 0h-.42a.4.4 0 100 .8h.42a.4.4 0 100-.8zm4.208 0h-.422a.4.4 0 100 .8h.421a.4.4 0 100-.8zm6.303 0h-.42a.4.4 0 100 .8h.42a.4.4 0 100-.8zm2.107 0h-.422a.4.4 0 100 .8h.421a.4.4 0 100-.8zm-4.208 0h-.42a.4.4 0 100 .8h.42a.4.4 0 100-.8zm-2.102 0h-.42a.4.4 0 100 .8h.42a.4.4 0 100-.8zm-8.247.035a.4.4 0 00-.765.165v.6h.6a.4.4 0 00.165-.765zm-.365-2.378a.4.4 0 00-.4.4v.429a.4.4 0 10.8 0v-.429a.4.4 0 00-.4-.4zm.4-1.743a.4.4 0 10-.8 0v.428a.4.4 0 10.8 0v-.428zM6.8 17.8c.146 0 .27-.082.339-.2H7.2V7.2h10.4v-.061c.118-.07.2-.192.2-.339a.393.393 0 00-.2-.339V0H0v17.6h6.461c.07.118.193.2.339.2z" fill="#CA9E55"/></svg>