<svg width="26" height="24" fill="none" xmlns="http://www.w3.org/2000/svg"><path d="M13 0A10.011 10.011 0 003 10c0 7.45 9.06 13.575 9.445 13.832a1.009 1.009 0 001.11 0C13.94 23.575 23 17.45 23 10A10.011 10.011 0 0013 0zm0 17a7 7 0 117-7 7.008 7.008 0 01-7 7z" fill="#CA9E55"/><path d="M14 6h-2.5c-.265 0-.52.12-.707.335a1.23 1.23 0 00-.293.808V14h2v-2.286H14c.663 0 1.299-.3 1.768-.837.469-.535.732-1.262.732-2.02s-.263-1.484-.732-2.02C15.298 6.3 14.663 6 14 6zm0 3.429h-1.5V8.286H14c.133 0 .26.06.354.167a.616.616 0 01.146.404.616.616 0 01-.146.404.47.47 0 01-.354.168z" fill="#CA9E55"/></svg>