<svg width="24" height="24" fill="none" xmlns="http://www.w3.org/2000/svg"><path d="M20.5 5.5h-3a.498.498 0 01-.474-.342l-.316-.949A2.5 2.5 0 0014.338 2.5H9.662a2.495 2.495 0 00-2.371 1.709l-.316.949A.501.501 0 016.5 5.5h-3C1.57 5.5 0 7.07 0 9v9c0 1.93 1.57 3.5 3.5 3.5h17c1.93 0 3.5-1.57 3.5-3.5V9c0-1.93-1.57-3.5-3.5-3.5zm-8.5 14c-3.309 0-6-2.691-6-6s2.691-6 6-6 6 2.691 6 6-2.691 6-6 6z" fill="#CA9E55"/><path d="M12 9.5c-2.206 0-4 1.794-4 4a.5.5 0 001 0c0-1.654 1.346-3 3-3a.5.5 0 000-1z" fill="#CA9E55"/></svg>