<svg width="24" height="20" fill="none" xmlns="http://www.w3.org/2000/svg"><path d="M8.34 16.18H0v3.173h8.34V16.18zM5.354 7.76a3.096 3.096 0 00-4.323 2.837v4.178h6.185v-3.348l1.016-.423 2.325-5.412-5.203 2.169zm-.535 3.87h-1.39v-1.39h1.39v1.39zm7.6-6.815l-2.325 5.412 3.038-1.266 2.325-5.412-3.038 1.266zm4.905-2.043l.713 4.146 2.325-5.412-3.038 1.266z" fill="#CA9E55"/><path d="M17.325 2.772L15 8.184l3.038-1.266-.713-4.146zM22.422.647l-.198.083h-.001l-2.325 5.41L24 4.431 22.422.648z" fill="#CA9E55"/></svg>