<svg width="24" height="24" fill="none" xmlns="http://www.w3.org/2000/svg"><path d="M6.234 2.752c0-.842.683-1.525 1.526-1.525h8.39c.842 0 1.525.683 1.525 1.525v8.009H6.235V2.752zm-3.05 12.966h17.542l-3.051-4.957H6.235l-3.051 4.957zm3.049 0H4.898v7.055h1.335v-7.055zm12.777 0h-1.334v7.055h1.335v-7.055zm-10.299 0h-.953v1.907h.953v-1.907z" fill="#CA9E55"/><path d="M8.711 15.718h-.953v1.907h.953v-1.907zm7.438 0h-.954v1.907h.954v-1.907z" fill="#CA9E55"/><path d="M14.528 9.807H7.282a.286.286 0 100 .572h7.246a.286.286 0 000-.572zm.954 0h.763a.286.286 0 110 .572h-.763a.286.286 0 010-.572z" fill="#fff"/></svg>