<svg width="24" height="24" fill="none" xmlns="http://www.w3.org/2000/svg"><path d="M23.333 20.782l-9.5-9.404v-.698a5.22 5.22 0 003.389-4.891A5.228 5.228 0 0012 .567 5.228 5.228 0 006.778 5.79c0 1.01.823 1.833 1.833 1.833s1.833-.822 1.833-1.833c0-.858.698-1.556 1.556-1.556.858 0 1.556.698 1.556 1.556 0 .858-.698 1.556-1.556 1.556-1.01 0-1.833.822-1.833 1.833v2.2L.664 20.784c-.809.81-.706 1.468-.573 1.79.133.32.526.859 1.67.859H22.24c1.144 0 1.538-.539 1.67-.86.134-.32.236-.98-.576-1.791zm-6.676-1.213H7.343L12 14.912l4.657 4.657z" fill="#CA9E55"/></svg>