<svg width="24" height="24" fill="none" xmlns="http://www.w3.org/2000/svg"><path d="M13.305 6.182L15.8 3.687a.75.75 0 000-1.061A8.903 8.903 0 009.47 0a8.9 8.9 0 00-4.392 1.161c3.134.23 6.436 2.227 8.227 5.021zM1.676 4.565a8.91 8.91 0 00-1.16 4.392 8.9 8.9 0 002.627 6.329.748.748 0 001.06 0l2.483-2.483c-2.808-1.785-4.788-5.1-5.01-8.238z" fill="#CA9E55"/><path d="M23.22 16.793l-3.75-3.75a.998.998 0 00-1.375-.036L16.3 14.622l-5.593-5.843 1.51-1.511c-1.795-3.073-5.825-5.18-8.942-4.508-.653 3.073 1.469 7.164 4.509 8.943l1.51-1.51 4.22 4.47V23a1 1 0 102 0v-6.336l.038.038.01.01 3.745 3.745c.194.195.45.293.707.293a.995.995 0 00.669-.257l2.5-2.25a1.001 1.001 0 00.038-1.45z" fill="#CA9E55"/></svg>