<?xml version="1.0" encoding="utf-8"?>
<!-- Generator: Adobe Illustrator 25.2.3, SVG Export Plug-In . SVG Version: 6.00 Build 0)  -->
<svg version="1.1" id="Слой_1" xmlns="http://www.w3.org/2000/svg" xmlns:xlink="http://www.w3.org/1999/xlink" x="0px" y="0px"
	 viewBox="0 0 36 36" style="enable-background:new 0 0 36 36;" xml:space="preserve">
<style type="text/css">
	.st0{fill-rule:evenodd;clip-rule:evenodd;fill:url(#SVGID_1_);}
</style>
<linearGradient id="SVGID_1_" gradientUnits="userSpaceOnUse" x1="18.0004" y1="34.8501" x2="18.0004" y2="5.1501" gradientTransform="matrix(1 0 0 -1 0 38)">
	<stop  offset="0" style="stop-color:#7B00FF"/>
	<stop  offset="0.4948" style="stop-color:#FF006E"/>
	<stop  offset="1" style="stop-color:#FF8B00"/>
</linearGradient>
<path class="st0" d="M18,3.1c-4,0-4.5,0-6.1,0.1c-1.6,0.1-2.7,0.3-3.6,0.7c-1,0.4-1.9,1-2.6,1.7C4.9,6.4,4.3,7.3,3.9,8.3
	c-0.4,0.9-0.6,2-0.7,3.6C3.2,13.5,3.2,14,3.2,18s0,4.5,0.1,6.1c0.1,1.6,0.3,2.7,0.7,3.6c0.4,1,1,1.9,1.7,2.6
	c0.7,0.8,1.6,1.3,2.6,1.7c0.9,0.4,2,0.6,3.6,0.7c1.6,0.1,2.1,0.1,6.1,0.1c4,0,4.5,0,6.1-0.1c1.6-0.1,2.7-0.3,3.6-0.7
	c1-0.4,1.9-1,2.6-1.7c0.8-0.7,1.3-1.6,1.7-2.6c0.4-0.9,0.6-2,0.7-3.6c0.1-1.6,0.1-2.1,0.1-6.1s0-4.5-0.1-6.1
	c-0.1-1.6-0.3-2.7-0.7-3.6c-0.4-1-1-1.9-1.7-2.6c-0.7-0.8-1.6-1.3-2.6-1.7c-0.9-0.4-2-0.6-3.6-0.7C22.5,3.2,22,3.1,18,3.1z M18,5.8
	c4,0,4.4,0,6,0.1c1.4,0.1,2.2,0.3,2.8,0.5c0.7,0.3,1.2,0.6,1.7,1.1c0.5,0.5,0.8,1,1.1,1.7c0.2,0.5,0.4,1.3,0.5,2.8
	c0.1,1.6,0.1,2,0.1,6c0,4,0,4.4-0.1,6c-0.1,1.4-0.3,2.2-0.5,2.8c-0.2,0.6-0.6,1.2-1.1,1.7c-0.5,0.5-1,0.8-1.7,1.1
	c-0.5,0.2-1.3,0.4-2.8,0.5c-1.6,0.1-2,0.1-6,0.1c-4,0-4.4,0-6-0.1c-1.4-0.1-2.2-0.3-2.8-0.5C8.6,29.3,8,29,7.5,28.5
	C7,28,6.7,27.4,6.4,26.8C6.2,26.2,6,25.4,5.9,24c-0.1-1.6-0.1-2-0.1-6c0-4,0-4.4,0.1-6C6,10.6,6.2,9.8,6.4,9.2
	C6.7,8.5,7,8.1,7.5,7.5c0.5-0.5,1-0.8,1.7-1.1C9.8,6.2,10.6,6,12,5.9C13.6,5.8,14,5.8,18,5.8z M18,22.9c-1.3,0-2.6-0.5-3.5-1.4
	c-0.9-0.9-1.4-2.2-1.4-3.5c0-1.3,0.5-2.6,1.4-3.5c0.9-0.9,2.2-1.4,3.5-1.4s2.6,0.5,3.5,1.4s1.4,2.2,1.4,3.5c0,1.3-0.5,2.6-1.4,3.5
	S19.3,22.9,18,22.9z M18,10.4c-1,0-2,0.2-2.9,0.6c-0.9,0.4-1.8,0.9-2.5,1.7c-0.7,0.7-1.3,1.5-1.7,2.5C10.6,16,10.4,17,10.4,18
	s0.2,2,0.6,2.9c0.4,0.9,0.9,1.8,1.7,2.5c0.7,0.7,1.5,1.3,2.5,1.7c0.9,0.4,1.9,0.6,2.9,0.6c2,0,4-0.8,5.4-2.2
	c1.4-1.4,2.2-3.4,2.2-5.4s-0.8-4-2.2-5.4C22,11.2,20,10.4,18,10.4z M27.7,10.1c0,0.2,0,0.5-0.1,0.7c-0.1,0.2-0.2,0.4-0.4,0.6
	c-0.2,0.2-0.4,0.3-0.6,0.4c-0.2,0.1-0.4,0.1-0.7,0.1c-0.2,0-0.5,0-0.7-0.1c-0.2-0.1-0.4-0.2-0.6-0.4c-0.2-0.2-0.3-0.4-0.4-0.6
	c-0.1-0.2-0.1-0.4-0.1-0.7c0-0.5,0.2-0.9,0.5-1.3c0.3-0.3,0.8-0.5,1.3-0.5c0.5,0,0.9,0.2,1.3,0.5S27.7,9.6,27.7,10.1z"/>
</svg>
