<svg width="35" height="35" fill="none" xmlns="http://www.w3.org/2000/svg"><path d="M20.5 4h-5C10.26 4 6 8.26 6 13.498v4.505c0 3.9 2.396 7.404 6 8.832v2.92a.5.5 0 00.835.371l2.9-2.626H20.5c5.238 0 9.5-4.26 9.5-9.497v-4.505C30 8.26 25.738 4 20.5 4zM29 18.003c0 4.685-3.813 8.497-8.5 8.497h-4.958a.499.499 0 00-.335.13L13 28.628v-2.14a.499.499 0 00-.334-.47A8.515 8.515 0 017 18.002v-4.505C7 8.812 10.813 5 15.5 5h5c4.688 0 8.5 3.812 8.5 8.498v4.505z" fill="#FFC844"/><path d="M24.608 19.247l-3.073-1.996a1.497 1.497 0 00-2.075.44l-.145.222c-1.33-.44-2.796-1.001-3.674-3.543l.363-.316c.624-.542.69-1.491.147-2.116l-2.404-2.766a.5.5 0 00-.705-.05l-1.51 1.313c-1.324 1.15-.705 2.853-.502 3.413.01.025.02.049.033.072a22.847 22.847 0 003.33 4.393c2.033 2.07 5.703 3.983 5.815 4.038a2.503 2.503 0 003.458-.735l1.09-1.677a.501.501 0 00-.148-.692zm-1.78 1.824c-.451.694-1.382.891-2.117.417-.037-.019-3.682-1.917-5.604-3.875-1.796-1.83-2.988-3.862-3.15-4.145-.397-1.11-.327-1.793.231-2.278l1.133-.984 2.076 2.388a.495.495 0 01-.048.705l-.614.533a.5.5 0 00-.15.525c1.046 3.399 3.08 4.066 4.565 4.554l.217.071a.498.498 0 00.577-.201l.355-.546a.494.494 0 01.691-.146l2.654 1.724-.817 1.258zm-3.687-8.948a.499.499 0 10-.274.962 2.262 2.262 0 011.549 1.552.5.5 0 00.962-.271 3.269 3.269 0 00-2.237-2.242z" fill="#FFC844"/><path d="M22.947 15.11a.5.5 0 00.482-.636 6.35 6.35 0 00-4.345-4.354.5.5 0 10-.274.962 5.342 5.342 0 013.656 3.663.5.5 0 00.48.365z" fill="#FFC844"/><path d="M18.868 7.791a.5.5 0 10-.274.962 9.052 9.052 0 016.194 6.208.5.5 0 00.962-.27 10.06 10.06 0 00-6.882-6.9z" fill="#FFC844"/></svg>