<svg width="27" height="27" fill="none" xmlns="http://www.w3.org/2000/svg"><g clip-path="url(#clip0_739_128)"><circle cx="13" cy="14" r="13" fill="#7294C7"/><path d="M19.374 17.325c0-.054-.054-.054-.054-.108-.216-.432-.701-.971-1.35-1.565-.323-.27-.485-.486-.593-.593-.162-.216-.162-.378-.108-.594.054-.162.27-.432.648-.918.216-.27.324-.431.486-.593.81-1.08 1.187-1.781 1.079-2.105l-.054-.054c-.054-.054-.108-.108-.216-.108-.108-.054-.27-.054-.432 0h-2.428l-.054.054c-.054.054-.054.054-.054.108-.216.594-.486 1.08-.755 1.62-.162.269-.324.539-.486.755-.162.216-.27.377-.378.485-.108.108-.216.162-.27.27-.054.054-.162.108-.162.054-.054 0-.107 0-.107-.054l-.162-.162c-.054-.054-.054-.162-.108-.27v-2.698c0-.054-.054-.162-.054-.216l-.162-.161c-.054-.054-.162-.054-.216-.108a4.845 4.845 0 00-.971-.108c-.864 0-1.457.054-1.673.162-.108.054-.216.107-.27.215-.108.108-.108.162-.054.162.27.054.486.162.593.324l.054.108c.054.054.054.162.108.324s.054.324.054.54v.863c0 .27-.054.432-.054.593 0 .162-.054.27-.108.324-.054.108-.054.162-.107.162 0 0 0 .054-.054.054s-.108.054-.216.054a.41.41 0 01-.216-.108.65.65 0 01-.27-.27 1.883 1.883 0 01-.324-.485c-.108-.216-.27-.432-.378-.756l-.107-.216a7.63 7.63 0 01-.27-.593c-.108-.27-.216-.486-.324-.756-.054-.108-.108-.162-.162-.216h-.054s-.054-.054-.108-.054-.108-.054-.162-.054H6.368c-.215 0-.323.054-.377.108l-.054.054v.108c0 .054 0 .108.054.216.27.648.593 1.295.917 1.943.324.593.648 1.133.864 1.51.27.379.485.756.755 1.08.27.324.432.54.486.648l.216.215.162.162c.107.108.27.27.485.432.216.162.486.324.756.486.27.162.593.27.917.378.378.108.702.162 1.026.108h.809a.49.49 0 00.378-.162l.054-.054c0-.054.054-.054.054-.108v-.216c0-.216 0-.378.054-.54.053-.162.053-.27.107-.378.054-.108.108-.161.162-.215l.108-.108h.054c.108-.054.27 0 .378.108.162.107.324.27.432.431.108.162.27.324.486.54.215.216.377.378.485.432l.162.108c.108.054.216.108.378.162.162.053.27.053.378.053l1.834-.053c.162 0 .324-.054.432-.108.108-.054.162-.108.162-.216v-.216c-.108-.108-.108-.162-.108-.216z" fill="#fff"/></g><defs><clipPath id="clip0_739_128"><path fill="#fff" transform="translate(.198 .992)" d="M0 0h26v26H0z"/></clipPath></defs></svg>