<svg width="22" height="25" fill="none" xmlns="http://www.w3.org/2000/svg"><path d="M13.292 0H8.708C3.906 0 0 3.905 0 8.706v4.13a8.723 8.723 0 005.5 8.096v2.677a.458.458 0 00.766.34l2.658-2.407h4.368c4.802 0 8.708-3.906 8.708-8.706v-4.13C22 3.906 18.094 0 13.292 0zm7.791 12.836c0 4.295-3.494 7.789-7.79 7.789H8.746a.457.457 0 00-.308.119l-2.022 1.832v-1.962a.457.457 0 00-.306-.431 7.806 7.806 0 01-5.194-7.347v-4.13c0-4.295 3.495-7.79 7.79-7.79h4.585c4.296 0 7.791 3.495 7.791 7.79v4.13z" fill="#FFC844"/><path d="M17.057 13.976l-2.817-1.83a1.373 1.373 0 00-1.902.404l-.132.203c-1.22-.403-2.564-.917-3.369-3.247l.334-.29a1.377 1.377 0 00.134-1.94L7.102 4.741a.459.459 0 00-.647-.045L5.07 5.898c-1.213 1.055-.646 2.616-.46 3.129a.456.456 0 00.03.066 20.944 20.944 0 003.053 4.027c1.863 1.898 5.227 3.65 5.33 3.702a2.294 2.294 0 003.17-.674l.998-1.537a.46.46 0 00-.135-.635zm-1.632 1.672c-.413.637-1.266.817-1.94.383-.034-.018-3.375-1.758-5.137-3.552a20.412 20.412 0 01-2.888-3.8c-.363-1.018-.299-1.644.213-2.089l1.038-.902 1.903 2.19a.452.452 0 01-.044.646l-.563.489a.458.458 0 00-.137.48c.959 3.116 2.823 3.728 4.184 4.175l.199.066a.457.457 0 00.53-.185l.324-.5a.453.453 0 01.634-.134l2.433 1.58-.749 1.153zm-3.379-8.201a.457.457 0 10-.25.881c.682.194 1.226.74 1.418 1.423a.459.459 0 00.883-.249 2.996 2.996 0 00-2.05-2.055z" fill="#FFC844"/><path d="M15.534 10.184a.458.458 0 00.441-.583 5.82 5.82 0 00-3.982-3.992.458.458 0 10-.25.882 4.897 4.897 0 013.35 3.359.46.46 0 00.441.334z" fill="#FFC844"/><path d="M11.796 3.475a.457.457 0 10-.252.882 8.297 8.297 0 015.678 5.69.459.459 0 00.883-.248 9.22 9.22 0 00-6.31-6.324z" fill="#FFC844"/></svg>