<svg width="23" height="25" viewBox="0 0 23 25" fill="none" xmlns="http://www.w3.org/2000/svg">
<path d="M18.7148 2.66675H20.1079V3.36466H18.7148V2.66675Z" fill="#66757F"/>
<path d="M0 8.25009V22.2084C0 23.7501 1.24997 25 2.79166 25H19.5416C21.0833 25 22.3333 23.7501 22.3333 22.2084V8.25009H0Z" fill="#CCD6DD"/>
<path d="M19.5416 2.66675H2.79166C1.24997 2.66675 0 3.91671 0 5.45841V8.94798H22.3333V5.45841C22.3333 3.91671 21.0833 2.66675 19.5416 2.66675Z" fill="#B1AEAE"/>
<path d="M4.76986 5.96856C4.27993 5.96856 3.88281 5.50375 3.88281 4.92936C3.88281 4.35568 4.27993 3.89017 4.76986 3.89017C5.2591 3.89017 5.65621 4.35568 5.65621 4.92936C5.65621 5.50305 5.2591 5.96856 4.76986 5.96856ZM8.95735 5.96856C8.46741 5.96856 8.0703 5.50375 8.0703 4.92936C8.0703 4.35568 8.46741 3.89017 8.95735 3.89017C9.44659 3.89017 9.8437 4.35568 9.8437 4.92936C9.8437 5.50305 9.44659 5.96856 8.95735 5.96856ZM13.1448 5.96856C12.6549 5.96856 12.2578 5.50375 12.2578 4.92936C12.2578 4.35568 12.6549 3.89017 13.1448 3.89017C13.6341 3.89017 14.0319 4.35568 14.0319 4.92936C14.0312 5.50305 13.6341 5.96856 13.1448 5.96856ZM17.3323 5.96856C16.8424 5.96856 16.4453 5.50375 16.4453 4.92936C16.4453 4.35568 16.8424 3.89017 17.3323 3.89017C17.8216 3.89017 18.2194 4.35568 18.2194 4.92936C18.2187 5.50305 17.8216 5.96856 17.3323 5.96856Z" fill="#292F33"/>
<path d="M17.6692 0C16.778 0 16.0061 0.559727 15.5797 1.37489C15.1567 0.577175 14.3814 0 13.4817 0C12.5905 0 11.8186 0.559727 11.3922 1.37489C10.9692 0.577175 10.1939 0 9.29425 0C8.40301 0 7.63112 0.559727 7.20469 1.37489C6.78176 0.577175 6.00638 0 5.10676 0C3.757 0 2.66406 1.26951 2.66406 2.79515C2.66406 4.08908 3.39338 5.14782 4.457 5.53516C4.98672 5.72709 5.31125 5.22319 5.26589 4.8191C5.2275 4.4841 5.00487 4.26565 4.75711 4.10862C4.41862 3.89436 4.05919 3.40513 4.05919 2.79864C4.05919 2.02814 4.52749 1.33651 5.10607 1.33651C5.68464 1.33651 6.15294 1.96812 6.15294 2.66603H6.86202C6.85992 2.7093 6.85085 2.75048 6.85085 2.79445C6.85085 4.08838 7.58017 5.14712 8.6438 5.53446C9.17351 5.72639 9.49804 5.2225 9.45268 4.8184C9.41429 4.4841 9.19166 4.26565 8.9439 4.10862C8.60541 3.89436 8.24598 3.40513 8.24598 2.79864C8.24598 2.02814 8.71428 1.33651 9.29285 1.33651C9.87143 1.33651 10.3411 1.96882 10.3411 2.66673H11.0502C11.0481 2.71 11.039 2.75118 11.039 2.79515C11.039 4.08908 11.7684 5.14782 12.832 5.53516C13.3617 5.72709 13.6862 5.22319 13.6409 4.8191C13.6025 4.4848 13.3798 4.26635 13.1321 4.10932C12.7936 3.89506 12.4342 3.40582 12.4342 2.79934C12.4342 2.02884 12.9025 1.3372 13.481 1.3372C14.0596 1.3372 14.5286 1.96882 14.5286 2.66673H15.2377C15.2356 2.71 15.2265 2.75118 15.2265 2.79515C15.2265 4.08908 15.9558 5.14782 17.0195 5.53516C17.5492 5.72709 17.8737 5.22319 17.8284 4.8191C17.79 4.4848 17.5673 4.26635 17.3196 4.10932C16.9811 3.89506 16.6217 3.40582 16.6217 2.79934C16.6217 2.02884 17.09 1.3372 17.6685 1.3372C18.2471 1.3372 18.7161 1.96882 18.7161 2.66673H20.1091C20.0945 1.2709 19.0092 0 17.6692 0Z" fill="#66757F"/>
<path d="M6.28254 10.3438H9.0742V13.1355H6.28254V10.3438ZM9.77212 10.3438H12.5638V13.1355H9.77212V10.3438ZM13.2617 10.3438H16.0533V13.1355H13.2617V10.3438ZM16.7513 10.3438H19.5429V13.1355H16.7513V10.3438ZM2.79297 13.8334H5.58463V16.625H2.79297V13.8334ZM6.28254 13.8334H9.0742V16.625H6.28254V13.8334ZM9.77212 13.8334H12.5638V16.625H9.77212V13.8334ZM13.2617 13.8334H16.0533V16.625H13.2617V13.8334ZM16.7513 13.8334H19.5429V16.625H16.7513V13.8334ZM2.79297 17.323H5.58463V20.1146H2.79297V17.323ZM6.28254 17.323H9.0742V20.1146H6.28254V17.323ZM9.77212 17.323H12.5638V20.1146H9.77212V17.323ZM13.2617 17.323H16.0533V20.1146H13.2617V17.323ZM16.7513 17.323H19.5429V20.1146H16.7513V17.323ZM2.79297 20.8125H5.58463V23.6042H2.79297V20.8125ZM6.28254 20.8125H9.0742V23.6042H6.28254V20.8125ZM9.77212 20.8125H12.5638V23.6042H9.77212V20.8125Z" fill="#B1AEAE"/>
</svg>
