<svg width="25" height="33" viewBox="0 0 25 33" fill="none" xmlns="http://www.w3.org/2000/svg">
<path d="M12.4995 1.79993L12.4995 22.7999M12.4995 22.7999L15.9995 19.3685M12.4995 22.7999L8.99951 19.3685" stroke="white" stroke-width="2.5" stroke-linecap="round"/>
<path d="M19.9246 12.9998C21.3931 14.4908 22.3931 16.3904 22.7982 18.4585C23.2034 20.5266 22.9955 22.6702 22.2007 24.6183C21.406 26.5664 20.0602 28.2315 18.3335 29.403C16.6068 30.5745 14.5767 31.1998 12.5 31.1998C10.4233 31.1998 8.39323 30.5745 6.66651 29.403C4.9398 28.2315 3.59398 26.5664 2.79926 24.6183C2.00454 22.6702 1.79661 20.5266 2.20175 18.4585C2.6069 16.3904 3.60693 14.4908 5.07538 12.9998" stroke="white" stroke-width="2.5" stroke-linecap="round"/>
</svg>
