<svg width="30" height="22" viewBox="0 0 30 22" fill="none" xmlns="http://www.w3.org/2000/svg">
<path d="M1 11H21M21 11L17.732 7.66669M21 11L17.732 14.3334" stroke="white" stroke-linecap="round"/>
<path d="M11.6667 3.92894C13.0867 2.53041 14.8959 1.578 16.8655 1.19215C18.8351 0.8063 20.8767 1.00433 22.732 1.76121C24.5873 2.51808 26.1731 3.79981 27.2888 5.4443C28.4045 7.08879 29 9.02219 29 11C29 12.9778 28.4045 14.9112 27.2888 16.5557C26.1731 18.2002 24.5873 19.4819 22.732 20.2388C20.8767 20.9957 18.8351 21.1937 16.8655 20.8078C14.8959 20.422 13.0867 19.4696 11.6667 18.0711" stroke="white" stroke-linecap="round"/>
</svg>
