<svg width="30" height="22" viewBox="0 0 30 22" fill="none" xmlns="http://www.w3.org/2000/svg">
<path d="M29 11H9.00001M9.00001 11L12.268 7.66669M9.00001 11L12.268 14.3334" stroke="white" stroke-linecap="round"/>
<path d="M18.3333 3.92894C16.9133 2.53041 15.1041 1.578 13.1345 1.19215C11.1649 0.8063 9.12332 1.00433 7.26799 1.76121C5.41266 2.51808 3.82688 3.79981 2.71118 5.4443C1.59549 7.08879 0.999987 9.02219 0.999987 11C0.999987 12.9778 1.59549 14.9112 2.71118 16.5557C3.82688 18.2002 5.41266 19.4819 7.26799 20.2388C9.12332 20.9957 11.1649 21.1937 13.1345 20.8078C15.1041 20.422 16.9133 19.4696 18.3333 18.0711" stroke="white" stroke-linecap="round"/>
</svg>
