<svg width="17" height="21" viewBox="0 0 17 21" fill="none" xmlns="http://www.w3.org/2000/svg">
<path d="M5 2V14C5 14.5304 5.21071 15.0391 5.58579 15.4142C5.96086 15.7893 6.46957 16 7 16H15C15.5304 16 16.0391 15.7893 16.4142 15.4142C16.7893 15.0391 17 14.5304 17 14V5.242C17 4.97556 16.9467 4.71181 16.8433 4.46624C16.7399 4.22068 16.5885 3.99824 16.398 3.812L13.083 0.57C12.7094 0.204658 12.2076 6.50394e-05 11.685 0H7C6.46957 0 5.96086 0.210714 5.58579 0.585786C5.21071 0.960859 5 1.46957 5 2Z" fill="white"/>
<path d="M13 16V18C13 18.5304 12.7893 19.0391 12.4142 19.4142C12.0391 19.7893 11.5304 20 11 20H3C2.46957 20 1.96086 19.7893 1.58579 19.4142C1.21071 19.0391 1 18.5304 1 18V7C1 6.46957 1.21071 5.96086 1.58579 5.58579C1.96086 5.21071 2.46957 5 3 5H5" stroke="white" stroke-width="2" stroke-linecap="round" stroke-linejoin="round"/>
</svg>
