<svg width="32" height="32" viewBox="0 0 32 32" fill="none" xmlns="http://www.w3.org/2000/svg">
<g clip-path="url(#clip0)">
<path d="M0.44488 26.6092L4.95653 31.0847C5.62251 31.7677 6.50525 31.9991 7.36496 32.0001C11.1669 31.8862 14.7605 30.0187 17.7111 28.1011C22.5544 24.5776 26.9983 20.2087 29.7873 14.929C30.857 12.715 32.1122 9.8902 31.9923 7.41903C31.9816 6.48943 31.7311 5.57708 31.0764 4.97788L26.5647 0.468518C25.6279 -0.328362 24.7219 -0.0528417 24.1224 0.875372L20.4927 7.75809C20.1107 8.57348 20.3299 9.44713 20.8998 10.0298L22.562 11.6911C22.6646 11.8317 22.73 11.9917 22.7316 12.1658C22.0942 14.6331 20.1633 16.9071 18.4575 18.4721C16.7517 20.0371 14.9181 22.1574 12.5381 22.6593C12.2439 22.7414 11.8835 22.7702 11.6731 22.5745L9.73947 20.6081C9.07291 20.1029 8.11051 19.8559 7.3989 20.269H7.36498L0.818052 24.1342C-0.14304 24.7366 -0.243256 25.9009 0.44488 26.6092Z" fill="white"/>
</g>
<defs>
<clipPath id="clip0">
<rect width="32" height="32" fill="white" transform="matrix(-1 0 0 1 32 0)"/>
</clipPath>
</defs>
</svg>
