<svg width="82" height="23" viewBox="0 0 82 23" fill="none" xmlns="http://www.w3.org/2000/svg">
<path d="M16.38 22L14.43 16.84H4.46999L2.51999 22H0.299988L8.36999 0.999998H10.53L18.6 22H16.38ZM5.21999 14.86H13.68L9.44999 3.61L5.21999 14.86Z" fill="#D6263B"/>
<path d="M20.9965 22V0.0999985H22.9765V22H20.9965Z" fill="#D6263B"/>
<path d="M27.1781 22V0.0999985H29.1581V22H27.1781Z" fill="#D6263B"/>
<path d="M34.9198 10.93C34.9198 11.61 35.2198 12.15 35.8198 12.55C36.4198 12.95 37.1498 13.26 38.0098 13.48C38.8698 13.7 39.7298 13.95 40.5898 14.23C41.4498 14.49 42.1798 14.94 42.7798 15.58C43.3798 16.2 43.6798 17.02 43.6798 18.04C43.6798 19.32 43.1698 20.36 42.1498 21.16C41.1498 21.96 39.8498 22.36 38.2498 22.36C36.8098 22.36 35.5798 22.04 34.5598 21.4C33.5598 20.76 32.8598 19.93 32.4598 18.91L34.1398 17.92C34.4198 18.7 34.9198 19.32 35.6398 19.78C36.3798 20.22 37.2498 20.44 38.2498 20.44C39.2298 20.44 40.0498 20.25 40.7098 19.87C41.3698 19.47 41.6998 18.86 41.6998 18.04C41.6998 17.36 41.3998 16.82 40.7998 16.42C40.1998 16.02 39.4698 15.71 38.6098 15.49C37.7498 15.27 36.8898 15.03 36.0298 14.77C35.1698 14.49 34.4398 14.04 33.8398 13.42C33.2398 12.78 32.9398 11.95 32.9398 10.93C32.9398 9.71 33.4198 8.69 34.3798 7.87C35.3598 7.05 36.5898 6.64 38.0698 6.64C39.2898 6.64 40.3598 6.92 41.2798 7.48C42.1998 8.02 42.8798 8.76 43.3198 9.7L41.6698 10.66C41.0898 9.26 39.8898 8.56 38.0698 8.56C37.2098 8.56 36.4698 8.77 35.8498 9.19C35.2298 9.59 34.9198 10.17 34.9198 10.93Z" fill="#D6263B"/>
<path d="M53.4733 6.64C55.6933 6.64 57.4833 7.43 58.8433 9.01C60.2234 10.57 60.9133 12.42 60.9133 14.56C60.9133 14.78 60.8933 15.09 60.8533 15.49H47.6833C47.8833 17.01 48.5233 18.22 49.6033 19.12C50.7033 20 52.0533 20.44 53.6533 20.44C54.7933 20.44 55.7733 20.21 56.5933 19.75C57.4333 19.27 58.0634 18.65 58.4833 17.89L60.2233 18.91C59.5633 19.97 58.6633 20.81 57.5233 21.43C56.3833 22.05 55.0833 22.36 53.6233 22.36C51.2633 22.36 49.3433 21.62 47.8633 20.14C46.3833 18.66 45.6433 16.78 45.6433 14.5C45.6433 12.26 46.3733 10.39 47.8333 8.89C49.2933 7.39 51.1733 6.64 53.4733 6.64ZM53.4733 8.56C51.9133 8.56 50.6033 9.03 49.5433 9.97C48.5033 10.89 47.8833 12.09 47.6833 13.57H58.8733C58.6733 11.99 58.0633 10.76 57.0433 9.88C56.0233 9 54.8333 8.56 53.4733 8.56Z" fill="#D6263B"/>
<path d="M66.0429 9.49C66.9629 7.67 68.5429 6.76 70.7829 6.76V8.68C69.4229 8.68 68.2929 9.08 67.3929 9.88C66.4929 10.68 66.0429 11.94 66.0429 13.66V22H64.0629V7H66.0429V9.49Z" fill="#D6263B"/>
<path d="M81.7394 8.92H77.4194V18.01C77.4194 18.83 77.5794 19.42 77.8994 19.78C78.2194 20.12 78.6994 20.3 79.3394 20.32C79.9794 20.32 80.7794 20.3 81.7394 20.26V22C79.6394 22.32 78.0594 22.17 76.9994 21.55C75.9594 20.93 75.4394 19.75 75.4394 18.01V8.92H72.2894V7H75.4394V3.4L77.4194 2.8V7H81.7394V8.92Z" fill="#D6263B"/>
</svg>
