<svg width="34" height="34" viewBox="0 0 34 34" fill="none" xmlns="http://www.w3.org/2000/svg">
<path fill-rule="evenodd" clip-rule="evenodd" d="M33.6667 17C33.6667 26.2042 26.2042 33.6667 17 33.6667C7.79588 33.6667 0.333374 26.2042 0.333374 17C0.333374 7.79583 7.79588 0.333332 17 0.333332C26.2042 0.333332 33.6667 7.79583 33.6667 17ZM17.5973 12.6375C15.9764 13.3111 12.7362 14.7069 7.87782 16.8236C7.08893 17.1375 6.67504 17.4444 6.63754 17.7444C6.57365 18.2528 7.20976 18.4528 8.07365 18.7236C8.19171 18.7611 8.31393 18.7986 8.43893 18.8403C9.29032 19.1167 10.4348 19.4403 11.0292 19.4528C11.5695 19.4639 12.1723 19.2417 12.8375 18.7861C17.3764 15.7208 19.7195 14.1722 19.8667 14.1389C19.9709 14.1153 20.1153 14.0847 20.2125 14.1722C20.3098 14.2583 20.3 14.4222 20.2903 14.4667C20.2264 14.7347 17.7348 17.0528 16.4431 18.2528C16.0403 18.6264 15.7556 18.8917 15.6973 18.9528C15.5667 19.0875 15.4334 19.2167 15.3056 19.3403C14.5139 20.1014 13.9223 20.6736 15.3389 21.6069C16.0195 22.0556 16.5639 22.4264 17.107 22.7958C17.7 23.2 18.2917 23.6028 19.0584 24.1056C19.2528 24.2333 19.4389 24.3653 19.6209 24.4944C20.3112 24.9875 20.932 25.4292 21.6987 25.3597C22.1431 25.3181 22.6042 24.9 22.8375 23.6514C23.3889 20.6986 24.475 14.3042 24.7264 11.6681C24.7417 11.4492 24.7324 11.2293 24.6987 11.0125C24.6784 10.8374 24.5932 10.6763 24.4598 10.5611C24.2612 10.3986 23.9528 10.3639 23.8139 10.3667C23.1875 10.3778 22.2264 10.7125 17.5973 12.6375Z" fill="#111111"/>
</svg>
