<svg width="34" height="34" viewBox="0 0 34 34" fill="none" xmlns="http://www.w3.org/2000/svg">
<path d="M31.1853 8.04168C26.1853 0.333283 15.9769 -1.9584 8.06015 2.8333C0.351755 7.62501 -2.14826 18.0418 2.85177 25.7501L3.26844 26.3751L1.60176 32.6252L7.85181 30.9585L8.47682 31.3752C11.1852 32.8335 14.1019 33.6669 17.0185 33.6669C20.1436 33.6669 23.2686 32.8335 25.977 31.1669C33.6853 26.1668 35.977 15.9584 31.1853 8.04168ZM26.8103 24.0835C25.9769 25.3335 24.9353 26.1668 23.4769 26.3751C22.6436 26.3751 21.6019 26.7918 17.4352 25.1251C13.8935 23.4585 10.9768 20.7501 8.89349 17.6251C7.64348 16.1667 7.01847 14.2917 6.81014 12.4167C6.81014 10.75 7.43514 9.29169 8.47682 8.25001C8.89349 7.83334 9.31016 7.62501 9.72683 7.62501H10.7685C11.1852 7.62501 11.6018 7.62501 11.8102 8.45835C12.2268 9.50002 13.2685 12 13.2685 12.2084C13.4769 12.4167 13.4769 12.8334 13.2685 13.0417C13.4769 13.4584 13.2685 13.8751 13.0602 14.0834C12.8519 14.2917 12.6435 14.7084 12.4352 14.9167C12.0185 15.1251 11.8102 15.5417 12.0185 15.9584C12.8519 17.2084 13.8935 18.4584 14.9352 19.5001C16.1852 20.5418 17.4352 21.3751 18.8936 22.0001C19.3102 22.2085 19.7269 22.2085 19.9352 21.7918C20.1436 21.3751 21.1852 20.3334 21.6019 19.9168C22.0186 19.5001 22.2269 19.5001 22.6436 19.7084L25.977 21.3751C26.3936 21.5834 26.8103 21.7918 27.0186 22.0001C27.227 22.6251 27.227 23.4585 26.8103 24.0835Z" fill="#111111"/>
</svg>
