<svg width="112" height="91" fill="none" xmlns="http://www.w3.org/2000/svg"><g clip-path="url(#clip0)"><path d="M43.762 86.354c-7.18 1.948-15.072-.75-22.222-7.583-6.854-6.594-12.254-16.276-15.22-27.336-2.967-11.06-3.116-22.18-.475-31.353C7.06 15.826 8.84 12.2 11.037 9.322c-4.124 3.147-7.299 8.183-9.168 14.747C-.77 33.24-.593 44.39 2.344 55.42c2.967 11.06 8.366 20.772 15.22 27.336 7.15 6.864 15.042 9.562 22.222 7.584 5.608-1.53 9.672-4.197 12.698-8.183-2.403 1.888-5.28 3.267-8.722 4.196zM97.7 47.029l-2.018.63.09 2.667c2.936-1.23 5.429-3.297 7.268-5.875a16.378 16.378 0 01-5.34 2.578zM92.389 78.95c-.03 0-.06 0-.06.03l-5.458 1.14c-.594.12-1.217.09-1.75-.12-.15-.03-.327-.06-.476-.12-3.59-1.11-3.916-1.319-4.094-1.439a3.444 3.444 0 01-1.454-3.537l1.098-5.335a22.84 22.84 0 00.327-7.104l-1.069-9.711-1.898.6c-.564.209-1.039.389-1.514.509-1.127.3-2.314.48-3.5.54-3.68 2.247-7.002 5.035-9.761 7.732-.03.18-.06.33-.09.51 1.81-1.499 3.798-2.967 5.905-4.256a13.76 13.76 0 003.5-.54c.475-.12.95-.3 1.514-.51l1.898-.599 1.069 9.712a22.848 22.848 0 01-.327 7.103l-1.098 5.336a3.346 3.346 0 001.454 3.537c.178.12.534.33 4.094 1.438.149.06.297.09.475.12.564.18 1.157.24 1.75.12l5.46-1.139c.03 0 .06 0 .06-.03 1.957-.51 3.47-2.128 3.945-3.986z" fill="#A7A9AC"/><path d="M90.698 40.464c.415-.09.8.24.83.66l1.603 29.584c.237 1.978-3.59 6.054-5.578 6.804a.502.502 0 01-.415 0c-.831-.27-3.976-1.2-4.362-1.469-.712-.48-1.157-1.349-.95-2.308l1.158-5.575a22.27 22.27 0 00.326-7.014l-2.017-18.194c-.03-.36.207-.72.563-.78l8.842-1.708z" fill="#443736"/><path d="M87.82 78.65l.148-.06c2.166-.808 6.587-5.215 6.32-8.002l-1.602-29.554a1.91 1.91 0 00-.712-1.379c-.416-.33-.98-.48-1.484-.36l-8.93 1.739c-.89.24-1.454 1.079-1.365 2.008l2.018 18.194c.237 2.218.148 4.466-.327 6.624l-1.157 5.575a3.347 3.347 0 001.454 3.537c.178.12.564.36 4.658 1.619.326.12.682.15.979.06zm2.61-36.957l1.603 29.105c.119 1.169-2.878 4.706-4.688 5.515-2.255-.69-3.679-1.17-3.946-1.319-.237-.15-.504-.54-.415-1.079l1.157-5.575c.504-2.428.623-4.916.356-7.374l-1.958-17.774 7.892-1.499z" fill="#443736"/><path d="M88.799 40.854c1.276-.24 2.492.69 2.551 2.008l1.514 27.906c.207 1.738-2.76 5.155-4.837 6.414-.534.33-1.157.39-1.75.21-1.216-.36-3.471-1.08-3.797-1.319-.713-.48-1.158-1.349-.95-2.308l1.098-5.335c.504-2.458.623-4.976.356-7.464l-1.84-16.605c-.118-1.14.623-2.158 1.721-2.368l5.934-1.14z" fill="#443736"/><path d="M87.79 78.56c.297-.089.594-.209.86-.389 1.959-1.229 5.608-4.975 5.37-7.523l-1.512-27.876a3.354 3.354 0 00-1.276-2.457 3.276 3.276 0 00-2.67-.66l-5.875 1.14c-1.72.329-2.848 1.917-2.67 3.656l1.84 16.605a22.845 22.845 0 01-.327 7.104l-1.098 5.335a3.346 3.346 0 001.454 3.537c.178.12.534.33 4.094 1.439.594.24 1.217.24 1.81.09zm-4.688-35.398l.06-.03 5.874-1.139c.297-.06.564 0 .801.18.238.18.356.45.386.75l1.543 27.965c.118.959-2.225 4.016-4.273 5.305-.088.06-.177.09-.237.12-.178.06-.356.03-.534 0-2.433-.75-3.382-1.11-3.56-1.2-.238-.149-.505-.539-.416-1.078l1.098-5.335a25.81 25.81 0 00.386-7.854l-1.84-16.605a.942.942 0 01.713-1.079z" fill="#443736"/><path d="M82.272 51.704c.148 2.788.415 5.545.682 8.333.178 1.888.327 3.777.178 5.665-.118 1.799-.504 3.567-.83 5.365-.327 1.679-.92 3.537.266 5.006-.682-1.499-.148-2.938.208-4.436.416-1.769.83-3.537 1.009-5.305.356-3.627-.326-7.344-.89-10.91a74.536 74.536 0 00-.623-3.718zm13.44-10.61l.979 30.843c.237 2.038-1.335 3.986-3.264 4.526l-5.459 1.139c-1.543.33-2.907-1.08-2.581-2.638l1.187-5.695c.475-2.218.564-4.526.326-6.774l-2.077-18.943 10.889-2.458z" fill="#FCE5C0"/><path d="M93.754 77.602c2.58-.69 4.361-3.207 4.094-5.725l-.98-30.813c0-.36-.177-.66-.444-.9-.267-.21-.623-.299-.95-.21l-10.918 2.459c-.563.15-.95.69-.89 1.259l2.077 18.943a21.113 21.113 0 01-.297 6.414l-1.186 5.695c-.238 1.11.118 2.278.89 3.088a3.301 3.301 0 003.056.929l5.459-1.14h.089zm.86-35.07l.95 29.435v.09c.178 1.498-1.098 2.877-2.374 3.237l-5.43 1.139a1.03 1.03 0 01-.949-.3c-.237-.27-.356-.6-.267-.96l1.187-5.694c.504-2.368.593-4.766.356-7.164l-1.988-17.924 8.515-1.858z" fill="#443736"/><path d="M57.676 36.388c-2.254-8.393-5.785-15.916-10.117-22.12 7.091 1.558 17.03 2.787 26.05.329 14.864-4.046 15.695-4.286 15.724-4.286l8.841 33.09c-.089.03-1.275.33-15.724 4.287-9.553 2.608-17.653 9.981-22.786 15.676 1.098-8.303.534-17.564-1.988-26.976z" fill="#FCE5C0"/><path d="M60.05 64.773c.267-.06.504-.21.682-.42 4.985-5.575 12.847-12.738 22.074-15.256L98.53 44.81c.772-.21 1.217-1.019 1.01-1.798l-8.842-33.09a1.445 1.445 0 00-1.78-1.02l-15.725 4.286c-8.811 2.398-18.661 1.14-25.367-.33a1.438 1.438 0 00-1.513.63c-.326.51-.326 1.169.03 1.649 4.361 6.234 7.773 13.727 9.91 21.67 2.373 8.903 3.055 18.015 1.957 26.377-.089.63.238 1.26.831 1.529.356.12.683.15 1.009.06zm36.344-22.42l-14.33 3.896c-8.218 2.248-15.368 7.853-20.56 13.039.474-7.524-.356-15.497-2.433-23.29-1.899-7.044-4.777-13.788-8.396-19.632 6.705 1.169 15.338 1.798 23.29-.36l14.33-3.897 8.1 30.244z" fill="#443736"/><path d="M44.38 82.242c13.112-3.582 19.026-24.103 13.21-45.835C51.774 14.675 36.429-.04 23.317 3.542 10.204 7.124 4.29 27.645 10.106 49.377c5.816 21.733 21.16 36.446 34.273 32.865z" fill="#FCE5C0"/><path d="M8.13 38.126C5.933 24.34 11.214 6.864 23.32 3.536 36.137.03 51.09 14.029 57.172 34.98L8.129 38.126z" fill="#443736"/><path d="M11.037 34.05l20.827-.63-20.738-2.277-.09 2.907z" fill="#FCE5C0"/><path d="M56.46 47.418L44.444 60.816l14.33-10.79-2.314-2.608zm20.234 2.428c.03 0 .03 0 .06-.03a38.017 38.017 0 013.441-1.439c6.32-3.656 9.553-11.78 7.417-19.842-2.195-8.183-9.256-13.608-16.674-13.338-1.097.21-2.195.36-3.323.48h-.059a49.34 49.34 0 01-4.183.269 13.724 13.724 0 013.827-1.649l1.157-.27 20.887-5.065C98.174 6.534 107.55 12.5 110.19 22.3c2.641 9.802-2.492 19.753-11.422 22.18l-20.175 6.355c-.475.18-.95.36-1.454.48-1.365.36-2.73.54-4.094.51 1.157-.66 2.373-1.35 3.65-1.979z" fill="#443736"/><path d="M77.406 52.514c.475-.12.95-.3 1.513-.51l20.145-6.354c9.494-2.578 14.983-13.189 12.194-23.59-2.789-10.43-12.817-16.785-22.34-14.177L68.09 12.918c-.445.09-.83.18-1.216.27a15.28 15.28 0 00-4.124 1.799c-.445.27-.653.809-.505 1.318.149.51.623.84 1.128.84 1.394-.03 2.789-.12 4.153-.27.09 0 .178 0 .267-.03a46.46 46.46 0 003.234-.48c6.972-.18 13.44 5.036 15.428 12.5 1.958 7.373-.8 14.956-6.764 18.463-1.128.42-2.255.9-3.412 1.439l-.178.09a41.027 41.027 0 00-3.709 2.038c-.445.27-.653.81-.504 1.289.148.51.563.84 1.097.87 1.514.03 2.997-.15 4.421-.54zm-4.332-38.397l16.407-3.956c8.337-2.278 17.09 3.327 19.552 12.529 2.463 9.172-2.314 18.494-10.621 20.742l-16.348 5.155c6.053-4.316 8.782-12.439 6.676-20.322-2.077-7.763-8.486-13.398-15.665-14.148zM42.367 34.979l-26.88 8.243 27.978-2.518-1.098-5.725z" fill="#443736"/><path d="M104.464 17.864c-2.255-2.787-4.955-4.945-8.337-6.174-.653-.24-1.276-.39-1.928-.54 3.382 1.589 5.993 4.166 8.01 7.284-2.255-2.788-4.954-4.946-8.337-6.175-.652-.24-1.275-.39-1.928-.54 3.382 1.59 5.993 4.167 8.01 7.284C97.7 16.216 95 14.058 91.618 12.83c-.653-.24-1.276-.39-1.929-.54 3.382 1.589 5.993 4.167 8.01 7.284-2.254-2.788-4.954-4.946-8.336-6.175-.653-.24-1.276-.39-1.929-.54 3.382 1.59 5.993 4.167 8.01 7.284-2.254-2.787-4.954-4.945-8.336-6.174-.653-.24-1.276-.39-1.929-.54 3.383 1.589 5.993 4.166 8.01 7.284-2.254-2.788-4.954-4.946-8.336-6.175-.653-.24-1.276-.39-1.928-.54 3.382 1.59 5.993 4.167 8.01 7.284-2.255-2.787-4.955-4.945-8.337-6.174-.653-.24-1.276-.39-1.928-.54 3.382 1.589 5.993 4.166 8.01 7.284-2.255-2.788-4.954-4.946-8.337-6.175-1.097-.39-5.755-1.498-7.06-1.618L89.688 10.1c1.513-.42 3.056-.57 4.569-.48.801.24 1.602.54 2.403.9 3.175 1.648 5.756 4.196 7.803 7.343zM57.587 36.418c1.128 4.196 1.81 8.333 2.077 12.32l-20.68 2.217L34.92 35.76l19.374-8.783a69.13 69.13 0 013.293 9.442z" fill="#FCE5C0"/><path d="M59.96 49.876c.535-.15.89-.66.861-1.199-.296-4.166-1.009-8.363-2.106-12.529a70.82 70.82 0 00-3.353-9.621 1.227 1.227 0 00-.653-.63c-.296-.12-.593-.09-.89.03L34.446 34.71a1.2 1.2 0 00-.653 1.38l4.065 15.196c.148.54.682.929 1.245.869l20.68-2.218c.06-.06.118-.06.178-.06zM53.7 28.535c1.098 2.637 2.018 5.395 2.79 8.183a64.008 64.008 0 011.958 10.97l-18.603 2.008-3.56-13.278 17.416-7.883z" fill="#443736"/><path d="M59.664 48.737l-20.679 2.218-.98-3.447 20.917-5.035c.357 2.128.594 4.226.742 6.264z" fill="#443736"/><path d="M32.695 44.51c1.127 4.197 4.094 7.045 6.616 6.355 2.522-.69 3.68-4.646 2.552-8.842-1.128-4.196-4.094-7.044-6.616-6.354-2.522.689-3.65 4.646-2.552 8.842z" fill="#FCE5C0"/><path d="M39.638 52.004c3.204-.87 4.687-5.395 3.352-10.28-1.305-4.887-4.836-8.034-8.04-7.165-3.204.87-4.688 5.396-3.353 10.281 1.306 4.886 4.836 8.033 8.04 7.164zm-4.065-15.197c1.632-.45 4.183 1.709 5.192 5.516 1.009 3.806-.089 6.983-1.75 7.403-1.632.45-4.184-1.708-5.192-5.515-1.01-3.807.089-6.954 1.75-7.404z" fill="#443736"/><path d="M36.79 47.778c.533.51 1.245.69 1.868.39 1.01-.51 1.395-1.919 1.425-3.058.089-2.218-.742-4.945-2.433-6.354.771 1.708 1.305 3.537 1.364 5.425.06 1.679-.474 3.867-2.225 3.597z" fill="#443736"/><path d="M52.603 72.326c-1.217 1.35-2.492 2.608-3.976 3.627-.92.63-1.899 1.14-2.937 1.529-.801.3-1.602.42-2.403.66.148-.03-.178 0-.208.03l-.623.09c-.771.089-1.572.06-2.344 0a14.078 14.078 0 01-4.39-1.2c-2.849-1.259-5.37-3.237-7.537-5.455-4.628-4.706-8.04-10.67-10.562-16.755-.712-1.709-1.335-3.477-1.928-5.246-.119-.33-.208-.66-.297-.959-.06-.15-.089-.3-.148-.45 0-.03-.06-.21-.03-.09-2.462-8.842-3.709-17.894-2.403-27.036.297-2.038.83-4.016 1.424-5.994-3.679 5.305-5.34 11.6-5.785 18.074-.416 6.324.385 12.828 2.195 18.913 2.077 6.984 5.281 13.638 9.94 19.243 4.39 5.246 10.532 9.981 17.533 10.431 2.938.18 5.905-.48 8.426-2.038 2.76-1.769 4.748-4.406 6.053-7.374zm-7.269-55.001c-2.907-1.17-5.934-2.039-8.96-2.908A138.726 138.726 0 0024.3 11.54a65.966 65.966 0 00-4.243-.69c2.908 1.17 5.934 2.039 8.96 2.908a138.728 138.728 0 0012.076 2.877c1.394.27 2.818.51 4.242.69z" fill="#FCE5C0"/><path d="M32.577 22.27l-19.849-3.207-.089 1.739 19.938 1.468zm8.04-9.801c-2.107-1.289-4.45-2.218-6.735-3.057-2.314-.84-4.717-1.589-7.12-1.949 2.106 1.29 4.45 2.218 6.734 3.058 2.285.839 4.688 1.588 7.12 1.948z" fill="#FCE5C0"/><path d="M45.126 85.005c9.672-2.637 14.805-8.662 17.802-18.973 2.67-9.172 2.789-20.112-.149-31.173-2.967-11.06-8.633-20.172-15.516-26.736-7.15-6.894-16.11-9.652-24.655-7.314C15.398 2.787 9.939 9.142 7.18 18.703c-2.64 9.172-2.463 20.293.504 31.353 2.967 11.06 8.367 20.772 15.22 27.336 7.15 6.864 15.043 9.561 22.222 7.613zM24.062 6.295c11.719-3.208 25.663 10.61 31.063 30.812 5.4 20.203.267 39.206-11.482 42.413-11.72 3.207-25.664-10.61-31.063-30.813-5.4-20.172-.238-39.205 11.481-42.413z" fill="#443736"/><path d="M58.24 49.307L44.948 67.38l15.903-15.766-2.611-2.308z" fill="#443736"/><path d="M58.418 52.484l-6.35 12.529 9.198-10.551-2.848-1.978zm-.92-12.829l-12.757 5.006 13.499-2.189-.742-2.817zm20.561 10.491c2.759-1.979 5.044-4.556 6.349-7.764 1.216-3.057 1.543-6.204 1.216-9.501-.059 3.117-.682 6.084-2.165 8.812-1.543 2.818-3.828 4.916-6.617 6.444.386.66.801 1.32 1.217 2.009z" fill="#443736"/><path d="M76.041 51.375c2.552-2.129 4.57-4.676 5.786-7.824 1.216-3.087 1.454-6.354 1.097-9.621-.03 3.117-.623 6.145-2.047 8.962-1.453 2.788-3.56 4.916-6.17 6.594.415.63.86 1.26 1.334 1.889z" fill="#443736"/><path d="M73.994 52.603c2.314-2.218 4.094-4.735 5.222-7.763 1.187-3.177 1.365-6.534.979-9.861 0 3.117-.534 6.115-1.87 8.962-1.334 2.818-3.352 5.066-5.814 6.894.504.57.979 1.169 1.483 1.768z" fill="#443736"/><path d="M71.977 53.832c2.165-2.367 3.827-4.975 4.806-8.063 1.009-3.177 1.127-6.474.712-9.74.03 3.116-.445 6.174-1.72 9.051-1.217 2.818-3.116 5.096-5.43 7.074a43.78 43.78 0 011.632 1.678z" fill="#443736"/><path d="M69.93 55.061c1.987-2.487 3.53-5.185 4.39-8.272.89-3.178.95-6.445.475-9.712.06 3.177-.386 6.295-1.572 9.262-1.128 2.758-2.848 5.096-4.985 7.164.564.51 1.128 1.019 1.692 1.558z" fill="#443736"/><path d="M67.882 56.29c1.84-2.608 3.264-5.395 3.976-8.542.742-3.207.712-6.415.237-9.652.09 3.058-.237 6.115-1.246 9.022-1.038 2.938-2.67 5.425-4.747 7.703.594.48 1.187.99 1.78 1.47z" fill="#443736"/><path d="M65.835 57.52c1.662-2.669 2.967-5.516 3.53-8.633.624-3.237.535-6.475 0-9.742.12 3.117-.118 6.175-1.067 9.172-.92 2.938-2.433 5.485-4.362 7.853.653.45 1.276.9 1.9 1.35z" fill="#443736"/><path d="M63.758 58.748c1.514-2.728 2.641-5.605 3.145-8.692.505-3.297.356-6.594-.237-9.862.178 3.118 0 6.205-.83 9.232-.802 2.968-2.226 5.605-4.006 8.063.653.42 1.305.84 1.928 1.259z" fill="#443736"/><path d="M44.177 81.498c2.997-.81 5.637-2.218 7.922-4.376 2.551-2.428 4.45-5.455 5.815-8.722 2.878-6.804 3.59-14.508 2.937-21.821a63.305 63.305 0 00-4.361-17.954c-2.76-6.864-6.913-13.399-12.491-18.284-5.162-4.526-11.957-7.793-18.929-6.415-.534.12-1.038.27-1.572.42 2.878-.54 5.726-.54 8.544.27 3.323.929 6.38 2.727 9.05 4.885 5.607 4.556 9.76 10.731 12.727 17.295 2.463 5.425 4.124 11.21 4.985 17.085 1.038 7.164.92 14.717-1.187 21.701-1.958 6.445-5.726 12.59-12.045 15.377-.416.18-.92.36-1.395.54zm-15.25-1.318c-3.797-2.548-6.972-5.666-9.702-9.353-2.996-4.046-5.37-8.542-7.21-13.218C8.19 48.048 6.32 37.467 7.21 27.156c.445-5.096 1.75-9.981 4.124-14.507-2.255 3.926-3.65 8.153-4.273 12.679-.712 5.095-.623 10.16-.03 15.256C7.655 45.8 8.96 50.985 10.8 55.931c1.81 4.825 4.095 9.471 7.091 13.668 1.602 2.248 3.353 4.406 5.37 6.294 1.75 1.649 3.62 3.027 5.667 4.286z" fill="#FCE5C0"/><path d="M54.175 30.933l-3.59 2.697 4.45-.54-.86-2.157z" fill="#443736"/><path d="M53.612 28.775l-3.62 2.697 4.45-.54-.83-2.157zm1.186 4.405l-3.916 2.698 4.717-.51-.8-2.187zm.653 2.279l-4.866 2.877 5.608-.66-.742-2.217zm.059 2.578l-6.527 3.147 7.18-.9-.652-2.247zm36.464 8.572l1.602 5.485.712-5.695-2.314.21zm-2.582.689l1.603 5.485.712-5.665-2.315.18zm-2.611.72l1.632 5.485.683-5.665-2.315.18z" fill="#443736"/></g><defs><clipPath id="clip0"><path fill="#fff" d="M0 0h112v91H0z"/></clipPath></defs></svg>