<svg width="22" height="22" fill="none" xmlns="http://www.w3.org/2000/svg"><g clip-path="url(#clip0_503:4860)"><path d="M6.443 4.366L5.158 3.079a1.566 1.566 0 00-1.116-.463c-.422 0-.818.164-1.116.463l-.931.933a1.58 1.58 0 000 2.228l1.287 1.29a.642.642 0 00.912 0c.252-.25 1.996-2.001 2.248-2.253a.645.645 0 00.001-.911z" fill="#105C6E"/><path d="M11 .129a.644.644 0 00-.645.644v2.063a.644.644 0 101.29 0V.773A.644.644 0 0011 .13z" fill="#26879C"/><path d="M12.59 0H9.41a.645.645 0 000 1.29h3.18a.645.645 0 100-1.29z" fill="#DE513C"/><path d="M11 0H9.41a.645.645 0 000 1.29H11V0z" fill="#FC6249"/><path d="M17.989 5.097A9.808 9.808 0 0011 2.196a9.808 9.808 0 00-6.989 2.9 9.847 9.847 0 00-2.894 7.002 9.847 9.847 0 002.894 7.001A9.809 9.809 0 0011 22c2.64 0 5.122-1.03 6.989-2.9a9.847 9.847 0 002.894-7.002 9.847 9.847 0 00-2.894-7.001z" fill="red"/><path d="M11 2.196a9.808 9.808 0 00-6.989 2.9 9.847 9.847 0 00-2.894 7.002 9.847 9.847 0 002.894 7.001A9.809 9.809 0 0011 22V2.196z" fill="#FC6249"/><path d="M11 4.664c-4.091 0-7.42 3.335-7.42 7.434 0 4.1 3.329 7.434 7.42 7.434 4.091 0 7.42-3.335 7.42-7.434 0-4.1-3.329-7.434-7.42-7.434z" fill="#fff"/><path d="M11 4.664c-4.091 0-7.42 3.335-7.42 7.434 0 4.1 3.329 7.434 7.42 7.434V4.664z" fill="#F4F2E6"/><path d="M11 6.274a.644.644 0 00.645-.645v-.937a7.469 7.469 0 00-1.29 0v.937c0 .356.289.645.645.645zm0 11.648a.644.644 0 00-.645.645v.937a7.505 7.505 0 001.29 0v-.937a.644.644 0 00-.645-.645zm7.392-6.468h-.923a.645.645 0 100 1.289h.923a7.51 7.51 0 000-1.29zm-13.216.644a.645.645 0 00-.645-.644h-.923a7.505 7.505 0 000 1.289h.923a.645.645 0 00.645-.645zm7.414-.372h-.91V9.12a.645.645 0 00-1.288 0v3.252c0 .356.288.644.644.644h1.554a.644.644 0 100-1.289z" fill="#105C6E"/></g><defs><clipPath id="clip0_503:4860"><path fill="#fff" d="M0 0h22v22H0z"/></clipPath></defs></svg>