<!-- SVG Sprite -->
<svg width="0" height="0" class="hidden">
  <symbol version="1.1" id="inst" xmlns="http://www.w3.org/2000/svg" xmlns:xlink="http://www.w3.org/1999/xlink" x="0px" y="0px" xml:space="preserve" viewBox="0 0 27 27">
    <path d="M8.3,23h9.4c2.9,0,5.3-2.4,5.3-5.4V8.4c0-3-2.4-5.4-5.3-5.4H8.3C5.4,3,3,5.4,3,8.4v9.2C3,20.5,5.4,23,8.3,23z
	 M18.8,6.3c0.7,0,1.2,0.5,1.2,1.2c0,0.7-0.5,1.2-1.2,1.2s-1.2-0.5-1.2-1.2C17.6,6.9,18.1,6.3,18.8,6.3z M13,8c2.7,0,4.9,2.2,4.9,5
	s-2.2,5-4.9,5s-4.9-2.2-4.9-5S10.3,8,13,8z"></path>
  </symbol>
  <symbol version="1.1" id="whs" xmlns="http://www.w3.org/2000/svg" xmlns:xlink="http://www.w3.org/1999/xlink" x="0px" y="0px" xml:space="preserve" viewBox="0 0 27 27">
    <path d="M12.9,3C6.9,3,2,7.9,2,13.9c0,6,4.9,10.9,10.9,10.9c6,0,10.9-4.9,10.9-10.9C23.7,7.9,18.9,3,12.9,3z M12.4,8.7
	c0.1-0.1,0.2-0.1,0.5-0.1c0.2,0,0.4,0,0.5,0c0.6,0.1,1.2,0.2,1.7,0.5c0.6,0.3,0.9,0.5,1.4,1c0.4,0.4,0.7,0.8,1,1.3
	c0.4,0.7,0.6,1.6,0.6,2.6c0,0.3,0,0.4-0.1,0.5c-0.1,0.2-0.5,0.2-0.6-0.1c0-0.1,0-0.1-0.1-0.4c0-0.4,0-0.7-0.1-1
	C17,12,16.4,11,15.5,10.3c-0.8-0.6-1.6-0.9-2.6-0.9c-0.4,0-0.4,0-0.5-0.1C12.2,9.1,12.2,8.9,12.4,8.7z M14.6,11.2
	c-0.4-0.2-0.9-0.4-1.4-0.4c-0.2,0-0.3-0.1-0.4-0.1c-0.1-0.1-0.1-0.3,0-0.4c0.1-0.2,0.2-0.2,0.7-0.1c1.1,0.2,2,0.7,2.6,1.6
	c0.3,0.5,0.5,1.1,0.6,1.7c0,0.2,0,0.6,0,0.7c0,0.1-0.1,0.2-0.2,0.2c-0.1,0-0.2,0-0.3,0C16,14.1,16,14,16,13.7c0-0.5-0.1-1-0.3-1.4
	C15.4,11.8,15,11.4,14.6,11.2z M15.2,13.7c-0.1,0.1-0.3,0.1-0.4,0c-0.1-0.1-0.1-0.1-0.1-0.3c0-0.3-0.1-0.4-0.1-0.6
	c-0.2-0.4-0.5-0.5-1-0.6c-0.2,0-0.3-0.1-0.4-0.1c-0.1-0.2-0.1-0.4,0.1-0.5c0.1,0,0.1,0,0.3,0c0.1,0,0.2,0,0.3,0
	c0.4,0.1,0.7,0.2,0.9,0.4c0.3,0.3,0.5,0.7,0.6,1.2C15.4,13.4,15.3,13.6,15.2,13.7z M18,18.6c-0.1,0.4-0.7,1-1.1,1.3
	c-0.3,0.3-0.6,0.4-0.9,0.4c-0.3,0-0.4,0-0.7-0.1c-2.6-1.1-4.7-2.7-6.4-4.9c-0.9-1.2-1.5-2.4-2-3.6c-0.3-0.7-0.3-1-0.1-1.4
	C7,10,7.4,9.6,7.7,9.4C8.2,9,8.4,8.9,8.6,8.9c0.1,0,0.3,0,0.5,0C9.1,8.9,9.2,9,9.3,9c0.4,0.2,1.4,1.5,1.7,2.1
	c0.2,0.4,0.2,0.6,0.2,0.8c-0.1,0.2-0.2,0.3-0.6,0.7c-0.2,0.1-0.3,0.3-0.4,0.3c-0.1,0.1-0.1,0.3-0.1,0.4c0,0.3,0.2,0.9,0.5,1.3
	c0.2,0.3,0.6,0.8,0.9,1.1c0.4,0.4,0.8,0.7,1.2,0.9c0.6,0.3,0.9,0.3,1.1,0.2c0.1,0,0.1-0.1,0.1-0.1c0,0,0.2-0.2,0.3-0.4
	c0.3-0.4,0.4-0.4,0.6-0.5c0.3-0.1,0.5-0.1,0.8,0.1c0.2,0.1,0.7,0.4,0.9,0.6c0.4,0.3,1.2,0.9,1.3,1.1C18.1,18,18.2,18.3,18,18.6z"></path>
  </symbol>
  <symbol version="1.1" id="vk" xmlns="http://www.w3.org/2000/svg" xmlns:xlink="http://www.w3.org/1999/xlink" x="0px" y="0px" xml:space="preserve" viewBox="0 0 27 27">
    <path d="M22.5,9h-3.3c-0.1,0-0.3,0-0.4,0.1c-0.1,0.1-0.2,0.2-0.3,0.3c0,0-1.3,2.4-1.7,3.2c-1.1,2.2-1.9,1.5-1.9,0.5V9.6
	c0-0.3-0.1-0.6-0.3-0.8c-0.2-0.2-0.5-0.3-0.8-0.3h-2.5c-0.3,0-0.7,0-1,0.2C10.1,8.8,9.9,9,9.7,9.3c0,0,1.3-0.2,1.3,1.5
	c0,0.4,0,1.6,0,2.6c0,0.1,0,0.3-0.1,0.4c-0.1,0.1-0.2,0.2-0.3,0.3c-0.1,0.1-0.3,0.1-0.4,0c-0.1,0-0.3-0.1-0.4-0.2
	c-1-1.4-1.9-2.9-2.5-4.5C7.1,9.3,7.1,9.2,6.9,9.1C6.8,9,6.7,9,6.6,9c-0.7,0-2.1,0-3,0C3.5,9,3.4,9,3.3,9.1c-0.1,0-0.1,0.1-0.2,0.2
	c0,0.1-0.1,0.1-0.1,0.2c0,0.1,0,0.2,0,0.2C4,12.2,7.9,20,12.4,20h1.9c0.2,0,0.4-0.1,0.5-0.2c0.1-0.1,0.2-0.3,0.2-0.5v-1.1
	c0-0.1,0-0.3,0.1-0.4c0.1-0.1,0.2-0.2,0.3-0.3c0.1-0.1,0.3-0.1,0.4,0c0.1,0,0.3,0.1,0.4,0.2l2.2,2.1c0.2,0.2,0.5,0.3,0.7,0.3h3
	c1.4,0,1.4-1,0.6-1.8c-0.5-0.5-2.5-2.6-2.5-2.6C20.1,15.5,20,15.2,20,15c0-0.2,0.1-0.5,0.2-0.7c0.6-0.8,1.7-2.2,2.1-2.8
	C23,10.7,24,9,22.5,9z"></path>
  </symbol>
</svg>
<!-- SVG References -->
<svg class="icon">
  <use xlink:href="#Frame 2"></use>
</svg><svg class="icon">
  <use xlink:href="#Frame 3"></use>
</svg><svg class="icon">
  <use xlink:href="#Frame 1"></use>
</svg>