<svg width="21" height="12" fill="none" xmlns="http://www.w3.org/2000/svg"><path d="M4.375 8.571V6H7V4.286H4.375V1.714h-1.75v2.572H0V6h2.625v2.571h1.75zM10.5 7.5c-2.047 0-6.125 1.003-6.125 3V12h12.25v-1.5c0-1.997-4.078-3-6.125-3zm-4.077 2.786c.734-.497 2.51-1.072 4.077-1.072 1.566 0 3.342.575 4.078 1.072H6.423zM10.5 6c1.689 0 3.063-1.346 3.063-3S12.188 0 10.5 0 7.437 1.346 7.437 3 8.812 6 10.5 6zm0-4.286c.726 0 1.313.575 1.313 1.286 0 .711-.587 1.286-1.313 1.286A1.298 1.298 0 019.187 3c0-.711.587-1.286 1.313-1.286zM14.875 6c1.689 0 3.063-1.346 3.063-3s-1.374-3-3.063-3c-.21 0-.42.017-.621.06A4.593 4.593 0 0115.313 3c0 1.114-.412 2.126-1.077 2.931.21.043.42.069.639.069zm2.03 1.731c.875.695 1.47 1.603 1.47 2.769V12H21v-1.5c0-1.449-2.135-2.366-4.095-2.769z" fill="#FFC844"/></svg>