<svg width="58" height="58" viewBox="0 0 58 58" fill="none" xmlns="http://www.w3.org/2000/svg">
<path d="M28.9999 0C12.9837 0 0 12.9837 0 28.9999C0 45.0162 12.9837 57.9999 28.9999 57.9999C45.0162 57.9999 57.9999 45.0162 57.9999 28.9999C57.9829 12.9909 45.0091 0.0171135 28.9999 0ZM41.2129 29.924C41.0122 30.3267 40.6858 30.6532 40.283 30.8539V30.8642L23.7116 39.15C22.6882 39.6613 21.4441 39.2463 20.9327 38.2229C20.7873 37.932 20.7124 37.6108 20.7142 37.2857V20.7143C20.7137 19.5703 21.6406 18.6425 22.7847 18.6419C23.1064 18.6418 23.4238 18.7165 23.7116 18.8603L40.283 27.1461C41.3069 27.6563 41.7233 28.9001 41.2129 29.924Z" fill="white"/>
</svg>
