<svg width="30" height="30" fill="none" xmlns="http://www.w3.org/2000/svg"><path d="M15 30c8.284 0 15-6.716 15-15 0-8.284-6.716-15-15-15C6.716 0 0 6.716 0 15c0 8.284 6.716 15 15 15z" fill="#7C519B"/><path d="M14.921 9.09c.093-.085.159-.097.481-.087.17.006.416.025.552.041a5.53 5.53 0 011.838.545c.594.291.975.566 1.48 1.067.47.473.732.832 1.01 1.388.387.776.607 1.699.645 2.714.013.347.003.425-.076.523-.15.192-.482.16-.594-.055-.037-.072-.047-.133-.058-.41a7.12 7.12 0 00-.11-1.03c-.233-1.289-.852-2.318-1.84-3.057-.822-.617-1.673-.919-2.787-.983-.377-.022-.442-.036-.527-.101-.159-.126-.167-.418-.014-.555zm2.363 2.55c-.398-.237-.987-.413-1.524-.457-.195-.016-.302-.055-.375-.14a.36.36 0 01-.03-.448c.103-.16.262-.186.735-.115 1.204.176 2.136.734 2.747 1.641.344.51.557 1.111.63 1.755.026.235.026.665-.002.736a.448.448 0 01-.18.196.446.446 0 01-.334-.012c-.152-.077-.198-.2-.198-.532 0-.513-.132-1.054-.362-1.473a3.013 3.013 0 00-1.107-1.15zm.67 2.64c-.116.106-.333.11-.464.01-.094-.072-.125-.148-.146-.351a1.852 1.852 0 00-.155-.638c-.174-.374-.482-.568-1.001-.632-.244-.029-.318-.057-.397-.15a.369.369 0 01.111-.554c.076-.037.107-.042.274-.032.103.006.256.024.337.042.39.083.69.232.945.47.33.312.51.688.59 1.228.054.353.031.492-.093.606zm2.962 5.2c-.146.378-.717 1.087-1.116 1.39-.36.273-.616.378-.954.395-.277.013-.392-.011-.747-.157-2.784-1.146-5.007-2.857-6.772-5.207-.921-1.228-1.623-2.5-2.104-3.822-.279-.77-.292-1.104-.063-1.498.1-.166.522-.578.83-.807.511-.38.747-.521.935-.561.13-.028.353-.006.496.046.069.023.177.079.238.118.377.25 1.425 1.59 1.768 2.26.196.381.262.664.2.874-.063.226-.169.345-.638.723a3.53 3.53 0 00-.393.35.92.92 0 00-.129.448c.002.33.217.93.498 1.392.219.358.608.817.996 1.17.454.415.854.699 1.306.922.58.29.936.362 1.196.242a.874.874 0 00.156-.087c.02-.018.172-.204.34-.41.32-.404.394-.47.614-.544.28-.096.565-.07.853.076.218.113.694.409 1 .622.406.283 1.27.988 1.387 1.129.207.253.243.578.104.937z" fill="#fff"/></svg>