<svg width="30" height="30" fill="none" xmlns="http://www.w3.org/2000/svg"><path d="M15 30c8.284 0 15-6.716 15-15 0-8.284-6.716-15-15-15C6.716 0 0 6.716 0 15c0 8.284 6.716 15 15 15z" fill="#139BD0"/><path fill-rule="evenodd" clip-rule="evenodd" d="M14.924 17.837c-.498.445-.992.883-1.482 1.324a.809.809 0 01-.61.228c-.167-.008-.26-.076-.312-.221-.375-1.068-.755-2.133-1.128-3.201-.037-.104-.09-.154-.205-.187-.883-.247-1.765-.5-2.645-.757a1.575 1.575 0 01-.39-.164c-.18-.112-.207-.296-.045-.428.15-.121.33-.227.515-.295 1.08-.392 2.166-.772 3.25-1.155l8.252-2.921c.523-.186.925.075.871.594-.035.332-.129.658-.204.986-.597 2.586-1.195 5.173-1.796 7.76-.143.613-.613.774-1.164.401l-2.767-1.874c-.044-.03-.09-.058-.14-.09zm-2.072.785l.031-.008c.006-.024.015-.048.017-.072.06-.586.122-1.172.173-1.76a.419.419 0 01.168-.311c.85-.698 1.696-1.4 2.543-2.1.938-.776 1.876-1.55 2.81-2.33.059-.048.083-.13.122-.196-.088-.009-.182-.041-.262-.022a1.189 1.189 0 00-.31.14c-2.07 1.196-4.137 2.393-6.208 3.586-.117.068-.14.125-.095.243.153.402.292.808.436 1.213l.575 1.617z" fill="#fff"/></svg>