<svg width="30" height="30" fill="none" xmlns="http://www.w3.org/2000/svg"><circle cx="15" cy="15" r="15" fill="#39BB59"/><path d="M19.275 16.764c.225.117.369.18.414.27.054.099.036.549-.189 1.062-.18.504-1.116.99-1.53 1.008-.414.018-.423.324-2.664-.657-2.241-.981-3.591-3.375-3.699-3.528-.108-.153-.864-1.242-.828-2.349.045-1.098.621-1.62.855-1.836.216-.234.459-.261.612-.234h.423c.135 0 .324-.054.495.405l.621 1.683c.054.117.09.252.009.396l-.243.369-.351.378c-.108.108-.234.225-.108.45.108.234.558.981 1.188 1.602.819.792 1.539 1.053 1.755 1.17.216.126.351.108.486-.036l.729-.846c.171-.225.315-.171.522-.099l1.503.792zM15 6a9 9 0 11-4.815 16.605L6 24l1.395-4.185A9 9 0 0115 6zm0 1.8A7.2 7.2 0 007.8 15c0 1.548.486 2.979 1.314 4.149L8.25 21.75l2.601-.864A7.155 7.155 0 0015 22.2a7.2 7.2 0 000-14.4z" fill="#fff"/></svg>