<svg xmlns="http://www.w3.org/2000/svg" viewBox="0 0 646.6 138.8"><defs><style>.cls-1{fill:#201600;}.cls-2{fill:red;}</style></defs><g id="Слой_2" data-name="Слой 2"><g id="Слой_1-2" data-name="Слой 1"><path class="cls-1" d="M48.4.1,33.5,27.8a18.7,18.7,0,0,1-5.8,6.8,12.76,12.76,0,0,1-7.5,2.3,17.39,17.39,0,0,1-6.4-1.3l2.4-7.5a13.45,13.45,0,0,0,3.6.6,4.41,4.41,0,0,0,2.6-.7,5.28,5.28,0,0,0,2.1-2.1L10.6.1H21.3l8.4,17.3L38.4.1Z"/><path class="cls-1" d="M79,8.4V35.9H71.2V25.2H60.6V35.9H52.8V8.4h7.8V18.7H71.2V8.4Z"/><path class="cls-1" d="M85.9,8.4h7.7V24.6L105,8.4h7.3V35.9h-7.7V19.8L93.2,36H85.8V8.4Z"/><path class="cls-1" d="M130.2,25.4h-3.5V35.9H119V8.4h7.7V19.1h3.7L137,8.4h8.2l-8.6,13.3,8.7,14.2h-8.8Z"/><path class="cls-1" d="M167,30.6H155.4l-2.2,5.3h-7.9L157.4,8.4h7.7l12.2,27.5h-8.1Zm-2.2-5.7-3.5-8.8-3.5,8.8Z"/><path class="cls-1" d="M207.4,8.4V35.9h-7.7V14.6h-7.9l-.2,4.5a56.67,56.67,0,0,1-1,9.6,11.64,11.64,0,0,1-2.6,5.7,6.51,6.51,0,0,1-5.2,2,16.33,16.33,0,0,1-3.5-.5l.4-6.4a3.75,3.75,0,0,0,1.1.1,2.85,2.85,0,0,0,2.4-1.2,8.39,8.39,0,0,0,1.2-3.4,38.81,38.81,0,0,0,.5-5.7l.4-11h22.1Z"/><path class="cls-1" d="M236.1,19.5a8.23,8.23,0,0,1,2.8,6.7c0,3.2-1,5.6-3.1,7.3s-4.9,2.5-8.5,2.5h-13V8.4H222v8.8h6.4C231.7,17.2,234.3,18,236.1,19.5Zm-6.2,9.8a3.77,3.77,0,0,0,1.2-3c0-2.4-1.4-3.6-4.3-3.6H222v7.6h4.8A4,4,0,0,0,229.9,29.3Z"/><path class="cls-1" d="M270,8.4V35.9h-7.8V25.2H251.6V35.9h-7.8V8.4h7.8V18.7h10.6V8.4Z"/><path class="cls-1" d="M298.7,19.5a8.23,8.23,0,0,1,2.8,6.7c0,3.2-1,5.6-3.1,7.3s-4.9,2.5-8.5,2.5h-13V8.4h7.7v8.8H291C294.3,17.2,296.9,18,298.7,19.5Zm-6.2,9.8a3.77,3.77,0,0,0,1.2-3c0-2.4-1.4-3.6-4.3-3.6h-4.8v7.6h4.8A4,4,0,0,0,292.5,29.3Zm12-20.9h7.7V35.9h-7.7Z"/><path class="cls-1" d="M319.1,8.4h7.7V24.6L338.2,8.4h7.3V35.9h-7.7V19.8L326.5,35.9h-7.3V8.4Zm7-3.2A5.91,5.91,0,0,1,324.2.4h5.2a2.82,2.82,0,0,0,.7,2,3.1,3.1,0,0,0,2.1.7,3.07,3.07,0,0,0,2.2-.7,2.44,2.44,0,0,0,.7-2h5.2a6,6,0,0,1-2,4.8c-1.3,1.1-3.4,1.6-6.2,1.6S327.4,6.3,326.1,5.2Z"/><path class="cls-1" d="M375.4,0l6.4,9.7L388.2,0H400L388.2,17.2,401,36H389.1l-7.3-10.7-7.2,10.6H362.9l12.8-18.3L363.8,0Z"/><path class="cls-1" d="M411.2,34.7a14.19,14.19,0,0,1-5.5-5.1,14,14,0,0,1-2-7.3,14.39,14.39,0,0,1,2-7.4,12.94,12.94,0,0,1,5.5-5.1,17.8,17.8,0,0,1,15.6,0,14.19,14.19,0,0,1,5.5,5.1,14.13,14.13,0,0,1,2,7.4,13.53,13.53,0,0,1-2,7.3,12.94,12.94,0,0,1-5.5,5.1,16.61,16.61,0,0,1-7.8,1.8A16.9,16.9,0,0,1,411.2,34.7Zm11.6-5.6a7.77,7.77,0,0,0,3.7-6.9,8,8,0,0,0-1-4.1,7.27,7.27,0,0,0-2.7-2.8,7,7,0,0,0-3.8-1,7.21,7.21,0,0,0-3.8,1,7.77,7.77,0,0,0-3.7,6.9,8,8,0,0,0,1,4.1,7.27,7.27,0,0,0,2.7,2.8,7,7,0,0,0,3.8,1A7.66,7.66,0,0,0,422.8,29.1Z"/><path class="cls-1" d="M464.4,8.4V35.9h-7.7V14.6h-7.9l-.2,4.5a56.67,56.67,0,0,1-1,9.6,11.64,11.64,0,0,1-2.6,5.7,6.51,6.51,0,0,1-5.2,2,16.33,16.33,0,0,1-3.5-.5l.4-6.4a3.75,3.75,0,0,0,1.1.1,2.85,2.85,0,0,0,2.4-1.2,10.2,10.2,0,0,0,1.2-3.4c.2-1.5.4-3.3.5-5.7l.4-11h22.1Z"/><path class="cls-1" d="M476.9,34.7a14.19,14.19,0,0,1-5.5-5.1,14,14,0,0,1-2-7.3,14.39,14.39,0,0,1,2-7.4,12.94,12.94,0,0,1,5.5-5.1,17.8,17.8,0,0,1,15.6,0,14.19,14.19,0,0,1,5.5,5.1,14.13,14.13,0,0,1,2,7.4,13.53,13.53,0,0,1-2,7.3,12.94,12.94,0,0,1-5.5,5.1,16.61,16.61,0,0,1-7.8,1.8A17.2,17.2,0,0,1,476.9,34.7Zm11.7-5.6a7.77,7.77,0,0,0,3.7-6.9,8,8,0,0,0-1-4.1,7.27,7.27,0,0,0-2.7-2.8,7,7,0,0,0-3.8-1,7.21,7.21,0,0,0-3.8,1,7.77,7.77,0,0,0-3.7,6.9,8,8,0,0,0,1,4.1,7.27,7.27,0,0,0,2.7,2.8,7,7,0,0,0,3.8,1A8.27,8.27,0,0,0,488.6,29.1Z"/><path class="cls-1" d="M534,29.8V41.5h-7.1V36H509.3v5.5h-7.2V29.8h1c1.6,0,2.8-1.1,3.4-3.3a40.93,40.93,0,0,0,1.2-9.5l.3-8.5h22.2V29.8Zm-20.1-4.7a12.2,12.2,0,0,1-1.7,4.7h10.4V14.6h-7.9l-.1,3A68.8,68.8,0,0,1,513.9,25.1Z"/><path class="cls-1" d="M564.9,8.4V35.9h-7.8V25.2H546.5V35.9h-7.8V8.4h7.8V18.7h10.6V8.4Z"/><path class="cls-1" d="M593.6,19.5a8.23,8.23,0,0,1,2.8,6.7c0,3.2-1,5.6-3.1,7.3s-4.9,2.5-8.5,2.5h-13V8.4h7.7v8.8h6.4C589.2,17.2,591.8,18,593.6,19.5Zm-6.2,9.8a3.77,3.77,0,0,0,1.2-3c0-2.4-1.4-3.6-4.3-3.6h-4.8v7.6h4.8A4,4,0,0,0,587.4,29.3Zm12-20.9h7.7V35.9h-7.7Z"/><path class="cls-1" d="M614,8.4h7.7V24.6L633.1,8.4h7.3V35.9h-7.7V19.8L621.4,35.9h-7.3V8.4Zm7-3.2A5.91,5.91,0,0,1,619.1.4h5.2a2.82,2.82,0,0,0,.7,2,3.1,3.1,0,0,0,2.1.7,3.07,3.07,0,0,0,2.2-.7,2.44,2.44,0,0,0,.7-2h5.2a6,6,0,0,1-2,4.8c-1.3,1.1-3.4,1.6-6.2,1.6S622.3,6.3,621,5.2Z"/><path class="cls-2" d="M60.1,121.7H31.2l-5.1,13.2H0l33.2-76H58.4l33.2,76H65.2ZM53,103.2,45.6,84.1l-7.4,19.1Z"/><path class="cls-2" d="M122.3,131.6a38,38,0,0,1-15.1-14.1,38.49,38.49,0,0,1-5.5-20.6,38.06,38.06,0,0,1,20.6-34.7,45.67,45.67,0,0,1,21.7-5,47.93,47.93,0,0,1,19.8,3.9,36.22,36.22,0,0,1,14.3,11.3L161.9,86.8c-4.7-5.9-10.2-8.9-16.6-8.9-5.4,0-9.7,1.7-12.9,5.2s-4.9,8.1-4.9,13.8,1.6,10.4,4.9,13.8a17.25,17.25,0,0,0,12.9,5.2c6.4,0,11.9-3,16.6-8.9l16.2,14.4a36.94,36.94,0,0,1-14.3,11.3,47.93,47.93,0,0,1-19.8,3.9A44.52,44.52,0,0,1,122.3,131.6Z"/><path class="cls-2" d="M279.6,120.3c-6.7,5.8-16.4,9.2-29.1,10v8.5H227v-8.5c-12.8-1.1-22.5-4.5-29.2-10.2s-9.9-13.5-9.9-23.5,3.3-17.7,9.9-23.4S214.1,64.1,227,63V55.1h23.5V63c12.8.9,22.5,4.3,29.2,10s9.9,13.6,9.9,23.5C289.6,106.6,286.3,114.5,279.6,120.3Zm-63.3-14.5q3.6,3.3,10.8,4.5V82.9c-5.1.7-8.8,2.2-11,4.3s-3.3,5.3-3.3,9.4S213.9,103.7,216.3,105.8Zm45.2.2c2.2-2.2,3.4-5.4,3.4-9.5s-1.1-7.2-3.4-9.3-5.9-3.6-10.9-4.3v27.6C255.6,109.7,259.2,108.2,261.5,106Z"/><path class="cls-2" d="M359.4,121.7H330.5l-5.1,13.2H299.3l33.2-76h25.2l33.2,76H364.4Zm-7-18.5L345,84.1l-7.4,19.1Z"/><path class="cls-2" d="M481.5,58.9v76H456.3V78.8H438.9l-.2,8.8a160.2,160.2,0,0,1-2.6,26.7c-1.4,6.9-4,12.4-7.6,16.2s-8.8,5.8-15.5,5.8a48.63,48.63,0,0,1-10.9-1.4l1.3-20.5a13.33,13.33,0,0,0,2.8.3,6.76,6.76,0,0,0,6.1-3.3,21.71,21.71,0,0,0,2.9-8.7,142.37,142.37,0,0,0,1.1-14.2l1-29.6Z"/><path class="cls-2" d="M566,88.6c5.1,4.2,7.7,10.5,7.7,18.7,0,8.9-2.9,15.7-8.8,20.5s-13.9,7.1-24.1,7.1H503.1v-76h25.2V82.3H544C553.5,82.3,560.8,84.4,566,88.6Zm-20.6,26c1.7-1.6,2.5-3.9,2.5-6.8,0-5.1-3-7.6-8.9-7.6H528.2V117H539A8.76,8.76,0,0,0,545.4,114.6Z"/><path class="cls-2" d="M646.6,78.8H624.3v56.1H599.2V78.8H576.9V58.9h69.7Z"/></g></g></svg>