<svg xmlns="http://www.w3.org/2000/svg" viewBox="0 0 646.6 138.8"><g data-name="Слой 2"><g data-name="Слой 1"><path d="M48.4.1L33.5 27.8a18.7 18.7 0 01-5.8 6.8 12.76 12.76 0 01-7.5 2.3 17.39 17.39 0 01-6.4-1.3l2.4-7.5a13.45 13.45 0 003.6.6 4.41 4.41 0 002.6-.7 5.28 5.28 0 002.1-2.1L10.6.1h10.7l8.4 17.3L38.4.1zM79 8.4v27.5h-7.8V25.2H60.6v10.7h-7.8V8.4h7.8v10.3h10.6V8.4zm6.9 0h7.7v16.2L105 8.4h7.3v27.5h-7.7V19.8L93.2 36h-7.4V8.4zm44.3 17h-3.5v10.5H119V8.4h7.7v10.7h3.7L137 8.4h8.2l-8.6 13.3 8.7 14.2h-8.8zm36.8 5.2h-11.6l-2.2 5.3h-7.9l12.1-27.5h7.7l12.2 27.5h-8.1zm-2.2-5.7l-3.5-8.8-3.5 8.8zm42.6-16.5v27.5h-7.7V14.6h-7.9l-.2 4.5a56.67 56.67 0 01-1 9.6 11.64 11.64 0 01-2.6 5.7 6.51 6.51 0 01-5.2 2 16.33 16.33 0 01-3.5-.5l.4-6.4a3.75 3.75 0 001.1.1 2.85 2.85 0 002.4-1.2 8.39 8.39 0 001.2-3.4 38.81 38.81 0 00.5-5.7l.4-11h22.1zm28.7 11.1a8.23 8.23 0 012.8 6.7c0 3.2-1 5.6-3.1 7.3s-4.9 2.5-8.5 2.5h-13V8.4h7.7v8.8h6.4c3.3 0 5.9.8 7.7 2.3zm-6.2 9.8a3.77 3.77 0 001.2-3c0-2.4-1.4-3.6-4.3-3.6H222v7.6h4.8a4 4 0 003.1-1zM270 8.4v27.5h-7.8V25.2h-10.6v10.7h-7.8V8.4h7.8v10.3h10.6V8.4zm28.7 11.1a8.23 8.23 0 012.8 6.7c0 3.2-1 5.6-3.1 7.3s-4.9 2.5-8.5 2.5h-13V8.4h7.7v8.8h6.4c3.3 0 5.9.8 7.7 2.3zm-6.2 9.8a3.77 3.77 0 001.2-3c0-2.4-1.4-3.6-4.3-3.6h-4.8v7.6h4.8a4 4 0 003.1-1zm12-20.9h7.7v27.5h-7.7zm14.6 0h7.7v16.2l11.4-16.2h7.3v27.5h-7.7V19.8l-11.3 16.1h-7.3V8.4zm7-3.2a5.91 5.91 0 01-1.9-4.8h5.2a2.82 2.82 0 00.7 2 3.1 3.1 0 002.1.7 3.07 3.07 0 002.2-.7 2.44 2.44 0 00.7-2h5.2a6 6 0 01-2 4.8c-1.3 1.1-3.4 1.6-6.2 1.6s-4.7-.5-6-1.6zM375.4 0l6.4 9.7 6.4-9.7H400l-11.8 17.2L401 36h-11.9l-7.3-10.7-7.2 10.6h-11.7l12.8-18.3L363.8 0zm35.8 34.7a14.19 14.19 0 01-5.5-5.1 14 14 0 01-2-7.3 14.39 14.39 0 012-7.4 12.94 12.94 0 015.5-5.1 17.8 17.8 0 0115.6 0 14.19 14.19 0 015.5 5.1 14.13 14.13 0 012 7.4 13.53 13.53 0 01-2 7.3 12.94 12.94 0 01-5.5 5.1 16.61 16.61 0 01-7.8 1.8 16.9 16.9 0 01-7.8-1.8zm11.6-5.6a7.77 7.77 0 003.7-6.9 8 8 0 00-1-4.1 7.27 7.27 0 00-2.7-2.8 7 7 0 00-3.8-1 7.21 7.21 0 00-3.8 1 7.77 7.77 0 00-3.7 6.9 8 8 0 001 4.1 7.27 7.27 0 002.7 2.8 7 7 0 003.8 1 7.66 7.66 0 003.8-1zm41.6-20.7v27.5h-7.7V14.6h-7.9l-.2 4.5a56.67 56.67 0 01-1 9.6 11.64 11.64 0 01-2.6 5.7 6.51 6.51 0 01-5.2 2 16.33 16.33 0 01-3.5-.5l.4-6.4a3.75 3.75 0 001.1.1 2.85 2.85 0 002.4-1.2 10.2 10.2 0 001.2-3.4c.2-1.5.4-3.3.5-5.7l.4-11h22.1zm12.5 26.3a14.19 14.19 0 01-5.5-5.1 14 14 0 01-2-7.3 14.39 14.39 0 012-7.4 12.94 12.94 0 015.5-5.1 17.8 17.8 0 0115.6 0 14.19 14.19 0 015.5 5.1 14.13 14.13 0 012 7.4 13.53 13.53 0 01-2 7.3 12.94 12.94 0 01-5.5 5.1 16.61 16.61 0 01-7.8 1.8 17.2 17.2 0 01-7.8-1.8zm11.7-5.6a7.77 7.77 0 003.7-6.9 8 8 0 00-1-4.1 7.27 7.27 0 00-2.7-2.8 7 7 0 00-3.8-1 7.21 7.21 0 00-3.8 1 7.77 7.77 0 00-3.7 6.9 8 8 0 001 4.1 7.27 7.27 0 002.7 2.8 7 7 0 003.8 1 8.27 8.27 0 003.8-1zm45.4.7v11.7h-7.1V36h-17.6v5.5h-7.2V29.8h1c1.6 0 2.8-1.1 3.4-3.3a40.93 40.93 0 001.2-9.5l.3-8.5h22.2v21.3zm-20.1-4.7a12.2 12.2 0 01-1.7 4.7h10.4V14.6h-7.9l-.1 3a68.8 68.8 0 01-.7 7.5zm51-16.7v27.5h-7.8V25.2h-10.6v10.7h-7.8V8.4h7.8v10.3h10.6V8.4zm28.7 11.1a8.23 8.23 0 012.8 6.7c0 3.2-1 5.6-3.1 7.3s-4.9 2.5-8.5 2.5h-13V8.4h7.7v8.8h6.4c3.3 0 5.9.8 7.7 2.3zm-6.2 9.8a3.77 3.77 0 001.2-3c0-2.4-1.4-3.6-4.3-3.6h-4.8v7.6h4.8a4 4 0 003.1-1zm12-20.9h7.7v27.5h-7.7zm14.6 0h7.7v16.2l11.4-16.2h7.3v27.5h-7.7V19.8l-11.3 16.1h-7.3V8.4zm7-3.2a5.91 5.91 0 01-1.9-4.8h5.2a2.82 2.82 0 00.7 2 3.1 3.1 0 002.1.7 3.07 3.07 0 002.2-.7 2.44 2.44 0 00.7-2h5.2a6 6 0 01-2 4.8c-1.3 1.1-3.4 1.6-6.2 1.6s-4.7-.5-6-1.6z" fill="#201600"/><path d="M60.1 121.7H31.2l-5.1 13.2H0l33.2-76h25.2l33.2 76H65.2zM53 103.2l-7.4-19.1-7.4 19.1zm69.3 28.4a38 38 0 01-15.1-14.1 38.49 38.49 0 01-5.5-20.6 38.06 38.06 0 0120.6-34.7 45.67 45.67 0 0121.7-5 47.93 47.93 0 0119.8 3.9 36.22 36.22 0 0114.3 11.3l-16.2 14.4c-4.7-5.9-10.2-8.9-16.6-8.9-5.4 0-9.7 1.7-12.9 5.2s-4.9 8.1-4.9 13.8 1.6 10.4 4.9 13.8a17.25 17.25 0 0012.9 5.2c6.4 0 11.9-3 16.6-8.9l16.2 14.4a36.94 36.94 0 01-14.3 11.3 47.93 47.93 0 01-19.8 3.9 44.52 44.52 0 01-21.7-5zm157.3-11.3c-6.7 5.8-16.4 9.2-29.1 10v8.5H227v-8.5c-12.8-1.1-22.5-4.5-29.2-10.2s-9.9-13.5-9.9-23.5 3.3-17.7 9.9-23.4S214.1 64.1 227 63v-7.9h23.5V63c12.8.9 22.5 4.3 29.2 10s9.9 13.6 9.9 23.5c0 10.1-3.3 18-10 23.8zm-63.3-14.5q3.6 3.3 10.8 4.5V82.9c-5.1.7-8.8 2.2-11 4.3s-3.3 5.3-3.3 9.4 1.1 7.1 3.5 9.2zm45.2.2c2.2-2.2 3.4-5.4 3.4-9.5s-1.1-7.2-3.4-9.3-5.9-3.6-10.9-4.3v27.6c5-.8 8.6-2.3 10.9-4.5zm97.9 15.7h-28.9l-5.1 13.2h-26.1l33.2-76h25.2l33.2 76h-26.5zm-7-18.5L345 84.1l-7.4 19.1zm129.1-44.3v76h-25.2V78.8h-17.4l-.2 8.8a160.2 160.2 0 01-2.6 26.7c-1.4 6.9-4 12.4-7.6 16.2s-8.8 5.8-15.5 5.8a48.63 48.63 0 01-10.9-1.4l1.3-20.5a13.33 13.33 0 002.8.3 6.76 6.76 0 006.1-3.3 21.71 21.71 0 002.9-8.7 142.37 142.37 0 001.1-14.2l1-29.6zM566 88.6c5.1 4.2 7.7 10.5 7.7 18.7 0 8.9-2.9 15.7-8.8 20.5s-13.9 7.1-24.1 7.1h-37.7v-76h25.2v23.4H544c9.5 0 16.8 2.1 22 6.3zm-20.6 26c1.7-1.6 2.5-3.9 2.5-6.8 0-5.1-3-7.6-8.9-7.6h-10.8V117H539a8.76 8.76 0 006.4-2.4zm101.2-35.8h-22.3v56.1h-25.1V78.8h-22.3V58.9h69.7z" fill="red"/></g></g></svg>