<svg xmlns="http://www.w3.org/2000/svg" viewBox="0 0 114.47 86.73"><defs><style>.cls-1{stroke:#000;}.cls-1,.cls-2{stroke-miterlimit:2.41;stroke-width:0.04px;}.cls-1,.cls-2,.cls-3{fill-rule:evenodd;}.cls-2{fill:red;stroke:#ff0c00;}.cls-3{fill:#fff;}</style></defs><g id="Слой_2" data-name="Слой 2"><g id="Слой_1-2" data-name="Слой 1"><path class="cls-1" d="M26.44,67.21c2.4-2.9,5.6-6.7,8-9.6.5,9.6.6,16.5,8,23.5a48.77,48.77,0,0,0,6.9,5.3c-6.8,0-13.7.1-20.5.1-.8-6.4-1.6-12.9-2.4-19.3Z"/><path class="cls-2" d="M36.14,61.71c11-15.9,22-31.6,33.1-47.5-1.7-3.4-3.5-6.8-5.2-10.2-.1-.1-.2-.3-.3-.4a2,2,0,0,1-.4-.8,2.09,2.09,0,0,1-.4-.6.1.1,0,0,0-.1-.1,1,1,0,0,1-.5-.8.86.86,0,0,1-.3-.6c-.1-.1-.2-.3-.3-.4-20.4,28.8-41.3,57.4-61.7,86.3,12.9.1,26.6.1,39.5.1-3.8-7-9.4-16.4-3.4-25Z"/><path class="cls-1" d="M92.94,52.91c-3.2-5-6.4-10-9.4-15q-5.4,7.5-11.1,15Zm21.5,33.8c-6.7-10.9-13.9-21.8-20.9-32.8v.9H70.94c-2.7,3.6-5.4,7.3-8,11q-1.35,1.95-2.7,3.6h40.5v1.9h-42c-3.3,4.3-5.4,8.1-3.8,15.2,19.3.1,40.2.1,59.5.2Z"/><polygon class="cls-3" points="68.24 54.81 93.54 54.81 93.54 52.91 68.24 52.91 68.24 54.81"/><path class="cls-1" d="M64,3.91c-.1-.1-.2-.3-.3-.4a2.09,2.09,0,0,1-.4-.6l-.2-.3c-.1-.1-.1-.2-.2-.3l-.2-.3a1.37,1.37,0,0,1-.5-.8.86.86,0,0,1-.3-.6c-.1-.2-.2-.3-.3-.5V0a1.38,1.38,0,0,1-.3.4l45,85.6h7.8L64,3.91Z"/></g></g></svg>