<svg xmlns="http://www.w3.org/2000/svg" viewBox="0 0 111.5 21.8"><defs><style>.cls-1,.cls-2{fill-rule:evenodd;}.cls-2{fill:#f20000;}</style></defs><g id="Слой_2" data-name="Слой 2"><g id="Режим_изоляции" data-name="Режим изоляции"><path class="cls-1" d="M34.4,21.4H27.7V4.7h-2V16.5a5.38,5.38,0,0,1-.7,3.3,3.3,3.3,0,0,1-2.3,1.3,27.19,27.19,0,0,1-4.8.3H16.8V17.8a5.94,5.94,0,0,0,1.7-.2c.3-.2.5-.7.5-1.7V.5H34.4V21.4ZM8.8,5.9A6.57,6.57,0,0,0,8.6,4c-.1-.3-.4-.4-.8-.4a1,1,0,0,0-.8.3,3.56,3.56,0,0,0-.3,1.9v9.7a7.64,7.64,0,0,0,.2,2.2c.1.3.4.4.9.4a.94.94,0,0,0,.9-.5,9.21,9.21,0,0,0,.2-2.3V5.9Zm6.7,6.8a38.75,38.75,0,0,1-.2,4.4,4.42,4.42,0,0,1-1.1,2.4,6.21,6.21,0,0,1-2.6,1.7,11.22,11.22,0,0,1-3.8.6,13.8,13.8,0,0,1-3.7-.5,7.18,7.18,0,0,1-2.7-1.6A4,4,0,0,1,.2,17.3,42.44,42.44,0,0,1,0,12.8V9.2A42.44,42.44,0,0,1,.2,4.7,4.42,4.42,0,0,1,1.3,2.3,6.21,6.21,0,0,1,3.9.6,11.22,11.22,0,0,1,7.7,0a13.8,13.8,0,0,1,3.7.5,7.18,7.18,0,0,1,2.7,1.6,4,4,0,0,1,1.2,2.4A42.44,42.44,0,0,1,15.5,9v3.7Z"/><path class="cls-2" d="M111.5,9.6h-6.7V6a6.91,6.91,0,0,0-.2-2c-.1-.3-.5-.4-.9-.4a1.17,1.17,0,0,0-1.1.5,7.83,7.83,0,0,0-.2,2.1v9.7a7.47,7.47,0,0,0,.2,2,1.25,1.25,0,0,0,2,0,5.34,5.34,0,0,0,.2-2.2V13h6.7v.8a12.31,12.31,0,0,1-.6,4.6,5.3,5.3,0,0,1-2.5,2.4,10,10,0,0,1-4.8,1,11.59,11.59,0,0,1-4.9-.9,4.54,4.54,0,0,1-2.5-2.4,13,13,0,0,1-.6-4.6V7.8a26.83,26.83,0,0,1,.2-3.4,4.19,4.19,0,0,1,1.1-2.2A6.07,6.07,0,0,1,99.5.6a11.42,11.42,0,0,1,3.9-.6,11.59,11.59,0,0,1,4.9.9,4.74,4.74,0,0,1,2.5,2.3,11.56,11.56,0,0,1,.6,4.3V9.6ZM78.3.5H85V9.3c1.3,0,1.9-.6,2-1.7l.1-4.1a3.5,3.5,0,0,1,1.1-3h6.2c-.6.5-.9,1.6-.9,3.1V7.2c0,2.2-1.5,3.4-4.5,3.7,3,.3,4.6,1.6,4.5,3.8V18a5.13,5.13,0,0,0,.9,3.4H88.2a3.5,3.5,0,0,1-1.1-3V14.3a1.43,1.43,0,0,0-.6-1.2,2.46,2.46,0,0,0-1.5-.5v8.8H78.3V.5ZM75.6,21.4H70V11.9l-3.5,9.5H60.6V.5h5.6V9.9L70,.5h5.6V21.4ZM57.9.5V21.4H52V7.3L49.7,21.4H45.5L43,7.6V21.4H37.1V.5h8.7c.3,1.3.5,2.7.8,4.4l.9,5.3L49,.5Z"/></g></g></svg>