<svg xmlns="http://www.w3.org/2000/svg" viewBox="0 0 111.5 21.8"><g data-name="Слой 2"><g data-name="Режим изоляции" fill-rule="evenodd"><path d="M34.4 21.4h-6.7V4.7h-2v11.8a5.38 5.38 0 01-.7 3.3 3.3 3.3 0 01-2.3 1.3 27.19 27.19 0 01-4.8.3h-1.1v-3.6a5.94 5.94 0 001.7-.2c.3-.2.5-.7.5-1.7V.5h15.4v20.9zM8.8 5.9A6.57 6.57 0 008.6 4c-.1-.3-.4-.4-.8-.4a1 1 0 00-.8.3 3.56 3.56 0 00-.3 1.9v9.7a7.64 7.64 0 00.2 2.2c.1.3.4.4.9.4a.94.94 0 00.9-.5 9.21 9.21 0 00.2-2.3V5.9zm6.7 6.8a38.75 38.75 0 01-.2 4.4 4.42 4.42 0 01-1.1 2.4 6.21 6.21 0 01-2.6 1.7 11.22 11.22 0 01-3.8.6 13.8 13.8 0 01-3.7-.5 7.18 7.18 0 01-2.7-1.6 4 4 0 01-1.2-2.4 42.44 42.44 0 01-.2-4.5V9.2a42.44 42.44 0 01.2-4.5 4.42 4.42 0 011.1-2.4A6.21 6.21 0 013.9.6 11.22 11.22 0 017.7 0a13.8 13.8 0 013.7.5 7.18 7.18 0 012.7 1.6 4 4 0 011.2 2.4 42.44 42.44 0 01.2 4.5v3.7z"/><path d="M111.5 9.6h-6.7V6a6.91 6.91 0 00-.2-2c-.1-.3-.5-.4-.9-.4a1.17 1.17 0 00-1.1.5 7.83 7.83 0 00-.2 2.1v9.7a7.47 7.47 0 00.2 2 1.25 1.25 0 002 0 5.34 5.34 0 00.2-2.2V13h6.7v.8a12.31 12.31 0 01-.6 4.6 5.3 5.3 0 01-2.5 2.4 10 10 0 01-4.8 1 11.59 11.59 0 01-4.9-.9 4.54 4.54 0 01-2.5-2.4 13 13 0 01-.6-4.6V7.8a26.83 26.83 0 01.2-3.4 4.19 4.19 0 011.1-2.2A6.07 6.07 0 0199.5.6a11.42 11.42 0 013.9-.6 11.59 11.59 0 014.9.9 4.74 4.74 0 012.5 2.3 11.56 11.56 0 01.6 4.3v2.1zM78.3.5H85v8.8c1.3 0 1.9-.6 2-1.7l.1-4.1a3.5 3.5 0 011.1-3h6.2c-.6.5-.9 1.6-.9 3.1v3.6c0 2.2-1.5 3.4-4.5 3.7 3 .3 4.6 1.6 4.5 3.8V18a5.13 5.13 0 00.9 3.4h-6.2a3.5 3.5 0 01-1.1-3v-4.1a1.43 1.43 0 00-.6-1.2 2.46 2.46 0 00-1.5-.5v8.8h-6.7V.5zm-2.7 20.9H70v-9.5l-3.5 9.5h-5.9V.5h5.6v9.4L70 .5h5.6v20.9zM57.9.5v20.9H52V7.3l-2.3 14.1h-4.2L43 7.6v13.8h-5.9V.5h8.7c.3 1.3.5 2.7.8 4.4l.9 5.3L49 .5z" fill="#f20000"/></g></g></svg>