<?xml version="1.0" encoding="utf-8"?>
<!-- Generator: Adobe Illustrator 23.0.3, SVG Export Plug-In . SVG Version: 6.00 Build 0)  -->
<svg version="1.1" id="Слой_1" xmlns="http://www.w3.org/2000/svg" xmlns:xlink="http://www.w3.org/1999/xlink" x="0px" y="0px"
	 viewBox="0 0 858.9 612.3" style="enable-background:new 0 0 858.9 612.3;" xml:space="preserve">
<style type="text/css">
	.st0{fill-rule:evenodd;clip-rule:evenodd;stroke:#000000;stroke-width:3.699988e-02;stroke-miterlimit:2.4142;}
	.st1{fill-rule:evenodd;clip-rule:evenodd;fill:#FF0000;stroke:#FF0C00;stroke-width:3.699988e-02;stroke-miterlimit:2.4142;}
	.st2{fill-rule:evenodd;clip-rule:evenodd;fill:#FFFFFF;}
</style>
<g>
	<path class="st0" d="M639,279.1c2.4-2.9,5.6-6.7,8-9.6c0.5,9.6,0.6,16.5,8,23.5c2.2,2,4.5,3.8,6.9,5.3c-6.8,0-13.7,0.1-20.5,0.1
		C640.6,292,639.8,285.5,639,279.1L639,279.1z"/>
	<path class="st1" d="M648.7,273.6c11-15.9,22-31.6,33.1-47.5c-1.7-3.4-3.5-6.8-5.2-10.2c-0.1-0.1-0.2-0.3-0.3-0.4
		c-0.2-0.2-0.3-0.5-0.4-0.8c-0.2-0.2-0.3-0.4-0.4-0.6c0,0,0-0.1-0.1-0.1c-0.3-0.2-0.5-0.5-0.5-0.8c-0.2-0.2-0.3-0.4-0.3-0.6
		c-0.1-0.1-0.2-0.3-0.3-0.4c-20.4,28.8-41.3,57.4-61.7,86.3c12.9,0.1,26.6,0.1,39.5,0.1C648.3,291.6,642.7,282.2,648.7,273.6
		L648.7,273.6z"/>
	<path class="st0" d="M705.5,264.8c-3.2-5-6.4-10-9.4-15c-3.6,5-7.3,10-11.1,15H705.5L705.5,264.8z M727,298.6
		c-6.7-10.9-13.9-21.8-20.9-32.8v0.9h-22.6c-2.7,3.6-5.4,7.3-8,11c-0.9,1.3-1.8,2.5-2.7,3.6l40.5,0v1.9h-42
		c-3.3,4.3-5.4,8.1-3.8,15.2C686.8,298.5,707.7,298.5,727,298.6L727,298.6L727,298.6z"/>
	<polygon class="st2" points="680.8,266.7 706.1,266.7 706.1,264.8 680.8,264.8 680.8,266.7 	"/>
	<path class="st0" d="M676.6,215.8c-0.1-0.1-0.2-0.3-0.3-0.4c-0.2-0.2-0.3-0.4-0.4-0.6l-0.2-0.3c-0.1-0.1-0.1-0.2-0.2-0.3l-0.2-0.3
		c-0.3-0.2-0.4-0.5-0.5-0.8c-0.2-0.2-0.3-0.4-0.3-0.6c-0.1-0.2-0.2-0.3-0.3-0.5l0-0.1c-0.1,0.2-0.2,0.3-0.3,0.4l45,85.6h7.8
		L676.6,215.8L676.6,215.8z"/>
</g>
</svg>
