<svg width="356" height="269" viewBox="0 0 356 269" fill="none" xmlns="http://www.w3.org/2000/svg">
<g opacity="0.2">
<path d="M29.7299 221.942L27.0459 223.635L25.3529 220.951L11.9332 229.416L13.6262 232.1L10.9422 233.793C9.46605 234.724 9.02011 236.694 9.95124 238.17L10.7977 239.512C12.9563 242.934 17.2935 244.1 20.8706 242.425C22.9858 243.905 25.754 244.279 28.2207 243.342L30.8448 247.502L25.4769 250.888L27.1699 253.572L40.5896 245.107L38.8967 242.423L33.5288 245.809L30.9047 241.649C32.8128 239.826 33.6679 237.167 33.2436 234.621C36.2959 232.114 37.1118 227.697 34.9533 224.275L34.1068 222.933C33.1756 221.457 31.206 221.011 29.7299 221.942ZM13.4817 237.819L12.6352 236.477L15.3191 234.784L18.5527 239.91C16.6405 240.329 14.5821 239.564 13.4817 237.819ZM27.9544 239.945C25.7401 241.342 22.7857 240.673 21.389 238.459L16.3101 230.407L24.362 225.328L29.4409 233.38C30.8376 235.594 30.1686 238.549 27.9544 239.945ZM32.2693 225.968C33.3697 227.713 33.1736 229.9 31.9724 231.446L28.7389 226.319L31.4228 224.626L32.2693 225.968Z" fill="black"/>
</g>
<g opacity="0.4">
<path d="M32.2864 17.4814C32.4588 17.4814 32.6213 17.4 32.7243 17.2618C32.8276 17.1235 32.8596 16.945 32.8105 16.7795C32.4188 15.4417 31.7417 14.2048 30.8256 13.1544C30.0874 12.369 28.9888 12.0328 27.9376 12.2706C27.7924 12.3261 27.6779 12.4408 27.6224 12.586C27.5922 12.6677 27.5698 12.752 27.5557 12.8379C27.5389 12.9399 27.5298 13.0429 27.5282 13.1462V13.155C27.5349 14.0266 27.8861 14.8602 28.5055 15.4738C29.5558 16.3891 30.792 17.0659 32.129 17.4574C32.1802 17.4726 32.233 17.4809 32.2864 17.4814ZM29.2804 14.6999C29.0635 14.4826 28.8932 14.223 28.7798 13.9374V13.9321C28.7558 13.8715 28.735 13.8107 28.7171 13.7522C28.7077 13.7205 28.7011 13.6906 28.6931 13.6593C28.6848 13.6281 28.6776 13.6046 28.6723 13.5774C28.6666 13.5499 28.6656 13.539 28.6618 13.5195C28.6458 13.4378 28.6346 13.3554 28.6285 13.2724C29.1676 13.3132 29.6738 13.5459 30.0559 13.9283C30.5993 14.5427 31.0372 15.2427 31.3518 16.0003C30.5934 15.6846 29.8924 15.2451 29.2778 14.6999H29.2804Z" fill="black"/>
<path d="M49.0597 17.8584H40.6233C40.9881 17.6092 41.3308 17.3287 41.647 17.0205C43.6021 15.0595 43.6661 12.0864 42.4172 10.8375C41.1683 9.58854 38.1962 9.65152 36.2331 11.6087C35.4304 12.4824 34.7782 13.4832 34.3031 14.5704C33.8281 13.4824 33.1754 12.4811 32.3718 11.6071C30.4109 9.65205 27.438 9.588 26.1888 10.8369C24.9394 12.0859 25.0039 15.059 26.9593 17.0205C27.2758 17.3287 27.6184 17.6092 27.983 17.8584H19.5465C19.2447 17.8584 19 18.1031 19 18.405V23.8704C19 24.1722 19.2447 24.4169 19.5465 24.4169H20.6396V40.2666C20.6415 41.7749 21.864 42.9974 23.3723 42.9993H45.2339C46.7425 42.9974 47.965 41.7749 47.9667 40.2666V24.4169H49.0597C49.3616 24.4169 49.6063 24.1722 49.6063 23.8704V18.405C49.6063 18.1031 49.3616 17.8584 49.0597 17.8584ZM37.0065 12.381C38.5773 10.8151 40.8683 10.8332 41.6449 11.6098C42.4215 12.3864 42.4401 14.6763 40.8742 16.2476C40.1571 16.9105 39.3384 17.4541 38.4492 17.8584H35.1833C35.1833 17.847 35.1833 17.8344 35.1833 17.8229C35.1833 17.6983 35.1739 17.5721 35.1619 17.4451C35.1574 17.4032 35.1526 17.3615 35.1478 17.3188C35.1352 17.214 35.1197 17.1093 35.1011 17.0053C35.0952 16.9687 35.0891 16.9319 35.0826 16.8958C35.0565 16.7597 35.0279 16.6258 34.9951 16.4964C34.9908 16.4777 34.9858 16.4614 34.9815 16.4416C34.9524 16.3285 34.9225 16.2231 34.8918 16.1139C34.8876 16.099 34.8836 16.0827 34.8793 16.0678C35.3271 14.7057 36.0514 13.4503 37.0065 12.381ZM36.4893 23.3238H32.117V18.9515H36.4893V23.3238ZM27.7326 16.2482C26.1664 14.6769 26.1848 12.3869 26.9617 11.6098C27.7382 10.8327 30.0282 10.8145 31.5985 12.3794C32.5928 13.4933 33.3382 14.8068 33.7846 16.2319C33.8463 16.4238 33.8938 16.6079 33.9386 16.7867C33.9511 16.8379 33.9615 16.8876 33.9725 16.938C34.0021 17.0714 34.0259 17.1987 34.0437 17.3207C34.0496 17.3621 34.0574 17.4048 34.0622 17.4451C34.0795 17.5814 34.0888 17.7189 34.0902 17.8563H30.1571C29.2685 17.4528 28.45 16.91 27.7326 16.2482ZM20.0931 18.9515H31.0239V23.3238H20.0931V18.9515ZM21.7327 40.2666V24.4169H32.117V41.9062H23.3723C22.4668 41.9062 21.7327 41.1721 21.7327 40.2666ZM33.2101 41.9062V24.4169H35.3962V41.9062H33.2101ZM46.8736 40.2666C46.8736 41.1721 46.1397 41.9062 45.2339 41.9062H36.4893V24.4169H46.8736V40.2666ZM48.5132 23.3238H37.5824V18.9515H48.5132V23.3238Z" fill="black"/>
<path d="M36.3182 17.483C36.3708 17.483 36.4231 17.4755 36.4735 17.4606C37.8121 17.0694 39.0496 16.3913 40.0997 15.4733C40.8773 14.7295 41.2125 13.6353 40.9851 12.5836C40.9302 12.439 40.8157 12.3248 40.671 12.2695C39.6193 12.0422 38.5252 12.3773 37.7814 13.155C36.8637 14.2051 36.1856 15.4426 35.7941 16.7812C35.7452 16.9466 35.777 17.1254 35.8803 17.2634C35.9835 17.4016 36.1458 17.483 36.3182 17.483ZM38.5543 13.9278C38.9369 13.5457 39.4437 13.3132 39.9828 13.2719C39.942 13.8112 39.7092 14.3183 39.3271 14.7009C38.7122 15.248 38.0101 15.6883 37.2501 16.004C37.566 15.244 38.0069 14.5424 38.5543 13.9278Z" fill="black"/>
</g>
<g opacity="0.5">
<path d="M329.687 242.607C327.462 241.495 323.29 241.482 323.114 241.482C322.585 241.482 322.156 241.911 322.156 242.439C322.156 242.968 322.585 243.397 323.114 243.397C324.19 243.397 327.316 243.563 328.83 244.32C328.968 244.389 329.114 244.422 329.258 244.422C329.609 244.422 329.947 244.227 330.115 243.892C330.352 243.419 330.16 242.844 329.687 242.607Z" fill="black"/>
<path d="M334.462 256.243L330.506 255.113C330.336 255.064 330.216 254.906 330.216 254.729V253.408C330.538 253.185 330.845 252.936 331.132 252.657C332.523 251.308 333.289 249.497 333.289 247.56V245.738L333.671 244.973C334.091 244.133 334.313 243.193 334.313 242.255V237.319C334.313 236.79 333.884 236.361 333.355 236.361H324.138C320.787 236.361 318.06 239.088 318.06 242.439V242.497C318.06 243.277 318.244 244.059 318.593 244.757L319.084 245.738V247.302C319.084 249.781 320.306 252.006 322.156 253.345L322.156 254.728C322.156 254.942 322.156 255.03 321.366 255.256L319.435 255.808L313.852 253.777C313.872 253.514 313.783 253.246 313.591 253.044L311.807 251.17V248.023C311.995 247.868 312.181 247.708 312.362 247.539C314.612 245.429 315.903 242.451 315.903 239.367V236.854C316.583 235.375 316.927 233.81 316.927 232.198V221.958C316.927 221.429 316.498 221 315.97 221H301.632C296.587 221 292.482 225.105 292.482 230.15V232.199C292.482 233.81 292.826 235.375 293.506 236.854V239.017C293.506 242.597 295.098 245.822 297.602 247.949V251.17L295.818 253.044C295.626 253.246 295.537 253.514 295.557 253.777L289.664 255.92C289.237 256.076 288.84 256.286 288.48 256.541L287.555 256.078C290.309 254.879 291.182 253.193 291.224 253.109C291.359 252.839 291.359 252.522 291.224 252.252C290.533 250.871 290.45 248.34 290.382 246.306C290.36 245.629 290.339 244.989 290.298 244.42C289.972 239.826 286.479 236.361 282.174 236.361C277.87 236.361 274.377 239.826 274.051 244.42C274.01 244.989 273.989 245.629 273.967 246.306C273.899 248.34 273.816 250.871 273.125 252.252C272.99 252.522 272.99 252.839 273.125 253.109C273.167 253.192 274.038 254.875 276.798 256.076L274.228 257.361C272.854 258.048 272 259.43 272 260.966V268.042C272 268.571 272.429 268.999 272.958 268.999C273.487 268.999 273.916 268.571 273.916 268.042V260.966C273.916 260.16 274.363 259.435 275.084 259.074L278.285 257.474L279.398 258.532C280.177 259.272 281.175 259.642 282.174 259.642C283.173 259.642 284.172 259.272 284.951 258.532L286.064 257.474L287.107 257.996C286.616 258.782 286.337 259.704 286.337 260.67V268.042C286.337 268.571 286.766 269 287.295 269C287.824 269 288.253 268.571 288.253 268.042V260.67C288.253 259.355 289.083 258.17 290.319 257.721L296.532 255.461L299.118 259.341C299.449 259.837 299.979 260.155 300.572 260.214C300.638 260.221 300.704 260.224 300.769 260.224C301.293 260.224 301.794 260.018 302.169 259.643L303.747 258.065V268.042C303.747 268.571 304.175 269 304.704 269C305.233 269 305.662 268.571 305.662 268.042V258.065L307.24 259.643C307.615 260.018 308.116 260.224 308.639 260.224C308.705 260.224 308.771 260.221 308.837 260.214C309.43 260.155 309.96 259.837 310.291 259.341L312.877 255.462L319.09 257.721C320.326 258.17 321.156 259.356 321.156 260.67V268.042C321.156 268.571 321.585 269 322.114 269C322.643 269 323.072 268.571 323.072 268.042V260.67C323.072 259.339 322.543 258.09 321.655 257.166L321.892 257.099C322.13 257.03 322.456 256.937 322.783 256.777L325.228 259.222V268.042C325.228 268.571 325.657 269 326.186 269C326.715 269 327.144 268.571 327.144 268.042V259.222L329.572 256.794C329.701 256.859 329.837 256.915 329.98 256.956L333.936 258.086C334.839 258.344 335.469 259.18 335.469 260.119V268.042C335.469 268.571 335.898 269 336.427 269C336.956 269 337.385 268.571 337.385 268.042V260.119C337.385 258.329 336.183 256.735 334.462 256.243ZM278.145 254.552C276.353 253.907 275.454 253.048 275.071 252.578C275.332 251.894 275.502 251.111 275.617 250.285C276.145 251.551 277.029 252.632 278.145 253.404V254.552ZM283.631 257.144C282.814 257.92 281.535 257.92 280.718 257.144L279.827 256.297C279.978 256.016 280.06 255.696 280.06 255.362V254.341C280.728 254.55 281.439 254.662 282.175 254.662C282.91 254.662 283.62 254.549 284.289 254.342L284.289 255.362C284.289 255.696 284.372 256.016 284.522 256.297L283.631 257.144ZM282.175 252.747C279.315 252.747 276.988 250.42 276.988 247.56C276.988 247.031 276.559 246.602 276.03 246.602C275.977 246.602 275.924 246.608 275.873 246.616C275.876 246.534 275.879 246.452 275.882 246.37C275.903 245.711 275.923 245.089 275.961 244.556C276.084 242.835 276.771 241.249 277.898 240.09C279.034 238.921 280.553 238.277 282.175 238.277C283.796 238.277 285.315 238.921 286.452 240.09C287.578 241.249 288.266 242.835 288.388 244.556C288.426 245.089 288.447 245.711 288.468 246.37C288.47 246.426 288.472 246.483 288.474 246.54C287.432 244.935 285.823 243.752 283.743 243.084C281.822 242.466 280.17 242.505 280.1 242.506C279.849 242.513 279.611 242.618 279.437 242.799L277.709 244.591C277.342 244.972 277.353 245.578 277.734 245.945C278.115 246.313 278.721 246.301 279.088 245.921L280.526 244.43C281.764 244.49 285.748 244.953 287.298 248.365C286.908 250.88 284.747 252.747 282.175 252.747ZM286.204 254.555L286.205 253.412C287.319 252.645 288.205 251.566 288.733 250.29C288.848 251.115 289.018 251.896 289.279 252.578C288.897 253.043 287.994 253.91 286.204 254.555ZM295.421 239.016V236.64C295.421 236.496 295.389 236.354 295.326 236.224C294.71 234.947 294.397 233.593 294.397 232.199V230.151C294.397 226.161 297.643 222.916 301.632 222.916H315.012V232.199C315.012 233.593 314.699 234.948 314.083 236.224C314.02 236.354 313.988 236.496 313.988 236.64V239.367C313.988 241.961 312.945 244.367 311.052 246.142C310.815 246.363 310.57 246.571 310.316 246.764C310.311 246.768 310.305 246.772 310.3 246.776C308.526 248.123 306.354 248.777 304.085 248.63C299.227 248.316 295.421 244.093 295.421 239.016ZM300.814 258.289C300.808 258.295 300.792 258.311 300.761 258.308C300.73 258.304 300.717 258.286 300.712 258.278L297.734 253.81L298.692 252.803L303.211 255.892L300.814 258.289ZM304.705 254.592L299.518 251.047V249.259C300.86 249.985 302.363 250.438 303.961 250.542C304.213 250.558 304.464 250.566 304.714 250.566C306.546 250.566 308.308 250.128 309.891 249.297V251.047L304.705 254.592ZM308.697 258.279C308.692 258.286 308.679 258.305 308.648 258.308C308.617 258.312 308.602 258.295 308.595 258.289L306.198 255.892L310.717 252.803L311.676 253.81L308.697 258.279ZM326.186 257.47L324.013 255.297C324.051 255.125 324.072 254.936 324.072 254.728L324.072 254.324C324.675 254.522 325.311 254.639 325.968 254.659C326.042 254.661 326.115 254.662 326.189 254.662C326.916 254.662 327.625 254.553 328.301 254.343V254.729C328.301 254.92 328.325 255.107 328.37 255.287L326.186 257.47ZM329.798 251.283C328.783 252.268 327.442 252.788 326.026 252.744C323.254 252.661 320.999 250.22 320.999 247.302V245.512C320.999 245.363 320.965 245.217 320.898 245.084L320.307 243.9C320.09 243.467 319.975 242.981 319.975 242.497V242.44C319.975 240.144 321.843 238.277 324.138 238.277H332.397V242.255C332.397 242.898 332.245 243.542 331.958 244.117L331.474 245.084C331.408 245.217 331.373 245.363 331.373 245.512V247.56C331.373 248.975 330.814 250.297 329.798 251.283Z" fill="black"/>
<path d="M332.331 260.939C331.802 260.939 331.373 261.368 331.373 261.897V268.042C331.373 268.571 331.802 268.999 332.331 268.999C332.86 268.999 333.288 268.571 333.288 268.042V261.897C333.288 261.368 332.86 260.939 332.331 260.939Z" fill="black"/>
<path d="M277.054 262.205C276.525 262.205 276.096 262.634 276.096 263.163V268.042C276.096 268.571 276.525 268.999 277.054 268.999C277.583 268.999 278.012 268.571 278.012 268.042V263.163C278.012 262.634 277.583 262.205 277.054 262.205Z" fill="black"/>
<path d="M312.55 232.546C308.928 228.923 301.349 229.616 298.258 230.082C297.285 230.228 296.578 231.052 296.578 232.04V234.247C296.578 234.776 297.007 235.205 297.536 235.205C298.065 235.205 298.494 234.776 298.494 234.247V232.04C298.494 232.008 298.515 231.98 298.544 231.976C299.778 231.789 302.228 231.502 304.766 231.672C307.753 231.87 309.916 232.62 311.196 233.9C311.57 234.274 312.176 234.274 312.55 233.9C312.924 233.526 312.924 232.92 312.55 232.546Z" fill="black"/>
<path d="M293.439 262.988C292.911 262.988 292.482 263.417 292.482 263.945V268.042C292.482 268.571 292.911 269 293.439 269C293.968 269 294.397 268.571 294.397 268.042V263.945C294.397 263.417 293.968 262.988 293.439 262.988Z" fill="black"/>
<path d="M315.97 262.988C315.441 262.988 315.012 263.417 315.012 263.945V268.042C315.012 268.571 315.441 269 315.97 269C316.499 269 316.927 268.571 316.927 268.042V263.945C316.927 263.417 316.499 262.988 315.97 262.988Z" fill="black"/>
</g>
<g opacity="0.35">
<path d="M332.261 19.2227C332.678 19.5368 333.27 19.4539 333.584 19.0376L336.12 15.6758C336.434 15.2595 336.351 14.6675 335.935 14.3534C335.518 14.0394 334.926 14.1223 334.612 14.5385L332.076 17.9003C331.762 18.3167 331.845 18.9087 332.261 19.2227Z" fill="black"/>
<path d="M334.824 54.1475L334.494 51.8152C334.377 50.9847 333.943 50.2479 333.27 49.7404C332.84 49.4159 332.346 49.2114 331.829 49.1359L331.211 44.7367L331.425 44.7069C333.212 44.4549 334.462 42.7972 334.212 41.0129C334.123 40.3742 333.852 39.789 333.435 39.3136C333.68 39.1299 333.902 38.9107 334.092 38.6587C334.62 37.9585 334.843 37.0968 334.721 36.2351C334.632 35.5964 334.362 35.0112 333.944 34.5358C334.19 34.3521 334.411 34.1329 334.601 33.8809C335.13 33.1806 335.353 32.319 335.23 31.4559C335.138 30.803 334.858 30.2222 334.453 29.7593C335.379 29.0666 335.912 27.9033 335.742 26.6783C335.597 25.6621 334.997 24.8193 334.177 24.327L329.914 19.6348C329.265 18.9188 328.389 18.1093 327.38 18.2036C327.317 18.2095 327.248 18.2201 327.177 18.2356C326.505 17.1985 325.272 16.5842 323.971 16.7656C323.107 16.886 322.341 17.3376 321.813 18.0374C321.623 18.2894 321.473 18.5625 321.364 18.849C320.793 18.5784 320.156 18.4792 319.52 18.5689C318.656 18.688 317.889 19.1382 317.361 19.8368C317.171 20.0893 317.02 20.3633 316.911 20.6507C316.339 20.3797 315.703 20.2798 315.066 20.3686C314.201 20.4893 313.434 20.9409 312.906 21.6403C312.502 22.176 312.277 22.8071 312.248 23.4618C311.778 23.3063 311.276 23.2588 310.773 23.329C308.986 23.5779 307.736 25.2351 307.985 27.0258L308.015 27.2389L303.616 27.8507C303.014 26.708 301.741 26.0056 300.392 26.1937L298.057 26.5171C297.226 26.6329 296.489 27.0675 295.981 27.7405C295.473 28.4136 295.258 29.242 295.375 30.0729L295.784 32.9881C295.857 33.5044 296.335 33.8642 296.851 33.7916C297.367 33.719 297.727 33.2415 297.654 32.7252L297.245 29.81C297.198 29.4791 297.285 29.148 297.488 28.8778C297.692 28.6077 297.987 28.4336 298.317 28.3875L300.652 28.064C301.236 27.9827 301.782 28.3175 301.995 28.8407C301.991 28.9022 301.993 28.9649 302.002 29.0283C302.018 29.1418 302.054 29.247 302.105 29.3424L303.99 42.7365C303.967 42.843 303.96 42.9551 303.976 43.0692C303.992 43.1804 304.027 43.2839 304.076 43.3778C304.1 43.6824 304.013 43.9831 303.826 44.232C303.622 44.5022 303.327 44.6764 302.996 44.7225L300.662 45.0479C299.974 45.1427 299.334 44.66 299.236 43.9739L298.828 41.0565C298.756 40.5401 298.278 40.1801 297.762 40.2524C297.246 40.3247 296.886 40.8019 296.958 41.3183L297.366 44.2378C297.488 45.095 297.948 45.824 298.591 46.3095C299.235 46.7951 300.063 47.0367 300.922 46.9185L303.257 46.5929C304.088 46.4771 304.825 46.0426 305.333 45.3694C305.696 44.8889 305.908 44.3294 305.958 43.7464L310.911 43.0562C310.916 43.0554 310.921 43.0546 310.927 43.0538C311.502 42.9634 312.356 43.7054 313.181 44.423C313.767 44.9328 314.421 45.5011 315.154 45.9319L315.916 51.3543C315.44 51.5685 315.022 51.9002 314.698 52.3296C314.191 53.0021 313.976 53.83 314.093 54.6609L314.421 56.9961C314.538 57.8265 314.972 58.5633 315.645 59.0708C316.318 59.5782 317.145 59.794 317.976 59.6782L332.142 57.7039C332.973 57.5881 333.71 57.1536 334.218 56.4805C334.726 55.8074 334.941 54.9791 334.824 54.1475ZM328.516 20.9042L331.319 23.9897L327.886 24.4696C327.693 24.0957 327.483 23.5113 327.356 22.7325C327.183 21.6664 327.256 20.642 327.54 20.1821C327.54 20.1818 327.54 20.1816 327.54 20.1814C327.54 20.1813 327.54 20.1812 327.54 20.1811C327.561 20.1481 327.578 20.1229 327.593 20.1044C327.71 20.1548 327.991 20.3257 328.516 20.9042ZM324.231 18.6359C324.901 18.5424 325.528 18.946 325.739 19.5637C325.21 20.7733 325.383 22.3623 325.493 23.0355C325.574 23.5345 325.878 25.0769 326.649 26.0192C326.639 26.2988 326.544 26.5695 326.37 26.7999C326.146 27.0967 325.823 27.288 325.458 27.3389C325.094 27.3902 324.73 27.2949 324.432 27.0706C324.135 26.8463 323.943 26.5223 323.892 26.1564L323.892 26.1562L323.892 26.1556L323.053 20.1981C323.002 19.8348 323.097 19.4712 323.321 19.1746C323.545 18.8779 323.868 18.6865 324.231 18.6359ZM319.781 20.4391C320.145 20.3879 320.509 20.4829 320.805 20.7068C321.103 20.931 321.295 21.2558 321.346 21.6218L322.022 26.4184C322.128 27.1753 321.598 27.8777 320.844 27.9839C320.478 28.0343 320.113 27.9383 319.816 27.7136C319.518 27.4889 319.325 27.1642 319.274 26.8008L319.274 26.8007L318.763 23.158C318.762 23.1524 318.761 23.1467 318.76 23.141L318.601 22.0015C318.549 21.6361 318.644 21.2715 318.868 20.9752C319.091 20.6799 319.414 20.4896 319.781 20.4391ZM315.326 22.2389C315.69 22.1882 316.055 22.284 316.352 22.5086C316.648 22.7313 316.838 23.0519 316.892 23.4114L317.404 27.0647C317.455 27.4282 317.361 27.7917 317.137 28.0881C316.914 28.3844 316.59 28.5752 316.225 28.6256C315.861 28.6762 315.497 28.5807 315.2 28.3565C314.902 28.132 314.71 27.8072 314.658 27.4436L314.472 26.1198C314.472 26.1194 314.472 26.1191 314.472 26.1188L314.146 23.8033C314.095 23.4382 314.19 23.0739 314.414 22.7775C314.637 22.4812 314.961 22.2898 315.326 22.2389ZM311.033 25.1992C311.399 25.1483 311.764 25.2438 312.061 25.4681C312.358 25.6923 312.55 26.017 312.602 26.3823L312.788 27.708C312.84 28.0716 312.745 28.435 312.522 28.7314C312.298 29.0277 311.975 29.2185 311.608 29.2691C311.244 29.3204 310.88 29.2252 310.582 29.0009C310.285 28.7766 310.094 28.4526 310.042 28.0857L310.019 27.92C310.019 27.9177 310.019 27.9157 310.018 27.9136C310.018 27.9111 310.017 27.9088 310.017 27.9064L309.855 26.763C309.749 26.006 310.278 25.3045 311.033 25.1992ZM319.931 45.3536C319.859 44.8371 319.382 44.4768 318.866 44.5488L317.69 44.7127C316.572 44.8692 315.478 43.9179 314.42 42.9981C313.271 41.999 312.082 40.9662 310.643 41.1871L305.774 41.8655L304.062 29.6954L308.369 29.0964C308.587 29.6517 308.955 30.1387 309.445 30.5086C310.146 31.037 311.007 31.261 311.869 31.1396C312.734 31.0203 313.501 30.5691 314.029 29.8689C314.034 29.8624 314.039 29.8556 314.044 29.8491C314.05 29.8541 314.056 29.8593 314.063 29.8643C314.762 30.392 315.623 30.6164 316.484 30.4963C317.349 30.377 318.116 29.9258 318.645 29.2256C318.65 29.2191 318.654 29.2123 318.659 29.2058C318.666 29.2108 318.672 29.2162 318.678 29.2212C319.378 29.7487 320.238 29.9737 321.105 29.8543C322.006 29.7274 322.771 29.2419 323.275 28.5626C323.282 28.5678 323.289 28.5732 323.295 28.5783C323.996 29.1067 324.857 29.3307 325.72 29.2091C326.583 29.0888 327.35 28.6372 327.878 27.9374C328.247 27.448 328.467 26.8798 328.524 26.2873L332.302 25.7593C332.583 25.7206 332.856 25.7696 333.095 25.8847C333.119 25.8992 333.144 25.9123 333.169 25.9245C333.537 26.1297 333.809 26.496 333.872 26.9414C333.977 27.6983 333.447 28.4008 332.693 28.507L331.545 28.6654C331.541 28.6659 331.537 28.6661 331.533 28.6667L330.209 28.8509C329.692 28.9228 329.332 29.3999 329.404 29.9163C329.476 30.4329 329.953 30.7931 330.469 30.7211L331.624 30.5603C331.624 30.5603 331.625 30.5602 331.625 30.5602L331.799 30.5361C332.554 30.4339 333.254 30.9631 333.361 31.72C333.412 32.0836 333.318 32.4471 333.094 32.7435C332.87 33.0398 332.547 33.2306 332.18 33.2811L331.022 33.4444C331.022 33.4445 331.022 33.4445 331.022 33.4446L329.699 33.627C329.182 33.6982 328.821 34.1748 328.892 34.6913C328.964 35.2079 329.44 35.5688 329.957 35.4976L331.286 35.3143C331.65 35.263 332.014 35.3583 332.311 35.5826C332.609 35.8069 332.8 36.1309 332.851 36.4978C332.903 36.8615 332.808 37.2249 332.585 37.5213C332.361 37.8176 332.038 38.0084 331.672 38.0589L329.364 38.3823C328.848 38.4548 328.488 38.932 328.56 39.4484C328.596 39.7066 328.734 39.9255 328.927 40.071C329.12 40.2166 329.368 40.2885 329.626 40.2523L330.757 40.0938C330.763 40.093 330.77 40.093 330.776 40.0921C331.14 40.0407 331.504 40.136 331.802 40.3603C332.099 40.5846 332.291 40.9086 332.342 41.2742C332.448 42.0291 331.918 42.7301 331.163 42.8365L330.014 42.9967C330.014 42.9967 330.013 42.9967 330.013 42.9968C330.012 42.9969 330.012 42.997 330.011 42.997L328.188 43.2512C327.671 43.3232 327.311 43.8003 327.383 44.3167C327.419 44.5751 327.556 44.7945 327.749 44.9401C327.942 45.0855 328.19 45.1575 328.448 45.1215L329.34 44.9972L329.941 49.2719L317.768 50.9684L317.155 46.6076C317.413 46.6269 317.678 46.6209 317.951 46.5827L319.126 46.4189C319.643 46.3471 320.003 45.8701 319.931 45.3536ZM331.881 55.8336L317.715 57.8078C317.384 57.854 317.053 57.7671 316.782 57.5632C316.512 57.3592 316.337 57.0644 316.291 56.733L315.962 54.3978C315.916 54.0669 316.002 53.7363 316.205 53.4668C316.409 53.1973 316.703 53.0236 317.034 52.9774L331.2 51.0032C331.531 50.957 331.863 51.0438 332.133 51.2478C332.403 51.4517 332.578 51.7465 332.625 52.0788L332.954 54.4111C333.001 54.742 332.914 55.073 332.711 55.3431C332.507 55.6133 332.212 55.7875 331.881 55.8336Z" fill="black"/>
<path d="M322.732 11.0366C322.768 11.2945 322.906 11.5131 323.098 11.6585C323.291 11.8041 323.54 11.8761 323.799 11.8396C324.315 11.7668 324.675 11.2893 324.602 10.7729L323.923 5.95973C323.85 5.44343 323.373 5.08375 322.857 5.15664C322.34 5.22946 321.981 5.707 322.053 6.22335L322.732 11.0366Z" fill="black"/>
<path d="M342.051 25.9565C342.244 26.1019 342.492 26.1738 342.75 26.1379L347.562 25.4672C348.079 25.3952 348.439 24.9182 348.367 24.4017C348.295 23.8853 347.818 23.525 347.302 23.597L342.489 24.2677C341.973 24.3397 341.612 24.8167 341.684 25.3332C341.72 25.5916 341.858 25.8109 342.051 25.9565Z" fill="black"/>
<path d="M297.084 35.9187C296.568 35.9954 296.212 36.4757 296.289 36.9915L296.289 36.9953C296.327 37.2498 296.463 37.4649 296.653 37.6084C296.848 37.7555 297.101 37.8272 297.362 37.7884C297.878 37.7117 298.233 37.2295 298.157 36.7137C298.08 36.1981 297.6 35.8422 297.084 35.9187Z" fill="black"/>
<path d="M322.594 45.6585C322.708 45.745 322.844 45.8067 322.995 45.834C323.508 45.9269 323.999 45.5863 324.092 45.0733C324.185 44.5602 323.845 44.0688 323.332 43.9759L323.326 43.9749C322.813 43.882 322.324 44.2231 322.231 44.7362C322.166 45.0985 322.318 45.4504 322.594 45.6585Z" fill="black"/>
</g>
</svg>
