<svg width="356" height="269" fill="none" xmlns="http://www.w3.org/2000/svg"><path d="M29.73 221.942l-2.684 1.693-1.693-2.684-13.42 8.465 1.693 2.684-2.684 1.693a3.183 3.183 0 00-.99 4.377l.846 1.342c2.158 3.422 6.496 4.588 10.073 2.913a7.947 7.947 0 007.35.917l2.624 4.16-5.368 3.386 1.693 2.684 13.42-8.465-1.693-2.684-5.368 3.386-2.624-4.16a7.948 7.948 0 002.339-7.028c3.052-2.507 3.868-6.924 1.71-10.346l-.847-1.342a3.183 3.183 0 00-4.377-.991zm-16.248 15.877l-.847-1.342 2.684-1.693 3.234 5.126c-1.913.419-3.97-.346-5.071-2.091zm14.472 2.126a4.774 4.774 0 01-6.565-1.486l-5.079-8.052 8.052-5.079 5.079 8.052a4.773 4.773 0 01-1.487 6.565zm4.315-13.977c1.1 1.745.905 3.932-.297 5.478l-3.233-5.127 2.684-1.693.846 1.342z" fill="#000" opacity=".2"/><g opacity=".4" fill="#000"><path d="M32.286 17.481a.546.546 0 00.524-.702 9.634 9.634 0 00-1.984-3.625 3.042 3.042 0 00-2.888-.883.546.546 0 00-.316.315c-.03.082-.052.166-.066.252a2.096 2.096 0 00-.028.308v.009a3.3 3.3 0 00.978 2.319 9.638 9.638 0 003.623 1.983.571.571 0 00.157.024zM29.28 14.7a2.26 2.26 0 01-.5-.763v-.005a2.387 2.387 0 01-.063-.18c-.01-.032-.016-.061-.024-.093-.008-.03-.015-.054-.02-.082l-.011-.057a2.077 2.077 0 01-.034-.248 2.26 2.26 0 011.428.656A7.426 7.426 0 0131.352 16a7.426 7.426 0 01-2.074-1.3h.002z"/><path d="M49.06 17.858h-8.437c.365-.249.708-.53 1.024-.838 1.955-1.96 2.02-4.934.77-6.182-1.249-1.25-4.22-1.186-6.184.77a10.726 10.726 0 00-1.93 2.962 10.708 10.708 0 00-1.931-2.963c-1.961-1.955-4.934-2.019-6.183-.77-1.25 1.249-1.185 4.222.77 6.183.317.309.66.59 1.024.838h-8.436a.547.547 0 00-.547.547v5.465c0 .302.245.547.547.547h1.093v15.85a2.736 2.736 0 002.732 2.732h21.862a2.736 2.736 0 002.733-2.732v-15.85h1.093a.547.547 0 00.546-.547v-5.465a.547.547 0 00-.546-.547zm-12.053-5.477c1.57-1.566 3.861-1.548 4.638-.771.776.776.795 3.066-.77 4.638a9.153 9.153 0 01-2.426 1.61h-3.266v-.035c0-.125-.01-.25-.021-.378l-.014-.126a5.534 5.534 0 00-.065-.423 6.985 6.985 0 00-.088-.4l-.014-.054c-.029-.114-.059-.219-.09-.328a.39.39 0 00-.012-.046 10.42 10.42 0 012.128-3.687zm-.518 10.943h-4.372V18.95h4.372v4.373zm-8.756-7.076c-1.567-1.571-1.548-3.861-.771-4.638.776-.777 3.066-.795 4.637.77a10.498 10.498 0 012.186 3.852 9.258 9.258 0 01.187.706c.03.133.054.26.072.383l.018.124c.018.136.027.274.028.411h-3.933a9.163 9.163 0 01-2.424-1.608zm-7.64 2.703h10.93v4.373h-10.93V18.95zm1.64 21.316v-15.85h10.384v17.49h-8.745a1.64 1.64 0 01-1.64-1.64zm11.477 1.64v-17.49h2.186v17.49H33.21zm13.664-1.64a1.64 1.64 0 01-1.64 1.64h-8.745v-17.49h10.385v15.85zm1.64-16.943H37.581V18.95h10.931v4.373z"/><path d="M36.318 17.483a.548.548 0 00.156-.022 9.602 9.602 0 003.626-1.988 3.094 3.094 0 00.885-2.89.543.543 0 00-.314-.313 3.094 3.094 0 00-2.89.885 9.61 9.61 0 00-1.987 3.626.546.546 0 00.524.702zm2.236-3.555c.383-.382.89-.615 1.429-.656a2.264 2.264 0 01-.656 1.429 7.388 7.388 0 01-2.077 1.303 7.381 7.381 0 011.304-2.076z"/></g><g opacity=".5" fill="#000"><path d="M329.687 242.607c-2.225-1.112-6.397-1.125-6.573-1.125a.958.958 0 100 1.915c1.076 0 4.202.166 5.716.923a.954.954 0 001.285-.428.958.958 0 00-.428-1.285z"/><path d="M334.462 256.243l-3.956-1.13a.403.403 0 01-.29-.384v-1.321c.322-.223.629-.472.916-.751a7.044 7.044 0 002.157-5.097v-1.822l.382-.765c.42-.84.642-1.78.642-2.718v-4.936a.958.958 0 00-.958-.958h-9.217a6.085 6.085 0 00-6.078 6.078v.058c0 .78.184 1.562.533 2.26l.491.981v1.564a7.477 7.477 0 003.072 6.043v1.383c0 .214 0 .302-.79.528l-1.931.552-5.583-2.031a.958.958 0 00-.261-.733l-1.784-1.874v-3.147c.188-.155.374-.315.555-.484a11.244 11.244 0 003.541-8.172v-2.513a11.066 11.066 0 001.024-4.656v-10.24a.958.958 0 00-.957-.958h-14.338c-5.045 0-9.15 4.105-9.15 9.15v2.049c0 1.611.344 3.176 1.024 4.655v2.163c0 3.58 1.592 6.805 4.096 8.932v3.221l-1.784 1.874a.958.958 0 00-.261.733l-5.893 2.143a5.038 5.038 0 00-1.184.621l-.925-.463c2.754-1.199 3.627-2.885 3.669-2.969a.957.957 0 000-.857c-.691-1.381-.774-3.912-.842-5.946a49.859 49.859 0 00-.084-1.886c-.326-4.594-3.819-8.059-8.124-8.059-4.304 0-7.797 3.465-8.123 8.059a49.859 49.859 0 00-.084 1.886c-.068 2.034-.151 4.565-.842 5.946a.957.957 0 000 .857c.042.083.913 1.766 3.673 2.967l-2.57 1.285a4.01 4.01 0 00-2.228 3.605v7.076a.957.957 0 001.916 0v-7.076c0-.806.447-1.531 1.168-1.892l3.201-1.6 1.113 1.058a4.019 4.019 0 002.776 1.11 4.02 4.02 0 002.777-1.11l1.113-1.058 1.043.522a5.045 5.045 0 00-.77 2.674v7.372a.958.958 0 001.916 0v-7.372c0-1.315.83-2.5 2.066-2.949l6.213-2.26 2.586 3.88a1.977 1.977 0 001.651.883c.524 0 1.025-.206 1.4-.581l1.578-1.578v9.977a.957.957 0 101.915 0v-9.977l1.578 1.578a1.973 1.973 0 001.597.571 1.977 1.977 0 001.454-.873l2.586-3.879 6.213 2.259a3.148 3.148 0 012.066 2.949v7.372a.958.958 0 001.916 0v-7.372c0-1.331-.529-2.58-1.417-3.504l.237-.067c.238-.069.564-.162.891-.322l2.445 2.445v8.82a.958.958 0 001.916 0v-8.82l2.428-2.428c.129.065.265.121.408.162l3.956 1.13a2.123 2.123 0 011.533 2.033v7.923a.958.958 0 001.916 0v-7.923a4.049 4.049 0 00-2.923-3.876zm-56.317-1.691c-1.792-.645-2.691-1.504-3.074-1.974.261-.684.431-1.467.546-2.293a7.141 7.141 0 002.528 3.119v1.148zm5.486 2.592a2.114 2.114 0 01-2.913 0l-.891-.847c.151-.281.233-.601.233-.935v-1.021a7.142 7.142 0 004.229.001v1.02c0 .334.083.654.233.935l-.891.847zm-1.456-4.397a5.193 5.193 0 01-5.187-5.187.958.958 0 00-1.115-.944l.009-.246a48.79 48.79 0 01.079-1.814c.123-1.721.81-3.307 1.937-4.466a5.92 5.92 0 014.277-1.813c1.621 0 3.14.644 4.277 1.813 1.126 1.159 1.814 2.745 1.936 4.466.038.533.059 1.155.08 1.814l.006.17c-1.042-1.605-2.651-2.788-4.731-3.456-1.921-.618-3.573-.579-3.643-.578a.956.956 0 00-.663.293l-1.728 1.792a.957.957 0 001.379 1.33l1.438-1.491c1.238.06 5.222.523 6.772 3.935a5.174 5.174 0 01-5.123 4.382zm4.029 1.808l.001-1.143a7.08 7.08 0 002.528-3.122c.115.825.285 1.606.546 2.288-.382.465-1.285 1.332-3.075 1.977zm9.217-15.539v-2.376a.953.953 0 00-.095-.416 9.196 9.196 0 01-.929-4.025v-2.048c0-3.99 3.246-7.235 7.235-7.235h13.38v9.283a9.192 9.192 0 01-.929 4.025.953.953 0 00-.095.416v2.727c0 2.594-1.043 5-2.936 6.775a9.571 9.571 0 01-.736.622l-.016.012a9.207 9.207 0 01-6.215 1.854c-4.858-.314-8.664-4.537-8.664-9.614zm5.393 19.273a.061.061 0 01-.053.019.064.064 0 01-.049-.03l-2.978-4.468.958-1.007 4.519 3.089-2.397 2.397zm3.891-3.697l-5.187-3.545v-1.788a10.786 10.786 0 005.196 1.307c1.832 0 3.594-.438 5.177-1.269v1.75l-5.186 3.545zm3.992 3.687c-.005.007-.018.026-.049.029-.031.004-.046-.013-.053-.019l-2.397-2.397 4.519-3.089.959 1.007-2.979 4.469zm17.489-.809l-2.173-2.173c.038-.172.059-.361.059-.569v-.404a6.725 6.725 0 002.117.338c.727 0 1.436-.109 2.112-.319v.386c0 .191.024.378.069.558l-2.184 2.183zm3.612-6.187a5.146 5.146 0 01-3.772 1.461c-2.772-.083-5.027-2.524-5.027-5.442v-1.79a.949.949 0 00-.101-.428l-.591-1.184a3.15 3.15 0 01-.332-1.403v-.057a4.168 4.168 0 014.163-4.163h8.259v3.978c0 .643-.152 1.287-.439 1.862l-.484.967a.962.962 0 00-.101.428v2.048a5.146 5.146 0 01-1.575 3.723z"/><path d="M332.331 260.939a.958.958 0 00-.958.958v6.145a.957.957 0 001.915 0v-6.145a.957.957 0 00-.957-.958zm-55.277 1.266a.958.958 0 00-.958.958v4.879a.957.957 0 001.916 0v-4.879a.958.958 0 00-.958-.958zm35.496-29.659c-3.622-3.623-11.201-2.93-14.292-2.464-.973.146-1.68.97-1.68 1.958v2.207a.958.958 0 001.916 0v-2.207c0-.032.021-.06.05-.064 1.234-.187 3.684-.474 6.222-.304 2.987.198 5.15.948 6.43 2.228a.957.957 0 101.354-1.354zm-19.111 30.442a.958.958 0 00-.957.957v4.097a.958.958 0 101.915 0v-4.097a.958.958 0 00-.958-.957zm22.531 0a.958.958 0 00-.958.957v4.097a.958.958 0 001.915 0v-4.097a.957.957 0 00-.957-.957z"/></g><g opacity=".35" fill="#000"><path d="M332.261 19.223a.945.945 0 001.323-.185l2.536-3.362a.944.944 0 00-1.508-1.137l-2.536 3.361a.944.944 0 00.185 1.323zm2.563 34.925l-.33-2.333a3.129 3.129 0 00-1.224-2.075 3.14 3.14 0 00-1.441-.604l-.618-4.4.214-.03a3.278 3.278 0 002.787-3.693 3.247 3.247 0 00-.777-1.7 3.282 3.282 0 001.286-3.078 3.239 3.239 0 00-.777-1.7 3.28 3.28 0 00.657-.654 3.24 3.24 0 00.629-2.425 3.259 3.259 0 00-.777-1.697 3.284 3.284 0 001.289-3.08 3.28 3.28 0 00-1.565-2.352l-4.263-4.692c-.649-.716-1.525-1.526-2.534-1.431a1.709 1.709 0 00-.203.032 3.283 3.283 0 00-3.206-1.47c-.864.12-1.63.572-2.158 1.271a3.29 3.29 0 00-.449.812 3.237 3.237 0 00-1.844-.28 3.247 3.247 0 00-2.159 1.268c-.19.252-.341.526-.45.814a3.246 3.246 0 00-1.845-.282 3.253 3.253 0 00-2.16 1.271 3.254 3.254 0 00-.658 1.822 3.253 3.253 0 00-1.475-.133 3.277 3.277 0 00-2.788 3.697l.03.213-4.399.612a3.158 3.158 0 00-3.224-1.657l-2.335.323a3.126 3.126 0 00-2.076 1.224 3.124 3.124 0 00-.606 2.332l.409 2.915a.945.945 0 001.87-.263l-.409-2.915a1.25 1.25 0 01.243-.932c.204-.27.499-.444.829-.49l2.335-.324a1.264 1.264 0 011.343.777.912.912 0 00.11.501l1.885 13.395a.948.948 0 00.086.64c.024.305-.063.606-.25.855-.204.27-.499.444-.83.49l-2.334.326a1.269 1.269 0 01-1.426-1.074l-.408-2.917a.944.944 0 00-1.87.261l.408 2.92a3.147 3.147 0 001.225 2.072 3.149 3.149 0 002.331.608l2.335-.325a3.125 3.125 0 002.076-1.224c.363-.48.575-1.04.625-1.623l4.953-.69.016-.002c.575-.09 1.429.651 2.254 1.369.586.51 1.24 1.078 1.973 1.509l.762 5.422a3.135 3.135 0 00-1.218.976 3.124 3.124 0 00-.605 2.33l.328 2.336c.117.83.551 1.567 1.224 2.075a3.13 3.13 0 002.331.607l14.166-1.974a3.126 3.126 0 002.076-1.224 3.125 3.125 0 00.606-2.332zm-6.308-33.244l2.803 3.086-3.433.48c-.193-.374-.403-.959-.53-1.737-.173-1.067-.1-2.091.184-2.55v-.002a.863.863 0 01.053-.077c.117.05.398.222.923.8zm-4.285-2.268c.67-.094 1.297.31 1.508.928-.529 1.21-.356 2.798-.246 3.471.081.5.385 2.042 1.156 2.984-.01.28-.105.55-.279.78a1.376 1.376 0 01-1.938.27 1.377 1.377 0 01-.54-.913l-.839-5.958a1.372 1.372 0 01.268-1.023c.224-.297.547-.489.91-.54zm-4.45 1.803c.364-.051.728.044 1.024.268.298.224.49.549.541.915l.676 4.796a1.381 1.381 0 01-2.206 1.295 1.38 1.38 0 01-.542-.912l-.511-3.643-.003-.017-.159-1.14a1.37 1.37 0 01.267-1.026c.223-.295.546-.485.913-.536zm-4.455 1.8c.364-.05.729.045 1.026.27.296.222.486.543.54.902l.512 3.654a1.37 1.37 0 01-.267 1.023 1.377 1.377 0 01-1.937.268 1.383 1.383 0 01-.542-.912l-.186-1.324v-.001l-.326-2.316c-.051-.365.044-.73.268-1.026.223-.296.547-.487.912-.538zm-4.293 2.96a1.38 1.38 0 011.028.27c.297.223.489.548.541.913l.186 1.326a1.37 1.37 0 01-.266 1.023 1.372 1.372 0 01-.914.538 1.376 1.376 0 01-1.026-.268 1.381 1.381 0 01-.54-.915l-.023-.166-.001-.006-.001-.008-.162-1.143a1.386 1.386 0 011.178-1.564zm8.898 20.155a.944.944 0 00-1.065-.805l-1.176.164c-1.118.156-2.212-.795-3.27-1.715-1.149-.999-2.338-2.032-3.777-1.81l-4.869.677-1.712-12.17 4.307-.599a3.258 3.258 0 001.076 1.413 3.25 3.25 0 002.424.63 3.243 3.243 0 002.16-1.27l.015-.02.019.015a3.25 3.25 0 002.421.632 3.248 3.248 0 002.161-1.27l.014-.02.019.015a3.264 3.264 0 004.597-.658 3.25 3.25 0 002.445.646 3.25 3.25 0 002.158-1.272 3.248 3.248 0 00.646-1.65l3.778-.528a1.385 1.385 0 01.867.165c.368.206.64.572.703 1.017a1.39 1.39 0 01-1.179 1.566l-1.148.158-.012.002-1.324.184a.944.944 0 10.26 1.87l1.155-.16h.001l.174-.025a1.392 1.392 0 011.562 1.184 1.37 1.37 0 01-.267 1.023 1.371 1.371 0 01-.914.538l-1.158.163-1.323.183a.945.945 0 10.258 1.87l1.329-.183c.364-.051.728.044 1.025.269.298.224.489.548.54.915a1.37 1.37 0 01-.266 1.023 1.371 1.371 0 01-.913.538l-2.308.323a.945.945 0 00.262 1.87l1.131-.158.019-.002c.364-.051.728.044 1.026.268.297.225.489.549.54.914a1.387 1.387 0 01-1.179 1.563l-1.149.16h-.003l-1.823.254a.944.944 0 10.26 1.87l.892-.124.601 4.275-12.173 1.696-.613-4.36c.258.019.523.013.796-.025l1.175-.164a.944.944 0 00.805-1.065zm11.95 10.48l-14.166 1.974a1.254 1.254 0 01-.933-.245 1.252 1.252 0 01-.491-.83l-.329-2.335a1.25 1.25 0 01.243-.931 1.25 1.25 0 01.829-.49l14.166-1.974c.331-.046.663.04.933.245.27.204.445.498.492.83l.329 2.333a1.25 1.25 0 01-.243.932c-.204.27-.499.444-.83.49zm-9.149-44.797a.942.942 0 001.067.803.944.944 0 00.803-1.067l-.679-4.813a.944.944 0 10-1.87.263l.679 4.814zm19.319 14.919a.942.942 0 00.699.182l4.812-.67a.944.944 0 10-.26-1.871l-4.813.67a.945.945 0 00-.438 1.69z"/><path d="M297.084 35.919a.944.944 0 00-.795 1.073v.003a.94.94 0 001.073.793.946.946 0 00-.278-1.87zm25.51 9.739a.944.944 0 10.738-1.683h-.006a.942.942 0 00-.732 1.683z"/></g></svg>