<svg width="353" height="265" fill="none" xmlns="http://www.w3.org/2000/svg"><path d="M29.73 222.942l-2.684 1.693-1.693-2.684-13.42 8.465 1.693 2.684-2.684 1.693a3.183 3.183 0 00-.99 4.377l.846 1.342c2.158 3.422 6.496 4.588 10.073 2.913a7.947 7.947 0 007.35.917l2.624 4.16-5.368 3.386 1.693 2.684 13.42-8.465-1.693-2.684-5.368 3.386-2.624-4.16a7.948 7.948 0 002.339-7.028c3.052-2.507 3.868-6.924 1.71-10.346l-.847-1.342a3.183 3.183 0 00-4.377-.991zm-16.248 15.877l-.847-1.342 2.684-1.693 3.234 5.126c-1.913.419-3.97-.346-5.071-2.091zm14.472 2.126a4.774 4.774 0 01-6.565-1.486l-5.079-8.052 8.052-5.079 5.079 8.052a4.773 4.773 0 01-1.487 6.565zm4.315-13.977c1.1 1.745.905 3.932-.297 5.478l-3.233-5.127 2.684-1.693.846 1.342z" fill="#000" opacity=".2"/><path d="M343.325 242.959a.674.674 0 00.674-.674v-1.303c0-1.317-1.006-2.389-2.242-2.389h-1.091v-1.381c0-.966-.786-1.752-1.752-1.752h-5.424c-.966 0-1.752.786-1.752 1.752v3.596c-4.845-.565-10.876-.566-15.729 0v-3.596c0-.966-.786-1.752-1.752-1.752h-.428c3.694-2.249 7.825-5.299 11.045-8.27l2.115 2.908c.57.782 1.668.953 2.448.386l4.386-3.19a1.754 1.754 0 00.386-2.448l-.812-1.116.882-.642c1-.727 1.183-2.185.408-3.251l-3.657-5.028c-.775-1.065-2.219-1.34-3.219-.613l-.882.641-.812-1.116a1.753 1.753 0 00-2.447-.387l-4.387 3.191a1.754 1.754 0 00-.386 2.447l2.115 2.908c-4.252 2.393-9.128 5.94-12.72 9.252l-1.556-2.139a2.706 2.706 0 00-3.775-.595l-2.849 2.071a2.707 2.707 0 00-.596 3.776l.253.348-.882.641c-1.02.742-1.167 2.207-.408 3.251l3.658 5.028c.4.55.986.9 1.612.993v2.694c0 1.317 1.006 2.389 2.242 2.389h1.091v1.38c0 .966.786 1.752 1.752 1.752h5.423c.966 0 1.752-.786 1.752-1.752v-3.595c1.915.223 4.068.363 6.279.408h.014a.673.673 0 00.013-1.348 65.028 65.028 0 01-6.306-.417v-3.853c4.767-.571 10.864-.583 15.729 0v3.853c-1.91.229-4.076.372-6.305.417a.675.675 0 00.013 1.348h.014a66.97 66.97 0 006.278-.408v3.595c0 .966.786 1.752 1.752 1.752h5.424c.966 0 1.752-.786 1.752-1.752v-1.38h1.091c1.236 0 2.242-1.072 2.242-2.389v-1.77a.674.674 0 00-1.348 0v1.77c0 .564-.409 1.041-.894 1.041h-1.091v-8.3h1.091c.485 0 .894.477.894 1.041v1.303c0 .372.302.674.674.674zm-14.721-27.673c.392-.285 1.004-.141 1.336.316l3.657 5.028c.332.456.281 1.083-.111 1.368l-.882.642-4.882-6.713.882-.641zm-8.617 2.894a.41.41 0 01.089-.565l4.386-3.191a.41.41 0 01.565.09l6.884 9.464 1.208 1.661a.41.41 0 01-.089.565l-4.386 3.19a.408.408 0 01-.565-.089l-8.092-11.125zm1.823 4.797l2.267 3.116c-3.506 3.254-8.423 6.851-12.721 9.252l-2.266-3.116c3.496-3.245 8.417-6.848 12.72-9.252zm-18.061 18.005v2.139a1.142 1.142 0 01-.522-.401l-3.658-5.028c-.347-.477-.269-1.091.111-1.368l.882-.641 3.303 4.541a2.57 2.57 0 00-.116.758zm3.333 7.259h-1.091c-.485 0-.894-.477-.894-1.041v-6.218c0-.236.077-.49.231-.689a.844.844 0 01.663-.353h1.09v8.301h.001zm0-11.029v1.381h-1.091a2.197 2.197 0 00-.191.009 2.154 2.154 0 00-1.123.446l-4.071-5.596a1.358 1.358 0 01.299-1.893l2.848-2.072a1.361 1.361 0 011.893.299l4.127 5.674h-.94c-.965 0-1.751.786-1.751 1.752zm7.58 13.757a.411.411 0 01-.405.405h-5.423a.41.41 0 01-.405-.405v-13.757a.41.41 0 01.405-.404h5.423a.41.41 0 01.405.404v13.757zm24.657 0a.411.411 0 01-.405.405h-5.423a.41.41 0 01-.405-.405v-13.757a.41.41 0 01.405-.404h5.423a.41.41 0 01.405.404v13.757zm3.427-226.642l-.254-.11c-3.559-1.49-7.594-.842-10.527 1.59a8.654 8.654 0 00-2.988-2.103 8.661 8.661 0 00-5.911-.281c.498-1.265.858-2.583 1.163-3.759.261-1.006.516-1.981.828-2.751l3.691 1.547a2.36 2.36 0 001.817.007l4.143-1.697a2.367 2.367 0 001.313-3.012 2.368 2.368 0 00.666-3.286l-1.277-1.924a5.619 5.619 0 00-2.518-2.081 8.657 8.657 0 00-6.67-.027c-3.968 1.625-7.51 3.906-10.53 6.778-3.638 3.46-5.892 6.192-6.7 8.12-.463 1.105-.935 1.963-1.402 2.55-1 1.253-1 3.036-.002 4.335a37.851 37.851 0 0015.368 11.837l1.056.442a37.724 37.724 0 0011.771 2.829l.583.043a5.53 5.53 0 005.524-3.383l3.568-8.517c1.152-2.749-.065-5.955-2.712-7.147zm-2.316 15.052a3.952 3.952 0 01-3.947 2.416l-.582-.043a36.15 36.15 0 01-11.277-2.71l-1.056-.442a36.271 36.271 0 01-14.725-11.34c-.554-.722-.56-1.703-.016-2.386.559-.7 1.105-1.684 1.625-2.924.712-1.7 2.901-4.323 6.331-7.585 2.876-2.737 6.254-4.91 10.039-6.46a7.084 7.084 0 015.458.022 4.04 4.04 0 011.811 1.496l1.277 1.924a.787.787 0 01.097.67.786.786 0 01-.456.5l-3.308 1.355a.887.887 0 11-.673-1.642l.952-.39a.79.79 0 10-.6-1.465l-.952.39a2.446 2.446 0 00-1.466 1.71 2.446 2.446 0 00.53 2.187 2.47 2.47 0 002.809.675l2.265-.928a.781.781 0 01-.458.896l-4.143 1.697a.797.797 0 01-.606-.002l-3.408-1.429c.077-.056.154-.116.239-.15a.791.791 0 00-.6-1.465c-1.694.694-2.25 2.834-2.893 5.31-.334 1.287-.679 2.617-1.207 3.876-1.259 3.007-3.803 2.694-3.911 2.679a.79.79 0 00-.233 1.565c.965.148 2.749-.09 4.19-1.51.015-.009.034-.007.049-.017a7.102 7.102 0 016.781-.695 7.08 7.08 0 013.827 3.84.79.79 0 101.462-.605 8.847 8.847 0 00-.718-1.347c2.485-2.082 5.917-2.642 8.943-1.375l.215.093c1.872.844 2.726 3.128 1.903 5.092l-3.568 8.517zM42.126 18.327l-2.113-2.114 2.113-2.113a.996.996 0 000-1.409l-2.818-2.817a.997.997 0 00-1.408 0l-2.114 2.113-2.113-2.113a2.992 2.992 0 00-4.226 0l-.825.824a2.989 2.989 0 00-3.402.585l-1.409 1.409a.996.996 0 000 1.408l4.931 4.931-9.71 9.712-4.932-4.931a.997.997 0 00-1.409 0l-1.408 1.408a2.993 2.993 0 00-.583 3.401l-.826.826a2.992 2.992 0 000 4.226l2.113 2.113L9.874 37.9a.996.996 0 000 1.409l2.817 2.817a.996.996 0 001.41 0l2.112-2.113 2.114 2.113a2.992 2.992 0 004.226 0l.825-.824a2.989 2.989 0 003.402-.585l1.409-1.408a.996.996 0 000-1.41l-4.931-4.93 9.71-9.711 4.932 4.93a.996.996 0 001.409 0l1.408-1.408a2.993 2.993 0 00.584-3.401l.825-.826a2.992 2.992 0 000-4.226zm-3.522-6.34l1.409 1.409-1.409 1.409-1.409-1.409 1.41-1.409zM13.396 40.013l-1.409-1.409 1.409-1.409 1.409 1.409-1.41 1.409zm7.748.704a.997.997 0 01-1.408 0l-8.453-8.453a.997.997 0 010-1.408l.704-.705 9.862 9.862-.705.704zm4.931-2.113l-.704.704a.996.996 0 01-1.41 0l-11.27-11.27a.996.996 0 010-1.409l.705-.704 12.68 12.68zM21.85 31.56l-1.41-1.409 9.712-9.711 1.409 1.409-9.711 9.711zm17.46-6.19l-.705.705-7.748-7.748-4.931-4.93.704-.705a.996.996 0 011.409 0l11.27 11.27c.39.39.39 1.02 0 1.409zm1.408-4.226l-.704.705-9.862-9.862.705-.704a.997.997 0 011.408 0l8.453 8.452a.997.997 0 010 1.41zm15.031 16.434l-1.162.467-.468-1.162a.418.418 0 00-.543-.232l-1.55.624a.418.418 0 00-.231.543l.467 1.162-1.162.468c-.64.257-.952.988-.694 1.629l.182.453c-.385.34-.539.9-.334 1.408l.312.775a.416.416 0 00.543.231l2.711-1.09 2.148 5.34-2.711 1.091a.418.418 0 00-.232.543l.312.775c.203.505.7.805 1.215.784l.183.454c.257.64.989.953 1.63.695l1.161-.468.468 1.163c.086.213.33.317.543.231l1.55-.623a.418.418 0 00.231-.543l-.467-1.162 1.162-.468c.64-.258.952-.989.695-1.63l-.183-.453a1.25 1.25 0 00.334-1.407l-.311-.775a.418.418 0 00-.544-.232l-2.711 1.09-2.148-5.34 2.711-1.09a.418.418 0 00.232-.544l-.312-.774a1.255 1.255 0 00-1.215-.784l-.182-.454a1.254 1.254 0 00-1.63-.695zm-3.023.316l.774-.312.312.775-.775.312-.311-.775zm6.662 14.326l-.775.312-.312-.775.775-.312.312.775zm1.545-2.872a.418.418 0 01-.232.543l-4.648 1.87a.418.418 0 01-.543-.232l-.156-.387 5.423-2.181.156.387zm-.004-2.248l.155.387a.417.417 0 01-.231.543l-6.198 2.493a.417.417 0 01-.544-.232l-.155-.387 6.973-2.804zm-3.411.471l-.775.312-2.148-5.34.775-.312 2.148 5.34zm.484-7.749l.155.387-4.26 1.714-2.712 1.09-.156-.386a.417.417 0 01.231-.544l6.199-2.492a.417.417 0 01.543.231zm-1.398-1.238l.156.388-5.424 2.18-.156-.387a.418.418 0 01.232-.543l4.648-1.87a.418.418 0 01.544.232z" fill="#000" opacity=".4"/></svg>