<svg width="351" height="275" fill="none" xmlns="http://www.w3.org/2000/svg"><path d="M328.81 63.12l-4.385-4.227 4.228-4.384-21.922-21.137-4.227 4.384-4.384-4.227c-2.412-2.325-6.287-2.254-8.612.157l-2.114 2.192c-5.389 5.59-5.577 14.208-.818 20.108-1.789 4.62-1.218 9.95 1.658 14.12l-6.553 6.795-8.768-8.455-4.228 4.385 21.922 21.136 4.227-4.384-8.769-8.455 6.553-6.795c4.271 2.722 9.618 3.098 14.17 1.141 6.07 4.542 14.675 4.04 20.065-1.55l2.114-2.192c2.325-2.411 2.254-6.287-.157-8.612zm-37.031-23.015l2.113-2.192 4.385 4.228-8.075 8.374c-1.655-3.373-1.171-7.56 1.577-10.41zm2.663 27.949c-3.617-3.488-3.723-9.3-.236-12.917l12.682-13.153 13.153 12.682-12.682 13.153c-3.487 3.617-9.3 3.723-12.917.235zm28.027 1.643c-2.748 2.85-6.914 3.486-10.345 1.954l8.074-8.374 4.384 4.228-2.113 2.192z" fill="#000" opacity=".3"/><path d="M29.73 232.942l-2.684 1.693-1.693-2.684-13.42 8.465 1.693 2.684-2.684 1.693a3.183 3.183 0 00-.99 4.377l.846 1.342c2.158 3.422 6.496 4.588 10.073 2.913a7.947 7.947 0 007.35.917l2.624 4.16-5.368 3.386 1.693 2.684 13.42-8.465-1.693-2.684-5.368 3.386-2.624-4.16a7.948 7.948 0 002.339-7.028c3.052-2.507 3.868-6.924 1.71-10.346l-.847-1.342a3.183 3.183 0 00-4.377-.991zm-16.248 15.877l-.847-1.342 2.684-1.693 3.234 5.126c-1.913.419-3.97-.346-5.071-2.091zm14.472 2.126a4.774 4.774 0 01-6.565-1.486l-5.079-8.052 8.052-5.079 5.079 8.052a4.773 4.773 0 01-1.487 6.565zm4.315-13.977c1.1 1.745.905 3.932-.297 5.478l-3.233-5.127 2.684-1.693.846 1.342z" fill="#000" opacity=".2"/><g opacity=".35" fill="#000"><path d="M59.744 20.963h-7.738a.895.895 0 01-.814-.523l-8.75-19.174A.895.895 0 0143.255 0h7.739a.894.894 0 01.814.523L57.94 13.97a.894.894 0 010 .742l-2.032 4.456h3.833a.894.894 0 01.895.894v.006a.894.894 0 01-.892.895zm-7.163-1.79h1.36l2.204-4.83L50.418 1.79h-5.77l7.933 17.385z"/><path d="M62.264 20.957H54.52a.894.894 0 01-.814-1.266L62.456.522A.895.895 0 0163.269 0h7.746a.895.895 0 01.813 1.267l-8.75 19.166a.895.895 0 01-.814.524zm-6.352-1.79h5.78l7.93-17.378h-5.779l-7.93 17.379z"/><path d="M66.531 24.168H47.742a.894.894 0 01-.895-.895v-5.792a.895.895 0 01.895-.895h3.087a.894.894 0 110 1.79h-2.192v4.003H65.64v-4.004h-2.199a.895.895 0 010-1.789h3.09a.894.894 0 01.894.895v5.792a.895.895 0 01-.895.895z"/><path d="M57.134 62.616a18.133 18.133 0 1118.133-18.133 18.153 18.153 0 01-18.133 18.133zm0-34.477a16.344 16.344 0 1016.344 16.344A16.363 16.363 0 0057.134 28.14z"/><path d="M57.134 58.397A13.915 13.915 0 1171.05 44.483a13.93 13.93 0 01-13.915 13.914zm0-26.04A12.126 12.126 0 1069.26 44.483a12.14 12.14 0 00-12.126-12.126z"/><path d="M60.011 28.343a.894.894 0 01-.894-.895v-3.277h-3.964v3.277a.894.894 0 11-1.789 0v-4.172a.895.895 0 01.895-.894h5.752a.894.894 0 01.895.894v4.172a.894.894 0 01-.895.895zm1.396 22.812a.894.894 0 01-.415-.103l-3.858-2.026-3.857 2.026a.894.894 0 01-1.298-.942l.737-4.294-3.12-3.041a.895.895 0 01.495-1.526l4.313-.627 1.925-3.909a.931.931 0 011.605 0l1.929 3.908 4.312.626a.895.895 0 01.496 1.526l-3.121 3.041.737 4.294a.894.894 0 01-.882 1.046l.002.001zm-4.273-4.035c.145 0 .288.035.416.103l2.67 1.403-.51-2.972a.894.894 0 01.257-.793l2.16-2.103-2.984-.433a.896.896 0 01-.674-.49l-1.335-2.705-1.334 2.704a.895.895 0 01-.674.49l-2.984.433 2.16 2.105a.894.894 0 01.257.792l-.51 2.972 2.67-1.403a.886.886 0 01.415-.103z"/></g><path d="M320.892 231.58a2.62 2.62 0 00.667-2.704 2.622 2.622 0 00-2.129-1.795l-8.753-1.272a.527.527 0 01-.397-.289l-3.914-7.93a2.623 2.623 0 00-2.366-1.471 2.622 2.622 0 00-2.365 1.471l-3.914 7.931a.53.53 0 01-.397.288l-8.753 1.272a2.62 2.62 0 00-2.129 1.795 2.62 2.62 0 00.667 2.704l6.334 6.174a.525.525 0 01.151.467l-1.495 8.716a2.62 2.62 0 001.05 2.58 2.62 2.62 0 002.778.201l7.828-4.115a.526.526 0 01.491 0l7.828 4.115a2.62 2.62 0 002.778-.201 2.622 2.622 0 001.05-2.58l-1.495-8.716a.525.525 0 01.151-.467l6.334-6.174zm-8.565 6.997l1.495 8.717a.514.514 0 01-.21.516.514.514 0 01-.556.04l-7.828-4.115a2.636 2.636 0 00-2.455 0l-7.828 4.115a.514.514 0 01-.556-.04.514.514 0 01-.21-.516l1.495-8.717a2.635 2.635 0 00-.758-2.334l-6.333-6.174a.516.516 0 01-.134-.541.517.517 0 01.426-.359l8.752-1.272a2.634 2.634 0 001.986-1.443l3.915-7.93a.514.514 0 01.473-.295c.098 0 .342.029.473.295l3.914 7.931a2.64 2.64 0 001.986 1.443l8.752 1.271a.515.515 0 01.426.359.513.513 0 01-.133.541l-6.334 6.174a2.635 2.635 0 00-.758 2.334zm4-20.988a1.055 1.055 0 00-1.474.234l-1.12 1.541a1.055 1.055 0 001.707 1.241l1.12-1.542a1.055 1.055 0 00-.233-1.474zm-22.065 1.769l-1.12-1.542a1.056 1.056 0 00-1.707 1.241l1.12 1.541c.206.285.528.435.855.435a1.055 1.055 0 00.852-1.675zm-6.391 20.435a1.054 1.054 0 00-1.329-.678l-1.813.589a1.056 1.056 0 00.653 2.007l1.812-.589c.554-.18.857-.775.677-1.329zM304 251.508c-.582 0-1.055.472-1.055 1.055v1.906a1.056 1.056 0 002.111 0v-1.906c0-.583-.473-1.055-1.056-1.055zm19.27-11.802l-1.812-.589a1.055 1.055 0 10-.652 2.007l1.812.589a1.057 1.057 0 00.652-2.007zm-57.057-31.816a1.508 1.508 0 00.383-1.555 1.506 1.506 0 00-1.224-1.032l-5.033-.731a.307.307 0 01-.228-.166l-2.251-4.56a1.506 1.506 0 00-1.36-.846c-.581 0-1.103.324-1.36.846l-2.25 4.56a.308.308 0 01-.229.166l-5.032.731a1.508 1.508 0 00-1.225 1.032 1.506 1.506 0 00.384 1.555l3.642 3.55c.071.07.104.17.087.268l-.86 5.013a1.508 1.508 0 00.603 1.483 1.51 1.51 0 001.598.116l4.501-2.367a.307.307 0 01.283 0l4.501 2.367a1.513 1.513 0 001.597-.116c.471-.342.702-.91.603-1.483l-.859-5.013a.303.303 0 01.087-.268l3.642-3.55zm-4.925 4.024l.86 5.012a.295.295 0 01-.121.296.295.295 0 01-.32.024l-4.501-2.367a1.517 1.517 0 00-1.411 0l-4.502 2.366a.292.292 0 01-.319-.023.294.294 0 01-.121-.296l.86-5.012a1.52 1.52 0 00-.436-1.343l-3.642-3.55a.297.297 0 01-.077-.311.296.296 0 01.245-.206l5.033-.731a1.517 1.517 0 001.142-.83l2.25-4.56a.297.297 0 01.272-.17c.057 0 .197.017.272.17l2.251 4.56c.221.448.648.758 1.142.83l5.033.731a.293.293 0 01.244.206.294.294 0 01-.076.311l-3.642 3.55a1.52 1.52 0 00-.436 1.343zm2.3-12.069a.607.607 0 00-.848.134l-.644.887a.606.606 0 00.982.713l.644-.886a.607.607 0 00-.134-.848zm-12.687 1.017l-.644-.886a.607.607 0 00-.982.713l.644.887a.608.608 0 00.982-.714zm-3.675 11.75a.607.607 0 00-.765-.389l-1.042.338a.607.607 0 00.375 1.154l1.042-.338a.607.607 0 00.39-.765zm9.274 6.737a.606.606 0 00-.606.606v1.096a.606.606 0 101.213 0v-1.096a.606.606 0 00-.607-.606zm11.081-6.787l-1.042-.338a.606.606 0 10-.375 1.154l1.042.338a.607.607 0 00.375-1.154z" opacity=".3" fill="#000"/></svg>