<?xml version="1.0" encoding="utf-8"?>
<!-- Generator: Adobe Illustrator 25.2.3, SVG Export Plug-In . SVG Version: 6.00 Build 0)  -->
<svg version="1.1" id="Слой_1" xmlns="http://www.w3.org/2000/svg" xmlns:xlink="http://www.w3.org/1999/xlink" x="0px" y="0px"
	 viewBox="0 0 487 461" style="enable-background:new 0 0 487 461;" xml:space="preserve">
<style type="text/css">
	.st0{fill:#0066FF;}
	.st1{opacity:0.8;}
	.st2{opacity:0.5;}
</style>
<path class="st0" d="M274.6,279.3c-12.5,0-22.7-9.7-22.7-21.8v-29c0-12,10.1-21.8,22.7-21.8c4.6,0,45.3-7.3,45.3-36.3
	c0-14.5-15.1-29-37.8-29c-18.4,0-30.2,14.5-30.2,21.8c0,12-10.1,21.8-22.7,21.8c-12.5,0-22.7-9.7-22.7-21.8
	c0-35.4,34.6-65.3,75.5-65.3c60.4,0,83.1,43.4,83.1,79.8c0,30.1-17.2,53.1-48.4,64.7c-6.8,2.5-13.5,4.3-19.5,5.4v9.7
	C297.2,269.6,287.1,279.3,274.6,279.3z"/>
<path class="st0" d="M274.6,337.4c12.5,0,22.7-9.7,22.7-21.8c0-12-10.1-21.8-22.7-21.8c-12.5,0-22.7,9.7-22.7,21.8
	C251.9,327.6,262,337.4,274.6,337.4z"/>
<g class="st1">
	<path class="st0" d="M116,110.7c-5.1,2.2-11.2,0.1-13.5-4.9l-5.6-11.9c-2.3-4.9-0.1-10.8,5.1-13c1.9-0.8,17.2-11.1,11.6-23
		c-2.8-6-11.8-9.2-21.2-5.2c-7.6,3.3-9.6,11.4-8.2,14.4c2.3,4.9,0.1,10.8-5.1,13c-5.1,2.2-11.2,0.1-13.5-4.9
		c-6.9-14.5,1.5-33,18.4-40.4c24.8-10.8,42.6,2.9,49.6,17.9c5.8,12.4,3.2,24.9-7.3,35.3c-2.3,2.3-4.7,4.2-7,5.7l1.9,4
		C123.4,102.6,121.2,108.4,116,110.7z"/>
	<path class="st0" d="M127.2,134.6c5.1-2.2,7.4-8.1,5.1-13s-8.4-7.1-13.5-4.9c-5.1,2.2-7.4,8.1-5.1,13
		C116,134.6,122.1,136.8,127.2,134.6z"/>
</g>
<g class="st1">
	<path class="st0" d="M412.7,414.2c-5.3-2-7.8-7.7-5.8-12.7l5-12.2c2.1-5,8-7.5,13.3-5.5c1.9,0.7,20.3,4.2,25.3-8
		c2.5-6.1-1.3-14.6-10.8-18.2c-7.7-2.9-15.2,1.3-16.4,4.3c-2.1,5-8,7.5-13.3,5.5c-5.3-2-7.8-7.7-5.8-12.7
		c6.1-14.9,25.8-21.9,43-15.4c25.4,9.6,27.4,31.4,21.1,46.7c-5.2,12.6-16.4,19.5-31.5,19.5c-3.3,0-6.4-0.4-9.1-0.8l-1.7,4.1
		C423.9,413.7,417.9,416.2,412.7,414.2z"/>
	<path class="st0" d="M402.7,438.5c5.3,2,11.2-0.5,13.3-5.5c2.1-5-0.5-10.8-5.8-12.7c-5.3-2-11.2,0.5-13.3,5.5
		C394.8,430.8,397.4,436.5,402.7,438.5z"/>
</g>
<g class="st2">
	<path class="st0" d="M85.4,350.3c-7.3,0.8-13.6-4.4-14.1-11.4l-1.3-17.1c-0.5-7.1,4.9-13.4,12.2-14.2c2.6-0.3,26-7,24.7-24.1
		c-0.7-8.5-10.1-16.2-23.2-14.8c-10.7,1.1-16.9,10.4-16.6,14.6c0.5,7.1-4.9,13.4-12.2,14.2c-7.3,0.8-13.6-4.4-14.1-11.4
		c-1.6-20.8,17.1-40.5,40.9-43c35.1-3.7,50.2,20.5,51.9,41.9c1.4,17.7-7.6,32.3-25.2,41c-3.8,1.9-7.7,3.3-11.1,4.4l0.4,5.7
		C98.1,343.1,92.6,349.5,85.4,350.3z"/>
	<path class="st0" d="M88,384.4c7.3-0.8,12.7-7.1,12.2-14.2c-0.5-7.1-6.9-12.2-14.1-11.4c-7.3,0.8-12.7,7.1-12.2,14.2
		C74.4,380.1,80.7,385.2,88,384.4z"/>
</g>
</svg>
