<?xml version="1.0" encoding="utf-8"?>
<!-- Generator: Adobe Illustrator 25.2.3, SVG Export Plug-In . SVG Version: 6.00 Build 0)  -->
<svg version="1.1" id="Слой_1" xmlns="http://www.w3.org/2000/svg" xmlns:xlink="http://www.w3.org/1999/xlink" x="0px" y="0px"
	 viewBox="0 0 457 351" style="enable-background:new 0 0 457 351;" xml:space="preserve">
<style type="text/css">
	.st0{fill:#EF9645;}
	.st1{fill:#FFCC4D;}
	.st2{fill:#FFDC5D;}
</style>
<g>
	<path class="st0" d="M215.7,172.8c0,0-66.2,57.9-85,75c-14.5,13.2,9.7,38.4,23.4,26.9c36.6-30.6,71.3-53.3,71.3-53.3l4,5.8
		c-14.4,8.7-51.5,31.4-70.8,48.7c-14.5,13.1,8.4,39,23,26c20-17.9,65.8-50.1,65.8-50.1l4,4.2c-11.9,7.5-30.4,21.3-54.7,43.5
		c-14.6,13.3,6.8,27.3,19.4,16.8c34.2-28.4,35.5-48.1,73.1-64.2C346.8,227.5,215.7,172.8,215.7,172.8z"/>
	<path class="st1" d="M358.2,72.1c9.7-4.8,18.2,1.6,23.1,11.6c4.9,10,27.8,55.1,32.4,64.5c4.7,9.4,2.1,23.1-7.9,28
		c-10,5-24.5,11.6-34,27.6c-5.1,8.7-26.3,31.7-83.8,56.3c-37.6,16.1-67.7,43.2-79.7,52.7c-9.7,7.7-29.4-7-14.7-20.3
		c24.3-22.2,42.9-36,54.7-43.5l-4-4.2c0,0-48.1,33.6-68.5,51.1c-13.8,11.9-32.3-10.5-17.7-23.5c19.3-17.4,53.8-43.4,68.2-52.1
		l-4-5.8c0,0-37.7,24.5-74.3,55.1c-12.2,10.2-31.3-12.7-16.7-26c18.8-17.1,55.4-47.7,77.9-60.4l-2.2-6.7c0,0-35.3,19.8-65.8,49.4
		c-10.9,10.6-32.7-9-16.7-25.2c38-38.7,87.4-61.6,100.5-70.4c17.6-11.9,26.9-19.3,17.6-23.4c-14-6.3-37.3-28.4-46.2-46.2
		c-11.6-23.1,4.8-41.4,23.1-23.1c11.6,11.6,34.7,34.7,57.8,34.7c31.1,0,35.8,11.6,57.8,11.6C346.7,83.7,358.2,72.1,358.2,72.1z"/>
	<path class="st0" d="M304.1,141.6c-3.7,0-15.8-1.6-29.5-8c-11.8-5.4-20.9-15.3-28.5-23.5c0.4,1.8-0.7,3.9-3.1,6.4
		c7.5,8.7,18.9,18.6,29.1,23.6c11.9,5.8,25.4,8.7,31.5,8.4C309.9,148.3,307.9,141.7,304.1,141.6z M327.9,235.9
		c-24.9-11.6-44.6-21.2-10.7-7.2c14,5.8,35.1-22.6,14.4-32c-41.5-19-170.8-89.7-170.8-89.7s-69.9,81.7-61.3,86.9
		c8.7,5.2,12.3,42.3,62.2,74.9c47.2,30.8,76.6,44.1,87.6,49.6c23.1,11.6,38.2-18.4,20.1-26.5c-31.1-13.9-30-14.7,15.6,4.2
		c16.9,7,31.1-24.7,13.2-32.7c-26.6-12-29-13.4,13.6,5.8C327.7,276.1,345.7,244.2,327.9,235.9z"/>
	<path class="st2" d="M106.9,77c-9.2-5.6-21.5-2.8-27.3,6.8c-5.8,9.6-31.1,51.4-36.4,60.4c-5.4,9-4,22.8,5.6,28.6
		c9.6,5.8,26.9,16.2,35.5,21.4c8.7,5.2,44,49.2,95.1,79.9c51,30.8,69.9,36.1,81.4,40.6c11.5,4.5,26.8-18.5,8.7-26.5
		c-31.2-13.9-53.1-26.8-64.3-35.2l3.5-6.4c0,0,31.2,23.3,76.7,42.3c16.9,7,30.6-19.3,12.8-27.3c-26.6-12-59.4-31.8-73-41.6l3.8-6.3
		c0,0,43.3,27.4,85.9,46.6c15.7,7.1,28.9-19.6,11.1-27.9c-24.8-11.6-59.8-32.5-81.2-47l3.7-5.5c0,0,39.7,28,73.6,42
		c14,5.8,30.5-20.4,9.9-29.9c-41.5-18.9-88.6-52.1-100.9-62c-10.1-8.1-13-26.5,11.6-34.7c34.7-11.6,46.2-34.7,46.2-46.2
		c0-16.4-15.1-23.6-23.1-11.6C242.6,72.1,231,60.3,208,72.1c-27.6,14.2-60,29.2-78.8,17.9C121.1,85.2,106.9,77,106.9,77z"/>
	<path class="st1" d="M237.1,103.8L296.7,74c-5.2-1.1-11.4-1.9-19.4-1.9c-23.1,0-46.2-23.1-57.8-34.7c-18.3-18.3-34.7,0-23.1,23.1
		C204.3,76.3,223.1,95.2,237.1,103.8z"/>
</g>
</svg>
